#N canvas 376 319 355 371 10;
#X text 49 21 1del0 <delay time>;
#X text 164 253 (c)2012 Marian Weger;
#X obj 40 119 tgl 15 0 empty empty empty 17 7 0 10 -262144 -1 -1 0
1;
#X obj 90 202 1del0 1000;
#X obj 90 248 tgl 15 0 empty empty empty 17 7 0 10 -262144 -1 -1 0
1;
#X text 48 66 1 gets through \, 0 gets delayed.;
#X floatatom 217 129 5 0 0 2 delay_time - -;
#X msg 110 142 \$1 5000;
#X obj 110 117 tgl 15 0 empty empty empty 17 7 0 10 -262144 -1 -1 0
1;
#X connect 2 0 3 0;
#X connect 3 0 4 0;
#X connect 6 0 3 1;
#X connect 7 0 3 0;
#X connect 8 0 7 0;
