#N canvas 376 319 382 298 10;
#X obj 99 61 inlet;
#X text 49 21 1del0 <delay time>;
#X obj 99 103 sel 1 0;
#X obj 26 167 t b b;
#X msg 26 209 1;
#X msg 118 167 0;
#X obj 138 209 pipe \$1;
#X msg 72 167 clear;
#X obj 26 261 outlet;
#X text 118 275 (c)2012 Marian Weger;
#X obj 237 61 inlet;
#X obj 99 82 unpack 0 0;
#X connect 0 0 11 0;
#X connect 2 0 3 0;
#X connect 2 1 5 0;
#X connect 3 0 4 0;
#X connect 3 1 7 0;
#X connect 4 0 8 0;
#X connect 5 0 6 0;
#X connect 6 0 8 0;
#X connect 7 0 6 0;
#X connect 10 0 6 1;
#X connect 11 0 2 0;
#X connect 11 1 6 1;
