#N canvas 47 147 1123 359 10;
#X obj 49 83 inlet~;
#X obj 149 83 inlet~;
#X obj 49 175 s /an/vu/\$1/1;
#X obj 149 175 s /an/vu/\$1/2;
#X obj 249 83 inlet~;
#X obj 249 175 s /an/vu/\$1/3;
#X obj 349 83 inlet~;
#X obj 349 175 s /an/vu/\$1/4;
#X obj 449 83 inlet~;
#X obj 449 175 s /an/vu/\$1/5;
#X obj 549 83 inlet~;
#X obj 549 175 s /an/vu/\$1/6;
#X obj 649 83 inlet~;
#X obj 749 83 inlet~;
#X obj 649 175 s /an/vu/\$1/7;
#X obj 749 175 s /an/vu/\$1/8;
#X obj 614 270 outlet;
#X obj 718 268 outlet;
#X obj 4893 90 inlet;
#X text 37 31 available types: rms \, peak;
#X obj 849 83 inlet~;
#X obj 949 83 inlet~;
#X obj 1049 83 inlet~;
#X obj 1149 83 inlet~;
#X obj 1249 83 inlet~;
#X obj 1349 83 inlet~;
#X obj 1449 83 inlet~;
#X obj 1549 83 inlet~;
#X obj 1649 83 inlet~;
#X obj 1749 83 inlet~;
#X obj 1849 83 inlet~;
#X obj 1949 83 inlet~;
#X obj 2049 83 inlet~;
#X obj 2149 83 inlet~;
#X obj 2249 83 inlet~;
#X obj 2349 83 inlet~;
#X obj 849 175 s /an/vu/\$1/9;
#X obj 949 175 s /an/vu/\$1/10;
#X obj 1049 175 s /an/vu/\$1/11;
#X obj 1149 175 s /an/vu/\$1/12;
#X obj 1249 175 s /an/vu/\$1/13;
#X obj 1349 175 s /an/vu/\$1/14;
#X obj 1449 175 s /an/vu/\$1/15;
#X obj 1549 175 s /an/vu/\$1/16;
#X obj 1649 175 s /an/vu/\$1/17;
#X obj 1749 175 s /an/vu/\$1/18;
#X obj 1849 175 s /an/vu/\$1/19;
#X obj 1949 175 s /an/vu/\$1/20;
#X obj 2049 175 s /an/vu/\$1/21;
#X obj 2149 175 s /an/vu/\$1/22;
#X obj 2249 175 s /an/vu/\$1/23;
#X obj 2349 175 s /an/vu/\$1/24;
#X obj 2149 122 an_vu_\$3~ \$4;
#X obj 4978 86 r /an/vu/\$1/state;
#X obj 4978 158 switch~;
#X obj 4978 129 && 1;
#X obj 4996 107 t b f;
#X obj 5054 119 loadbang;
#X msg 5054 141 1;
#X obj 49 122 an_vu_\$3~ \$4;
#X obj 149 122 an_vu_\$3~ \$4;
#X obj 249 122 an_vu_\$3~ \$4;
#X obj 349 122 an_vu_\$3~ \$4;
#X obj 449 122 an_vu_\$3~ \$4;
#X obj 549 122 an_vu_\$3~ \$4;
#X obj 649 122 an_vu_\$3~ \$4;
#X obj 749 122 an_vu_\$3~ \$4;
#X obj 849 122 an_vu_\$3~ \$4;
#X obj 949 122 an_vu_\$3~ \$4;
#X obj 1049 122 an_vu_\$3~ \$4;
#X obj 1149 122 an_vu_\$3~ \$4;
#X obj 1249 122 an_vu_\$3~ \$4;
#X obj 1349 122 an_vu_\$3~ \$4;
#X obj 1449 122 an_vu_\$3~ \$4;
#X obj 1549 122 an_vu_\$3~ \$4;
#X obj 1649 122 an_vu_\$3~ \$4;
#X obj 1749 122 an_vu_\$3~ \$4;
#X obj 1849 122 an_vu_\$3~ \$4;
#X obj 1949 122 an_vu_\$3~ \$4;
#X obj 2049 122 an_vu_\$3~ \$4;
#X obj 2249 122 an_vu_\$3~ \$4;
#X obj 2349 122 an_vu_\$3~ \$4;
#X text 27 11 an_vu_48~ <name> <domain> <type> (<arg1> <arg2> ...)
;
#X text 38 250 (c)2015 Marian Weger;
#X obj 2474 83 inlet~;
#X obj 2574 83 inlet~;
#X obj 2674 83 inlet~;
#X obj 2774 83 inlet~;
#X obj 2874 83 inlet~;
#X obj 2974 83 inlet~;
#X obj 3074 83 inlet~;
#X obj 3174 83 inlet~;
#X obj 3274 83 inlet~;
#X obj 3374 83 inlet~;
#X obj 3474 83 inlet~;
#X obj 3574 83 inlet~;
#X obj 3674 83 inlet~;
#X obj 3774 83 inlet~;
#X obj 3874 83 inlet~;
#X obj 3974 83 inlet~;
#X obj 4074 83 inlet~;
#X obj 4174 83 inlet~;
#X obj 4274 83 inlet~;
#X obj 4374 83 inlet~;
#X obj 4474 83 inlet~;
#X obj 4574 83 inlet~;
#X obj 4674 83 inlet~;
#X obj 4774 83 inlet~;
#X obj 4574 122 an_vu_\$3~ \$4;
#X obj 2474 122 an_vu_\$3~ \$4;
#X obj 2574 122 an_vu_\$3~ \$4;
#X obj 2674 122 an_vu_\$3~ \$4;
#X obj 2774 122 an_vu_\$3~ \$4;
#X obj 2874 122 an_vu_\$3~ \$4;
#X obj 2974 122 an_vu_\$3~ \$4;
#X obj 3074 122 an_vu_\$3~ \$4;
#X obj 3174 122 an_vu_\$3~ \$4;
#X obj 3274 122 an_vu_\$3~ \$4;
#X obj 3374 122 an_vu_\$3~ \$4;
#X obj 3474 122 an_vu_\$3~ \$4;
#X obj 3574 122 an_vu_\$3~ \$4;
#X obj 3674 122 an_vu_\$3~ \$4;
#X obj 3774 122 an_vu_\$3~ \$4;
#X obj 3874 122 an_vu_\$3~ \$4;
#X obj 3974 122 an_vu_\$3~ \$4;
#X obj 4074 122 an_vu_\$3~ \$4;
#X obj 4174 122 an_vu_\$3~ \$4;
#X obj 4274 122 an_vu_\$3~ \$4;
#X obj 4374 122 an_vu_\$3~ \$4;
#X obj 4474 122 an_vu_\$3~ \$4;
#X obj 4674 122 an_vu_\$3~ \$4;
#X obj 4774 122 an_vu_\$3~ \$4;
#X obj 2474 175 s /an/vu/\$1/25;
#X obj 2574 175 s /an/vu/\$1/26;
#X obj 2674 175 s /an/vu/\$1/27;
#X obj 2774 175 s /an/vu/\$1/28;
#X obj 2874 175 s /an/vu/\$1/29;
#X obj 2974 175 s /an/vu/\$1/30;
#X obj 3074 175 s /an/vu/\$1/31;
#X obj 3174 175 s /an/vu/\$1/32;
#X obj 3274 175 s /an/vu/\$1/33;
#X obj 3374 175 s /an/vu/\$1/34;
#X obj 3474 175 s /an/vu/\$1/35;
#X obj 3574 175 s /an/vu/\$1/36;
#X obj 3674 175 s /an/vu/\$1/37;
#X obj 3774 175 s /an/vu/\$1/38;
#X obj 3874 175 s /an/vu/\$1/39;
#X obj 3974 175 s /an/vu/\$1/40;
#X obj 4074 175 s /an/vu/\$1/41;
#X obj 4174 175 s /an/vu/\$1/42;
#X obj 4274 175 s /an/vu/\$1/43;
#X obj 4374 175 s /an/vu/\$1/44;
#X obj 4474 175 s /an/vu/\$1/45;
#X obj 4574 175 s /an/vu/\$1/46;
#X obj 4674 175 s /an/vu/\$1/47;
#X obj 4774 175 s /an/vu/\$1/48;
#X connect 0 0 59 0;
#X connect 1 0 60 0;
#X connect 4 0 61 0;
#X connect 6 0 62 0;
#X connect 8 0 63 0;
#X connect 10 0 64 0;
#X connect 12 0 65 0;
#X connect 13 0 66 0;
#X connect 18 0 56 0;
#X connect 20 0 67 0;
#X connect 21 0 68 0;
#X connect 22 0 69 0;
#X connect 23 0 70 0;
#X connect 24 0 71 0;
#X connect 25 0 72 0;
#X connect 26 0 73 0;
#X connect 27 0 74 0;
#X connect 28 0 75 0;
#X connect 29 0 76 0;
#X connect 30 0 77 0;
#X connect 31 0 78 0;
#X connect 32 0 79 0;
#X connect 33 0 52 0;
#X connect 34 0 80 0;
#X connect 35 0 81 0;
#X connect 52 0 49 0;
#X connect 53 0 55 0;
#X connect 55 0 54 0;
#X connect 56 0 55 0;
#X connect 56 1 55 1;
#X connect 57 0 58 0;
#X connect 58 0 55 0;
#X connect 59 0 2 0;
#X connect 60 0 3 0;
#X connect 61 0 5 0;
#X connect 62 0 7 0;
#X connect 63 0 9 0;
#X connect 64 0 11 0;
#X connect 65 0 14 0;
#X connect 66 0 15 0;
#X connect 67 0 36 0;
#X connect 68 0 37 0;
#X connect 69 0 38 0;
#X connect 70 0 39 0;
#X connect 71 0 40 0;
#X connect 72 0 41 0;
#X connect 73 0 42 0;
#X connect 74 0 43 0;
#X connect 75 0 44 0;
#X connect 76 0 45 0;
#X connect 77 0 46 0;
#X connect 78 0 47 0;
#X connect 79 0 48 0;
#X connect 80 0 50 0;
#X connect 81 0 51 0;
#X connect 84 0 109 0;
#X connect 85 0 110 0;
#X connect 86 0 111 0;
#X connect 87 0 112 0;
#X connect 88 0 113 0;
#X connect 89 0 114 0;
#X connect 90 0 115 0;
#X connect 91 0 116 0;
#X connect 92 0 117 0;
#X connect 93 0 118 0;
#X connect 94 0 119 0;
#X connect 95 0 120 0;
#X connect 96 0 121 0;
#X connect 97 0 122 0;
#X connect 98 0 123 0;
#X connect 99 0 124 0;
#X connect 100 0 125 0;
#X connect 101 0 126 0;
#X connect 102 0 127 0;
#X connect 103 0 128 0;
#X connect 104 0 129 0;
#X connect 105 0 108 0;
#X connect 106 0 130 0;
#X connect 107 0 131 0;
#X connect 108 0 153 0;
#X connect 109 0 132 0;
#X connect 110 0 133 0;
#X connect 111 0 134 0;
#X connect 112 0 135 0;
#X connect 113 0 136 0;
#X connect 114 0 137 0;
#X connect 115 0 138 0;
#X connect 116 0 139 0;
#X connect 117 0 140 0;
#X connect 118 0 141 0;
#X connect 119 0 142 0;
#X connect 120 0 143 0;
#X connect 121 0 144 0;
#X connect 122 0 145 0;
#X connect 123 0 146 0;
#X connect 124 0 147 0;
#X connect 125 0 148 0;
#X connect 126 0 149 0;
#X connect 127 0 150 0;
#X connect 128 0 151 0;
#X connect 129 0 152 0;
#X connect 130 0 154 0;
#X connect 131 0 155 0;
