#N canvas 259 330 920 337 10;
#X obj 49 83 inlet~;
#X text 38 250 (c)2012 Marian Weger;
#X obj 149 83 inlet~;
#X obj 49 175 s /an/vu/\$1/1;
#X obj 149 175 s /an/vu/\$1/2;
#X obj 249 83 inlet~;
#X obj 249 175 s /an/vu/\$1/3;
#X obj 349 83 inlet~;
#X obj 349 175 s /an/vu/\$1/4;
#X obj 449 83 inlet~;
#X obj 449 175 s /an/vu/\$1/5;
#X obj 549 83 inlet~;
#X obj 549 175 s /an/vu/\$1/6;
#X obj 649 83 inlet~;
#X obj 749 83 inlet~;
#X obj 649 175 s /an/vu/\$1/7;
#X obj 749 175 s /an/vu/\$1/8;
#X obj 614 270 outlet;
#X obj 718 268 outlet;
#X obj 844 87 inlet;
#X text 27 11 an_vu_8~ <name> <domain> <type> (<arg1> <arg2> ...);
#X text 37 31 available types: rms \, peak;
#X obj 49 122 an_vu_\$3~ \$4;
#X obj 149 122 an_vu_\$3~ \$4;
#X obj 249 122 an_vu_\$3~ \$4;
#X obj 349 122 an_vu_\$3~ \$4;
#X obj 449 122 an_vu_\$3~ \$4;
#X obj 549 122 an_vu_\$3~ \$4;
#X obj 649 122 an_vu_\$3~ \$4;
#X obj 749 122 an_vu_\$3~ \$4;
#X connect 0 0 22 0;
#X connect 2 0 23 0;
#X connect 5 0 24 0;
#X connect 7 0 25 0;
#X connect 9 0 26 0;
#X connect 11 0 27 0;
#X connect 13 0 28 0;
#X connect 14 0 29 0;
#X connect 22 0 3 0;
#X connect 23 0 4 0;
#X connect 24 0 6 0;
#X connect 25 0 8 0;
#X connect 26 0 10 0;
#X connect 27 0 12 0;
#X connect 28 0 15 0;
#X connect 29 0 16 0;
