#N canvas 57 39 672 650 10;
#X obj 255 217 r \$0-dummy;
#X text 229 269 (c)2012 Marian Weger;
#X obj 101 101 cnv 15 115 131 empty empty empty 20 12 0 14 -228856
-66577 0;
#X obj 202 218 tgl 15 0 /an/vu/\$1/state /an/vu/\$1/state empty 0 -7
0 10 -204786 -1 -1 0 1;
#X obj 202 100 tgl 15 0 \$0-dummy \$0-clip empty 0 -7 0 10 -228856
-258113 -1 0 1;
#X obj 100 102 vsl 11 128 0 1 0 0 \$0-dummy \$0-vu-1 empty 0 -9 0 10
-1 -257985 -1 0 1;
#X obj 113 102 vsl 11 128 0 1 0 0 \$0-dummy \$0-vu-2 empty 0 -9 0 10
-1 -257985 -1 0 1;
#X obj 172 457 sel 1;
#X msg 172 479 1;
#X obj 172 500 s \$0-clip;
#X obj 126 102 vsl 11 128 0 1 0 0 \$0-dummy \$0-vu-3 empty 0 -9 0 10
-1 -257985 -1 0 1;
#X obj 139 102 vsl 11 128 0 1 0 0 \$0-dummy \$0-vu-4 empty 0 -9 0 10
-1 -257985 -1 0 1;
#X obj 152 102 vsl 11 128 0 1 0 0 \$0-dummy \$0-vu-5 empty 0 -9 0 10
-1 -257985 -1 0 1;
#X obj 165 102 vsl 11 128 0 1 0 0 \$0-dummy \$0-vu-6 empty 0 -9 0 10
-1 -257985 -1 0 1;
#X obj 178 102 vsl 11 128 0 1 0 0 \$0-dummy \$0-vu-7 empty 0 -9 0 10
-1 -257985 -1 0 1;
#X obj 191 102 vsl 11 128 0 1 0 0 \$0-dummy \$0-vu-8 empty 0 -9 0 10
-1 -257985 -1 0 1;
#X text 63 55 gui for [an_vu_8~];
#X text 42 23 an_vu_8_gui <name>;
#X obj 172 435 >= 0;
#X obj 172 403 r \$0-clip-sum;
#X obj 447 125 an_vu_gui_calc \$0 \$1 1;
#X obj 447 145 an_vu_gui_calc \$0 \$1 2;
#X obj 447 165 an_vu_gui_calc \$0 \$1 3;
#X obj 447 185 an_vu_gui_calc \$0 \$1 4;
#X obj 447 205 an_vu_gui_calc \$0 \$1 5;
#X obj 447 225 an_vu_gui_calc \$0 \$1 6;
#X obj 447 245 an_vu_gui_calc \$0 \$1 7;
#X obj 447 265 an_vu_gui_calc \$0 \$1 8;
#X connect 7 0 8 0;
#X connect 8 0 9 0;
#X connect 18 0 7 0;
#X connect 19 0 18 0;
#X coords 0 -1 1 1 117 133 2 100 100;
