#N canvas 50 22 651 556 10;
#X text 327 374 (c)2012 Marian Weger;
#X obj 317 142 inlet statelist;
#X obj 317 236 &&;
#X obj 317 171 t b f;
#X msg 424 171 1;
#N canvas 421 287 347 248 init 0;
#X obj 209 29 loadbang;
#X obj 209 51 t b b;
#X obj 236 181 outlet;
#X obj 32 131 list prepend \$1 \$2;
#X msg 33 153 \; /an/vu/\$1/state 1 \;;
#X connect 0 0 1 0;
#X connect 1 0 3 0;
#X connect 1 1 2 0;
#X connect 3 0 4 0;
#X restore 424 142 pd init;
#N canvas 40 519 369 152 ds 0;
#X obj 96 49 ds_reg \$2 /an/vu/\$1/state nomorph;
#X restore 220 352 pd ds;
#N canvas 135 216 373 244 osc 0;
#X obj 96 49 # osc_bi \$2 /an/vu/\$1/state;
#X obj 96 82 # osc_s \$2 /an/vu/\$1;
#X restore 220 372 pd osc;
#X text 27 11 an_vu_ctl <name> <domain>;
#X obj 182 142 r /an/vu/\$1/state;
#X obj 317 308 outlet;
#X obj 59 160 inlet;
#X obj 69 323 outlet;
#X connect 1 0 3 0;
#X connect 2 0 10 0;
#X connect 3 0 2 0;
#X connect 3 1 2 1;
#X connect 4 0 2 1;
#X connect 5 0 4 0;
#X connect 9 0 2 0;
