#N canvas 27 117 831 619 10;
#X obj 110 328 r \$0-dummy;
#X obj 101 101 cnv 15 655 131 empty empty empty 20 12 0 14 -228856
-66577 0;
#X obj 742 218 tgl 15 0 /an/vu/\$1/state /an/vu/\$1/state empty 0 -7
0 10 -204786 -1 -1 0 1;
#X obj 742 100 tgl 15 0 \$0-dummy \$0-clip empty 0 -7 0 10 -228856
-258113 -1 0 1;
#X obj 100 102 vsl 11 128 0 1 0 0 \$0-dummy \$0-vu-1 empty 0 -9 0 10
-1 -257985 -1 0 1;
#X obj 113 102 vsl 11 128 0 1 0 0 \$0-dummy \$0-vu-2 empty 0 -9 0 10
-1 -257985 -1 0 1;
#X obj 169 454 sel 1;
#X msg 169 476 1;
#X obj 169 497 s \$0-clip;
#X obj 126 102 vsl 11 128 0 1 0 0 \$0-dummy \$0-vu-3 empty 0 -9 0 10
-1 -257985 -1 0 1;
#X obj 139 102 vsl 11 128 0 1 0 0 \$0-dummy \$0-vu-4 empty 0 -9 0 10
-1 -257985 -1 0 1;
#X obj 152 102 vsl 11 128 0 1 0 0 \$0-dummy \$0-vu-5 empty 0 -9 0 10
-1 -257985 -1 0 1;
#X obj 165 102 vsl 11 128 0 1 0 0 \$0-dummy \$0-vu-6 empty 0 -9 0 10
-1 -257985 -1 0 1;
#X obj 178 102 vsl 11 128 0 1 0 0 \$0-dummy \$0-vu-7 empty 0 -9 0 10
-1 -257985 -1 0 1;
#X obj 191 102 vsl 11 128 0 1 0 0 \$0-dummy \$0-vu-8 empty 0 -9 0 10
-1 -257985 -1 0 1;
#X obj 169 432 >= 0;
#X obj 447 276 an_vu_gui_calc \$0 \$1 1;
#X obj 169 410 r \$0-clip-sum;
#X obj 447 296 an_vu_gui_calc \$0 \$1 2;
#X obj 447 316 an_vu_gui_calc \$0 \$1 3;
#X obj 447 336 an_vu_gui_calc \$0 \$1 4;
#X obj 447 356 an_vu_gui_calc \$0 \$1 5;
#X obj 447 376 an_vu_gui_calc \$0 \$1 6;
#X obj 447 396 an_vu_gui_calc \$0 \$1 7;
#X obj 447 416 an_vu_gui_calc \$0 \$1 8;
#X obj 447 436 an_vu_gui_calc \$0 \$1 9;
#X obj 447 456 an_vu_gui_calc \$0 \$1 10;
#X obj 447 476 an_vu_gui_calc \$0 \$1 11;
#X obj 447 496 an_vu_gui_calc \$0 \$1 12;
#X obj 447 516 an_vu_gui_calc \$0 \$1 13;
#X obj 447 536 an_vu_gui_calc \$0 \$1 14;
#X obj 447 556 an_vu_gui_calc \$0 \$1 15;
#X obj 447 576 an_vu_gui_calc \$0 \$1 16;
#X obj 447 596 an_vu_gui_calc \$0 \$1 17;
#X obj 447 616 an_vu_gui_calc \$0 \$1 18;
#X obj 447 636 an_vu_gui_calc \$0 \$1 19;
#X obj 447 656 an_vu_gui_calc \$0 \$1 20;
#X obj 447 676 an_vu_gui_calc \$0 \$1 21;
#X obj 447 696 an_vu_gui_calc \$0 \$1 22;
#X obj 447 716 an_vu_gui_calc \$0 \$1 23;
#X obj 447 736 an_vu_gui_calc \$0 \$1 24;
#X obj 207 102 vsl 11 128 0 1 0 0 \$0-dummy \$0-vu-9 empty 0 -9 0 10
-1 -257985 -1 0 1;
#X obj 220 102 vsl 11 128 0 1 0 0 \$0-dummy \$0-vu-10 empty 0 -9 0
10 -1 -257985 -1 0 1;
#X obj 233 102 vsl 11 128 0 1 0 0 \$0-dummy \$0-vu-11 empty 0 -9 0
10 -1 -257985 -1 0 1;
#X obj 246 102 vsl 11 128 0 1 0 0 \$0-dummy \$0-vu-12 empty 0 -9 0
10 -1 -257985 -1 0 1;
#X obj 259 102 vsl 11 128 0 1 0 0 \$0-dummy \$0-vu-13 empty 0 -9 0
10 -1 -257985 -1 0 1;
#X obj 272 102 vsl 11 128 0 1 0 0 \$0-dummy \$0-vu-14 empty 0 -9 0
10 -1 -257985 -1 0 1;
#X obj 285 102 vsl 11 128 0 1 0 0 \$0-dummy \$0-vu-15 empty 0 -9 0
10 -1 -257985 -1 0 1;
#X obj 298 102 vsl 11 128 0 1 0 0 \$0-dummy \$0-vu-16 empty 0 -9 0
10 -1 -257985 -1 0 1;
#X obj 314 102 vsl 11 128 0 1 0 0 \$0-dummy \$0-vu-17 empty 0 -9 0
10 -1 -257985 -1 0 1;
#X obj 327 102 vsl 11 128 0 1 0 0 \$0-dummy \$0-vu-18 empty 0 -9 0
10 -1 -257985 -1 0 1;
#X obj 340 102 vsl 11 128 0 1 0 0 \$0-dummy \$0-vu-19 empty 0 -9 0
10 -1 -257985 -1 0 1;
#X obj 353 102 vsl 11 128 0 1 0 0 \$0-dummy \$0-vu-20 empty 0 -9 0
10 -1 -257985 -1 0 1;
#X obj 366 102 vsl 11 128 0 1 0 0 \$0-dummy \$0-vu-21 empty 0 -9 0
10 -1 -257985 -1 0 1;
#X obj 379 102 vsl 11 128 0 1 0 0 \$0-dummy \$0-vu-22 empty 0 -9 0
10 -1 -257985 -1 0 1;
#X obj 392 102 vsl 11 128 0 1 0 0 \$0-dummy \$0-vu-23 empty 0 -9 0
10 -1 -257985 -1 0 1;
#X obj 405 102 vsl 11 128 0 1 0 0 \$0-dummy \$0-vu-24 empty 0 -9 0
10 -1 -257985 -1 0 1;
#X text 42 23 an_vu_48_gui <name>;
#X text 222 339 (c)2015 Marian Weger;
#X obj 447 756 an_vu_gui_calc \$0 \$1 25;
#X obj 447 776 an_vu_gui_calc \$0 \$1 26;
#X obj 447 796 an_vu_gui_calc \$0 \$1 27;
#X obj 447 816 an_vu_gui_calc \$0 \$1 28;
#X obj 447 836 an_vu_gui_calc \$0 \$1 29;
#X obj 447 856 an_vu_gui_calc \$0 \$1 30;
#X obj 447 876 an_vu_gui_calc \$0 \$1 31;
#X obj 447 896 an_vu_gui_calc \$0 \$1 32;
#X obj 447 916 an_vu_gui_calc \$0 \$1 33;
#X obj 447 936 an_vu_gui_calc \$0 \$1 34;
#X obj 447 956 an_vu_gui_calc \$0 \$1 35;
#X obj 447 976 an_vu_gui_calc \$0 \$1 36;
#X obj 447 996 an_vu_gui_calc \$0 \$1 37;
#X obj 447 1016 an_vu_gui_calc \$0 \$1 38;
#X obj 447 1036 an_vu_gui_calc \$0 \$1 39;
#X obj 447 1056 an_vu_gui_calc \$0 \$1 40;
#X obj 447 1076 an_vu_gui_calc \$0 \$1 41;
#X obj 447 1096 an_vu_gui_calc \$0 \$1 42;
#X obj 447 1116 an_vu_gui_calc \$0 \$1 43;
#X obj 447 1136 an_vu_gui_calc \$0 \$1 44;
#X obj 447 1156 an_vu_gui_calc \$0 \$1 45;
#X obj 447 1176 an_vu_gui_calc \$0 \$1 46;
#X obj 447 1196 an_vu_gui_calc \$0 \$1 47;
#X obj 447 1216 an_vu_gui_calc \$0 \$1 48;
#X text 63 55 gui for [an_vu_48~];
#X obj 421 102 vsl 11 128 0 1 0 0 \$0-dummy \$0-vu-1 empty 0 -9 0 10
-1 -257985 -1 0 1;
#X obj 434 102 vsl 11 128 0 1 0 0 \$0-dummy \$0-vu-2 empty 0 -9 0 10
-1 -257985 -1 0 1;
#X obj 447 102 vsl 11 128 0 1 0 0 \$0-dummy \$0-vu-3 empty 0 -9 0 10
-1 -257985 -1 0 1;
#X obj 460 102 vsl 11 128 0 1 0 0 \$0-dummy \$0-vu-4 empty 0 -9 0 10
-1 -257985 -1 0 1;
#X obj 473 102 vsl 11 128 0 1 0 0 \$0-dummy \$0-vu-5 empty 0 -9 0 10
-1 -257985 -1 0 1;
#X obj 486 102 vsl 11 128 0 1 0 0 \$0-dummy \$0-vu-6 empty 0 -9 0 10
-1 -257985 -1 0 1;
#X obj 499 102 vsl 11 128 0 1 0 0 \$0-dummy \$0-vu-7 empty 0 -9 0 10
-1 -257985 -1 0 1;
#X obj 512 102 vsl 11 128 0 1 0 0 \$0-dummy \$0-vu-8 empty 0 -9 0 10
-1 -257985 -1 0 1;
#X obj 528 102 vsl 11 128 0 1 0 0 \$0-dummy \$0-vu-9 empty 0 -9 0 10
-1 -257985 -1 0 1;
#X obj 541 102 vsl 11 128 0 1 0 0 \$0-dummy \$0-vu-10 empty 0 -9 0
10 -1 -257985 -1 0 1;
#X obj 554 102 vsl 11 128 0 1 0 0 \$0-dummy \$0-vu-11 empty 0 -9 0
10 -1 -257985 -1 0 1;
#X obj 567 102 vsl 11 128 0 1 0 0 \$0-dummy \$0-vu-12 empty 0 -9 0
10 -1 -257985 -1 0 1;
#X obj 580 102 vsl 11 128 0 1 0 0 \$0-dummy \$0-vu-13 empty 0 -9 0
10 -1 -257985 -1 0 1;
#X obj 593 102 vsl 11 128 0 1 0 0 \$0-dummy \$0-vu-14 empty 0 -9 0
10 -1 -257985 -1 0 1;
#X obj 606 102 vsl 11 128 0 1 0 0 \$0-dummy \$0-vu-15 empty 0 -9 0
10 -1 -257985 -1 0 1;
#X obj 619 102 vsl 11 128 0 1 0 0 \$0-dummy \$0-vu-16 empty 0 -9 0
10 -1 -257985 -1 0 1;
#X obj 635 102 vsl 11 128 0 1 0 0 \$0-dummy \$0-vu-17 empty 0 -9 0
10 -1 -257985 -1 0 1;
#X obj 648 102 vsl 11 128 0 1 0 0 \$0-dummy \$0-vu-18 empty 0 -9 0
10 -1 -257985 -1 0 1;
#X obj 661 102 vsl 11 128 0 1 0 0 \$0-dummy \$0-vu-19 empty 0 -9 0
10 -1 -257985 -1 0 1;
#X obj 674 102 vsl 11 128 0 1 0 0 \$0-dummy \$0-vu-20 empty 0 -9 0
10 -1 -257985 -1 0 1;
#X obj 687 102 vsl 11 128 0 1 0 0 \$0-dummy \$0-vu-21 empty 0 -9 0
10 -1 -257985 -1 0 1;
#X obj 700 102 vsl 11 128 0 1 0 0 \$0-dummy \$0-vu-22 empty 0 -9 0
10 -1 -257985 -1 0 1;
#X obj 713 102 vsl 11 128 0 1 0 0 \$0-dummy \$0-vu-23 empty 0 -9 0
10 -1 -257985 -1 0 1;
#X obj 726 102 vsl 11 128 0 1 0 0 \$0-dummy \$0-vu-24 empty 0 -9 0
10 -1 -257985 -1 0 1;
#X connect 6 0 7 0;
#X connect 7 0 8 0;
#X connect 15 0 6 0;
#X connect 17 0 15 0;
#X coords 0 -1 1 1 657 133 2 100 100;
