#N canvas 494 59 546 307 10;
#X obj 49 83 inlet~;
#X text 38 250 (c)2012 Marian Weger;
#X obj 149 83 inlet~;
#X obj 49 175 s /an/vu/\$1/1;
#X obj 149 175 s /an/vu/\$1/2;
#X obj 249 83 inlet~;
#X obj 249 175 s /an/vu/\$1/3;
#X obj 213 260 outlet;
#X obj 416 263 outlet;
#X obj 409 95 inlet;
#X text 37 31 available types: rms \, peak;
#X text 27 11 an_vu_3~ <name> <domain> <type> (<arg1> <arg2> ...);
#X obj 49 122 an_vu_\$3~ \$4;
#X obj 149 122 an_vu_\$3~ \$4;
#X obj 249 122 an_vu_\$3~ \$4;
#X connect 0 0 12 0;
#X connect 2 0 13 0;
#X connect 5 0 14 0;
#X connect 12 0 3 0;
#X connect 13 0 4 0;
#X connect 14 0 6 0;
