#N canvas 50 22 369 345 10;
#X obj 49 83 inlet~;
#X text 38 250 (c)2012 Marian Weger;
#X obj 149 83 inlet~;
#X obj 49 175 s /an/vu/\$1/1;
#X obj 149 175 s /an/vu/\$1/2;
#X obj 55 280 outlet;
#X obj 270 88 inlet;
#X obj 247 272 outlet;
#X text 27 11 an_vu_2~ <name> <domain> <type> (<arg1> <arg2> ...);
#X text 37 31 available types: rms \, peak;
#X obj 49 122 an_vu_\$3~ \$4;
#X obj 149 122 an_vu_\$3~ \$4;
#X connect 0 0 10 0;
#X connect 2 0 11 0;
#X connect 10 0 3 0;
#X connect 11 0 4 0;
