#N canvas 378 232 591 489 10;
#X obj 259 115 r \$0-dummy;
#X text 207 222 (c)2012 Marian Weger;
#X obj 101 101 cnv 15 37 131 empty empty empty 20 12 0 14 -228856 -66577
0;
#X obj 124 218 tgl 15 0 /an/vu/\$1/state /an/vu/\$1/state empty 0 -7
0 10 -204786 -1 -1 0 1;
#X obj 124 100 tgl 15 0 \$0-dummy \$0-clip empty 0 -7 0 10 -228856
-258113 -1 0 1;
#X obj 100 102 vsl 11 128 0 1 0 0 \$0-dummy \$0-vu-1 empty 0 -9 0 10
-1 -257985 -1 0 1;
#X obj 113 102 vsl 11 128 0 1 0 0 \$0-dummy \$0-vu-2 empty 0 -9 0 10
-1 -257985 -1 0 1;
#X text 42 23 an_vu_2_gui <name>;
#X text 63 55 gui for [an_vu_2~];
#X obj 114 366 sel 1;
#X msg 114 388 1;
#X obj 114 409 s \$0-clip;
#X obj 114 344 >= 0;
#X obj 114 318 r \$0-clip-sum;
#X obj 307 307 an_vu_gui_calc \$0 \$1 1;
#X obj 307 327 an_vu_gui_calc \$0 \$1 2;
#X connect 9 0 10 0;
#X connect 10 0 11 0;
#X connect 12 0 9 0;
#X connect 13 0 12 0;
#X coords 0 -1 1 1 39 133 2 100 100;
