#N canvas 363 249 610 472 10;
#X obj 117 63 inlet~;
#X obj 222 284 - 100;
#X text 294 391 (c)2013 Marian Weger;
#X obj 534 70 inlet;
#X obj 520 340 outlet;
#X obj 222 262 rmstodb;
#X obj 222 311 outlet;
#X obj 117 106 tabsend~ \$0-table;
#X obj 117 147 table \$0-table 4096;
#X obj 459 241 block~ 4096 1 1;
#X obj 117 191 bang~;
#X obj 117 213 tabminmax \$0-table;
#X obj 222 239 unpack f;
#X text 32 24 vu_peak~ (<update rate>);
#X obj 344 67 loadbang;
#X obj 344 89 f \$1;
#X obj 344 111 sel 0;
#X msg 344 133 4096;
#X msg 459 216 set \$1 1 1;
#X obj 371 281 pack f \$0;
#X msg 371 303 \; \$2-table resize \$1;
#X text 286 173 TODO: round off to nearest power of two;
#X connect 0 0 7 0;
#X connect 1 0 6 0;
#X connect 5 0 1 0;
#X connect 10 0 11 0;
#X connect 11 1 12 0;
#X connect 12 0 5 0;
#X connect 14 0 15 0;
#X connect 15 0 16 0;
#X connect 16 0 17 0;
#X connect 16 1 18 0;
#X connect 16 1 19 0;
#X connect 17 0 18 0;
#X connect 17 0 19 0;
#X connect 18 0 9 0;
#X connect 19 0 20 0;
