#N canvas 657 88 529 470 10;
#X obj 209 115 r \$0-dummy;
#X text 190 186 (c)2012 Marian Weger;
#X obj 101 101 cnv 15 25 131 empty empty empty 20 12 0 14 -228856 -66577
0;
#X obj 100 102 vsl 12 128 0 1 0 0 \$0-dummy \$0-vu-1 empty 0 -9 0 10
-1 -257985 -1 0 1;
#X obj 112 218 tgl 15 0 /an/vu/\$1/state /an/vu/\$1/state empty 0 -7
0 10 -204786 -1 -1 0 1;
#X obj 112 100 tgl 15 0 \$0-dummy \$0-clip empty 0 -7 0 10 -228856
-258113 -1 0 1;
#X text 42 23 an_vu_gui <name>;
#X text 63 55 gui for [an_vu~];
#X obj 142 344 sel 1;
#X msg 142 366 1;
#X obj 142 387 s \$0-clip;
#X obj 142 322 >= 0;
#X obj 142 299 r \$0-clip-sum;
#X obj 275 294 an_vu_gui_calc \$0 \$1 1;
#X connect 8 0 9 0;
#X connect 9 0 10 0;
#X connect 11 0 8 0;
#X connect 12 0 11 0;
#X coords 0 -1 1 1 27 133 2 100 100;
