#N canvas 51 151 1123 359 10;
#X obj 49 83 inlet~;
#X text 38 250 (c)2012 Marian Weger;
#X obj 149 83 inlet~;
#X obj 49 175 s /an/vu/\$1/1;
#X obj 149 175 s /an/vu/\$1/2;
#X obj 249 83 inlet~;
#X obj 249 175 s /an/vu/\$1/3;
#X obj 349 83 inlet~;
#X obj 349 175 s /an/vu/\$1/4;
#X obj 449 83 inlet~;
#X obj 449 175 s /an/vu/\$1/5;
#X obj 549 83 inlet~;
#X obj 549 175 s /an/vu/\$1/6;
#X obj 649 83 inlet~;
#X obj 749 83 inlet~;
#X obj 649 175 s /an/vu/\$1/7;
#X obj 749 175 s /an/vu/\$1/8;
#X obj 614 270 outlet;
#X obj 718 268 outlet;
#X obj 2449 83 inlet;
#X text 37 31 available types: rms \, peak;
#X text 27 11 an_vu_24~ <name> <domain> <type> (<arg1> <arg2> ...)
;
#X obj 849 83 inlet~;
#X obj 949 83 inlet~;
#X obj 1049 83 inlet~;
#X obj 1149 83 inlet~;
#X obj 1249 83 inlet~;
#X obj 1349 83 inlet~;
#X obj 1449 83 inlet~;
#X obj 1549 83 inlet~;
#X obj 1649 83 inlet~;
#X obj 1749 83 inlet~;
#X obj 1849 83 inlet~;
#X obj 1949 83 inlet~;
#X obj 2049 83 inlet~;
#X obj 2149 83 inlet~;
#X obj 2249 83 inlet~;
#X obj 2349 83 inlet~;
#X obj 849 175 s /an/vu/\$1/9;
#X obj 949 175 s /an/vu/\$1/10;
#X obj 1049 175 s /an/vu/\$1/11;
#X obj 1149 175 s /an/vu/\$1/12;
#X obj 1249 175 s /an/vu/\$1/13;
#X obj 1349 175 s /an/vu/\$1/14;
#X obj 1449 175 s /an/vu/\$1/15;
#X obj 1549 175 s /an/vu/\$1/16;
#X obj 1649 175 s /an/vu/\$1/17;
#X obj 1749 175 s /an/vu/\$1/18;
#X obj 1849 175 s /an/vu/\$1/19;
#X obj 1949 175 s /an/vu/\$1/20;
#X obj 2049 175 s /an/vu/\$1/21;
#X obj 2149 175 s /an/vu/\$1/22;
#X obj 2249 175 s /an/vu/\$1/23;
#X obj 2349 175 s /an/vu/\$1/24;
#X obj 2149 122 an_vu_\$3~ \$4;
#X obj 2351 233 r /an/vu/\$1/state;
#X obj 2351 305 switch~;
#X obj 2351 276 && 1;
#X obj 2369 254 t b f;
#X obj 2427 266 loadbang;
#X msg 2427 288 1;
#X obj 49 122 an_vu_\$3~ \$4;
#X obj 149 122 an_vu_\$3~ \$4;
#X obj 249 122 an_vu_\$3~ \$4;
#X obj 349 122 an_vu_\$3~ \$4;
#X obj 449 122 an_vu_\$3~ \$4;
#X obj 549 122 an_vu_\$3~ \$4;
#X obj 649 122 an_vu_\$3~ \$4;
#X obj 749 122 an_vu_\$3~ \$4;
#X obj 849 122 an_vu_\$3~ \$4;
#X obj 949 122 an_vu_\$3~ \$4;
#X obj 1049 122 an_vu_\$3~ \$4;
#X obj 1149 122 an_vu_\$3~ \$4;
#X obj 1249 122 an_vu_\$3~ \$4;
#X obj 1349 122 an_vu_\$3~ \$4;
#X obj 1449 122 an_vu_\$3~ \$4;
#X obj 1549 122 an_vu_\$3~ \$4;
#X obj 1649 122 an_vu_\$3~ \$4;
#X obj 1749 122 an_vu_\$3~ \$4;
#X obj 1849 122 an_vu_\$3~ \$4;
#X obj 1949 122 an_vu_\$3~ \$4;
#X obj 2049 122 an_vu_\$3~ \$4;
#X obj 2249 122 an_vu_\$3~ \$4;
#X obj 2349 122 an_vu_\$3~ \$4;
#X connect 0 0 61 0;
#X connect 2 0 62 0;
#X connect 5 0 63 0;
#X connect 7 0 64 0;
#X connect 9 0 65 0;
#X connect 11 0 66 0;
#X connect 13 0 67 0;
#X connect 14 0 68 0;
#X connect 19 0 58 0;
#X connect 22 0 69 0;
#X connect 23 0 70 0;
#X connect 24 0 71 0;
#X connect 25 0 72 0;
#X connect 26 0 73 0;
#X connect 27 0 74 0;
#X connect 28 0 75 0;
#X connect 29 0 76 0;
#X connect 30 0 77 0;
#X connect 31 0 78 0;
#X connect 32 0 79 0;
#X connect 33 0 80 0;
#X connect 34 0 81 0;
#X connect 35 0 54 0;
#X connect 36 0 82 0;
#X connect 37 0 83 0;
#X connect 54 0 51 0;
#X connect 55 0 57 0;
#X connect 57 0 56 0;
#X connect 58 0 57 0;
#X connect 58 1 57 1;
#X connect 59 0 60 0;
#X connect 60 0 57 0;
#X connect 61 0 3 0;
#X connect 62 0 4 0;
#X connect 63 0 6 0;
#X connect 64 0 8 0;
#X connect 65 0 10 0;
#X connect 66 0 12 0;
#X connect 67 0 15 0;
#X connect 68 0 16 0;
#X connect 69 0 38 0;
#X connect 70 0 39 0;
#X connect 71 0 40 0;
#X connect 72 0 41 0;
#X connect 73 0 42 0;
#X connect 74 0 43 0;
#X connect 75 0 44 0;
#X connect 76 0 45 0;
#X connect 77 0 46 0;
#X connect 78 0 47 0;
#X connect 79 0 48 0;
#X connect 80 0 49 0;
#X connect 81 0 50 0;
#X connect 82 0 52 0;
#X connect 83 0 53 0;
