#N canvas 8 22 715 619 10;
#X obj 110 328 r \$0-dummy;
#X obj 101 101 cnv 15 343 131 empty empty empty 20 12 0 14 -228856
-66577 0;
#X obj 430 218 tgl 15 0 /an/vu/\$1/state /an/vu/\$1/state empty 0 -7
0 10 -204786 -1 -1 0 1;
#X obj 430 100 tgl 15 0 \$0-dummy \$0-clip empty 0 -7 0 10 -228856
-258113 -1 0 1;
#X obj 100 102 vsl 11 128 0 1 0 0 \$0-dummy \$0-vu-1 empty 0 -9 0 10
-1 -257985 -1 0 1;
#X obj 113 102 vsl 11 128 0 1 0 0 \$0-dummy \$0-vu-2 empty 0 -9 0 10
-1 -257985 -1 0 1;
#X obj 169 454 sel 1;
#X msg 169 476 1;
#X obj 169 497 s \$0-clip;
#X obj 126 102 vsl 11 128 0 1 0 0 \$0-dummy \$0-vu-3 empty 0 -9 0 10
-1 -257985 -1 0 1;
#X obj 139 102 vsl 11 128 0 1 0 0 \$0-dummy \$0-vu-4 empty 0 -9 0 10
-1 -257985 -1 0 1;
#X obj 154 102 vsl 11 128 0 1 0 0 \$0-dummy \$0-vu-5 empty 0 -9 0 10
-1 -257985 -1 0 1;
#X obj 167 102 vsl 11 128 0 1 0 0 \$0-dummy \$0-vu-6 empty 0 -9 0 10
-1 -257985 -1 0 1;
#X obj 180 102 vsl 11 128 0 1 0 0 \$0-dummy \$0-vu-7 empty 0 -9 0 10
-1 -257985 -1 0 1;
#X obj 193 102 vsl 11 128 0 1 0 0 \$0-dummy \$0-vu-8 empty 0 -9 0 10
-1 -257985 -1 0 1;
#X obj 169 432 >= 0;
#X obj 503 60 an_vu_gui_calc \$0 \$1 1;
#X obj 169 410 r \$0-clip-sum;
#X obj 503 80 an_vu_gui_calc \$0 \$1 2;
#X obj 503 100 an_vu_gui_calc \$0 \$1 3;
#X obj 503 120 an_vu_gui_calc \$0 \$1 4;
#X obj 503 140 an_vu_gui_calc \$0 \$1 5;
#X obj 503 160 an_vu_gui_calc \$0 \$1 6;
#X obj 503 180 an_vu_gui_calc \$0 \$1 7;
#X obj 503 200 an_vu_gui_calc \$0 \$1 8;
#X obj 503 220 an_vu_gui_calc \$0 \$1 9;
#X obj 503 240 an_vu_gui_calc \$0 \$1 10;
#X obj 503 260 an_vu_gui_calc \$0 \$1 11;
#X obj 503 280 an_vu_gui_calc \$0 \$1 12;
#X obj 503 300 an_vu_gui_calc \$0 \$1 13;
#X obj 503 320 an_vu_gui_calc \$0 \$1 14;
#X obj 503 340 an_vu_gui_calc \$0 \$1 15;
#X obj 503 360 an_vu_gui_calc \$0 \$1 16;
#X obj 503 380 an_vu_gui_calc \$0 \$1 17;
#X obj 503 400 an_vu_gui_calc \$0 \$1 18;
#X obj 503 420 an_vu_gui_calc \$0 \$1 19;
#X obj 503 440 an_vu_gui_calc \$0 \$1 20;
#X obj 503 460 an_vu_gui_calc \$0 \$1 21;
#X obj 503 480 an_vu_gui_calc \$0 \$1 22;
#X obj 503 500 an_vu_gui_calc \$0 \$1 23;
#X obj 503 520 an_vu_gui_calc \$0 \$1 24;
#X text 222 339 (c)2013 Marian Weger;
#X text 63 55 gui for [an_vu_24~];
#X text 42 23 an_vu_24_gui <name>;
#X obj 211 102 vsl 11 128 0 1 0 0 \$0-dummy \$0-vu-9 empty 0 -9 0 10
-1 -257985 -1 0 1;
#X obj 224 102 vsl 11 128 0 1 0 0 \$0-dummy \$0-vu-10 empty 0 -9 0
10 -1 -257985 -1 0 1;
#X obj 237 102 vsl 11 128 0 1 0 0 \$0-dummy \$0-vu-11 empty 0 -9 0
10 -1 -257985 -1 0 1;
#X obj 250 102 vsl 11 128 0 1 0 0 \$0-dummy \$0-vu-12 empty 0 -9 0
10 -1 -257985 -1 0 1;
#X obj 265 102 vsl 11 128 0 1 0 0 \$0-dummy \$0-vu-13 empty 0 -9 0
10 -1 -257985 -1 0 1;
#X obj 278 102 vsl 11 128 0 1 0 0 \$0-dummy \$0-vu-14 empty 0 -9 0
10 -1 -257985 -1 0 1;
#X obj 291 102 vsl 11 128 0 1 0 0 \$0-dummy \$0-vu-15 empty 0 -9 0
10 -1 -257985 -1 0 1;
#X obj 304 102 vsl 11 128 0 1 0 0 \$0-dummy \$0-vu-16 empty 0 -9 0
10 -1 -257985 -1 0 1;
#X obj 322 102 vsl 11 128 0 1 0 0 \$0-dummy \$0-vu-17 empty 0 -9 0
10 -1 -257985 -1 0 1;
#X obj 335 102 vsl 11 128 0 1 0 0 \$0-dummy \$0-vu-18 empty 0 -9 0
10 -1 -257985 -1 0 1;
#X obj 348 102 vsl 11 128 0 1 0 0 \$0-dummy \$0-vu-19 empty 0 -9 0
10 -1 -257985 -1 0 1;
#X obj 361 102 vsl 11 128 0 1 0 0 \$0-dummy \$0-vu-20 empty 0 -9 0
10 -1 -257985 -1 0 1;
#X obj 376 102 vsl 11 128 0 1 0 0 \$0-dummy \$0-vu-21 empty 0 -9 0
10 -1 -257985 -1 0 1;
#X obj 389 102 vsl 11 128 0 1 0 0 \$0-dummy \$0-vu-22 empty 0 -9 0
10 -1 -257985 -1 0 1;
#X obj 402 102 vsl 11 128 0 1 0 0 \$0-dummy \$0-vu-23 empty 0 -9 0
10 -1 -257985 -1 0 1;
#X obj 415 102 vsl 11 128 0 1 0 0 \$0-dummy \$0-vu-24 empty 0 -9 0
10 -1 -257985 -1 0 1;
#X connect 6 0 7 0;
#X connect 7 0 8 0;
#X connect 15 0 6 0;
#X connect 17 0 15 0;
#X coords 0 -1 1 1 345 133 2 100 100;
