#N canvas 194 133 658 624 10;
#X obj 255 217 r \$0-dummy;
#X text 229 269 (c)2012 Marian Weger;
#X obj 101 101 cnv 15 63 131 empty empty empty 20 12 0 14 -228856 -66577
0;
#X obj 150 218 tgl 15 0 /an/vu/\$1/state /an/vu/\$1/state empty 0 -7
0 10 -204786 -1 -1 0 1;
#X obj 150 100 tgl 15 0 \$0-dummy \$0-clip empty 0 -7 0 10 -228856
-258113 -1 0 1;
#X obj 100 102 vsl 11 128 0 1 0 0 \$0-dummy \$0-vu-1 empty 0 -9 0 10
-1 -257985 -1 0 1;
#X obj 113 102 vsl 11 128 0 1 0 0 \$0-dummy \$0-vu-2 empty 0 -9 0 10
-1 -257985 -1 0 1;
#X obj 126 102 vsl 11 128 0 1 0 0 \$0-dummy \$0-vu-3 empty 0 -9 0 10
-1 -257985 -1 0 1;
#X obj 139 102 vsl 11 128 0 1 0 0 \$0-dummy \$0-vu-4 empty 0 -9 0 10
-1 -257985 -1 0 1;
#X text 42 23 an_vu_4_gui <name>;
#X text 63 55 gui for [an_vu_4~];
#X obj 88 390 sel 1;
#X msg 88 412 1;
#X obj 88 433 s \$0-clip;
#X obj 88 368 >= 0;
#X obj 88 334 r \$0-clip-sum;
#X obj 275 363 an_vu_gui_calc \$0 \$1 1;
#X obj 275 383 an_vu_gui_calc \$0 \$1 2;
#X obj 275 403 an_vu_gui_calc \$0 \$1 3;
#X obj 274 423 an_vu_gui_calc \$0 \$1 4;
#X connect 11 0 12 0;
#X connect 12 0 13 0;
#X connect 14 0 11 0;
#X connect 15 0 14 0;
#X coords 0 -1 1 1 65 133 2 100 100;
