#N canvas 216 37 773 649 10;
#X text 331 550 (c)2012 Marian Weger;
#X text 114 83 w0 Q A cos(w0) sin(w0) alpha;
#X text 116 538 a0 a1 a2 b0 b1 b2;
#X obj 93 569 outlet coefficients;
#X obj 104 55 inlet coefficients;
#X text 312 456 highShelf: H(s) = A * (A*s^2 + (sqrt(A)/Q)*s + 1)/(s^2
+ (sqrt(A)/Q)*s + A);
#X text 400 133 b0 = A*( (A+1) + (A-1)*cos(w0) + 2*sqrt(A)*alpha )
\; b1 = -2*A*( (A-1) + (A+1)*cos(w0) ) \; b2 = A*( (A+1) + (A-1)*cos(w0)
- 2*sqrt(A)*alpha ) \; a0 = (A+1) - (A-1)*cos(w0) + 2*sqrt(A)*alpha
\; a1 = 2*( (A-1) - (A+1)*cos(w0) ) \; a2 = (A+1) - (A-1)*cos(w0) -
2*sqrt(A)*alpha \;;
#X obj 104 126 unpack 0 0 0 0 0 0;
#X obj 93 507 pack 0 0 0 0 0 0;
#X obj 83 404 f;
#X obj 40 294 t b;
#X obj 146 158 t f f f f;
#X obj 146 200 sqrt;
#X obj 146 224 *;
#X obj 146 266 * 2;
#X obj 146 318 +;
#X obj 216 200 - 1;
#X obj 216 242 *;
#X obj 146 370 +;
#X obj 256 200 + 1;
#X obj 146 412 *;
#X obj 215 345 * -1;
#X obj 215 387 +;
#X obj 263 298 * -2;
#X obj 263 320 +;
#X obj 263 341 +;
#X obj 263 383 *;
#X text 26 21 biquad_coefficients_highshelf;
#X obj 322 311 +;
#X obj 342 231 *;
#X obj 322 333 *;
#X obj 322 355 * -2;
#X obj 362 311 -;
#X obj 362 355 * 2;
#X obj 82 256 * -1;
#X obj 82 278 +;
#X connect 4 0 7 0;
#X connect 7 0 10 0;
#X connect 7 2 11 0;
#X connect 7 3 17 1;
#X connect 7 3 29 1;
#X connect 7 5 13 1;
#X connect 8 0 3 0;
#X connect 9 0 8 0;
#X connect 10 0 9 0;
#X connect 11 0 12 0;
#X connect 11 1 16 0;
#X connect 11 2 19 0;
#X connect 11 3 20 1;
#X connect 11 3 26 1;
#X connect 11 3 30 1;
#X connect 12 0 13 0;
#X connect 13 0 14 0;
#X connect 13 0 23 0;
#X connect 14 0 15 0;
#X connect 15 0 18 0;
#X connect 15 0 21 0;
#X connect 16 0 17 0;
#X connect 16 0 28 0;
#X connect 16 0 32 0;
#X connect 17 0 15 1;
#X connect 17 0 24 1;
#X connect 18 0 20 0;
#X connect 19 0 18 1;
#X connect 19 0 22 1;
#X connect 19 0 25 1;
#X connect 19 0 29 0;
#X connect 19 0 35 1;
#X connect 20 0 8 3;
#X connect 21 0 22 0;
#X connect 22 0 8 2;
#X connect 23 0 24 0;
#X connect 24 0 25 0;
#X connect 24 0 34 0;
#X connect 25 0 26 0;
#X connect 26 0 8 5;
#X connect 28 0 30 0;
#X connect 29 0 28 1;
#X connect 29 0 32 1;
#X connect 30 0 31 0;
#X connect 31 0 8 4;
#X connect 32 0 33 0;
#X connect 33 0 8 1;
#X connect 34 0 35 0;
#X connect 35 0 9 1;
