#N canvas 454 81 671 613 10;
#X text 331 550 (c)2012 Marian Weger;
#X obj 104 126 unpack 0 0 0 0 0 0;
#X text 114 83 w0 Q A cos(w0) sin(w0) alpha;
#X obj 93 507 pack 0 0 0 0 0 0;
#X text 116 538 a0 a1 a2 b0 b1 b2;
#X obj 93 569 outlet coefficients;
#X obj 104 55 inlet coefficients;
#X obj 83 404 f;
#X obj 40 294 t b;
#X text 26 21 biquad_coefficients_allpass;
#X text 292 441 APF: H(s) = (s^2 - s/Q + 1) / (s^2 + s/Q + 1);
#X text 330 199 b0 = 1 - alpha \; b1 = -2*cos(w0) \; b2 = 1 + alpha
\; a0 = 1 + alpha \; a1 = -2*cos(w0) \; a2 = 1 - alpha \;;
#X msg 189 220 1 \$1;
#X obj 189 242 -;
#X obj 144 219 + 1;
#X obj 102 225 * -2;
#X connect 1 0 8 0;
#X connect 1 3 15 0;
#X connect 1 5 12 0;
#X connect 1 5 14 0;
#X connect 3 0 5 0;
#X connect 6 0 1 0;
#X connect 7 0 3 0;
#X connect 8 0 7 0;
#X connect 12 0 13 0;
#X connect 13 0 3 3;
#X connect 13 0 3 2;
#X connect 14 0 3 5;
#X connect 14 0 7 1;
#X connect 15 0 3 4;
#X connect 15 0 3 1;
