#N canvas 417 22 726 751 10;
#X obj 378 175 expr pow(10 \, ($f1/40));
#N canvas 218 42 548 381 hz2rad 0;
#X obj 194 113 samplerate~;
#X obj 194 71 loadbang;
#X obj 194 185 atan;
#X msg 194 160 1;
#X text 323 60 w = 2 * pi * f / SR;
#X obj 194 207 * 8;
#X obj 194 137 t b a;
#X msg 205 90 bang;
#X obj 194 230 / 44100;
#X text 260 232 2 * pi / SR;
#X obj 119 269 *;
#X obj 119 35 inlet;
#X obj 119 298 outlet;
#X text 175 300 w(rad);
#X text 167 35 freq(Hz);
#X obj 312 128 route dsp;
#X obj 312 154 select 1;
#X obj 312 105 r pd;
#X connect 0 0 6 0;
#X connect 1 0 0 0;
#X connect 2 0 5 0;
#X connect 3 0 2 0;
#X connect 5 0 8 0;
#X connect 6 0 3 0;
#X connect 6 1 8 1;
#X connect 7 0 0 0;
#X connect 8 0 10 1;
#X connect 10 0 12 0;
#X connect 11 0 10 0;
#X connect 15 0 16 0;
#X connect 16 0 0 0;
#X connect 17 0 15 0;
#X restore 155 175 pd hz2rad;
#X obj 238 175 moses 0;
#X obj 277 202 sel 0;
#X obj 378 380 t b f;
#X text 498 654 (c)2012 Marian Weger;
#X obj 182 295 cos;
#X obj 212 295 sin;
#X obj 331 380 / 1;
#X obj 331 314 * 2;
#X obj 331 338 t b f;
#X obj 304 235 t b f;
#X obj 155 262 t f f;
#X obj 155 496 biquad_coefficients_\$1;
#X text 28 26 biquad_coefficients <filter type> (<f> <Q> <A>);
#X obj 31 64 loadbang;
#X obj 31 86 t b b b;
#X obj 155 64 inlet f;
#X obj 238 64 inlet Q;
#X obj 378 64 inlet A;
#X obj 155 729 outlet coefficients;
#X text 289 730 send to [biquad~];
#X text 373 526 1 + (-a1/a0)*z^(-1) + (-a2/a0)*z^(-2);
#X text 343 506 H = -----------------------------------------;
#X text 372 493 (b0/a0) + (b1/a0)*z^(-1) + (b2/a0)*z^(-2);
#X obj 155 522 t l l l l l;
#X obj 155 602 /;
#X msg 155 579 \$2 \$1;
#X obj 205 602 /;
#X obj 255 602 /;
#X obj 305 602 /;
#X obj 355 602 /;
#X msg 205 579 \$3 \$1;
#X msg 255 579 \$4 \$1;
#X msg 305 579 \$5 \$1;
#X msg 355 579 \$6 \$1;
#X obj 155 624 * -1;
#X obj 205 624 * -1;
#X obj 155 696 pack 0 0 0 0 0;
#X text 427 64 (optional);
#X text 493 270 AVAILABLE FILTER TYPES \; ====================== \;
lowpass \; highpass \; bandpass1 \; bandpass2 \; notch \; lowshelf
\; highshelf \; allpass \; peaking \;;
#X text 308 450 alpha = sin(w0)/(2*Q);
#X text 392 200 A = sqrt( 10^(dBgain/20) );
#X text 164 238 w0 = 2*pi*f0/Fs;
#X obj 31 118 f \$2;
#X obj 71 118 f \$3;
#X obj 111 118 f \$4;
#X obj 155 472 pack 0.1 1 0 1 0.1 0.05;
#X connect 0 0 4 0;
#X connect 1 0 12 0;
#X connect 2 1 3 0;
#X connect 3 1 11 0;
#X connect 4 0 47 0;
#X connect 4 1 47 2;
#X connect 6 0 47 3;
#X connect 7 0 8 0;
#X connect 7 0 47 4;
#X connect 8 0 47 5;
#X connect 9 0 10 0;
#X connect 10 0 8 0;
#X connect 10 1 8 1;
#X connect 11 0 47 0;
#X connect 11 1 9 0;
#X connect 11 1 47 1;
#X connect 12 0 47 0;
#X connect 12 1 6 0;
#X connect 12 1 7 0;
#X connect 13 0 25 0;
#X connect 15 0 16 0;
#X connect 16 0 44 0;
#X connect 16 1 45 0;
#X connect 16 2 46 0;
#X connect 17 0 1 0;
#X connect 18 0 2 0;
#X connect 19 0 0 0;
#X connect 25 0 27 0;
#X connect 25 1 32 0;
#X connect 25 2 33 0;
#X connect 25 3 34 0;
#X connect 25 4 35 0;
#X connect 26 0 36 0;
#X connect 27 0 26 0;
#X connect 28 0 37 0;
#X connect 29 0 38 2;
#X connect 30 0 38 3;
#X connect 31 0 38 4;
#X connect 32 0 28 0;
#X connect 33 0 29 0;
#X connect 34 0 30 0;
#X connect 35 0 31 0;
#X connect 36 0 38 0;
#X connect 37 0 38 1;
#X connect 38 0 20 0;
#X connect 44 0 1 0;
#X connect 45 0 2 0;
#X connect 46 0 0 0;
#X connect 47 0 13 0;
