#N canvas 454 81 671 613 10;
#X text 331 550 (c)2012 Marian Weger;
#X obj 104 126 unpack 0 0 0 0 0 0;
#X text 114 83 w0 Q A cos(w0) sin(w0) alpha;
#X obj 93 507 pack 0 0 0 0 0 0;
#X text 116 538 a0 a1 a2 b0 b1 b2;
#X obj 93 569 outlet coefficients;
#X obj 104 55 inlet coefficients;
#X text 26 21 biquad_coefficients_peaking;
#X text 267 433 peakingEQ: H(s) = (s^2 + s*(A/Q) + 1) / (s^2 + s/(A*Q)
+ 1);
#X text 401 219 b0 = 1 + alpha*A \; b1 = -2*cos(w0) \; b2 = 1 - alpha*A
\; a0 = 1 + alpha/A \; a1 = -2*cos(w0) \; a2 = 1 - alpha/A \;;
#X obj 146 223 /;
#X msg 146 195 1 \$1;
#X obj 146 265 *;
#X obj 146 297 + 1;
#X obj 219 279 * -2;
#X obj 96 265 *;
#X obj 96 297 + 1;
#X msg 226 327 1 \$1;
#X obj 226 349 -;
#X msg 286 327 1 \$1;
#X obj 286 349 -;
#X obj 83 404 f;
#X obj 40 294 t b;
#X connect 1 0 22 0;
#X connect 1 2 11 0;
#X connect 1 2 15 0;
#X connect 1 3 14 0;
#X connect 1 5 12 1;
#X connect 1 5 15 1;
#X connect 3 0 5 0;
#X connect 6 0 1 0;
#X connect 10 0 12 0;
#X connect 11 0 10 0;
#X connect 12 0 13 0;
#X connect 12 0 19 0;
#X connect 13 0 21 1;
#X connect 14 0 3 1;
#X connect 14 0 3 4;
#X connect 15 0 16 0;
#X connect 15 0 17 0;
#X connect 16 0 3 3;
#X connect 17 0 18 0;
#X connect 18 0 3 5;
#X connect 19 0 20 0;
#X connect 20 0 3 2;
#X connect 21 0 3 0;
#X connect 22 0 21 0;
