#N canvas 454 81 671 613 10;
#X text 367 390 notch: H(s) = (s^2 + 1) / (s^2 + s/Q + 1);
#X text 331 550 (c)2012 Marian Weger;
#X obj 104 126 unpack 0 0 0 0 0 0;
#X text 401 219 b0 = 1 \; b1 = -2*cos(w0) \; b2 = 1 \; a0 = 1 + alpha
\; a1 = -2*cos(w0) \; a2 = 1 - alpha \;;
#X text 114 83 w0 Q A cos(w0) sin(w0) alpha;
#X obj 108 261 + 1;
#X obj 153 261 * -2;
#X obj 204 261 -;
#X msg 204 235 1 \$1;
#X msg 299 268 1;
#X text 26 21 biquad_coefficients_notch;
#X obj 93 507 pack 0 0 0 0 0 0;
#X text 116 538 a0 a1 a2 b0 b1 b2;
#X obj 93 569 outlet coefficients;
#X obj 104 55 inlet coefficients;
#X obj 93 303 f;
#X obj 104 148 t b f;
#X connect 2 0 16 0;
#X connect 2 3 6 0;
#X connect 2 5 5 0;
#X connect 2 5 8 0;
#X connect 5 0 15 1;
#X connect 6 0 11 1;
#X connect 6 0 11 4;
#X connect 7 0 11 2;
#X connect 8 0 7 0;
#X connect 9 0 11 3;
#X connect 9 0 11 5;
#X connect 11 0 13 0;
#X connect 14 0 2 0;
#X connect 15 0 11 0;
#X connect 16 0 15 0;
#X connect 16 1 9 0;
