#N canvas 48 22 796 645 10;
#X text 331 550 (c)2012 Marian Weger;
#X obj 104 126 unpack 0 0 0 0 0 0;
#X text 114 83 w0 Q A cos(w0) sin(w0) alpha;
#X obj 93 507 pack 0 0 0 0 0 0;
#X text 116 538 a0 a1 a2 b0 b1 b2;
#X obj 93 569 outlet coefficients;
#X obj 104 55 inlet coefficients;
#X obj 83 404 f;
#X obj 40 294 t b;
#X text 375 455 lowShelf: H(s) = A * (s^2 + (sqrt(A)/Q)*s + A)/(A*s^2
+ (sqrt(A)/Q)*s + 1);
#X text 427 124 b0 = A*( (A+1) - (A-1)*cos(w0) + 2*sqrt(A)*alpha )
\; b1 = 2*A*( (A-1) - (A+1)*cos(w0) ) \; b2 = A*( (A+1) - (A-1)*cos(w0)
- 2*sqrt(A)*alpha ) \; a0 = (A+1) + (A-1)*cos(w0) + 2*sqrt(A)*alpha
\; a1 = -2*( (A-1) + (A+1)*cos(w0) ) \; a2 = (A+1) + (A-1)*cos(w0)
- 2*sqrt(A)*alpha \;;
#X text 26 21 biquad_coefficients_lowshelf;
#X obj 146 211 sqrt;
#X obj 146 233 * 2;
#X obj 146 255 *;
#X obj 146 317 -;
#X obj 222 211 - 1;
#X obj 222 243 *;
#X obj 280 210 + 1;
#X obj 146 359 +;
#X obj 176 411 *;
#X obj 258 310 +;
#X obj 258 332 * -1;
#X obj 258 369 +;
#X obj 248 421 *;
#X obj 344 246 *;
#X obj 146 163 t f f f f;
#X obj 328 285 -;
#X obj 328 307 * 2;
#X obj 328 329 *;
#X obj 82 262 +;
#X obj 309 430 * -1;
#X obj 309 452 +;
#X obj 378 285 +;
#X obj 378 307 * -2;
#X connect 1 0 8 0;
#X connect 1 2 26 0;
#X connect 1 3 17 1;
#X connect 1 3 25 1;
#X connect 1 5 14 1;
#X connect 3 0 5 0;
#X connect 6 0 1 0;
#X connect 7 0 3 0;
#X connect 8 0 7 0;
#X connect 12 0 13 0;
#X connect 13 0 14 0;
#X connect 14 0 15 0;
#X connect 14 0 21 0;
#X connect 15 0 19 0;
#X connect 15 0 31 0;
#X connect 16 0 17 0;
#X connect 16 0 27 0;
#X connect 16 0 33 0;
#X connect 17 0 15 1;
#X connect 17 0 21 1;
#X connect 18 0 19 1;
#X connect 18 0 23 1;
#X connect 18 0 25 0;
#X connect 18 0 30 1;
#X connect 18 0 32 1;
#X connect 19 0 20 0;
#X connect 20 0 3 3;
#X connect 21 0 22 0;
#X connect 21 0 30 0;
#X connect 22 0 23 0;
#X connect 23 0 24 0;
#X connect 24 0 3 5;
#X connect 25 0 27 1;
#X connect 25 0 33 1;
#X connect 26 0 12 0;
#X connect 26 1 16 0;
#X connect 26 2 18 0;
#X connect 26 3 24 1;
#X connect 26 3 20 1;
#X connect 26 3 29 1;
#X connect 27 0 28 0;
#X connect 28 0 29 0;
#X connect 29 0 3 4;
#X connect 30 0 7 1;
#X connect 31 0 32 0;
#X connect 32 0 3 2;
#X connect 33 0 34 0;
#X connect 34 0 3 1;
