#N canvas 454 81 671 613 10;
#X text 331 550 (c)2012 Marian Weger;
#X obj 104 126 unpack 0 0 0 0 0 0;
#X text 114 83 w0 Q A cos(w0) sin(w0) alpha;
#X obj 93 507 pack 0 0 0 0 0 0;
#X text 116 538 a0 a1 a2 b0 b1 b2;
#X obj 93 569 outlet coefficients;
#X obj 104 55 inlet coefficients;
#X obj 83 404 f;
#X obj 40 294 t b;
#X text 395 435 HPF: H(s) = s^2 / (s^2 + s/Q + 1);
#X text 26 21 biquad_coefficients_highpass;
#X text 401 219 b0 = (1 + cos(w0))/2 \; b1 = -(1 + cos(w0)) \; b2 =
(1 + cos(w0))/2 \; a0 = 1 + alpha \; a1 = -2*cos(w0) \; a2 = 1 - alpha
\;;
#X obj 174 246 + 1;
#X obj 174 288 / 2;
#X obj 204 288 * -1;
#X obj 91 273 + 1;
#X obj 122 278 * -2;
#X msg 249 350 1 \$1;
#X obj 249 372 -;
#X connect 1 0 8 0;
#X connect 1 3 12 0;
#X connect 1 3 16 0;
#X connect 1 5 15 0;
#X connect 1 5 17 0;
#X connect 3 0 5 0;
#X connect 6 0 1 0;
#X connect 7 0 3 0;
#X connect 8 0 7 0;
#X connect 12 0 13 0;
#X connect 12 0 14 0;
#X connect 13 0 3 3;
#X connect 13 0 3 5;
#X connect 14 0 3 4;
#X connect 15 0 7 1;
#X connect 16 0 3 1;
#X connect 17 0 18 0;
#X connect 18 0 3 2;
