#N canvas 1 51 1351 687 10;
#X obj 73 143 outlet~;
#X obj 123 143 outlet~;
#X obj 73 81 catch~ \$1/1;
#X obj 123 101 catch~ \$1/2;
#X obj 173 143 outlet~;
#X obj 223 143 outlet~;
#X obj 173 81 catch~ \$1/3;
#X obj 223 101 catch~ \$1/4;
#X obj 273 143 outlet~;
#X obj 323 143 outlet~;
#X obj 373 143 outlet~;
#X obj 423 143 outlet~;
#X obj 273 81 catch~ \$1/5;
#X obj 323 101 catch~ \$1/6;
#X obj 373 81 catch~ \$1/7;
#X obj 423 101 catch~ \$1/8;
#X obj 473 143 outlet~;
#X obj 523 143 outlet~;
#X obj 573 143 outlet~;
#X obj 623 143 outlet~;
#X obj 673 143 outlet~;
#X obj 723 143 outlet~;
#X obj 773 143 outlet~;
#X obj 823 143 outlet~;
#X obj 473 81 catch~ \$1/9;
#X obj 523 101 catch~ \$1/10;
#X obj 573 81 catch~ \$1/11;
#X obj 623 101 catch~ \$1/12;
#X obj 673 81 catch~ \$1/13;
#X obj 723 101 catch~ \$1/14;
#X obj 773 81 catch~ \$1/15;
#X obj 823 101 catch~ \$1/16;
#X obj 873 143 outlet~;
#X obj 923 143 outlet~;
#X obj 973 143 outlet~;
#X obj 1023 143 outlet~;
#X obj 1073 143 outlet~;
#X obj 1123 143 outlet~;
#X obj 1173 143 outlet~;
#X obj 1223 143 outlet~;
#X obj 873 81 catch~ \$1/17;
#X obj 923 101 catch~ \$1/18;
#X obj 973 81 catch~ \$1/19;
#X obj 1023 101 catch~ \$1/20;
#X obj 1073 81 catch~ \$1/21;
#X obj 1123 101 catch~ \$1/22;
#X obj 1173 81 catch~ \$1/23;
#X obj 1223 101 catch~ \$1/24;
#X text 42 25 c2o_48~ <name>;
#X text 63 183 2015 Marian Weger;
#X obj 1323 143 outlet~;
#X obj 1373 143 outlet~;
#X obj 1423 143 outlet~;
#X obj 1473 143 outlet~;
#X obj 1523 143 outlet~;
#X obj 1573 143 outlet~;
#X obj 1623 143 outlet~;
#X obj 1673 143 outlet~;
#X obj 1723 143 outlet~;
#X obj 1773 143 outlet~;
#X obj 1823 143 outlet~;
#X obj 1873 143 outlet~;
#X obj 1923 143 outlet~;
#X obj 1973 143 outlet~;
#X obj 2023 143 outlet~;
#X obj 2073 143 outlet~;
#X obj 2123 143 outlet~;
#X obj 2173 143 outlet~;
#X obj 2223 143 outlet~;
#X obj 2273 143 outlet~;
#X obj 2323 143 outlet~;
#X obj 2373 143 outlet~;
#X obj 2423 143 outlet~;
#X obj 2473 143 outlet~;
#X obj 1323 81 catch~ \$1/25;
#X obj 1373 101 catch~ \$1/26;
#X obj 1423 81 catch~ \$1/27;
#X obj 1473 101 catch~ \$1/28;
#X obj 1523 81 catch~ \$1/29;
#X obj 1573 101 catch~ \$1/30;
#X obj 1623 81 catch~ \$1/31;
#X obj 1673 101 catch~ \$1/32;
#X obj 1723 81 catch~ \$1/33;
#X obj 1773 101 catch~ \$1/34;
#X obj 1823 81 catch~ \$1/35;
#X obj 1873 101 catch~ \$1/36;
#X obj 1923 81 catch~ \$1/37;
#X obj 1973 101 catch~ \$1/38;
#X obj 2023 81 catch~ \$1/39;
#X obj 2073 101 catch~ \$1/40;
#X obj 2123 81 catch~ \$1/41;
#X obj 2173 101 catch~ \$1/42;
#X obj 2223 81 catch~ \$1/43;
#X obj 2273 101 catch~ \$1/44;
#X obj 2323 81 catch~ \$1/45;
#X obj 2373 101 catch~ \$1/46;
#X obj 2423 81 catch~ \$1/47;
#X obj 2473 101 catch~ \$1/48;
#X connect 2 0 0 0;
#X connect 3 0 1 0;
#X connect 6 0 4 0;
#X connect 7 0 5 0;
#X connect 12 0 8 0;
#X connect 13 0 9 0;
#X connect 14 0 10 0;
#X connect 15 0 11 0;
#X connect 24 0 16 0;
#X connect 25 0 17 0;
#X connect 26 0 18 0;
#X connect 27 0 19 0;
#X connect 28 0 20 0;
#X connect 29 0 21 0;
#X connect 30 0 22 0;
#X connect 31 0 23 0;
#X connect 40 0 32 0;
#X connect 41 0 33 0;
#X connect 42 0 34 0;
#X connect 43 0 35 0;
#X connect 44 0 36 0;
#X connect 45 0 37 0;
#X connect 46 0 38 0;
#X connect 47 0 39 0;
#X connect 74 0 50 0;
#X connect 75 0 51 0;
#X connect 76 0 52 0;
#X connect 77 0 53 0;
#X connect 78 0 54 0;
#X connect 79 0 55 0;
#X connect 80 0 56 0;
#X connect 81 0 57 0;
#X connect 82 0 58 0;
#X connect 83 0 59 0;
#X connect 84 0 60 0;
#X connect 85 0 61 0;
#X connect 86 0 62 0;
#X connect 87 0 63 0;
#X connect 88 0 64 0;
#X connect 89 0 65 0;
#X connect 90 0 66 0;
#X connect 91 0 67 0;
#X connect 92 0 68 0;
#X connect 93 0 69 0;
#X connect 94 0 70 0;
#X connect 95 0 71 0;
#X connect 96 0 72 0;
#X connect 97 0 73 0;
