#N canvas 173 196 932 248 10;
#X text 63 183 2013 Marian Weger;
#X obj 73 143 outlet~;
#X obj 123 143 outlet~;
#X obj 73 81 catch~ \$1/1;
#X obj 123 101 catch~ \$1/2;
#X obj 173 143 outlet~;
#X obj 223 143 outlet~;
#X obj 173 81 catch~ \$1/3;
#X obj 223 101 catch~ \$1/4;
#X obj 273 143 outlet~;
#X obj 323 143 outlet~;
#X obj 373 143 outlet~;
#X obj 423 143 outlet~;
#X obj 273 81 catch~ \$1/5;
#X obj 323 101 catch~ \$1/6;
#X obj 373 81 catch~ \$1/7;
#X obj 423 101 catch~ \$1/8;
#X obj 473 143 outlet~;
#X obj 523 143 outlet~;
#X obj 573 143 outlet~;
#X obj 623 143 outlet~;
#X obj 673 143 outlet~;
#X obj 723 143 outlet~;
#X obj 773 143 outlet~;
#X obj 823 143 outlet~;
#X obj 473 81 catch~ \$1/9;
#X obj 523 101 catch~ \$1/10;
#X obj 573 81 catch~ \$1/11;
#X obj 623 101 catch~ \$1/12;
#X obj 673 81 catch~ \$1/13;
#X obj 723 101 catch~ \$1/14;
#X obj 773 81 catch~ \$1/15;
#X obj 823 101 catch~ \$1/16;
#X text 42 25 c2o_16~ <name>;
#X connect 3 0 1 0;
#X connect 4 0 2 0;
#X connect 7 0 5 0;
#X connect 8 0 6 0;
#X connect 13 0 9 0;
#X connect 14 0 10 0;
#X connect 15 0 11 0;
#X connect 16 0 12 0;
#X connect 25 0 17 0;
#X connect 26 0 18 0;
#X connect 27 0 19 0;
#X connect 28 0 20 0;
#X connect 29 0 21 0;
#X connect 30 0 22 0;
#X connect 31 0 23 0;
#X connect 32 0 24 0;
