#N canvas 1375 145 958 596 10;
#X obj 72 59 inlet~;
#X obj 72 503 outlet~;
#X obj 147 503 outlet statelist;
#N canvas 1 51 450 300 ds 0;
#X obj 109 111 ds_reg \$2 /cs/\$1/state nomorph;
#X restore 526 269 pd ds;
#N canvas 0 50 450 300 osc 0;
#X obj 109 111 osc_bi \$2 /cs/\$1/state;
#X restore 526 289 pd osc;
#N canvas 139 463 372 226 init 0;
#X obj 32 29 loadbang;
#X msg 32 73 0;
#X obj 32 171 s /cs/\$1/state;
#X connect 0 0 1 0;
#X connect 1 0 2 0;
#X restore 526 249 pd init;
#X obj 72 177 fx_gain~;
#X obj 680 545 throw~ /monitor;
#X obj 313 498 pipe_mix~ cs/\$1/vu \$2 mux;
#X obj 680 502 pipe_mix~ cs/\$1/monitor \$2 mux;
#X obj 390 145 tff01;
#X obj 417 171 1del0 50;
#X obj 390 59 inlet statelist;
#X obj 290 59 r /cs/\$1/state;
#X obj 390 122 && 1;
#X obj 390 88 t b f;
#X obj 417 193 switch~;
#X obj 313 528 pipe_an~ cs/\$1 \$2 vu peak;
#X obj 72 211 pipe_fx~ cs/\$1 \$2 gain gain;
#X obj 72 345 pipe_fx~ cs/\$1 \$2 gain mute;
#X obj 72 379 pipe_fx~ cs/\$1 \$2 gain vol;
#X obj 680 525 pipe_fx~ cs/\$1/monitor \$2 gain state;
#X text 27 26 cs_basic~ <name> <domain>;
#X text 643 176 (c)2015 Marian Weger;
#X connect 0 0 6 0;
#X connect 6 0 18 0;
#X connect 6 1 18 1;
#X connect 8 0 17 0;
#X connect 9 0 21 0;
#X connect 10 0 6 1;
#X connect 10 1 11 0;
#X connect 11 0 16 0;
#X connect 12 0 15 0;
#X connect 13 0 14 0;
#X connect 14 0 10 0;
#X connect 15 0 14 0;
#X connect 15 1 14 1;
#X connect 18 0 19 0;
#X connect 18 0 9 2;
#X connect 18 0 8 2;
#X connect 18 1 19 1;
#X connect 18 1 9 3;
#X connect 18 1 8 3;
#X connect 19 0 20 0;
#X connect 19 1 20 1;
#X connect 20 0 1 0;
#X connect 20 0 8 0;
#X connect 20 0 9 0;
#X connect 20 1 2 0;
#X connect 20 1 8 1;
#X connect 20 1 9 1;
#X connect 21 0 7 0;
