#N canvas 760 51 424 441 10;
#X obj 101 101 cnv 13 48 205 empty \$0-label \$1 2 7 0 10 -262144 -1
0;
#X obj 100 148 vsl 23 128 0 1.27 0 0 /fx/vol/cs/\$1 /fx/vol/cs/\$1
empty 0 -9 0 10 -262144 -1 -1 0 1;
#X obj 100 279 nbx 3 14 -100 24 0 0 /fx/vol/cs/\$1/db /fx/vol/cs/\$1/db
empty 0 -8 0 10 -262144 -1 -1 0 256;
#X obj 100 132 nbx 3 14 -99 999 0 0 /fx/gain/cs/\$1 /fx/gain/cs/\$1
empty 0 -8 0 10 -262144 -1 -1 0 256;
#X obj 136 293 tgl 14 0 /fx/state/cs/\$1/monitor /fx/state/cs/\$1/monitor
empty 17 7 0 10 -257985 -1 -1 0 1;
#X obj 122 293 tgl 14 0 /mix/mux/cs/\$1/monitor /mix/mux/cs/\$1/monitor
p 4 7 0 10 -257985 -1 -1 0 1;
#X obj 136 118 tgl 14 0 /cs/\$1/state /cs/\$1/state empty 17 7 0 10
-24198 -24198 -1 0 1;
#X obj 122 118 fx_mute_gui cs/\$1;
#X obj 123 146 an_vu_gui cs/\$1;
#X obj 135 245 tgl 15 0 /mix/mux/cs/\$1/vu /mix/mux/cs/\$1/vu pr 2
-7 0 10 -261682 -1 -1 0 1;
#X obj 262 109 loadbang;
#X obj 262 131 f \$2;
#X obj 262 175 s \$0-label;
#X msg 262 153 color \$1 22 22;
#X obj 295 253 sel 0 1;
#X msg 295 303 color \$1 \$1 22;
#X msg 295 275 6;
#X msg 325 275 16;
#X obj 295 231 r /cs/\$1/state;
#X text 89 366 (c)2015 Marian Weger;
#X text 45 31 cs_basic_gui <name> (<label color>);
#X connect 10 0 11 0;
#X connect 11 0 13 0;
#X connect 13 0 12 0;
#X connect 13 0 3 0;
#X connect 13 0 1 0;
#X connect 13 0 2 0;
#X connect 14 0 16 0;
#X connect 14 1 17 0;
#X connect 15 0 6 0;
#X connect 16 0 15 0;
#X connect 17 0 15 0;
#X connect 18 0 14 0;
#X coords 0 -1 1 1 50 207 2 100 100;
