#N canvas 24 86 1198 748 10;
#X text 731 291 (c)2012 Marian Weger;
#X obj 390 145 tff01;
#N canvas 1 54 450 300 ds 0;
#X obj 109 111 ds_reg \$2 /cs/\$1/state nomorph;
#X restore 556 259 pd ds;
#N canvas 1 55 450 300 osc 0;
#X obj 109 111 osc_bi \$2 /cs/\$1/state;
#X restore 556 279 pd osc;
#X obj 417 171 1del0 50;
#X obj 390 59 inlet statelist;
#N canvas 296 420 372 226 init 0;
#X obj 32 29 loadbang;
#X msg 32 73 0;
#X obj 32 171 s /cs/\$1/state;
#X connect 0 0 1 0;
#X connect 1 0 2 0;
#X restore 556 239 pd init;
#X obj 1023 887 outlet statelist;
#X obj 72 59 inlet~;
#X obj 122 59 inlet~;
#X obj 172 59 inlet~;
#X obj 222 59 inlet~;
#X obj 904 772 throw~ /monitor;
#X obj 904 687 pipe_mix~ cs/\$1/monitor \$2 mux;
#X obj 905 723 pipe_fx~ cs/\$1/monitor \$2 gain state;
#X obj 84 887 outlet~;
#X obj 144 887 outlet~;
#X obj 204 887 outlet~;
#X obj 264 887 outlet~;
#X obj 72 192 fx_gain_4~ 0 0 0 0 0 0 0;
#X obj 595 837 pipe_fx_4~ cs/\$1/send \$2 gain vol;
#X obj 596 798 pipe_mix_4~ cs/\$1/send \$2 mux;
#X obj 947 555 pipe_mix_4~ cs/\$1/vu \$2 mux;
#X obj 72 221 pipe_fx_4~ cs/\$1 \$2 gain gain;
#X obj 72 263 pipe_fx_4~ cs/\$1 \$2 eq7;
#X obj 72 315 pipe_fx_4~ cs/\$1 \$2 limiter;
#X obj 72 354 pipe_fx_4~ cs/\$1 \$2 gain mute;
#X obj 72 401 pipe_fx_4~ cs/\$1 \$2 gain vol;
#X obj 72 293 pipe_fx_4~ cs/\$1 \$2 gate peak;
#X text 28 25 cs_full_4~ <name> <domain> <send destination>;
#X obj 672 951 throw~ \$3/4;
#X obj 646 971 throw~ \$3/3;
#X obj 622 991 throw~ \$3/2;
#X obj 596 1011 throw~ \$3/1;
#X obj 290 59 r /cs/\$1/state;
#X obj 390 122 && 1;
#X obj 390 88 t b f;
#X obj 417 193 switch~;
#X obj 971 602 pipe_an_4~ cs/\$1 \$2 vu peak;
#X connect 1 0 19 4;
#X connect 1 1 4 0;
#X connect 4 0 37 0;
#X connect 5 0 36 0;
#X connect 8 0 19 0;
#X connect 9 0 19 1;
#X connect 10 0 19 2;
#X connect 11 0 19 3;
#X connect 13 0 14 0;
#X connect 13 1 14 1;
#X connect 14 0 12 0;
#X connect 19 0 23 0;
#X connect 19 1 23 1;
#X connect 19 2 23 2;
#X connect 19 3 23 3;
#X connect 19 4 23 4;
#X connect 20 0 33 0;
#X connect 20 1 32 0;
#X connect 20 2 31 0;
#X connect 20 3 30 0;
#X connect 21 0 20 0;
#X connect 21 1 20 1;
#X connect 21 2 20 2;
#X connect 21 3 20 3;
#X connect 21 4 20 4;
#X connect 22 0 38 0;
#X connect 22 1 38 1;
#X connect 22 2 38 2;
#X connect 22 3 38 3;
#X connect 22 4 38 4;
#X connect 23 0 22 5;
#X connect 23 0 24 0;
#X connect 23 1 22 6;
#X connect 23 1 24 1;
#X connect 23 2 22 7;
#X connect 23 2 24 2;
#X connect 23 3 22 8;
#X connect 23 3 24 3;
#X connect 23 4 24 4;
#X connect 23 4 22 9;
#X connect 24 0 28 0;
#X connect 24 1 28 1;
#X connect 24 2 28 2;
#X connect 24 3 28 3;
#X connect 24 4 28 4;
#X connect 25 0 13 2;
#X connect 25 0 21 5;
#X connect 25 0 26 0;
#X connect 25 1 13 2;
#X connect 25 1 21 6;
#X connect 25 1 26 1;
#X connect 25 2 13 2;
#X connect 25 2 21 7;
#X connect 25 2 26 2;
#X connect 25 3 13 2;
#X connect 25 3 21 8;
#X connect 25 3 26 3;
#X connect 25 4 26 4;
#X connect 25 4 21 9;
#X connect 25 4 13 3;
#X connect 26 0 27 0;
#X connect 26 1 27 1;
#X connect 26 2 27 2;
#X connect 26 3 27 3;
#X connect 26 4 27 4;
#X connect 27 0 13 0;
#X connect 27 0 15 0;
#X connect 27 0 21 0;
#X connect 27 0 22 0;
#X connect 27 1 13 0;
#X connect 27 1 16 0;
#X connect 27 1 21 1;
#X connect 27 1 22 1;
#X connect 27 2 13 0;
#X connect 27 2 17 0;
#X connect 27 2 21 2;
#X connect 27 2 22 2;
#X connect 27 3 13 0;
#X connect 27 3 18 0;
#X connect 27 3 21 3;
#X connect 27 3 22 3;
#X connect 27 4 7 0;
#X connect 27 4 21 4;
#X connect 27 4 13 1;
#X connect 27 4 22 4;
#X connect 28 0 25 0;
#X connect 28 1 25 1;
#X connect 28 2 25 2;
#X connect 28 3 25 3;
#X connect 28 4 25 4;
#X connect 34 0 35 0;
#X connect 35 0 1 0;
#X connect 36 0 35 0;
#X connect 36 1 35 1;
