#N canvas 62 244 958 596 10;
#X obj 72 59 inlet~;
#X obj 72 503 outlet~;
#X text 272 253 (c)2012 Marian Weger;
#X obj 147 503 outlet statelist;
#N canvas 0 22 450 300 ds 0;
#X obj 109 111 ds_reg \$2 /cs/\$1/state nomorph;
#X restore 526 269 pd ds;
#N canvas 0 22 450 300 osc 0;
#X obj 109 111 osc_bi \$2 /cs/\$1/state;
#X restore 526 289 pd osc;
#N canvas 141 465 372 226 init 0;
#X obj 32 29 loadbang;
#X msg 32 73 0;
#X obj 32 171 s /cs/\$1/state;
#X connect 0 0 1 0;
#X connect 1 0 2 0;
#X restore 526 249 pd init;
#X obj 72 177 fx_gain~;
#X obj 680 545 throw~ /monitor;
#X obj 262 502 pipe_mix~ cs/\$1/vu \$2 mux;
#X obj 454 502 pipe_mix~ cs/\$1/send \$2 mux;
#X obj 454 544 throw~ \$3;
#X obj 680 502 pipe_mix~ cs/\$1/monitor \$2 mux;
#X obj 390 145 tff01;
#X obj 417 171 1del0 50;
#X obj 390 59 inlet statelist;
#X obj 290 59 r /cs/\$1/state;
#X obj 390 122 && 1;
#X obj 390 88 t b f;
#X obj 417 193 switch~;
#X obj 262 532 pipe_an~ cs/\$1 \$2 vu peak;
#X obj 72 211 pipe_fx~ cs/\$1 \$2 gain gain;
#X obj 72 233 pipe_fx~ cs/\$1 \$2 eq7;
#X obj 72 263 pipe_fx~ cs/\$1 \$2 gate peak;
#X obj 72 293 pipe_fx~ cs/\$1 \$2 limiter;
#X obj 72 345 pipe_fx~ cs/\$1 \$2 gain mute;
#X obj 72 379 pipe_fx~ cs/\$1 \$2 gain vol;
#X obj 454 524 pipe_fx~ cs/\$1/send \$2 gain vol;
#X obj 680 525 pipe_fx~ cs/\$1/monitor \$2 gain state;
#X text 27 26 cs_full~ <name> <domain> <send destination>;
#X connect 0 0 7 0;
#X connect 7 0 21 0;
#X connect 7 1 21 1;
#X connect 9 0 20 0;
#X connect 10 0 27 0;
#X connect 12 0 28 0;
#X connect 13 0 7 1;
#X connect 13 1 14 0;
#X connect 14 0 19 0;
#X connect 15 0 18 0;
#X connect 16 0 17 0;
#X connect 17 0 13 0;
#X connect 18 0 17 0;
#X connect 18 1 17 1;
#X connect 21 0 22 0;
#X connect 21 1 22 1;
#X connect 22 0 23 0;
#X connect 22 1 23 1;
#X connect 23 0 24 0;
#X connect 23 1 24 1;
#X connect 24 0 9 2;
#X connect 24 0 10 2;
#X connect 24 0 12 2;
#X connect 24 0 25 0;
#X connect 24 1 9 3;
#X connect 24 1 10 3;
#X connect 24 1 12 3;
#X connect 24 1 25 1;
#X connect 25 0 26 0;
#X connect 25 1 26 1;
#X connect 26 0 1 0;
#X connect 26 0 9 0;
#X connect 26 0 10 0;
#X connect 26 0 12 0;
#X connect 26 1 3 0;
#X connect 26 1 9 1;
#X connect 26 1 10 1;
#X connect 26 1 12 1;
#X connect 27 0 11 0;
#X connect 28 0 8 0;
