#N canvas 524 224 962 736 10;
#X text 392 347 (c)2012 Marian Weger;
#X obj 71 593 outlet~ left;
#X obj 161 593 outlet~ right;
#X obj 72 59 inlet~ left;
#X obj 172 59 inlet~ right;
#N canvas 0 50 450 300 ds 0;
#X obj 109 111 ds_reg \$2 /cs/\$1/state nomorph;
#X restore 563 231 pd ds;
#N canvas 0 50 450 300 osc 0;
#X obj 109 111 osc_bi \$2 /cs/\$1/state;
#X restore 563 251 pd osc;
#N canvas 138 498 372 226 init 0;
#X obj 32 29 loadbang;
#X msg 32 73 0;
#X obj 32 171 s /cs/\$1/state;
#X connect 0 0 1 0;
#X connect 1 0 2 0;
#X restore 563 211 pd init;
#X obj 291 597 outlet statelist;
#X obj 72 192 fx_gain_2~;
#X obj 72 221 pipe_fx_2~ cs/\$1 \$2 gain gain;
#X obj 72 263 pipe_fx_2~ cs/\$1 \$2 eq7;
#X obj 72 305 pipe_fx_2~ cs/\$1 \$2 limiter;
#X obj 72 344 pipe_fx_2~ cs/\$1 \$2 gain mute;
#X obj 72 391 pipe_fx_2~ cs/\$1 \$2 gain vol;
#X obj 416 628 pipe_fx_2~ cs/\$1/send \$2 gain vol;
#X obj 416 606 pipe_mix_2~ cs/\$1/send \$2 mux;
#X obj 674 561 pipe_mix_2~ cs/\$1/monitor \$2 mux;
#X obj 674 591 pipe_fx_2~ cs/\$1/monitor \$2 gain state;
#X obj 674 613 throw~ /monitor/1;
#X obj 801 613 throw~ /monitor/2;
#X obj 723 458 pipe_mix_2~ cs/\$1/vu \$2 mux;
#X obj 72 283 pipe_fx_2~ cs/\$1 \$2 gate peak;
#X text 27 26 cs_full_2~ <name> <domain> <send destination>;
#X obj 416 650 throw~ \$3/1;
#X obj 528 650 throw~ \$3/2;
#X obj 390 145 tff01;
#X obj 417 171 1del0 50;
#X obj 390 59 inlet statelist;
#X obj 290 59 r /cs/\$1/state;
#X obj 390 122 && 1;
#X obj 390 88 t b f;
#X obj 417 193 switch~;
#X obj 723 480 pipe_an_2~ cs/\$1 \$2 vu peak;
#X connect 3 0 9 0;
#X connect 4 0 9 1;
#X connect 9 0 10 0;
#X connect 9 1 10 1;
#X connect 9 2 10 2;
#X connect 10 0 11 0;
#X connect 10 0 21 3;
#X connect 10 1 11 1;
#X connect 10 1 21 4;
#X connect 10 2 11 2;
#X connect 10 2 21 5;
#X connect 11 0 22 0;
#X connect 11 1 22 1;
#X connect 11 2 22 2;
#X connect 12 0 13 0;
#X connect 12 0 16 3;
#X connect 12 0 17 3;
#X connect 12 1 13 1;
#X connect 12 1 16 4;
#X connect 12 1 17 4;
#X connect 12 2 13 2;
#X connect 12 2 16 5;
#X connect 12 2 17 5;
#X connect 13 0 14 0;
#X connect 13 1 14 1;
#X connect 13 2 14 2;
#X connect 14 0 1 0;
#X connect 14 0 16 0;
#X connect 14 0 17 0;
#X connect 14 0 21 0;
#X connect 14 1 2 0;
#X connect 14 1 16 1;
#X connect 14 1 17 1;
#X connect 14 1 21 1;
#X connect 14 2 8 0;
#X connect 14 2 16 2;
#X connect 14 2 17 2;
#X connect 14 2 21 2;
#X connect 15 0 24 0;
#X connect 15 1 25 0;
#X connect 16 0 15 0;
#X connect 17 0 18 0;
#X connect 17 1 18 1;
#X connect 17 2 18 2;
#X connect 18 0 19 0;
#X connect 18 1 20 0;
#X connect 21 0 33 0;
#X connect 21 1 33 1;
#X connect 21 2 33 2;
#X connect 22 0 12 0;
#X connect 22 1 12 1;
#X connect 22 2 12 2;
#X connect 26 0 9 2;
#X connect 26 1 27 0;
#X connect 27 0 32 0;
#X connect 28 0 31 0;
#X connect 29 0 30 0;
#X connect 30 0 26 0;
#X connect 31 0 30 0;
#X connect 31 1 30 1;
