#N canvas 120 22 1198 748 10;
#X text 731 291 (c)2012 Marian Weger;
#N canvas 1 54 450 300 ds 0;
#X obj 109 111 ds_reg \$2 /cs/\$1/state nomorph;
#X restore 942 395 pd ds;
#N canvas 1 55 450 300 osc 0;
#X obj 109 111 osc_bi \$2 /cs/\$1/state;
#X restore 942 415 pd osc;
#N canvas 296 420 372 226 init 0;
#X obj 32 29 loadbang;
#X msg 32 73 0;
#X obj 32 171 s /cs/\$1/state;
#X connect 0 0 1 0;
#X connect 1 0 2 0;
#X restore 942 375 pd init;
#X obj 1023 887 outlet statelist;
#X obj 72 221 pipe_fx_8~ cs/\$1 \$2 gain gain;
#X obj 72 263 pipe_fx_8~ cs/\$1 \$2 eq7;
#X obj 72 315 pipe_fx_8~ cs/\$1 \$2 limiter;
#X obj 72 354 pipe_fx_8~ cs/\$1 \$2 gain mute;
#X obj 72 401 pipe_fx_8~ cs/\$1 \$2 gain vol;
#X obj 72 192 fx_gain_8~ 0 0 0 0 0 0 0;
#X obj 72 59 inlet~;
#X obj 122 59 inlet~;
#X obj 722 484 pipe_mix_8~ cs/\$1/vu \$2 mux;
#X obj 596 788 pipe_mix_8~ cs/\$1/send \$2 mux;
#X obj 595 837 pipe_fx_8~ cs/\$1/send \$2 gain vol;
#X obj 172 59 inlet~;
#X obj 222 59 inlet~;
#X obj 272 59 inlet~;
#X obj 322 59 inlet~;
#X obj 372 59 inlet~;
#X obj 422 59 inlet~;
#X obj 829 769 throw~ /monitor;
#X obj 829 684 pipe_mix~ cs/\$1/monitor \$2 mux;
#X obj 84 887 outlet~;
#X obj 144 887 outlet~;
#X obj 204 887 outlet~;
#X obj 264 887 outlet~;
#X obj 324 887 outlet~;
#X obj 384 887 outlet~;
#X obj 444 887 outlet~;
#X obj 504 887 outlet~;
#X obj 72 293 pipe_fx_8~ cs/\$1 \$2 gate peak;
#X text 28 25 cs_full_8~ <name> <domain> <send destination>;
#X obj 772 871 throw~ \$3/8;
#X obj 746 891 throw~ \$3/7;
#X obj 722 911 throw~ \$3/6;
#X obj 696 931 throw~ \$3/5;
#X obj 672 951 throw~ \$3/4;
#X obj 646 971 throw~ \$3/3;
#X obj 622 991 throw~ \$3/2;
#X obj 596 1011 throw~ \$3/1;
#X obj 590 145 tff01;
#X obj 617 171 1del0 50;
#X obj 590 59 inlet statelist;
#X obj 490 59 r /cs/\$1/state;
#X obj 590 122 && 1;
#X obj 590 88 t b f;
#X obj 617 193 switch~;
#X obj 722 516 pipe_an_8~ cs/\$1 \$2 vu peak;
#X obj 830 720 pipe_fx~ cs/\$1/monitor \$2 gain state;
#X connect 5 0 6 0;
#X connect 5 0 13 9;
#X connect 5 1 6 1;
#X connect 5 1 13 10;
#X connect 5 2 6 2;
#X connect 5 2 13 11;
#X connect 5 3 13 12;
#X connect 5 3 6 3;
#X connect 5 4 13 13;
#X connect 5 4 6 4;
#X connect 5 5 13 14;
#X connect 5 5 6 5;
#X connect 5 6 13 15;
#X connect 5 6 6 6;
#X connect 5 7 13 16;
#X connect 5 7 6 7;
#X connect 5 8 6 8;
#X connect 5 8 13 17;
#X connect 6 0 32 0;
#X connect 6 1 32 1;
#X connect 6 2 32 2;
#X connect 6 3 32 3;
#X connect 6 4 32 4;
#X connect 6 5 32 5;
#X connect 6 6 32 6;
#X connect 6 7 32 7;
#X connect 6 8 32 8;
#X connect 7 0 8 0;
#X connect 7 0 14 9;
#X connect 7 0 23 2;
#X connect 7 1 8 1;
#X connect 7 1 14 10;
#X connect 7 1 23 2;
#X connect 7 2 8 2;
#X connect 7 2 14 11;
#X connect 7 2 23 2;
#X connect 7 3 14 12;
#X connect 7 3 23 2;
#X connect 7 3 8 3;
#X connect 7 4 14 13;
#X connect 7 4 23 2;
#X connect 7 4 8 4;
#X connect 7 5 14 14;
#X connect 7 5 23 2;
#X connect 7 5 8 5;
#X connect 7 6 14 15;
#X connect 7 6 23 2;
#X connect 7 6 8 6;
#X connect 7 7 14 16;
#X connect 7 7 23 2;
#X connect 7 7 8 7;
#X connect 7 8 8 8;
#X connect 7 8 14 17;
#X connect 7 8 23 3;
#X connect 8 0 9 0;
#X connect 8 1 9 1;
#X connect 8 2 9 2;
#X connect 8 3 9 3;
#X connect 8 4 9 4;
#X connect 8 5 9 5;
#X connect 8 6 9 6;
#X connect 8 7 9 7;
#X connect 8 8 9 8;
#X connect 9 0 13 0;
#X connect 9 0 14 0;
#X connect 9 0 23 0;
#X connect 9 0 24 0;
#X connect 9 1 13 1;
#X connect 9 1 14 1;
#X connect 9 1 23 0;
#X connect 9 1 25 0;
#X connect 9 2 13 2;
#X connect 9 2 14 2;
#X connect 9 2 23 0;
#X connect 9 2 26 0;
#X connect 9 3 14 3;
#X connect 9 3 13 3;
#X connect 9 3 23 0;
#X connect 9 3 27 0;
#X connect 9 4 14 4;
#X connect 9 4 13 4;
#X connect 9 4 23 0;
#X connect 9 4 28 0;
#X connect 9 5 14 5;
#X connect 9 5 13 5;
#X connect 9 5 23 0;
#X connect 9 5 29 0;
#X connect 9 6 14 6;
#X connect 9 6 13 6;
#X connect 9 6 23 0;
#X connect 9 6 30 0;
#X connect 9 7 14 7;
#X connect 9 7 13 7;
#X connect 9 7 23 0;
#X connect 9 7 31 0;
#X connect 9 8 4 0;
#X connect 9 8 14 8;
#X connect 9 8 13 8;
#X connect 9 8 23 1;
#X connect 10 0 5 0;
#X connect 10 1 5 1;
#X connect 10 2 5 2;
#X connect 10 3 5 3;
#X connect 10 4 5 4;
#X connect 10 5 5 5;
#X connect 10 6 5 6;
#X connect 10 7 5 7;
#X connect 10 8 5 8;
#X connect 11 0 10 0;
#X connect 12 0 10 1;
#X connect 13 0 49 0;
#X connect 13 1 49 1;
#X connect 13 2 49 2;
#X connect 13 3 49 3;
#X connect 13 4 49 4;
#X connect 13 5 49 5;
#X connect 13 6 49 6;
#X connect 13 7 49 7;
#X connect 13 8 49 8;
#X connect 14 0 15 0;
#X connect 14 1 15 1;
#X connect 14 2 15 2;
#X connect 14 3 15 3;
#X connect 14 4 15 4;
#X connect 14 5 15 5;
#X connect 14 6 15 6;
#X connect 14 7 15 7;
#X connect 14 8 15 8;
#X connect 15 0 41 0;
#X connect 15 1 40 0;
#X connect 15 2 39 0;
#X connect 15 3 38 0;
#X connect 15 4 37 0;
#X connect 15 5 36 0;
#X connect 15 6 35 0;
#X connect 15 7 34 0;
#X connect 16 0 10 2;
#X connect 17 0 10 3;
#X connect 18 0 10 4;
#X connect 19 0 10 5;
#X connect 20 0 10 6;
#X connect 21 0 10 7;
#X connect 23 0 50 0;
#X connect 23 1 50 1;
#X connect 32 0 7 0;
#X connect 32 1 7 1;
#X connect 32 2 7 2;
#X connect 32 3 7 3;
#X connect 32 4 7 4;
#X connect 32 5 7 5;
#X connect 32 6 7 6;
#X connect 32 7 7 7;
#X connect 32 8 7 8;
#X connect 42 0 10 8;
#X connect 42 1 43 0;
#X connect 43 0 48 0;
#X connect 44 0 47 0;
#X connect 45 0 46 0;
#X connect 46 0 42 0;
#X connect 47 0 46 0;
#X connect 47 1 46 1;
#X connect 50 0 22 0;
