#N canvas 125 54 564 517 10;
#X text 89 366 (c)2012 Marian Weger;
#X obj 101 101 cnv 13 100 202 empty \$0-label \$1 2 7 0 10 -262144
-1 0;
#X obj 100 159 vsl 23 128 0 1.27 0 0 /fx/vol/cs/\$1 /fx/vol/cs/\$1
empty 0 -9 0 10 -262144 -1 -1 9200 1;
#X obj 100 290 nbx 3 14 -100 24 0 0 /fx/vol/cs/\$1/db /fx/vol/cs/\$1/db
empty 0 -8 0 10 -262144 -1 -1 -1.50087 256;
#X obj 100 115 nbx 3 14 -99 999 0 0 /fx/gain/cs/\$1 /fx/gain/cs/\$1
empty 0 -8 0 10 -262144 -1 -1 0 256;
#X obj 188 159 vsl 14 128 0 1 0 0 /fx/vol/cs/\$1/send /fx/vol/cs/\$1/send
empty 0 -9 0 10 -262144 -1 -1 0 1;
#X obj 188 143 tgl 14 0 /mix/mux/cs/\$1/send /mix/mux/cs/\$1/send p
4 7 0 10 -262144 -1 -1 0 1;
#X obj 286 80 loadbang;
#X obj 286 102 f \$2;
#X obj 286 146 s \$0-label;
#X msg 286 124 color \$1 22 22;
#X obj 188 290 tgl 14 0 /fx/state/cs/\$1/monitor /fx/state/cs/\$1/monitor
empty 17 7 0 10 -257985 -1 -1 0 1;
#X obj 174 290 tgl 14 0 /mix/mux/cs/\$1/monitor /mix/mux/cs/\$1/monitor
p 4 7 0 10 -257985 -1 -1 0 1;
#X obj 188 115 tgl 14 0 /cs/\$1/state /cs/\$1/state empty 17 7 0 10
-24198 -24198 -1 1 1;
#X obj 319 224 sel 0 1;
#X msg 319 274 color \$1 \$1 22;
#X msg 319 246 6;
#X msg 349 246 16;
#X obj 100 143 fx_limiter_gui cs/\$1;
#X obj 100 129 fx_gate_gui cs/\$1;
#X obj 174 115 fx_mute_gui cs/\$1;
#X obj 123 157 an_vu_4_gui cs/\$1;
#X obj 173 256 tgl 15 0 /mix/mux/cs/\$1/vu /mix/mux/cs/\$1/vu pr 2
-7 0 10 -261682 -1 -1 1 1;
#X obj 174 129 fx_eq7_gui cs/\$1;
#X text 45 31 cs_full_4_gui <name> (<label color>);
#X obj 319 202 r /cs/\$1/state;
#X connect 7 0 8 0;
#X connect 8 0 10 0;
#X connect 10 0 9 0;
#X connect 10 0 2 0;
#X connect 10 0 3 0;
#X connect 10 0 5 0;
#X connect 10 0 6 0;
#X connect 10 0 4 0;
#X connect 14 0 16 0;
#X connect 14 1 17 0;
#X connect 15 0 13 0;
#X connect 16 0 15 0;
#X connect 17 0 15 0;
#X connect 25 0 14 0;
#X coords 0 -1 1 1 102 204 2 100 100;
