#N canvas 74 22 728 655 10;
#X text 392 407 (c)2012 Marian Weger;
#X obj 71 653 outlet~ left;
#X obj 161 653 outlet~ right;
#X obj 72 59 inlet~ left;
#X obj 172 59 inlet~ right;
#X obj 348 201 tff01;
#X obj 470 61 inlet statelist;
#X text 27 26 cs_monitor_2~ <name> <domain>;
#X obj 275 653 outlet statelist;
#X obj 207 84 catch~ /monitor/1;
#X obj 217 104 catch~ /monitor/2;
#X obj 227 124 catch~ /monitor;
#X obj 484 115 loadbang;
#X msg 484 137 1;
#X obj 72 252 fx_gain_2~;
#X obj 375 231 1del0 15;
#X obj 72 301 pipe_fx_2~ monitor/\$1 \$2 gain gain;
#X obj 72 404 pipe_fx_2~ monitor/\$1 \$2 gain mute;
#X obj 72 451 pipe_fx_2~ monitor/\$1 \$2 gain vol;
#X obj 375 253 switch~;
#X obj 346 515 pipe_an_2~ monitor/\$1 \$2 vu peak;
#X connect 3 0 14 0;
#X connect 4 0 14 1;
#X connect 5 0 14 2;
#X connect 5 1 15 0;
#X connect 6 0 5 0;
#X connect 9 0 14 0;
#X connect 10 0 14 1;
#X connect 11 0 14 0;
#X connect 11 0 14 1;
#X connect 12 0 13 0;
#X connect 13 0 5 0;
#X connect 14 0 16 0;
#X connect 14 1 16 1;
#X connect 14 2 16 2;
#X connect 15 0 19 0;
#X connect 16 0 17 0;
#X connect 16 0 20 0;
#X connect 16 1 17 1;
#X connect 16 1 20 1;
#X connect 16 2 17 2;
#X connect 16 2 20 2;
#X connect 17 0 18 0;
#X connect 17 1 18 1;
#X connect 17 2 18 2;
#X connect 18 0 1 0;
#X connect 18 1 2 0;
#X connect 18 2 8 0;
