#N canvas 3 202 1198 687 10;
#N canvas 1 51 450 300 ds 0;
#X obj 109 111 ds_reg \$2 /cs/channel/\$1/state nomorph;
#X restore 1851 423 pd ds;
#N canvas 1 51 450 300 osc 0;
#X obj 109 111 osc_bi \$2 /cs/\$1/state;
#X restore 1851 443 pd osc;
#N canvas 290 414 372 226 init 0;
#X obj 32 29 loadbang;
#X msg 32 73 0;
#X msg 82 73 0;
#X obj 82 101 s /cs/s/\$1/monitor/db;
#X obj 32 171 s /cs/\$1/state;
#X connect 0 0 1 0;
#X connect 0 0 2 0;
#X connect 1 0 4 0;
#X connect 2 0 3 0;
#X restore 1851 403 pd init;
#X obj 2606 907 outlet statelist;
#X obj 72 59 inlet~;
#X obj 112 89 inlet~;
#X obj 152 59 inlet~;
#X obj 192 89 inlet~;
#X obj 232 59 inlet~;
#X obj 272 89 inlet~;
#X obj 312 59 inlet~;
#X obj 352 89 inlet~;
#X obj 72 907 outlet~;
#X obj 122 907 outlet~;
#X obj 172 907 outlet~;
#X obj 222 907 outlet~;
#X obj 272 907 outlet~;
#X obj 322 907 outlet~;
#X obj 372 907 outlet~;
#X obj 422 907 outlet~;
#X obj 392 59 inlet~;
#X obj 432 89 inlet~;
#X obj 472 59 inlet~;
#X obj 512 89 inlet~;
#X obj 552 59 inlet~;
#X obj 592 89 inlet~;
#X obj 632 59 inlet~;
#X obj 672 89 inlet~;
#X obj 712 59 inlet~;
#X obj 752 89 inlet~;
#X obj 792 59 inlet~;
#X obj 832 89 inlet~;
#X obj 872 59 inlet~;
#X obj 912 89 inlet~;
#X obj 952 59 inlet~;
#X obj 992 89 inlet~;
#X obj 1086 485 pipe_mix~ cs/\$1/monitor \$2 mux;
#X obj 1086 511 pipe_fx_t~ cs/\$1/monitor \$2 /monitor gain state;
#X obj 472 907 outlet~;
#X obj 522 907 outlet~;
#X obj 572 907 outlet~;
#X obj 622 907 outlet~;
#X obj 672 907 outlet~;
#X obj 722 907 outlet~;
#X obj 772 907 outlet~;
#X obj 822 907 outlet~;
#X obj 872 907 outlet~;
#X obj 922 907 outlet~;
#X obj 972 907 outlet~;
#X obj 1022 907 outlet~;
#X obj 1072 907 outlet~;
#X obj 1122 907 outlet~;
#X obj 1172 907 outlet~;
#X obj 1222 907 outlet~;
#X obj 2154 147 tff01;
#X obj 2181 173 1del0 50;
#X obj 2154 61 inlet statelist;
#X obj 2054 61 r /cs/\$1/state;
#X obj 2154 124 && 1;
#X obj 2154 90 t b f;
#X obj 2181 195 switch~;
#X obj 2525 907 outlet~;
#X obj 1877 684 pipe_an~ cs/\$1/lfe \$2 vu peak;
#X text 28 25 cs_out_48~ <name> <domain>;
#X text 1616 409 (c)2015 Marian Weger;
#X obj 72 312 fx_gain_48~ 0 0 0 0 0 0 0 0 0 0 0 0 0 0 0 0 0 0 0 0 0
0 0 0, f 101;
#X obj 72 376 pipe_fx_s_48~ cs/\$1 \$2 /cs/\$1/prefader gain gain 0
0 0 0 0 0, f 101;
#X obj 72 414 pipe_fx_r_48~ cs/\$1 \$2 /cs/\$1/prefader gain mute 0
0 0 0 0 0, f 101;
#X obj 72 441 pipe_fx_s_48~ cs/\$1 \$2 /cs/\$1/postfader gain vol 0
0 0 0 0 0, f 101;
#X obj 72 471 pipe_fx_r_48~ cs/\$1 \$2 /cs/\$1/postfader eq7 0 0 0
0 0 0 0 0, f 101;
#X obj 1042 59 inlet~;
#X obj 1082 89 inlet~;
#X obj 1122 59 inlet~;
#X obj 1162 89 inlet~;
#X obj 1202 59 inlet~;
#X obj 1242 89 inlet~;
#X obj 1282 59 inlet~;
#X obj 1322 89 inlet~;
#X obj 1362 59 inlet~;
#X obj 1402 89 inlet~;
#X obj 1442 59 inlet~;
#X obj 1482 89 inlet~;
#X obj 1522 59 inlet~;
#X obj 1562 89 inlet~;
#X obj 1602 59 inlet~;
#X obj 1642 89 inlet~;
#X obj 1682 59 inlet~;
#X obj 1722 89 inlet~;
#X obj 1762 59 inlet~;
#X obj 1802 89 inlet~;
#X obj 1842 59 inlet~;
#X obj 1882 89 inlet~;
#X obj 1922 59 inlet~;
#X obj 1962 89 inlet~;
#X obj 72 519 pipe_fx_multi_48~ cs/\$1 \$2 gain gain 0 0 0 0 0 0 0
0 0 0 0 0, f 101;
#X obj 72 703 pipe_fx_multi_48~ cs/\$1 \$2 delay 99 0 0 0 0 0 0 0 0
0 0 0 0, f 101;
#X obj 1282 907 outlet~;
#X obj 1332 907 outlet~;
#X obj 1382 907 outlet~;
#X obj 1432 907 outlet~;
#X obj 1482 907 outlet~;
#X obj 1532 907 outlet~;
#X obj 1582 907 outlet~;
#X obj 1632 907 outlet~;
#X obj 1682 907 outlet~;
#X obj 1732 907 outlet~;
#X obj 1782 907 outlet~;
#X obj 1832 907 outlet~;
#X obj 1882 907 outlet~;
#X obj 1932 907 outlet~;
#X obj 1982 907 outlet~;
#X obj 2032 907 outlet~;
#X obj 2082 907 outlet~;
#X obj 2132 907 outlet~;
#X obj 2182 907 outlet~;
#X obj 2232 907 outlet~;
#X obj 2282 907 outlet~;
#X obj 2332 907 outlet~;
#X obj 2382 907 outlet~;
#X obj 2432 907 outlet~;
#X obj 1086 405 r2o_mono_48~ /cs/\$1/postfader;
#X obj 1223 425 r2o_mono_48~ /cs/\$1/prefader;
#X obj 1797 568 r2o_mono_48~ /cs/\$1/postfader;
#X obj 1086 583 pipe_an_48~ cs/\$1 \$2 vu peak 0 0 0 0 0 0 0 0 0 0
0 0 0 0 0 0, f 79;
#X obj 1086 543 pipe_mix_r_48~ cs/\$1/vu \$2 /cs/\$1/postfader /cs/\$1/prefader
mux, f 79;
#X obj 1797 642 pipe_fx~ cs/\$1/lfe \$2 gain vol;
#X obj 1797 590 pipe_fx~ cs/\$1/lfe \$2 gain gain;
#X obj 1797 615 pipe_fx~ cs/\$1/lfe \$2 eq2;
#X connect 4 0 65 0;
#X connect 5 0 65 1;
#X connect 6 0 65 2;
#X connect 7 0 65 3;
#X connect 8 0 65 4;
#X connect 9 0 65 5;
#X connect 10 0 65 6;
#X connect 11 0 65 7;
#X connect 20 0 65 8;
#X connect 21 0 65 9;
#X connect 22 0 65 10;
#X connect 23 0 65 11;
#X connect 24 0 65 12;
#X connect 25 0 65 13;
#X connect 26 0 65 14;
#X connect 27 0 65 15;
#X connect 28 0 65 16;
#X connect 29 0 65 17;
#X connect 30 0 65 18;
#X connect 31 0 65 19;
#X connect 32 0 65 20;
#X connect 33 0 65 21;
#X connect 34 0 65 22;
#X connect 35 0 65 23;
#X connect 36 0 37 0;
#X connect 36 1 37 1;
#X connect 54 0 65 48;
#X connect 54 1 55 0;
#X connect 55 0 60 0;
#X connect 56 0 59 0;
#X connect 57 0 58 0;
#X connect 58 0 54 0;
#X connect 59 0 58 0;
#X connect 59 1 58 1;
#X connect 65 0 66 0;
#X connect 65 1 66 1;
#X connect 65 2 66 2;
#X connect 65 3 66 3;
#X connect 65 4 66 4;
#X connect 65 5 66 5;
#X connect 65 6 66 6;
#X connect 65 7 66 7;
#X connect 65 8 66 8;
#X connect 65 9 66 9;
#X connect 65 10 66 10;
#X connect 65 11 66 11;
#X connect 65 12 66 12;
#X connect 65 13 66 13;
#X connect 65 14 66 14;
#X connect 65 15 66 15;
#X connect 65 16 66 16;
#X connect 65 17 66 17;
#X connect 65 18 66 18;
#X connect 65 19 66 19;
#X connect 65 20 66 20;
#X connect 65 21 66 21;
#X connect 65 22 66 22;
#X connect 65 23 66 23;
#X connect 65 24 66 24;
#X connect 65 25 66 25;
#X connect 65 26 66 26;
#X connect 65 27 66 27;
#X connect 65 28 66 28;
#X connect 65 29 66 29;
#X connect 65 30 66 30;
#X connect 65 31 66 31;
#X connect 65 32 66 32;
#X connect 65 33 66 33;
#X connect 65 34 66 34;
#X connect 65 35 66 35;
#X connect 65 36 66 36;
#X connect 65 37 66 37;
#X connect 65 38 66 38;
#X connect 65 39 66 39;
#X connect 65 40 66 40;
#X connect 65 41 66 41;
#X connect 65 42 66 42;
#X connect 65 43 66 43;
#X connect 65 44 66 44;
#X connect 65 45 66 45;
#X connect 65 46 66 46;
#X connect 65 47 66 47;
#X connect 65 48 66 48;
#X connect 66 0 67 0;
#X connect 66 1 36 3;
#X connect 66 1 67 1;
#X connect 66 1 124 1;
#X connect 67 0 68 0;
#X connect 67 1 68 1;
#X connect 67 2 68 2;
#X connect 67 3 68 3;
#X connect 67 4 68 4;
#X connect 67 5 68 5;
#X connect 67 6 68 6;
#X connect 67 7 68 7;
#X connect 67 8 68 8;
#X connect 67 9 68 9;
#X connect 67 10 68 10;
#X connect 67 11 68 11;
#X connect 67 12 68 12;
#X connect 67 13 68 13;
#X connect 67 14 68 14;
#X connect 67 15 68 15;
#X connect 67 16 68 16;
#X connect 67 17 68 17;
#X connect 67 18 68 18;
#X connect 67 19 68 19;
#X connect 67 20 68 20;
#X connect 67 21 68 21;
#X connect 67 22 68 22;
#X connect 67 23 68 23;
#X connect 67 24 68 24;
#X connect 67 25 68 25;
#X connect 67 26 68 26;
#X connect 67 27 68 27;
#X connect 67 28 68 28;
#X connect 67 29 68 29;
#X connect 67 30 68 30;
#X connect 67 31 68 31;
#X connect 67 32 68 32;
#X connect 67 33 68 33;
#X connect 67 34 68 34;
#X connect 67 35 68 35;
#X connect 67 36 68 36;
#X connect 67 37 68 37;
#X connect 67 38 68 38;
#X connect 67 39 68 39;
#X connect 67 40 68 40;
#X connect 67 41 68 41;
#X connect 67 42 68 42;
#X connect 67 43 68 43;
#X connect 67 44 68 44;
#X connect 67 45 68 45;
#X connect 67 46 68 46;
#X connect 67 47 68 47;
#X connect 67 48 68 48;
#X connect 68 0 69 0;
#X connect 68 1 36 1;
#X connect 68 1 69 1;
#X connect 68 1 124 0;
#X connect 69 0 94 0;
#X connect 69 1 94 1;
#X connect 69 2 94 2;
#X connect 69 3 94 3;
#X connect 69 4 94 4;
#X connect 69 5 94 5;
#X connect 69 6 94 6;
#X connect 69 7 94 7;
#X connect 69 8 94 8;
#X connect 69 9 94 9;
#X connect 69 10 94 10;
#X connect 69 11 94 11;
#X connect 69 12 94 12;
#X connect 69 13 94 13;
#X connect 69 14 94 14;
#X connect 69 15 94 15;
#X connect 69 16 94 16;
#X connect 69 17 94 17;
#X connect 69 18 94 18;
#X connect 69 19 94 19;
#X connect 69 20 94 20;
#X connect 69 21 94 21;
#X connect 69 22 94 22;
#X connect 69 23 94 23;
#X connect 69 24 94 24;
#X connect 69 25 94 25;
#X connect 69 26 94 26;
#X connect 69 27 94 27;
#X connect 69 28 94 28;
#X connect 69 29 94 29;
#X connect 69 30 94 30;
#X connect 69 31 94 31;
#X connect 69 32 94 32;
#X connect 69 33 94 33;
#X connect 69 34 94 34;
#X connect 69 35 94 35;
#X connect 69 36 94 36;
#X connect 69 37 94 37;
#X connect 69 38 94 38;
#X connect 69 39 94 39;
#X connect 69 40 94 40;
#X connect 69 41 94 41;
#X connect 69 42 94 42;
#X connect 69 43 94 43;
#X connect 69 44 94 44;
#X connect 69 45 94 45;
#X connect 69 46 94 46;
#X connect 69 47 94 47;
#X connect 69 48 94 48;
#X connect 70 0 65 24;
#X connect 71 0 65 25;
#X connect 72 0 65 26;
#X connect 73 0 65 27;
#X connect 74 0 65 28;
#X connect 75 0 65 29;
#X connect 76 0 65 30;
#X connect 77 0 65 31;
#X connect 78 0 65 32;
#X connect 79 0 65 33;
#X connect 80 0 65 34;
#X connect 81 0 65 35;
#X connect 82 0 65 36;
#X connect 83 0 65 37;
#X connect 84 0 65 38;
#X connect 85 0 65 39;
#X connect 86 0 65 40;
#X connect 87 0 65 41;
#X connect 88 0 65 42;
#X connect 89 0 65 43;
#X connect 90 0 65 44;
#X connect 91 0 65 45;
#X connect 92 0 65 46;
#X connect 93 0 65 47;
#X connect 94 0 95 0;
#X connect 94 1 95 1;
#X connect 94 2 95 2;
#X connect 94 3 95 3;
#X connect 94 4 95 4;
#X connect 94 5 95 5;
#X connect 94 6 95 6;
#X connect 94 7 95 7;
#X connect 94 8 95 8;
#X connect 94 9 95 9;
#X connect 94 10 95 10;
#X connect 94 11 95 11;
#X connect 94 12 95 12;
#X connect 94 13 95 13;
#X connect 94 14 95 14;
#X connect 94 15 95 15;
#X connect 94 16 95 16;
#X connect 94 17 95 17;
#X connect 94 18 95 18;
#X connect 94 19 95 19;
#X connect 94 20 95 20;
#X connect 94 21 95 21;
#X connect 94 22 95 22;
#X connect 94 23 95 23;
#X connect 94 24 95 24;
#X connect 94 25 95 25;
#X connect 94 26 95 26;
#X connect 94 27 95 27;
#X connect 94 28 95 28;
#X connect 94 29 95 29;
#X connect 94 30 95 30;
#X connect 94 31 95 31;
#X connect 94 32 95 32;
#X connect 94 33 95 33;
#X connect 94 34 95 34;
#X connect 94 35 95 35;
#X connect 94 36 95 36;
#X connect 94 37 95 37;
#X connect 94 38 95 38;
#X connect 94 39 95 39;
#X connect 94 40 95 40;
#X connect 94 41 95 41;
#X connect 94 42 95 42;
#X connect 94 43 95 43;
#X connect 94 44 95 44;
#X connect 94 45 95 45;
#X connect 94 46 95 46;
#X connect 94 47 95 47;
#X connect 94 48 95 48;
#X connect 95 0 12 0;
#X connect 95 1 13 0;
#X connect 95 2 14 0;
#X connect 95 3 15 0;
#X connect 95 4 16 0;
#X connect 95 5 17 0;
#X connect 95 6 18 0;
#X connect 95 7 19 0;
#X connect 95 8 38 0;
#X connect 95 9 39 0;
#X connect 95 10 40 0;
#X connect 95 11 41 0;
#X connect 95 12 42 0;
#X connect 95 13 43 0;
#X connect 95 14 44 0;
#X connect 95 15 45 0;
#X connect 95 16 46 0;
#X connect 95 17 47 0;
#X connect 95 18 48 0;
#X connect 95 19 49 0;
#X connect 95 20 50 0;
#X connect 95 21 51 0;
#X connect 95 22 52 0;
#X connect 95 23 53 0;
#X connect 95 24 96 0;
#X connect 95 25 97 0;
#X connect 95 26 98 0;
#X connect 95 27 99 0;
#X connect 95 28 100 0;
#X connect 95 29 101 0;
#X connect 95 30 102 0;
#X connect 95 31 103 0;
#X connect 95 32 104 0;
#X connect 95 33 105 0;
#X connect 95 34 106 0;
#X connect 95 35 107 0;
#X connect 95 36 108 0;
#X connect 95 37 109 0;
#X connect 95 38 110 0;
#X connect 95 39 111 0;
#X connect 95 40 112 0;
#X connect 95 41 113 0;
#X connect 95 42 114 0;
#X connect 95 43 115 0;
#X connect 95 44 116 0;
#X connect 95 45 117 0;
#X connect 95 46 118 0;
#X connect 95 47 119 0;
#X connect 95 48 3 0;
#X connect 120 0 36 0;
#X connect 121 0 36 2;
#X connect 122 0 126 0;
#X connect 124 0 123 0;
#X connect 124 1 123 1;
#X connect 124 2 123 2;
#X connect 124 3 123 3;
#X connect 124 4 123 4;
#X connect 124 5 123 5;
#X connect 124 6 123 6;
#X connect 124 7 123 7;
#X connect 124 8 123 8;
#X connect 124 9 123 9;
#X connect 124 10 123 10;
#X connect 124 11 123 11;
#X connect 124 12 123 12;
#X connect 124 13 123 13;
#X connect 124 14 123 14;
#X connect 124 15 123 15;
#X connect 124 16 123 16;
#X connect 124 17 123 17;
#X connect 124 18 123 18;
#X connect 124 19 123 19;
#X connect 124 20 123 20;
#X connect 124 21 123 21;
#X connect 124 22 123 22;
#X connect 124 23 123 23;
#X connect 124 24 123 24;
#X connect 124 25 123 25;
#X connect 124 26 123 26;
#X connect 124 27 123 27;
#X connect 124 28 123 28;
#X connect 124 29 123 29;
#X connect 124 30 123 30;
#X connect 124 31 123 31;
#X connect 124 32 123 32;
#X connect 124 33 123 33;
#X connect 124 34 123 34;
#X connect 124 35 123 35;
#X connect 124 36 123 36;
#X connect 124 37 123 37;
#X connect 124 38 123 38;
#X connect 124 39 123 39;
#X connect 124 40 123 40;
#X connect 124 41 123 41;
#X connect 124 42 123 42;
#X connect 124 43 123 43;
#X connect 124 44 123 44;
#X connect 124 45 123 45;
#X connect 124 46 123 46;
#X connect 124 47 123 47;
#X connect 124 48 123 48;
#X connect 125 0 61 0;
#X connect 125 0 62 0;
#X connect 125 1 62 1;
#X connect 126 0 127 0;
#X connect 126 1 127 1;
#X connect 127 0 125 0;
#X connect 127 1 125 1;
