#N canvas 242 160 941 517 10;
#X obj 101 101 cnv 13 413 202 empty \$0-label \$1 2 7 0 10 -262144
-1 0;
#X obj 100 159 vsl 23 128 0 1.27 0 0 /fx/vol/cs/\$1 /fx/vol/cs/\$1
empty 0 -9 0 10 -262144 -1 -1 0 1;
#X obj 100 290 nbx 3 14 -100 24 0 0 /fx/vol/cs/\$1/db /fx/vol/cs/\$1/db
empty 0 -8 0 10 -262144 -1 -1 0 256;
#X obj 100 115 nbx 3 14 -99 999 0 0 /fx/gain/cs/\$1 /fx/gain/cs/\$1
empty 0 -8 0 10 -262144 -1 -1 0 256;
#X obj 786 159 vsl 14 128 0 1 0 0 /fx/vol/cs/\$1/send /fx/vol/cs/\$1/send
empty 0 -9 0 10 -262144 -1 -1 0 1;
#X obj 1008 90 loadbang;
#X obj 1006 117 f \$2;
#X obj 1006 161 s \$0-label;
#X msg 1006 139 color \$1 22 22;
#X obj 813 100 tgl 14 0 /cs/\$1/state /cs/\$1/state empty 17 7 0 10
-225271 -225271 -1 0 1;
#X obj 988 240 sel 0 1;
#X msg 988 290 color \$1 \$1 22;
#X msg 988 262 6;
#X msg 1018 262 16;
#X obj 100 143 fx_eq7_gui cs/\$1;
#X obj 799 100 fx_mute_gui cs/\$1;
#X obj 988 218 r /cs/\$1/state;
#X obj 800 157 an_vu_gui /cs/\$1/lfe;
#X obj 786 143 fx_eq2_gui /cs/\$1/lfe;
#X text 795 123 LFE;
#X text 45 31 cs_out_48_gui <name> (<label color>);
#X obj 187 113 fx_multigain_48_gui cs/\$1;
#X obj 187 127 fx_multidelay_48_gui cs/\$1;
#X text 65 367 (c)2015 Marian Weger;
#X obj 125 157 an_vu_48_gui cs/\$1;
#X obj 768 290 tgl 14 0 /fx/state/cs/\$1/monitor /fx/state/cs/\$1/monitor
empty 17 7 0 10 -257985 -1 -1 0 1;
#X obj 754 290 tgl 14 0 /mix/mux/cs/\$1/monitor /mix/mux/cs/\$1/monitor
p 4 7 0 10 -257985 -1 -1 0 1;
#X obj 767 256 tgl 15 0 /mix/mux/cs/\$1/vu /mix/mux/cs/\$1/vu pr 2
-7 0 10 -261682 -1 -1 0 1;
#X connect 5 0 6 0;
#X connect 6 0 8 0;
#X connect 8 0 7 0;
#X connect 8 0 1 0;
#X connect 8 0 2 0;
#X connect 8 0 4 0;
#X connect 8 0 3 0;
#X connect 10 0 12 0;
#X connect 10 1 13 0;
#X connect 11 0 9 0;
#X connect 12 0 11 0;
#X connect 13 0 11 0;
#X connect 16 0 10 0;
#X coords 0 -1 1 1 727 204 2 100 100;
