#N canvas 104 22 1198 748 10;
#N canvas 1 54 450 300 ds 0;
#X obj 109 111 ds_reg \$2 /cs/channel/\$1/state nomorph;
#X restore 966 324 pd ds;
#N canvas 1 55 450 300 osc 0;
#X obj 109 111 osc_bi \$2 /cs/\$1/state;
#X restore 966 344 pd osc;
#N canvas 296 420 372 226 init 0;
#X obj 32 29 loadbang;
#X msg 32 73 0;
#X msg 82 73 0;
#X obj 82 101 s /cs/s/\$1/monitor/db;
#X obj 32 171 s /cs/\$1/state;
#X connect 0 0 1 0;
#X connect 0 0 2 0;
#X connect 1 0 4 0;
#X connect 2 0 3 0;
#X restore 966 304 pd init;
#X obj 1396 907 outlet statelist;
#X obj 72 59 inlet~;
#X obj 112 89 inlet~;
#X obj 152 59 inlet~;
#X obj 192 89 inlet~;
#X obj 232 59 inlet~;
#X obj 272 89 inlet~;
#X obj 312 59 inlet~;
#X obj 352 89 inlet~;
#X obj 72 907 outlet~;
#X obj 122 907 outlet~;
#X obj 172 907 outlet~;
#X obj 222 907 outlet~;
#X obj 272 907 outlet~;
#X obj 322 907 outlet~;
#X obj 372 907 outlet~;
#X obj 422 907 outlet~;
#X obj 392 59 inlet~;
#X obj 432 89 inlet~;
#X obj 472 59 inlet~;
#X obj 512 89 inlet~;
#X obj 552 59 inlet~;
#X obj 592 89 inlet~;
#X obj 632 59 inlet~;
#X obj 672 89 inlet~;
#X obj 712 59 inlet~;
#X obj 752 89 inlet~;
#X obj 792 59 inlet~;
#X obj 832 89 inlet~;
#X obj 872 59 inlet~;
#X obj 912 89 inlet~;
#X obj 952 59 inlet~;
#X obj 992 89 inlet~;
#X text 731 310 (c)2013 Marian Weger;
#X obj 72 312 fx_gain_24~ 0 0 0 0 0 0 0 0 0 0 0 0 0 0 0 0 0 0 0 0 0
0 0 0;
#X obj 588 539 pipe_mix~ cs/\$1/monitor \$2 mux;
#X obj 588 565 pipe_fx_t~ cs/\$1/monitor \$2 /monitor gain state;
#X obj 472 907 outlet~;
#X obj 522 907 outlet~;
#X obj 572 907 outlet~;
#X obj 622 907 outlet~;
#X obj 672 907 outlet~;
#X obj 722 907 outlet~;
#X obj 772 907 outlet~;
#X obj 822 907 outlet~;
#X obj 872 907 outlet~;
#X obj 922 907 outlet~;
#X obj 972 907 outlet~;
#X obj 1022 907 outlet~;
#X obj 1072 907 outlet~;
#X obj 1122 907 outlet~;
#X obj 1172 907 outlet~;
#X obj 1222 907 outlet~;
#X text 28 25 cs_full_24~ <name> <domain>;
#X obj 588 459 r2o_mono_24~ /cs/\$1/prefader;
#X obj 706 479 r2o_mono_24~ /cs/\$1/prefader;
#X obj 588 597 pipe_mix_r_24~ cs/\$1/vu \$2 /cs/\$1/postfader /cs/\$1/prefader
mux;
#X obj 1162 148 tff01;
#X obj 1189 174 1del0 50;
#X obj 1162 62 inlet statelist;
#X obj 1062 62 r /cs/\$1/state;
#X obj 1162 125 && 1;
#X obj 1162 91 t b f;
#X obj 1189 196 switch~;
#X obj 588 637 pipe_an_24~ cs/\$1 \$2 vu peak 0 0 0 0 0 0 0 0 0 0 0
0 0 0 0 0;
#X obj 72 356 pipe_fx_s_24~ cs/\$1 \$2 /cs/\$1/prefader gain gain 0
0 0 0 0 0;
#X obj 72 444 pipe_fx_r_24~ cs/\$1 \$2 /cs/\$1/prefader gain mute 0
0 0 0 0 0;
#X obj 72 491 pipe_fx_s_24~ cs/\$1 \$2 /cs/\$1/postfader gain vol 0
0 0 0 0 0;
#X obj 1089 622 r2o_mono_24~ /cs/\$1/postfader;
#X obj 1089 696 pipe_fx~ cs/\$1/lfe \$2 gain vol;
#X obj 1291 907 outlet~;
#X obj 1089 644 pipe_fx~ cs/\$1/lfe \$2 gain gain;
#X obj 1089 669 pipe_fx~ cs/\$1/lfe \$2 eq2;
#X obj 1169 738 pipe_an~ cs/\$1/lfe \$2 vu peak;
#X obj 72 541 pipe_fx_r_24~ cs/\$1 \$2 /cs/\$1/postfader eq7 0 0 0
0 0 0 0 0;
#X obj 72 608 pipe_fx_multi_24~ cs/\$1 \$2 delay 99 0 0 0 0 0 0 0 0
0 0 0 0;
#X obj 72 572 pipe_fx_multi_24~ cs/\$1 \$2 gain gain 0 0 0 0 0 0 0
0 0 0 0 0;
#X connect 4 0 37 0;
#X connect 5 0 37 1;
#X connect 6 0 37 2;
#X connect 7 0 37 3;
#X connect 8 0 37 4;
#X connect 9 0 37 5;
#X connect 10 0 37 6;
#X connect 11 0 37 7;
#X connect 20 0 37 8;
#X connect 21 0 37 9;
#X connect 22 0 37 10;
#X connect 23 0 37 11;
#X connect 24 0 37 12;
#X connect 25 0 37 13;
#X connect 26 0 37 14;
#X connect 27 0 37 15;
#X connect 28 0 37 16;
#X connect 29 0 37 17;
#X connect 30 0 37 18;
#X connect 31 0 37 19;
#X connect 32 0 37 20;
#X connect 33 0 37 21;
#X connect 34 0 37 22;
#X connect 35 0 37 23;
#X connect 37 0 68 0;
#X connect 37 1 68 1;
#X connect 37 2 68 2;
#X connect 37 3 68 3;
#X connect 37 4 68 4;
#X connect 37 5 68 5;
#X connect 37 6 68 6;
#X connect 37 7 68 7;
#X connect 37 8 68 8;
#X connect 37 9 68 9;
#X connect 37 10 68 10;
#X connect 37 11 68 11;
#X connect 37 12 68 12;
#X connect 37 13 68 13;
#X connect 37 14 68 14;
#X connect 37 15 68 15;
#X connect 37 16 68 16;
#X connect 37 17 68 17;
#X connect 37 18 68 18;
#X connect 37 19 68 19;
#X connect 37 20 68 20;
#X connect 37 21 68 21;
#X connect 37 22 68 22;
#X connect 37 23 68 23;
#X connect 37 24 68 24;
#X connect 38 0 39 0;
#X connect 38 1 39 1;
#X connect 57 0 38 0;
#X connect 58 0 38 2;
#X connect 59 0 67 0;
#X connect 59 1 67 1;
#X connect 59 2 67 2;
#X connect 59 3 67 3;
#X connect 59 4 67 4;
#X connect 59 5 67 5;
#X connect 59 6 67 6;
#X connect 59 7 67 7;
#X connect 59 8 67 8;
#X connect 59 9 67 9;
#X connect 59 10 67 10;
#X connect 59 11 67 11;
#X connect 59 12 67 12;
#X connect 59 13 67 13;
#X connect 59 14 67 14;
#X connect 59 15 67 15;
#X connect 59 16 67 16;
#X connect 59 17 67 17;
#X connect 59 18 67 18;
#X connect 59 19 67 19;
#X connect 59 20 67 20;
#X connect 59 21 67 21;
#X connect 59 22 67 22;
#X connect 59 23 67 23;
#X connect 59 24 67 24;
#X connect 60 0 37 24;
#X connect 60 1 61 0;
#X connect 61 0 66 0;
#X connect 62 0 65 0;
#X connect 63 0 64 0;
#X connect 64 0 60 0;
#X connect 65 0 64 0;
#X connect 65 1 64 1;
#X connect 68 0 69 0;
#X connect 68 1 38 3;
#X connect 68 1 59 1;
#X connect 68 1 69 1;
#X connect 69 0 70 0;
#X connect 69 1 70 1;
#X connect 69 2 70 2;
#X connect 69 3 70 3;
#X connect 69 4 70 4;
#X connect 69 5 70 5;
#X connect 69 6 70 6;
#X connect 69 7 70 7;
#X connect 69 8 70 8;
#X connect 69 9 70 9;
#X connect 69 10 70 10;
#X connect 69 11 70 11;
#X connect 69 12 70 12;
#X connect 69 13 70 13;
#X connect 69 14 70 14;
#X connect 69 15 70 15;
#X connect 69 16 70 16;
#X connect 69 17 70 17;
#X connect 69 18 70 18;
#X connect 69 19 70 19;
#X connect 69 20 70 20;
#X connect 69 21 70 21;
#X connect 69 22 70 22;
#X connect 69 23 70 23;
#X connect 69 24 70 24;
#X connect 70 0 77 0;
#X connect 70 1 38 1;
#X connect 70 1 59 0;
#X connect 70 1 77 1;
#X connect 71 0 74 0;
#X connect 72 0 73 0;
#X connect 72 0 76 0;
#X connect 72 1 76 1;
#X connect 74 0 75 0;
#X connect 74 1 75 1;
#X connect 75 0 72 0;
#X connect 75 1 72 1;
#X connect 77 0 79 0;
#X connect 77 1 79 1;
#X connect 77 2 79 2;
#X connect 77 3 79 3;
#X connect 77 4 79 4;
#X connect 77 5 79 5;
#X connect 77 6 79 6;
#X connect 77 7 79 7;
#X connect 77 8 79 8;
#X connect 77 9 79 9;
#X connect 77 10 79 10;
#X connect 77 11 79 11;
#X connect 77 12 79 12;
#X connect 77 13 79 13;
#X connect 77 14 79 14;
#X connect 77 15 79 15;
#X connect 77 16 79 16;
#X connect 77 17 79 17;
#X connect 77 18 79 18;
#X connect 77 19 79 19;
#X connect 77 20 79 20;
#X connect 77 21 79 21;
#X connect 77 22 79 22;
#X connect 77 23 79 23;
#X connect 77 24 79 24;
#X connect 78 0 12 0;
#X connect 78 1 13 0;
#X connect 78 2 14 0;
#X connect 78 3 15 0;
#X connect 78 4 16 0;
#X connect 78 5 17 0;
#X connect 78 6 18 0;
#X connect 78 7 19 0;
#X connect 78 8 40 0;
#X connect 78 9 41 0;
#X connect 78 10 42 0;
#X connect 78 11 43 0;
#X connect 78 12 44 0;
#X connect 78 13 45 0;
#X connect 78 14 46 0;
#X connect 78 15 47 0;
#X connect 78 16 48 0;
#X connect 78 17 49 0;
#X connect 78 18 50 0;
#X connect 78 19 51 0;
#X connect 78 20 52 0;
#X connect 78 21 53 0;
#X connect 78 22 54 0;
#X connect 78 23 55 0;
#X connect 78 24 3 0;
#X connect 79 0 78 0;
#X connect 79 1 78 1;
#X connect 79 2 78 2;
#X connect 79 3 78 3;
#X connect 79 4 78 4;
#X connect 79 5 78 5;
#X connect 79 6 78 6;
#X connect 79 7 78 7;
#X connect 79 8 78 8;
#X connect 79 9 78 9;
#X connect 79 10 78 10;
#X connect 79 11 78 11;
#X connect 79 12 78 12;
#X connect 79 13 78 13;
#X connect 79 14 78 14;
#X connect 79 15 78 15;
#X connect 79 16 78 16;
#X connect 79 17 78 17;
#X connect 79 18 78 18;
#X connect 79 19 78 19;
#X connect 79 20 78 20;
#X connect 79 21 78 21;
#X connect 79 22 78 22;
#X connect 79 23 78 23;
#X connect 79 24 78 24;
