#N canvas 152 115 452 378 10;
#X obj 133 295 outlet;
#X text 253 291 (c)2012 Marian Weger;
#X obj 133 100 inlet;
#X text 73 42 db2fader;
#X obj 133 140 moses 0;
#X obj 133 222 exp;
#X obj 133 186 / 18;
#X obj 172 179 / 12;
#X obj 172 201 sqrt;
#X obj 172 223 * 0.27;
#X obj 172 245 + 1;
#X connect 2 0 4 0;
#X connect 4 0 6 0;
#X connect 4 1 7 0;
#X connect 5 0 0 0;
#X connect 6 0 5 0;
#X connect 7 0 8 0;
#X connect 8 0 9 0;
#X connect 9 0 10 0;
#X connect 10 0 0 0;
