#N canvas 152 115 443 423 10;
#X obj 133 221 log;
#X obj 172 205 / 0.27;
#X obj 172 256 * 12;
#X obj 133 140 moses 1;
#X obj 172 179 - 1;
#X obj 133 243 * 18;
#X obj 133 315 outlet;
#X text 73 42 fader2db;
#X text 253 331 (c)2012 Marian Weger;
#X obj 133 100 inlet;
#X obj 172 234 pow 2;
#X connect 0 0 5 0;
#X connect 1 0 10 0;
#X connect 2 0 6 0;
#X connect 3 0 0 0;
#X connect 3 1 4 0;
#X connect 4 0 1 0;
#X connect 5 0 6 0;
#X connect 9 0 3 0;
#X connect 10 0 2 0;
