#N canvas 364 62 693 473 10;
#X obj 64 49 inlet~;
#X obj 64 305 outlet~;
#X text 475 295 (c)2012 Marian Weger;
#X obj 179 147 == 0;
#X obj 370 54 inlet;
#X obj 370 292 outlet;
#X obj 134 175 fx_gain~;
#X obj 179 121 r \$0-state;
#X obj 370 208 s \$0-state;
#X obj 399 188 s \$0-f;
#X obj 457 103 list prepend no method for;
#X obj 457 125 list trim;
#N canvas 82 294 381 223 init 0;
#X obj 144 51 loadbang;
#X obj 144 103 list prepend \$0 \$1 \$2 \$3;
#X msg 144 144 \; \$1-state \$2 \; \$1-f \$3 \; \$1-q \$4 \;;
#X connect 0 0 1 0;
#X connect 1 0 2 0;
#X restore 511 233 pd init;
#X obj 457 147 print fx_bp~;
#N canvas 179 216 601 422 bp 0;
#X obj 334 110 switch~;
#X obj 71 41 inlet~;
#X obj 71 357 outlet~;
#X obj 71 237 *~;
#X obj 307 133 pack 0 5;
#X obj 307 155 line~;
#X obj 307 40 r \$0-state;
#X obj 85 267 r \$0-f;
#X obj 334 86 1del0 15;
#X obj 307 64 t f f;
#X obj 71 325 bp~ 100 10;
#X obj 95 287 r \$0-q;
#X connect 1 0 3 0;
#X connect 3 0 10 0;
#X connect 4 0 5 0;
#X connect 5 0 3 1;
#X connect 6 0 9 0;
#X connect 7 0 10 1;
#X connect 8 0 0 0;
#X connect 9 0 4 0;
#X connect 9 1 8 0;
#X connect 10 0 2 0;
#X connect 11 0 10 2;
#X restore 64 175 pd bp;
#X text 40 12 fx_bp~ (<state> <f> <q>);
#X obj 370 76 route state f q;
#X obj 428 168 s \$0-q;
#X connect 0 0 14 0;
#X connect 0 0 6 0;
#X connect 3 0 6 1;
#X connect 4 0 16 0;
#X connect 6 0 1 0;
#X connect 7 0 3 0;
#X connect 10 0 11 0;
#X connect 11 0 13 0;
#X connect 14 0 1 0;
#X connect 16 0 8 0;
#X connect 16 1 9 0;
#X connect 16 2 17 0;
#X connect 16 3 10 0;
