#N canvas 0 51 1366 691 10;
#X obj 64 49 inlet~;
#X obj 64 305 outlet~;
#X obj 2611 147 == 0;
#X text 2790 294 AVAILABLE FILTER TYPES \; ====================== \;
lowpass \; highpass \; bandpass1 \; bandpass2 \; notch \; lowshelf
\; highshelf \; allpass \; peaking \;;
#X obj 2720 54 inlet;
#X obj 2716 305 outlet;
#X obj 2611 121 r \$0-state;
#X obj 2720 76 route state f q gain;
#X obj 2720 228 s \$0-state;
#X obj 2749 208 s \$0-f;
#X obj 2778 188 s \$0-q;
#X obj 2807 168 s \$0-gain;
#X obj 2837 103 list prepend no method for;
#X obj 2837 125 list trim;
#X obj 114 49 inlet~;
#X obj 114 305 outlet~;
#X obj 164 49 inlet~;
#X obj 164 305 outlet~;
#X obj 214 49 inlet~;
#X obj 214 305 outlet~;
#N canvas 82 294 381 223 init 0;
#X obj 144 71 loadbang;
#X obj 144 93 f \$2;
#X obj 144 115 s \$0-state;
#X connect 0 0 1 0;
#X connect 1 0 2 0;
#X restore 2786 243 pd init;
#X obj 264 49 inlet~;
#X obj 264 305 outlet~;
#X obj 314 305 outlet~;
#X obj 314 49 inlet~;
#X obj 364 49 inlet~;
#X obj 364 305 outlet~;
#X obj 414 305 outlet~;
#X obj 414 49 inlet~;
#X obj 2837 147 print fx_biquad_8~;
#X obj 464 49 inlet~;
#X obj 464 305 outlet~;
#X obj 514 49 inlet~;
#X obj 514 305 outlet~;
#X obj 564 49 inlet~;
#X obj 564 305 outlet~;
#X obj 614 49 inlet~;
#X obj 614 305 outlet~;
#X obj 664 49 inlet~;
#X obj 664 305 outlet~;
#X obj 714 305 outlet~;
#X obj 714 49 inlet~;
#X obj 764 49 inlet~;
#X obj 764 305 outlet~;
#X obj 814 305 outlet~;
#X obj 814 49 inlet~;
#X obj 864 49 inlet~;
#X obj 864 305 outlet~;
#X obj 914 49 inlet~;
#X obj 914 305 outlet~;
#X obj 964 49 inlet~;
#X obj 964 305 outlet~;
#X obj 1014 49 inlet~;
#X obj 1014 305 outlet~;
#X obj 1064 49 inlet~;
#X obj 1064 305 outlet~;
#X obj 1114 305 outlet~;
#X obj 1114 49 inlet~;
#X obj 1164 49 inlet~;
#X obj 1164 305 outlet~;
#X obj 1214 305 outlet~;
#X obj 1214 49 inlet~;
#N canvas 1 51 1351 687 biquad_48________________________________________________
0;
#X obj 2564 110 switch~;
#X obj 71 41 inlet~;
#X obj 71 567 outlet~;
#X obj 71 427 *~;
#X obj 2537 133 pack 0 5;
#X obj 2537 155 line~;
#X obj 71 535 biquad~;
#X obj 2537 40 r \$0-state;
#X obj 2549 426 r \$0-f;
#X obj 2640 426 r \$0-q;
#X obj 2732 426 r \$0-gain;
#X obj 2564 86 1del0 15;
#X obj 2537 64 t f f;
#X obj 121 41 inlet~;
#X obj 121 567 outlet~;
#X obj 121 427 *~;
#X obj 121 535 biquad~;
#X obj 171 41 inlet~;
#X obj 171 567 outlet~;
#X obj 171 427 *~;
#X obj 171 535 biquad~;
#X obj 221 41 inlet~;
#X obj 221 567 outlet~;
#X obj 221 427 *~;
#X obj 221 535 biquad~;
#X obj 2549 454 biquad_coefficients \$1 \$3 \$4 \$5;
#X obj 271 41 inlet~;
#X obj 271 567 outlet~;
#X obj 271 427 *~;
#X obj 271 535 biquad~;
#X obj 321 41 inlet~;
#X obj 321 567 outlet~;
#X obj 321 427 *~;
#X obj 321 535 biquad~;
#X obj 371 41 inlet~;
#X obj 371 567 outlet~;
#X obj 371 427 *~;
#X obj 371 535 biquad~;
#X obj 421 41 inlet~;
#X obj 421 567 outlet~;
#X obj 421 427 *~;
#X obj 421 535 biquad~;
#X obj 471 41 inlet~;
#X obj 471 567 outlet~;
#X obj 471 427 *~;
#X obj 471 535 biquad~;
#X obj 521 41 inlet~;
#X obj 521 567 outlet~;
#X obj 521 427 *~;
#X obj 521 535 biquad~;
#X obj 571 41 inlet~;
#X obj 571 567 outlet~;
#X obj 571 427 *~;
#X obj 571 535 biquad~;
#X obj 621 41 inlet~;
#X obj 621 567 outlet~;
#X obj 621 427 *~;
#X obj 621 535 biquad~;
#X obj 671 41 inlet~;
#X obj 671 567 outlet~;
#X obj 671 427 *~;
#X obj 671 535 biquad~;
#X obj 721 41 inlet~;
#X obj 721 567 outlet~;
#X obj 721 427 *~;
#X obj 721 535 biquad~;
#X obj 771 41 inlet~;
#X obj 771 567 outlet~;
#X obj 771 427 *~;
#X obj 771 535 biquad~;
#X obj 821 41 inlet~;
#X obj 821 567 outlet~;
#X obj 821 427 *~;
#X obj 821 535 biquad~;
#X obj 871 41 inlet~;
#X obj 871 567 outlet~;
#X obj 871 427 *~;
#X obj 871 535 biquad~;
#X obj 921 41 inlet~;
#X obj 921 567 outlet~;
#X obj 921 427 *~;
#X obj 921 535 biquad~;
#X obj 971 41 inlet~;
#X obj 971 567 outlet~;
#X obj 971 427 *~;
#X obj 971 535 biquad~;
#X obj 1021 41 inlet~;
#X obj 1021 567 outlet~;
#X obj 1021 427 *~;
#X obj 1021 535 biquad~;
#X obj 1071 41 inlet~;
#X obj 1071 567 outlet~;
#X obj 1071 427 *~;
#X obj 1071 535 biquad~;
#X obj 1121 41 inlet~;
#X obj 1121 567 outlet~;
#X obj 1121 427 *~;
#X obj 1121 535 biquad~;
#X obj 1171 41 inlet~;
#X obj 1171 567 outlet~;
#X obj 1171 427 *~;
#X obj 1171 535 biquad~;
#X obj 1221 41 inlet~;
#X obj 1221 567 outlet~;
#X obj 1221 427 *~;
#X obj 1221 535 biquad~;
#X obj 1281 41 inlet~;
#X obj 1281 567 outlet~;
#X obj 1281 427 *~;
#X obj 1281 535 biquad~;
#X obj 1331 41 inlet~;
#X obj 1331 567 outlet~;
#X obj 1331 427 *~;
#X obj 1331 535 biquad~;
#X obj 1381 41 inlet~;
#X obj 1381 567 outlet~;
#X obj 1381 427 *~;
#X obj 1381 535 biquad~;
#X obj 1431 41 inlet~;
#X obj 1431 567 outlet~;
#X obj 1431 427 *~;
#X obj 1431 535 biquad~;
#X obj 1481 41 inlet~;
#X obj 1481 567 outlet~;
#X obj 1481 427 *~;
#X obj 1481 535 biquad~;
#X obj 1531 41 inlet~;
#X obj 1531 567 outlet~;
#X obj 1531 427 *~;
#X obj 1531 535 biquad~;
#X obj 1581 41 inlet~;
#X obj 1581 567 outlet~;
#X obj 1581 427 *~;
#X obj 1581 535 biquad~;
#X obj 1631 41 inlet~;
#X obj 1631 567 outlet~;
#X obj 1631 427 *~;
#X obj 1631 535 biquad~;
#X obj 1681 41 inlet~;
#X obj 1681 567 outlet~;
#X obj 1681 427 *~;
#X obj 1681 535 biquad~;
#X obj 1731 41 inlet~;
#X obj 1731 567 outlet~;
#X obj 1731 427 *~;
#X obj 1731 535 biquad~;
#X obj 1781 41 inlet~;
#X obj 1781 567 outlet~;
#X obj 1781 427 *~;
#X obj 1781 535 biquad~;
#X obj 1831 41 inlet~;
#X obj 1831 567 outlet~;
#X obj 1831 427 *~;
#X obj 1831 535 biquad~;
#X obj 1881 41 inlet~;
#X obj 1881 567 outlet~;
#X obj 1881 427 *~;
#X obj 1881 535 biquad~;
#X obj 1931 41 inlet~;
#X obj 1931 567 outlet~;
#X obj 1931 427 *~;
#X obj 1931 535 biquad~;
#X obj 1981 41 inlet~;
#X obj 1981 567 outlet~;
#X obj 1981 427 *~;
#X obj 1981 535 biquad~;
#X obj 2031 41 inlet~;
#X obj 2031 567 outlet~;
#X obj 2031 427 *~;
#X obj 2031 535 biquad~;
#X obj 2081 41 inlet~;
#X obj 2081 567 outlet~;
#X obj 2081 427 *~;
#X obj 2081 535 biquad~;
#X obj 2131 41 inlet~;
#X obj 2131 567 outlet~;
#X obj 2131 427 *~;
#X obj 2131 535 biquad~;
#X obj 2181 41 inlet~;
#X obj 2181 567 outlet~;
#X obj 2181 427 *~;
#X obj 2181 535 biquad~;
#X obj 2231 41 inlet~;
#X obj 2231 567 outlet~;
#X obj 2231 427 *~;
#X obj 2231 535 biquad~;
#X obj 2281 41 inlet~;
#X obj 2281 567 outlet~;
#X obj 2281 427 *~;
#X obj 2281 535 biquad~;
#X obj 2331 41 inlet~;
#X obj 2331 567 outlet~;
#X obj 2331 427 *~;
#X obj 2331 535 biquad~;
#X obj 2381 41 inlet~;
#X obj 2381 567 outlet~;
#X obj 2381 427 *~;
#X obj 2381 535 biquad~;
#X obj 2431 41 inlet~;
#X obj 2431 567 outlet~;
#X obj 2431 427 *~;
#X obj 2431 535 biquad~;
#X connect 1 0 3 0;
#X connect 3 0 6 0;
#X connect 4 0 5 0;
#X connect 5 0 3 1;
#X connect 5 0 15 1;
#X connect 5 0 19 1;
#X connect 5 0 23 1;
#X connect 5 0 28 1;
#X connect 5 0 32 1;
#X connect 5 0 36 1;
#X connect 5 0 40 1;
#X connect 5 0 44 1;
#X connect 5 0 48 1;
#X connect 5 0 52 1;
#X connect 5 0 56 1;
#X connect 5 0 60 1;
#X connect 5 0 64 1;
#X connect 5 0 68 1;
#X connect 5 0 72 1;
#X connect 5 0 76 1;
#X connect 5 0 80 1;
#X connect 5 0 84 1;
#X connect 5 0 88 1;
#X connect 5 0 92 1;
#X connect 5 0 96 1;
#X connect 5 0 100 1;
#X connect 5 0 104 1;
#X connect 5 0 200 1;
#X connect 5 0 196 1;
#X connect 5 0 192 1;
#X connect 5 0 188 1;
#X connect 5 0 184 1;
#X connect 5 0 180 1;
#X connect 5 0 176 1;
#X connect 5 0 172 1;
#X connect 5 0 168 1;
#X connect 5 0 164 1;
#X connect 5 0 160 1;
#X connect 5 0 156 1;
#X connect 5 0 152 1;
#X connect 5 0 148 1;
#X connect 5 0 144 1;
#X connect 5 0 140 1;
#X connect 5 0 136 1;
#X connect 5 0 132 1;
#X connect 5 0 128 1;
#X connect 5 0 124 1;
#X connect 5 0 120 1;
#X connect 5 0 116 1;
#X connect 5 0 112 1;
#X connect 5 0 108 1;
#X connect 6 0 2 0;
#X connect 7 0 12 0;
#X connect 8 0 25 0;
#X connect 9 0 25 1;
#X connect 10 0 25 2;
#X connect 11 0 0 0;
#X connect 12 0 4 0;
#X connect 12 1 11 0;
#X connect 13 0 15 0;
#X connect 15 0 16 0;
#X connect 16 0 14 0;
#X connect 17 0 19 0;
#X connect 19 0 20 0;
#X connect 20 0 18 0;
#X connect 21 0 23 0;
#X connect 23 0 24 0;
#X connect 24 0 22 0;
#X connect 25 0 6 0;
#X connect 25 0 16 0;
#X connect 25 0 20 0;
#X connect 25 0 24 0;
#X connect 25 0 29 0;
#X connect 25 0 33 0;
#X connect 25 0 37 0;
#X connect 25 0 41 0;
#X connect 25 0 45 0;
#X connect 25 0 49 0;
#X connect 25 0 53 0;
#X connect 25 0 57 0;
#X connect 25 0 61 0;
#X connect 25 0 65 0;
#X connect 25 0 69 0;
#X connect 25 0 73 0;
#X connect 25 0 77 0;
#X connect 25 0 81 0;
#X connect 25 0 85 0;
#X connect 25 0 89 0;
#X connect 25 0 93 0;
#X connect 25 0 97 0;
#X connect 25 0 101 0;
#X connect 25 0 105 0;
#X connect 25 0 109 0;
#X connect 25 0 113 0;
#X connect 25 0 117 0;
#X connect 25 0 121 0;
#X connect 25 0 125 0;
#X connect 25 0 129 0;
#X connect 25 0 133 0;
#X connect 25 0 137 0;
#X connect 25 0 141 0;
#X connect 25 0 145 0;
#X connect 25 0 149 0;
#X connect 25 0 153 0;
#X connect 25 0 157 0;
#X connect 25 0 161 0;
#X connect 25 0 165 0;
#X connect 25 0 169 0;
#X connect 25 0 173 0;
#X connect 25 0 177 0;
#X connect 25 0 181 0;
#X connect 25 0 185 0;
#X connect 25 0 189 0;
#X connect 25 0 193 0;
#X connect 25 0 197 0;
#X connect 25 0 201 0;
#X connect 26 0 28 0;
#X connect 28 0 29 0;
#X connect 29 0 27 0;
#X connect 30 0 32 0;
#X connect 32 0 33 0;
#X connect 33 0 31 0;
#X connect 34 0 36 0;
#X connect 36 0 37 0;
#X connect 37 0 35 0;
#X connect 38 0 40 0;
#X connect 40 0 41 0;
#X connect 41 0 39 0;
#X connect 42 0 44 0;
#X connect 44 0 45 0;
#X connect 45 0 43 0;
#X connect 46 0 48 0;
#X connect 48 0 49 0;
#X connect 49 0 47 0;
#X connect 50 0 52 0;
#X connect 52 0 53 0;
#X connect 53 0 51 0;
#X connect 54 0 56 0;
#X connect 56 0 57 0;
#X connect 57 0 55 0;
#X connect 58 0 60 0;
#X connect 60 0 61 0;
#X connect 61 0 59 0;
#X connect 62 0 64 0;
#X connect 64 0 65 0;
#X connect 65 0 63 0;
#X connect 66 0 68 0;
#X connect 68 0 69 0;
#X connect 69 0 67 0;
#X connect 70 0 72 0;
#X connect 72 0 73 0;
#X connect 73 0 71 0;
#X connect 74 0 76 0;
#X connect 76 0 77 0;
#X connect 77 0 75 0;
#X connect 78 0 80 0;
#X connect 80 0 81 0;
#X connect 81 0 79 0;
#X connect 82 0 84 0;
#X connect 84 0 85 0;
#X connect 85 0 83 0;
#X connect 86 0 88 0;
#X connect 88 0 89 0;
#X connect 89 0 87 0;
#X connect 90 0 92 0;
#X connect 92 0 93 0;
#X connect 93 0 91 0;
#X connect 94 0 96 0;
#X connect 96 0 97 0;
#X connect 97 0 95 0;
#X connect 98 0 100 0;
#X connect 100 0 101 0;
#X connect 101 0 99 0;
#X connect 102 0 104 0;
#X connect 104 0 105 0;
#X connect 105 0 103 0;
#X connect 106 0 108 0;
#X connect 108 0 109 0;
#X connect 109 0 107 0;
#X connect 110 0 112 0;
#X connect 112 0 113 0;
#X connect 113 0 111 0;
#X connect 114 0 116 0;
#X connect 116 0 117 0;
#X connect 117 0 115 0;
#X connect 118 0 120 0;
#X connect 120 0 121 0;
#X connect 121 0 119 0;
#X connect 122 0 124 0;
#X connect 124 0 125 0;
#X connect 125 0 123 0;
#X connect 126 0 128 0;
#X connect 128 0 129 0;
#X connect 129 0 127 0;
#X connect 130 0 132 0;
#X connect 132 0 133 0;
#X connect 133 0 131 0;
#X connect 134 0 136 0;
#X connect 136 0 137 0;
#X connect 137 0 135 0;
#X connect 138 0 140 0;
#X connect 140 0 141 0;
#X connect 141 0 139 0;
#X connect 142 0 144 0;
#X connect 144 0 145 0;
#X connect 145 0 143 0;
#X connect 146 0 148 0;
#X connect 148 0 149 0;
#X connect 149 0 147 0;
#X connect 150 0 152 0;
#X connect 152 0 153 0;
#X connect 153 0 151 0;
#X connect 154 0 156 0;
#X connect 156 0 157 0;
#X connect 157 0 155 0;
#X connect 158 0 160 0;
#X connect 160 0 161 0;
#X connect 161 0 159 0;
#X connect 162 0 164 0;
#X connect 164 0 165 0;
#X connect 165 0 163 0;
#X connect 166 0 168 0;
#X connect 168 0 169 0;
#X connect 169 0 167 0;
#X connect 170 0 172 0;
#X connect 172 0 173 0;
#X connect 173 0 171 0;
#X connect 174 0 176 0;
#X connect 176 0 177 0;
#X connect 177 0 175 0;
#X connect 178 0 180 0;
#X connect 180 0 181 0;
#X connect 181 0 179 0;
#X connect 182 0 184 0;
#X connect 184 0 185 0;
#X connect 185 0 183 0;
#X connect 186 0 188 0;
#X connect 188 0 189 0;
#X connect 189 0 187 0;
#X connect 190 0 192 0;
#X connect 192 0 193 0;
#X connect 193 0 191 0;
#X connect 194 0 196 0;
#X connect 196 0 197 0;
#X connect 197 0 195 0;
#X connect 198 0 200 0;
#X connect 200 0 201 0;
#X connect 201 0 199 0;
#X restore 643 194 pd biquad_48________________________________________________
, f 76;
#X text 40 12 fx_biquad_48~ <type> (<state> <f> <q> <gain>);
#X text 108 385 (c)2015 Marian Weger;
#X obj 1600 191 fx_gain_48~ 0 0 0 0 0 0 0 0 0 0 0 0 0 0 0 0 0, f 78
;
#X obj 1264 49 inlet~;
#X obj 1264 305 outlet~;
#X obj 1314 49 inlet~;
#X obj 1314 305 outlet~;
#X obj 1364 49 inlet~;
#X obj 1364 305 outlet~;
#X obj 1414 49 inlet~;
#X obj 1414 305 outlet~;
#X obj 1464 49 inlet~;
#X obj 1464 305 outlet~;
#X obj 1514 305 outlet~;
#X obj 1514 49 inlet~;
#X obj 1564 49 inlet~;
#X obj 1564 305 outlet~;
#X obj 1614 305 outlet~;
#X obj 1614 49 inlet~;
#X obj 1664 49 inlet~;
#X obj 1664 305 outlet~;
#X obj 1714 49 inlet~;
#X obj 1714 305 outlet~;
#X obj 1764 49 inlet~;
#X obj 1764 305 outlet~;
#X obj 1814 49 inlet~;
#X obj 1814 305 outlet~;
#X obj 1864 49 inlet~;
#X obj 1864 305 outlet~;
#X obj 1914 305 outlet~;
#X obj 1914 49 inlet~;
#X obj 1964 49 inlet~;
#X obj 1964 305 outlet~;
#X obj 2014 305 outlet~;
#X obj 2014 49 inlet~;
#X obj 2064 49 inlet~;
#X obj 2064 305 outlet~;
#X obj 2114 49 inlet~;
#X obj 2114 305 outlet~;
#X obj 2164 49 inlet~;
#X obj 2164 305 outlet~;
#X obj 2214 49 inlet~;
#X obj 2214 305 outlet~;
#X obj 2264 49 inlet~;
#X obj 2264 305 outlet~;
#X obj 2314 305 outlet~;
#X obj 2314 49 inlet~;
#X obj 2364 49 inlet~;
#X obj 2364 305 outlet~;
#X obj 2414 305 outlet~;
#X obj 2414 49 inlet~;
#X connect 0 0 62 0;
#X connect 0 0 65 0;
#X connect 2 0 65 48;
#X connect 4 0 7 0;
#X connect 6 0 2 0;
#X connect 7 0 8 0;
#X connect 7 1 9 0;
#X connect 7 2 10 0;
#X connect 7 3 11 0;
#X connect 7 4 12 0;
#X connect 12 0 13 0;
#X connect 13 0 29 0;
#X connect 14 0 62 1;
#X connect 14 0 65 1;
#X connect 16 0 62 2;
#X connect 16 0 65 2;
#X connect 18 0 62 3;
#X connect 18 0 65 3;
#X connect 21 0 62 4;
#X connect 21 0 65 4;
#X connect 24 0 62 5;
#X connect 24 0 65 5;
#X connect 25 0 62 6;
#X connect 25 0 65 6;
#X connect 28 0 62 7;
#X connect 28 0 65 7;
#X connect 30 0 62 8;
#X connect 30 0 65 8;
#X connect 32 0 62 9;
#X connect 32 0 65 9;
#X connect 34 0 62 10;
#X connect 34 0 65 10;
#X connect 36 0 62 11;
#X connect 36 0 65 11;
#X connect 38 0 62 12;
#X connect 38 0 65 12;
#X connect 41 0 62 13;
#X connect 41 0 65 13;
#X connect 42 0 62 14;
#X connect 42 0 65 14;
#X connect 45 0 62 15;
#X connect 45 0 65 15;
#X connect 46 0 62 16;
#X connect 46 0 65 16;
#X connect 48 0 62 17;
#X connect 48 0 65 17;
#X connect 50 0 62 18;
#X connect 50 0 65 18;
#X connect 52 0 62 19;
#X connect 52 0 65 19;
#X connect 54 0 62 20;
#X connect 54 0 65 20;
#X connect 57 0 62 21;
#X connect 57 0 65 21;
#X connect 58 0 62 22;
#X connect 58 0 65 22;
#X connect 61 0 62 23;
#X connect 61 0 65 23;
#X connect 62 0 1 0;
#X connect 62 1 15 0;
#X connect 62 2 17 0;
#X connect 62 3 19 0;
#X connect 62 4 22 0;
#X connect 62 5 23 0;
#X connect 62 6 26 0;
#X connect 62 7 27 0;
#X connect 62 8 31 0;
#X connect 62 9 33 0;
#X connect 62 10 35 0;
#X connect 62 11 37 0;
#X connect 62 12 39 0;
#X connect 62 13 40 0;
#X connect 62 14 43 0;
#X connect 62 15 44 0;
#X connect 62 16 47 0;
#X connect 62 17 49 0;
#X connect 62 18 51 0;
#X connect 62 19 53 0;
#X connect 62 20 55 0;
#X connect 62 21 56 0;
#X connect 62 22 59 0;
#X connect 62 23 60 0;
#X connect 62 24 67 0;
#X connect 62 25 69 0;
#X connect 62 26 71 0;
#X connect 62 27 73 0;
#X connect 62 28 75 0;
#X connect 62 29 76 0;
#X connect 62 30 79 0;
#X connect 62 31 80 0;
#X connect 62 32 83 0;
#X connect 62 33 85 0;
#X connect 62 34 87 0;
#X connect 62 35 89 0;
#X connect 62 36 91 0;
#X connect 62 37 92 0;
#X connect 62 38 95 0;
#X connect 62 39 96 0;
#X connect 62 40 99 0;
#X connect 62 41 101 0;
#X connect 62 42 103 0;
#X connect 62 43 105 0;
#X connect 62 44 107 0;
#X connect 62 45 108 0;
#X connect 62 46 111 0;
#X connect 62 47 112 0;
#X connect 65 0 1 0;
#X connect 65 1 15 0;
#X connect 65 2 17 0;
#X connect 65 3 19 0;
#X connect 65 4 22 0;
#X connect 65 5 23 0;
#X connect 65 6 26 0;
#X connect 65 7 27 0;
#X connect 65 8 31 0;
#X connect 65 9 33 0;
#X connect 65 10 35 0;
#X connect 65 11 37 0;
#X connect 65 12 39 0;
#X connect 65 13 40 0;
#X connect 65 14 43 0;
#X connect 65 15 44 0;
#X connect 65 16 47 0;
#X connect 65 17 49 0;
#X connect 65 18 51 0;
#X connect 65 19 53 0;
#X connect 65 20 55 0;
#X connect 65 21 56 0;
#X connect 65 22 59 0;
#X connect 65 23 60 0;
#X connect 65 24 67 0;
#X connect 65 25 69 0;
#X connect 65 26 71 0;
#X connect 65 27 73 0;
#X connect 65 28 75 0;
#X connect 65 29 76 0;
#X connect 65 30 79 0;
#X connect 65 31 80 0;
#X connect 65 32 83 0;
#X connect 65 33 85 0;
#X connect 65 34 87 0;
#X connect 65 35 89 0;
#X connect 65 36 91 0;
#X connect 65 37 92 0;
#X connect 65 38 95 0;
#X connect 65 39 96 0;
#X connect 65 40 99 0;
#X connect 65 41 101 0;
#X connect 65 42 103 0;
#X connect 65 43 105 0;
#X connect 65 44 107 0;
#X connect 65 45 108 0;
#X connect 65 46 111 0;
#X connect 65 47 112 0;
#X connect 66 0 62 24;
#X connect 66 0 65 24;
#X connect 68 0 62 25;
#X connect 68 0 65 25;
#X connect 70 0 62 26;
#X connect 70 0 65 26;
#X connect 72 0 62 27;
#X connect 72 0 65 27;
#X connect 74 0 62 28;
#X connect 74 0 65 28;
#X connect 77 0 62 29;
#X connect 77 0 65 29;
#X connect 78 0 62 30;
#X connect 78 0 65 30;
#X connect 81 0 62 31;
#X connect 81 0 65 31;
#X connect 82 0 62 32;
#X connect 82 0 65 32;
#X connect 84 0 62 33;
#X connect 84 0 65 33;
#X connect 86 0 62 34;
#X connect 86 0 65 34;
#X connect 88 0 62 35;
#X connect 88 0 65 35;
#X connect 90 0 62 36;
#X connect 90 0 65 36;
#X connect 93 0 62 37;
#X connect 93 0 65 37;
#X connect 94 0 62 38;
#X connect 94 0 65 38;
#X connect 97 0 62 39;
#X connect 97 0 65 39;
#X connect 98 0 62 40;
#X connect 98 0 65 40;
#X connect 100 0 62 41;
#X connect 100 0 65 41;
#X connect 102 0 62 42;
#X connect 102 0 65 42;
#X connect 104 0 62 43;
#X connect 104 0 65 43;
#X connect 106 0 62 44;
#X connect 106 0 65 44;
#X connect 109 0 62 45;
#X connect 109 0 65 45;
#X connect 110 0 62 46;
#X connect 110 0 65 46;
#X connect 113 0 62 47;
#X connect 113 0 65 47;
