#N canvas 364 62 693 473 10;
#X obj 64 49 inlet~;
#X obj 64 315 outlet~;
#X text 505 305 (c)2012 Marian Weger;
#X obj 329 147 == 0;
#X obj 400 302 outlet;
#X obj 329 121 r \$0-state;
#X obj 114 49 inlet~;
#X obj 114 315 outlet~;
#X obj 164 49 inlet~;
#X obj 164 315 outlet~;
#X obj 214 49 inlet~;
#X obj 214 315 outlet~;
#X obj 204 225 fx_gain_5~ 0 0 0 0 0 0;
#X obj 264 49 inlet~;
#X obj 264 315 outlet~;
#N canvas 179 216 601 422 bp_5____________ 0;
#X obj 464 110 switch~;
#X obj 71 41 inlet~;
#X obj 71 357 outlet~;
#X obj 71 237 *~;
#X obj 437 133 pack 0 5;
#X obj 437 155 line~;
#X obj 437 40 r \$0-state;
#X obj 437 237 r \$0-f;
#X obj 464 86 1del0 15;
#X obj 437 64 t f f;
#X obj 121 41 inlet~;
#X obj 121 357 outlet~;
#X obj 121 237 *~;
#X obj 171 41 inlet~;
#X obj 171 357 outlet~;
#X obj 171 237 *~;
#X obj 221 41 inlet~;
#X obj 221 357 outlet~;
#X obj 221 237 *~;
#X obj 271 41 inlet~;
#X obj 271 357 outlet~;
#X obj 271 237 *~;
#X obj 171 325 bp~ 0 0;
#X obj 221 325 bp~ 0 0;
#X obj 271 325 bp~ 0 0;
#X obj 121 325 bp~ 0 0;
#X obj 71 325 bp~ 0 0;
#X obj 448 259 r \$0-q;
#X connect 1 0 3 0;
#X connect 3 0 26 0;
#X connect 4 0 5 0;
#X connect 5 0 3 1;
#X connect 5 0 12 1;
#X connect 5 0 15 1;
#X connect 5 0 18 1;
#X connect 5 0 21 1;
#X connect 6 0 9 0;
#X connect 7 0 22 1;
#X connect 7 0 23 1;
#X connect 7 0 24 1;
#X connect 7 0 25 1;
#X connect 7 0 26 1;
#X connect 8 0 0 0;
#X connect 9 0 4 0;
#X connect 9 1 8 0;
#X connect 10 0 12 0;
#X connect 12 0 25 0;
#X connect 13 0 15 0;
#X connect 15 0 22 0;
#X connect 16 0 18 0;
#X connect 18 0 23 0;
#X connect 19 0 21 0;
#X connect 21 0 24 0;
#X connect 22 0 14 0;
#X connect 23 0 17 0;
#X connect 24 0 20 0;
#X connect 25 0 11 0;
#X connect 26 0 2 0;
#X connect 27 0 24 2;
#X connect 27 0 23 2;
#X connect 27 0 22 2;
#X connect 27 0 25 2;
#X connect 27 0 26 2;
#X restore 64 225 pd bp_5____________;
#X obj 416 59 inlet;
#X obj 416 213 s \$0-state;
#X obj 445 193 s \$0-f;
#X obj 503 108 list prepend no method for;
#X obj 503 130 list trim;
#N canvas 82 294 381 223 init 0;
#X obj 144 51 loadbang;
#X obj 144 103 list prepend \$0 \$1 \$2 \$3;
#X msg 144 144 \; \$1-state \$2 \; \$1-f \$3 \; \$1-q \$4 \;;
#X connect 0 0 1 0;
#X connect 1 0 2 0;
#X restore 557 238 pd init;
#X obj 416 81 route state f q;
#X obj 474 173 s \$0-q;
#X text 40 12 fx_bp_5~ (<state> <f> <q>);
#X obj 503 152 print fx_bp_5~;
#X connect 0 0 15 0;
#X connect 0 0 12 0;
#X connect 3 0 12 5;
#X connect 5 0 3 0;
#X connect 6 0 15 1;
#X connect 6 0 12 1;
#X connect 8 0 15 2;
#X connect 8 0 12 2;
#X connect 10 0 15 3;
#X connect 10 0 12 3;
#X connect 12 0 1 0;
#X connect 12 1 7 0;
#X connect 12 2 9 0;
#X connect 12 3 11 0;
#X connect 12 4 14 0;
#X connect 13 0 12 4;
#X connect 13 0 15 4;
#X connect 15 0 1 0;
#X connect 15 1 7 0;
#X connect 15 2 9 0;
#X connect 15 3 11 0;
#X connect 15 4 14 0;
#X connect 16 0 22 0;
#X connect 19 0 20 0;
#X connect 20 0 25 0;
#X connect 22 0 17 0;
#X connect 22 1 18 0;
#X connect 22 2 23 0;
#X connect 22 3 19 0;
