#N canvas 450 158 690 451 10;
#X text 151 378 (c)2012 Marian Weger;
#X obj 400 75 inlet statelist;
#X obj 400 222 outlet statelist;
#N canvas 587 263 485 363 init 0;
#X obj 32 29 loadbang;
#X obj 32 51 t b b;
#X obj 181 140 outlet;
#X obj 32 181 list prepend \$1 \$2 \$3 \$4 \$5 \$6 \$7;
#X msg 32 203 \; /fx/biquad/\$1/state \$4 \; /fx/biquad/\$1/f \$5 \;
/fx/biquad/\$1/q \$6 \; /fx/biquad/\$1/gain \$7 \;;
#X connect 0 0 1 0;
#X connect 1 0 3 0;
#X connect 1 1 2 0;
#X connect 3 0 4 0;
#X restore 503 75 pd init;
#N canvas 553 432 309 153 ds 0;
#X obj 61 49 ds_reg \$2 /fx/biquad/\$1/state nomorph;
#X obj 61 69 ds_reg \$2 /fx/biquad/\$1/f;
#X obj 61 89 ds_reg \$2 /fx/biquad/\$1/q;
#X obj 61 109 ds_reg \$2 /fx/biquad/\$1/gain;
#X restore 305 171 pd ds;
#X msg 503 97 1;
#X text 373 268 AVAILABLE FILTER TYPES \; ====================== \;
lowpass \; highpass \; bandpass1 \; bandpass2 \; notch \; lowshelf
\; highshelf \; allpass \; peaking \;;
#N canvas 553 432 309 153 osc 0;
#X obj 61 49 osc_bi \$2 /fx/biquad/\$1/state;
#X obj 61 69 osc_bi \$2 /fx/biquad/\$1/f;
#X obj 61 89 osc_bi \$2 /fx/biquad/\$1/q;
#X obj 61 109 osc_bi \$2 /fx/biquad/\$1/gain;
#X restore 305 191 pd osc;
#X text 40 12 fx_biquad_ctl <name> <domain> <type> (<state> <f> <q>
<gain>);
#X obj 64 335 outlet;
#X obj 64 58 r /fx/biquad/\$1/state;
#X obj 64 80 list prepend state;
#X obj 64 312 list trim;
#X obj 74 108 r /fx/biquad/\$1/f;
#X obj 74 130 list prepend f;
#X obj 84 158 r /fx/biquad/\$1/q;
#X obj 84 180 list prepend q;
#X obj 94 208 r /fx/biquad/\$1/gain;
#X obj 94 230 list prepend gain;
#X connect 1 0 2 0;
#X connect 3 0 5 0;
#X connect 5 0 2 0;
#X connect 10 0 11 0;
#X connect 11 0 12 0;
#X connect 12 0 9 0;
#X connect 13 0 14 0;
#X connect 15 0 16 0;
#X connect 16 0 12 0;
#X connect 17 0 18 0;
#X connect 18 0 12 0;
