#N canvas 381 22 467 418 10;
#X text 278 352 (c)2012 Marian Weger;
#X obj 38 351 outlet~ left;
#X obj 159 351 outlet~ right;
#X obj 215 47 inlet;
#X obj 159 310 fx_gain~;
#X obj 38 310 fx_gain~;
#X obj 338 47 loadbang;
#X obj 314 258 sin;
#X obj 365 162 atan;
#X msg 365 140 1;
#X obj 215 132 moses 0.5;
#X obj 196 174 - 0.5;
#X msg 163 174 1;
#X msg 284 174 1;
#X obj 196 260 cos;
#X obj 365 184 * 4;
#X obj 196 238 * 3.14159;
#X obj 314 236 * 3.14159;
#X obj 338 69 t b b;
#X obj 318 98 f \$1;
#X obj 342 324 outlet;
#X obj 38 42 inlet~ left;
#X obj 118 42 inlet~ right;
#X text 40 12 fx_bal_2~ <init value>;
#X connect 3 0 10 0;
#X connect 4 0 2 0;
#X connect 5 0 1 0;
#X connect 6 0 18 0;
#X connect 7 0 4 1;
#X connect 8 0 15 0;
#X connect 9 0 8 0;
#X connect 10 0 12 0;
#X connect 10 0 17 0;
#X connect 10 1 11 0;
#X connect 10 1 13 0;
#X connect 11 0 16 0;
#X connect 12 0 5 1;
#X connect 13 0 4 1;
#X connect 14 0 5 1;
#X connect 15 0 16 1;
#X connect 15 0 17 1;
#X connect 16 0 14 0;
#X connect 17 0 7 0;
#X connect 18 0 19 0;
#X connect 18 1 9 0;
#X connect 19 0 10 0;
#X connect 21 0 5 0;
#X connect 22 0 4 0;
