#N canvas 364 62 764 504 10;
#X obj 64 49 inlet~;
#X obj 64 315 outlet~;
#X text 605 305 (c)2012 Marian Weger;
#X obj 429 147 == 0;
#X obj 500 302 outlet;
#X obj 429 121 r \$0-state;
#X obj 114 49 inlet~;
#X obj 114 315 outlet~;
#X obj 164 49 inlet~;
#X obj 164 315 outlet~;
#X obj 214 49 inlet~;
#X obj 214 315 outlet~;
#X obj 264 49 inlet~;
#X obj 264 315 outlet~;
#X obj 314 49 inlet~;
#X obj 314 315 outlet~;
#X obj 204 225 fx_gain_8~ 0 0 0 0 0 0;
#N canvas 179 216 601 422 bp_8____________ 0;
#X obj 504 110 switch~;
#X obj 71 41 inlet~;
#X obj 71 357 outlet~;
#X obj 71 237 *~;
#X obj 477 133 pack 0 5;
#X obj 477 155 line~;
#X obj 477 40 r \$0-state;
#X obj 477 237 r \$0-f;
#X obj 504 86 1del0 15;
#X obj 477 64 t f f;
#X obj 121 41 inlet~;
#X obj 121 357 outlet~;
#X obj 121 237 *~;
#X obj 171 41 inlet~;
#X obj 171 357 outlet~;
#X obj 171 237 *~;
#X obj 221 41 inlet~;
#X obj 221 357 outlet~;
#X obj 221 237 *~;
#X obj 271 41 inlet~;
#X obj 271 357 outlet~;
#X obj 271 237 *~;
#X obj 321 41 inlet~;
#X obj 321 357 outlet~;
#X obj 321 237 *~;
#X obj 371 41 inlet~;
#X obj 371 357 outlet~;
#X obj 371 237 *~;
#X obj 421 41 inlet~;
#X obj 421 357 outlet~;
#X obj 421 237 *~;
#X obj 71 325 bp~ 0 0;
#X obj 121 325 bp~ 0 0;
#X obj 171 325 bp~ 0 0;
#X obj 221 325 bp~ 0 0;
#X obj 271 325 bp~ 0 0;
#X obj 321 325 bp~ 0 0;
#X obj 371 325 bp~ 0 0;
#X obj 421 325 bp~ 0 0;
#X obj 487 257 r \$0-q;
#X connect 1 0 3 0;
#X connect 3 0 31 0;
#X connect 4 0 5 0;
#X connect 5 0 3 1;
#X connect 5 0 12 1;
#X connect 5 0 15 1;
#X connect 5 0 18 1;
#X connect 5 0 21 1;
#X connect 5 0 24 1;
#X connect 5 0 27 1;
#X connect 5 0 30 1;
#X connect 6 0 9 0;
#X connect 7 0 31 1;
#X connect 7 0 32 1;
#X connect 7 0 33 1;
#X connect 7 0 34 1;
#X connect 7 0 35 1;
#X connect 7 0 36 1;
#X connect 7 0 37 1;
#X connect 7 0 38 1;
#X connect 8 0 0 0;
#X connect 9 0 4 0;
#X connect 9 1 8 0;
#X connect 10 0 12 0;
#X connect 12 0 32 0;
#X connect 13 0 15 0;
#X connect 15 0 33 0;
#X connect 16 0 18 0;
#X connect 18 0 34 0;
#X connect 19 0 21 0;
#X connect 21 0 35 0;
#X connect 22 0 24 0;
#X connect 24 0 36 0;
#X connect 25 0 27 0;
#X connect 27 0 37 0;
#X connect 28 0 30 0;
#X connect 30 0 38 0;
#X connect 31 0 2 0;
#X connect 32 0 11 0;
#X connect 33 0 14 0;
#X connect 34 0 17 0;
#X connect 35 0 20 0;
#X connect 36 0 23 0;
#X connect 37 0 26 0;
#X connect 38 0 29 0;
#X connect 39 0 38 2;
#X connect 39 0 37 2;
#X connect 39 0 36 2;
#X connect 39 0 35 2;
#X connect 39 0 34 2;
#X connect 39 0 33 2;
#X connect 39 0 32 2;
#X connect 39 0 31 2;
#X restore 64 225 pd bp_8____________;
#X obj 364 49 inlet~;
#X obj 364 315 outlet~;
#X obj 414 49 inlet~;
#X obj 414 315 outlet~;
#X obj 502 68 inlet;
#X obj 502 222 s \$0-state;
#X obj 531 202 s \$0-f;
#X obj 589 117 list prepend no method for;
#X obj 589 139 list trim;
#N canvas 82 294 381 223 init 0;
#X obj 144 51 loadbang;
#X obj 144 103 list prepend \$0 \$1 \$2 \$3;
#X msg 144 144 \; \$1-state \$2 \; \$1-f \$3 \; \$1-q \$4 \;;
#X connect 0 0 1 0;
#X connect 1 0 2 0;
#X restore 643 247 pd init;
#X obj 502 90 route state f q;
#X obj 560 182 s \$0-q;
#X obj 589 161 print fx_bp_8~;
#X text 40 12 fx_bp_8~ (<state> <f> <q>);
#X connect 0 0 17 0;
#X connect 0 0 16 0;
#X connect 3 0 16 8;
#X connect 5 0 3 0;
#X connect 6 0 17 1;
#X connect 6 0 16 1;
#X connect 8 0 17 2;
#X connect 8 0 16 2;
#X connect 10 0 17 3;
#X connect 10 0 16 3;
#X connect 12 0 17 4;
#X connect 12 0 16 4;
#X connect 14 0 17 5;
#X connect 14 0 16 5;
#X connect 16 0 1 0;
#X connect 16 1 7 0;
#X connect 16 2 9 0;
#X connect 16 3 11 0;
#X connect 16 4 13 0;
#X connect 16 5 15 0;
#X connect 16 6 19 0;
#X connect 16 7 21 0;
#X connect 17 0 1 0;
#X connect 17 1 7 0;
#X connect 17 2 9 0;
#X connect 17 3 11 0;
#X connect 17 4 13 0;
#X connect 17 5 15 0;
#X connect 17 6 19 0;
#X connect 17 7 21 0;
#X connect 18 0 17 6;
#X connect 18 0 16 6;
#X connect 20 0 17 7;
#X connect 20 0 16 7;
#X connect 22 0 28 0;
#X connect 25 0 26 0;
#X connect 26 0 30 0;
#X connect 28 0 23 0;
#X connect 28 1 24 0;
#X connect 28 2 29 0;
#X connect 28 3 25 0;
