#N canvas 364 62 693 473 10;
#X obj 64 49 inlet~;
#X obj 64 315 outlet~;
#X text 505 305 (c)2012 Marian Weger;
#X obj 329 147 == 0;
#X obj 400 302 outlet;
#X obj 329 121 r \$0-state;
#X obj 114 49 inlet~;
#X obj 114 315 outlet~;
#N canvas 179 216 601 422 bp_3____________ 0;
#X obj 334 110 switch~;
#X obj 71 41 inlet~;
#X obj 71 357 outlet~;
#X obj 71 237 *~;
#X obj 307 133 pack 0 5;
#X obj 307 155 line~;
#X obj 307 40 r \$0-state;
#X obj 307 237 r \$0-f;
#X obj 334 86 1del0 15;
#X obj 307 64 t f f;
#X obj 121 41 inlet~;
#X obj 121 357 outlet~;
#X obj 121 237 *~;
#X obj 171 41 inlet~;
#X obj 171 357 outlet~;
#X obj 171 237 *~;
#X obj 71 325 bp~;
#X obj 121 325 bp~;
#X obj 171 325 bp~;
#X connect 1 0 3 0;
#X connect 3 0 16 0;
#X connect 4 0 5 0;
#X connect 5 0 3 1;
#X connect 5 0 12 1;
#X connect 5 0 15 1;
#X connect 6 0 9 0;
#X connect 7 0 16 1;
#X connect 7 0 17 1;
#X connect 7 0 18 1;
#X connect 8 0 0 0;
#X connect 9 0 4 0;
#X connect 9 1 8 0;
#X connect 10 0 12 0;
#X connect 12 0 17 0;
#X connect 13 0 15 0;
#X connect 15 0 18 0;
#X connect 16 0 2 0;
#X connect 17 0 11 0;
#X connect 18 0 14 0;
#X restore 64 225 pd bp_3____________;
#X obj 164 49 inlet~;
#X obj 164 315 outlet~;
#X obj 204 225 fx_gain_3~ 0 0 0 0 0 0;
#X text 40 12 fx_bp_3~ (<state> <f> <q>);
#X obj 416 59 inlet;
#X obj 416 213 s \$0-state;
#X obj 445 193 s \$0-f;
#X obj 503 108 list prepend no method for;
#X obj 503 130 list trim;
#N canvas 82 294 381 223 init 0;
#X obj 144 51 loadbang;
#X obj 144 103 list prepend \$0 \$1 \$2 \$3;
#X msg 144 144 \; \$1-state \$2 \; \$1-f \$3 \; \$1-q \$4 \;;
#X connect 0 0 1 0;
#X connect 1 0 2 0;
#X restore 557 238 pd init;
#X obj 416 81 route state f q;
#X obj 474 173 s \$0-q;
#X obj 503 152 print fx_bp_3~;
#X connect 0 0 8 0;
#X connect 0 0 11 0;
#X connect 3 0 11 3;
#X connect 5 0 3 0;
#X connect 6 0 8 1;
#X connect 6 0 11 1;
#X connect 8 0 1 0;
#X connect 8 1 7 0;
#X connect 8 2 10 0;
#X connect 9 0 11 2;
#X connect 9 0 8 2;
#X connect 11 0 1 0;
#X connect 11 1 7 0;
#X connect 11 2 10 0;
#X connect 13 0 19 0;
#X connect 16 0 17 0;
#X connect 17 0 21 0;
#X connect 19 0 14 0;
#X connect 19 1 15 0;
#X connect 19 2 20 0;
#X connect 19 3 16 0;
