#N canvas 642 192 391 448 10;
#X obj 180 396 outlet statelist;
#X obj 57 398 outlet ctl;
#X obj 180 87 inlet statelist;
#X msg 244 160 1;
#X obj 244 134 loadbang;
#X text 23 23 fx_dry_ctl;
#X text 227 349 (c)2012 Marian Weger;
#X connect 2 0 0 0;
#X connect 3 0 0 0;
#X connect 4 0 3 0;
