#N canvas 377 216 628 426 10;
#X obj 64 49 inlet~;
#X obj 64 334 outlet~;
#X text 96 392 (c)2012 Marian Weger;
#X obj 580 64 inlet;
#X obj 481 64 loadbang;
#X obj 481 86 f \$2;
#X obj 481 166 <= 0;
#X obj 559 271 outlet;
#X obj 114 49 inlet~;
#X obj 114 334 outlet~;
#X obj 164 49 inlet~;
#X obj 164 334 outlet~;
#X obj 214 49 inlet~;
#X obj 214 334 outlet~;
#X obj 264 49 inlet~;
#X obj 264 334 outlet~;
#X obj 314 49 inlet~;
#X obj 314 334 outlet~;
#X text 40 12 fx_delay_8~ <max delay time> (<delay time>);
#N canvas 29 57 1235 628 delay_8________ 0;
#X obj 71 540 outlet~;
#X obj 71 312 *~;
#X obj 1004 184 pack 0 5;
#X obj 1004 206 line~;
#X obj 71 72 inlet~;
#X obj 1062 218 switch~;
#X obj 1062 168 change;
#X obj 1062 192 1del0 15;
#X obj 1062 146 > 0;
#X obj 1074 71 inlet;
#X obj 201 540 outlet~;
#X obj 201 312 *~;
#X obj 201 72 inlet~;
#X obj 71 341 delwrite~ \$0-dl1 \$1;
#X obj 201 341 delwrite~ \$0-dl2 \$1;
#X obj 1112 543 outlet;
#X obj 331 540 outlet~;
#X obj 331 312 *~;
#X obj 331 72 inlet~;
#X obj 331 341 delwrite~ \$0-dl3 \$1;
#X obj 461 540 outlet~;
#X obj 461 312 *~;
#X obj 461 72 inlet~;
#X obj 461 341 delwrite~ \$0-dl4 \$1;
#X obj 591 540 outlet~;
#X obj 591 312 *~;
#X obj 591 72 inlet~;
#X obj 591 341 delwrite~ \$0-dl5 \$1;
#X obj 1170 367 loadbang;
#X obj 1170 389 f \$1;
#X obj 721 540 outlet~;
#X obj 721 312 *~;
#X obj 721 72 inlet~;
#X obj 721 341 delwrite~ \$0-dl6 \$1;
#X obj 851 540 outlet~;
#X obj 851 312 *~;
#X obj 851 72 inlet~;
#X obj 981 540 outlet~;
#X obj 981 312 *~;
#X obj 981 72 inlet~;
#X obj 851 341 delwrite~ \$0-dl7 \$1;
#X obj 981 341 delwrite~ \$0-dl8 \$1;
#X obj 71 506 delread~ \$0-dl1 0;
#X obj 201 506 delread~ \$0-dl2 0;
#X obj 331 506 delread~ \$0-dl3 0;
#X obj 461 506 delread~ \$0-dl4 0;
#X obj 591 506 delread~ \$0-dl5 0;
#X obj 721 506 delread~ \$0-dl6 0;
#X obj 851 506 delread~ \$0-dl7 0;
#X obj 981 506 delread~ \$0-dl8 0;
#X obj 1113 426 clip 0 999;
#X obj 1074 104 t f f;
#X connect 1 0 13 0;
#X connect 2 0 3 0;
#X connect 3 0 1 1;
#X connect 3 0 11 1;
#X connect 3 0 17 1;
#X connect 3 0 21 1;
#X connect 3 0 25 1;
#X connect 3 0 31 1;
#X connect 3 0 35 1;
#X connect 3 0 38 1;
#X connect 4 0 1 0;
#X connect 6 0 7 0;
#X connect 7 0 5 0;
#X connect 8 0 6 0;
#X connect 8 0 2 0;
#X connect 9 0 51 0;
#X connect 11 0 14 0;
#X connect 12 0 11 0;
#X connect 17 0 19 0;
#X connect 18 0 17 0;
#X connect 21 0 23 0;
#X connect 22 0 21 0;
#X connect 25 0 27 0;
#X connect 26 0 25 0;
#X connect 28 0 29 0;
#X connect 29 0 50 2;
#X connect 31 0 33 0;
#X connect 32 0 31 0;
#X connect 35 0 40 0;
#X connect 36 0 35 0;
#X connect 38 0 41 0;
#X connect 39 0 38 0;
#X connect 42 0 0 0;
#X connect 43 0 10 0;
#X connect 44 0 16 0;
#X connect 45 0 20 0;
#X connect 46 0 24 0;
#X connect 47 0 30 0;
#X connect 48 0 34 0;
#X connect 49 0 37 0;
#X connect 50 0 42 0;
#X connect 50 0 43 0;
#X connect 50 0 44 0;
#X connect 50 0 45 0;
#X connect 50 0 46 0;
#X connect 50 0 47 0;
#X connect 50 0 48 0;
#X connect 50 0 49 0;
#X connect 51 0 8 0;
#X connect 51 1 50 0;
#X restore 64 224 pd delay_8________;
#X obj 216 224 fx_gain_8~ 0 0 0 0 0~;
#X obj 364 49 inlet~;
#X obj 364 334 outlet~;
#X obj 414 49 inlet~;
#X obj 414 334 outlet~;
#X connect 0 0 19 0;
#X connect 0 0 20 0;
#X connect 3 0 19 8;
#X connect 3 0 6 0;
#X connect 4 0 5 0;
#X connect 5 0 19 8;
#X connect 5 0 6 0;
#X connect 6 0 20 8;
#X connect 8 0 19 1;
#X connect 8 0 20 1;
#X connect 10 0 19 2;
#X connect 10 0 20 2;
#X connect 12 0 19 3;
#X connect 12 0 20 3;
#X connect 14 0 19 4;
#X connect 14 0 20 4;
#X connect 16 0 19 5;
#X connect 16 0 20 5;
#X connect 19 0 1 0;
#X connect 19 1 9 0;
#X connect 19 2 11 0;
#X connect 19 3 13 0;
#X connect 19 4 15 0;
#X connect 19 5 17 0;
#X connect 19 6 22 0;
#X connect 19 7 24 0;
#X connect 20 0 1 0;
#X connect 20 1 9 0;
#X connect 20 2 11 0;
#X connect 20 3 13 0;
#X connect 20 4 15 0;
#X connect 20 5 17 0;
#X connect 20 6 22 0;
#X connect 20 7 24 0;
#X connect 21 0 19 6;
#X connect 21 0 20 6;
#X connect 23 0 19 7;
#X connect 23 0 20 7;
