#N canvas 470 50 604 423 10;
#X obj 465 129 inlet statelist;
#X obj 465 281 outlet statelist;
#X text 407 384 (c)2012 Marian Weger;
#X obj 100 100 inlet~;
#X obj 50 100 inlet~;
#X obj 50 313 outlet~;
#X obj 100 313 outlet~;
#X obj 150 100 inlet~;
#X obj 150 313 outlet~;
#X obj 200 100 inlet~;
#X obj 200 313 outlet~;
#X obj 300 100 inlet~;
#X obj 250 100 inlet~;
#X obj 250 313 outlet~;
#X obj 300 313 outlet~;
#X obj 350 100 inlet~;
#X obj 350 313 outlet~;
#X obj 400 100 inlet~;
#X obj 400 313 outlet~;
#X text 35 29 fx_dry_8~;
#X connect 0 0 1 0;
#X connect 3 0 6 0;
#X connect 4 0 5 0;
#X connect 7 0 8 0;
#X connect 9 0 10 0;
#X connect 11 0 14 0;
#X connect 12 0 13 0;
#X connect 15 0 16 0;
#X connect 17 0 18 0;
