#N canvas 365 22 483 391 10;
#X obj 64 49 inlet~;
#X obj 64 334 outlet~;
#X text 96 392 (c)2012 Marian Weger;
#N canvas 284 22 666 594 delay 0;
#X obj 71 510 outlet~;
#X obj 71 312 *~;
#X obj 71 72 inlet~;
#X obj 71 341 delwrite~ \$0-dl \$1;
#X obj 483 326 clip 0 999;
#X obj 540 277 loadbang;
#X obj 314 194 pack 0 5;
#X obj 314 216 line~;
#X obj 434 222 switch~;
#X obj 434 172 change;
#X obj 434 196 1del0 15;
#X obj 434 150 > 0;
#X obj 464 81 inlet;
#X obj 540 299 f \$1;
#X obj 71 476 delread~ \$0-dl 0;
#X obj 464 114 t f f;
#X connect 1 0 3 0;
#X connect 2 0 1 0;
#X connect 4 0 14 0;
#X connect 5 0 13 0;
#X connect 6 0 7 0;
#X connect 7 0 1 1;
#X connect 9 0 10 0;
#X connect 10 0 8 0;
#X connect 11 0 9 0;
#X connect 11 0 6 0;
#X connect 12 0 15 0;
#X connect 13 0 4 2;
#X connect 14 0 0 0;
#X connect 15 0 11 0;
#X connect 15 1 4 0;
#X restore 64 204 pd delay;
#X obj 300 74 inlet;
#X text 40 12 fx_delay~ <max delay time> (<delay time>);
#X obj 201 74 loadbang;
#X obj 201 96 f \$2;
#X obj 201 176 <= 0;
#X obj 234 330 outlet;
#X text 289 279 (c)2012 Marian Weger;
#X obj 156 204 fx_gain~;
#X connect 0 0 3 0;
#X connect 0 0 11 0;
#X connect 3 0 1 0;
#X connect 4 0 8 0;
#X connect 4 0 3 1;
#X connect 6 0 7 0;
#X connect 7 0 8 0;
#X connect 7 0 3 1;
#X connect 8 0 11 1;
#X connect 11 0 1 0;
