#N canvas 286 22 563 436 10;
#X obj 180 366 outlet statelist;
#X obj 57 374 outlet ctl;
#X obj 180 57 inlet statelist;
#X msg 244 130 1;
#N canvas 298 419 372 226 init 0;
#X obj 32 29 loadbang;
#X obj 32 51 t b b;
#X obj 150 131 outlet;
#X obj 32 131 s /fx/delay/\$1;
#X obj 32 93 f \$4;
#X connect 0 0 1 0;
#X connect 1 0 4 0;
#X connect 1 1 2 0;
#X connect 4 0 3 0;
#X restore 244 104 pd init;
#N canvas 709 325 305 197 ds 0;
#X obj 72 88 ds_reg \$2 /fx/delay/\$1;
#X restore 329 236 pd ds;
#N canvas 709 325 305 197 osc 0;
#X obj 79 87 osc_bi \$2 /fx/delay/\$1;
#X restore 329 256 pd osc;
#X obj 57 109 r /fx/delay/\$1;
#X text 40 12 fx_delay_ctl <name> <domain> <max delay time> (<delay
time>);
#X text 305 348 (c)2012 Marian Weger;
#X connect 2 0 0 0;
#X connect 3 0 0 0;
#X connect 4 0 3 0;
#X connect 7 0 1 0;
