#N canvas 0 51 1366 691 10;
#X obj 64 49 inlet~;
#X obj 64 305 outlet~;
#X obj 2523 75 == 0;
#X obj 2512 284 outlet;
#X obj 2481 52 inlet;
#N canvas 80 292 381 223 init 0;
#X obj 144 71 loadbang;
#X obj 144 115 s \$0-state;
#X msg 144 93 0;
#X connect 0 0 2 0;
#X connect 2 0 1 0;
#X restore 2498 178 pd init;
#X obj 2523 52 r \$0-state;
#X obj 114 49 inlet~;
#X obj 114 305 outlet~;
#X obj 164 49 inlet~;
#X obj 164 305 outlet~;
#X obj 214 49 inlet~;
#X obj 214 305 outlet~;
#X obj 264 49 inlet~;
#X obj 264 305 outlet~;
#X obj 314 49 inlet~;
#X obj 314 305 outlet~;
#X obj 364 49 inlet~;
#X obj 364 305 outlet~;
#X obj 414 49 inlet~;
#X obj 414 305 outlet~;
#X obj 464 49 inlet~;
#X obj 464 305 outlet~;
#X obj 514 49 inlet~;
#X obj 514 305 outlet~;
#X obj 564 49 inlet~;
#X obj 564 305 outlet~;
#X obj 614 49 inlet~;
#X obj 614 305 outlet~;
#X obj 664 49 inlet~;
#X obj 664 305 outlet~;
#X obj 714 49 inlet~;
#X obj 714 305 outlet~;
#X obj 764 49 inlet~;
#X obj 764 305 outlet~;
#X obj 814 49 inlet~;
#X obj 814 305 outlet~;
#X obj 864 49 inlet~;
#X obj 864 305 outlet~;
#X obj 914 49 inlet~;
#X obj 914 305 outlet~;
#X obj 964 49 inlet~;
#X obj 964 305 outlet~;
#X obj 1014 49 inlet~;
#X obj 1014 305 outlet~;
#X obj 1064 49 inlet~;
#X obj 1064 305 outlet~;
#X obj 1114 49 inlet~;
#X obj 1114 305 outlet~;
#X obj 1164 49 inlet~;
#X obj 1164 305 outlet~;
#X obj 1214 49 inlet~;
#X obj 1214 305 outlet~;
#X text 40 12 fx_eq7_48~;
#X text 55 400 (c)2015 Marian Weger;
#N canvas 1 51 1351 687 eq7_48___________________________________________________
0;
#X obj 112 26 inlet~;
#X obj 112 550 outlet~;
#X obj 2657 119 switch~;
#X obj 2630 69 t f f;
#X obj 2657 95 1del0 15;
#X obj 112 244 *~;
#X obj 2630 142 pack 0 5;
#X obj 2630 176 line~;
#X obj 2580 45 inlet;
#X obj 2793 293 list prepend no method for;
#X obj 2793 315 list trim;
#X obj 2580 268 route lc ls low mid high hs hc state;
#X obj 2766 389 s \$0-state;
#X obj 2630 45 r \$0-state;
#X obj 162 26 inlet~;
#X obj 162 550 outlet~;
#X obj 162 244 *~;
#X obj 2688 505 outlet;
#X obj 212 26 inlet~;
#X obj 212 550 outlet~;
#X obj 212 244 *~;
#X obj 262 26 inlet~;
#X obj 262 550 outlet~;
#X obj 262 244 *~;
#X obj 312 26 inlet~;
#X obj 312 550 outlet~;
#X obj 312 244 *~;
#X obj 362 26 inlet~;
#X obj 362 550 outlet~;
#X obj 362 244 *~;
#X obj 412 26 inlet~;
#X obj 412 550 outlet~;
#X obj 412 244 *~;
#X obj 462 26 inlet~;
#X obj 462 550 outlet~;
#X obj 462 244 *~;
#X obj 512 26 inlet~;
#X obj 512 550 outlet~;
#X obj 512 244 *~;
#X obj 562 26 inlet~;
#X obj 562 550 outlet~;
#X obj 562 244 *~;
#X obj 612 26 inlet~;
#X obj 612 550 outlet~;
#X obj 612 244 *~;
#X obj 662 26 inlet~;
#X obj 662 550 outlet~;
#X obj 662 244 *~;
#X obj 712 26 inlet~;
#X obj 712 550 outlet~;
#X obj 712 244 *~;
#X obj 762 26 inlet~;
#X obj 762 550 outlet~;
#X obj 762 244 *~;
#X obj 812 26 inlet~;
#X obj 812 550 outlet~;
#X obj 812 244 *~;
#X obj 862 26 inlet~;
#X obj 862 550 outlet~;
#X obj 862 244 *~;
#X obj 912 26 inlet~;
#X obj 912 550 outlet~;
#X obj 912 244 *~;
#X obj 962 26 inlet~;
#X obj 962 550 outlet~;
#X obj 962 244 *~;
#X obj 1012 26 inlet~;
#X obj 1012 550 outlet~;
#X obj 1012 244 *~;
#X obj 1062 26 inlet~;
#X obj 1062 550 outlet~;
#X obj 1062 244 *~;
#X obj 1112 26 inlet~;
#X obj 1112 550 outlet~;
#X obj 1112 244 *~;
#X obj 1162 26 inlet~;
#X obj 1162 550 outlet~;
#X obj 1162 244 *~;
#X obj 1212 26 inlet~;
#X obj 1212 550 outlet~;
#X obj 1212 244 *~;
#X obj 1262 26 inlet~;
#X obj 1262 550 outlet~;
#X obj 1262 244 *~;
#X obj 2793 337 print fx_eq7_24~;
#X obj 886 313 fx_biquad_48~ highpass 0 50 1 0 0 0 0 0 0 0 0 0 0 0
0 0 0 0, f 121;
#X obj 886 345 fx_biquad_48~ lowshelf 0 500 1 0 0 0 0 0 0 0 0 0 0 0
0 0 0 0, f 121;
#X obj 886 374 fx_biquad_48~ peaking 0 100 1 0 0 0 0 0 0 0 0 0 0 0
0 0 0 0, f 121;
#X obj 886 402 fx_biquad_48~ peaking 0 500 1 0 0 0 0 0 0 0 0 0 0 0
0 0 0 0, f 121;
#X obj 886 429 fx_biquad_48~ peaking 0 5000 1 0 0 0 0 0 0 0 0 0 0 0
0 0 0 0, f 121;
#X obj 886 459 fx_biquad_48~ highshelf 0 2000 1 0 0 0 0 0 0 0 0 0 0
0 0 0 0, f 121;
#X obj 886 489 fx_biquad_48~ lowpass 0 20000 1 0 0 0 0 0 0 0 0 0 0
0 0 0 0, f 121;
#X obj 1327 26 inlet~;
#X obj 1327 550 outlet~;
#X obj 1327 244 *~;
#X obj 1377 26 inlet~;
#X obj 1377 550 outlet~;
#X obj 1377 244 *~;
#X obj 1427 26 inlet~;
#X obj 1427 550 outlet~;
#X obj 1427 244 *~;
#X obj 1477 26 inlet~;
#X obj 1477 550 outlet~;
#X obj 1477 244 *~;
#X obj 1527 26 inlet~;
#X obj 1527 550 outlet~;
#X obj 1527 244 *~;
#X obj 1577 26 inlet~;
#X obj 1577 550 outlet~;
#X obj 1577 244 *~;
#X obj 1627 26 inlet~;
#X obj 1627 550 outlet~;
#X obj 1627 244 *~;
#X obj 1677 26 inlet~;
#X obj 1677 550 outlet~;
#X obj 1677 244 *~;
#X obj 1727 26 inlet~;
#X obj 1727 550 outlet~;
#X obj 1727 244 *~;
#X obj 1777 26 inlet~;
#X obj 1777 550 outlet~;
#X obj 1777 244 *~;
#X obj 1827 26 inlet~;
#X obj 1827 550 outlet~;
#X obj 1827 244 *~;
#X obj 1877 26 inlet~;
#X obj 1877 550 outlet~;
#X obj 1877 244 *~;
#X obj 1927 26 inlet~;
#X obj 1927 550 outlet~;
#X obj 1927 244 *~;
#X obj 1977 26 inlet~;
#X obj 1977 550 outlet~;
#X obj 1977 244 *~;
#X obj 2027 26 inlet~;
#X obj 2027 550 outlet~;
#X obj 2027 244 *~;
#X obj 2077 26 inlet~;
#X obj 2077 550 outlet~;
#X obj 2077 244 *~;
#X obj 2127 26 inlet~;
#X obj 2127 550 outlet~;
#X obj 2127 244 *~;
#X obj 2177 26 inlet~;
#X obj 2177 550 outlet~;
#X obj 2177 244 *~;
#X obj 2227 26 inlet~;
#X obj 2227 550 outlet~;
#X obj 2227 244 *~;
#X obj 2277 26 inlet~;
#X obj 2277 550 outlet~;
#X obj 2277 244 *~;
#X obj 2327 26 inlet~;
#X obj 2327 550 outlet~;
#X obj 2327 244 *~;
#X obj 2377 26 inlet~;
#X obj 2377 550 outlet~;
#X obj 2377 244 *~;
#X obj 2427 26 inlet~;
#X obj 2427 550 outlet~;
#X obj 2427 244 *~;
#X obj 2477 26 inlet~;
#X obj 2477 550 outlet~;
#X obj 2477 244 *~;
#X connect 0 0 5 0;
#X connect 3 0 6 0;
#X connect 3 1 4 0;
#X connect 4 0 2 0;
#X connect 5 0 85 0;
#X connect 6 0 7 0;
#X connect 7 0 5 1;
#X connect 7 0 16 1;
#X connect 7 0 20 1;
#X connect 7 0 35 1;
#X connect 7 0 32 1;
#X connect 7 0 29 1;
#X connect 7 0 26 1;
#X connect 7 0 23 1;
#X connect 7 0 38 1;
#X connect 7 0 41 1;
#X connect 7 0 44 1;
#X connect 7 0 47 1;
#X connect 7 0 50 1;
#X connect 7 0 53 1;
#X connect 7 0 56 1;
#X connect 7 0 59 1;
#X connect 7 0 62 1;
#X connect 7 0 65 1;
#X connect 7 0 68 1;
#X connect 7 0 71 1;
#X connect 7 0 74 1;
#X connect 7 0 77 1;
#X connect 7 0 80 1;
#X connect 7 0 83 1;
#X connect 7 0 94 1;
#X connect 7 0 97 1;
#X connect 7 0 100 1;
#X connect 7 0 103 1;
#X connect 7 0 106 1;
#X connect 7 0 109 1;
#X connect 7 0 112 1;
#X connect 7 0 115 1;
#X connect 7 0 118 1;
#X connect 7 0 121 1;
#X connect 7 0 124 1;
#X connect 7 0 127 1;
#X connect 7 0 130 1;
#X connect 7 0 133 1;
#X connect 7 0 136 1;
#X connect 7 0 139 1;
#X connect 7 0 142 1;
#X connect 7 0 145 1;
#X connect 7 0 148 1;
#X connect 7 0 151 1;
#X connect 7 0 154 1;
#X connect 7 0 157 1;
#X connect 7 0 160 1;
#X connect 7 0 163 1;
#X connect 8 0 11 0;
#X connect 9 0 10 0;
#X connect 10 0 84 0;
#X connect 11 0 85 48;
#X connect 11 1 86 48;
#X connect 11 2 87 48;
#X connect 11 3 88 48;
#X connect 11 4 89 48;
#X connect 11 5 90 48;
#X connect 11 6 91 48;
#X connect 11 7 12 0;
#X connect 11 8 9 0;
#X connect 13 0 3 0;
#X connect 14 0 16 0;
#X connect 16 0 85 1;
#X connect 18 0 20 0;
#X connect 20 0 85 2;
#X connect 21 0 23 0;
#X connect 23 0 85 3;
#X connect 24 0 26 0;
#X connect 26 0 85 4;
#X connect 27 0 29 0;
#X connect 29 0 85 5;
#X connect 30 0 32 0;
#X connect 32 0 85 6;
#X connect 33 0 35 0;
#X connect 35 0 85 7;
#X connect 36 0 38 0;
#X connect 38 0 85 8;
#X connect 39 0 41 0;
#X connect 41 0 85 9;
#X connect 42 0 44 0;
#X connect 44 0 85 10;
#X connect 45 0 47 0;
#X connect 47 0 85 11;
#X connect 48 0 50 0;
#X connect 50 0 85 12;
#X connect 51 0 53 0;
#X connect 53 0 85 13;
#X connect 54 0 56 0;
#X connect 56 0 85 14;
#X connect 57 0 59 0;
#X connect 59 0 85 15;
#X connect 60 0 62 0;
#X connect 62 0 85 16;
#X connect 63 0 65 0;
#X connect 65 0 85 17;
#X connect 66 0 68 0;
#X connect 68 0 85 18;
#X connect 69 0 71 0;
#X connect 71 0 85 19;
#X connect 72 0 74 0;
#X connect 74 0 85 20;
#X connect 75 0 77 0;
#X connect 77 0 85 21;
#X connect 78 0 80 0;
#X connect 80 0 85 22;
#X connect 81 0 83 0;
#X connect 83 0 85 23;
#X connect 85 0 86 0;
#X connect 85 1 86 1;
#X connect 85 2 86 2;
#X connect 85 3 86 3;
#X connect 85 4 86 4;
#X connect 85 5 86 5;
#X connect 85 6 86 6;
#X connect 85 7 86 7;
#X connect 85 8 86 8;
#X connect 85 9 86 9;
#X connect 85 10 86 10;
#X connect 85 11 86 11;
#X connect 85 12 86 12;
#X connect 85 13 86 13;
#X connect 85 14 86 14;
#X connect 85 15 86 15;
#X connect 85 16 86 16;
#X connect 85 17 86 17;
#X connect 85 18 86 18;
#X connect 85 19 86 19;
#X connect 85 20 86 20;
#X connect 85 21 86 21;
#X connect 85 22 86 22;
#X connect 85 23 86 23;
#X connect 85 24 86 24;
#X connect 85 25 86 25;
#X connect 85 26 86 26;
#X connect 85 27 86 27;
#X connect 85 28 86 28;
#X connect 85 29 86 29;
#X connect 85 30 86 30;
#X connect 85 31 86 31;
#X connect 85 32 86 32;
#X connect 85 33 86 33;
#X connect 85 34 86 34;
#X connect 85 35 86 35;
#X connect 85 36 86 36;
#X connect 85 37 86 37;
#X connect 85 38 86 38;
#X connect 85 39 86 39;
#X connect 85 40 86 40;
#X connect 85 41 86 41;
#X connect 85 42 86 42;
#X connect 85 43 86 43;
#X connect 85 44 86 44;
#X connect 85 45 86 45;
#X connect 85 46 86 46;
#X connect 85 47 86 47;
#X connect 86 0 87 0;
#X connect 86 1 87 1;
#X connect 86 2 87 2;
#X connect 86 3 87 3;
#X connect 86 4 87 4;
#X connect 86 5 87 5;
#X connect 86 6 87 6;
#X connect 86 7 87 7;
#X connect 86 8 87 8;
#X connect 86 9 87 9;
#X connect 86 10 87 10;
#X connect 86 11 87 11;
#X connect 86 12 87 12;
#X connect 86 13 87 13;
#X connect 86 14 87 14;
#X connect 86 15 87 15;
#X connect 86 16 87 16;
#X connect 86 17 87 17;
#X connect 86 18 87 18;
#X connect 86 19 87 19;
#X connect 86 20 87 20;
#X connect 86 21 87 21;
#X connect 86 22 87 22;
#X connect 86 23 87 23;
#X connect 86 24 87 24;
#X connect 86 25 87 25;
#X connect 86 26 87 26;
#X connect 86 27 87 27;
#X connect 86 28 87 28;
#X connect 86 29 87 29;
#X connect 86 30 87 30;
#X connect 86 31 87 31;
#X connect 86 32 87 32;
#X connect 86 33 87 33;
#X connect 86 34 87 34;
#X connect 86 35 87 35;
#X connect 86 36 87 36;
#X connect 86 37 87 37;
#X connect 86 38 87 38;
#X connect 86 39 87 39;
#X connect 86 40 87 40;
#X connect 86 41 87 41;
#X connect 86 42 87 42;
#X connect 86 43 87 43;
#X connect 86 44 87 44;
#X connect 86 45 87 45;
#X connect 86 46 87 46;
#X connect 86 47 87 47;
#X connect 87 0 88 0;
#X connect 87 1 88 1;
#X connect 87 2 88 2;
#X connect 87 3 88 3;
#X connect 87 4 88 4;
#X connect 87 5 88 5;
#X connect 87 6 88 6;
#X connect 87 7 88 7;
#X connect 87 8 88 8;
#X connect 87 9 88 9;
#X connect 87 10 88 10;
#X connect 87 11 88 11;
#X connect 87 12 88 12;
#X connect 87 13 88 13;
#X connect 87 14 88 14;
#X connect 87 15 88 15;
#X connect 87 16 88 16;
#X connect 87 17 88 17;
#X connect 87 18 88 18;
#X connect 87 19 88 19;
#X connect 87 20 88 20;
#X connect 87 21 88 21;
#X connect 87 22 88 22;
#X connect 87 23 88 23;
#X connect 87 24 88 24;
#X connect 87 25 88 25;
#X connect 87 26 88 26;
#X connect 87 27 88 27;
#X connect 87 28 88 28;
#X connect 87 29 88 29;
#X connect 87 30 88 30;
#X connect 87 31 88 31;
#X connect 87 32 88 32;
#X connect 87 33 88 33;
#X connect 87 34 88 34;
#X connect 87 35 88 35;
#X connect 87 36 88 36;
#X connect 87 37 88 37;
#X connect 87 38 88 38;
#X connect 87 39 88 39;
#X connect 87 40 88 40;
#X connect 87 41 88 41;
#X connect 87 42 88 42;
#X connect 87 43 88 43;
#X connect 87 44 88 44;
#X connect 87 45 88 45;
#X connect 87 46 88 46;
#X connect 87 47 88 47;
#X connect 88 0 89 0;
#X connect 88 1 89 1;
#X connect 88 2 89 2;
#X connect 88 3 89 3;
#X connect 88 4 89 4;
#X connect 88 5 89 5;
#X connect 88 6 89 6;
#X connect 88 7 89 7;
#X connect 88 8 89 8;
#X connect 88 9 89 9;
#X connect 88 10 89 10;
#X connect 88 11 89 11;
#X connect 88 12 89 12;
#X connect 88 13 89 13;
#X connect 88 14 89 14;
#X connect 88 15 89 15;
#X connect 88 16 89 16;
#X connect 88 17 89 17;
#X connect 88 18 89 18;
#X connect 88 19 89 19;
#X connect 88 20 89 20;
#X connect 88 21 89 21;
#X connect 88 22 89 22;
#X connect 88 23 89 23;
#X connect 88 24 89 24;
#X connect 88 25 89 25;
#X connect 88 26 89 26;
#X connect 88 27 89 27;
#X connect 88 28 89 28;
#X connect 88 29 89 29;
#X connect 88 30 89 30;
#X connect 88 31 89 31;
#X connect 88 32 89 32;
#X connect 88 33 89 33;
#X connect 88 34 89 34;
#X connect 88 35 89 35;
#X connect 88 36 89 36;
#X connect 88 37 89 37;
#X connect 88 38 89 38;
#X connect 88 39 89 39;
#X connect 88 40 89 40;
#X connect 88 41 89 41;
#X connect 88 42 89 42;
#X connect 88 43 89 43;
#X connect 88 44 89 44;
#X connect 88 45 89 45;
#X connect 88 46 89 46;
#X connect 88 47 89 47;
#X connect 89 0 90 0;
#X connect 89 1 90 1;
#X connect 89 2 90 2;
#X connect 89 3 90 3;
#X connect 89 4 90 4;
#X connect 89 5 90 5;
#X connect 89 6 90 6;
#X connect 89 7 90 7;
#X connect 89 8 90 8;
#X connect 89 9 90 9;
#X connect 89 10 90 10;
#X connect 89 11 90 11;
#X connect 89 12 90 12;
#X connect 89 13 90 13;
#X connect 89 14 90 14;
#X connect 89 15 90 15;
#X connect 89 16 90 16;
#X connect 89 17 90 17;
#X connect 89 18 90 18;
#X connect 89 19 90 19;
#X connect 89 20 90 20;
#X connect 89 21 90 21;
#X connect 89 22 90 22;
#X connect 89 23 90 23;
#X connect 89 24 90 24;
#X connect 89 25 90 25;
#X connect 89 26 90 26;
#X connect 89 27 90 27;
#X connect 89 28 90 28;
#X connect 89 29 90 29;
#X connect 89 30 90 30;
#X connect 89 31 90 31;
#X connect 89 32 90 32;
#X connect 89 33 90 33;
#X connect 89 34 90 34;
#X connect 89 35 90 35;
#X connect 89 36 90 36;
#X connect 89 37 90 37;
#X connect 89 38 90 38;
#X connect 89 39 90 39;
#X connect 89 40 90 40;
#X connect 89 41 90 41;
#X connect 89 42 90 42;
#X connect 89 43 90 43;
#X connect 89 44 90 44;
#X connect 89 45 90 45;
#X connect 89 46 90 46;
#X connect 89 47 90 47;
#X connect 90 0 91 0;
#X connect 90 1 91 1;
#X connect 90 2 91 2;
#X connect 90 3 91 3;
#X connect 90 4 91 4;
#X connect 90 5 91 5;
#X connect 90 6 91 6;
#X connect 90 7 91 7;
#X connect 90 8 91 8;
#X connect 90 9 91 9;
#X connect 90 10 91 10;
#X connect 90 11 91 11;
#X connect 90 12 91 12;
#X connect 90 13 91 13;
#X connect 90 14 91 14;
#X connect 90 15 91 15;
#X connect 90 16 91 16;
#X connect 90 17 91 17;
#X connect 90 18 91 18;
#X connect 90 19 91 19;
#X connect 90 20 91 20;
#X connect 90 21 91 21;
#X connect 90 22 91 22;
#X connect 90 23 91 23;
#X connect 90 24 91 24;
#X connect 90 25 91 25;
#X connect 90 26 91 26;
#X connect 90 27 91 27;
#X connect 90 28 91 28;
#X connect 90 29 91 29;
#X connect 90 30 91 30;
#X connect 90 31 91 31;
#X connect 90 32 91 32;
#X connect 90 33 91 33;
#X connect 90 34 91 34;
#X connect 90 35 91 35;
#X connect 90 36 91 36;
#X connect 90 37 91 37;
#X connect 90 38 91 38;
#X connect 90 39 91 39;
#X connect 90 40 91 40;
#X connect 90 41 91 41;
#X connect 90 42 91 42;
#X connect 90 43 91 43;
#X connect 90 44 91 44;
#X connect 90 45 91 45;
#X connect 90 46 91 46;
#X connect 90 47 91 47;
#X connect 91 0 1 0;
#X connect 91 1 15 0;
#X connect 91 2 19 0;
#X connect 91 3 22 0;
#X connect 91 4 25 0;
#X connect 91 5 28 0;
#X connect 91 6 31 0;
#X connect 91 7 34 0;
#X connect 91 8 37 0;
#X connect 91 9 40 0;
#X connect 91 10 43 0;
#X connect 91 11 46 0;
#X connect 91 12 49 0;
#X connect 91 13 52 0;
#X connect 91 14 55 0;
#X connect 91 15 58 0;
#X connect 91 16 61 0;
#X connect 91 17 64 0;
#X connect 91 18 67 0;
#X connect 91 19 70 0;
#X connect 91 20 73 0;
#X connect 91 21 76 0;
#X connect 91 22 79 0;
#X connect 91 23 82 0;
#X connect 91 24 93 0;
#X connect 91 25 96 0;
#X connect 91 26 99 0;
#X connect 91 27 102 0;
#X connect 91 28 105 0;
#X connect 91 29 108 0;
#X connect 91 30 111 0;
#X connect 91 31 114 0;
#X connect 91 32 117 0;
#X connect 91 33 120 0;
#X connect 91 34 123 0;
#X connect 91 35 126 0;
#X connect 91 36 129 0;
#X connect 91 37 132 0;
#X connect 91 38 135 0;
#X connect 91 39 138 0;
#X connect 91 40 141 0;
#X connect 91 41 144 0;
#X connect 91 42 147 0;
#X connect 91 43 150 0;
#X connect 91 44 153 0;
#X connect 91 45 156 0;
#X connect 91 46 159 0;
#X connect 91 47 162 0;
#X connect 92 0 94 0;
#X connect 94 0 85 24;
#X connect 95 0 97 0;
#X connect 97 0 85 25;
#X connect 98 0 100 0;
#X connect 100 0 85 26;
#X connect 101 0 103 0;
#X connect 103 0 85 27;
#X connect 104 0 106 0;
#X connect 106 0 85 28;
#X connect 107 0 109 0;
#X connect 109 0 85 29;
#X connect 110 0 112 0;
#X connect 112 0 85 30;
#X connect 113 0 115 0;
#X connect 115 0 85 31;
#X connect 116 0 118 0;
#X connect 118 0 85 32;
#X connect 119 0 121 0;
#X connect 121 0 85 33;
#X connect 122 0 124 0;
#X connect 124 0 85 34;
#X connect 125 0 127 0;
#X connect 127 0 85 35;
#X connect 128 0 130 0;
#X connect 130 0 85 36;
#X connect 131 0 133 0;
#X connect 133 0 85 37;
#X connect 134 0 136 0;
#X connect 136 0 85 38;
#X connect 137 0 139 0;
#X connect 139 0 85 39;
#X connect 140 0 142 0;
#X connect 142 0 85 40;
#X connect 143 0 145 0;
#X connect 145 0 85 41;
#X connect 146 0 148 0;
#X connect 148 0 85 42;
#X connect 149 0 151 0;
#X connect 151 0 85 43;
#X connect 152 0 154 0;
#X connect 154 0 85 44;
#X connect 155 0 157 0;
#X connect 157 0 85 45;
#X connect 158 0 160 0;
#X connect 160 0 85 46;
#X connect 161 0 163 0;
#X connect 163 0 85 47;
#X restore 68 175 pd eq7_48___________________________________________________
, f 118;
#X obj 1596 182 fx_gain_48~ 0 0 0 0 0 0 0 0 0 0 0 0 0 0 0 0 0 0 0 0
0 0 0 0, f 118;
#X obj 1274 49 inlet~;
#X obj 1274 305 outlet~;
#X obj 1324 49 inlet~;
#X obj 1324 305 outlet~;
#X obj 1374 49 inlet~;
#X obj 1374 305 outlet~;
#X obj 1424 49 inlet~;
#X obj 1424 305 outlet~;
#X obj 1474 49 inlet~;
#X obj 1474 305 outlet~;
#X obj 1524 49 inlet~;
#X obj 1524 305 outlet~;
#X obj 1574 49 inlet~;
#X obj 1574 305 outlet~;
#X obj 1624 49 inlet~;
#X obj 1624 305 outlet~;
#X obj 1674 49 inlet~;
#X obj 1674 305 outlet~;
#X obj 1724 49 inlet~;
#X obj 1724 305 outlet~;
#X obj 1774 49 inlet~;
#X obj 1774 305 outlet~;
#X obj 1824 49 inlet~;
#X obj 1824 305 outlet~;
#X obj 1874 49 inlet~;
#X obj 1874 305 outlet~;
#X obj 1924 49 inlet~;
#X obj 1924 305 outlet~;
#X obj 1974 49 inlet~;
#X obj 1974 305 outlet~;
#X obj 2024 49 inlet~;
#X obj 2024 305 outlet~;
#X obj 2074 49 inlet~;
#X obj 2074 305 outlet~;
#X obj 2124 49 inlet~;
#X obj 2124 305 outlet~;
#X obj 2174 49 inlet~;
#X obj 2174 305 outlet~;
#X obj 2224 49 inlet~;
#X obj 2224 305 outlet~;
#X obj 2274 49 inlet~;
#X obj 2274 305 outlet~;
#X obj 2324 49 inlet~;
#X obj 2324 305 outlet~;
#X obj 2374 49 inlet~;
#X obj 2374 305 outlet~;
#X obj 2424 49 inlet~;
#X obj 2424 305 outlet~;
#X connect 0 0 55 0;
#X connect 0 0 56 0;
#X connect 2 0 56 48;
#X connect 4 0 55 48;
#X connect 6 0 2 0;
#X connect 7 0 55 1;
#X connect 7 0 56 1;
#X connect 9 0 55 2;
#X connect 9 0 56 2;
#X connect 11 0 55 3;
#X connect 11 0 56 3;
#X connect 13 0 55 4;
#X connect 13 0 56 4;
#X connect 15 0 55 5;
#X connect 15 0 56 5;
#X connect 17 0 55 6;
#X connect 17 0 56 6;
#X connect 19 0 55 7;
#X connect 19 0 56 7;
#X connect 21 0 55 8;
#X connect 21 0 56 8;
#X connect 23 0 55 9;
#X connect 23 0 56 9;
#X connect 25 0 55 10;
#X connect 25 0 56 10;
#X connect 27 0 55 11;
#X connect 27 0 56 11;
#X connect 29 0 55 12;
#X connect 29 0 56 12;
#X connect 31 0 55 13;
#X connect 31 0 56 13;
#X connect 33 0 55 14;
#X connect 33 0 56 14;
#X connect 35 0 55 15;
#X connect 35 0 56 15;
#X connect 37 0 55 16;
#X connect 37 0 56 16;
#X connect 39 0 55 17;
#X connect 39 0 56 17;
#X connect 41 0 55 18;
#X connect 41 0 56 18;
#X connect 43 0 55 19;
#X connect 43 0 56 19;
#X connect 45 0 55 20;
#X connect 45 0 56 20;
#X connect 47 0 55 21;
#X connect 47 0 56 21;
#X connect 49 0 55 22;
#X connect 49 0 56 22;
#X connect 51 0 55 23;
#X connect 51 0 56 23;
#X connect 55 0 1 0;
#X connect 55 1 8 0;
#X connect 55 2 10 0;
#X connect 55 3 12 0;
#X connect 55 4 14 0;
#X connect 55 5 16 0;
#X connect 55 6 18 0;
#X connect 55 7 20 0;
#X connect 55 8 22 0;
#X connect 55 9 24 0;
#X connect 55 10 26 0;
#X connect 55 11 28 0;
#X connect 55 12 30 0;
#X connect 55 13 32 0;
#X connect 55 14 34 0;
#X connect 55 15 36 0;
#X connect 55 16 38 0;
#X connect 55 17 40 0;
#X connect 55 18 42 0;
#X connect 55 19 44 0;
#X connect 55 20 46 0;
#X connect 55 21 48 0;
#X connect 55 22 50 0;
#X connect 55 23 52 0;
#X connect 55 24 58 0;
#X connect 55 25 60 0;
#X connect 55 26 62 0;
#X connect 55 27 64 0;
#X connect 55 28 66 0;
#X connect 55 29 68 0;
#X connect 55 30 70 0;
#X connect 55 31 72 0;
#X connect 55 32 74 0;
#X connect 55 33 76 0;
#X connect 55 34 78 0;
#X connect 55 35 80 0;
#X connect 55 36 82 0;
#X connect 55 37 84 0;
#X connect 55 38 86 0;
#X connect 55 39 88 0;
#X connect 55 40 90 0;
#X connect 55 41 92 0;
#X connect 55 42 94 0;
#X connect 55 43 96 0;
#X connect 55 44 98 0;
#X connect 55 45 100 0;
#X connect 55 46 102 0;
#X connect 55 47 104 0;
#X connect 56 0 1 0;
#X connect 56 1 8 0;
#X connect 56 2 10 0;
#X connect 56 3 12 0;
#X connect 56 4 14 0;
#X connect 56 5 16 0;
#X connect 56 6 18 0;
#X connect 56 7 20 0;
#X connect 56 8 22 0;
#X connect 56 9 24 0;
#X connect 56 10 26 0;
#X connect 56 11 28 0;
#X connect 56 12 30 0;
#X connect 56 13 32 0;
#X connect 56 14 34 0;
#X connect 56 15 36 0;
#X connect 56 16 38 0;
#X connect 56 17 40 0;
#X connect 56 18 42 0;
#X connect 56 19 44 0;
#X connect 56 20 46 0;
#X connect 56 21 48 0;
#X connect 56 22 50 0;
#X connect 56 23 52 0;
#X connect 56 24 58 0;
#X connect 56 25 60 0;
#X connect 56 26 62 0;
#X connect 56 27 64 0;
#X connect 56 28 66 0;
#X connect 56 29 68 0;
#X connect 56 30 70 0;
#X connect 56 31 72 0;
#X connect 56 32 74 0;
#X connect 56 33 76 0;
#X connect 56 34 78 0;
#X connect 56 35 80 0;
#X connect 56 36 82 0;
#X connect 56 37 84 0;
#X connect 56 38 86 0;
#X connect 56 39 88 0;
#X connect 56 40 90 0;
#X connect 56 41 92 0;
#X connect 56 42 94 0;
#X connect 56 43 96 0;
#X connect 56 44 98 0;
#X connect 56 45 100 0;
#X connect 56 46 102 0;
#X connect 56 47 104 0;
#X connect 57 0 56 24;
#X connect 57 0 55 24;
#X connect 59 0 56 25;
#X connect 59 0 55 25;
#X connect 61 0 56 26;
#X connect 61 0 55 26;
#X connect 63 0 56 27;
#X connect 63 0 55 27;
#X connect 65 0 56 28;
#X connect 65 0 55 28;
#X connect 67 0 56 29;
#X connect 67 0 55 29;
#X connect 69 0 56 30;
#X connect 69 0 55 30;
#X connect 71 0 56 31;
#X connect 71 0 55 31;
#X connect 73 0 56 32;
#X connect 73 0 55 32;
#X connect 75 0 56 33;
#X connect 75 0 55 33;
#X connect 77 0 56 34;
#X connect 77 0 55 34;
#X connect 79 0 56 35;
#X connect 79 0 55 35;
#X connect 81 0 56 36;
#X connect 81 0 55 36;
#X connect 83 0 56 37;
#X connect 83 0 55 37;
#X connect 85 0 56 38;
#X connect 85 0 55 38;
#X connect 87 0 56 39;
#X connect 87 0 55 39;
#X connect 89 0 56 40;
#X connect 89 0 55 40;
#X connect 91 0 56 41;
#X connect 91 0 55 41;
#X connect 93 0 56 42;
#X connect 93 0 55 42;
#X connect 95 0 56 43;
#X connect 95 0 55 43;
#X connect 97 0 56 44;
#X connect 97 0 55 44;
#X connect 99 0 56 45;
#X connect 99 0 55 45;
#X connect 101 0 56 46;
#X connect 101 0 55 46;
#X connect 103 0 56 47;
#X connect 103 0 55 47;
