#N canvas 544 38 524 434 10;
#X obj 64 49 inlet~;
#X obj 64 305 outlet~;
#X text 338 243 (c)2012 Marian Weger;
#X obj 399 79 == 0;
#X obj 388 288 outlet;
#X obj 357 56 inlet;
#N canvas 82 294 381 223 init 0;
#X obj 144 71 loadbang;
#X obj 144 115 s \$0-state;
#X msg 144 93 0;
#X connect 0 0 2 0;
#X connect 2 0 1 0;
#X restore 374 182 pd init;
#X obj 399 56 r \$0-state;
#X text 40 12 fx_eq7_2~;
#X obj 114 49 inlet~;
#X obj 114 305 outlet~;
#X obj 184 175 fx_gain_2~ 0 0 0 0 0 0 0;
#N canvas 77 139 794 605 eq7_2_________ 0;
#X obj 112 26 inlet~;
#X obj 112 550 outlet~;
#X obj 332 108 switch~;
#X obj 305 58 t f f;
#X obj 332 84 1del0 15;
#X obj 112 244 *~;
#X obj 305 131 pack 0 5;
#X obj 305 153 line~;
#X obj 395 34 inlet;
#X obj 608 282 list prepend no method for;
#X obj 608 304 list trim;
#X obj 395 257 route lc ls low mid high hs hc state;
#X obj 581 378 s \$0-state;
#X obj 305 34 r \$0-state;
#X obj 608 326 print fx_eq7_2~;
#X obj 112 293 fx_biquad_2~ highpass 0 50 1 0;
#X obj 112 323 fx_biquad_2~ lowshelf 0 500 1 0;
#X obj 112 353 fx_biquad_2~ peaking 0 100 1 0;
#X obj 112 373 fx_biquad_2~ peaking 0 500 1 0;
#X obj 112 393 fx_biquad_2~ peaking 0 5000 1 0;
#X obj 112 423 fx_biquad_2~ highshelf 0 2000 1 0;
#X obj 112 453 fx_biquad_2~ lowpass 0 20000 1 0;
#X obj 202 26 inlet~;
#X obj 202 550 outlet~;
#X obj 202 244 *~;
#X obj 503 494 outlet;
#X connect 0 0 5 0;
#X connect 3 0 6 0;
#X connect 3 1 4 0;
#X connect 4 0 2 0;
#X connect 5 0 15 0;
#X connect 6 0 7 0;
#X connect 7 0 5 1;
#X connect 7 0 24 1;
#X connect 8 0 11 0;
#X connect 9 0 10 0;
#X connect 10 0 14 0;
#X connect 11 0 15 2;
#X connect 11 1 16 2;
#X connect 11 2 17 2;
#X connect 11 3 18 2;
#X connect 11 4 19 2;
#X connect 11 5 20 2;
#X connect 11 6 21 2;
#X connect 11 7 12 0;
#X connect 11 8 9 0;
#X connect 13 0 3 0;
#X connect 15 0 16 0;
#X connect 15 1 16 1;
#X connect 16 0 17 0;
#X connect 16 1 17 1;
#X connect 17 0 18 0;
#X connect 17 1 18 1;
#X connect 18 0 19 0;
#X connect 18 1 19 1;
#X connect 19 0 20 0;
#X connect 19 1 20 1;
#X connect 20 0 21 0;
#X connect 20 1 21 1;
#X connect 21 0 1 0;
#X connect 21 1 23 0;
#X connect 22 0 24 0;
#X connect 24 0 15 1;
#X restore 64 175 pd eq7_2_________;
#X connect 0 0 12 0;
#X connect 0 0 11 0;
#X connect 3 0 11 2;
#X connect 5 0 12 2;
#X connect 7 0 3 0;
#X connect 9 0 12 1;
#X connect 9 0 11 1;
#X connect 11 0 1 0;
#X connect 11 1 10 0;
#X connect 12 0 1 0;
#X connect 12 1 10 0;
