#N canvas 544 38 456 439 10;
#X obj 64 49 inlet~;
#X obj 64 305 outlet~;
#X text 308 243 (c)2012 Marian Weger;
#X obj 369 79 == 0;
#X obj 358 288 outlet;
#X obj 164 175 fx_gain~;
#N canvas 77 139 794 605 eq7 0;
#X obj 112 26 inlet~;
#X obj 112 550 outlet~;
#X obj 332 108 switch~;
#X obj 305 58 t f f;
#X obj 332 84 1del0 15;
#X obj 112 244 *~;
#X obj 305 131 pack 0 5;
#X obj 305 153 line~;
#X obj 112 293 fx_biquad~ highpass 0 50 1 0;
#X obj 112 323 fx_biquad~ lowshelf 0 500 1 0;
#X obj 112 353 fx_biquad~ peaking 0 100 1 0;
#X obj 112 373 fx_biquad~ peaking 0 500 1 0;
#X obj 112 393 fx_biquad~ peaking 0 5000 1 0;
#X obj 112 423 fx_biquad~ highshelf 0 2000 1 0;
#X obj 112 453 fx_biquad~ lowpass 0 20000 1 0;
#X obj 395 34 inlet;
#X obj 608 282 list prepend no method for;
#X obj 608 304 list trim;
#X obj 608 326 print fx_eq7~;
#X obj 395 257 route lc ls low mid high hs hc state;
#X obj 581 378 s \$0-state;
#X obj 305 34 r \$0-state;
#X connect 0 0 5 0;
#X connect 3 0 6 0;
#X connect 3 1 4 0;
#X connect 4 0 2 0;
#X connect 5 0 8 0;
#X connect 6 0 7 0;
#X connect 7 0 5 1;
#X connect 8 0 9 0;
#X connect 9 0 10 0;
#X connect 10 0 11 0;
#X connect 11 0 12 0;
#X connect 12 0 13 0;
#X connect 13 0 14 0;
#X connect 14 0 1 0;
#X connect 15 0 19 0;
#X connect 16 0 17 0;
#X connect 17 0 18 0;
#X connect 19 0 8 1;
#X connect 19 1 9 1;
#X connect 19 2 10 1;
#X connect 19 3 11 1;
#X connect 19 4 12 1;
#X connect 19 5 13 1;
#X connect 19 6 14 1;
#X connect 19 7 20 0;
#X connect 19 8 16 0;
#X connect 21 0 3 0;
#X restore 64 175 pd eq7;
#X text 40 12 fx_eq7~;
#X obj 327 56 inlet;
#N canvas 82 294 381 223 init 0;
#X obj 144 71 loadbang;
#X obj 144 115 s \$0-state;
#X msg 144 93 0;
#X connect 0 0 2 0;
#X connect 2 0 1 0;
#X restore 344 182 pd init;
#X obj 369 56 r \$0-state;
#X connect 0 0 5 0;
#X connect 0 0 6 0;
#X connect 3 0 5 1;
#X connect 5 0 1 0;
#X connect 6 0 1 0;
#X connect 8 0 6 1;
#X connect 10 0 3 0;
