#N canvas 535 182 522 386 10;
#X text 98 254 (c)2012 Marian Weger;
#X obj 100 100 tgl 14 0 /fx/eq2/\$1/state /fx/eq2/\$1/state E 4 7 0
10 -225280 -225280 -1 1 1;
#X obj 114 100 bng 14 250 50 0 empty empty empty 17 7 0 10 -225280
-1 -1;
#X msg 119 150 vis 1;
#X obj 263 100 sel 0 1;
#X msg 263 150 color \$1 \$1 22;
#X msg 273 180 color \$1 22 22;
#X msg 263 122 7;
#X msg 293 122 17;
#X obj 119 170 s pd-\$0-eq;
#N canvas 945 88 176 74 \$0-eq 0;
#X obj 1 -9 cnv 15 165 40 empty empty empty 20 12 0 14 -233017 -66577
0;
#X text 3 13 LC;
#X text 3 -6 HC;
#X obj 149 -7 tgl 15 0 /fx/eq2/\$1/state /fx/eq2/\$1/state empty 17
7 0 10 -4034 -1 -1 0 1;
#X obj 37 -6 nbx 5 14 20 20000 1 0 /fx/eq2/\$1/hc/f /fx/eq2/\$1/hc/f
empty 0 -8 0 10 -204800 -1 -1 20 256;
#X obj 91 -6 nbx 3 14 0 50 0 0 /fx/eq2/\$1/hc/q /fx/eq2/\$1/hc/q empty
0 -8 0 10 -204800 -1 -1 0 256;
#X obj 23 -6 tgl 14 0 /fx/eq2/\$1/hc/state /fx/eq2/\$1/hc/state empty
17 7 0 10 -204800 -1 -1 0 1;
#X obj 37 13 nbx 5 14 20 20000 1 0 /fx/eq2/\$1/lc/f /fx/eq2/\$1/lc/f
empty 0 -8 0 10 -204800 -1 -1 20 256;
#X obj 91 13 nbx 3 14 0 50 0 0 /fx/eq2/\$1/lc/q /fx/eq2/\$1/lc/q empty
0 -8 0 10 -204800 -1 -1 0 256;
#X obj 23 13 tgl 14 0 /fx/eq2/\$1/lc/state /fx/eq2/\$1/lc/state empty
17 7 0 10 -204800 -1 -1 0 1;
#X restore 256 245 pd \$0-eq;
#X text 42 23 fx_eq2_gui <name>;
#X text 93 52 gui for [fx_eq2~];
#X obj 263 78 r /fx/eq2/\$1/state;
#X connect 2 0 3 0;
#X connect 3 0 9 0;
#X connect 4 0 7 0;
#X connect 4 1 8 0;
#X connect 5 0 1 0;
#X connect 6 0 2 0;
#X connect 7 0 5 0;
#X connect 7 0 6 0;
#X connect 8 0 5 0;
#X connect 8 0 6 0;
#X connect 13 0 4 0;
#X coords 0 -1 1 1 28 14 2 100 100;
