#N canvas 544 38 524 434 10;
#X obj 64 49 inlet~;
#X obj 64 305 outlet~;
#X text 378 243 (c)2012 Marian Weger;
#X obj 439 79 == 0;
#X obj 428 288 outlet;
#X obj 397 56 inlet;
#N canvas 82 294 381 223 init 0;
#X obj 144 71 loadbang;
#X obj 144 115 s \$0-state;
#X msg 144 93 0;
#X connect 0 0 2 0;
#X connect 2 0 1 0;
#X restore 414 182 pd init;
#X obj 439 56 r \$0-state;
#X obj 114 49 inlet~;
#X obj 114 305 outlet~;
#X obj 164 49 inlet~;
#X obj 164 305 outlet~;
#X obj 214 49 inlet~;
#X obj 214 305 outlet~;
#X obj 264 49 inlet~;
#X obj 264 305 outlet~;
#N canvas 77 139 829 610 eq7_5_________ 0;
#X obj 112 26 inlet~;
#X obj 112 550 outlet~;
#X obj 512 108 switch~;
#X obj 485 58 t f f;
#X obj 512 84 1del0 15;
#X obj 112 244 *~;
#X obj 485 131 pack 0 5;
#X obj 485 153 line~;
#X obj 435 34 inlet;
#X obj 648 282 list prepend no method for;
#X obj 648 304 list trim;
#X obj 435 257 route lc ls low mid high hs hc state;
#X obj 621 378 s \$0-state;
#X obj 485 34 r \$0-state;
#X obj 162 26 inlet~;
#X obj 162 550 outlet~;
#X obj 162 244 *~;
#X obj 543 494 outlet;
#X obj 212 26 inlet~;
#X obj 212 550 outlet~;
#X obj 212 244 *~;
#X obj 262 26 inlet~;
#X obj 262 550 outlet~;
#X obj 262 244 *~;
#X obj 312 26 inlet~;
#X obj 312 550 outlet~;
#X obj 312 244 *~;
#X obj 112 293 fx_biquad_5~ highpass 0 50 1 0;
#X obj 112 323 fx_biquad_5~ lowshelf 0 500 1 0;
#X obj 112 353 fx_biquad_5~ peaking 0 100 1 0;
#X obj 112 373 fx_biquad_5~ peaking 0 500 1 0;
#X obj 112 393 fx_biquad_5~ peaking 0 5000 1 0;
#X obj 112 423 fx_biquad_5~ highshelf 0 2000 1 0;
#X obj 112 453 fx_biquad_5~ lowpass 0 20000 1 0;
#X obj 648 326 print fx_eq7_5~;
#X connect 0 0 5 0;
#X connect 3 0 6 0;
#X connect 3 1 4 0;
#X connect 4 0 2 0;
#X connect 5 0 27 0;
#X connect 6 0 7 0;
#X connect 7 0 5 1;
#X connect 7 0 16 1;
#X connect 7 0 20 1;
#X connect 8 0 11 0;
#X connect 9 0 10 0;
#X connect 10 0 34 0;
#X connect 11 0 27 5;
#X connect 11 1 28 5;
#X connect 11 2 29 5;
#X connect 11 3 30 5;
#X connect 11 4 31 5;
#X connect 11 5 32 5;
#X connect 11 6 33 5;
#X connect 11 7 12 0;
#X connect 11 8 9 0;
#X connect 13 0 3 0;
#X connect 14 0 16 0;
#X connect 16 0 27 1;
#X connect 18 0 20 0;
#X connect 20 0 27 2;
#X connect 21 0 23 0;
#X connect 23 0 27 3;
#X connect 24 0 26 0;
#X connect 26 0 27 4;
#X connect 27 0 28 0;
#X connect 27 1 28 1;
#X connect 27 2 28 2;
#X connect 27 3 28 3;
#X connect 27 4 28 4;
#X connect 28 0 29 0;
#X connect 28 1 29 1;
#X connect 28 2 29 2;
#X connect 28 3 29 3;
#X connect 28 4 29 4;
#X connect 29 0 30 0;
#X connect 29 1 30 1;
#X connect 29 2 30 2;
#X connect 29 3 30 3;
#X connect 29 4 30 4;
#X connect 30 0 31 0;
#X connect 30 1 31 1;
#X connect 30 2 31 2;
#X connect 30 3 31 3;
#X connect 30 4 31 4;
#X connect 31 0 32 0;
#X connect 31 1 32 1;
#X connect 31 2 32 2;
#X connect 31 3 32 3;
#X connect 31 4 32 4;
#X connect 32 0 33 0;
#X connect 32 1 33 1;
#X connect 32 2 33 2;
#X connect 32 3 33 3;
#X connect 32 4 33 4;
#X connect 33 0 1 0;
#X connect 33 1 15 0;
#X connect 33 2 19 0;
#X connect 33 3 22 0;
#X connect 33 4 25 0;
#X restore 64 175 pd eq7_5_________;
#X obj 184 175 fx_gain_5~ 0 0 0 0 0 0 0;
#X text 40 12 fx_eq7_5~;
#X connect 0 0 16 0;
#X connect 0 0 17 0;
#X connect 3 0 17 5;
#X connect 5 0 16 5;
#X connect 7 0 3 0;
#X connect 8 0 16 1;
#X connect 8 0 17 1;
#X connect 10 0 16 2;
#X connect 10 0 17 2;
#X connect 12 0 16 3;
#X connect 12 0 17 3;
#X connect 14 0 16 4;
#X connect 14 0 17 4;
#X connect 16 0 1 0;
#X connect 16 1 9 0;
#X connect 16 2 11 0;
#X connect 16 3 13 0;
#X connect 16 4 15 0;
#X connect 17 0 1 0;
#X connect 17 1 9 0;
#X connect 17 2 11 0;
#X connect 17 3 13 0;
#X connect 17 4 15 0;
