#N canvas 544 38 524 434 10;
#X obj 64 49 inlet~;
#X obj 64 305 outlet~;
#X text 338 243 (c)2012 Marian Weger;
#X obj 399 79 == 0;
#X obj 388 288 outlet;
#X obj 357 56 inlet;
#N canvas 82 294 381 223 init 0;
#X obj 144 71 loadbang;
#X obj 144 115 s \$0-state;
#X msg 144 93 0;
#X connect 0 0 2 0;
#X connect 2 0 1 0;
#X restore 374 182 pd init;
#X obj 399 56 r \$0-state;
#X obj 114 49 inlet~;
#X obj 114 305 outlet~;
#N canvas 77 139 794 605 eq7_3_________ 0;
#X obj 112 26 inlet~;
#X obj 112 550 outlet~;
#X obj 332 108 switch~;
#X obj 305 58 t f f;
#X obj 332 84 1del0 15;
#X obj 112 244 *~;
#X obj 305 131 pack 0 5;
#X obj 305 153 line~;
#X obj 395 34 inlet;
#X obj 608 282 list prepend no method for;
#X obj 608 304 list trim;
#X obj 395 257 route lc ls low mid high hs hc state;
#X obj 581 378 s \$0-state;
#X obj 305 34 r \$0-state;
#X obj 162 26 inlet~;
#X obj 162 550 outlet~;
#X obj 162 244 *~;
#X obj 503 494 outlet;
#X obj 112 293 fx_biquad_3~ highpass 0 50 1 0;
#X obj 112 323 fx_biquad_3~ lowshelf 0 500 1 0;
#X obj 112 353 fx_biquad_3~ peaking 0 100 1 0;
#X obj 112 373 fx_biquad_3~ peaking 0 500 1 0;
#X obj 112 393 fx_biquad_3~ peaking 0 5000 1 0;
#X obj 112 423 fx_biquad_3~ highshelf 0 2000 1 0;
#X obj 112 453 fx_biquad_3~ lowpass 0 20000 1 0;
#X obj 212 26 inlet~;
#X obj 212 550 outlet~;
#X obj 212 244 *~;
#X obj 608 326 print fx_eq7_3~;
#X connect 0 0 5 0;
#X connect 3 0 6 0;
#X connect 3 1 4 0;
#X connect 4 0 2 0;
#X connect 5 0 18 0;
#X connect 6 0 7 0;
#X connect 7 0 5 1;
#X connect 7 0 16 1;
#X connect 7 0 27 1;
#X connect 8 0 11 0;
#X connect 9 0 10 0;
#X connect 10 0 28 0;
#X connect 11 0 18 3;
#X connect 11 1 19 3;
#X connect 11 2 20 3;
#X connect 11 3 21 3;
#X connect 11 4 22 3;
#X connect 11 5 23 3;
#X connect 11 6 24 3;
#X connect 11 7 12 0;
#X connect 11 8 9 0;
#X connect 13 0 3 0;
#X connect 14 0 16 0;
#X connect 16 0 18 1;
#X connect 18 0 19 0;
#X connect 18 1 19 1;
#X connect 18 2 19 2;
#X connect 19 0 20 0;
#X connect 19 1 20 1;
#X connect 19 2 20 2;
#X connect 20 0 21 0;
#X connect 20 1 21 1;
#X connect 20 2 21 2;
#X connect 21 0 22 0;
#X connect 21 1 22 1;
#X connect 21 2 22 2;
#X connect 22 0 23 0;
#X connect 22 1 23 1;
#X connect 22 2 23 2;
#X connect 23 0 24 0;
#X connect 23 1 24 1;
#X connect 23 2 24 2;
#X connect 24 0 1 0;
#X connect 24 1 15 0;
#X connect 24 2 26 0;
#X connect 25 0 27 0;
#X connect 27 0 18 2;
#X restore 64 175 pd eq7_3_________;
#X text 40 12 fx_eq7_3~;
#X obj 164 49 inlet~;
#X obj 164 305 outlet~;
#X obj 184 175 fx_gain_3~ 0 0 0 0 0 0 0;
#X connect 0 0 10 0;
#X connect 0 0 14 0;
#X connect 3 0 14 3;
#X connect 5 0 10 3;
#X connect 7 0 3 0;
#X connect 8 0 10 1;
#X connect 8 0 14 1;
#X connect 10 0 1 0;
#X connect 10 1 9 0;
#X connect 10 2 13 0;
#X connect 12 0 10 2;
#X connect 12 0 14 2;
#X connect 14 0 1 0;
#X connect 14 1 9 0;
#X connect 14 2 13 0;
