#N canvas 598 73 536 425 10;
#X text 288 331 (c)2012 Marian Weger;
#X obj 298 128 inlet statelist;
#X obj 298 275 outlet statelist;
#N canvas 752 94 427 633 init 0;
#X obj 32 29 loadbang;
#X obj 32 51 t b b;
#X obj 181 140 outlet;
#X obj 32 181 list prepend \$1 \$2;
#X msg 32 203 \; /fx/eq2/\$1/state 0 \; /fx/eq2/\$1/lc/state 0 \; /fx/eq2/\$1/lc/f
50 \; /fx/eq2/\$1/lc/q 1 \; /fx/eq2/\$1/hc/state 0 \; /fx/eq2/\$1/hc/f
20000 \; /fx/eq2/\$1/hc/q 1 \;;
#X connect 0 0 1 0;
#X connect 1 0 3 0;
#X connect 1 1 2 0;
#X connect 3 0 4 0;
#X restore 401 128 pd init;
#N canvas 335 22 381 729 ds 0;
#X obj 61 49 ds_reg \$2 /fx/eq7/\$1/state nomorph;
#X obj 61 79 ds_reg \$2 /fx/eq2/\$1/lc/state nomorph;
#X obj 61 99 ds_reg \$2 /fx/eq2/\$1/lc/f;
#X obj 61 119 ds_reg \$2 /fx/eq2/\$1/lc/q;
#X obj 61 619 ds_reg \$2 /fx/eq2/\$1/hc/state nomorph;
#X obj 61 639 ds_reg \$2 /fx/eq2/\$1/hc/f;
#X obj 61 659 ds_reg \$2 /fx/eq2/\$1/hc/q;
#X restore 203 224 pd ds;
#X msg 401 150 1;
#N canvas 0 22 1246 470 ctl 0;
#X obj 64 435 outlet;
#X obj 64 80 list prepend state;
#X obj 74 130 list prepend f;
#X obj 84 180 list prepend q;
#X obj 64 262 list prepend lc;
#X obj 64 394 list trim;
#X obj 1054 80 list prepend state;
#X obj 1064 130 list prepend f;
#X obj 1074 180 list prepend q;
#X obj 1054 262 list prepend hc;
#X obj 432 396 list prepend state;
#X obj 432 374 r /fx/eq2/\$1/state;
#X obj 64 58 r /fx/eq2/\$1/lc/state;
#X obj 74 108 r /fx/eq2/\$1/lc/f;
#X obj 84 158 r /fx/eq2/\$1/lc/q;
#X obj 1054 58 r /fx/eq2/\$1/hc/state;
#X obj 1064 108 r /fx/eq2/\$1/hc/f;
#X obj 1074 158 r /fx/eq2/\$1/hc/q;
#X connect 1 0 4 0;
#X connect 2 0 4 0;
#X connect 3 0 4 0;
#X connect 4 0 5 0;
#X connect 5 0 0 0;
#X connect 6 0 9 0;
#X connect 7 0 9 0;
#X connect 8 0 9 0;
#X connect 9 0 5 0;
#X connect 10 0 5 0;
#X connect 11 0 10 0;
#X connect 12 0 1 0;
#X connect 13 0 2 0;
#X connect 14 0 3 0;
#X connect 15 0 6 0;
#X connect 16 0 7 0;
#X connect 17 0 8 0;
#X restore 60 162 pd ctl;
#X obj 60 314 outlet;
#N canvas 335 22 381 729 osc 0;
#X obj 61 619 osc_bi \$2 /fx/eq2/\$1/hc/state;
#X obj 61 639 osc_bi \$2 /fx/eq2/\$1/hc/f;
#X obj 61 659 osc_bi \$2 /fx/eq2/\$1/hc/q;
#X obj 61 49 osc_bi \$2 /fx/eq2/\$1/state;
#X obj 61 79 osc_bi \$2 /fx/eq2/\$1/lc/state;
#X obj 61 99 osc_bi \$2 /fx/eq2/\$1/lc/f;
#X obj 61 119 osc_bi \$2 /fx/eq2/\$1/lc/q;
#X restore 203 244 pd osc;
#X text 40 12 fx_eq2_ctl <name> <domain>;
#X connect 1 0 2 0;
#X connect 3 0 5 0;
#X connect 5 0 2 0;
#X connect 6 0 7 0;
