#N canvas 329 73 661 453 10;
#X obj 64 49 inlet~;
#X obj 64 305 outlet~;
#X text 468 243 (c)2012 Marian Weger;
#X obj 529 79 == 0;
#X obj 518 288 outlet;
#X obj 487 56 inlet;
#N canvas 82 294 381 223 init 0;
#X obj 144 71 loadbang;
#X obj 144 115 s \$0-state;
#X msg 144 93 0;
#X connect 0 0 2 0;
#X connect 2 0 1 0;
#X restore 504 182 pd init;
#X obj 529 56 r \$0-state;
#X obj 114 49 inlet~;
#X obj 114 305 outlet~;
#X obj 164 49 inlet~;
#X obj 164 305 outlet~;
#X obj 214 49 inlet~;
#X obj 214 305 outlet~;
#X obj 264 49 inlet~;
#X obj 264 305 outlet~;
#X obj 314 49 inlet~;
#X obj 314 305 outlet~;
#X text 40 12 fx_eq7_8~;
#N canvas 77 139 946 617 eq7_8_________ 0;
#X obj 112 26 inlet~;
#X obj 112 550 outlet~;
#X obj 612 108 switch~;
#X obj 585 58 t f f;
#X obj 612 84 1del0 15;
#X obj 112 244 *~;
#X obj 585 131 pack 0 5;
#X obj 585 153 line~;
#X obj 535 34 inlet;
#X obj 748 282 list prepend no method for;
#X obj 748 304 list trim;
#X obj 535 257 route lc ls low mid high hs hc state;
#X obj 721 378 s \$0-state;
#X obj 585 34 r \$0-state;
#X obj 162 26 inlet~;
#X obj 162 550 outlet~;
#X obj 162 244 *~;
#X obj 643 494 outlet;
#X obj 212 26 inlet~;
#X obj 212 550 outlet~;
#X obj 212 244 *~;
#X obj 262 26 inlet~;
#X obj 262 550 outlet~;
#X obj 262 244 *~;
#X obj 312 26 inlet~;
#X obj 312 550 outlet~;
#X obj 312 244 *~;
#X obj 362 26 inlet~;
#X obj 362 550 outlet~;
#X obj 362 244 *~;
#X obj 412 26 inlet~;
#X obj 412 550 outlet~;
#X obj 412 244 *~;
#X obj 462 26 inlet~;
#X obj 462 550 outlet~;
#X obj 462 244 *~;
#X obj 232 293 fx_biquad_8~ highpass 0 50 1 0;
#X obj 232 323 fx_biquad_8~ lowshelf 0 500 1 0;
#X obj 232 353 fx_biquad_8~ peaking 0 100 1 0;
#X obj 232 373 fx_biquad_8~ peaking 0 500 1 0;
#X obj 232 393 fx_biquad_8~ peaking 0 5000 1 0;
#X obj 232 423 fx_biquad_8~ highshelf 0 2000 1 0;
#X obj 232 453 fx_biquad_8~ lowpass 0 20000 1 0;
#X obj 748 326 print fx_eq7_8~;
#X connect 0 0 5 0;
#X connect 3 0 6 0;
#X connect 3 1 4 0;
#X connect 4 0 2 0;
#X connect 5 0 36 0;
#X connect 6 0 7 0;
#X connect 7 0 5 1;
#X connect 7 0 16 1;
#X connect 7 0 20 1;
#X connect 7 0 35 1;
#X connect 7 0 32 1;
#X connect 7 0 29 1;
#X connect 7 0 26 1;
#X connect 7 0 23 1;
#X connect 8 0 11 0;
#X connect 9 0 10 0;
#X connect 10 0 43 0;
#X connect 11 0 36 8;
#X connect 11 1 37 8;
#X connect 11 2 38 8;
#X connect 11 3 39 8;
#X connect 11 4 40 8;
#X connect 11 5 41 8;
#X connect 11 6 42 8;
#X connect 11 7 12 0;
#X connect 11 8 9 0;
#X connect 13 0 3 0;
#X connect 14 0 16 0;
#X connect 16 0 36 1;
#X connect 18 0 20 0;
#X connect 20 0 36 2;
#X connect 21 0 23 0;
#X connect 23 0 36 3;
#X connect 24 0 26 0;
#X connect 26 0 36 4;
#X connect 27 0 29 0;
#X connect 29 0 36 5;
#X connect 30 0 32 0;
#X connect 32 0 36 6;
#X connect 33 0 35 0;
#X connect 35 0 36 7;
#X connect 36 0 37 0;
#X connect 36 1 37 1;
#X connect 36 2 37 2;
#X connect 36 3 37 3;
#X connect 36 4 37 4;
#X connect 36 5 37 5;
#X connect 36 6 37 6;
#X connect 36 7 37 7;
#X connect 37 0 38 0;
#X connect 37 1 38 1;
#X connect 37 2 38 2;
#X connect 37 3 38 3;
#X connect 37 4 38 4;
#X connect 37 5 38 5;
#X connect 37 6 38 6;
#X connect 37 7 38 7;
#X connect 38 0 39 0;
#X connect 38 1 39 1;
#X connect 38 2 39 2;
#X connect 38 3 39 3;
#X connect 38 4 39 4;
#X connect 38 5 39 5;
#X connect 38 6 39 6;
#X connect 38 7 39 7;
#X connect 39 0 40 0;
#X connect 39 1 40 1;
#X connect 39 2 40 2;
#X connect 39 3 40 3;
#X connect 39 4 40 4;
#X connect 39 5 40 5;
#X connect 39 6 40 6;
#X connect 39 7 40 7;
#X connect 40 0 41 0;
#X connect 40 1 41 1;
#X connect 40 2 41 2;
#X connect 40 3 41 3;
#X connect 40 4 41 4;
#X connect 40 5 41 5;
#X connect 40 6 41 6;
#X connect 40 7 41 7;
#X connect 41 0 42 0;
#X connect 41 1 42 1;
#X connect 41 2 42 2;
#X connect 41 3 42 3;
#X connect 41 4 42 4;
#X connect 41 5 42 5;
#X connect 41 6 42 6;
#X connect 41 7 42 7;
#X connect 42 0 1 0;
#X connect 42 1 15 0;
#X connect 42 2 19 0;
#X connect 42 3 22 0;
#X connect 42 4 25 0;
#X connect 42 5 28 0;
#X connect 42 6 31 0;
#X connect 42 7 34 0;
#X restore 154 175 pd eq7_8_________;
#X obj 274 175 fx_gain_8~ 0 0 0 0 0 0 0;
#X obj 364 49 inlet~;
#X obj 364 305 outlet~;
#X obj 414 49 inlet~;
#X obj 414 305 outlet~;
#X connect 0 0 19 0;
#X connect 0 0 20 0;
#X connect 3 0 20 8;
#X connect 5 0 19 8;
#X connect 7 0 3 0;
#X connect 8 0 19 1;
#X connect 8 0 20 1;
#X connect 10 0 19 2;
#X connect 10 0 20 2;
#X connect 12 0 19 3;
#X connect 12 0 20 3;
#X connect 14 0 19 4;
#X connect 14 0 20 4;
#X connect 16 0 19 5;
#X connect 16 0 20 5;
#X connect 19 0 1 0;
#X connect 19 1 9 0;
#X connect 19 2 11 0;
#X connect 19 3 13 0;
#X connect 19 4 15 0;
#X connect 19 5 17 0;
#X connect 19 6 22 0;
#X connect 19 7 24 0;
#X connect 20 0 1 0;
#X connect 20 1 9 0;
#X connect 20 2 11 0;
#X connect 20 3 13 0;
#X connect 20 4 15 0;
#X connect 20 5 17 0;
#X connect 20 6 22 0;
#X connect 20 7 24 0;
#X connect 21 0 19 6;
#X connect 21 0 20 6;
#X connect 23 0 19 7;
#X connect 23 0 20 7;
