#N canvas 544 38 524 434 10;
#X obj 64 49 inlet~;
#X obj 64 305 outlet~;
#X text 378 243 (c)2012 Marian Weger;
#X obj 439 79 == 0;
#X obj 428 288 outlet;
#X obj 397 56 inlet;
#N canvas 82 294 381 223 init 0;
#X obj 144 71 loadbang;
#X obj 144 115 s \$0-state;
#X msg 144 93 0;
#X connect 0 0 2 0;
#X connect 2 0 1 0;
#X restore 414 182 pd init;
#X obj 439 56 r \$0-state;
#X obj 114 49 inlet~;
#X obj 114 305 outlet~;
#X obj 164 49 inlet~;
#X obj 164 305 outlet~;
#X obj 214 49 inlet~;
#X obj 214 305 outlet~;
#X obj 264 49 inlet~;
#X obj 264 305 outlet~;
#X text 40 12 fx_eq7_6~;
#X obj 184 175 fx_gain_6~ 0 0 0 0 0 0 0;
#X obj 314 49 inlet~;
#X obj 314 305 outlet~;
#N canvas 77 139 829 610 eq7_6_________ 0;
#X obj 112 26 inlet~;
#X obj 112 550 outlet~;
#X obj 512 108 switch~;
#X obj 485 58 t f f;
#X obj 512 84 1del0 15;
#X obj 112 244 *~;
#X obj 485 131 pack 0 5;
#X obj 485 153 line~;
#X obj 435 34 inlet;
#X obj 648 282 list prepend no method for;
#X obj 648 304 list trim;
#X obj 435 257 route lc ls low mid high hs hc state;
#X obj 621 378 s \$0-state;
#X obj 485 34 r \$0-state;
#X obj 162 26 inlet~;
#X obj 162 550 outlet~;
#X obj 162 244 *~;
#X obj 543 494 outlet;
#X obj 212 26 inlet~;
#X obj 212 550 outlet~;
#X obj 212 244 *~;
#X obj 262 26 inlet~;
#X obj 262 550 outlet~;
#X obj 262 244 *~;
#X obj 312 26 inlet~;
#X obj 312 550 outlet~;
#X obj 312 244 *~;
#X obj 362 26 inlet~;
#X obj 362 550 outlet~;
#X obj 362 244 *~;
#X obj 112 293 fx_biquad_6~ highpass 0 50 1 0;
#X obj 112 323 fx_biquad_6~ lowshelf 0 500 1 0;
#X obj 112 353 fx_biquad_6~ peaking 0 100 1 0;
#X obj 112 373 fx_biquad_6~ peaking 0 500 1 0;
#X obj 112 393 fx_biquad_6~ peaking 0 5000 1 0;
#X obj 112 423 fx_biquad_6~ highshelf 0 2000 1 0;
#X obj 112 453 fx_biquad_6~ lowpass 0 20000 1 0;
#X obj 648 326 print fx_eq7_6~;
#X connect 0 0 5 0;
#X connect 3 0 6 0;
#X connect 3 1 4 0;
#X connect 4 0 2 0;
#X connect 5 0 30 0;
#X connect 6 0 7 0;
#X connect 7 0 5 1;
#X connect 7 0 16 1;
#X connect 7 0 20 1;
#X connect 8 0 11 0;
#X connect 9 0 10 0;
#X connect 10 0 37 0;
#X connect 11 0 30 6;
#X connect 11 1 31 6;
#X connect 11 2 32 6;
#X connect 11 3 33 6;
#X connect 11 4 34 6;
#X connect 11 5 35 6;
#X connect 11 6 36 6;
#X connect 11 7 12 0;
#X connect 11 8 9 0;
#X connect 13 0 3 0;
#X connect 14 0 16 0;
#X connect 16 0 30 1;
#X connect 18 0 20 0;
#X connect 20 0 30 2;
#X connect 21 0 23 0;
#X connect 23 0 30 3;
#X connect 24 0 26 0;
#X connect 26 0 30 4;
#X connect 27 0 29 0;
#X connect 29 0 30 5;
#X connect 30 0 31 0;
#X connect 30 1 31 1;
#X connect 30 2 31 2;
#X connect 30 3 31 3;
#X connect 30 4 31 4;
#X connect 30 5 31 5;
#X connect 31 0 32 0;
#X connect 31 1 32 1;
#X connect 31 2 32 2;
#X connect 31 3 32 3;
#X connect 31 4 32 4;
#X connect 31 5 32 5;
#X connect 32 0 33 0;
#X connect 32 1 33 1;
#X connect 32 2 33 2;
#X connect 32 3 33 3;
#X connect 32 4 33 4;
#X connect 32 5 33 5;
#X connect 33 0 34 0;
#X connect 33 1 34 1;
#X connect 33 2 34 2;
#X connect 33 3 34 3;
#X connect 33 4 34 4;
#X connect 33 5 34 5;
#X connect 34 0 35 0;
#X connect 34 1 35 1;
#X connect 34 2 35 2;
#X connect 34 3 35 3;
#X connect 34 4 35 4;
#X connect 34 5 35 5;
#X connect 35 0 36 0;
#X connect 35 1 36 1;
#X connect 35 2 36 2;
#X connect 35 3 36 3;
#X connect 35 4 36 4;
#X connect 35 5 36 5;
#X connect 36 0 1 0;
#X connect 36 1 15 0;
#X connect 36 2 19 0;
#X connect 36 3 22 0;
#X connect 36 4 25 0;
#X connect 36 5 28 0;
#X restore 64 175 pd eq7_6_________;
#X connect 0 0 20 0;
#X connect 0 0 17 0;
#X connect 3 0 17 6;
#X connect 5 0 20 6;
#X connect 7 0 3 0;
#X connect 8 0 20 1;
#X connect 8 0 17 1;
#X connect 10 0 20 2;
#X connect 10 0 17 2;
#X connect 12 0 20 3;
#X connect 12 0 17 3;
#X connect 14 0 20 4;
#X connect 14 0 17 4;
#X connect 17 0 1 0;
#X connect 17 1 9 0;
#X connect 17 2 11 0;
#X connect 17 3 13 0;
#X connect 17 4 15 0;
#X connect 17 5 19 0;
#X connect 18 0 20 5;
#X connect 18 0 17 5;
#X connect 20 0 1 0;
#X connect 20 1 9 0;
#X connect 20 2 11 0;
#X connect 20 3 13 0;
#X connect 20 4 15 0;
#X connect 20 5 19 0;
