#N canvas 542 54 524 434 10;
#X obj 64 49 inlet~;
#X obj 64 305 outlet~;
#X text 338 243 (c)2012 Marian Weger;
#X obj 399 79 == 0;
#X obj 388 288 outlet;
#X obj 357 56 inlet;
#N canvas 82 294 381 223 init 0;
#X obj 144 71 loadbang;
#X obj 144 115 s \$0-state;
#X msg 144 93 0;
#X connect 0 0 2 0;
#X connect 2 0 1 0;
#X restore 374 182 pd init;
#X obj 399 56 r \$0-state;
#X obj 114 49 inlet~;
#X obj 114 305 outlet~;
#X obj 164 49 inlet~;
#X obj 164 305 outlet~;
#N canvas 75 140 794 605 eq7_4_________ 1;
#X obj 112 26 inlet~;
#X obj 112 550 outlet~;
#X obj 472 108 switch~;
#X obj 445 58 t f f;
#X obj 472 84 1del0 15;
#X obj 112 244 *~;
#X obj 445 131 pack 0 5;
#X obj 444 158 line~;
#X obj 395 34 inlet;
#X obj 608 282 list prepend no method for;
#X obj 608 304 list trim;
#X obj 395 257 route lc ls low mid high hs hc state;
#X obj 581 378 s \$0-state;
#X obj 445 34 r \$0-state;
#X obj 162 26 inlet~;
#X obj 162 550 outlet~;
#X obj 162 244 *~;
#X obj 503 494 outlet;
#X obj 212 26 inlet~;
#X obj 212 550 outlet~;
#X obj 212 244 *~;
#X obj 262 26 inlet~;
#X obj 262 550 outlet~;
#X obj 262 244 *~;
#X obj 112 293 fx_biquad_4~ highpass 0 50 1 0;
#X obj 112 323 fx_biquad_4~ lowshelf 0 500 1 0;
#X obj 112 353 fx_biquad_4~ peaking 0 100 1 0;
#X obj 112 373 fx_biquad_4~ peaking 0 500 1 0;
#X obj 112 393 fx_biquad_4~ peaking 0 5000 1 0;
#X obj 112 423 fx_biquad_4~ highshelf 0 2000 1 0;
#X obj 112 453 fx_biquad_4~ lowpass 0 20000 1 0;
#X obj 608 326 print fx_eq7_4~;
#X connect 0 0 5 0;
#X connect 3 0 6 0;
#X connect 3 1 4 0;
#X connect 4 0 2 0;
#X connect 5 0 24 0;
#X connect 6 0 7 0;
#X connect 7 0 5 1;
#X connect 7 0 16 1;
#X connect 7 0 20 1;
#X connect 7 0 23 1;
#X connect 8 0 11 0;
#X connect 9 0 10 0;
#X connect 10 0 31 0;
#X connect 11 0 24 4;
#X connect 11 1 25 4;
#X connect 11 2 26 4;
#X connect 11 3 27 4;
#X connect 11 4 28 4;
#X connect 11 5 29 4;
#X connect 11 6 30 4;
#X connect 11 7 12 0;
#X connect 11 8 9 0;
#X connect 13 0 3 0;
#X connect 14 0 16 0;
#X connect 16 0 24 1;
#X connect 18 0 20 0;
#X connect 20 0 24 2;
#X connect 21 0 23 0;
#X connect 23 0 24 3;
#X connect 24 0 25 0;
#X connect 24 1 25 1;
#X connect 24 2 25 2;
#X connect 24 3 25 3;
#X connect 25 0 26 0;
#X connect 25 1 26 1;
#X connect 25 2 26 2;
#X connect 25 3 26 3;
#X connect 26 0 27 0;
#X connect 26 1 27 1;
#X connect 26 2 27 2;
#X connect 26 3 27 3;
#X connect 27 0 28 0;
#X connect 27 1 28 1;
#X connect 27 2 28 2;
#X connect 27 3 28 3;
#X connect 28 0 29 0;
#X connect 28 1 29 1;
#X connect 28 2 29 2;
#X connect 28 3 29 3;
#X connect 29 0 30 0;
#X connect 29 1 30 1;
#X connect 29 2 30 2;
#X connect 29 3 30 3;
#X connect 30 0 1 0;
#X connect 30 1 15 0;
#X connect 30 2 19 0;
#X connect 30 3 22 0;
#X restore 64 175 pd eq7_4_________;
#X obj 184 175 fx_gain_4~ 0 0 0 0 0 0 0;
#X obj 214 49 inlet~;
#X obj 214 305 outlet~;
#X text 40 12 fx_eq7_4~;
#X connect 0 0 12 0;
#X connect 0 0 13 0;
#X connect 3 0 13 4;
#X connect 5 0 12 4;
#X connect 7 0 3 0;
#X connect 8 0 12 1;
#X connect 8 0 13 1;
#X connect 10 0 12 2;
#X connect 10 0 13 2;
#X connect 12 0 1 0;
#X connect 12 1 9 0;
#X connect 12 2 11 0;
#X connect 12 3 15 0;
#X connect 13 0 1 0;
#X connect 13 1 9 0;
#X connect 13 2 11 0;
#X connect 13 3 15 0;
#X connect 14 0 12 3;
#X connect 14 0 13 3;
