#N canvas 598 73 536 425 10;
#X text 288 331 (c)2012 Marian Weger;
#X obj 298 128 inlet statelist;
#X obj 298 275 outlet statelist;
#N canvas 752 94 427 633 init 0;
#X obj 32 29 loadbang;
#X obj 32 51 t b b;
#X obj 181 140 outlet;
#X obj 32 181 list prepend \$1 \$2;
#X msg 32 203 \; /fx/eq7/\$1/state 0 \; /fx/eq7/\$1/lc/state 0 \; /fx/eq7/\$1/lc/f
50 \; /fx/eq7/\$1/lc/q 1 \; /fx/eq7/\$1/ls/state 0 \; /fx/eq7/\$1/ls/f
500 \; /fx/eq7/\$1/ls/q 1 \; /fx/eq7/\$1/ls/gain 0 \; /fx/eq7/\$1/low/state
0 \; /fx/eq7/\$1/low/f 100 \; /fx/eq7/\$1/low/q 1 \; /fx/eq7/\$1/low/gain
0 \; /fx/eq7/\$1/mid/state 0 \; /fx/eq7/\$1/mid/f 500 \; /fx/eq7/\$1/mid/q
1 \; /fx/eq7/\$1/mid/gain 0 \; /fx/eq7/\$1/high/state 0 \; /fx/eq7/\$1/high/f
5000 \; /fx/eq7/\$1/high/q 1 \; /fx/eq7/\$1/high/gain 0 \; /fx/eq7/\$1/hs/state
0 \; /fx/eq7/\$1/hs/f 2000 \; /fx/eq7/\$1/hs/q 1 \; /fx/eq7/\$1/hs/gain
0 \; /fx/eq7/\$1/hc/state 0 \; /fx/eq7/\$1/hc/f 20000 \; /fx/eq7/\$1/hc/q
1 \;;
#X connect 0 0 1 0;
#X connect 1 0 3 0;
#X connect 1 1 2 0;
#X connect 3 0 4 0;
#X restore 401 128 pd init;
#N canvas 335 22 381 729 ds 0;
#X obj 61 49 ds_reg \$2 /fx/eq7/\$1/state nomorph;
#X obj 61 79 ds_reg \$2 /fx/eq7/\$1/lc/state nomorph;
#X obj 61 99 ds_reg \$2 /fx/eq7/\$1/lc/f;
#X obj 61 119 ds_reg \$2 /fx/eq7/\$1/lc/q;
#X obj 61 169 ds_reg \$2 /fx/eq7/\$1/ls/state nomorph;
#X obj 61 189 ds_reg \$2 /fx/eq7/\$1/ls/f;
#X obj 61 209 ds_reg \$2 /fx/eq7/\$1/ls/q;
#X obj 61 229 ds_reg \$2 /fx/eq7/\$1/ls/gain;
#X obj 61 259 ds_reg \$2 /fx/eq7/\$1/low/state nomorph;
#X obj 61 279 ds_reg \$2 /fx/eq7/\$1/low/f;
#X obj 61 299 ds_reg \$2 /fx/eq7/\$1/low/q;
#X obj 61 319 ds_reg \$2 /fx/eq7/\$1/low/gain;
#X obj 61 349 ds_reg \$2 /fx/eq7/\$1/mid/state nomorph;
#X obj 61 369 ds_reg \$2 /fx/eq7/\$1/mid/f;
#X obj 61 389 ds_reg \$2 /fx/eq7/\$1/mid/q;
#X obj 61 409 ds_reg \$2 /fx/eq7/\$1/mid/gain;
#X obj 61 439 ds_reg \$2 /fx/eq7/\$1/high/state nomorph;
#X obj 61 459 ds_reg \$2 /fx/eq7/\$1/high/f;
#X obj 61 479 ds_reg \$2 /fx/eq7/\$1/high/q;
#X obj 61 499 ds_reg \$2 /fx/eq7/\$1/high/gain;
#X obj 61 529 ds_reg \$2 /fx/eq7/\$1/hs/state nomorph;
#X obj 61 549 ds_reg \$2 /fx/eq7/\$1/hs/f;
#X obj 61 569 ds_reg \$2 /fx/eq7/\$1/hs/q;
#X obj 61 589 ds_reg \$2 /fx/eq7/\$1/hs/gain;
#X obj 61 619 ds_reg \$2 /fx/eq7/\$1/hc/state nomorph;
#X obj 61 639 ds_reg \$2 /fx/eq7/\$1/hc/f;
#X obj 61 659 ds_reg \$2 /fx/eq7/\$1/hc/q;
#X restore 203 224 pd ds;
#X msg 401 150 1;
#X text 40 12 fx_eq7_ctl <name> <domain>;
#N canvas 0 22 1246 470 ctl 0;
#X obj 64 435 outlet;
#X obj 64 80 list prepend state;
#X obj 74 130 list prepend f;
#X obj 84 180 list prepend q;
#X obj 64 262 list prepend lc;
#X obj 64 394 list trim;
#X obj 64 58 r /fx/eq7/\$1/lc/state;
#X obj 74 108 r /fx/eq7/\$1/lc/f;
#X obj 84 158 r /fx/eq7/\$1/lc/q;
#X obj 224 80 list prepend state;
#X obj 234 130 list prepend f;
#X obj 244 180 list prepend q;
#X obj 254 230 list prepend gain;
#X obj 224 58 r /fx/eq7/\$1/ls/state;
#X obj 234 108 r /fx/eq7/\$1/ls/f;
#X obj 244 158 r /fx/eq7/\$1/ls/q;
#X obj 254 208 r /fx/eq7/\$1/ls/gain;
#X obj 384 80 list prepend state;
#X obj 394 130 list prepend f;
#X obj 404 180 list prepend q;
#X obj 414 230 list prepend gain;
#X obj 224 262 list prepend ls;
#X obj 384 262 list prepend low;
#X obj 384 58 r /fx/eq7/\$1/low/state;
#X obj 394 108 r /fx/eq7/\$1/low/f;
#X obj 404 158 r /fx/eq7/\$1/low/q;
#X obj 414 208 r /fx/eq7/\$1/low/gain;
#X obj 554 80 list prepend state;
#X obj 564 130 list prepend f;
#X obj 574 180 list prepend q;
#X obj 584 230 list prepend gain;
#X obj 554 58 r /fx/eq7/\$1/mid/state;
#X obj 564 108 r /fx/eq7/\$1/mid/f;
#X obj 574 158 r /fx/eq7/\$1/mid/q;
#X obj 584 208 r /fx/eq7/\$1/mid/gain;
#X obj 724 80 list prepend state;
#X obj 734 130 list prepend f;
#X obj 744 180 list prepend q;
#X obj 754 230 list prepend gain;
#X obj 554 262 list prepend mid;
#X obj 724 262 list prepend high;
#X obj 724 58 r /fx/eq7/\$1/high/state;
#X obj 734 108 r /fx/eq7/\$1/high/f;
#X obj 744 158 r /fx/eq7/\$1/high/q;
#X obj 754 208 r /fx/eq7/\$1/high/gain;
#X obj 894 80 list prepend state;
#X obj 904 130 list prepend f;
#X obj 914 180 list prepend q;
#X obj 924 230 list prepend gain;
#X obj 894 58 r /fx/eq7/\$1/hs/state;
#X obj 904 108 r /fx/eq7/\$1/hs/f;
#X obj 914 158 r /fx/eq7/\$1/hs/q;
#X obj 924 208 r /fx/eq7/\$1/hs/gain;
#X obj 894 262 list prepend hs;
#X obj 1054 80 list prepend state;
#X obj 1064 130 list prepend f;
#X obj 1074 180 list prepend q;
#X obj 1054 58 r /fx/eq7/\$1/hc/state;
#X obj 1064 108 r /fx/eq7/\$1/hc/f;
#X obj 1074 158 r /fx/eq7/\$1/hc/q;
#X obj 1054 262 list prepend hc;
#X obj 432 374 r /fx/eq7/\$1/state;
#X obj 432 396 list prepend state;
#X connect 1 0 4 0;
#X connect 2 0 4 0;
#X connect 3 0 4 0;
#X connect 4 0 5 0;
#X connect 5 0 0 0;
#X connect 6 0 1 0;
#X connect 7 0 2 0;
#X connect 8 0 3 0;
#X connect 9 0 21 0;
#X connect 10 0 21 0;
#X connect 11 0 21 0;
#X connect 12 0 21 0;
#X connect 13 0 9 0;
#X connect 14 0 10 0;
#X connect 15 0 11 0;
#X connect 16 0 12 0;
#X connect 17 0 22 0;
#X connect 18 0 22 0;
#X connect 19 0 22 0;
#X connect 20 0 22 0;
#X connect 21 0 5 0;
#X connect 22 0 5 0;
#X connect 23 0 17 0;
#X connect 24 0 18 0;
#X connect 25 0 19 0;
#X connect 26 0 20 0;
#X connect 27 0 39 0;
#X connect 28 0 39 0;
#X connect 29 0 39 0;
#X connect 30 0 39 0;
#X connect 31 0 27 0;
#X connect 32 0 28 0;
#X connect 33 0 29 0;
#X connect 34 0 30 0;
#X connect 35 0 40 0;
#X connect 36 0 40 0;
#X connect 37 0 40 0;
#X connect 38 0 40 0;
#X connect 39 0 5 0;
#X connect 40 0 5 0;
#X connect 41 0 35 0;
#X connect 42 0 36 0;
#X connect 43 0 37 0;
#X connect 44 0 38 0;
#X connect 45 0 53 0;
#X connect 46 0 53 0;
#X connect 47 0 53 0;
#X connect 48 0 53 0;
#X connect 49 0 45 0;
#X connect 50 0 46 0;
#X connect 51 0 47 0;
#X connect 52 0 48 0;
#X connect 53 0 5 0;
#X connect 54 0 60 0;
#X connect 55 0 60 0;
#X connect 56 0 60 0;
#X connect 57 0 54 0;
#X connect 58 0 55 0;
#X connect 59 0 56 0;
#X connect 60 0 5 0;
#X connect 61 0 62 0;
#X connect 62 0 5 0;
#X restore 60 162 pd ctl;
#X obj 60 314 outlet;
#N canvas 335 22 381 729 osc 0;
#X obj 61 99 osc_bi \$2 /fx/eq7/\$1/lc/f;
#X obj 61 119 osc_bi \$2 /fx/eq7/\$1/lc/q;
#X obj 61 189 osc_bi \$2 /fx/eq7/\$1/ls/f;
#X obj 61 209 osc_bi \$2 /fx/eq7/\$1/ls/q;
#X obj 61 229 osc_bi \$2 /fx/eq7/\$1/ls/gain;
#X obj 61 279 osc_bi \$2 /fx/eq7/\$1/low/f;
#X obj 61 299 osc_bi \$2 /fx/eq7/\$1/low/q;
#X obj 61 319 osc_bi \$2 /fx/eq7/\$1/low/gain;
#X obj 61 369 osc_bi \$2 /fx/eq7/\$1/mid/f;
#X obj 61 389 osc_bi \$2 /fx/eq7/\$1/mid/q;
#X obj 61 409 osc_bi \$2 /fx/eq7/\$1/mid/gain;
#X obj 61 459 osc_bi \$2 /fx/eq7/\$1/high/f;
#X obj 61 479 osc_bi \$2 /fx/eq7/\$1/high/q;
#X obj 61 499 osc_bi \$2 /fx/eq7/\$1/high/gain;
#X obj 61 549 osc_bi \$2 /fx/eq7/\$1/hs/f;
#X obj 61 569 osc_bi \$2 /fx/eq7/\$1/hs/q;
#X obj 61 589 osc_bi \$2 /fx/eq7/\$1/hs/gain;
#X obj 61 639 osc_bi \$2 /fx/eq7/\$1/hc/f;
#X obj 61 659 osc_bi \$2 /fx/eq7/\$1/hc/q;
#X obj 61 619 osc_bi \$2 /fx/eq7/\$1/hc/state;
#X obj 61 529 osc_bi \$2 /fx/eq7/\$1/hs/state;
#X obj 61 439 osc_bi \$2 /fx/eq7/\$1/high/state;
#X obj 61 349 osc_bi \$2 /fx/eq7/\$1/mid/state;
#X obj 61 259 osc_bi \$2 /fx/eq7/\$1/low/state;
#X obj 61 169 osc_bi \$2 /fx/eq7/\$1/ls/state;
#X obj 61 79 osc_bi \$2 /fx/eq7/\$1/lc/state;
#X obj 61 49 osc_bi \$2 /fx/eq7/\$1/state;
#X restore 203 244 pd osc;
#X connect 1 0 2 0;
#X connect 3 0 5 0;
#X connect 5 0 2 0;
#X connect 7 0 8 0;
