#N canvas 329 73 932 536 10;
#X obj 64 49 inlet~;
#X obj 64 305 outlet~;
#X obj 1329 79 == 0;
#X obj 1318 288 outlet;
#X obj 1287 56 inlet;
#N canvas 82 294 381 223 init 0;
#X obj 144 71 loadbang;
#X obj 144 115 s \$0-state;
#X msg 144 93 0;
#X connect 0 0 2 0;
#X connect 2 0 1 0;
#X restore 1304 182 pd init;
#X obj 1329 56 r \$0-state;
#X obj 114 49 inlet~;
#X obj 114 305 outlet~;
#X obj 164 49 inlet~;
#X obj 164 305 outlet~;
#X obj 214 49 inlet~;
#X obj 214 305 outlet~;
#X obj 264 49 inlet~;
#X obj 264 305 outlet~;
#X obj 314 49 inlet~;
#X obj 314 305 outlet~;
#X obj 364 49 inlet~;
#X obj 364 305 outlet~;
#X obj 414 49 inlet~;
#X obj 414 305 outlet~;
#X text 40 12 fx_eq7_24~;
#X obj 814 175 fx_gain_24~ 0 0 0 0 0 0 0 0 0 0 0 0 0 0 0 0 0 0 0 0
0 0 0 0;
#N canvas 77 139 946 617 eq7_24___________________________________________________
0;
#X obj 112 26 inlet~;
#X obj 112 550 outlet~;
#X obj 1412 108 switch~;
#X obj 1385 58 t f f;
#X obj 1412 84 1del0 15;
#X obj 112 244 *~;
#X obj 1385 131 pack 0 5;
#X obj 1385 153 line~;
#X obj 1335 34 inlet;
#X obj 1548 282 list prepend no method for;
#X obj 1548 304 list trim;
#X obj 1335 257 route lc ls low mid high hs hc state;
#X obj 1521 378 s \$0-state;
#X obj 1385 34 r \$0-state;
#X obj 162 26 inlet~;
#X obj 162 550 outlet~;
#X obj 162 244 *~;
#X obj 1443 494 outlet;
#X obj 212 26 inlet~;
#X obj 212 550 outlet~;
#X obj 212 244 *~;
#X obj 262 26 inlet~;
#X obj 262 550 outlet~;
#X obj 262 244 *~;
#X obj 312 26 inlet~;
#X obj 312 550 outlet~;
#X obj 312 244 *~;
#X obj 362 26 inlet~;
#X obj 362 550 outlet~;
#X obj 362 244 *~;
#X obj 412 26 inlet~;
#X obj 412 550 outlet~;
#X obj 412 244 *~;
#X obj 462 26 inlet~;
#X obj 462 550 outlet~;
#X obj 462 244 *~;
#X obj 512 26 inlet~;
#X obj 512 550 outlet~;
#X obj 512 244 *~;
#X obj 562 26 inlet~;
#X obj 562 550 outlet~;
#X obj 562 244 *~;
#X obj 612 26 inlet~;
#X obj 612 550 outlet~;
#X obj 612 244 *~;
#X obj 662 26 inlet~;
#X obj 662 550 outlet~;
#X obj 662 244 *~;
#X obj 712 26 inlet~;
#X obj 712 550 outlet~;
#X obj 712 244 *~;
#X obj 762 26 inlet~;
#X obj 762 550 outlet~;
#X obj 762 244 *~;
#X obj 812 26 inlet~;
#X obj 812 550 outlet~;
#X obj 812 244 *~;
#X obj 862 26 inlet~;
#X obj 862 550 outlet~;
#X obj 862 244 *~;
#X obj 912 26 inlet~;
#X obj 912 550 outlet~;
#X obj 912 244 *~;
#X obj 962 26 inlet~;
#X obj 962 550 outlet~;
#X obj 962 244 *~;
#X obj 1012 26 inlet~;
#X obj 1012 550 outlet~;
#X obj 1012 244 *~;
#X obj 1062 26 inlet~;
#X obj 1062 550 outlet~;
#X obj 1062 244 *~;
#X obj 1112 26 inlet~;
#X obj 1112 550 outlet~;
#X obj 1112 244 *~;
#X obj 1162 26 inlet~;
#X obj 1162 550 outlet~;
#X obj 1162 244 *~;
#X obj 1212 26 inlet~;
#X obj 1212 550 outlet~;
#X obj 1212 244 *~;
#X obj 1262 26 inlet~;
#X obj 1262 550 outlet~;
#X obj 1262 244 *~;
#X obj 532 293 fx_biquad_24~ highpass 0 50 1 0 0 0 0 0 0 0 0 0 0 0
0 0 0 0;
#X obj 532 353 fx_biquad_24~ peaking 0 100 1 0 0 0 0 0 0 0 0 0 0 0
0 0 0 0;
#X obj 532 323 fx_biquad_24~ lowshelf 0 500 1 0 0 0 0 0 0 0 0 0 0 0
0 0 0 0;
#X obj 532 423 fx_biquad_24~ highshelf 0 2000 1 0 0 0 0 0 0 0 0 0 0
0 0 0 0;
#X obj 532 453 fx_biquad_24~ lowpass 0 20000 1 0 0 0 0 0 0 0 0 0 0
0 0 0 0;
#X obj 532 393 fx_biquad_24~ peaking 0 5000 1 0 0 0 0 0 0 0 0 0 0 0
0 0 0 0;
#X obj 532 373 fx_biquad_24~ peaking 0 500 1 0 0 0 0 0 0 0 0 0 0 0
0 0 0 0;
#X obj 1548 326 print fx_eq7_24~;
#X connect 0 0 5 0;
#X connect 3 0 6 0;
#X connect 3 1 4 0;
#X connect 4 0 2 0;
#X connect 5 0 84 0;
#X connect 6 0 7 0;
#X connect 7 0 5 1;
#X connect 7 0 16 1;
#X connect 7 0 20 1;
#X connect 7 0 35 1;
#X connect 7 0 32 1;
#X connect 7 0 29 1;
#X connect 7 0 26 1;
#X connect 7 0 23 1;
#X connect 7 0 38 1;
#X connect 7 0 41 1;
#X connect 7 0 44 1;
#X connect 7 0 47 1;
#X connect 7 0 50 1;
#X connect 7 0 53 1;
#X connect 7 0 56 1;
#X connect 7 0 59 1;
#X connect 7 0 62 1;
#X connect 7 0 65 1;
#X connect 7 0 68 1;
#X connect 7 0 71 1;
#X connect 7 0 74 1;
#X connect 7 0 77 1;
#X connect 7 0 80 1;
#X connect 7 0 83 1;
#X connect 8 0 11 0;
#X connect 9 0 10 0;
#X connect 10 0 91 0;
#X connect 11 0 84 24;
#X connect 11 1 86 24;
#X connect 11 2 85 24;
#X connect 11 3 90 24;
#X connect 11 4 89 24;
#X connect 11 5 87 24;
#X connect 11 6 88 24;
#X connect 11 7 12 0;
#X connect 11 8 9 0;
#X connect 13 0 3 0;
#X connect 14 0 16 0;
#X connect 16 0 84 1;
#X connect 18 0 20 0;
#X connect 20 0 84 2;
#X connect 21 0 23 0;
#X connect 23 0 84 3;
#X connect 24 0 26 0;
#X connect 26 0 84 4;
#X connect 27 0 29 0;
#X connect 29 0 84 5;
#X connect 30 0 32 0;
#X connect 32 0 84 6;
#X connect 33 0 35 0;
#X connect 35 0 84 7;
#X connect 36 0 38 0;
#X connect 38 0 84 8;
#X connect 39 0 41 0;
#X connect 41 0 84 9;
#X connect 42 0 44 0;
#X connect 44 0 84 10;
#X connect 45 0 47 0;
#X connect 47 0 84 11;
#X connect 48 0 50 0;
#X connect 50 0 84 12;
#X connect 51 0 53 0;
#X connect 53 0 84 13;
#X connect 54 0 56 0;
#X connect 56 0 84 14;
#X connect 57 0 59 0;
#X connect 59 0 84 15;
#X connect 60 0 62 0;
#X connect 62 0 84 16;
#X connect 63 0 65 0;
#X connect 65 0 84 17;
#X connect 66 0 68 0;
#X connect 68 0 84 18;
#X connect 69 0 71 0;
#X connect 71 0 84 19;
#X connect 72 0 74 0;
#X connect 74 0 84 20;
#X connect 75 0 77 0;
#X connect 77 0 84 21;
#X connect 78 0 80 0;
#X connect 80 0 84 22;
#X connect 81 0 83 0;
#X connect 83 0 84 23;
#X connect 84 0 86 0;
#X connect 84 1 86 1;
#X connect 84 2 86 2;
#X connect 84 3 86 3;
#X connect 84 4 86 4;
#X connect 84 5 86 5;
#X connect 84 6 86 6;
#X connect 84 7 86 7;
#X connect 84 8 86 8;
#X connect 84 9 86 9;
#X connect 84 10 86 10;
#X connect 84 11 86 11;
#X connect 84 12 86 12;
#X connect 84 13 86 13;
#X connect 84 14 86 14;
#X connect 84 15 86 15;
#X connect 84 16 86 16;
#X connect 84 17 86 17;
#X connect 84 18 86 18;
#X connect 84 19 86 19;
#X connect 84 20 86 20;
#X connect 84 21 86 21;
#X connect 84 22 86 22;
#X connect 84 23 86 23;
#X connect 85 0 90 0;
#X connect 85 1 90 1;
#X connect 85 2 90 2;
#X connect 85 3 90 3;
#X connect 85 4 90 4;
#X connect 85 5 90 5;
#X connect 85 6 90 6;
#X connect 85 7 90 7;
#X connect 85 8 90 8;
#X connect 85 9 90 9;
#X connect 85 10 90 10;
#X connect 85 11 90 11;
#X connect 85 12 90 12;
#X connect 85 13 90 13;
#X connect 85 14 90 14;
#X connect 85 15 90 15;
#X connect 85 16 90 16;
#X connect 85 17 90 17;
#X connect 85 18 90 18;
#X connect 85 19 90 19;
#X connect 85 20 90 20;
#X connect 85 21 90 21;
#X connect 85 22 90 22;
#X connect 85 23 90 23;
#X connect 86 0 85 0;
#X connect 86 1 85 1;
#X connect 86 2 85 2;
#X connect 86 3 85 3;
#X connect 86 4 85 4;
#X connect 86 5 85 5;
#X connect 86 6 85 6;
#X connect 86 7 85 7;
#X connect 86 8 85 8;
#X connect 86 9 85 9;
#X connect 86 10 85 10;
#X connect 86 11 85 11;
#X connect 86 12 85 12;
#X connect 86 13 85 13;
#X connect 86 14 85 14;
#X connect 86 15 85 15;
#X connect 86 16 85 16;
#X connect 86 17 85 17;
#X connect 86 18 85 18;
#X connect 86 19 85 19;
#X connect 86 20 85 20;
#X connect 86 21 85 21;
#X connect 86 22 85 22;
#X connect 86 23 85 23;
#X connect 87 0 88 0;
#X connect 87 1 88 1;
#X connect 87 2 88 2;
#X connect 87 3 88 3;
#X connect 87 4 88 4;
#X connect 87 5 88 5;
#X connect 87 6 88 6;
#X connect 87 7 88 7;
#X connect 87 8 88 8;
#X connect 87 9 88 9;
#X connect 87 10 88 10;
#X connect 87 11 88 11;
#X connect 87 12 88 12;
#X connect 87 13 88 13;
#X connect 87 14 88 14;
#X connect 87 15 88 15;
#X connect 87 16 88 16;
#X connect 87 17 88 17;
#X connect 87 18 88 18;
#X connect 87 19 88 19;
#X connect 87 20 88 20;
#X connect 87 21 88 21;
#X connect 87 22 88 22;
#X connect 87 23 88 23;
#X connect 88 0 1 0;
#X connect 88 1 15 0;
#X connect 88 2 19 0;
#X connect 88 3 22 0;
#X connect 88 4 25 0;
#X connect 88 5 28 0;
#X connect 88 6 31 0;
#X connect 88 7 34 0;
#X connect 88 8 37 0;
#X connect 88 9 40 0;
#X connect 88 10 43 0;
#X connect 88 11 46 0;
#X connect 88 12 49 0;
#X connect 88 13 52 0;
#X connect 88 14 55 0;
#X connect 88 15 58 0;
#X connect 88 16 61 0;
#X connect 88 17 64 0;
#X connect 88 18 67 0;
#X connect 88 19 70 0;
#X connect 88 20 73 0;
#X connect 88 21 76 0;
#X connect 88 22 79 0;
#X connect 88 23 82 0;
#X connect 89 0 87 0;
#X connect 89 1 87 1;
#X connect 89 2 87 2;
#X connect 89 3 87 3;
#X connect 89 4 87 4;
#X connect 89 5 87 5;
#X connect 89 6 87 6;
#X connect 89 7 87 7;
#X connect 89 8 87 8;
#X connect 89 9 87 9;
#X connect 89 10 87 10;
#X connect 89 11 87 11;
#X connect 89 12 87 12;
#X connect 89 13 87 13;
#X connect 89 14 87 14;
#X connect 89 15 87 15;
#X connect 89 16 87 16;
#X connect 89 17 87 17;
#X connect 89 18 87 18;
#X connect 89 19 87 19;
#X connect 89 20 87 20;
#X connect 89 21 87 21;
#X connect 89 22 87 22;
#X connect 89 23 87 23;
#X connect 90 0 89 0;
#X connect 90 1 89 1;
#X connect 90 2 89 2;
#X connect 90 3 89 3;
#X connect 90 4 89 4;
#X connect 90 5 89 5;
#X connect 90 6 89 6;
#X connect 90 7 89 7;
#X connect 90 8 89 8;
#X connect 90 9 89 9;
#X connect 90 10 89 10;
#X connect 90 11 89 11;
#X connect 90 12 89 12;
#X connect 90 13 89 13;
#X connect 90 14 89 14;
#X connect 90 15 89 15;
#X connect 90 16 89 16;
#X connect 90 17 89 17;
#X connect 90 18 89 18;
#X connect 90 19 89 19;
#X connect 90 20 89 20;
#X connect 90 21 89 21;
#X connect 90 22 89 22;
#X connect 90 23 89 23;
#X restore 284 175 pd eq7_24___________________________________________________
;
#X text 55 400 (c)2013 Marian Weger;
#X obj 464 49 inlet~;
#X obj 464 305 outlet~;
#X obj 514 49 inlet~;
#X obj 514 305 outlet~;
#X obj 564 49 inlet~;
#X obj 564 305 outlet~;
#X obj 614 49 inlet~;
#X obj 614 305 outlet~;
#X obj 664 49 inlet~;
#X obj 664 305 outlet~;
#X obj 714 49 inlet~;
#X obj 714 305 outlet~;
#X obj 764 49 inlet~;
#X obj 764 305 outlet~;
#X obj 814 49 inlet~;
#X obj 814 305 outlet~;
#X obj 864 49 inlet~;
#X obj 864 305 outlet~;
#X obj 914 49 inlet~;
#X obj 914 305 outlet~;
#X obj 964 49 inlet~;
#X obj 964 305 outlet~;
#X obj 1014 49 inlet~;
#X obj 1014 305 outlet~;
#X obj 1064 49 inlet~;
#X obj 1064 305 outlet~;
#X obj 1114 49 inlet~;
#X obj 1114 305 outlet~;
#X obj 1164 49 inlet~;
#X obj 1164 305 outlet~;
#X obj 1214 49 inlet~;
#X obj 1214 305 outlet~;
#X connect 0 0 23 0;
#X connect 0 0 22 0;
#X connect 2 0 22 24;
#X connect 4 0 23 24;
#X connect 6 0 2 0;
#X connect 7 0 23 1;
#X connect 7 0 22 1;
#X connect 9 0 23 2;
#X connect 9 0 22 2;
#X connect 11 0 23 3;
#X connect 11 0 22 3;
#X connect 13 0 23 4;
#X connect 13 0 22 4;
#X connect 15 0 23 5;
#X connect 15 0 22 5;
#X connect 17 0 23 6;
#X connect 17 0 22 6;
#X connect 19 0 23 7;
#X connect 19 0 22 7;
#X connect 22 0 1 0;
#X connect 22 1 8 0;
#X connect 22 2 10 0;
#X connect 22 3 12 0;
#X connect 22 4 14 0;
#X connect 22 5 16 0;
#X connect 22 6 18 0;
#X connect 22 7 20 0;
#X connect 22 8 26 0;
#X connect 22 9 28 0;
#X connect 22 10 30 0;
#X connect 22 11 32 0;
#X connect 22 12 34 0;
#X connect 22 13 36 0;
#X connect 22 14 38 0;
#X connect 22 15 40 0;
#X connect 22 16 42 0;
#X connect 22 17 44 0;
#X connect 22 18 46 0;
#X connect 22 19 48 0;
#X connect 22 20 50 0;
#X connect 22 21 52 0;
#X connect 22 22 54 0;
#X connect 22 23 56 0;
#X connect 23 0 1 0;
#X connect 23 1 8 0;
#X connect 23 2 10 0;
#X connect 23 3 12 0;
#X connect 23 4 14 0;
#X connect 23 5 16 0;
#X connect 23 6 18 0;
#X connect 23 7 20 0;
#X connect 23 8 26 0;
#X connect 23 9 28 0;
#X connect 23 10 30 0;
#X connect 23 11 32 0;
#X connect 23 12 34 0;
#X connect 23 13 36 0;
#X connect 23 14 38 0;
#X connect 23 15 40 0;
#X connect 23 16 42 0;
#X connect 23 17 44 0;
#X connect 23 18 46 0;
#X connect 23 19 48 0;
#X connect 23 20 50 0;
#X connect 23 21 52 0;
#X connect 23 22 54 0;
#X connect 23 23 56 0;
#X connect 25 0 23 8;
#X connect 25 0 22 8;
#X connect 27 0 23 9;
#X connect 27 0 22 9;
#X connect 29 0 23 10;
#X connect 29 0 22 10;
#X connect 31 0 23 11;
#X connect 31 0 22 11;
#X connect 33 0 23 12;
#X connect 33 0 22 12;
#X connect 35 0 23 13;
#X connect 35 0 22 13;
#X connect 37 0 23 14;
#X connect 37 0 22 14;
#X connect 39 0 23 15;
#X connect 39 0 22 15;
#X connect 41 0 23 16;
#X connect 41 0 22 16;
#X connect 43 0 23 17;
#X connect 43 0 22 17;
#X connect 45 0 23 18;
#X connect 45 0 22 18;
#X connect 47 0 23 19;
#X connect 47 0 22 19;
#X connect 49 0 23 20;
#X connect 49 0 22 20;
#X connect 51 0 23 21;
#X connect 51 0 22 21;
#X connect 53 0 23 22;
#X connect 53 0 22 22;
#X connect 55 0 23 23;
#X connect 55 0 22 23;
