#N canvas 434 99 536 425 10;
#X text 288 331 (c)2012 Marian Weger;
#X obj 298 124 inlet statelist;
#X obj 298 275 outlet statelist;
#X msg 401 150 1;
#N canvas 12 35 714 479 ctl 0;
#X obj 64 545 outlet;
#X obj 64 514 list trim;
#X obj 74 100 list prepend state;
#X obj 74 78 r /fx/fbdelay/\$1/state;
#X obj 84 128 r /fx/fbdelay/\$1/fb;
#X obj 84 170 list prepend fb;
#X obj 94 198 r /fx/fbdelay/\$1/send;
#X obj 94 240 list prepend send;
#X obj 104 268 r /fx/fbdelay/\$1/dry;
#X obj 104 310 list prepend dry;
#X obj 114 338 r /fx/fbdelay/\$1/wet;
#X obj 114 380 list prepend wet;
#X obj 124 408 r /fx/fbdelay/\$1/delay;
#X obj 124 430 list prepend delay;
#X obj 373 93 list prepend state;
#X obj 383 143 list prepend f;
#X obj 393 223 list prepend q;
#X obj 373 343 list prepend hc;
#X obj 393 171 r /fx/fbdelay/\$1/hc/q;
#X obj 383 121 r /fx/fbdelay/\$1/hc/f;
#X obj 373 71 r /fx/fbdelay/\$1/hc/state;
#X obj 393 193 min 1;
#X obj 84 150 fader2db;
#X obj 94 220 fader2db;
#X obj 104 290 fader2db;
#X obj 114 360 fader2db;
#X obj 545 87 list prepend state;
#X obj 555 137 list prepend f;
#X obj 565 217 list prepend q;
#X obj 565 187 min 1;
#X obj 545 337 list prepend lc;
#X obj 565 165 r /fx/fbdelay/\$1/lc/q;
#X obj 555 115 r /fx/fbdelay/\$1/lc/f;
#X obj 545 65 r /fx/fbdelay/\$1/lc/state;
#X connect 1 0 0 0;
#X connect 2 0 1 0;
#X connect 3 0 2 0;
#X connect 4 0 22 0;
#X connect 5 0 1 0;
#X connect 6 0 23 0;
#X connect 7 0 1 0;
#X connect 8 0 24 0;
#X connect 9 0 1 0;
#X connect 10 0 25 0;
#X connect 11 0 1 0;
#X connect 12 0 13 0;
#X connect 13 0 1 0;
#X connect 14 0 17 0;
#X connect 15 0 17 0;
#X connect 16 0 17 0;
#X connect 17 0 1 0;
#X connect 18 0 21 0;
#X connect 19 0 15 0;
#X connect 20 0 14 0;
#X connect 21 0 16 0;
#X connect 22 0 5 0;
#X connect 23 0 7 0;
#X connect 24 0 9 0;
#X connect 25 0 11 0;
#X connect 26 0 30 0;
#X connect 27 0 30 0;
#X connect 28 0 30 0;
#X connect 29 0 28 0;
#X connect 30 0 1 0;
#X connect 31 0 29 0;
#X connect 32 0 27 0;
#X connect 33 0 26 0;
#X restore 60 162 pd ctl;
#X obj 60 314 outlet;
#X text 40 12 fx_fbdelay_ctl <name> <domain>;
#N canvas 782 345 394 340 init 0;
#X obj 32 29 loadbang;
#X obj 32 51 t b b;
#X obj 213 93 outlet;
#X obj 32 113 list prepend \$1 \$2;
#X msg 32 135 \; /fx/fbdelay/\$1/delay 400 \; /fx/fbdelay/\$1/state
0 \; /fx/fbdelay/\$1/send 1 \; /fx/fbdelay/\$1/fb 0.9 \; /fx/fbdelay/\$1/dry
1 \; /fx/fbdelay/\$1/wet 1 \; /fx/fbdelay/\$1/hc/state 1 \; /fx/fbdelay/\$1/hc/f
3000 \; /fx/fbdelay/\$1/hc/q 1 \; /fx/fbdelay/\$1/lc/state 0 \; /fx/fbdelay/\$1/lc/f
3000 \; /fx/fbdelay/\$1/lc/q 1 \;;
#X connect 0 0 1 0;
#X connect 1 0 3 0;
#X connect 1 1 2 0;
#X connect 3 0 4 0;
#X restore 401 124 pd init;
#N canvas 105 22 417 318 ds 0;
#X obj 61 29 ds_reg \$2 /fx/fbdelay/\$1/state nomorph;
#X obj 61 49 ds_reg \$2 /fx/fbdelay/\$1/delay;
#X obj 61 69 ds_reg \$2 /fx/fbdelay/\$1/fb;
#X obj 61 89 ds_reg \$2 /fx/fbdelay/\$1/dry;
#X obj 61 109 ds_reg \$2 /fx/fbdelay/\$1/wet;
#X obj 61 129 ds_reg \$2 /fx/fbdelay/\$1/send;
#X obj 61 249 ds_reg \$2 /fx/fbdelay/\$1/hc/f;
#X obj 61 269 ds_reg \$2 /fx/fbdelay/\$1/hc/q;
#X obj 61 229 ds_reg \$2 /fx/fbdelay/\$1/hc/state nomorph;
#X obj 61 289 ds_reg \$2 /fx/fbdelay/\$1/lc/state nomorph;
#X obj 61 309 ds_reg \$2 /fx/fbdelay/\$1/lc/f;
#X obj 61 329 ds_reg \$2 /fx/fbdelay/\$1/lc/q;
#X restore 167 232 pd ds;
#N canvas 105 22 417 318 osc 0;
#X obj 61 29 osc_bi \$2 /fx/fbdelay/\$1/state;
#X obj 61 49 osc_bi \$2 /fx/fbdelay/\$1/delay;
#X obj 61 69 osc_bi \$2 /fx/fbdelay/\$1/fb;
#X obj 61 89 osc_bi \$2 /fx/fbdelay/\$1/dry;
#X obj 61 109 osc_bi \$2 /fx/fbdelay/\$1/wet;
#X obj 61 129 osc_bi \$2 /fx/fbdelay/\$1/send;
#X obj 61 229 osc_bi \$2 /fx/fbdelay/\$1/hc/state;
#X obj 61 249 osc_bi \$2 /fx/fbdelay/\$1/hc/f;
#X obj 61 269 osc_bi \$2 /fx/fbdelay/\$1/hc/q;
#X obj 61 289 osc_bi \$2 /fx/fbdelay/\$1/lc/state;
#X obj 61 309 osc_bi \$2 /fx/fbdelay/\$1/lc/f;
#X obj 61 329 osc_bi \$2 /fx/fbdelay/\$1/lc/q;
#X restore 167 252 pd osc;
#X connect 1 0 2 0;
#X connect 3 0 2 0;
#X connect 4 0 5 0;
#X connect 7 0 3 0;
