#N canvas 343 126 823 440 10;
#X obj 64 49 inlet~;
#X obj 64 304 outlet~;
#X text 626 269 (c)2012 Marian Weger;
#N canvas 137 246 343 255 init 0;
#X obj 32 29 loadbang;
#X obj 32 103 f \$0;
#X msg 32 135 \; \$1-delay 400 \; \$1-state 0 \; \$1-send 0 \; \$1-fb
-10 \; \$1-dry 0 \; \$1-wet -10 \;;
#X connect 0 0 1 0;
#X connect 1 0 2 0;
#X restore 675 325 pd init;
#X obj 249 133 == 0;
#N canvas 260 22 845 725 fbdelay 0;
#X obj 196 553 dbtorms;
#X obj 196 530 + 100;
#X obj 426 222 dbtorms;
#X obj 426 199 + 100;
#X obj 426 643 dbtorms;
#X obj 426 620 + 100;
#X obj 426 176 min 0;
#X obj 246 123 dbtorms;
#X obj 246 100 + 100;
#X obj 381 459 fx_vdelay~ \$1 500;
#X obj 480 435 r \$0-delay;
#X obj 381 315 fx_biquad~ lowpass 1 3000 1;
#X obj 151 576 fx_gain~;
#X obj 196 508 r \$0-dry;
#X obj 426 598 r \$0-wet;
#X obj 381 666 fx_gain~;
#X obj 381 723 fx_gain~;
#X obj 381 780 outlet~;
#X obj 426 748 switch~;
#X obj 426 700 r \$0-state;
#X obj 151 46 inlet~;
#X obj 381 245 fx_gain~;
#X obj 201 146 fx_gain~;
#X obj 246 78 r \$0-send;
#X obj 426 154 r \$0-fb;
#X obj 401 561 delwrite~ \$0-fb1 1;
#X obj 381 125 delread~ \$0-fb1 0;
#X obj 554 291 r \$0-hc;
#X obj 625 421 loadbang;
#X msg 637 475 LIMIT;
#X msg 625 451 set 105 50 150;
#X obj 505 519 limiter~;
#X obj 401 539 *~;
#X obj 554 351 r \$0-lc;
#X obj 381 375 fx_biquad~ highpass 0 3000 1;
#X connect 0 0 12 1;
#X connect 1 0 0 0;
#X connect 2 0 21 1;
#X connect 3 0 2 0;
#X connect 4 0 15 1;
#X connect 5 0 4 0;
#X connect 6 0 3 0;
#X connect 7 0 22 1;
#X connect 8 0 7 0;
#X connect 9 0 15 0;
#X connect 9 0 31 0;
#X connect 9 0 32 0;
#X connect 10 0 9 1;
#X connect 11 0 34 0;
#X connect 12 0 16 0;
#X connect 13 0 1 0;
#X connect 14 0 5 0;
#X connect 15 0 16 0;
#X connect 16 0 17 0;
#X connect 16 1 18 0;
#X connect 19 0 16 1;
#X connect 20 0 12 0;
#X connect 20 0 22 0;
#X connect 21 0 11 0;
#X connect 22 0 11 0;
#X connect 23 0 8 0;
#X connect 24 0 6 0;
#X connect 26 0 21 0;
#X connect 27 0 11 1;
#X connect 28 0 29 0;
#X connect 28 0 30 0;
#X connect 29 0 31 0;
#X connect 30 0 31 0;
#X connect 31 0 32 1;
#X connect 32 0 25 0;
#X connect 33 0 34 1;
#X connect 34 0 9 0;
#X restore 64 174 pd fbdelay;
#X obj 144 174 fx_gain~;
#X obj 249 111 r \$0-state;
#X obj 579 324 outlet;
#X obj 423 43 inlet;
#X obj 423 307 s \$0-hc;
#X obj 452 287 s \$0-state;
#X obj 481 267 s \$0-send;
#X obj 510 247 s \$0-fb;
#X obj 539 227 s \$0-dry;
#X obj 568 207 s \$0-wet;
#X obj 597 187 s \$0-delay;
#X obj 705 87 list prepend no method for;
#X obj 705 109 list trim;
#X obj 705 131 print fx_fbdelay~;
#X text 40 12 fx_fbdelay~ <max delay time>;
#X obj 423 65 route hc state send fb dry wet delay lc;
#X obj 624 161 s \$0-lc;
#X connect 0 0 6 0;
#X connect 0 0 5 0;
#X connect 4 0 6 1;
#X connect 5 0 1 0;
#X connect 6 0 1 0;
#X connect 7 0 4 0;
#X connect 9 0 21 0;
#X connect 17 0 18 0;
#X connect 18 0 19 0;
#X connect 21 0 10 0;
#X connect 21 1 11 0;
#X connect 21 2 12 0;
#X connect 21 3 13 0;
#X connect 21 4 14 0;
#X connect 21 5 15 0;
#X connect 21 6 16 0;
#X connect 21 7 22 0;
#X connect 21 8 17 0;
