#N canvas 186 22 823 440 10;
#X obj 64 49 inlet~;
#X obj 64 304 outlet~;
#X text 626 269 (c)2012 Marian Weger;
#N canvas 137 246 343 255 init 0;
#X obj 32 29 loadbang;
#X obj 32 103 f \$0;
#X msg 32 135 \; \$1-delay 400 \; \$1-state 0 \; \$1-send 0 \; \$1-fb
-10 \; \$1-dry 0 \; \$1-wet -10 \;;
#X connect 0 0 1 0;
#X connect 1 0 2 0;
#X restore 675 325 pd init;
#X obj 330 119 == 0;
#X obj 330 97 r \$0-state;
#X obj 579 324 outlet;
#X obj 415 43 inlet;
#X obj 423 307 s \$0-hc;
#X obj 452 287 s \$0-state;
#X obj 481 267 s \$0-send;
#X obj 510 247 s \$0-fb;
#X obj 539 227 s \$0-dry;
#X obj 568 207 s \$0-wet;
#X obj 597 187 s \$0-delay;
#X obj 626 89 list prepend no method for;
#X obj 626 111 list trim;
#X text 40 14 fx_fbdelay_2~ <max delay time>;
#X obj 114 49 inlet~;
#X obj 114 304 outlet~;
#N canvas 153 22 987 731 fbdelay_2_______ 1;
#X obj 216 483 dbtorms;
#X obj 216 460 + 100;
#X obj 557 166 dbtorms;
#X obj 557 143 + 100;
#X obj 494 494 dbtorms;
#X obj 494 471 + 100;
#X obj 557 120 min 0;
#X obj 306 103 dbtorms;
#X obj 306 80 + 100;
#X obj 628 317 r \$0-delay;
#X obj 216 438 r \$0-dry;
#X obj 494 449 r \$0-wet;
#X obj 381 640 outlet~;
#X obj 524 611 switch~;
#X obj 506 560 r \$0-state;
#X obj 151 46 inlet~;
#X obj 306 58 r \$0-send;
#X obj 557 98 r \$0-fb;
#X obj 581 525 delwrite~ \$0-fb1 1;
#X obj 480 39 delread~ \$0-fb1 0;
#X obj 641 268 r \$0-hc;
#X obj 201 46 inlet~;
#X obj 151 506 fx_gain_2~;
#X obj 241 146 fx_gain_2~;
#X obj 381 315 fx_biquad_2~ lowpass 1 3000 1;
#X obj 480 199 fx_gain_2~;
#X obj 510 59 delread~ \$0-fb2 0;
#X obj 381 359 fx_vdelay_2~ \$1 500;
#X obj 619 505 delwrite~ \$0-fb2 1;
#X obj 381 526 fx_gain_2~;
#X obj 381 583 fx_gain_2~;
#X obj 441 640 outlet~;
#X floatatom 557 188 5 0 0 0 - - -;
#X obj 754 322 loadbang;
#X msg 766 376 LIMIT;
#X obj 634 420 limiter~ 0 1;
#X obj 581 458 *~;
#X obj 619 455 *~;
#X msg 754 352 set 105 50 150;
#X connect 0 0 22 2;
#X connect 1 0 0 0;
#X connect 2 0 25 2;
#X connect 2 0 32 0;
#X connect 3 0 2 0;
#X connect 4 0 29 2;
#X connect 5 0 4 0;
#X connect 6 0 3 0;
#X connect 7 0 23 2;
#X connect 8 0 7 0;
#X connect 9 0 27 2;
#X connect 10 0 1 0;
#X connect 11 0 5 0;
#X connect 14 0 30 2;
#X connect 15 0 22 0;
#X connect 15 0 23 0;
#X connect 16 0 8 0;
#X connect 17 0 6 0;
#X connect 19 0 25 0;
#X connect 20 0 24 2;
#X connect 21 0 23 1;
#X connect 21 0 22 1;
#X connect 22 0 30 0;
#X connect 22 1 30 1;
#X connect 23 0 24 0;
#X connect 23 1 24 1;
#X connect 24 0 27 0;
#X connect 24 1 27 1;
#X connect 25 0 24 0;
#X connect 25 1 24 1;
#X connect 26 0 25 1;
#X connect 27 0 29 0;
#X connect 27 0 35 0;
#X connect 27 0 36 0;
#X connect 27 1 29 1;
#X connect 27 1 35 1;
#X connect 27 1 37 0;
#X connect 29 0 30 0;
#X connect 29 1 30 1;
#X connect 30 0 12 0;
#X connect 30 1 31 0;
#X connect 30 2 13 0;
#X connect 33 0 34 0;
#X connect 33 0 38 0;
#X connect 34 0 35 0;
#X connect 35 0 37 1;
#X connect 35 0 36 1;
#X connect 36 0 18 0;
#X connect 37 0 28 0;
#X connect 38 0 35 0;
#X restore 64 174 pd fbdelay_2_______;
#X obj 204 174 fx_gain_2~ 0 0 0 0 0 0;
#X obj 626 133 print fx_fbdelay_2~;
#X obj 415 65 route hc state send fb dry wet delay;
#X connect 0 0 20 0;
#X connect 0 0 21 0;
#X connect 4 0 21 2;
#X connect 5 0 4 0;
#X connect 7 0 23 0;
#X connect 15 0 16 0;
#X connect 16 0 22 0;
#X connect 18 0 21 1;
#X connect 18 0 20 1;
#X connect 20 0 1 0;
#X connect 20 1 19 0;
#X connect 21 0 1 0;
#X connect 21 1 19 0;
#X connect 23 0 8 0;
#X connect 23 1 9 0;
#X connect 23 2 10 0;
#X connect 23 3 11 0;
#X connect 23 4 12 0;
#X connect 23 5 13 0;
#X connect 23 6 14 0;
#X connect 23 7 15 0;
