#N canvas 99 309 950 556 10;
#N canvas 455 120 666 813 granulator 1;
#X text 232 104 half window for one grain;
#X obj 101 872 bng 15 250 50 0 empty empty overflow 17 7 0 10 -262144
-1 -1;
#X floatatom 420 870 5 0 0 0 voices_active - -, f 5;
#X obj 166 187 / 2;
#X text 255 788 tag;
#N canvas 45 236 678 537 play 0;
#X obj 63 778 outlet;
#X text 257 150 attack+sustain;
#X obj 63 60 inlet;
#X text 62 43 play 0/1;
#X obj 409 454 outlet;
#X text 407 474 release old grain;
#X text 60 799 trigger new grain;
#X obj 257 61 inlet;
#X obj 336 61 inlet;
#X obj 424 62 inlet;
#X text 257 40 attack;
#X text 337 41 sustain;
#X text 420 42 release;
#X obj 337 86 t b a;
#X obj 288 131 + 0;
#X obj 63 266 upp.onward;
#X obj 73 103 sel 0;
#X obj 63 748 pack 0 0 0;
#X msg 409 403 0;
#X obj 409 426 pack 0 0;
#X obj 255 226 * 1;
#X obj 563 67 inlet;
#X text 557 44 density;
#X msg 563 109 1 \$1;
#X obj 288 194 t b f;
#X obj 563 89 max 1e-05;
#X obj 563 131 / 1;
#X obj 63 644 max 0;
#X obj 82 563 * 0;
#X obj 97 542 r \$0-position-random;
#X obj 63 616 +;
#X obj 63 414 t f b;
#X obj 63 384 + 0;
#X obj 78 354 r \$0-predelay;
#X obj 63 312 f 0;
#X obj 82 467 random 10001;
#X obj 82 489 / 10000;
#X connect 2 0 15 0;
#X connect 2 0 16 0;
#X connect 7 0 14 0;
#X connect 7 0 17 2;
#X connect 8 0 13 0;
#X connect 9 0 19 1;
#X connect 13 0 14 0;
#X connect 13 1 14 1;
#X connect 14 0 20 0;
#X connect 15 0 34 0;
#X connect 15 1 17 1;
#X connect 15 1 19 0;
#X connect 16 0 18 0;
#X connect 17 0 0 0;
#X connect 18 0 19 0;
#X connect 19 0 4 0;
#X connect 20 0 15 1;
#X connect 21 0 25 0;
#X connect 23 0 26 0;
#X connect 24 0 20 0;
#X connect 24 1 20 1;
#X connect 25 0 23 0;
#X connect 26 0 24 0;
#X connect 27 0 17 0;
#X connect 28 0 30 1;
#X connect 29 0 28 1;
#X connect 30 0 27 0;
#X connect 31 0 30 0;
#X connect 31 1 35 0;
#X connect 32 0 31 0;
#X connect 33 0 32 1;
#X connect 34 0 32 0;
#X connect 35 0 36 0;
#X connect 36 0 28 0;
#X restore 101 260 pd play ___________;
#X obj 101 789 list prepend \$0-sample;
#X obj 307 790 list prepend \$0-sample;
#X obj 232 123 wnd-sin \$0-wnd 1024;
#X obj 207 464 r \$0-transpose;
#X obj 101 141 r \$0-state;
#X obj 212 236 r \$0-density;
#X obj 166 160 r \$0-grain-length;
#X obj 164 956 catch~ \$0-bus;
#X obj 164 1058 outlet~;
#X obj 97 18 inlet~;
#X obj 164 1018 fx_gain~;
#X obj 212 984 r \$0-state;
#X obj 453 126 r \$0-state;
#X obj 453 148 1del0;
#X obj 453 170 switch~;
#X obj 101 759 list append 0;
#X obj 97 40 delwrite~ \$0-buffer 60000;
#X obj 189 693 +;
#X obj 189 531 t f b;
#X obj 239 649 r \$0-transpose-random;
#X obj 101 464 t a b;
#X obj 189 507 f 0;
#X obj 189 718 expr pow(2 \, -$f1/12)-1.0;
#X obj 221 564 random 10001;
#X obj 221 586 / 5000;
#X obj 221 608 - 1;
#X obj 221 670 * 0;
#X obj 101 830 upp.xc 100 spat-mono \$0-bus fx_granular_voice \$0-wnd
1024 \$0-buffer;
#X connect 3 0 5 1;
#X connect 3 0 5 3;
#X connect 5 0 26 0;
#X connect 5 1 7 0;
#X connect 6 0 33 0;
#X connect 7 0 33 1;
#X connect 9 0 27 1;
#X connect 10 0 5 0;
#X connect 11 0 5 4;
#X connect 12 0 3 0;
#X connect 13 0 16 0;
#X connect 15 0 22 0;
#X connect 16 0 14 0;
#X connect 17 0 16 1;
#X connect 18 0 19 0;
#X connect 19 0 20 0;
#X connect 21 0 6 0;
#X connect 23 0 28 0;
#X connect 24 0 23 0;
#X connect 24 1 29 0;
#X connect 25 0 32 1;
#X connect 26 0 21 0;
#X connect 26 1 27 0;
#X connect 27 0 24 0;
#X connect 28 0 21 1;
#X connect 29 0 30 0;
#X connect 30 0 31 0;
#X connect 31 0 32 0;
#X connect 32 0 23 1;
#X connect 33 0 1 0;
#X connect 33 2 2 0;
#X restore 81 234 pd granulator;
#X text 79 46 fx_granular~;
#X obj 92 112 inlet~;
#X obj 184 233 fx_gain~;
#X obj 233 152 r \$0-state;
#X obj 233 174 == 0;
#X obj 81 336 outlet~;
#X obj 426 117 inlet;
#X obj 426 301 s \$0-predelay;
#X obj 488 280 s \$0-state;
#X obj 548 260 s \$0-grain-length;
#X text 443 355 (c)2013 Marian Weger;
#X obj 658 220 s \$0-position-random;
#X obj 718 200 s \$0-density;
#X obj 608 240 s \$0-transpose;
#X obj 426 139 route predelay state grainlength transpose position-random
density transpose-random;
#X obj 239 649 r \$0-transpose-random;
#X obj 771 178 s \$0-transpose-random;
#X connect 0 0 6 0;
#X connect 2 0 0 0;
#X connect 2 0 3 0;
#X connect 3 0 6 0;
#X connect 4 0 5 0;
#X connect 5 0 3 1;
#X connect 7 0 15 0;
#X connect 15 0 8 0;
#X connect 15 1 9 0;
#X connect 15 2 10 0;
#X connect 15 3 14 0;
#X connect 15 4 12 0;
#X connect 15 5 13 0;
#X connect 15 6 17 0;
