#N canvas 230 22 961 410 10;
#X obj 64 49 inlet~;
#X obj 64 274 outlet~;
#X obj 189 114 == 0;
#N canvas 848 338 268 246 init 0;
#X obj 32 29 loadbang;
#X obj 32 51 f \$0;
#X msg 32 93 \; \$1-state 0 \; \$1-lookahead 0 \;;
#X connect 0 0 1 0;
#X connect 1 0 2 0;
#X restore 270 286 pd init;
#N canvas 183 88 600 562 gate 0;
#X obj 61 60 inlet~;
#X obj 61 517 outlet~;
#X obj 61 488 *~;
#X obj 461 196 switch~;
#X obj 61 316 fx_delay~ 99 0;
#X obj 142 91 r \$0-lookahead;
#X obj 461 149 r \$0-state;
#X obj 461 174 1del0 15;
#X obj 241 316 fx_gate_gain~ \$1;
#X obj 334 91 inlet ctl;
#X connect 0 0 4 0;
#X connect 0 0 8 0;
#X connect 2 0 1 0;
#X connect 4 0 2 0;
#X connect 5 0 4 1;
#X connect 6 0 7 0;
#X connect 7 0 3 0;
#X connect 8 0 2 1;
#X connect 9 0 8 1;
#X restore 64 174 pd gate;
#X obj 144 174 fx_gain~;
#X text 423 289 (c)2012 Marian Weger;
#X obj 475 67 inlet;
#X obj 185 285 outlet;
#X text 40 12 fx_gate~ <type>;
#X text 211 27 available types: rms \, peak;
#X obj 189 90 r \$0-state;
#X obj 475 149 s \$0-state;
#X obj 536 129 s \$0-lookahead;
#X obj 475 97 route state lookahead;
#X connect 0 0 4 0;
#X connect 0 0 5 0;
#X connect 2 0 5 1;
#X connect 4 0 1 0;
#X connect 5 0 1 0;
#X connect 7 0 4 1;
#X connect 7 0 14 0;
#X connect 11 0 2 0;
#X connect 14 0 12 0;
#X connect 14 1 13 0;
