#N canvas 597 107 488 378 10;
#X text 75 263 (c)2012 Marian Weger;
#X obj 150 100 bng 14 250 50 0 empty empty empty 17 7 0 10 -261681
-1 -1;
#X msg 150 140 vis 1;
#X obj 100 100 tgl 14 0 /fx/gate/\$1/state /fx/gate/\$1/state G 4 7
0 10 -261681 -261681 -1 0 1;
#X obj 114 100 nbx 3 14 0 100 0 0 /fx/gate/\$1/threshold /fx/gate/\$1/threshold
empty 0 -8 0 10 -261681 -1 -1 0 256;
#X text 93 52 gui for [fx_gate~];
#X obj 150 160 s pd-\$0-gate;
#N canvas 1004 60 157 99 \$0-gate 0;
#X obj -7 1 cnv 15 140 90 empty empty empty 20 12 0 14 -233017 -66577
0;
#X obj 5 40 nbx 3 14 0 999 0 0 /fx/gate/\$1/threshold /fx/gate/\$1/threshold
thres 0 -8 0 10 -261234 -1 -1 0 256;
#X obj 5 7 tgl 14 0 /fx/gate/\$1/state /fx/gate/\$1/state state 17
7 0 10 -4034 -1 -1 0 1;
#X obj 4 70 nbx 3 14 0 999 0 0 /fx/gate/\$1/attack /fx/gate/\$1/attack
attak 0 -8 0 10 -261234 -1 -1 0 256;
#X obj 40 70 nbx 3 14 0 999 0 0 /fx/gate/\$1/hold /fx/gate/\$1/hold
hold 0 -8 0 10 -261234 -1 -1 0 256;
#X obj 76 70 nbx 4 14 0 9999 0 0 /fx/gate/\$1/release /fx/gate/\$1/release
release 0 -8 0 10 -261234 -1 -1 0 256;
#X obj 55 40 nbx 3 14 0 999 0 0 /fx/gate/\$1/lookahead /fx/gate/\$1/lookahead
lookahead 0 -8 0 10 -261234 -1 -1 0 256;
#X restore 150 189 pd \$0-gate;
#X obj 263 100 sel 0 1;
#X msg 263 150 color \$1 \$1 22;
#X msg 273 180 color \$1 22 22;
#X msg 263 122 4;
#X msg 293 122 14;
#X text 42 23 fx_gate_gui <name>;
#X obj 263 78 r /fx/gate/\$1/state;
#X connect 1 0 2 0;
#X connect 2 0 6 0;
#X connect 8 0 11 0;
#X connect 8 1 12 0;
#X connect 9 0 3 0;
#X connect 10 0 1 0;
#X connect 10 0 4 0;
#X connect 11 0 9 0;
#X connect 11 0 10 0;
#X connect 12 0 9 0;
#X connect 12 0 10 0;
#X connect 14 0 8 0;
#X coords 0 -1 1 1 64 14 2 100 100;
