#N canvas 114 210 626 429 10;
#X text 35 350 (c)2013 Marian Weger;
#X text 34 22 fx_gate_gain_peak~;
#X obj 37 54 inlet~;
#X obj 142 253 rmstodb;
#X obj 142 302 outlet;
#X obj 37 97 tabsend~ \$0-table;
#X obj 37 182 bang~;
#X obj 37 204 tabminmax \$0-table;
#X obj 142 230 unpack f;
#X obj 287 67 loadbang;
#X obj 287 89 f \$1;
#X obj 287 111 sel 0;
#X msg 402 216 set \$1 1 1;
#X obj 314 281 pack f \$0;
#X msg 314 303 \; \$2-table resize \$1;
#X text 229 173 TODO: round off to nearest power of two;
#X msg 287 133 64;
#X obj 402 241 block~ 64 1 1;
#X obj 37 138 table \$0-table 64;
#X connect 2 0 5 0;
#X connect 3 0 4 0;
#X connect 6 0 7 0;
#X connect 7 1 8 0;
#X connect 8 0 3 0;
#X connect 9 0 10 0;
#X connect 10 0 11 0;
#X connect 11 0 16 0;
#X connect 11 1 12 0;
#X connect 11 1 13 0;
#X connect 12 0 17 0;
#X connect 13 0 14 0;
#X connect 16 0 12 0;
#X connect 16 0 13 0;
