#N canvas 216 190 1002 413 10;
#X obj 64 49 inlet~;
#X obj 64 274 outlet~;
#X obj 505 139 == 0;
#N canvas 848 338 268 246 init 0;
#X obj 32 29 loadbang;
#X obj 32 51 f \$0;
#X msg 32 93 \; \$1-state 0 \; \$1-lookahead 0 \;;
#X connect 0 0 1 0;
#X connect 1 0 2 0;
#X restore 600 316 pd init;
#X obj 505 114 r \$0-state;
#X text 753 319 (c)2012 Marian Weger;
#X obj 606 48 inlet;
#X obj 515 315 outlet;
#X obj 606 122 s \$0-state;
#X obj 667 102 s \$0-lookahead;
#X obj 114 49 inlet~;
#X obj 114 274 outlet~;
#X obj 606 70 route state lookahead;
#X text 237 12 available types: rms \, peak;
#X text 40 12 fx_gate_2~ <type>;
#N canvas 42 26 809 672 gate_2______ 0;
#X obj 61 60 inlet~;
#X obj 61 567 outlet~;
#X obj 61 538 *~;
#X obj 495 60 r \$0-lookahead;
#X obj 111 60 inlet~;
#X obj 111 567 outlet~;
#X obj 111 538 *~;
#X obj 261 294 fx_gate_gain~ \$1;
#X obj 371 294 fx_gate_gain~ \$1;
#X obj 670 77 inlet ctl;
#X obj 529 446 switch~;
#X obj 529 399 r \$0-state;
#X obj 529 424 1del0 15;
#X obj 344 559 outlet;
#X obj 142 294 fx_delay_2~ 99 0;
#X connect 0 0 7 0;
#X connect 0 0 14 0;
#X connect 2 0 1 0;
#X connect 3 0 14 2;
#X connect 4 0 8 0;
#X connect 4 0 14 1;
#X connect 6 0 5 0;
#X connect 7 0 2 1;
#X connect 8 0 6 1;
#X connect 9 0 7 1;
#X connect 9 0 8 1;
#X connect 11 0 12 0;
#X connect 12 0 10 0;
#X connect 14 0 2 0;
#X connect 14 1 6 0;
#X restore 114 174 pd gate_2______;
#X obj 244 174 fx_gain_2~ 0 0 0 0;
#X connect 0 0 15 0;
#X connect 0 0 16 0;
#X connect 2 0 16 2;
#X connect 4 0 2 0;
#X connect 6 0 12 0;
#X connect 6 0 15 2;
#X connect 10 0 15 1;
#X connect 10 0 16 1;
#X connect 12 0 8 0;
#X connect 12 1 9 0;
#X connect 15 0 1 0;
#X connect 15 1 11 0;
#X connect 16 0 1 0;
#X connect 16 1 11 0;
