#N canvas 68 440 993 556 10;
#N canvas 113 138 704 877 granulator 0;
#X text 232 104 half window for one grain;
#X obj 51 570 bng 15 250 50 0 empty empty overflow 17 7 0 10 -262144
-1 -1;
#X floatatom 377 588 5 0 0 0 voices_active - -, f 5;
#N canvas 293 229 869 709 play 0;
#X obj 63 778 outlet;
#X text 181 128 attack+sustain;
#X obj 63 60 inlet;
#X text 62 43 play 0/1;
#X obj 371 781 outlet;
#X text 369 801 release old grain;
#X text 60 799 trigger new grain;
#X obj 257 61 inlet;
#X obj 336 61 inlet;
#X obj 424 62 inlet;
#X text 257 40 attack;
#X text 337 41 sustain;
#X text 420 42 release;
#X obj 337 86 t b a;
#X obj 288 131 + 0;
#X obj 103 115 sel 0;
#X msg 393 514 0;
#X obj 393 538 pack 0 0;
#X obj 715 67 inlet;
#X text 717 37 random sustain;
#X obj 684 183 t f;
#N canvas 1 79 450 622 position 0;
#X obj 85 36 inlet;
#X obj 83 432 max 0;
#X obj 102 351 * 0;
#X obj 117 330 r \$0-position-random;
#X obj 83 404 +;
#X obj 83 202 t f b;
#X obj 83 172 + 0;
#X obj 98 142 r \$0-predelay;
#X obj 83 100 f 0;
#X obj 102 255 random 10001;
#X obj 102 277 / 10000;
#X obj 83 454 outlet;
#X connect 0 0 8 0;
#X connect 1 0 11 0;
#X connect 2 0 4 1;
#X connect 3 0 2 1;
#X connect 4 0 1 0;
#X connect 5 0 4 0;
#X connect 5 1 9 0;
#X connect 6 0 5 0;
#X connect 7 0 6 1;
#X connect 8 0 6 0;
#X connect 9 0 10 0;
#X connect 10 0 2 0;
#X restore 58 437 pd position;
#N canvas 431 216 801 687 distribute 0;
#X obj 89 33 inlet;
#X obj 256 48 inlet;
#X obj 497 1071 outlet;
#X obj 118 1049 outlet;
#X obj 119 719 list prepend;
#X text 220 723 prepend bus name;
#X obj 695 590 list prepend \$1;
#X msg 695 612 symbol \$1/\$2;
#X obj 504 593 list prepend 0;
#X obj 723 515 array get \$0-channelmapping;
#X msg 761 476 1;
#X obj 723 537 + 1;
#X text 554 616 dummy;
#X obj 783 724 list prepend \$0;
#X obj 573 74 inlet;
#X text 578 40 id;
#X obj 139 907 list prepend \$0-id-0;
#X obj 493 895 list prepend \$0-id-0;
#X obj 728 443 t f b f, f 9;
#X msg 783 747 symbol \$1-id-\$2;
#X obj 134 965 list append 0;
#X obj 488 953 list append 0;
#X obj 578 928 r \$0-freeze;
#X obj 122 1020 list append 0;
#X obj 482 1017 list append 0;
#X obj 566 983 r \$0-random-density;
#X connect 0 0 4 0;
#X connect 1 0 8 0;
#X connect 4 0 16 0;
#X connect 6 0 7 0;
#X connect 7 0 4 1;
#X connect 8 0 17 0;
#X connect 9 0 11 0;
#X connect 10 0 9 1;
#X connect 11 0 6 0;
#X connect 13 0 19 0;
#X connect 14 0 18 0;
#X connect 16 0 20 0;
#X connect 17 0 21 0;
#X connect 18 0 9 0;
#X connect 18 1 10 0;
#X connect 18 2 13 0;
#X connect 19 0 16 1;
#X connect 19 0 17 1;
#X connect 20 0 23 0;
#X connect 21 0 24 0;
#X connect 22 0 21 1;
#X connect 22 0 20 1;
#X connect 23 0 3 0;
#X connect 24 0 2 0;
#X connect 25 0 24 1;
#X connect 25 0 23 1;
#X restore 84 640 pd distribute;
#N canvas 147 205 776 565 transpose 0;
#X obj 94 33 inlet;
#X obj 202 64 r \$0-transpose;
#X obj 182 295 +;
#X obj 182 133 t f b;
#X obj 232 251 r \$0-transpose-random;
#X obj 94 66 t a b;
#X obj 182 109 f 0;
#X obj 214 166 random 10001;
#X obj 214 188 / 5000;
#X obj 214 210 - 1;
#X obj 214 272 * 0;
#X obj 15 856 outlet;
#X obj 179 335 expr 1.0-pow(2.0 \, $f1/12.0), f 28;
#X obj 225 601 * -1;
#X obj 171 567 kdemux2;
#X obj 179 408 t f b;
#X obj 505 245 r \$0-reverse;
#X obj 503 281 clip 0 1;
#X obj 211 462 random 1001;
#X obj 211 483 / -1000;
#X obj 211 505 + 1;
#X obj 225 623 + 2;
#X obj 212 529 <= 0;
#X obj 13 399 unpack 0 0 0 0 0;
#X obj 25 786 pack 0 0 0 0 0 0;
#X obj 77 454 +;
#X obj 6 644 +;
#X obj 52 548 *;
#X obj 175 676 t f;
#X obj 112 593 * -1;
#X obj 112 615 max 0;
#X obj 54 479 +;
#X obj 6 666 * 1.1;
#X text 56 661 safety;
#X obj 211 436 spigot;
#X obj 503 302 t f f;
#X obj 175 698 kdemux2;
#X obj 218 729 * -1;
#X obj 218 751 + 1;
#X obj 176 766 t f;
#X obj 285 661 r \$0-freeze;
#X obj 7 603 kdemux2;
#X connect 0 0 5 0;
#X connect 1 0 6 1;
#X connect 2 0 12 0;
#X connect 3 0 2 0;
#X connect 3 1 7 0;
#X connect 4 0 10 1;
#X connect 5 0 23 0;
#X connect 5 1 6 0;
#X connect 6 0 3 0;
#X connect 7 0 8 0;
#X connect 8 0 9 0;
#X connect 9 0 10 0;
#X connect 10 0 2 1;
#X connect 12 0 15 0;
#X connect 13 0 21 0;
#X connect 14 0 28 0;
#X connect 14 0 29 0;
#X connect 14 1 13 0;
#X connect 15 0 14 0;
#X connect 15 1 34 0;
#X connect 16 0 17 0;
#X connect 17 0 35 0;
#X connect 18 0 19 0;
#X connect 19 0 20 0;
#X connect 20 0 22 0;
#X connect 21 0 28 0;
#X connect 22 0 14 1;
#X connect 23 0 41 0;
#X connect 23 1 24 1;
#X connect 23 2 24 2;
#X connect 23 2 31 0;
#X connect 23 3 24 3;
#X connect 23 3 25 0;
#X connect 23 4 24 4;
#X connect 23 4 25 1;
#X connect 24 0 11 0;
#X connect 25 0 31 1;
#X connect 26 0 32 0;
#X connect 27 0 26 1;
#X connect 28 0 36 0;
#X connect 29 0 30 0;
#X connect 30 0 27 1;
#X connect 31 0 27 0;
#X connect 32 0 24 0;
#X connect 34 0 18 0;
#X connect 35 0 34 1;
#X connect 35 1 22 1;
#X connect 36 0 39 0;
#X connect 36 1 37 0;
#X connect 37 0 38 0;
#X connect 38 0 39 0;
#X connect 39 0 24 5;
#X connect 40 0 36 1;
#X connect 40 0 41 1;
#X connect 41 0 26 0;
#X connect 41 1 24 0;
#X restore 55 579 pd transpose;
#X obj 795 64 inlet;
#X obj 781 214 t a;
#X text 814 97 outputs;
#X obj 55 541 pack 0 0 0 0 0;
#X obj 277 248 / 1;
#N canvas 109 170 530 353 density 0;
#X obj 128 48 inlet;
#X obj 129 371 outlet;
#X connect 0 0 1 0;
#X restore 297 477 pd density;
#X obj 58 403 upp.onward.randomsustain.distribute;
#X obj 515 370 r \$0-density;
#X obj 544 659 + 1;
#X obj 544 637 / -100;
#X obj 551 604 random 100;
#X obj 544 681 <=;
#X obj 640 651 r \$0-density;
#X obj 640 673 clip 0 1;
#X obj 492 717 spigot;
#X obj 523 572 t a b;
#X connect 2 0 15 0;
#X connect 2 0 30 0;
#X connect 7 0 14 0;
#X connect 7 0 27 2;
#X connect 8 0 13 0;
#X connect 8 0 27 3;
#X connect 9 0 17 1;
#X connect 9 0 27 4;
#X connect 13 0 14 0;
#X connect 13 1 14 1;
#X connect 14 0 28 0;
#X connect 15 0 16 0;
#X connect 16 0 17 0;
#X connect 17 0 22 1;
#X connect 18 0 20 0;
#X connect 20 0 30 2;
#X connect 21 0 27 0;
#X connect 22 0 39 0;
#X connect 22 1 4 0;
#X connect 23 0 22 0;
#X connect 24 0 25 0;
#X connect 25 0 30 3;
#X connect 27 0 23 0;
#X connect 28 0 30 1;
#X connect 29 0 17 0;
#X connect 30 0 21 0;
#X connect 30 1 27 1;
#X connect 30 1 29 0;
#X connect 30 2 22 2;
#X connect 31 0 30 4;
#X connect 32 0 35 0;
#X connect 33 0 32 0;
#X connect 34 0 33 0;
#X connect 35 0 38 1;
#X connect 36 0 37 0;
#X connect 37 0 35 1;
#X connect 38 0 0 0;
#X connect 39 0 38 0;
#X connect 39 1 34 0;
#X restore 101 370 pd play ___________;
#X obj 101 141 r \$0-state;
#X obj 106 623 outlet~;
#X obj 97 18 inlet~;
#X obj 453 126 r \$0-state;
#X obj 453 148 1del0;
#X obj 453 170 switch~;
#X obj 97 40 delwrite~ \$0-buffer 60000;
#X obj 621 866 t a b;
#X obj 685 901 f;
#X obj 734 898 + 1;
#X obj 734 920 mod 1e+09;
#X msg 701 1030 symbol \$2-\$1;
#X obj 697 975 pack f \$0;
#X obj 166 182 r \$0-sustain;
#X obj 198 201 r \$0-release;
#X obj 133 162 r \$0-attack;
#X obj 233 301 r \$0-sustain-random;
#X obj 617 1073 list prepend \$0-grain;
#X obj 878 1079 list prepend \$0-grain;
#X obj 288 337 r \$0-outputs;
#X obj 229 124 wnd-sin \$0-wnd 1024;
#X obj 447 334 soundfiler;
#X obj 447 257 openpanel;
#X msg 447 304 read -resize \$1 \$2;
#X obj 450 364 upp.s2ms;
#X obj 541 334 table \$0-sample;
#X obj 448 211 r \$0-loadsample;
#X floatatom 450 386 5 0 0 0 - - -, f 5;
#X obj 447 283 list append \$0-sample;
#X obj 448 233 t b;
#X obj 230 429 spigot;
#X obj 301 381 r \$0-random-density;
#X obj 301 403 <= 0;
#X obj 49 527 upp.xc 100 spat-varbus fx_granular_voice_var \$0-wnd
1024 \$0-buffer \$0-sample;
#X connect 3 0 37 0;
#X connect 3 1 34 0;
#X connect 4 0 3 0;
#X connect 6 0 10 0;
#X connect 7 0 8 0;
#X connect 8 0 9 0;
#X connect 11 0 21 0;
#X connect 11 1 12 0;
#X connect 12 0 13 0;
#X connect 12 0 16 0;
#X connect 13 0 14 0;
#X connect 14 0 12 1;
#X connect 15 0 21 1;
#X connect 15 0 22 1;
#X connect 16 0 15 0;
#X connect 17 0 3 2;
#X connect 18 0 3 3;
#X connect 19 0 3 1;
#X connect 20 0 3 4;
#X connect 23 0 3 5;
#X connect 25 0 28 0;
#X connect 26 0 32 0;
#X connect 27 0 25 0;
#X connect 28 0 31 0;
#X connect 30 0 33 0;
#X connect 32 0 27 0;
#X connect 33 0 26 0;
#X connect 34 0 37 1;
#X connect 35 0 36 0;
#X connect 36 0 34 1;
#X connect 37 0 1 0;
#X connect 37 2 2 0;
#X restore 81 234 pd granulator;
#X obj 92 112 inlet~;
#X obj 184 233 fx_gain~;
#X obj 233 152 r \$0-state;
#X obj 233 174 == 0;
#X obj 81 336 outlet~;
#X obj 399 39 inlet;
#X obj 264 531 s \$0-predelay;
#X obj 326 510 s \$0-state;
#X text 281 585 (c)2013 Marian Weger;
#X obj 496 450 s \$0-position-random;
#X obj 556 430 s \$0-density;
#X obj 446 470 s \$0-transpose;
#X obj 609 408 s \$0-transpose-random;
#X text 79 46 fx_granular48~;
#N canvas 1330 119 450 300 channelmapping 0;
#X obj 75 192 s \$0-channelmapping;
#X obj 75 156 list prepend 0;
#X obj 69 241 array define \$0-channelmapping 48;
#X obj 75 116 t a b;
#X msg 204 156 const 0;
#X obj 250 78 r \$0-outputs;
#X obj 250 100 sel 0;
#X obj 76 94 r \$0-outputs-list;
#X connect 1 0 0 0;
#X connect 3 0 1 0;
#X connect 3 1 4 0;
#X connect 4 0 0 0;
#X connect 5 0 6 0;
#X connect 6 0 4 0;
#X connect 7 0 3 0;
#X restore 744 446 pd channelmapping;
#X obj 662 375 s \$0-outputs;
#X obj 723 340 s \$0-outputs-list;
#X obj 386 490 s \$0-attack;
#X obj 734 299 s \$0-sustain;
#X obj 752 266 s \$0-release;
#X obj 769 233 s \$0-sustain-random;
#X obj 783 206 s \$0-reverse;
#X obj 783 171 s \$0-loadsample;
#X obj 797 137 s \$0-freeze;
#X obj 388 68 route predelay state attack transpose position-random
density transpose-random outputs outputs-list sustain release sustain-random
reverse loadsample freeze density-random;
#X obj 807 102 s \$0-random-density;
#X connect 0 0 5 0;
#X connect 1 0 0 0;
#X connect 1 0 2 0;
#X connect 2 0 5 0;
#X connect 3 0 4 0;
#X connect 4 0 2 1;
#X connect 6 0 25 0;
#X connect 25 0 7 0;
#X connect 25 1 8 0;
#X connect 25 2 18 0;
#X connect 25 3 12 0;
#X connect 25 4 10 0;
#X connect 25 5 11 0;
#X connect 25 6 13 0;
#X connect 25 7 16 0;
#X connect 25 8 17 0;
#X connect 25 9 19 0;
#X connect 25 10 20 0;
#X connect 25 11 21 0;
#X connect 25 12 22 0;
#X connect 25 13 23 0;
#X connect 25 14 24 0;
#X connect 25 15 26 0;
