#N canvas 0 58 1280 940 10;
#X text 574 11 grrrr.org 2012;
#X text 40 5 sample_buffer playpos(ms) attack(ms) sustain(ms) release(ms)
speed, f 68;
#X obj 76 42 inlet;
#X obj 227 529 outlet~;
#X obj 227 504 *~;
#X obj 63 529 outlet;
#X obj 76 69 list split 1;
#X obj 77 101 t b b b a;
#X obj 218 184 cnv 15 120 150 empty empty play_sample 20 12 0 14 -233017
-66577 0;
#X obj 386 175 cnv 15 180 150 empty empty play_envelope 20 12 0 14
-233017 -66577 0;
#X obj 399 266 vline~;
#X obj 473 232 pack 0 0 0;
#X text 400 217 attack;
#X text 477 217 release;
#X obj 337 126 +;
#X obj 63 200 +;
#X text 58 223 total duration;
#X text 328 43 L<<<<<R;
#X obj 399 298 tabread4~ \$1;
#X obj 518 47 inlet;
#X text 515 66 dummy;
#X obj 399 232 pack \$2 0;
#X obj 304 63 unpack 0 0 0 0 0;
#X obj 227 464 vd~ \$3;
#N canvas 761 689 291 306 ramp 0;
#X obj 38 74 inlet;
#X obj 137 74 inlet;
#X obj 38 224 outlet~;
#X text 34 52 starting pos;
#X text 116 50 increase per sample;
#X text 34 16 endless ramp;
#X msg 38 154 set \$1;
#X obj 38 191 biquad~ 1 0 1 0 0;
#X connect 0 0 6 0;
#X connect 1 0 7 0;
#X connect 6 0 7 0;
#X connect 7 0 2 0;
#X restore 228 403 pd ramp;
#X obj 273 367 upp.s2ms;
#X obj 228 425 max~ 0;
#X obj 228 308 f 0;
#X connect 2 0 6 0;
#X connect 4 0 3 0;
#X connect 6 0 7 0;
#X connect 6 1 22 0;
#X connect 7 0 27 0;
#X connect 7 1 11 0;
#X connect 7 2 21 0;
#X connect 10 0 18 0;
#X connect 11 0 10 0;
#X connect 14 0 11 2;
#X connect 14 0 15 0;
#X connect 15 0 5 0;
#X connect 18 0 4 1;
#X connect 21 0 10 0;
#X connect 22 0 27 1;
#X connect 22 1 14 0;
#X connect 22 1 21 1;
#X connect 22 2 14 1;
#X connect 22 3 11 1;
#X connect 22 3 15 1;
#X connect 22 4 25 0;
#X connect 23 0 4 0;
#X connect 24 0 26 0;
#X connect 25 0 24 1;
#X connect 26 0 23 0;
#X connect 27 0 24 0;
