#N canvas 366 385 706 542 10;
#X obj 62 82 inlet;
#X obj 255 515 outlet~;
#X obj 255 490 *~;
#X obj 63 491 outlet;
#X obj 62 131 list split 1;
#X obj 218 224 cnv 15 120 150 empty empty play_sample 20 12 0 14 -233017
-66577 0;
#X obj 386 215 cnv 15 180 150 empty empty play_envelope 20 12 0 14
-233017 -66577 0;
#X obj 399 306 vline~;
#X text 402 260 attack;
#X text 486 261 release;
#X obj 399 338 tabread4~ \$1;
#X obj 333 60 inlet;
#X text 651 197 grrrr.org 2012;
#X obj 333 110 list split 1;
#X obj 484 241 t b a;
#N canvas 761 548 291 306 ramp 0;
#X obj 38 74 inlet;
#X obj 137 74 inlet;
#X obj 38 224 outlet~;
#X text 34 52 starting pos;
#X text 116 50 increase per sample;
#X text 34 16 endless ramp;
#X msg 38 154 set \$1;
#X obj 38 191 biquad~ 1 0 1 0 0;
#X connect 0 0 6 0;
#X connect 1 0 7 0;
#X connect 6 0 7 0;
#X connect 7 0 2 0;
#X restore 280 388 pd ramp;
#X obj 399 241 t b a;
#X obj 333 87 upp.once;
#X obj 62 109 t a b;
#X text 331 44 sample_buffer delay(samples) release(ms);
#X obj 367 136 unpack 0 0;
#X obj 399 276 pack \$2 0 0;
#X obj 484 276 pack 0 0 0;
#X obj 125 213 upp.s2ms;
#X obj 456 136 upp.s2ms;
#X obj 255 445 vd~ \$3;
#X obj 319 360 upp.s2ms;
#X obj 280 410 max~ 0;
#X obj 96 158 unpack 0 0 0 0 0 0;
#X text 59 8 sample_buffer playpos(ms) delay(samples) attack(ms) sustain(ms)
release(ms) speed, f 83;
#X obj 122 188 max 0;
#X obj 94 342 max 0;
#X obj 92 294 + 0;
#X connect 0 0 18 0;
#X connect 2 0 1 0;
#X connect 4 1 28 0;
#X connect 7 0 10 0;
#X connect 10 0 2 1;
#X connect 11 0 17 0;
#X connect 13 1 20 0;
#X connect 14 0 22 0;
#X connect 14 1 22 2;
#X connect 15 0 27 0;
#X connect 16 0 21 0;
#X connect 16 1 21 2;
#X connect 17 0 13 0;
#X connect 18 0 4 0;
#X connect 18 1 17 1;
#X connect 20 0 24 0;
#X connect 20 1 3 0;
#X connect 20 1 22 1;
#X connect 21 0 7 0;
#X connect 22 0 7 0;
#X connect 23 0 16 0;
#X connect 23 0 32 1;
#X connect 24 0 14 0;
#X connect 25 0 2 0;
#X connect 26 0 15 1;
#X connect 27 0 25 0;
#X connect 28 0 32 0;
#X connect 28 1 30 0;
#X connect 28 2 21 1;
#X connect 28 5 26 0;
#X connect 30 0 23 0;
#X connect 31 0 15 0;
#X connect 32 0 31 0;
