#N canvas 447 87 511 451 10;
#X obj 114 277 *~;
#X obj 204 199 pack 0 5;
#X obj 204 221 line~;
#X obj 114 37 inlet~;
#X obj 114 309 outlet~;
#X obj 204 43 inlet;
#X text 216 302 (c)2012 Marian Weger;
#X text 42 14 fx_gain~;
#X obj 231 162 switch~;
#X obj 231 112 change;
#X obj 204 66 t f f;
#X obj 231 136 1del0 15;
#X obj 231 90 != 0;
#X obj 370 308 outlet;
#X connect 0 0 4 0;
#X connect 1 0 2 0;
#X connect 2 0 0 1;
#X connect 3 0 0 0;
#X connect 5 0 10 0;
#X connect 9 0 11 0;
#X connect 10 0 1 0;
#X connect 10 1 12 0;
#X connect 11 0 8 0;
#X connect 11 0 13 0;
#X connect 12 0 9 0;
