#N canvas 75 98 536 425 10;
#X text 288 331 (c)2012 Marian Weger;
#X obj 298 124 inlet statelist;
#X obj 298 275 outlet statelist;
#X msg 401 150 1;
#N canvas 147 151 714 479 ctl 0;
#X obj 64 435 outlet;
#X obj 64 404 list trim;
#X obj 74 78 r /fx/gate/\$1/state;
#X obj 74 100 list prepend state;
#X obj 84 128 r /fx/gate/\$1/threshold;
#X obj 84 150 list prepend threshold;
#X obj 94 178 r /fx/gate/\$1/lookahead;
#X obj 94 200 list prepend lookahead;
#X obj 104 228 r /fx/gate/\$1/attack;
#X obj 104 250 list prepend attack;
#X obj 114 278 r /fx/gate/\$1/hold;
#X obj 114 300 list prepend hold;
#X obj 124 328 r /fx/gate/\$1/release;
#X obj 124 350 list prepend release;
#X connect 1 0 0 0;
#X connect 2 0 3 0;
#X connect 3 0 1 0;
#X connect 4 0 5 0;
#X connect 5 0 1 0;
#X connect 6 0 7 0;
#X connect 7 0 1 0;
#X connect 8 0 9 0;
#X connect 9 0 1 0;
#X connect 10 0 11 0;
#X connect 11 0 1 0;
#X connect 12 0 13 0;
#X connect 13 0 1 0;
#X restore 60 162 pd ctl;
#X obj 60 314 outlet;
#N canvas 848 338 343 255 init 0;
#X obj 32 29 loadbang;
#X obj 32 51 t b b;
#X obj 213 93 outlet;
#X obj 32 91 list prepend \$1 \$2 \$3;
#X msg 32 113 \; /fx/gate/\$1/state 0 \; /fx/gate/\$1/attack 1 \; /fx/gate/\$1/hold
50 \; /fx/gate/\$1/release 50 \; /fx/gate/\$1/threshold 70 \; /fx/gate/\$1/lookahead
0 \;;
#X connect 0 0 1 0;
#X connect 1 0 3 0;
#X connect 1 1 2 0;
#X connect 3 0 4 0;
#X restore 401 124 pd init;
#N canvas 200 240 397 249 ds 0;
#X obj 61 79 ds_reg \$2 /fx/gate/\$1/state nomorph;
#X obj 61 99 ds_reg \$2 /fx/gate/\$1/attack;
#X obj 61 119 ds_reg \$2 /fx/gate/\$1/hold;
#X obj 61 139 ds_reg \$2 /fx/gate/\$1/release;
#X obj 61 159 ds_reg \$2 /fx/gate/\$1/threshold;
#X obj 61 179 ds_reg \$2 /fx/gate/\$1/lookahead nomorph;
#X restore 174 225 pd ds;
#N canvas 200 240 397 249 osc 0;
#X obj 61 179 osc_bi \$2 /fx/gate/\$1/lookahead;
#X obj 61 159 osc_bi \$2 /fx/gate/\$1/threshold;
#X obj 61 139 osc_bi \$2 /fx/gate/\$1/release;
#X obj 61 119 osc_bi \$2 /fx/gate/\$1/hold;
#X obj 61 99 osc_bi \$2 /fx/gate/\$1/attack;
#X obj 61 79 osc_bi \$2 /fx/gate/\$1/state;
#X restore 174 245 pd osc;
#X text 40 12 fx_gate_ctl <name> <domain>;
#X connect 1 0 2 0;
#X connect 3 0 2 0;
#X connect 4 0 5 0;
#X connect 6 0 3 0;
