#N canvas 0 51 1366 691 10;
#X obj 34 387 *~;
#X obj 34 37 inlet~;
#X obj 34 419 outlet~;
#X obj 84 387 *~;
#X obj 84 37 inlet~;
#X obj 84 419 outlet~;
#X obj 134 387 *~;
#X obj 134 37 inlet~;
#X obj 134 419 outlet~;
#X obj 184 387 *~;
#X obj 184 37 inlet~;
#X obj 184 419 outlet~;
#X obj 234 387 *~;
#X obj 234 37 inlet~;
#X obj 234 419 outlet~;
#X obj 284 387 *~;
#X obj 284 37 inlet~;
#X obj 284 419 outlet~;
#X obj 334 387 *~;
#X obj 334 37 inlet~;
#X obj 334 419 outlet~;
#X obj 384 387 *~;
#X obj 384 37 inlet~;
#X obj 384 419 outlet~;
#X obj 2557 309 outlet;
#X obj 2421 276 pack 0 5;
#X obj 2421 298 line~;
#X obj 2421 120 inlet;
#X obj 2448 239 switch~;
#X obj 2448 189 change;
#X obj 2421 143 t f f;
#X obj 2448 213 1del0 15;
#X obj 2448 167 != 0;
#X obj 434 387 *~;
#X obj 434 37 inlet~;
#X obj 434 419 outlet~;
#X obj 484 387 *~;
#X obj 484 37 inlet~;
#X obj 484 419 outlet~;
#X obj 534 387 *~;
#X obj 534 37 inlet~;
#X obj 534 419 outlet~;
#X obj 584 387 *~;
#X obj 584 37 inlet~;
#X obj 584 419 outlet~;
#X obj 634 387 *~;
#X obj 634 37 inlet~;
#X obj 634 419 outlet~;
#X obj 684 387 *~;
#X obj 684 37 inlet~;
#X obj 684 419 outlet~;
#X obj 734 387 *~;
#X obj 734 37 inlet~;
#X obj 734 419 outlet~;
#X obj 784 387 *~;
#X obj 784 37 inlet~;
#X obj 784 419 outlet~;
#X obj 834 387 *~;
#X obj 834 37 inlet~;
#X obj 834 419 outlet~;
#X obj 884 387 *~;
#X obj 884 37 inlet~;
#X obj 884 419 outlet~;
#X obj 934 387 *~;
#X obj 934 37 inlet~;
#X obj 934 419 outlet~;
#X obj 984 387 *~;
#X obj 984 37 inlet~;
#X obj 984 419 outlet~;
#X obj 1034 387 *~;
#X obj 1034 37 inlet~;
#X obj 1034 419 outlet~;
#X obj 1084 387 *~;
#X obj 1084 37 inlet~;
#X obj 1084 419 outlet~;
#X obj 1134 387 *~;
#X obj 1134 37 inlet~;
#X obj 1134 419 outlet~;
#X obj 1184 387 *~;
#X obj 1184 37 inlet~;
#X obj 1184 419 outlet~;
#X obj 1244 387 *~;
#X obj 1244 37 inlet~;
#X obj 1244 419 outlet~;
#X obj 1294 387 *~;
#X obj 1294 37 inlet~;
#X obj 1294 419 outlet~;
#X obj 1344 387 *~;
#X obj 1344 37 inlet~;
#X obj 1344 419 outlet~;
#X obj 1394 387 *~;
#X obj 1394 37 inlet~;
#X obj 1394 419 outlet~;
#X obj 1444 387 *~;
#X obj 1444 37 inlet~;
#X obj 1444 419 outlet~;
#X obj 1494 387 *~;
#X obj 1494 37 inlet~;
#X obj 1494 419 outlet~;
#X obj 1544 387 *~;
#X obj 1544 37 inlet~;
#X obj 1544 419 outlet~;
#X obj 1594 387 *~;
#X obj 1594 37 inlet~;
#X obj 1594 419 outlet~;
#X obj 1644 387 *~;
#X obj 1644 37 inlet~;
#X obj 1644 419 outlet~;
#X obj 1694 387 *~;
#X obj 1694 37 inlet~;
#X obj 1694 419 outlet~;
#X obj 1744 387 *~;
#X obj 1744 37 inlet~;
#X obj 1744 419 outlet~;
#X obj 1794 387 *~;
#X obj 1794 37 inlet~;
#X obj 1794 419 outlet~;
#X obj 1844 387 *~;
#X obj 1844 37 inlet~;
#X obj 1844 419 outlet~;
#X obj 1894 387 *~;
#X obj 1894 37 inlet~;
#X obj 1894 419 outlet~;
#X obj 1944 387 *~;
#X obj 1944 37 inlet~;
#X obj 1944 419 outlet~;
#X obj 1994 387 *~;
#X obj 1994 37 inlet~;
#X obj 1994 419 outlet~;
#X obj 2044 387 *~;
#X obj 2044 37 inlet~;
#X obj 2044 419 outlet~;
#X obj 2094 387 *~;
#X obj 2094 37 inlet~;
#X obj 2094 419 outlet~;
#X obj 2144 387 *~;
#X obj 2144 37 inlet~;
#X obj 2144 419 outlet~;
#X obj 2194 387 *~;
#X obj 2194 37 inlet~;
#X obj 2194 419 outlet~;
#X obj 2244 387 *~;
#X obj 2244 37 inlet~;
#X obj 2244 419 outlet~;
#X obj 2294 387 *~;
#X obj 2294 37 inlet~;
#X obj 2294 419 outlet~;
#X obj 2344 387 *~;
#X obj 2344 37 inlet~;
#X obj 2344 419 outlet~;
#X obj 2394 387 *~;
#X obj 2394 37 inlet~;
#X obj 2394 419 outlet~;
#X text 42 14 fx_gain_48~;
#X text 69 457 (c)2015 Marian Weger;
#X connect 0 0 2 0;
#X connect 1 0 0 0;
#X connect 3 0 5 0;
#X connect 4 0 3 0;
#X connect 6 0 8 0;
#X connect 7 0 6 0;
#X connect 9 0 11 0;
#X connect 10 0 9 0;
#X connect 12 0 14 0;
#X connect 13 0 12 0;
#X connect 15 0 17 0;
#X connect 16 0 15 0;
#X connect 18 0 20 0;
#X connect 19 0 18 0;
#X connect 21 0 23 0;
#X connect 22 0 21 0;
#X connect 25 0 26 0;
#X connect 26 0 21 1;
#X connect 26 0 18 1;
#X connect 26 0 15 1;
#X connect 26 0 12 1;
#X connect 26 0 9 1;
#X connect 26 0 6 1;
#X connect 26 0 3 1;
#X connect 26 0 0 1;
#X connect 26 0 33 1;
#X connect 26 0 36 1;
#X connect 26 0 39 1;
#X connect 26 0 42 1;
#X connect 26 0 45 1;
#X connect 26 0 48 1;
#X connect 26 0 51 1;
#X connect 26 0 54 1;
#X connect 26 0 57 1;
#X connect 26 0 60 1;
#X connect 26 0 63 1;
#X connect 26 0 66 1;
#X connect 26 0 69 1;
#X connect 26 0 72 1;
#X connect 26 0 75 1;
#X connect 26 0 78 1;
#X connect 26 0 81 1;
#X connect 26 0 84 1;
#X connect 26 0 87 1;
#X connect 26 0 90 1;
#X connect 26 0 93 1;
#X connect 26 0 96 1;
#X connect 26 0 99 1;
#X connect 26 0 102 1;
#X connect 26 0 105 1;
#X connect 26 0 108 1;
#X connect 26 0 111 1;
#X connect 26 0 114 1;
#X connect 26 0 117 1;
#X connect 26 0 120 1;
#X connect 26 0 123 1;
#X connect 26 0 126 1;
#X connect 26 0 129 1;
#X connect 26 0 132 1;
#X connect 26 0 135 1;
#X connect 26 0 138 1;
#X connect 26 0 141 1;
#X connect 26 0 144 1;
#X connect 26 0 147 1;
#X connect 26 0 150 1;
#X connect 27 0 30 0;
#X connect 29 0 31 0;
#X connect 30 0 25 0;
#X connect 30 1 32 0;
#X connect 31 0 28 0;
#X connect 31 0 24 0;
#X connect 32 0 29 0;
#X connect 33 0 35 0;
#X connect 34 0 33 0;
#X connect 36 0 38 0;
#X connect 37 0 36 0;
#X connect 39 0 41 0;
#X connect 40 0 39 0;
#X connect 42 0 44 0;
#X connect 43 0 42 0;
#X connect 45 0 47 0;
#X connect 46 0 45 0;
#X connect 48 0 50 0;
#X connect 49 0 48 0;
#X connect 51 0 53 0;
#X connect 52 0 51 0;
#X connect 54 0 56 0;
#X connect 55 0 54 0;
#X connect 57 0 59 0;
#X connect 58 0 57 0;
#X connect 60 0 62 0;
#X connect 61 0 60 0;
#X connect 63 0 65 0;
#X connect 64 0 63 0;
#X connect 66 0 68 0;
#X connect 67 0 66 0;
#X connect 69 0 71 0;
#X connect 70 0 69 0;
#X connect 72 0 74 0;
#X connect 73 0 72 0;
#X connect 75 0 77 0;
#X connect 76 0 75 0;
#X connect 78 0 80 0;
#X connect 79 0 78 0;
#X connect 81 0 83 0;
#X connect 82 0 81 0;
#X connect 84 0 86 0;
#X connect 85 0 84 0;
#X connect 87 0 89 0;
#X connect 88 0 87 0;
#X connect 90 0 92 0;
#X connect 91 0 90 0;
#X connect 93 0 95 0;
#X connect 94 0 93 0;
#X connect 96 0 98 0;
#X connect 97 0 96 0;
#X connect 99 0 101 0;
#X connect 100 0 99 0;
#X connect 102 0 104 0;
#X connect 103 0 102 0;
#X connect 105 0 107 0;
#X connect 106 0 105 0;
#X connect 108 0 110 0;
#X connect 109 0 108 0;
#X connect 111 0 113 0;
#X connect 112 0 111 0;
#X connect 114 0 116 0;
#X connect 115 0 114 0;
#X connect 117 0 119 0;
#X connect 118 0 117 0;
#X connect 120 0 122 0;
#X connect 121 0 120 0;
#X connect 123 0 125 0;
#X connect 124 0 123 0;
#X connect 126 0 128 0;
#X connect 127 0 126 0;
#X connect 129 0 131 0;
#X connect 130 0 129 0;
#X connect 132 0 134 0;
#X connect 133 0 132 0;
#X connect 135 0 137 0;
#X connect 136 0 135 0;
#X connect 138 0 140 0;
#X connect 139 0 138 0;
#X connect 141 0 143 0;
#X connect 142 0 141 0;
#X connect 144 0 146 0;
#X connect 145 0 144 0;
#X connect 147 0 149 0;
#X connect 148 0 147 0;
#X connect 150 0 152 0;
#X connect 151 0 150 0;
