#N canvas 0 22 536 425 10;
#X obj 298 128 inlet statelist;
#X obj 298 275 outlet statelist;
#N canvas 628 22 714 479 ctl 0;
#X obj 64 435 outlet;
#X obj 64 372 list trim;
#X obj 74 50 list prepend transpose;
#X obj 84 100 list prepend state;
#X obj 74 28 r /fx/granular/\$1/transpose;
#X obj 84 78 r /fx/granular/\$1/state;
#X obj 94 128 r /fx/granular/\$1/grainlength;
#X obj 94 150 list prepend grainlength;
#X obj 104 178 r /fx/granular/\$1/predelay;
#X obj 104 200 list prepend predelay;
#X obj 124 228 r /fx/granular/\$1/position/random;
#X obj 124 250 list prepend position-random;
#X obj 134 278 r /fx/granular/\$1/density;
#X obj 134 300 list prepend density;
#X connect 1 0 0 0;
#X connect 2 0 1 0;
#X connect 3 0 1 0;
#X connect 4 0 2 0;
#X connect 5 0 3 0;
#X connect 6 0 7 0;
#X connect 7 0 1 0;
#X connect 8 0 9 0;
#X connect 9 0 1 0;
#X connect 10 0 11 0;
#X connect 11 0 1 0;
#X connect 12 0 13 0;
#X connect 13 0 1 0;
#X restore 60 162 pd ctl;
#X obj 60 314 outlet;
#N canvas 167 294 450 300 ds 0;
#X obj 102 127 ds_reg \$2 /fx/granular/\$1/transpose;
#X obj 102 147 ds_reg \$2 /fx/granular/\$1/state nomorph;
#X obj 102 167 ds_reg \$2 /fx/granular/\$1/grainlength;
#X obj 102 187 ds_reg \$2 /fx/granular/\$1/predelay;
#X obj 102 207 ds_reg \$2 /fx/granular/\$1/position/random;
#X obj 102 227 ds_reg \$2 /fx/granular/\$1/density;
#X restore 199 239 pd ds;
#N canvas 764 352 450 300 osc 0;
#X obj 102 147 osc_bi \$2 /fx/granular/\$1/state;
#X obj 102 127 osc_bi \$2 /fx/granular/\$1/transpose;
#X obj 102 167 osc_bi \$2 /fx/granular/\$1/grainlength;
#X obj 102 187 osc_bi \$2 /fx/granular/\$1/predelay;
#X obj 102 207 osc_bi \$2 /fx/granular/\$1/position/random;
#X obj 102 227 osc_bi \$2 /fx/granular/\$1/density;
#X restore 199 259 pd osc;
#N canvas 659 253 463 335 init 0;
#X obj 136 41 loadbang;
#X obj 136 79 t b b;
#X msg 368 145 1;
#X obj 368 167 outlet;
#X obj 136 169 list prepend \$1 \$2;
#X msg 136 201 \; /fx/granular/\$1/state 0 \; /fx/granular/\$1/transpose
0 \; /fx/granular/\$1/grainlength 50 \; /fx/granular/\$1/predelay 50
\; /fx/granular/\$1/position/random 0 \; /fx/granular/\$1/density 1
\;;
#X connect 0 0 1 0;
#X connect 1 0 4 0;
#X connect 1 1 2 0;
#X connect 2 0 3 0;
#X connect 4 0 5 0;
#X restore 421 130 pd init;
#X text 40 12 fx_granular_ctl <name> <domain>;
#X text 290 331 (c)2013 Marian Weger;
#X connect 0 0 1 0;
#X connect 2 0 3 0;
#X connect 6 0 1 0;
