#N canvas 161 288 706 542 10;
#X obj 62 82 inlet;
#X obj 214 800 outlet~;
#X obj 214 775 *~;
#X obj 63 621 outlet;
#X obj 62 131 list split 1;
#X obj 218 354 cnv 15 120 150 empty empty play_sample 20 12 0 14 -233017
-66577 0;
#X obj 386 345 cnv 15 180 150 empty empty play_envelope 20 12 0 14
-233017 -66577 0;
#X obj 399 436 vline~;
#X text 402 390 attack;
#X text 486 391 release;
#X obj 399 468 tabread4~ \$1;
#X obj 333 60 inlet;
#X text 651 327 grrrr.org 2012;
#X obj 373 135 list split 1;
#X obj 484 371 t b a;
#N canvas 761 548 291 306 ramp 0;
#X obj 38 74 inlet;
#X obj 137 74 inlet;
#X obj 38 224 outlet~;
#X text 34 52 starting pos;
#X text 116 50 increase per sample;
#X text 34 16 endless ramp;
#X msg 38 154 set \$1;
#X obj 38 191 biquad~ 1 0 1 0 0;
#X connect 0 0 6 0;
#X connect 1 0 7 0;
#X connect 6 0 7 0;
#X connect 7 0 2 0;
#X restore 214 543 pd ramp;
#X obj 399 371 t b a;
#X obj 372 100 upp.once;
#X obj 62 109 t a b;
#X text 331 44 sample_buffer delay(samples) release(ms);
#X obj 373 175 unpack 0 0;
#X obj 399 406 pack \$2 0 0;
#X obj 484 406 pack 0 0 0;
#X obj 125 343 upp.s2ms;
#X obj 342 215 upp.s2ms;
#X obj 198 624 vd~ \$3;
#X obj 250 422 upp.s2ms;
#X obj 122 318 max 0;
#X obj 152 504 max 0;
#X obj 92 424 + 0;
#X obj 184 386 *;
#X obj 161 413 -;
#X obj 161 435 upp.ms2s;
#X obj 253 473 kmux2;
#X obj 207 653 *~;
#X obj 298 693 *~;
#X obj 249 593 == 0;
#X obj 273 636 tabread4~ \$4;
#X obj 138 463 kmux2;
#X obj 237 148 del;
#X obj 147 174 +;
#X obj 171 140 +;
#X obj 240 181 pack 0 0 0;
#X text 59 8 sample_buffer playpos(ms) delay(samples) attack(ms) sustain(ms)
release(ms) speed freeze random-density, f 83;
#X obj 96 288 unpack 0 0 0 0 0 0 0 0;
#X obj 193 198 +, f 4;
#X obj 281 235 t f b;
#X obj 278 307 *;
#X obj 298 262 random 1001;
#X obj 298 284 / 1000;
#X connect 0 0 18 0;
#X connect 2 0 1 0;
#X connect 4 1 44 0;
#X connect 7 0 10 0;
#X connect 10 0 2 1;
#X connect 11 0 17 0;
#X connect 13 1 20 0;
#X connect 14 0 22 0;
#X connect 14 1 22 2;
#X connect 15 0 25 0;
#X connect 15 0 37 0;
#X connect 16 0 21 0;
#X connect 16 1 21 2;
#X connect 17 0 13 0;
#X connect 18 0 4 0;
#X connect 18 1 17 1;
#X connect 20 0 24 0;
#X connect 20 1 3 0;
#X connect 20 1 22 1;
#X connect 21 0 7 0;
#X connect 22 0 7 0;
#X connect 23 0 16 0;
#X connect 23 0 29 1;
#X connect 23 0 30 0;
#X connect 24 0 14 0;
#X connect 25 0 34 0;
#X connect 26 0 33 0;
#X connect 27 0 23 0;
#X connect 28 0 15 0;
#X connect 29 0 38 0;
#X connect 30 0 31 1;
#X connect 31 0 32 0;
#X connect 32 0 38 1;
#X connect 33 0 15 1;
#X connect 34 0 2 0;
#X connect 35 0 2 0;
#X connect 36 0 34 1;
#X connect 37 0 35 0;
#X connect 38 0 28 0;
#X connect 39 0 42 0;
#X connect 40 0 45 0;
#X connect 41 0 40 1;
#X connect 42 0 17 0;
#X connect 44 0 29 0;
#X connect 44 0 31 0;
#X connect 44 1 27 0;
#X connect 44 1 40 0;
#X connect 44 1 42 1;
#X connect 44 2 21 1;
#X connect 44 2 41 0;
#X connect 44 3 41 1;
#X connect 44 4 22 1;
#X connect 44 4 42 2;
#X connect 44 5 26 0;
#X connect 44 5 30 1;
#X connect 44 5 33 1;
#X connect 44 6 33 2;
#X connect 44 6 35 1;
#X connect 44 6 36 0;
#X connect 44 6 38 2;
#X connect 44 7 46 0;
#X connect 45 0 39 0;
#X connect 46 0 47 0;
#X connect 46 1 48 0;
#X connect 47 0 45 1;
#X connect 48 0 49 0;
#X connect 49 0 47 1;
