#N canvas 23 64 1002 413 10;
#X obj 64 49 inlet~;
#X obj 64 274 outlet~;
#X obj 505 139 == 0;
#N canvas 848 338 268 246 init 0;
#X obj 32 29 loadbang;
#X obj 32 51 f \$0;
#X msg 32 93 \; \$1-state 0 \; \$1-lookahead 0 \;;
#X connect 0 0 1 0;
#X connect 1 0 2 0;
#X restore 600 316 pd init;
#X obj 505 114 r \$0-state;
#X text 753 319 (c)2012 Marian Weger;
#X obj 606 48 inlet;
#X obj 515 315 outlet;
#X obj 606 122 s \$0-state;
#X obj 667 102 s \$0-lookahead;
#X obj 114 49 inlet~;
#X obj 114 274 outlet~;
#X obj 164 49 inlet~;
#X obj 164 274 outlet~;
#X obj 214 49 inlet~;
#X obj 214 274 outlet~;
#X obj 264 49 inlet~;
#X obj 264 274 outlet~;
#X obj 314 49 inlet~;
#X obj 314 274 outlet~;
#X obj 244 174 fx_gain_8~ 0 0 0 0 0 0 0;
#N canvas 42 26 1215 725 gate_8_________ 0;
#X obj 61 60 inlet~;
#X obj 61 567 outlet~;
#X obj 61 538 *~;
#X obj 495 60 r \$0-lookahead;
#X obj 111 60 inlet~;
#X obj 111 567 outlet~;
#X obj 111 538 *~;
#X obj 161 60 inlet~;
#X obj 161 567 outlet~;
#X obj 161 538 *~;
#X obj 211 60 inlet~;
#X obj 211 567 outlet~;
#X obj 211 538 *~;
#X obj 261 60 inlet~;
#X obj 261 567 outlet~;
#X obj 261 538 *~;
#X obj 311 60 inlet~;
#X obj 311 567 outlet~;
#X obj 311 538 *~;
#X obj 142 294 fx_delay_8~ 99 0;
#X obj 361 60 inlet~;
#X obj 361 567 outlet~;
#X obj 361 538 *~;
#X obj 411 60 inlet~;
#X obj 411 567 outlet~;
#X obj 411 538 *~;
#X obj 261 294 fx_gate_gain~ \$1;
#X obj 371 294 fx_gate_gain~ \$1;
#X obj 591 294 fx_gate_gain~ \$1;
#X obj 481 294 fx_gate_gain~ \$1;
#X obj 811 294 fx_gate_gain~ \$1;
#X obj 701 294 fx_gate_gain~ \$1;
#X obj 1031 294 fx_gate_gain~ \$1;
#X obj 921 294 fx_gate_gain~ \$1;
#X obj 905 67 inlet ctl;
#X obj 887 488 switch~;
#X obj 887 441 r \$0-state;
#X obj 887 466 1del0 15;
#X obj 732 545 outlet;
#X connect 0 0 19 0;
#X connect 0 0 26 0;
#X connect 2 0 1 0;
#X connect 3 0 19 8;
#X connect 4 0 19 1;
#X connect 4 0 27 0;
#X connect 6 0 5 0;
#X connect 7 0 19 2;
#X connect 7 0 29 0;
#X connect 9 0 8 0;
#X connect 10 0 19 3;
#X connect 10 0 28 0;
#X connect 12 0 11 0;
#X connect 13 0 19 4;
#X connect 13 0 31 0;
#X connect 15 0 14 0;
#X connect 16 0 19 5;
#X connect 16 0 30 0;
#X connect 18 0 17 0;
#X connect 19 0 2 0;
#X connect 19 1 6 0;
#X connect 19 2 9 0;
#X connect 19 3 12 0;
#X connect 19 4 15 0;
#X connect 19 5 18 0;
#X connect 19 6 22 0;
#X connect 19 7 25 0;
#X connect 20 0 19 6;
#X connect 20 0 33 0;
#X connect 22 0 21 0;
#X connect 23 0 19 7;
#X connect 23 0 32 0;
#X connect 25 0 24 0;
#X connect 26 0 2 1;
#X connect 27 0 6 1;
#X connect 28 0 12 1;
#X connect 29 0 9 1;
#X connect 30 0 18 1;
#X connect 31 0 15 1;
#X connect 32 0 25 1;
#X connect 33 0 22 1;
#X connect 34 0 26 1;
#X connect 34 0 27 1;
#X connect 34 0 29 1;
#X connect 34 0 28 1;
#X connect 34 0 31 1;
#X connect 34 0 30 1;
#X connect 34 0 33 1;
#X connect 34 0 32 1;
#X connect 36 0 37 0;
#X connect 37 0 35 0;
#X restore 114 174 pd gate_8_________;
#X obj 364 49 inlet~;
#X obj 364 274 outlet~;
#X obj 414 49 inlet~;
#X obj 414 274 outlet~;
#X obj 606 70 route state lookahead;
#X text 40 12 fx_gate_8~ <type>;
#X text 237 12 available types: rms \, peak;
#X connect 0 0 21 0;
#X connect 0 0 20 0;
#X connect 2 0 20 8;
#X connect 4 0 2 0;
#X connect 6 0 26 0;
#X connect 6 0 21 8;
#X connect 10 0 21 1;
#X connect 10 0 20 1;
#X connect 12 0 21 2;
#X connect 12 0 20 2;
#X connect 14 0 21 3;
#X connect 14 0 20 3;
#X connect 16 0 21 4;
#X connect 16 0 20 4;
#X connect 18 0 21 5;
#X connect 18 0 20 5;
#X connect 20 0 1 0;
#X connect 20 1 11 0;
#X connect 20 2 13 0;
#X connect 20 3 15 0;
#X connect 20 4 17 0;
#X connect 20 5 19 0;
#X connect 20 6 23 0;
#X connect 20 7 25 0;
#X connect 21 0 1 0;
#X connect 21 1 11 0;
#X connect 21 2 13 0;
#X connect 21 3 15 0;
#X connect 21 4 17 0;
#X connect 21 5 19 0;
#X connect 21 6 23 0;
#X connect 21 7 25 0;
#X connect 22 0 20 6;
#X connect 22 0 21 6;
#X connect 24 0 20 7;
#X connect 24 0 21 7;
#X connect 26 0 8 0;
#X connect 26 1 9 0;
