#N canvas 127 22 910 756 10;
#X obj 69 726 vline~;
#X obj 239 361 +;
#X obj 82 309 t f f;
#X obj 143 309 t b f b f;
#X msg 69 503 1 \$1 \, 1 \$2 \$1;
#X obj 82 411 pack 1 1;
#X msg 82 453 set \$1 \$2;
#X text 94 431 A H;
#X text 230 431 R A+H;
#X obj 239 383 t b f;
#X obj 69 525 t a b;
#X msg 69 481 1 50;
#X obj 215 411 pack 10 2;
#X msg 215 453 set \$1 \$2;
#X msg 215 551 50 51;
#X obj 215 573 unpack 10 2;
#X obj 215 655 pipe 10 2;
#X obj 266 596 t f b;
#X msg 293 619 clear;
#X msg 215 677 0 \$1;
#X obj 69 810 dbtorms~;
#X obj 69 162 > 0;
#X obj 69 184 sel 1;
#X obj 82 241 max 0;
#X obj 143 261 max 0;
#X obj 215 291 max 0;
#X obj 69 51 inlet~;
#X obj 69 832 outlet~;
#X text 25 15 fx_gate_gain~ <type>;
#X text 289 800 (c)2013 Marian Weger;
#X obj 69 90 fx_gate_gain_\$1~;
#X text 184 47 available types: rms \, peak;
#X obj 220 116 inlet;
#X obj 483 658 switch~;
#X obj 69 776 *~;
#X obj 414 646 pack 0 5;
#X obj 414 668 line~;
#X obj 414 598 t f f;
#X obj 483 636 1del0 15;
#X obj 414 620 * 100;
#X obj 220 138 route threshold attack hold release state;
#X obj 284 80 loadbang;
#X msg 284 111 state 0 \, attack 1 \, hold 50 \, release 50 \, threshold
70;
#X connect 0 0 34 0;
#X connect 1 0 9 0;
#X connect 2 0 5 0;
#X connect 2 1 1 0;
#X connect 3 0 5 0;
#X connect 3 1 5 1;
#X connect 3 2 1 0;
#X connect 3 3 1 1;
#X connect 4 0 10 0;
#X connect 5 0 6 0;
#X connect 6 0 11 0;
#X connect 9 0 12 0;
#X connect 9 1 12 1;
#X connect 10 0 0 0;
#X connect 10 1 14 0;
#X connect 11 0 4 0;
#X connect 12 0 13 0;
#X connect 13 0 14 0;
#X connect 14 0 15 0;
#X connect 15 0 16 0;
#X connect 15 1 17 0;
#X connect 16 0 19 0;
#X connect 17 0 16 1;
#X connect 17 1 18 0;
#X connect 18 0 16 0;
#X connect 19 0 0 0;
#X connect 20 0 27 0;
#X connect 21 0 22 0;
#X connect 22 0 11 0;
#X connect 23 0 2 0;
#X connect 24 0 3 0;
#X connect 25 0 12 0;
#X connect 26 0 30 0;
#X connect 30 0 21 0;
#X connect 32 0 40 0;
#X connect 34 0 20 0;
#X connect 35 0 36 0;
#X connect 36 0 34 1;
#X connect 37 0 39 0;
#X connect 37 1 38 0;
#X connect 38 0 33 0;
#X connect 39 0 35 0;
#X connect 40 0 21 1;
#X connect 40 1 23 0;
#X connect 40 2 24 0;
#X connect 40 3 25 0;
#X connect 40 4 37 0;
#X connect 41 0 42 0;
#X connect 42 0 40 0;
