#N canvas 642 192 520 452 10;
#X obj 180 396 outlet statelist;
#X obj 57 398 outlet ctl;
#X obj 180 87 inlet statelist;
#X msg 244 160 1;
#N canvas 298 419 372 226 init 0;
#X obj 32 29 loadbang;
#X obj 32 51 t b b;
#X obj 150 131 outlet;
#X obj 32 93 f \$3;
#X obj 32 131 s /fx/gain/\$1;
#X connect 0 0 1 0;
#X connect 1 0 3 0;
#X connect 1 1 2 0;
#X connect 3 0 4 0;
#X restore 244 134 pd init;
#N canvas 709 325 305 197 ds 0;
#X obj 72 88 ds_reg \$2 /fx/gain/\$1;
#X restore 329 266 pd ds;
#N canvas 709 325 305 197 osc 0;
#X obj 79 87 osc_bi \$2 /fx/gain/\$1;
#X restore 329 286 pd osc;
#X obj 57 163 + 100;
#X obj 57 185 dbtorms;
#X obj 57 139 r /fx/gain/\$1;
#X text 285 339 (c)2012 Marian Weger;
#X text 23 23 fx_gain_ctl_gain <name> <domain> (<init gain>);
#X connect 2 0 0 0;
#X connect 3 0 0 0;
#X connect 4 0 3 0;
#X connect 7 0 8 0;
#X connect 8 0 1 0;
#X connect 9 0 7 0;
