#N canvas 293 89 495 423 10;
#X obj 179 346 outlet statelist;
#X obj 57 348 outlet ctl;
#X obj 179 71 inlet statelist;
#N canvas 395 351 344 184 init 0;
#X obj 32 29 loadbang;
#X msg 32 103 0;
#X obj 32 51 t b b;
#X obj 122 143 outlet;
#X obj 32 143 s /fx/vol/\$1;
#X connect 0 0 2 0;
#X connect 1 0 4 0;
#X connect 2 0 1 0;
#X connect 2 1 3 0;
#X restore 230 150 pd init;
#X obj 57 234 dbtorms;
#X obj 57 208 + 100;
#N canvas 145 391 288 172 ds 0;
#X obj 28 30 ds_reg \$2 /fx/vol/\$1;
#X restore 343 223 pd ds;
#N canvas 215 188 288 172 osc 0;
#X obj 28 30 osc_bi \$2 /fx/vol/\$1;
#X restore 343 243 pd osc;
#N canvas 24 122 450 300 param-conversion 0;
#X obj 80 93 t b f b;
#X obj 236 93 t b f b;
#X msg 132 148 1;
#X msg 162 148 0;
#X msg 288 148 0;
#X msg 318 148 1;
#X obj 255 181 spigot 1;
#X obj 99 181 spigot 0;
#X obj 99 203 db2fader;
#X obj 255 203 fader2db;
#X obj 80 71 r /fx/vol/\$1/db;
#X obj 236 71 r /fx/vol/\$1;
#X obj 99 224 s /fx/vol/\$1;
#X obj 255 224 s /fx/vol/\$1/db;
#X connect 0 0 2 0;
#X connect 0 1 7 0;
#X connect 0 2 4 0;
#X connect 1 0 5 0;
#X connect 1 1 6 0;
#X connect 1 2 3 0;
#X connect 2 0 7 1;
#X connect 3 0 7 1;
#X connect 4 0 6 1;
#X connect 5 0 6 1;
#X connect 6 0 9 0;
#X connect 7 0 8 0;
#X connect 8 0 12 0;
#X connect 9 0 13 0;
#X connect 10 0 0 0;
#X connect 11 0 1 0;
#X restore 343 263 pd param-conversion;
#X obj 57 64 r /fx/vol/\$1/db;
#X msg 230 172 1;
#X text 313 311 (c)2012 Marian Weger;
#X text 23 23 fx_vol_ctl_vol <name> <domain>;
#X connect 2 0 0 0;
#X connect 3 0 10 0;
#X connect 4 0 1 0;
#X connect 5 0 4 0;
#X connect 9 0 5 0;
#X connect 10 0 0 0;
