#N canvas 33 22 1247 455 10;
#X obj 64 49 inlet~;
#X obj 64 315 outlet~;
#X obj 1199 147 == 0;
#X obj 1270 54 inlet;
#X obj 1270 302 outlet;
#X obj 1199 121 r \$0-state;
#X obj 1270 198 s \$0-state;
#X obj 1307 178 s \$0-f;
#X obj 1345 113 list prepend no method for;
#X obj 1345 135 list trim;
#N canvas 82 294 381 223 init 0;
#X obj 144 51 loadbang;
#X msg 144 144 \; \$1-state \$2 \; \$1-f \$3 \;;
#X obj 144 103 list prepend \$0 \$1 \$2;
#X connect 0 0 2 0;
#X connect 2 0 1 0;
#X restore 1411 243 pd init;
#X obj 1270 76 route state f;
#X obj 114 49 inlet~;
#X obj 114 315 outlet~;
#X obj 164 49 inlet~;
#X obj 164 315 outlet~;
#X obj 214 49 inlet~;
#X obj 214 315 outlet~;
#X obj 264 49 inlet~;
#X obj 264 315 outlet~;
#X obj 314 49 inlet~;
#X obj 314 315 outlet~;
#X obj 1345 157 print fx_hip_8~;
#X obj 364 49 inlet~;
#X obj 364 315 outlet~;
#X obj 414 49 inlet~;
#X obj 414 315 outlet~;
#X text 40 12 fx_hip_24~ (<state> <f>);
#X text 61 376 (c)2013 Marian Weger;
#X obj 464 49 inlet~;
#X obj 464 315 outlet~;
#X obj 514 49 inlet~;
#X obj 514 315 outlet~;
#X obj 564 49 inlet~;
#X obj 564 315 outlet~;
#X obj 614 49 inlet~;
#X obj 614 315 outlet~;
#X obj 664 49 inlet~;
#X obj 664 315 outlet~;
#X obj 714 49 inlet~;
#X obj 714 315 outlet~;
#X obj 764 49 inlet~;
#X obj 764 315 outlet~;
#X obj 814 49 inlet~;
#X obj 814 315 outlet~;
#X obj 864 49 inlet~;
#X obj 864 315 outlet~;
#X obj 914 49 inlet~;
#X obj 914 315 outlet~;
#X obj 964 49 inlet~;
#X obj 964 315 outlet~;
#X obj 1014 49 inlet~;
#X obj 1014 315 outlet~;
#X obj 1064 49 inlet~;
#X obj 1064 315 outlet~;
#X obj 1114 49 inlet~;
#X obj 1114 315 outlet~;
#X obj 1164 49 inlet~;
#X obj 1164 315 outlet~;
#X obj 1214 49 inlet~;
#X obj 1214 315 outlet~;
#X obj 794 185 fx_gain_24~ 0 0 0 0 0 0 0 0 0 0 0 0 0 0 0 0 0 0 0 0
0 0 0 0;
#N canvas 43 119 1159 481 hip_24___________________________________________________
0;
#X obj 1294 110 switch~;
#X obj 71 41 inlet~;
#X obj 71 357 outlet~;
#X obj 71 237 *~;
#X obj 1267 133 pack 0 5;
#X obj 1267 155 line~;
#X obj 1267 40 r \$0-state;
#X obj 1267 237 r \$0-f;
#X obj 1294 86 1del0 15;
#X obj 1267 64 t f f;
#X obj 121 41 inlet~;
#X obj 121 357 outlet~;
#X obj 121 237 *~;
#X obj 171 41 inlet~;
#X obj 171 357 outlet~;
#X obj 171 237 *~;
#X obj 71 325 hip~;
#X obj 121 325 hip~;
#X obj 171 325 hip~;
#X obj 221 41 inlet~;
#X obj 221 357 outlet~;
#X obj 221 237 *~;
#X obj 221 325 hip~;
#X obj 271 41 inlet~;
#X obj 271 357 outlet~;
#X obj 271 237 *~;
#X obj 271 325 hip~;
#X obj 321 41 inlet~;
#X obj 321 357 outlet~;
#X obj 321 237 *~;
#X obj 321 325 hip~;
#X obj 371 41 inlet~;
#X obj 371 357 outlet~;
#X obj 371 237 *~;
#X obj 371 325 hip~;
#X obj 421 41 inlet~;
#X obj 421 357 outlet~;
#X obj 421 237 *~;
#X obj 421 325 hip~;
#X obj 471 41 inlet~;
#X obj 471 357 outlet~;
#X obj 471 237 *~;
#X obj 521 41 inlet~;
#X obj 521 357 outlet~;
#X obj 521 237 *~;
#X obj 571 41 inlet~;
#X obj 571 357 outlet~;
#X obj 571 237 *~;
#X obj 471 325 hip~;
#X obj 521 325 hip~;
#X obj 571 325 hip~;
#X obj 621 41 inlet~;
#X obj 621 357 outlet~;
#X obj 621 237 *~;
#X obj 621 325 hip~;
#X obj 671 41 inlet~;
#X obj 671 357 outlet~;
#X obj 671 237 *~;
#X obj 671 325 hip~;
#X obj 721 41 inlet~;
#X obj 721 357 outlet~;
#X obj 721 237 *~;
#X obj 721 325 hip~;
#X obj 771 41 inlet~;
#X obj 771 357 outlet~;
#X obj 771 237 *~;
#X obj 771 325 hip~;
#X obj 821 41 inlet~;
#X obj 821 357 outlet~;
#X obj 821 237 *~;
#X obj 821 325 hip~;
#X obj 871 41 inlet~;
#X obj 871 357 outlet~;
#X obj 871 237 *~;
#X obj 921 41 inlet~;
#X obj 921 357 outlet~;
#X obj 921 237 *~;
#X obj 971 41 inlet~;
#X obj 971 357 outlet~;
#X obj 971 237 *~;
#X obj 871 325 hip~;
#X obj 921 325 hip~;
#X obj 971 325 hip~;
#X obj 1021 41 inlet~;
#X obj 1021 357 outlet~;
#X obj 1021 237 *~;
#X obj 1021 325 hip~;
#X obj 1071 41 inlet~;
#X obj 1071 357 outlet~;
#X obj 1071 237 *~;
#X obj 1071 325 hip~;
#X obj 1121 41 inlet~;
#X obj 1121 357 outlet~;
#X obj 1121 237 *~;
#X obj 1121 325 hip~;
#X obj 1171 41 inlet~;
#X obj 1171 357 outlet~;
#X obj 1171 237 *~;
#X obj 1171 325 hip~;
#X obj 1221 41 inlet~;
#X obj 1221 357 outlet~;
#X obj 1221 237 *~;
#X obj 1221 325 hip~;
#X connect 1 0 3 0;
#X connect 3 0 16 0;
#X connect 4 0 5 0;
#X connect 5 0 3 1;
#X connect 5 0 12 1;
#X connect 5 0 15 1;
#X connect 5 0 21 1;
#X connect 5 0 25 1;
#X connect 5 0 29 1;
#X connect 5 0 33 1;
#X connect 5 0 37 1;
#X connect 5 0 41 1;
#X connect 5 0 44 1;
#X connect 5 0 47 1;
#X connect 5 0 53 1;
#X connect 5 0 57 1;
#X connect 5 0 61 1;
#X connect 5 0 65 1;
#X connect 5 0 69 1;
#X connect 5 0 73 1;
#X connect 5 0 76 1;
#X connect 5 0 79 1;
#X connect 5 0 85 1;
#X connect 5 0 89 1;
#X connect 5 0 93 1;
#X connect 5 0 97 1;
#X connect 5 0 101 1;
#X connect 6 0 9 0;
#X connect 7 0 16 1;
#X connect 7 0 17 1;
#X connect 7 0 18 1;
#X connect 7 0 22 1;
#X connect 7 0 26 1;
#X connect 7 0 30 1;
#X connect 7 0 34 1;
#X connect 7 0 38 1;
#X connect 7 0 48 1;
#X connect 7 0 49 1;
#X connect 7 0 50 1;
#X connect 7 0 54 1;
#X connect 7 0 58 1;
#X connect 7 0 62 1;
#X connect 7 0 66 1;
#X connect 7 0 70 1;
#X connect 7 0 80 1;
#X connect 7 0 81 1;
#X connect 7 0 82 1;
#X connect 7 0 86 1;
#X connect 7 0 90 1;
#X connect 7 0 94 1;
#X connect 7 0 98 1;
#X connect 7 0 102 1;
#X connect 8 0 0 0;
#X connect 9 0 4 0;
#X connect 9 1 8 0;
#X connect 10 0 12 0;
#X connect 12 0 17 0;
#X connect 13 0 15 0;
#X connect 15 0 18 0;
#X connect 16 0 2 0;
#X connect 17 0 11 0;
#X connect 18 0 14 0;
#X connect 19 0 21 0;
#X connect 21 0 22 0;
#X connect 22 0 20 0;
#X connect 23 0 25 0;
#X connect 25 0 26 0;
#X connect 26 0 24 0;
#X connect 27 0 29 0;
#X connect 29 0 30 0;
#X connect 30 0 28 0;
#X connect 31 0 33 0;
#X connect 33 0 34 0;
#X connect 34 0 32 0;
#X connect 35 0 37 0;
#X connect 37 0 38 0;
#X connect 38 0 36 0;
#X connect 39 0 41 0;
#X connect 41 0 48 0;
#X connect 42 0 44 0;
#X connect 44 0 49 0;
#X connect 45 0 47 0;
#X connect 47 0 50 0;
#X connect 48 0 40 0;
#X connect 49 0 43 0;
#X connect 50 0 46 0;
#X connect 51 0 53 0;
#X connect 53 0 54 0;
#X connect 54 0 52 0;
#X connect 55 0 57 0;
#X connect 57 0 58 0;
#X connect 58 0 56 0;
#X connect 59 0 61 0;
#X connect 61 0 62 0;
#X connect 62 0 60 0;
#X connect 63 0 65 0;
#X connect 65 0 66 0;
#X connect 66 0 64 0;
#X connect 67 0 69 0;
#X connect 69 0 70 0;
#X connect 70 0 68 0;
#X connect 71 0 73 0;
#X connect 73 0 80 0;
#X connect 74 0 76 0;
#X connect 76 0 81 0;
#X connect 77 0 79 0;
#X connect 79 0 82 0;
#X connect 80 0 72 0;
#X connect 81 0 75 0;
#X connect 82 0 78 0;
#X connect 83 0 85 0;
#X connect 85 0 86 0;
#X connect 86 0 84 0;
#X connect 87 0 89 0;
#X connect 89 0 90 0;
#X connect 90 0 88 0;
#X connect 91 0 93 0;
#X connect 93 0 94 0;
#X connect 94 0 92 0;
#X connect 95 0 97 0;
#X connect 97 0 98 0;
#X connect 98 0 96 0;
#X connect 99 0 101 0;
#X connect 101 0 102 0;
#X connect 102 0 100 0;
#X restore 314 185 pd hip_24___________________________________________________
;
#X connect 0 0 62 0;
#X connect 0 0 61 0;
#X connect 2 0 61 24;
#X connect 3 0 11 0;
#X connect 5 0 2 0;
#X connect 8 0 9 0;
#X connect 9 0 22 0;
#X connect 11 0 6 0;
#X connect 11 1 7 0;
#X connect 11 2 8 0;
#X connect 12 0 62 1;
#X connect 12 0 61 1;
#X connect 14 0 62 2;
#X connect 14 0 61 2;
#X connect 16 0 62 3;
#X connect 16 0 61 3;
#X connect 18 0 62 4;
#X connect 18 0 61 4;
#X connect 20 0 62 5;
#X connect 20 0 61 5;
#X connect 23 0 62 6;
#X connect 23 0 61 6;
#X connect 25 0 62 7;
#X connect 25 0 61 7;
#X connect 29 0 62 8;
#X connect 29 0 61 8;
#X connect 31 0 62 9;
#X connect 31 0 61 9;
#X connect 33 0 62 10;
#X connect 33 0 61 10;
#X connect 35 0 62 11;
#X connect 35 0 61 11;
#X connect 37 0 62 12;
#X connect 37 0 61 12;
#X connect 39 0 62 13;
#X connect 39 0 61 13;
#X connect 41 0 62 14;
#X connect 41 0 61 14;
#X connect 43 0 62 15;
#X connect 43 0 61 15;
#X connect 45 0 62 16;
#X connect 45 0 61 16;
#X connect 47 0 61 17;
#X connect 47 0 62 17;
#X connect 49 0 61 18;
#X connect 49 0 62 18;
#X connect 51 0 61 19;
#X connect 51 0 62 19;
#X connect 53 0 61 20;
#X connect 53 0 62 20;
#X connect 55 0 61 21;
#X connect 55 0 62 21;
#X connect 57 0 61 22;
#X connect 57 0 62 22;
#X connect 59 0 61 23;
#X connect 59 0 62 23;
#X connect 61 0 1 0;
#X connect 61 1 13 0;
#X connect 61 2 15 0;
#X connect 61 3 17 0;
#X connect 61 4 19 0;
#X connect 61 5 21 0;
#X connect 61 6 24 0;
#X connect 61 7 26 0;
#X connect 61 8 30 0;
#X connect 61 9 32 0;
#X connect 61 10 34 0;
#X connect 61 11 36 0;
#X connect 61 12 38 0;
#X connect 61 13 40 0;
#X connect 61 14 42 0;
#X connect 61 15 44 0;
#X connect 61 16 46 0;
#X connect 61 17 48 0;
#X connect 61 18 50 0;
#X connect 61 19 52 0;
#X connect 61 20 54 0;
#X connect 61 21 56 0;
#X connect 61 22 58 0;
#X connect 61 23 60 0;
#X connect 62 0 1 0;
#X connect 62 1 13 0;
#X connect 62 2 15 0;
#X connect 62 3 17 0;
#X connect 62 4 19 0;
#X connect 62 5 21 0;
#X connect 62 6 24 0;
#X connect 62 7 26 0;
#X connect 62 8 30 0;
#X connect 62 9 32 0;
#X connect 62 10 34 0;
#X connect 62 11 36 0;
#X connect 62 12 38 0;
#X connect 62 13 40 0;
#X connect 62 14 42 0;
#X connect 62 15 44 0;
#X connect 62 16 46 0;
#X connect 62 17 48 0;
#X connect 62 18 50 0;
#X connect 62 19 52 0;
#X connect 62 20 54 0;
#X connect 62 21 56 0;
#X connect 62 22 58 0;
#X connect 62 23 60 0;
