#N canvas 364 62 693 473 10;
#X obj 64 49 inlet~;
#X obj 64 305 outlet~;
#X text 475 305 (c)2012 Marian Weger;
#X obj 179 147 == 0;
#X obj 370 54 inlet;
#X obj 370 302 outlet;
#X obj 134 175 fx_gain~;
#X obj 179 121 r \$0-state;
#X obj 370 198 s \$0-state;
#X obj 407 178 s \$0-f;
#X obj 445 113 list prepend no method for;
#X obj 445 135 list trim;
#N canvas 82 294 381 223 init 0;
#X obj 144 51 loadbang;
#X msg 144 144 \; \$1-state \$2 \; \$1-f \$3 \;;
#X obj 144 103 list prepend \$0 \$1 \$2;
#X connect 0 0 2 0;
#X connect 2 0 1 0;
#X restore 511 243 pd init;
#X text 40 12 fx_hip~ (<state> <f>);
#X obj 370 76 route state f;
#X obj 445 157 print fx_hip~;
#N canvas 179 216 601 422 hip 0;
#X obj 334 110 switch~;
#X obj 71 41 inlet~;
#X obj 71 357 outlet~;
#X obj 71 237 *~;
#X obj 307 133 pack 0 5;
#X obj 307 155 line~;
#X obj 307 40 r \$0-state;
#X obj 307 237 r \$0-f;
#X obj 334 86 1del0 15;
#X obj 307 64 t f f;
#X obj 71 325 hip~;
#X connect 1 0 3 0;
#X connect 3 0 10 0;
#X connect 4 0 5 0;
#X connect 5 0 3 1;
#X connect 6 0 9 0;
#X connect 7 0 10 1;
#X connect 8 0 0 0;
#X connect 9 0 4 0;
#X connect 9 1 8 0;
#X connect 10 0 2 0;
#X restore 64 175 pd hip;
#X connect 0 0 16 0;
#X connect 0 0 6 0;
#X connect 3 0 6 1;
#X connect 4 0 14 0;
#X connect 6 0 1 0;
#X connect 7 0 3 0;
#X connect 10 0 11 0;
#X connect 11 0 15 0;
#X connect 14 0 8 0;
#X connect 14 1 9 0;
#X connect 14 2 10 0;
#X connect 16 0 1 0;
