#N canvas 0 22 536 425 10;
#X text 288 331 (c)2012 Marian Weger;
#X obj 298 128 inlet statelist;
#X obj 298 275 outlet statelist;
#N canvas 221 168 347 445 init 0;
#X obj 32 29 loadbang;
#X obj 32 51 t b b;
#X obj 181 140 outlet;
#X obj 32 181 list prepend \$1 \$2;
#X msg 32 203 \; /fx/limiter/\$1/state 0 \; /fx/limiter/\$1/1/limit
90 \; /fx/limiter/\$1/1/hold 20 \; /fx/limiter/\$1/1/release 100 \;
/fx/limiter/\$1/2/mode 0 \; /fx/limiter/\$1/2/limit 100 \; /fx/limiter/\$1/2/hold
1 \; /fx/limiter/\$1/2/release 10 \; /fx/limiter/\$1/lookahead 1;
#X connect 0 0 1 0;
#X connect 1 0 3 0;
#X connect 1 1 2 0;
#X connect 3 0 4 0;
#X restore 401 128 pd init;
#X msg 401 150 1;
#N canvas 147 151 714 479 ctl 0;
#X obj 64 435 outlet;
#X obj 64 404 list trim;
#X obj 64 262 list prepend 1;
#X obj 284 262 list prepend 2;
#X obj 94 208 r /fx/limiter/\$1/1/limit;
#X obj 94 230 list prepend limit;
#X obj 84 158 r /fx/limiter/\$1/1/hold;
#X obj 84 180 list prepend hold;
#X obj 74 108 r /fx/limiter/\$1/1/release;
#X obj 74 130 list prepend release;
#X obj 314 208 r /fx/limiter/\$1/2/limit;
#X obj 314 230 list prepend limit;
#X obj 304 158 r /fx/limiter/\$1/2/hold;
#X obj 304 180 list prepend hold;
#X obj 294 108 r /fx/limiter/\$1/2/release;
#X obj 294 130 list prepend release;
#X obj 284 58 r /fx/limiter/\$1/2/mode;
#X obj 284 80 list prepend mode;
#X obj 501 230 r /fx/limiter/\$1/lookahead;
#X obj 501 252 list prepend lookahead;
#X obj 511 280 r /fx/limiter/\$1/state;
#X obj 511 302 list prepend state;
#X connect 1 0 0 0;
#X connect 2 0 1 0;
#X connect 3 0 1 0;
#X connect 4 0 5 0;
#X connect 5 0 2 0;
#X connect 6 0 7 0;
#X connect 7 0 2 0;
#X connect 8 0 9 0;
#X connect 9 0 2 0;
#X connect 10 0 11 0;
#X connect 11 0 3 0;
#X connect 12 0 13 0;
#X connect 13 0 3 0;
#X connect 14 0 15 0;
#X connect 15 0 3 0;
#X connect 16 0 17 0;
#X connect 17 0 3 0;
#X connect 18 0 19 0;
#X connect 19 0 1 0;
#X connect 20 0 21 0;
#X connect 21 0 1 0;
#X restore 60 162 pd ctl;
#X obj 60 314 outlet;
#X text 40 12 fx_limiter_ctl <name> <domain>;
#N canvas 78 318 468 321 ds 0;
#X obj 61 49 ds_reg \$2 /fx/limiter/\$1/state nomorph;
#X obj 61 79 ds_reg \$2 /fx/limiter/\$1/1/limit;
#X obj 61 99 ds_reg \$2 /fx/limiter/\$1/1/hold;
#X obj 61 119 ds_reg \$2 /fx/limiter/\$1/1/release;
#X obj 61 149 ds_reg \$2 /fx/limiter/\$1/2/limit;
#X obj 61 169 ds_reg \$2 /fx/limiter/\$1/2/hold;
#X obj 61 189 ds_reg \$2 /fx/limiter/\$1/2/release;
#X obj 61 219 ds_reg \$2 /fx/limiter/\$1/2/mode nomorph;
#X obj 61 249 ds_reg \$2 /fx/limiter/\$1/lookahead nomorph;
#X restore 205 218 pd ds;
#N canvas 200 240 468 321 osc 0;
#X obj 61 49 osc_bi \$2 /fx/limiter/\$1/state;
#X obj 61 79 osc_bi \$2 /fx/limiter/\$1/1/limit;
#X obj 61 99 osc_bi \$2 /fx/limiter/\$1/1/hold;
#X obj 61 119 osc_bi \$2 /fx/limiter/\$1/1/release;
#X obj 61 149 osc_bi \$2 /fx/limiter/\$1/2/limit;
#X obj 61 169 osc_bi \$2 /fx/limiter/\$1/2/hold;
#X obj 61 189 osc_bi \$2 /fx/limiter/\$1/2/release;
#X obj 61 219 osc_bi \$2 /fx/limiter/\$1/2/mode;
#X obj 61 249 osc_bi \$2 /fx/limiter/\$1/lookahead;
#X restore 205 238 pd osc;
#X connect 1 0 2 0;
#X connect 3 0 4 0;
#X connect 4 0 2 0;
#X connect 5 0 6 0;
