#N canvas 0 58 1280 940 10;
#X obj 92 112 inlet~;
#X obj 184 233 fx_gain~;
#X obj 233 152 r \$0-state;
#X obj 233 174 == 0;
#X obj 85 444 outlet~;
#X obj 399 39 inlet;
#X obj 266 567 s \$0-predelay;
#X text 283 621 (c)2013 Marian Weger;
#X obj 498 486 s \$0-position-random;
#X obj 558 466 s \$0-density;
#X obj 448 506 s \$0-transpose;
#X obj 611 444 s \$0-transpose-random;
#X obj 388 526 s \$0-attack;
#X obj 638 417 s \$0-sustain;
#X obj 656 384 s \$0-release;
#X obj 673 351 s \$0-sustain-random;
#X obj 687 324 s \$0-reverse;
#X text 79 46 fx_livegrain~;
#X obj 703 296 s \$0-density-random;
#X obj 723 272 s \$0-attack-random;
#X obj 728 241 s \$0-release-random;
#X obj 749 217 s \$0-delay-random;
#N canvas 320 101 704 877 livegrain 0;
#X text 232 104 half window for one grain;
#X obj 51 570 bng 15 250 50 0 empty empty overflow 17 7 0 10 -262144
-1 -1;
#X floatatom 377 588 5 0 0 0 voices_active - -, f 5;
#N canvas 177 227 869 709 play 0;
#X obj 63 828 outlet;
#X obj 63 60 inlet;
#X text 62 43 play 0/1;
#X text 60 849 trigger new grain;
#X obj 257 61 inlet;
#X obj 336 61 inlet;
#X obj 424 62 inlet;
#X text 257 40 attack;
#X text 337 41 sustain;
#X text 420 42 release;
#X obj 597 74 inlet;
#N canvas 105 373 450 622 position 0;
#X obj 85 36 inlet;
#X obj 83 432 max 0;
#X obj 102 351 * 0;
#X obj 117 330 r \$0-position-random;
#X obj 83 404 +;
#X obj 83 202 t f b;
#X obj 83 172 + 0;
#X obj 98 142 r \$0-predelay;
#X obj 83 100 f 0;
#X obj 102 255 random 10001;
#X obj 102 277 / 10000;
#X obj 83 454 outlet;
#X connect 0 0 8 0;
#X connect 1 0 11 0;
#X connect 2 0 4 1;
#X connect 3 0 2 1;
#X connect 4 0 1 0;
#X connect 5 0 4 0;
#X connect 5 1 9 0;
#X connect 6 0 5 0;
#X connect 7 0 6 1;
#X connect 8 0 6 0;
#X connect 9 0 10 0;
#X connect 10 0 2 0;
#X restore 63 604 pd position;
#N canvas 141 302 776 565 transpose 0;
#X obj 94 33 inlet;
#X obj 202 64 r \$0-transpose;
#X obj 182 295 +;
#X obj 182 133 t f b;
#X obj 232 251 r \$0-transpose-random;
#X obj 94 66 t a b;
#X obj 182 109 f 0;
#X obj 214 166 random 10001;
#X obj 214 188 / 5000;
#X obj 214 210 - 1;
#X obj 214 272 * 0;
#X obj 25 852 outlet;
#X obj 179 335 expr 1.0-pow(2.0 \, $f1/12.0), f 28;
#X obj 225 601 * -1;
#X obj 171 567 kdemux2;
#X obj 179 408 t f b;
#X obj 505 245 r \$0-reverse;
#X obj 503 281 clip 0 1;
#X obj 211 462 random 1001;
#X obj 211 483 / -1000;
#X obj 211 505 + 1;
#X obj 225 623 + 2;
#X obj 212 529 <= 0;
#X obj 175 676 t f;
#X obj 211 436 spigot;
#X obj 503 302 t f f;
#X floatatom 175 698 5 0 0 0 - - -, f 5;
#X obj 14 511 unpack 0 0 0 0;
#X obj 25 787 pack 0 0 0 0 0;
#X connect 0 0 5 0;
#X connect 1 0 6 1;
#X connect 2 0 12 0;
#X connect 3 0 2 0;
#X connect 3 1 7 0;
#X connect 4 0 10 1;
#X connect 5 0 27 0;
#X connect 5 1 6 0;
#X connect 6 0 3 0;
#X connect 7 0 8 0;
#X connect 8 0 9 0;
#X connect 9 0 10 0;
#X connect 10 0 2 1;
#X connect 12 0 15 0;
#X connect 13 0 21 0;
#X connect 14 0 23 0;
#X connect 14 1 13 0;
#X connect 15 0 14 0;
#X connect 15 1 24 0;
#X connect 16 0 17 0;
#X connect 17 0 25 0;
#X connect 18 0 19 0;
#X connect 19 0 20 0;
#X connect 20 0 22 0;
#X connect 21 0 23 0;
#X connect 22 0 14 1;
#X connect 23 0 26 0;
#X connect 23 0 28 4;
#X connect 24 0 18 0;
#X connect 25 0 24 1;
#X connect 25 1 22 1;
#X connect 27 0 28 0;
#X connect 27 1 28 1;
#X connect 27 2 28 2;
#X connect 27 3 28 3;
#X connect 28 0 11 0;
#X restore 63 798 pd transpose;
#X obj 63 759 pack 0 0 0 0;
#X obj 56 476 spigot;
#X obj 56 289 t a a;
#X obj 56 340 sel 1;
#X obj 56 428 upp.delay;
#X msg 56 374 0 0;
#X obj 137 428 t a;
#X obj 269 394 f;
#X obj 269 320 t b b b;
#X obj 56 516 t b b b;
#X obj 269 415 t f b;
#X obj 269 487 + 0;
#X obj 301 464 * 0;
#X obj 339 394 f;
#X obj 339 415 t f b;
#X obj 339 487 + 0;
#X obj 371 464 * 0;
#X obj 409 394 f;
#X obj 409 415 t f b;
#X obj 409 487 + 0;
#X obj 441 464 * 0;
#X text 653 41 random;
#X obj 667 75 inlet;
#X obj 751 72 inlet;
#X obj 269 509 t f f;
#X obj 339 509 t f f;
#X obj 463 556 +;
#X obj 287 811 f;
#X obj 493 64 inlet;
#X text 498 42 density;
#X obj 809 75 inlet;
#X obj 477 759 /;
#X obj 576 377 clip 0.01 100;
#X obj 495 641 t f b;
#X obj 527 690 * 0;
#X obj 527 664 urnd;
#X obj 441 440 urnd;
#X obj 371 440 urnd;
#X obj 301 440 urnd;
#X obj 527 712 + 1;
#X obj 62 644 t f b;
#X obj 94 693 * 0;
#X obj 94 669 urnd;
#X obj 817 190 inlet;
#X obj 62 723 pipe;
#X obj 463 581 t f b;
#X obj 495 606 f 1;
#X obj 495 733 * 1;
#X connect 1 0 15 0;
#X connect 4 0 20 1;
#X connect 5 0 26 1;
#X connect 6 0 30 1;
#X connect 10 0 25 1;
#X connect 11 0 53 0;
#X connect 12 0 0 0;
#X connect 13 0 12 0;
#X connect 14 0 22 0;
#X connect 15 0 16 0;
#X connect 15 1 14 1;
#X connect 16 0 18 0;
#X connect 17 0 14 0;
#X connect 17 1 19 0;
#X connect 18 0 17 0;
#X connect 19 0 17 2;
#X connect 20 0 23 0;
#X connect 21 0 20 0;
#X connect 21 1 26 0;
#X connect 21 2 30 0;
#X connect 22 0 40 0;
#X connect 22 1 11 0;
#X connect 22 2 21 0;
#X connect 23 0 24 0;
#X connect 23 1 51 0;
#X connect 24 0 37 0;
#X connect 25 0 24 1;
#X connect 26 0 27 0;
#X connect 27 0 28 0;
#X connect 27 1 50 0;
#X connect 28 0 38 0;
#X connect 29 0 28 1;
#X connect 30 0 31 0;
#X connect 31 0 32 0;
#X connect 31 1 49 0;
#X connect 32 0 13 3;
#X connect 33 0 32 1;
#X connect 35 0 29 1;
#X connect 36 0 33 1;
#X connect 37 0 13 1;
#X connect 37 1 39 0;
#X connect 38 0 13 2;
#X connect 38 1 39 1;
#X connect 39 0 58 0;
#X connect 40 0 17 0;
#X connect 41 0 45 0;
#X connect 43 0 47 1;
#X connect 44 0 40 1;
#X connect 45 0 59 1;
#X connect 46 0 60 0;
#X connect 46 1 48 0;
#X connect 47 0 52 0;
#X connect 48 0 47 0;
#X connect 49 0 33 0;
#X connect 50 0 29 0;
#X connect 51 0 25 0;
#X connect 52 0 60 1;
#X connect 53 0 57 0;
#X connect 53 1 55 0;
#X connect 54 0 57 1;
#X connect 55 0 54 0;
#X connect 56 0 54 1;
#X connect 57 0 13 0;
#X connect 58 0 44 0;
#X connect 58 1 59 0;
#X connect 59 0 46 0;
#X connect 60 0 44 1;
#X restore 49 411 pd play ___________;
#X obj 49 182 r \$0-state;
#X obj 108 687 outlet~;
#X obj 97 18 inlet~;
#X obj 453 126 r \$0-state;
#X obj 453 170 switch~;
#X obj 97 40 delwrite~ \$0-buffer 60000;
#X obj 621 866 t a b;
#X obj 685 901 f;
#X obj 734 898 + 1;
#X obj 734 920 mod 1e+09;
#X msg 701 1030 symbol \$2-\$1;
#X obj 697 975 pack f \$0;
#X obj 114 223 r \$0-sustain;
#X obj 146 242 r \$0-release;
#X obj 81 203 r \$0-attack;
#X obj 617 1073 list prepend \$0-grain;
#X obj 878 1079 list prepend \$0-grain;
#X obj 49 433 list prepend \$0-dummy;
#X obj 185 282 r \$0-attack-random;
#X obj 218 302 r \$0-sustain-random;
#X obj 250 321 r \$0-release-random;
#X obj 166 262 r \$0-density;
#X obj 260 341 r \$0-density-random;
#X obj 270 361 r \$0-delay-random;
#X obj 108 659 catch~ \$0-bus;
#X obj 453 148 1del0 15;
#X obj 49 525 upp.xc 20 spat-mono \$0-bus fx_livegrain_voice \$0-wnd
1024 \$0-buffer \$0-bus;
#X obj 229 124 wnd-sin \$0-wnd 1024;
#X connect 3 0 21 0;
#X connect 4 0 3 0;
#X connect 6 0 9 0;
#X connect 7 0 29 0;
#X connect 10 0 19 0;
#X connect 10 1 11 0;
#X connect 11 0 12 0;
#X connect 11 0 15 0;
#X connect 12 0 13 0;
#X connect 13 0 11 1;
#X connect 14 0 19 1;
#X connect 14 0 20 1;
#X connect 15 0 14 0;
#X connect 16 0 3 2;
#X connect 17 0 3 3;
#X connect 18 0 3 1;
#X connect 21 0 30 0;
#X connect 22 0 3 5;
#X connect 23 0 3 6;
#X connect 24 0 3 7;
#X connect 25 0 3 4;
#X connect 26 0 3 8;
#X connect 27 0 3 9;
#X connect 28 0 5 0;
#X connect 29 0 8 0;
#X connect 30 0 1 0;
#X connect 30 2 2 0;
#X restore 81 234 pd livegrain;
#X obj 86 403 fx_gain~;
#X obj 388 68 route predelay state attack transpose position-random
density transpose-random sustain release sustain-random reverse density-random
attack-random release-random delay-random outputs outputs-list;
#X obj 766 187 s \$0-outputs;
#X obj 774 162 s \$0-outputs-list;
#X obj 986 637 list split 1;
#X obj 1049 587 t a;
#X obj 986 587 t a b;
#X obj 986 659 sel \$1;
#X msg 986 681 1;
#X msg 1044 681 0;
#X obj 986 713 change;
#X obj 139 352 r \$0-unmute;
#X obj 986 734 s \$0-unmute;
#X obj 1031 457 r \$0-outputs;
#X obj 986 551 list;
#X obj 1031 479 sel 0;
#X obj 1063 505 t b;
#X obj 1001 427 r \$0-outputs-list;
#X obj 305 793 s \$0-state;
#X obj 366 674 r \$0-unmute;
#X obj 366 696 t b f;
#X obj 317 740 &&;
#X connect 0 0 22 0;
#X connect 0 0 1 0;
#X connect 1 0 23 0;
#X connect 2 0 3 0;
#X connect 3 0 1 1;
#X connect 5 0 24 0;
#X connect 22 0 23 0;
#X connect 23 0 4 0;
#X connect 24 0 6 0;
#X connect 24 1 44 0;
#X connect 24 2 12 0;
#X connect 24 3 10 0;
#X connect 24 4 8 0;
#X connect 24 5 9 0;
#X connect 24 6 11 0;
#X connect 24 7 13 0;
#X connect 24 8 14 0;
#X connect 24 9 15 0;
#X connect 24 10 16 0;
#X connect 24 11 18 0;
#X connect 24 12 19 0;
#X connect 24 13 20 0;
#X connect 24 14 21 0;
#X connect 24 15 25 0;
#X connect 24 16 26 0;
#X connect 27 0 30 0;
#X connect 27 1 28 0;
#X connect 28 0 27 0;
#X connect 29 0 27 0;
#X connect 29 1 32 0;
#X connect 30 0 31 0;
#X connect 31 0 33 0;
#X connect 32 0 33 0;
#X connect 33 0 35 0;
#X connect 34 0 23 1;
#X connect 36 0 38 0;
#X connect 37 0 29 0;
#X connect 38 0 32 0;
#X connect 38 1 39 0;
#X connect 39 0 37 0;
#X connect 40 0 37 1;
#X connect 42 0 43 0;
#X connect 43 0 44 0;
#X connect 43 1 44 1;
#X connect 44 0 41 0;
