#N canvas 291 107 773 481 10;
#X obj 64 49 inlet~;
#X obj 64 304 outlet~;
#X text 536 424 (c)2012 Marian Weger;
#X obj 429 116 == 0;
#N canvas 173 135 343 255 init 0;
#X obj 32 29 loadbang;
#X obj 32 51 f \$0;
#X msg 32 83 \; \$1-state 0 \; \$1-1-limit 90 \; \$1-1-hold 20 \; \$1-1-release
100 \; \$1-2-mode 0 \; \$1-2-limit 100 \; \$1-2-hold 1 \; \$1-2-release
10 \; \$1-lookahead 0;
#X connect 0 0 1 0;
#X connect 1 0 2 0;
#X restore 623 380 pd init;
#X obj 429 89 r \$0-state;
#X obj 510 32 inlet;
#X obj 537 380 outlet;
#X obj 510 54 route 1 2 state lookahead;
#X obj 510 256 route limit hold release;
#X obj 546 136 route limit hold release mode;
#X obj 510 318 s \$0-1-limit;
#X obj 557 298 s \$0-1-hold;
#X obj 604 278 s \$0-1-release;
#X obj 546 218 s \$0-2-limit;
#X obj 588 198 s \$0-2-hold;
#X obj 631 178 s \$0-2-release;
#X obj 674 158 s \$0-2-mode;
#X obj 583 99 s \$0-state;
#X obj 620 79 s \$0-lookahead;
#X obj 114 49 inlet~;
#X obj 114 304 outlet~;
#X obj 164 49 inlet~;
#X obj 164 304 outlet~;
#X obj 214 49 inlet~;
#X obj 214 304 outlet~;
#X obj 264 49 inlet~;
#X obj 264 304 outlet~;
#X obj 314 49 inlet~;
#X obj 314 304 outlet~;
#X text 40 12 fx_limiter_8~ (<buffer>);
#N canvas 244 93 759 613 limiter_8__________ 0;
#X obj 71 507 outlet~;
#X obj 71 478 *~;
#X obj 510 109 r \$0-lookahead;
#N canvas 0 22 562 385 ctl 0;
#X obj 61 170 pack 0 0 0;
#X obj 111 140 t b f;
#X obj 71 140 t b f;
#X msg 61 192 set \$1 \$2 \$3;
#X obj 298 120 pack 0 0 0;
#X obj 348 90 t b f;
#X obj 308 90 t b f;
#X obj 298 222 list prepend set2;
#X obj 397 142 sel 0 1;
#X msg 397 194 set2;
#X obj 436 162 t b;
#X msg 437 194 compress;
#X obj 298 244 list trim;
#X obj 87 262 + 1;
#X msg 87 284 mode \$1;
#X obj 295 318 t b;
#X msg 295 340 print;
#X obj 87 240 r \$0-2-mode;
#X obj 295 296 r \$0-print;
#X obj 61 342 outlet;
#X obj 397 120 r \$0-2-mode;
#X obj 298 28 r \$0-2-limit;
#X obj 308 48 r \$0-2-hold;
#X obj 348 68 r \$0-2-release;
#X obj 61 78 r \$0-1-limit;
#X obj 71 98 r \$0-1-hold;
#X obj 111 118 r \$0-1-release;
#X connect 0 0 3 0;
#X connect 1 0 0 0;
#X connect 1 1 0 2;
#X connect 2 0 0 0;
#X connect 2 1 0 1;
#X connect 3 0 19 0;
#X connect 4 0 7 0;
#X connect 5 0 4 0;
#X connect 5 1 4 2;
#X connect 6 0 4 0;
#X connect 6 1 4 1;
#X connect 7 0 12 0;
#X connect 8 0 9 0;
#X connect 8 1 11 0;
#X connect 8 2 10 0;
#X connect 9 0 7 1;
#X connect 10 0 9 0;
#X connect 11 0 7 1;
#X connect 12 0 19 0;
#X connect 13 0 14 0;
#X connect 14 0 19 0;
#X connect 15 0 16 0;
#X connect 16 0 19 0;
#X connect 17 0 13 0;
#X connect 18 0 15 0;
#X connect 20 0 8 0;
#X connect 21 0 4 0;
#X connect 22 0 6 0;
#X connect 23 0 5 0;
#X connect 24 0 0 0;
#X connect 25 0 2 0;
#X connect 26 0 1 0;
#X restore 617 109 pd ctl;
#X obj 473 350 switch~;
#X obj 389 370 *~;
#X obj 404 323 pack 0 5;
#X obj 404 345 line~;
#X obj 404 295 t f f;
#X obj 473 323 1del0 15;
#X obj 404 271 r \$0-state;
#X obj 71 46 inlet~;
#X obj 121 507 outlet~;
#X obj 121 478 *~;
#X obj 121 46 inlet~;
#X obj 171 507 outlet~;
#X obj 171 478 *~;
#X obj 171 46 inlet~;
#X obj 221 507 outlet~;
#X obj 221 478 *~;
#X obj 221 46 inlet~;
#X obj 271 507 outlet~;
#X obj 271 478 *~;
#X obj 271 46 inlet~;
#X obj 321 507 outlet~;
#X obj 321 478 *~;
#X obj 321 46 inlet~;
#X obj 181 232 fx_delay_8~ 99 0;
#X obj 389 232 limiter~ \$1 2 3 4 5 6 7 8;
#X obj 371 507 outlet~;
#X obj 371 478 *~;
#X obj 371 46 inlet~;
#X obj 421 507 outlet~;
#X obj 421 478 *~;
#X obj 421 46 inlet~;
#X connect 1 0 0 0;
#X connect 2 0 27 8;
#X connect 3 0 28 0;
#X connect 5 0 1 1;
#X connect 5 0 13 1;
#X connect 5 0 16 1;
#X connect 5 0 19 1;
#X connect 5 0 22 1;
#X connect 5 0 25 1;
#X connect 5 0 30 1;
#X connect 5 0 33 1;
#X connect 6 0 7 0;
#X connect 7 0 5 1;
#X connect 8 0 6 0;
#X connect 8 1 9 0;
#X connect 9 0 4 0;
#X connect 10 0 8 0;
#X connect 11 0 27 0;
#X connect 11 0 28 0;
#X connect 13 0 12 0;
#X connect 14 0 27 1;
#X connect 14 0 28 1;
#X connect 16 0 15 0;
#X connect 17 0 27 2;
#X connect 17 0 28 2;
#X connect 19 0 18 0;
#X connect 20 0 27 3;
#X connect 20 0 28 3;
#X connect 22 0 21 0;
#X connect 23 0 27 4;
#X connect 23 0 28 4;
#X connect 25 0 24 0;
#X connect 26 0 27 5;
#X connect 26 0 28 5;
#X connect 27 0 1 0;
#X connect 27 1 13 0;
#X connect 27 2 16 0;
#X connect 27 3 19 0;
#X connect 27 4 22 0;
#X connect 27 5 25 0;
#X connect 27 6 30 0;
#X connect 27 7 33 0;
#X connect 28 0 5 0;
#X connect 30 0 29 0;
#X connect 31 0 27 6;
#X connect 31 0 28 6;
#X connect 33 0 32 0;
#X connect 34 0 27 7;
#X connect 34 0 28 7;
#X restore 104 174 pd limiter_8__________;
#X obj 264 174 fx_gain_8~ 0 0 0 0 0 0 0;
#X obj 364 49 inlet~;
#X obj 364 304 outlet~;
#X obj 414 49 inlet~;
#X obj 414 304 outlet~;
#X connect 0 0 31 0;
#X connect 0 0 32 0;
#X connect 3 0 32 8;
#X connect 5 0 3 0;
#X connect 6 0 8 0;
#X connect 8 0 9 0;
#X connect 8 1 10 0;
#X connect 8 2 18 0;
#X connect 8 3 19 0;
#X connect 9 0 11 0;
#X connect 9 1 12 0;
#X connect 9 2 13 0;
#X connect 10 0 14 0;
#X connect 10 1 15 0;
#X connect 10 2 16 0;
#X connect 10 3 17 0;
#X connect 20 0 31 1;
#X connect 20 0 32 1;
#X connect 22 0 31 2;
#X connect 22 0 32 2;
#X connect 24 0 31 3;
#X connect 24 0 32 3;
#X connect 26 0 31 4;
#X connect 26 0 32 4;
#X connect 28 0 31 5;
#X connect 28 0 32 5;
#X connect 31 0 1 0;
#X connect 31 1 21 0;
#X connect 31 2 23 0;
#X connect 31 3 25 0;
#X connect 31 4 27 0;
#X connect 31 5 29 0;
#X connect 31 6 34 0;
#X connect 31 7 36 0;
#X connect 32 0 1 0;
#X connect 32 1 21 0;
#X connect 32 2 23 0;
#X connect 32 3 25 0;
#X connect 32 4 27 0;
#X connect 32 5 29 0;
#X connect 32 6 34 0;
#X connect 32 7 36 0;
#X connect 33 0 32 6;
#X connect 33 0 31 6;
#X connect 35 0 32 7;
#X connect 35 0 31 7;
