#N canvas 77 225 614 433 10;
#X text 151 378 (c)2012 Marian Weger;
#X obj 400 75 inlet statelist;
#X obj 400 222 outlet statelist;
#N canvas 587 263 485 363 init 0;
#X obj 32 29 loadbang;
#X obj 32 51 t b b;
#X obj 181 140 outlet;
#X obj 32 181 list prepend \$1 \$2 \$3 \$4;
#X msg 32 203 \; /fx/lop/\$1/state \$3 \; /fx/lop/\$1/f \$4 \;;
#X connect 0 0 1 0;
#X connect 1 0 3 0;
#X connect 1 1 2 0;
#X connect 3 0 4 0;
#X restore 503 75 pd init;
#N canvas 553 432 309 153 ds 0;
#X obj 61 49 ds_reg \$2 /fx/lop/\$1/state nomorph;
#X obj 61 69 ds_reg \$2 /fx/lop/\$1/f;
#X restore 305 171 pd ds;
#X msg 503 97 1;
#N canvas 553 432 309 153 osc 0;
#X obj 61 49 osc_bi \$2 /fx/lop/\$1/state;
#X obj 61 69 osc_bi \$2 /fx/lop/\$1/f;
#X restore 305 191 pd osc;
#X obj 64 335 outlet;
#X obj 64 80 list prepend state;
#X obj 64 312 list trim;
#X obj 74 130 list prepend f;
#X obj 64 58 r /fx/lop/\$1/state;
#X obj 74 108 r /fx/lop/\$1/f;
#X text 40 12 fx_lop_ctl <name> <domain> (<state> <f>);
#X connect 1 0 2 0;
#X connect 3 0 5 0;
#X connect 5 0 2 0;
#X connect 8 0 9 0;
#X connect 9 0 7 0;
#X connect 10 0 9 0;
#X connect 11 0 8 0;
#X connect 12 0 10 0;
