#N canvas 364 62 693 473 10;
#X obj 64 49 inlet~;
#X obj 64 315 outlet~;
#X text 505 305 (c)2012 Marian Weger;
#X obj 329 147 == 0;
#X obj 400 54 inlet;
#X obj 400 302 outlet;
#X obj 329 121 r \$0-state;
#X obj 400 198 s \$0-state;
#X obj 437 178 s \$0-f;
#X obj 475 113 list prepend no method for;
#X obj 475 135 list trim;
#N canvas 82 294 381 223 init 0;
#X obj 144 51 loadbang;
#X msg 144 144 \; \$1-state \$2 \; \$1-f \$3 \;;
#X obj 144 103 list prepend \$0 \$1 \$2;
#X connect 0 0 2 0;
#X connect 2 0 1 0;
#X restore 541 243 pd init;
#X obj 400 76 route state f;
#X text 40 12 fx_lop_2~ (<state> <f>);
#X obj 475 157 print fx_lop_2~;
#N canvas 179 216 601 422 lop_2____________ 0;
#X obj 334 110 switch~;
#X obj 71 41 inlet~;
#X obj 71 357 outlet~;
#X obj 71 237 *~;
#X obj 307 133 pack 0 5;
#X obj 307 155 line~;
#X obj 307 40 r \$0-state;
#X obj 307 237 r \$0-f;
#X obj 334 86 1del0 15;
#X obj 307 64 t f f;
#X obj 71 325 lop~;
#X obj 121 41 inlet~;
#X obj 121 357 outlet~;
#X obj 121 237 *~;
#X obj 121 325 lop~;
#X connect 1 0 3 0;
#X connect 3 0 10 0;
#X connect 4 0 5 0;
#X connect 5 0 3 1;
#X connect 5 0 13 1;
#X connect 6 0 9 0;
#X connect 7 0 10 1;
#X connect 7 0 14 1;
#X connect 8 0 0 0;
#X connect 9 0 4 0;
#X connect 9 1 8 0;
#X connect 10 0 2 0;
#X connect 11 0 13 0;
#X connect 13 0 14 0;
#X connect 14 0 12 0;
#X restore 64 225 pd lop_2____________;
#X obj 204 225 fx_gain_2~ 0 0 0 0 0 0;
#X obj 114 49 inlet~;
#X obj 114 315 outlet~;
#X connect 0 0 15 0;
#X connect 0 0 16 0;
#X connect 3 0 16 2;
#X connect 4 0 12 0;
#X connect 6 0 3 0;
#X connect 9 0 10 0;
#X connect 10 0 14 0;
#X connect 12 0 7 0;
#X connect 12 1 8 0;
#X connect 12 2 9 0;
#X connect 15 0 1 0;
#X connect 15 1 18 0;
#X connect 16 0 1 0;
#X connect 16 1 18 0;
#X connect 17 0 16 1;
#X connect 17 0 15 1;
