#N canvas 364 62 764 504 10;
#X obj 64 49 inlet~;
#X obj 64 315 outlet~;
#X text 605 305 (c)2012 Marian Weger;
#X obj 429 147 == 0;
#X obj 500 54 inlet;
#X obj 500 302 outlet;
#X obj 429 121 r \$0-state;
#X obj 500 198 s \$0-state;
#X obj 537 178 s \$0-f;
#X obj 575 113 list prepend no method for;
#X obj 575 135 list trim;
#N canvas 82 294 381 223 init 0;
#X obj 144 51 loadbang;
#X msg 144 144 \; \$1-state \$2 \; \$1-f \$3 \;;
#X obj 144 103 list prepend \$0 \$1 \$2;
#X connect 0 0 2 0;
#X connect 2 0 1 0;
#X restore 641 243 pd init;
#X obj 500 76 route state f;
#X obj 114 49 inlet~;
#X obj 114 315 outlet~;
#X obj 164 49 inlet~;
#X obj 164 315 outlet~;
#X obj 214 49 inlet~;
#X obj 214 315 outlet~;
#X obj 264 49 inlet~;
#X obj 264 315 outlet~;
#X obj 314 49 inlet~;
#X obj 314 315 outlet~;
#X text 40 12 fx_lop_8~ (<state> <f>);
#X obj 575 157 print fx_lop_8~;
#X obj 204 225 fx_gain_8~ 0 0 0 0 0 0;
#N canvas 179 216 601 422 lop_8____________ 0;
#X obj 504 110 switch~;
#X obj 71 41 inlet~;
#X obj 71 357 outlet~;
#X obj 71 237 *~;
#X obj 477 133 pack 0 5;
#X obj 477 155 line~;
#X obj 477 40 r \$0-state;
#X obj 477 237 r \$0-f;
#X obj 504 86 1del0 15;
#X obj 477 64 t f f;
#X obj 121 41 inlet~;
#X obj 121 357 outlet~;
#X obj 121 237 *~;
#X obj 171 41 inlet~;
#X obj 171 357 outlet~;
#X obj 171 237 *~;
#X obj 71 325 lop~;
#X obj 121 325 lop~;
#X obj 171 325 lop~;
#X obj 221 41 inlet~;
#X obj 221 357 outlet~;
#X obj 221 237 *~;
#X obj 221 325 lop~;
#X obj 271 41 inlet~;
#X obj 271 357 outlet~;
#X obj 271 237 *~;
#X obj 271 325 lop~;
#X obj 321 41 inlet~;
#X obj 321 357 outlet~;
#X obj 321 237 *~;
#X obj 321 325 lop~;
#X obj 371 41 inlet~;
#X obj 371 357 outlet~;
#X obj 371 237 *~;
#X obj 371 325 lop~;
#X obj 421 41 inlet~;
#X obj 421 357 outlet~;
#X obj 421 237 *~;
#X obj 421 325 lop~;
#X connect 1 0 3 0;
#X connect 3 0 16 0;
#X connect 4 0 5 0;
#X connect 5 0 3 1;
#X connect 5 0 12 1;
#X connect 5 0 15 1;
#X connect 5 0 21 1;
#X connect 5 0 25 1;
#X connect 5 0 29 1;
#X connect 5 0 33 1;
#X connect 5 0 37 1;
#X connect 6 0 9 0;
#X connect 7 0 16 1;
#X connect 7 0 17 1;
#X connect 7 0 18 1;
#X connect 7 0 22 1;
#X connect 7 0 26 1;
#X connect 7 0 30 1;
#X connect 7 0 34 1;
#X connect 7 0 38 1;
#X connect 8 0 0 0;
#X connect 9 0 4 0;
#X connect 9 1 8 0;
#X connect 10 0 12 0;
#X connect 12 0 17 0;
#X connect 13 0 15 0;
#X connect 15 0 18 0;
#X connect 16 0 2 0;
#X connect 17 0 11 0;
#X connect 18 0 14 0;
#X connect 19 0 21 0;
#X connect 21 0 22 0;
#X connect 22 0 20 0;
#X connect 23 0 25 0;
#X connect 25 0 26 0;
#X connect 26 0 24 0;
#X connect 27 0 29 0;
#X connect 29 0 30 0;
#X connect 30 0 28 0;
#X connect 31 0 33 0;
#X connect 33 0 34 0;
#X connect 34 0 32 0;
#X connect 35 0 37 0;
#X connect 37 0 38 0;
#X connect 38 0 36 0;
#X restore 64 225 pd lop_8____________;
#X obj 364 49 inlet~;
#X obj 364 315 outlet~;
#X obj 414 49 inlet~;
#X obj 414 315 outlet~;
#X connect 0 0 26 0;
#X connect 0 0 25 0;
#X connect 3 0 25 8;
#X connect 4 0 12 0;
#X connect 6 0 3 0;
#X connect 9 0 10 0;
#X connect 10 0 24 0;
#X connect 12 0 7 0;
#X connect 12 1 8 0;
#X connect 12 2 9 0;
#X connect 13 0 26 1;
#X connect 13 0 25 1;
#X connect 15 0 26 2;
#X connect 15 0 25 2;
#X connect 17 0 26 3;
#X connect 17 0 25 3;
#X connect 19 0 26 4;
#X connect 19 0 25 4;
#X connect 21 0 26 5;
#X connect 21 0 25 5;
#X connect 25 0 1 0;
#X connect 25 1 14 0;
#X connect 25 2 16 0;
#X connect 25 3 18 0;
#X connect 25 4 20 0;
#X connect 25 5 22 0;
#X connect 25 6 28 0;
#X connect 25 7 30 0;
#X connect 26 0 1 0;
#X connect 26 1 14 0;
#X connect 26 2 16 0;
#X connect 26 3 18 0;
#X connect 26 4 20 0;
#X connect 26 5 22 0;
#X connect 26 6 28 0;
#X connect 26 7 30 0;
#X connect 27 0 26 6;
#X connect 27 0 25 6;
#X connect 29 0 26 7;
#X connect 29 0 25 7;
