#N canvas 205 33 886 689 10;
#X text 538 361 (c)2012 Marian Weger;
#X obj 548 128 inlet statelist;
#X obj 548 305 outlet statelist;
#X obj 53 634 outlet;
#X obj 53 152 list prepend 11;
#X obj 63 202 list prepend 12;
#X obj 83 302 list prepend 21;
#X obj 93 352 list prepend 22;
#X obj 53 604 list trim;
#X msg 651 150 1;
#X obj 651 128 loadbang;
#X obj 53 130 fx_gain_ctl matrix/\$1/11 \$2 \$3;
#X obj 63 180 fx_gain_ctl matrix/\$1/12 \$2 \$3;
#X obj 83 280 fx_gain_ctl matrix/\$1/21 \$2 \$3;
#X obj 93 330 fx_gain_ctl matrix/\$1/22 \$2 \$3;
#X text 40 12 fx_matrix_ctl_3 <name> <domain> <type>;
#X obj 73 230 fx_gain_ctl matrix/\$1/13 \$2 \$3;
#X obj 73 252 list prepend 13;
#X obj 103 402 list prepend 23;
#X obj 103 380 fx_gain_ctl matrix/\$1/23 \$2 \$3;
#X obj 113 430 fx_gain_ctl matrix/\$1/31 \$2 \$3;
#X obj 113 452 list prepend 31;
#X obj 123 480 fx_gain_ctl matrix/\$1/32 \$2 \$3;
#X obj 123 502 list prepend 32;
#X obj 133 530 fx_gain_ctl matrix/\$1/33 \$2 \$3;
#X obj 133 552 list prepend 33;
#X connect 1 0 2 0;
#X connect 4 0 8 0;
#X connect 5 0 8 0;
#X connect 6 0 8 0;
#X connect 7 0 8 0;
#X connect 8 0 3 0;
#X connect 9 0 2 0;
#X connect 10 0 9 0;
#X connect 11 0 4 0;
#X connect 12 0 5 0;
#X connect 13 0 6 0;
#X connect 14 0 7 0;
#X connect 16 0 17 0;
#X connect 17 0 8 0;
#X connect 18 0 8 0;
#X connect 19 0 18 0;
#X connect 20 0 21 0;
#X connect 21 0 8 0;
#X connect 22 0 23 0;
#X connect 23 0 8 0;
#X connect 24 0 25 0;
#X connect 25 0 8 0;
