#N canvas 529 176 522 386 10;
#X obj 100 100 bng 14 250 50 0 empty empty gain_correction 16 7 0 10
-262144 -1 -1;
#X msg 119 150 vis 1;
#N canvas 585 119 357 300 \$0-gain 0;
#X obj 39 27 nbx 3 14 -99 99 0 0 /fx/gain/\$1/1 /fx/gain/\$1/1 1 0
-8 0 10 -262144 -1 -1 0 256;
#X obj 75 27 nbx 3 14 -99 99 0 0 /fx/gain/\$1/2 /fx/gain/\$1/2 2 0
-8 0 10 -262144 -1 -1 0 256;
#X obj 111 27 nbx 3 14 -99 99 0 0 /fx/gain/\$1/3 /fx/gain/\$1/3 3 0
-8 0 10 -262144 -1 -1 0 256;
#X obj 147 27 nbx 3 14 -99 99 0 0 /fx/gain/\$1/4 /fx/gain/\$1/4 4 0
-8 0 10 -262144 -1 -1 0 256;
#X obj 183 27 nbx 3 14 -99 99 0 0 /fx/gain/\$1/5 /fx/gain/\$1/5 5 0
-8 0 10 -262144 -1 -1 0 256;
#X obj 219 27 nbx 3 14 -99 99 0 0 /fx/gain/\$1/6 /fx/gain/\$1/6 6 0
-8 0 10 -262144 -1 -1 0 256;
#X obj 255 27 nbx 3 14 -99 99 0 0 /fx/gain/\$1/7 /fx/gain/\$1/7 7 0
-8 0 10 -262144 -1 -1 0 256;
#X obj 291 27 nbx 3 14 -99 99 0 0 /fx/gain/\$1/8 /fx/gain/\$1/8 8 0
-8 0 10 -262144 -1 -1 0 256;
#X obj 39 67 nbx 3 14 -99 99 0 0 /fx/gain/\$1/9 /fx/gain/\$1/9 9 0
-8 0 10 -262144 -1 -1 0 256;
#X obj 75 67 nbx 3 14 -99 99 0 0 /fx/gain/\$1/10 /fx/gain/\$1/10 10
0 -8 0 10 -262144 -1 -1 0 256;
#X obj 111 67 nbx 3 14 -99 99 0 0 /fx/gain/\$1/11 /fx/gain/\$1/11 11
0 -8 0 10 -262144 -1 -1 0 256;
#X obj 147 67 nbx 3 14 -99 99 0 0 /fx/gain/\$1/12 /fx/gain/\$1/12 12
0 -8 0 10 -262144 -1 -1 0 256;
#X obj 183 67 nbx 3 14 -99 99 0 0 /fx/gain/\$1/13 /fx/gain/\$1/13 13
0 -8 0 10 -262144 -1 -1 0 256;
#X obj 219 67 nbx 3 14 -99 99 0 0 /fx/gain/\$1/14 /fx/gain/\$1/14 14
0 -8 0 10 -262144 -1 -1 0 256;
#X obj 255 67 nbx 3 14 -99 99 0 0 /fx/gain/\$1/15 /fx/gain/\$1/15 15
0 -8 0 10 -262144 -1 -1 0 256;
#X obj 291 67 nbx 3 14 -99 99 0 0 /fx/gain/\$1/16 /fx/gain/\$1/16 16
0 -8 0 10 -262144 -1 -1 0 256;
#X obj 39 107 nbx 3 14 -99 99 0 0 /fx/gain/\$1/17 /fx/gain/\$1/17 17
0 -8 0 10 -262144 -1 -1 0 256;
#X obj 75 107 nbx 3 14 -99 99 0 0 /fx/gain/\$1/18 /fx/gain/\$1/18 18
0 -8 0 10 -262144 -1 -1 0 256;
#X obj 111 107 nbx 3 14 -99 99 0 0 /fx/gain/\$1/19 /fx/gain/\$1/19
19 0 -8 0 10 -262144 -1 -1 0 256;
#X obj 147 107 nbx 3 14 -99 99 0 0 /fx/gain/\$1/20 /fx/gain/\$1/20
20 0 -8 0 10 -262144 -1 -1 0 256;
#X obj 183 107 nbx 3 14 -99 99 0 0 /fx/gain/\$1/21 /fx/gain/\$1/21
21 0 -8 0 10 -262144 -1 -1 0 256;
#X obj 219 107 nbx 3 14 -99 99 0 0 /fx/gain/\$1/22 /fx/gain/\$1/22
22 0 -8 0 10 -262144 -1 -1 0 256;
#X obj 255 107 nbx 3 14 -99 99 0 0 /fx/gain/\$1/23 /fx/gain/\$1/23
23 0 -8 0 10 -262144 -1 -1 0 256;
#X obj 291 107 nbx 3 14 -99 99 0 0 /fx/gain/\$1/24 /fx/gain/\$1/24
24 0 -8 0 10 -262144 -1 -1 0 256;
#X obj 39 147 nbx 3 14 -99 99 0 0 /fx/gain/\$1/25 /fx/gain/\$1/25 25
0 -8 0 10 -262144 -1 -1 0 256;
#X obj 75 147 nbx 3 14 -99 99 0 0 /fx/gain/\$1/26 /fx/gain/\$1/26 26
0 -8 0 10 -262144 -1 -1 0 256;
#X obj 111 147 nbx 3 14 -99 99 0 0 /fx/gain/\$1/27 /fx/gain/\$1/27
27 0 -8 0 10 -262144 -1 -1 0 256;
#X obj 147 147 nbx 3 14 -99 99 0 0 /fx/gain/\$1/28 /fx/gain/\$1/28
28 0 -8 0 10 -262144 -1 -1 0 256;
#X obj 183 147 nbx 3 14 -99 99 0 0 /fx/gain/\$1/29 /fx/gain/\$1/29
29 0 -8 0 10 -262144 -1 -1 0 256;
#X obj 219 147 nbx 3 14 -99 99 0 0 /fx/gain/\$1/30 /fx/gain/\$1/30
30 0 -8 0 10 -262144 -1 -1 0 256;
#X obj 255 147 nbx 3 14 -99 99 0 0 /fx/gain/\$1/31 /fx/gain/\$1/31
31 0 -8 0 10 -262144 -1 -1 0 256;
#X obj 291 147 nbx 3 14 -99 99 0 0 /fx/gain/\$1/32 /fx/gain/\$1/32
32 0 -8 0 10 -262144 -1 -1 0 256;
#X obj 39 187 nbx 3 14 -99 99 0 0 /fx/gain/\$1/33 /fx/gain/\$1/33 33
0 -8 0 10 -262144 -1 -1 0 256;
#X obj 75 187 nbx 3 14 -99 99 0 0 /fx/gain/\$1/34 /fx/gain/\$1/34 34
0 -8 0 10 -262144 -1 -1 0 256;
#X obj 111 187 nbx 3 14 -99 99 0 0 /fx/gain/\$1/35 /fx/gain/\$1/35
35 0 -8 0 10 -262144 -1 -1 0 256;
#X obj 147 187 nbx 3 14 -99 99 0 0 /fx/gain/\$1/36 /fx/gain/\$1/36
36 0 -8 0 10 -262144 -1 -1 0 256;
#X obj 183 187 nbx 3 14 -99 99 0 0 /fx/gain/\$1/37 /fx/gain/\$1/37
37 0 -8 0 10 -262144 -1 -1 0 256;
#X obj 219 187 nbx 3 14 -99 99 0 0 /fx/gain/\$1/38 /fx/gain/\$1/38
38 0 -8 0 10 -262144 -1 -1 0 256;
#X obj 255 187 nbx 3 14 -99 99 0 0 /fx/gain/\$1/39 /fx/gain/\$1/39
39 0 -8 0 10 -262144 -1 -1 0 256;
#X obj 291 187 nbx 3 14 -99 99 0 0 /fx/gain/\$1/40 /fx/gain/\$1/40
40 0 -8 0 10 -262144 -1 -1 0 256;
#X obj 39 227 nbx 3 14 -99 99 0 0 /fx/gain/\$1/41 /fx/gain/\$1/41 41
0 -8 0 10 -262144 -1 -1 0 256;
#X obj 75 227 nbx 3 14 -99 99 0 0 /fx/gain/\$1/42 /fx/gain/\$1/42 42
0 -8 0 10 -262144 -1 -1 0 256;
#X obj 111 227 nbx 3 14 -99 99 0 0 /fx/gain/\$1/43 /fx/gain/\$1/43
43 0 -8 0 10 -262144 -1 -1 0 256;
#X obj 147 227 nbx 3 14 -99 99 0 0 /fx/gain/\$1/44 /fx/gain/\$1/44
44 0 -8 0 10 -262144 -1 -1 0 256;
#X obj 183 227 nbx 3 14 -99 99 0 0 /fx/gain/\$1/45 /fx/gain/\$1/45
45 0 -8 0 10 -262144 -1 -1 0 256;
#X obj 219 227 nbx 3 14 -99 99 0 0 /fx/gain/\$1/46 /fx/gain/\$1/46
46 0 -8 0 10 -262144 -1 -1 0 256;
#X obj 255 227 nbx 3 14 -99 99 0 0 /fx/gain/\$1/47 /fx/gain/\$1/47
47 0 -8 0 10 -262144 -1 -1 0 256;
#X obj 291 227 nbx 3 14 -99 99 0 0 /fx/gain/\$1/48 /fx/gain/\$1/48
48 0 -8 0 10 -262144 -1 -1 0 256;
#X restore 256 245 pd \$0-gain;
#X obj 119 170 s pd-\$0-gain;
#X text 42 23 fx_multigain_48_gui <name>;
#X text 98 254 (c)2015 Marian Weger;
#X text 93 52 gui for [fx_multigain_48~];
#X connect 0 0 1 0;
#X connect 1 0 3 0;
#X coords 0 -1 1 1 107 14 2 100 100;
