#N canvas 1280 51 1280 947 10;
#X obj 134 54 inlet~;
#X obj 146 74 inlet~;
#X obj 1205 33 inlet ctl;
#X obj 1174 700 outlet dummy;
#X obj 156 94 inlet~;
#X obj 166 114 inlet~;
#X obj 174 134 inlet~;
#X obj 184 154 inlet~;
#X obj 194 174 inlet~;
#X obj 204 194 inlet~;
#X text 1152 637 (c)2015 Marian Weger;
#X obj 1140 479 s;
#X text 38 15 fx_matrix_48~;
#X obj 216 214 r \$0-11;
#X obj 215 260 r \$0-12;
#X obj 216 314 r \$0-13;
#X obj 216 360 r \$0-14;
#X obj 216 414 r \$0-15;
#X obj 216 460 r \$0-16;
#X obj 135 656 outlet~;
#X obj 145 636 outlet~;
#X obj 155 616 outlet~;
#X obj 165 596 outlet~;
#X obj 175 576 outlet~;
#X obj 185 556 outlet~;
#X obj 195 536 outlet~;
#X obj 205 516 outlet~;
#X obj 284 54 inlet~;
#X obj 296 74 inlet~;
#X obj 306 94 inlet~;
#X obj 316 114 inlet~;
#X obj 324 134 inlet~;
#X obj 334 154 inlet~;
#X obj 344 174 inlet~;
#X obj 354 194 inlet~;
#X obj 285 656 outlet~;
#X obj 295 636 outlet~;
#X obj 305 616 outlet~;
#X obj 315 596 outlet~;
#X obj 325 576 outlet~;
#X obj 335 556 outlet~;
#X obj 345 536 outlet~;
#X obj 355 516 outlet~;
#X obj 434 54 inlet~;
#X obj 446 74 inlet~;
#X obj 456 94 inlet~;
#X obj 466 114 inlet~;
#X obj 474 134 inlet~;
#X obj 484 154 inlet~;
#X obj 494 174 inlet~;
#X obj 504 194 inlet~;
#X obj 435 656 outlet~;
#X obj 445 636 outlet~;
#X obj 455 616 outlet~;
#X obj 465 596 outlet~;
#X obj 475 576 outlet~;
#X obj 485 556 outlet~;
#X obj 495 536 outlet~;
#X obj 505 516 outlet~;
#X obj 584 54 inlet~;
#X obj 596 74 inlet~;
#X obj 606 94 inlet~;
#X obj 616 114 inlet~;
#X obj 624 134 inlet~;
#X obj 634 154 inlet~;
#X obj 644 174 inlet~;
#X obj 654 194 inlet~;
#X obj 585 656 outlet~;
#X obj 595 636 outlet~;
#X obj 605 616 outlet~;
#X obj 615 596 outlet~;
#X obj 625 576 outlet~;
#X obj 635 556 outlet~;
#X obj 645 536 outlet~;
#X obj 655 516 outlet~;
#X obj 734 54 inlet~;
#X obj 746 74 inlet~;
#X obj 756 94 inlet~;
#X obj 766 114 inlet~;
#X obj 774 134 inlet~;
#X obj 784 154 inlet~;
#X obj 794 174 inlet~;
#X obj 804 194 inlet~;
#X obj 735 656 outlet~;
#X obj 745 636 outlet~;
#X obj 755 616 outlet~;
#X obj 765 596 outlet~;
#X obj 775 576 outlet~;
#X obj 785 556 outlet~;
#X obj 795 536 outlet~;
#X obj 805 516 outlet~;
#X obj 884 54 inlet~;
#X obj 896 74 inlet~;
#X obj 906 94 inlet~;
#X obj 916 114 inlet~;
#X obj 924 134 inlet~;
#X obj 934 154 inlet~;
#X obj 944 174 inlet~;
#X obj 954 194 inlet~;
#X obj 885 484 fx_matrix_8~;
#X obj 885 656 outlet~;
#X obj 895 636 outlet~;
#X obj 905 616 outlet~;
#X obj 915 596 outlet~;
#X obj 925 576 outlet~;
#X obj 935 556 outlet~;
#X obj 945 536 outlet~;
#X obj 955 516 outlet~;
#X obj 366 214 r \$0-21;
#X obj 365 260 r \$0-22;
#X obj 366 314 r \$0-23;
#X obj 366 360 r \$0-24;
#X obj 366 414 r \$0-25;
#X obj 366 460 r \$0-26;
#X obj 516 214 r \$0-31;
#X obj 515 260 r \$0-32;
#X obj 516 314 r \$0-33;
#X obj 516 360 r \$0-34;
#X obj 516 414 r \$0-35;
#X obj 516 460 r \$0-36;
#X obj 666 214 r \$0-41;
#X obj 665 260 r \$0-42;
#X obj 666 314 r \$0-43;
#X obj 666 360 r \$0-44;
#X obj 666 414 r \$0-45;
#X obj 666 460 r \$0-46;
#X obj 816 214 r \$0-51;
#X obj 815 260 r \$0-52;
#X obj 816 314 r \$0-53;
#X obj 816 360 r \$0-54;
#X obj 816 414 r \$0-55;
#X obj 816 460 r \$0-56;
#X obj 966 214 r \$0-61;
#X obj 965 260 r \$0-62;
#X obj 966 314 r \$0-63;
#X obj 966 360 r \$0-64;
#X obj 966 414 r \$0-65;
#X obj 966 460 r \$0-66;
#X obj 1205 158 unpack f f f;
#X obj 1139 280 mod 8;
#X obj 1139 302 + 1;
#X obj 1192 280 mod 8;
#X obj 1192 302 + 1;
#X obj 1139 324 * 10;
#X obj 1139 364 +;
#X obj 1263 269 / 8;
#X obj 1263 295 int;
#X obj 1263 317 + 1;
#X obj 1260 341 * 10;
#X obj 1277 380 +;
#X obj 1315 278 / 8;
#X obj 1315 304 int;
#X obj 1315 326 + 1;
#X obj 1205 190 - 1;
#X obj 1205 212 t f f;
#X obj 1252 190 - 1;
#X obj 1252 212 t f f;
#X obj 1277 402 pack f \$0;
#X obj 1139 386 pack f f;
#X obj 1237 83 list length;
#X obj 1205 55 t a a;
#X obj 1242 108 == 3;
#X obj 1205 130 spigot;
#X obj 1396 148 spigot;
#X obj 1433 126 == 1;
#X msg 1396 223 48;
#X obj 1396 245 until;
#X obj 1396 267 f;
#X obj 1432 267 + 1;
#X obj 1396 309 t b b f;
#X msg 1396 333 48;
#X obj 1396 355 until;
#X obj 1396 377 f;
#X obj 1432 377 + 1;
#X obj 1396 171 t b b f;
#X obj 1396 429 pack f f f;
#X msg 1277 429 \$2-\$1;
#X obj 1277 451 symbol;
#X msg 1435 332 1;
#X msg 1443 242 1;
#X obj 135 236 fx_matrix_8~;
#X obj 134 289 fx_matrix_8~;
#X obj 135 336 fx_matrix_8~;
#X obj 135 384 fx_matrix_8~;
#X obj 135 436 fx_matrix_8~;
#X obj 135 484 fx_matrix_8~;
#X obj 285 236 fx_matrix_8~;
#X obj 284 289 fx_matrix_8~;
#X obj 285 336 fx_matrix_8~;
#X obj 285 384 fx_matrix_8~;
#X obj 285 436 fx_matrix_8~;
#X obj 285 484 fx_matrix_8~;
#X obj 435 236 fx_matrix_8~;
#X obj 434 289 fx_matrix_8~;
#X obj 435 336 fx_matrix_8~;
#X obj 435 384 fx_matrix_8~;
#X obj 435 436 fx_matrix_8~;
#X obj 435 484 fx_matrix_8~;
#X obj 585 236 fx_matrix_8~;
#X obj 584 289 fx_matrix_8~;
#X obj 585 336 fx_matrix_8~;
#X obj 585 384 fx_matrix_8~;
#X obj 585 436 fx_matrix_8~;
#X obj 585 484 fx_matrix_8~;
#X obj 735 236 fx_matrix_8~;
#X obj 734 289 fx_matrix_8~;
#X obj 735 336 fx_matrix_8~;
#X obj 735 384 fx_matrix_8~;
#X obj 735 436 fx_matrix_8~;
#X obj 735 484 fx_matrix_8~;
#X obj 885 236 fx_matrix_8~;
#X obj 884 289 fx_matrix_8~;
#X obj 885 336 fx_matrix_8~;
#X obj 885 384 fx_matrix_8~;
#X obj 885 436 fx_matrix_8~;
#X connect 0 0 180 0;
#X connect 1 0 180 1;
#X connect 2 0 160 0;
#X connect 4 0 180 2;
#X connect 5 0 180 3;
#X connect 6 0 180 4;
#X connect 7 0 180 5;
#X connect 8 0 180 6;
#X connect 9 0 180 7;
#X connect 13 0 180 8;
#X connect 14 0 181 8;
#X connect 15 0 182 8;
#X connect 16 0 183 8;
#X connect 17 0 184 8;
#X connect 18 0 185 8;
#X connect 27 0 186 0;
#X connect 28 0 186 1;
#X connect 29 0 186 2;
#X connect 30 0 186 3;
#X connect 31 0 186 4;
#X connect 32 0 186 5;
#X connect 33 0 186 6;
#X connect 34 0 186 7;
#X connect 43 0 192 0;
#X connect 44 0 192 1;
#X connect 45 0 192 2;
#X connect 46 0 192 3;
#X connect 47 0 192 4;
#X connect 48 0 192 5;
#X connect 49 0 192 6;
#X connect 50 0 192 7;
#X connect 59 0 198 0;
#X connect 60 0 198 1;
#X connect 61 0 198 2;
#X connect 62 0 198 3;
#X connect 63 0 198 4;
#X connect 64 0 198 5;
#X connect 65 0 198 6;
#X connect 66 0 198 7;
#X connect 75 0 204 0;
#X connect 76 0 204 1;
#X connect 77 0 204 2;
#X connect 78 0 204 3;
#X connect 79 0 204 4;
#X connect 80 0 204 5;
#X connect 81 0 204 6;
#X connect 82 0 204 7;
#X connect 91 0 210 0;
#X connect 92 0 210 1;
#X connect 93 0 210 2;
#X connect 94 0 210 3;
#X connect 95 0 210 4;
#X connect 96 0 210 5;
#X connect 97 0 210 6;
#X connect 98 0 210 7;
#X connect 99 0 100 0;
#X connect 99 1 101 0;
#X connect 99 2 102 0;
#X connect 99 3 103 0;
#X connect 99 4 104 0;
#X connect 99 5 105 0;
#X connect 99 6 106 0;
#X connect 99 7 107 0;
#X connect 108 0 186 8;
#X connect 109 0 187 8;
#X connect 110 0 188 8;
#X connect 111 0 189 8;
#X connect 112 0 190 8;
#X connect 113 0 191 8;
#X connect 114 0 192 8;
#X connect 115 0 193 8;
#X connect 116 0 194 8;
#X connect 117 0 195 8;
#X connect 118 0 196 8;
#X connect 119 0 197 8;
#X connect 120 0 198 8;
#X connect 121 0 199 8;
#X connect 122 0 200 8;
#X connect 123 0 201 8;
#X connect 124 0 202 8;
#X connect 125 0 203 8;
#X connect 126 0 204 8;
#X connect 127 0 205 8;
#X connect 128 0 206 8;
#X connect 129 0 207 8;
#X connect 130 0 208 8;
#X connect 131 0 209 8;
#X connect 132 0 210 8;
#X connect 133 0 211 8;
#X connect 134 0 212 8;
#X connect 135 0 213 8;
#X connect 136 0 214 8;
#X connect 137 0 99 8;
#X connect 138 0 153 0;
#X connect 138 1 155 0;
#X connect 138 2 158 1;
#X connect 139 0 140 0;
#X connect 140 0 143 0;
#X connect 141 0 142 0;
#X connect 142 0 144 1;
#X connect 143 0 144 0;
#X connect 144 0 158 0;
#X connect 145 0 146 0;
#X connect 146 0 147 0;
#X connect 147 0 148 0;
#X connect 148 0 149 0;
#X connect 149 0 157 0;
#X connect 150 0 151 0;
#X connect 151 0 152 0;
#X connect 152 0 149 1;
#X connect 153 0 154 0;
#X connect 154 0 139 0;
#X connect 154 1 145 0;
#X connect 155 0 156 0;
#X connect 156 0 141 0;
#X connect 156 1 150 0;
#X connect 157 0 176 0;
#X connect 158 0 11 0;
#X connect 159 0 161 0;
#X connect 159 0 164 0;
#X connect 160 0 162 0;
#X connect 160 0 163 0;
#X connect 160 1 159 0;
#X connect 161 0 162 1;
#X connect 162 0 138 0;
#X connect 163 0 174 0;
#X connect 164 0 163 1;
#X connect 165 0 166 0;
#X connect 166 0 167 0;
#X connect 167 0 168 0;
#X connect 167 0 169 0;
#X connect 168 0 167 1;
#X connect 169 0 170 0;
#X connect 169 1 178 0;
#X connect 169 2 175 1;
#X connect 170 0 171 0;
#X connect 171 0 172 0;
#X connect 172 0 173 0;
#X connect 172 0 175 0;
#X connect 173 0 172 1;
#X connect 174 0 165 0;
#X connect 174 1 179 0;
#X connect 174 2 175 2;
#X connect 175 0 138 0;
#X connect 176 0 177 0;
#X connect 177 0 11 1;
#X connect 178 0 172 1;
#X connect 179 0 167 1;
#X connect 180 0 181 0;
#X connect 180 1 181 1;
#X connect 180 2 181 2;
#X connect 180 3 181 3;
#X connect 180 4 181 4;
#X connect 180 5 181 5;
#X connect 180 6 181 6;
#X connect 180 7 181 7;
#X connect 181 0 182 0;
#X connect 181 1 182 1;
#X connect 181 2 182 2;
#X connect 181 3 182 3;
#X connect 181 4 182 4;
#X connect 181 5 182 5;
#X connect 181 6 182 6;
#X connect 181 7 182 7;
#X connect 182 0 183 0;
#X connect 182 1 183 1;
#X connect 182 2 183 2;
#X connect 182 3 183 3;
#X connect 182 4 183 4;
#X connect 182 5 183 5;
#X connect 182 6 183 6;
#X connect 182 7 183 7;
#X connect 183 0 184 0;
#X connect 183 1 184 1;
#X connect 183 2 184 2;
#X connect 183 3 184 3;
#X connect 183 4 184 4;
#X connect 183 5 184 5;
#X connect 183 6 184 6;
#X connect 183 7 184 7;
#X connect 184 0 185 0;
#X connect 184 1 185 1;
#X connect 184 2 185 2;
#X connect 184 3 185 3;
#X connect 184 4 185 4;
#X connect 184 5 185 5;
#X connect 184 6 185 6;
#X connect 184 7 185 7;
#X connect 185 0 19 0;
#X connect 185 1 20 0;
#X connect 185 2 21 0;
#X connect 185 3 22 0;
#X connect 185 4 23 0;
#X connect 185 5 24 0;
#X connect 185 6 25 0;
#X connect 185 7 26 0;
#X connect 186 0 187 0;
#X connect 186 1 187 1;
#X connect 186 2 187 2;
#X connect 186 3 187 3;
#X connect 186 4 187 4;
#X connect 186 5 187 5;
#X connect 186 6 187 6;
#X connect 186 7 187 7;
#X connect 187 0 188 0;
#X connect 187 1 188 1;
#X connect 187 2 188 2;
#X connect 187 3 188 3;
#X connect 187 4 188 4;
#X connect 187 5 188 5;
#X connect 187 6 188 6;
#X connect 187 7 188 7;
#X connect 188 0 189 0;
#X connect 188 1 189 1;
#X connect 188 2 189 2;
#X connect 188 3 189 3;
#X connect 188 4 189 4;
#X connect 188 5 189 5;
#X connect 188 6 189 6;
#X connect 188 7 189 7;
#X connect 189 0 190 0;
#X connect 189 1 190 1;
#X connect 189 2 190 2;
#X connect 189 3 190 3;
#X connect 189 4 190 4;
#X connect 189 5 190 5;
#X connect 189 6 190 6;
#X connect 189 7 190 7;
#X connect 190 0 191 0;
#X connect 190 1 191 1;
#X connect 190 2 191 2;
#X connect 190 3 191 3;
#X connect 190 4 191 4;
#X connect 190 5 191 5;
#X connect 190 6 191 6;
#X connect 190 7 191 7;
#X connect 191 0 35 0;
#X connect 191 1 36 0;
#X connect 191 2 37 0;
#X connect 191 3 38 0;
#X connect 191 4 39 0;
#X connect 191 5 40 0;
#X connect 191 6 41 0;
#X connect 191 7 42 0;
#X connect 192 0 193 0;
#X connect 192 1 193 1;
#X connect 192 2 193 2;
#X connect 192 3 193 3;
#X connect 192 4 193 4;
#X connect 192 5 193 5;
#X connect 192 6 193 6;
#X connect 192 7 193 7;
#X connect 193 0 194 0;
#X connect 193 1 194 1;
#X connect 193 2 194 2;
#X connect 193 3 194 3;
#X connect 193 4 194 4;
#X connect 193 5 194 5;
#X connect 193 6 194 6;
#X connect 193 7 194 7;
#X connect 194 0 195 0;
#X connect 194 1 195 1;
#X connect 194 2 195 2;
#X connect 194 3 195 3;
#X connect 194 4 195 4;
#X connect 194 5 195 5;
#X connect 194 6 195 6;
#X connect 194 7 195 7;
#X connect 195 0 196 0;
#X connect 195 1 196 1;
#X connect 195 2 196 2;
#X connect 195 3 196 3;
#X connect 195 4 196 4;
#X connect 195 5 196 5;
#X connect 195 6 196 6;
#X connect 195 7 196 7;
#X connect 196 0 197 0;
#X connect 196 1 197 1;
#X connect 196 2 197 2;
#X connect 196 3 197 3;
#X connect 196 4 197 4;
#X connect 196 5 197 5;
#X connect 196 6 197 6;
#X connect 196 7 197 7;
#X connect 197 0 51 0;
#X connect 197 1 52 0;
#X connect 197 2 53 0;
#X connect 197 3 54 0;
#X connect 197 4 55 0;
#X connect 197 5 56 0;
#X connect 197 6 57 0;
#X connect 197 7 58 0;
#X connect 198 0 199 0;
#X connect 198 1 199 1;
#X connect 198 2 199 2;
#X connect 198 3 199 3;
#X connect 198 4 199 4;
#X connect 198 5 199 5;
#X connect 198 6 199 6;
#X connect 198 7 199 7;
#X connect 199 0 200 0;
#X connect 199 1 200 1;
#X connect 199 2 200 2;
#X connect 199 3 200 3;
#X connect 199 4 200 4;
#X connect 199 5 200 5;
#X connect 199 6 200 6;
#X connect 199 7 200 7;
#X connect 200 0 201 0;
#X connect 200 1 201 1;
#X connect 200 2 201 2;
#X connect 200 3 201 3;
#X connect 200 4 201 4;
#X connect 200 5 201 5;
#X connect 200 6 201 6;
#X connect 200 7 201 7;
#X connect 201 0 202 0;
#X connect 201 1 202 1;
#X connect 201 2 202 2;
#X connect 201 3 202 3;
#X connect 201 4 202 4;
#X connect 201 5 202 5;
#X connect 201 6 202 6;
#X connect 201 7 202 7;
#X connect 202 0 203 0;
#X connect 202 1 203 1;
#X connect 202 2 203 2;
#X connect 202 3 203 3;
#X connect 202 4 203 4;
#X connect 202 5 203 5;
#X connect 202 6 203 6;
#X connect 202 7 203 7;
#X connect 203 0 67 0;
#X connect 203 1 68 0;
#X connect 203 2 69 0;
#X connect 203 3 70 0;
#X connect 203 4 71 0;
#X connect 203 5 72 0;
#X connect 203 6 73 0;
#X connect 203 7 74 0;
#X connect 204 0 205 0;
#X connect 204 1 205 1;
#X connect 204 2 205 2;
#X connect 204 3 205 3;
#X connect 204 4 205 4;
#X connect 204 5 205 5;
#X connect 204 6 205 6;
#X connect 204 7 205 7;
#X connect 205 0 206 0;
#X connect 205 1 206 1;
#X connect 205 2 206 2;
#X connect 205 3 206 3;
#X connect 205 4 206 4;
#X connect 205 5 206 5;
#X connect 205 6 206 6;
#X connect 205 7 206 7;
#X connect 206 0 207 0;
#X connect 206 1 207 1;
#X connect 206 2 207 2;
#X connect 206 3 207 3;
#X connect 206 4 207 4;
#X connect 206 5 207 5;
#X connect 206 6 207 6;
#X connect 206 7 207 7;
#X connect 207 0 208 0;
#X connect 207 1 208 1;
#X connect 207 2 208 2;
#X connect 207 3 208 3;
#X connect 207 4 208 4;
#X connect 207 5 208 5;
#X connect 207 6 208 6;
#X connect 207 7 208 7;
#X connect 208 0 209 0;
#X connect 208 1 209 1;
#X connect 208 2 209 2;
#X connect 208 3 209 3;
#X connect 208 4 209 4;
#X connect 208 5 209 5;
#X connect 208 6 209 6;
#X connect 208 7 209 7;
#X connect 209 0 83 0;
#X connect 209 1 84 0;
#X connect 209 2 85 0;
#X connect 209 3 86 0;
#X connect 209 4 87 0;
#X connect 209 5 88 0;
#X connect 209 6 89 0;
#X connect 209 7 90 0;
#X connect 210 0 211 0;
#X connect 210 1 211 1;
#X connect 210 2 211 2;
#X connect 210 3 211 3;
#X connect 210 4 211 4;
#X connect 210 5 211 5;
#X connect 210 6 211 6;
#X connect 210 7 211 7;
#X connect 211 0 212 0;
#X connect 211 1 212 1;
#X connect 211 2 212 2;
#X connect 211 3 212 3;
#X connect 211 4 212 4;
#X connect 211 5 212 5;
#X connect 211 6 212 6;
#X connect 211 7 212 7;
#X connect 212 0 213 0;
#X connect 212 1 213 1;
#X connect 212 2 213 2;
#X connect 212 3 213 3;
#X connect 212 4 213 4;
#X connect 212 5 213 5;
#X connect 212 6 213 6;
#X connect 212 7 213 7;
#X connect 213 0 214 0;
#X connect 213 1 214 1;
#X connect 213 2 214 2;
#X connect 213 3 214 3;
#X connect 213 4 214 4;
#X connect 213 5 214 5;
#X connect 213 6 214 6;
#X connect 213 7 214 7;
#X connect 214 0 99 0;
#X connect 214 1 99 1;
#X connect 214 2 99 2;
#X connect 214 3 99 3;
#X connect 214 4 99 4;
#X connect 214 5 99 5;
#X connect 214 6 99 6;
#X connect 214 7 99 7;
