#N canvas 0 51 1280 947 10;
#X obj 64 49 inlet~;
#X obj 64 624 outlet~;
#X text 795 424 (c)2012 Marian Weger;
#X obj 64 191 fx_gain~;
#X obj 124 49 inlet~;
#X obj 79 271 fx_gain~;
#X obj 64 303 +~;
#X obj 109 168 r \$0-11;
#X obj 124 248 r \$0-12;
#X obj 184 624 outlet~;
#X obj 184 191 fx_gain~;
#X obj 199 271 fx_gain~;
#X obj 184 303 +~;
#X obj 229 168 r \$0-21;
#X obj 244 248 r \$0-22;
#X obj 596 455 s \$0-11;
#X obj 64 71 s~ \$0-1;
#X obj 124 71 s~ \$0-2;
#X obj 64 139 r~ \$0-1;
#X obj 79 219 r~ \$0-2;
#X obj 184 139 r~ \$0-1;
#X obj 199 219 r~ \$0-2;
#X obj 616 435 s \$0-12;
#X obj 596 97 inlet ctl;
#X obj 760 502 outlet dummy;
#X obj 184 49 inlet~;
#X obj 184 71 s~ \$0-3;
#X obj 79 381 fx_gain~;
#X obj 64 413 +~;
#X obj 199 381 fx_gain~;
#X obj 184 413 +~;
#X obj 79 329 r~ \$0-3;
#X obj 199 329 r~ \$0-3;
#X obj 124 358 r \$0-13;
#X obj 244 358 r \$0-23;
#X obj 304 624 outlet~;
#X obj 304 191 fx_gain~;
#X obj 319 271 fx_gain~;
#X obj 304 303 +~;
#X obj 304 139 r~ \$0-1;
#X obj 319 219 r~ \$0-2;
#X obj 319 381 fx_gain~;
#X obj 304 413 +~;
#X obj 319 329 r~ \$0-3;
#X obj 349 168 r \$0-31;
#X obj 364 248 r \$0-32;
#X obj 364 358 r \$0-33;
#X obj 637 415 s \$0-13;
#X obj 244 49 inlet~;
#X obj 244 71 s~ \$0-4;
#X obj 424 624 outlet~;
#X obj 424 191 fx_gain~;
#X obj 439 271 fx_gain~;
#X obj 424 303 +~;
#X obj 424 139 r~ \$0-1;
#X obj 439 219 r~ \$0-2;
#X obj 439 381 fx_gain~;
#X obj 424 413 +~;
#X obj 439 329 r~ \$0-3;
#X obj 79 491 fx_gain~;
#X obj 64 523 +~;
#X obj 199 491 fx_gain~;
#X obj 184 523 +~;
#X obj 319 491 fx_gain~;
#X obj 304 523 +~;
#X obj 439 491 fx_gain~;
#X obj 424 523 +~;
#X obj 79 439 r~ \$0-4;
#X obj 124 468 r \$0-14;
#X obj 199 439 r~ \$0-4;
#X obj 244 468 r \$0-24;
#X obj 319 439 r~ \$0-4;
#X obj 364 468 r \$0-34;
#X obj 439 439 r~ \$0-4;
#X obj 484 468 r \$0-44;
#X obj 484 358 r \$0-43;
#X obj 484 248 r \$0-42;
#X obj 469 168 r \$0-41;
#X obj 596 119 route 11 12 13 14 21 22 23 24 31 32 33 34 41 42 43 44
;
#X obj 658 395 s \$0-14;
#X obj 674 375 s \$0-21;
#X obj 698 355 s \$0-22;
#X obj 723 335 s \$0-23;
#X obj 748 315 s \$0-24;
#X obj 768 295 s \$0-31;
#X obj 786 275 s \$0-32;
#X obj 806 255 s \$0-33;
#X obj 827 235 s \$0-34;
#X obj 848 215 s \$0-41;
#X obj 864 195 s \$0-42;
#X obj 888 175 s \$0-43;
#X obj 913 155 s \$0-44;
#X text 38 15 fx_matrix_4~;
#X connect 0 0 16 0;
#X connect 3 0 6 0;
#X connect 4 0 17 0;
#X connect 5 0 6 1;
#X connect 6 0 28 0;
#X connect 7 0 3 1;
#X connect 8 0 5 1;
#X connect 10 0 12 0;
#X connect 11 0 12 1;
#X connect 12 0 30 0;
#X connect 13 0 10 1;
#X connect 14 0 11 1;
#X connect 18 0 3 0;
#X connect 19 0 5 0;
#X connect 20 0 10 0;
#X connect 21 0 11 0;
#X connect 23 0 78 0;
#X connect 25 0 26 0;
#X connect 27 0 28 1;
#X connect 28 0 60 0;
#X connect 29 0 30 1;
#X connect 30 0 62 0;
#X connect 31 0 27 0;
#X connect 32 0 29 0;
#X connect 33 0 27 1;
#X connect 34 0 29 1;
#X connect 36 0 38 0;
#X connect 37 0 38 1;
#X connect 38 0 42 0;
#X connect 39 0 36 0;
#X connect 40 0 37 0;
#X connect 41 0 42 1;
#X connect 42 0 64 0;
#X connect 43 0 41 0;
#X connect 44 0 36 1;
#X connect 45 0 37 1;
#X connect 46 0 41 1;
#X connect 48 0 49 0;
#X connect 51 0 53 0;
#X connect 52 0 53 1;
#X connect 53 0 57 0;
#X connect 54 0 51 0;
#X connect 55 0 52 0;
#X connect 56 0 57 1;
#X connect 57 0 66 0;
#X connect 58 0 56 0;
#X connect 59 0 60 1;
#X connect 60 0 1 0;
#X connect 61 0 62 1;
#X connect 62 0 9 0;
#X connect 63 0 64 1;
#X connect 64 0 35 0;
#X connect 65 0 66 1;
#X connect 66 0 50 0;
#X connect 67 0 59 0;
#X connect 68 0 59 1;
#X connect 69 0 61 0;
#X connect 70 0 61 1;
#X connect 71 0 63 0;
#X connect 72 0 63 1;
#X connect 73 0 65 0;
#X connect 74 0 65 1;
#X connect 75 0 56 1;
#X connect 76 0 52 1;
#X connect 77 0 51 1;
#X connect 78 0 15 0;
#X connect 78 1 22 0;
#X connect 78 2 47 0;
#X connect 78 3 79 0;
#X connect 78 4 80 0;
#X connect 78 5 81 0;
#X connect 78 6 82 0;
#X connect 78 7 83 0;
#X connect 78 8 84 0;
#X connect 78 9 85 0;
#X connect 78 10 86 0;
#X connect 78 11 87 0;
#X connect 78 12 88 0;
#X connect 78 13 89 0;
#X connect 78 14 90 0;
#X connect 78 15 91 0;
