#N canvas 40 313 423 257 10;
#X text 103 178 (c)2012 Marian Weger;
#X obj 100 100 tgl 14 0 /fx/mute/\$1 /fx/mute/\$1 M 4 7 0 10 -261689
-261689 -1 0 1;
#X obj 263 100 sel 0 1;
#X msg 263 122 3;
#X msg 293 122 13;
#X msg 263 150 color \$1 \$1 22;
#X obj 263 78 r /fx/mute/\$1;
#X text 42 23 fx_mute_gui <name>;
#X connect 2 0 3 0;
#X connect 2 1 4 0;
#X connect 3 0 5 0;
#X connect 4 0 5 0;
#X connect 5 0 1 0;
#X connect 6 0 2 0;
#X coords 0 -1 1 1 14 14 2 100 100;
