#N canvas 68 22 1178 734 10;
#X obj 64 49 inlet~;
#X obj 64 674 outlet~;
#X text 892 605 (c)2012 Marian Weger;
#X obj 64 191 fx_gain~;
#X obj 124 49 inlet~;
#X obj 79 271 fx_gain~;
#X obj 64 303 +~;
#X obj 109 168 r \$0-11;
#X obj 124 248 r \$0-12;
#X obj 184 674 outlet~;
#X obj 184 191 fx_gain~;
#X obj 199 271 fx_gain~;
#X obj 184 303 +~;
#X obj 229 168 r \$0-21;
#X obj 244 248 r \$0-22;
#X obj 693 686 s \$0-11;
#X obj 64 71 s~ \$0-1;
#X obj 124 71 s~ \$0-2;
#X obj 64 139 r~ \$0-1;
#X obj 79 219 r~ \$0-2;
#X obj 184 139 r~ \$0-1;
#X obj 199 219 r~ \$0-2;
#X obj 713 666 s \$0-12;
#X obj 693 98 inlet ctl;
#X obj 857 683 outlet dummy;
#X obj 184 49 inlet~;
#X obj 184 71 s~ \$0-3;
#X obj 79 381 fx_gain~;
#X obj 64 413 +~;
#X obj 199 381 fx_gain~;
#X obj 184 413 +~;
#X obj 79 329 r~ \$0-3;
#X obj 199 329 r~ \$0-3;
#X obj 124 358 r \$0-13;
#X obj 244 358 r \$0-23;
#X obj 304 674 outlet~;
#X obj 304 191 fx_gain~;
#X obj 319 271 fx_gain~;
#X obj 304 303 +~;
#X obj 304 139 r~ \$0-1;
#X obj 319 219 r~ \$0-2;
#X obj 319 381 fx_gain~;
#X obj 304 413 +~;
#X obj 319 329 r~ \$0-3;
#X obj 349 168 r \$0-31;
#X obj 364 248 r \$0-32;
#X obj 364 358 r \$0-33;
#X obj 734 646 s \$0-13;
#X obj 244 49 inlet~;
#X obj 244 71 s~ \$0-4;
#X obj 424 674 outlet~;
#X obj 424 191 fx_gain~;
#X obj 439 271 fx_gain~;
#X obj 424 303 +~;
#X obj 424 139 r~ \$0-1;
#X obj 439 219 r~ \$0-2;
#X obj 439 381 fx_gain~;
#X obj 424 413 +~;
#X obj 439 329 r~ \$0-3;
#X obj 79 491 fx_gain~;
#X obj 64 523 +~;
#X obj 199 491 fx_gain~;
#X obj 184 523 +~;
#X obj 319 491 fx_gain~;
#X obj 304 523 +~;
#X obj 439 491 fx_gain~;
#X obj 424 523 +~;
#X obj 79 439 r~ \$0-4;
#X obj 124 468 r \$0-14;
#X obj 199 439 r~ \$0-4;
#X obj 244 468 r \$0-24;
#X obj 319 439 r~ \$0-4;
#X obj 364 468 r \$0-34;
#X obj 439 439 r~ \$0-4;
#X obj 484 468 r \$0-44;
#X obj 484 358 r \$0-43;
#X obj 484 248 r \$0-42;
#X obj 469 168 r \$0-41;
#X obj 755 626 s \$0-14;
#X text 38 15 fx_matrix_5~;
#X obj 304 49 inlet~;
#X obj 304 71 s~ \$0-5;
#X obj 544 674 outlet~;
#X obj 544 191 fx_gain~;
#X obj 559 271 fx_gain~;
#X obj 544 303 +~;
#X obj 544 139 r~ \$0-1;
#X obj 559 219 r~ \$0-2;
#X obj 559 381 fx_gain~;
#X obj 544 413 +~;
#X obj 559 329 r~ \$0-3;
#X obj 559 491 fx_gain~;
#X obj 544 523 +~;
#X obj 559 439 r~ \$0-4;
#X obj 589 168 r \$0-51;
#X obj 604 248 r \$0-52;
#X obj 604 358 r \$0-53;
#X obj 604 468 r \$0-54;
#X obj 79 601 fx_gain~;
#X obj 64 633 +~;
#X obj 199 601 fx_gain~;
#X obj 184 633 +~;
#X obj 319 601 fx_gain~;
#X obj 304 633 +~;
#X obj 439 601 fx_gain~;
#X obj 424 633 +~;
#X obj 559 601 fx_gain~;
#X obj 544 633 +~;
#X obj 79 549 r~ \$0-5;
#X obj 124 578 r \$0-15;
#X obj 199 549 r~ \$0-5;
#X obj 244 578 r \$0-25;
#X obj 319 549 r~ \$0-5;
#X obj 364 578 r \$0-35;
#X obj 439 549 r~ \$0-5;
#X obj 484 578 r \$0-45;
#X obj 559 549 r~ \$0-5;
#X obj 604 578 r \$0-55;
#X obj 693 120 route 11 12 13 14 15 21 22 23 24 25 31 32 33 34 35 41
42 43 44 45 51 52 53 54 55;
#X obj 771 606 s \$0-15;
#X obj 795 586 s \$0-21;
#X obj 820 566 s \$0-22;
#X obj 845 546 s \$0-23;
#X obj 865 526 s \$0-24;
#X obj 883 506 s \$0-25;
#X obj 903 486 s \$0-31;
#X obj 924 466 s \$0-32;
#X obj 945 446 s \$0-33;
#X obj 961 426 s \$0-34;
#X obj 985 406 s \$0-35;
#X obj 1005 386 s \$0-41;
#X obj 1030 366 s \$0-42;
#X obj 1055 346 s \$0-43;
#X obj 1075 326 s \$0-44;
#X obj 1093 306 s \$0-45;
#X obj 1113 286 s \$0-51;
#X obj 1134 266 s \$0-52;
#X obj 1155 246 s \$0-53;
#X obj 1171 226 s \$0-54;
#X obj 1195 206 s \$0-55;
#X connect 0 0 16 0;
#X connect 3 0 6 0;
#X connect 4 0 17 0;
#X connect 5 0 6 1;
#X connect 6 0 28 0;
#X connect 7 0 3 1;
#X connect 8 0 5 1;
#X connect 10 0 12 0;
#X connect 11 0 12 1;
#X connect 12 0 30 0;
#X connect 13 0 10 1;
#X connect 14 0 11 1;
#X connect 18 0 3 0;
#X connect 19 0 5 0;
#X connect 20 0 10 0;
#X connect 21 0 11 0;
#X connect 23 0 118 0;
#X connect 25 0 26 0;
#X connect 27 0 28 1;
#X connect 28 0 60 0;
#X connect 29 0 30 1;
#X connect 30 0 62 0;
#X connect 31 0 27 0;
#X connect 32 0 29 0;
#X connect 33 0 27 1;
#X connect 34 0 29 1;
#X connect 36 0 38 0;
#X connect 37 0 38 1;
#X connect 38 0 42 0;
#X connect 39 0 36 0;
#X connect 40 0 37 0;
#X connect 41 0 42 1;
#X connect 42 0 64 0;
#X connect 43 0 41 0;
#X connect 44 0 36 1;
#X connect 45 0 37 1;
#X connect 46 0 41 1;
#X connect 48 0 49 0;
#X connect 51 0 53 0;
#X connect 52 0 53 1;
#X connect 53 0 57 0;
#X connect 54 0 51 0;
#X connect 55 0 52 0;
#X connect 56 0 57 1;
#X connect 57 0 66 0;
#X connect 58 0 56 0;
#X connect 59 0 60 1;
#X connect 60 0 99 0;
#X connect 61 0 62 1;
#X connect 62 0 101 0;
#X connect 63 0 64 1;
#X connect 64 0 103 0;
#X connect 65 0 66 1;
#X connect 66 0 105 0;
#X connect 67 0 59 0;
#X connect 68 0 59 1;
#X connect 69 0 61 0;
#X connect 70 0 61 1;
#X connect 71 0 63 0;
#X connect 72 0 63 1;
#X connect 73 0 65 0;
#X connect 74 0 65 1;
#X connect 75 0 56 1;
#X connect 76 0 52 1;
#X connect 77 0 51 1;
#X connect 80 0 81 0;
#X connect 83 0 85 0;
#X connect 84 0 85 1;
#X connect 85 0 89 0;
#X connect 86 0 83 0;
#X connect 87 0 84 0;
#X connect 88 0 89 1;
#X connect 89 0 92 0;
#X connect 90 0 88 0;
#X connect 91 0 92 1;
#X connect 92 0 107 0;
#X connect 93 0 91 0;
#X connect 94 0 83 1;
#X connect 95 0 84 1;
#X connect 96 0 88 1;
#X connect 97 0 91 1;
#X connect 98 0 99 1;
#X connect 99 0 1 0;
#X connect 100 0 101 1;
#X connect 101 0 9 0;
#X connect 102 0 103 1;
#X connect 103 0 35 0;
#X connect 104 0 105 1;
#X connect 105 0 50 0;
#X connect 106 0 107 1;
#X connect 107 0 82 0;
#X connect 108 0 98 0;
#X connect 109 0 98 1;
#X connect 110 0 100 0;
#X connect 111 0 100 1;
#X connect 112 0 102 0;
#X connect 113 0 102 1;
#X connect 114 0 104 0;
#X connect 115 0 104 1;
#X connect 116 0 106 0;
#X connect 117 0 106 1;
#X connect 118 0 15 0;
#X connect 118 1 22 0;
#X connect 118 2 47 0;
#X connect 118 3 78 0;
#X connect 118 4 119 0;
#X connect 118 5 120 0;
#X connect 118 6 121 0;
#X connect 118 7 122 0;
#X connect 118 8 123 0;
#X connect 118 9 124 0;
#X connect 118 10 125 0;
#X connect 118 11 126 0;
#X connect 118 12 127 0;
#X connect 118 13 128 0;
#X connect 118 14 129 0;
#X connect 118 15 130 0;
#X connect 118 16 131 0;
#X connect 118 17 132 0;
#X connect 118 18 133 0;
#X connect 118 19 134 0;
#X connect 118 20 135 0;
#X connect 118 21 136 0;
#X connect 118 22 137 0;
#X connect 118 23 138 0;
#X connect 118 24 139 0;
