#N canvas 535 182 522 386 10;
#X text 98 254 (c)2012 Marian Weger;
#X obj 100 100 bng 14 250 50 0 empty empty gain_correction 16 7 0 10
-262144 -1 -1;
#X msg 119 150 vis 1;
#X text 42 23 fx_multigain_24_gui <name>;
#X text 93 52 gui for [fx_multigain_24~];
#N canvas 591 125 357 179 \$0-gain 1;
#X obj 39 27 nbx 3 14 -99 99 0 0 /fx/gain/\$1/1 /fx/gain/\$1/1 1 0
-8 0 10 -262144 -1 -1 -99 256;
#X obj 75 27 nbx 3 14 -99 99 0 0 /fx/gain/\$1/2 /fx/gain/\$1/2 2 0
-8 0 10 -262144 -1 -1 0 256;
#X obj 111 27 nbx 3 14 -99 99 0 0 /fx/gain/\$1/3 /fx/gain/\$1/3 3 0
-8 0 10 -262144 -1 -1 0 256;
#X obj 147 27 nbx 3 14 -99 99 0 0 /fx/gain/\$1/4 /fx/gain/\$1/4 4 0
-8 0 10 -262144 -1 -1 0 256;
#X obj 183 27 nbx 3 14 -99 99 0 0 /fx/gain/\$1/5 /fx/gain/\$1/5 5 0
-8 0 10 -262144 -1 -1 0 256;
#X obj 219 27 nbx 3 14 -99 99 0 0 /fx/gain/\$1/6 /fx/gain/\$1/6 6 0
-8 0 10 -262144 -1 -1 0 256;
#X obj 255 27 nbx 3 14 -99 99 0 0 /fx/gain/\$1/7 /fx/gain/\$1/7 7 0
-8 0 10 -262144 -1 -1 0 256;
#X obj 291 27 nbx 3 14 -99 99 0 0 /fx/gain/\$1/8 /fx/gain/\$1/8 8 0
-8 0 10 -262144 -1 -1 0 256;
#X obj 39 67 nbx 3 14 -99 99 0 0 /fx/gain/\$1/9 /fx/gain/\$1/9 9 0
-8 0 10 -262144 -1 -1 0 256;
#X obj 75 67 nbx 3 14 -99 99 0 0 /fx/gain/\$1/10 /fx/gain/\$1/10 10
0 -8 0 10 -262144 -1 -1 0 256;
#X obj 111 67 nbx 3 14 -99 99 0 0 /fx/gain/\$1/11 /fx/gain/\$1/11 11
0 -8 0 10 -262144 -1 -1 0 256;
#X obj 147 67 nbx 3 14 -99 99 0 0 /fx/gain/\$1/12 /fx/gain/\$1/12 12
0 -8 0 10 -262144 -1 -1 0 256;
#X obj 183 67 nbx 3 14 -99 99 0 0 /fx/gain/\$1/13 /fx/gain/\$1/13 13
0 -8 0 10 -262144 -1 -1 0 256;
#X obj 219 67 nbx 3 14 -99 99 0 0 /fx/gain/\$1/14 /fx/gain/\$1/14 14
0 -8 0 10 -262144 -1 -1 0 256;
#X obj 255 67 nbx 3 14 -99 99 0 0 /fx/gain/\$1/15 /fx/gain/\$1/15 15
0 -8 0 10 -262144 -1 -1 0 256;
#X obj 291 67 nbx 3 14 -99 99 0 0 /fx/gain/\$1/16 /fx/gain/\$1/16 16
0 -8 0 10 -262144 -1 -1 0 256;
#X obj 39 107 nbx 3 14 -99 99 0 0 /fx/gain/\$1/17 /fx/gain/\$1/17 17
0 -8 0 10 -262144 -1 -1 0 256;
#X obj 75 107 nbx 3 14 -99 99 0 0 /fx/gain/\$1/18 /fx/gain/\$1/18 18
0 -8 0 10 -262144 -1 -1 0 256;
#X obj 111 107 nbx 3 14 -99 99 0 0 /fx/gain/\$1/19 /fx/gain/\$1/19
19 0 -8 0 10 -262144 -1 -1 0 256;
#X obj 147 107 nbx 3 14 -99 99 0 0 /fx/gain/\$1/20 /fx/gain/\$1/20
20 0 -8 0 10 -262144 -1 -1 0 256;
#X obj 183 107 nbx 3 14 -99 99 0 0 /fx/gain/\$1/21 /fx/gain/\$1/21
21 0 -8 0 10 -262144 -1 -1 0 256;
#X obj 219 107 nbx 3 14 -99 99 0 0 /fx/gain/\$1/22 /fx/gain/\$1/22
22 0 -8 0 10 -262144 -1 -1 0 256;
#X obj 255 107 nbx 3 14 -99 99 0 0 /fx/gain/\$1/23 /fx/gain/\$1/23
23 0 -8 0 10 -262144 -1 -1 0 256;
#X obj 291 107 nbx 3 14 -99 99 0 0 /fx/gain/\$1/24 /fx/gain/\$1/24
24 0 -8 0 10 -262144 -1 -1 0 256;
#X restore 256 245 pd \$0-gain;
#X obj 119 170 s pd-\$0-gain;
#X connect 1 0 2 0;
#X connect 2 0 6 0;
#X coords 0 -1 1 1 107 14 2 100 100;
