#N canvas 205 33 886 689 10;
#X text 538 361 (c)2012 Marian Weger;
#X obj 548 128 inlet statelist;
#X obj 548 305 outlet statelist;
#X obj 53 914 outlet;
#X obj 53 72 list prepend 11;
#X obj 63 122 list prepend 12;
#X obj 93 272 list prepend 21;
#X obj 103 322 list prepend 22;
#X obj 53 884 list trim;
#X msg 651 150 1;
#X obj 651 128 loadbang;
#X obj 53 50 fx_gain_ctl matrix/\$1/11 \$2 \$3;
#X obj 63 100 fx_gain_ctl matrix/\$1/12 \$2 \$3;
#X obj 93 250 fx_gain_ctl matrix/\$1/21 \$2 \$3;
#X obj 103 300 fx_gain_ctl matrix/\$1/22 \$2 \$3;
#X obj 73 150 fx_gain_ctl matrix/\$1/13 \$2 \$3;
#X obj 73 172 list prepend 13;
#X obj 113 372 list prepend 23;
#X obj 113 350 fx_gain_ctl matrix/\$1/23 \$2 \$3;
#X obj 133 450 fx_gain_ctl matrix/\$1/31 \$2 \$3;
#X obj 133 472 list prepend 31;
#X obj 143 500 fx_gain_ctl matrix/\$1/32 \$2 \$3;
#X obj 143 522 list prepend 32;
#X obj 153 550 fx_gain_ctl matrix/\$1/33 \$2 \$3;
#X obj 153 572 list prepend 33;
#X text 40 12 fx_matrix_ctl_4 <name> <domain> <type>;
#X obj 83 200 fx_gain_ctl matrix/\$1/14 \$2 \$3;
#X obj 83 222 list prepend 14;
#X obj 123 400 fx_gain_ctl matrix/\$1/24 \$2 \$3;
#X obj 123 422 list prepend 24;
#X obj 163 600 fx_gain_ctl matrix/\$1/34 \$2 \$3;
#X obj 163 622 list prepend 34;
#X obj 173 650 fx_gain_ctl matrix/\$1/41 \$2 \$3;
#X obj 173 672 list prepend 41;
#X obj 182 700 fx_gain_ctl matrix/\$1/42 \$2 \$3;
#X obj 183 722 list prepend 42;
#X obj 193 750 fx_gain_ctl matrix/\$1/43 \$2 \$3;
#X obj 193 772 list prepend 43;
#X obj 203 800 fx_gain_ctl matrix/\$1/44 \$2 \$3;
#X obj 203 822 list prepend 44;
#X connect 1 0 2 0;
#X connect 4 0 8 0;
#X connect 5 0 8 0;
#X connect 6 0 8 0;
#X connect 7 0 8 0;
#X connect 8 0 3 0;
#X connect 9 0 2 0;
#X connect 10 0 9 0;
#X connect 11 0 4 0;
#X connect 12 0 5 0;
#X connect 13 0 6 0;
#X connect 14 0 7 0;
#X connect 15 0 16 0;
#X connect 16 0 8 0;
#X connect 17 0 8 0;
#X connect 18 0 17 0;
#X connect 19 0 20 0;
#X connect 20 0 8 0;
#X connect 21 0 22 0;
#X connect 22 0 8 0;
#X connect 23 0 24 0;
#X connect 24 0 8 0;
#X connect 26 0 27 0;
#X connect 27 0 8 0;
#X connect 28 0 29 0;
#X connect 29 0 8 0;
#X connect 30 0 31 0;
#X connect 31 0 8 0;
#X connect 32 0 33 0;
#X connect 33 0 8 0;
#X connect 34 0 35 0;
#X connect 35 0 8 0;
#X connect 36 0 37 0;
#X connect 37 0 8 0;
#X connect 38 0 39 0;
#X connect 39 0 8 0;
