#N canvas 342 22 567 400 10;
#X obj 64 49 inlet~;
#X obj 64 334 outlet~;
#X text 347 291 (c)2012 Marian Weger;
#X obj 64 191 fx_gain~;
#X obj 124 49 inlet~;
#X obj 79 271 fx_gain~;
#X obj 64 303 +~;
#X obj 109 168 r \$0-11;
#X obj 124 248 r \$0-12;
#X obj 184 334 outlet~;
#X obj 184 191 fx_gain~;
#X obj 199 271 fx_gain~;
#X obj 184 303 +~;
#X obj 229 168 r \$0-21;
#X obj 244 248 r \$0-22;
#X obj 359 80 route 11 12 21 22;
#X obj 359 166 s \$0-11;
#X obj 64 71 s~ \$0-1;
#X obj 124 71 s~ \$0-2;
#X obj 64 149 r~ \$0-1;
#X obj 79 219 r~ \$0-2;
#X obj 184 139 r~ \$0-1;
#X obj 199 219 r~ \$0-2;
#X obj 383 146 s \$0-12;
#X obj 408 126 s \$0-21;
#X obj 433 106 s \$0-22;
#X obj 359 58 inlet ctl;
#X obj 408 333 outlet dummy;
#X text 38 15 fx_matrix_2~;
#X connect 0 0 17 0;
#X connect 3 0 6 0;
#X connect 4 0 18 0;
#X connect 5 0 6 1;
#X connect 6 0 1 0;
#X connect 7 0 3 1;
#X connect 8 0 5 1;
#X connect 10 0 12 0;
#X connect 11 0 12 1;
#X connect 12 0 9 0;
#X connect 13 0 10 1;
#X connect 14 0 11 1;
#X connect 15 0 16 0;
#X connect 15 1 23 0;
#X connect 15 2 24 0;
#X connect 15 3 25 0;
#X connect 19 0 3 0;
#X connect 20 0 5 0;
#X connect 21 0 10 0;
#X connect 22 0 11 0;
#X connect 26 0 15 0;
