#N canvas 1621 100 886 689 10;
#X obj 548 128 inlet statelist;
#X obj 548 305 outlet statelist;
#X obj 37 559 outlet, f 7;
#X msg 651 150 1;
#X obj 651 128 loadbang;
#X text 40 12 fx_matrix_48_ctl <name> <domain> <erbname>;
#X obj 51 198 r /fx/matrix/\$1/ctl;
#X text 537 361 (c)2015 Marian Weger;
#X connect 0 0 1 0;
#X connect 3 0 1 0;
#X connect 4 0 3 0;
#X connect 6 0 2 0;
