#N canvas 205 33 536 425 10;
#X text 308 361 (c)2012 Marian Weger;
#X obj 318 128 inlet statelist;
#X obj 318 305 outlet statelist;
#X obj 53 364 outlet;
#X text 40 12 fx_matrix_ctl_2 <name> <domain> <type>;
#X obj 53 152 list prepend 11;
#X obj 73 202 list prepend 12;
#X obj 93 252 list prepend 21;
#X obj 113 302 list prepend 22;
#X obj 53 334 list trim;
#X msg 421 150 1;
#X obj 421 128 loadbang;
#X obj 53 130 fx_gain_ctl matrix/\$1/11 \$2 \$3;
#X obj 73 180 fx_gain_ctl matrix/\$1/12 \$2 \$3;
#X obj 93 230 fx_gain_ctl matrix/\$1/21 \$2 \$3;
#X obj 113 280 fx_gain_ctl matrix/\$1/22 \$2 \$3;
#X connect 1 0 2 0;
#X connect 5 0 9 0;
#X connect 6 0 9 0;
#X connect 7 0 9 0;
#X connect 8 0 9 0;
#X connect 9 0 3 0;
#X connect 10 0 2 0;
#X connect 11 0 10 0;
#X connect 12 0 5 0;
#X connect 13 0 6 0;
#X connect 14 0 7 0;
#X connect 15 0 8 0;
