#N canvas 300 22 896 711 10;
#X obj 64 49 inlet~;
#X obj 64 524 outlet~;
#X text 458 409 (c)2012 Marian Weger;
#X obj 64 191 fx_gain~;
#X obj 124 49 inlet~;
#X obj 79 271 fx_gain~;
#X obj 64 303 +~;
#X obj 109 168 r \$0-11;
#X obj 124 248 r \$0-12;
#X obj 184 524 outlet~;
#X obj 184 191 fx_gain~;
#X obj 199 271 fx_gain~;
#X obj 184 303 +~;
#X obj 229 168 r \$0-21;
#X obj 244 248 r \$0-22;
#X obj 536 355 s \$0-11;
#X obj 64 71 s~ \$0-1;
#X obj 124 71 s~ \$0-2;
#X obj 64 139 r~ \$0-1;
#X obj 79 219 r~ \$0-2;
#X obj 184 139 r~ \$0-1;
#X obj 199 219 r~ \$0-2;
#X obj 556 335 s \$0-12;
#X obj 536 97 inlet ctl;
#X obj 519 451 outlet dummy;
#X obj 184 49 inlet~;
#X obj 184 71 s~ \$0-3;
#X obj 79 381 fx_gain~;
#X obj 64 413 +~;
#X obj 199 381 fx_gain~;
#X obj 184 413 +~;
#X obj 79 329 r~ \$0-3;
#X obj 199 329 r~ \$0-3;
#X obj 124 358 r \$0-13;
#X obj 244 358 r \$0-23;
#X obj 304 524 outlet~;
#X obj 304 191 fx_gain~;
#X obj 319 271 fx_gain~;
#X obj 304 303 +~;
#X obj 304 139 r~ \$0-1;
#X obj 319 219 r~ \$0-2;
#X obj 319 381 fx_gain~;
#X obj 304 413 +~;
#X obj 319 329 r~ \$0-3;
#X obj 349 168 r \$0-31;
#X obj 364 248 r \$0-32;
#X obj 364 358 r \$0-33;
#X obj 536 119 route 11 12 13 21 22 23 31 32 33;
#X obj 577 315 s \$0-13;
#X obj 598 295 s \$0-21;
#X obj 614 275 s \$0-22;
#X obj 638 255 s \$0-23;
#X obj 663 235 s \$0-31;
#X obj 688 215 s \$0-32;
#X obj 708 195 s \$0-33;
#X text 38 15 fx_matrix_3~;
#X connect 0 0 16 0;
#X connect 3 0 6 0;
#X connect 4 0 17 0;
#X connect 5 0 6 1;
#X connect 6 0 28 0;
#X connect 7 0 3 1;
#X connect 8 0 5 1;
#X connect 10 0 12 0;
#X connect 11 0 12 1;
#X connect 12 0 30 0;
#X connect 13 0 10 1;
#X connect 14 0 11 1;
#X connect 18 0 3 0;
#X connect 19 0 5 0;
#X connect 20 0 10 0;
#X connect 21 0 11 0;
#X connect 23 0 47 0;
#X connect 25 0 26 0;
#X connect 27 0 28 1;
#X connect 28 0 1 0;
#X connect 29 0 30 1;
#X connect 30 0 9 0;
#X connect 31 0 27 0;
#X connect 32 0 29 0;
#X connect 33 0 27 1;
#X connect 34 0 29 1;
#X connect 36 0 38 0;
#X connect 37 0 38 1;
#X connect 38 0 42 0;
#X connect 39 0 36 0;
#X connect 40 0 37 0;
#X connect 41 0 42 1;
#X connect 42 0 35 0;
#X connect 43 0 41 0;
#X connect 44 0 36 1;
#X connect 45 0 37 1;
#X connect 46 0 41 1;
#X connect 47 0 15 0;
#X connect 47 1 22 0;
#X connect 47 2 48 0;
#X connect 47 3 49 0;
#X connect 47 4 50 0;
#X connect 47 5 51 0;
#X connect 47 6 52 0;
#X connect 47 7 53 0;
#X connect 47 8 54 0;
