#N canvas 1280 51 1280 947 10;
#X obj 64 49 inlet~;
#X obj 74 362 fx_gain~;
#X obj 124 49 inlet~;
#X obj 89 442 fx_gain~;
#X obj 74 474 +~;
#X obj 119 339 r \$0-11;
#X obj 204 362 fx_gain~;
#X obj 219 442 fx_gain~;
#X obj 204 474 +~;
#X obj 64 71 s~ \$0-1;
#X obj 124 71 s~ \$0-2;
#X obj 74 310 r~ \$0-1;
#X obj 89 390 r~ \$0-2;
#X obj 204 310 r~ \$0-1;
#X obj 219 390 r~ \$0-2;
#X obj 1222 107 inlet ctl;
#X obj 1155 1139 outlet dummy;
#X obj 184 49 inlet~;
#X obj 184 71 s~ \$0-3;
#X obj 89 552 fx_gain~;
#X obj 74 584 +~;
#X obj 219 552 fx_gain~;
#X obj 204 584 +~;
#X obj 89 500 r~ \$0-3;
#X obj 219 500 r~ \$0-3;
#X obj 334 362 fx_gain~;
#X obj 349 442 fx_gain~;
#X obj 334 474 +~;
#X obj 334 310 r~ \$0-1;
#X obj 349 390 r~ \$0-2;
#X obj 349 552 fx_gain~;
#X obj 334 584 +~;
#X obj 349 500 r~ \$0-3;
#X obj 244 49 inlet~;
#X obj 244 71 s~ \$0-4;
#X obj 464 362 fx_gain~;
#X obj 479 442 fx_gain~;
#X obj 464 474 +~;
#X obj 464 310 r~ \$0-1;
#X obj 479 390 r~ \$0-2;
#X obj 479 552 fx_gain~;
#X obj 464 584 +~;
#X obj 479 500 r~ \$0-3;
#X obj 89 662 fx_gain~;
#X obj 74 694 +~;
#X obj 219 662 fx_gain~;
#X obj 204 694 +~;
#X obj 349 662 fx_gain~;
#X obj 334 694 +~;
#X obj 479 662 fx_gain~;
#X obj 464 694 +~;
#X obj 89 610 r~ \$0-4;
#X obj 219 610 r~ \$0-4;
#X obj 349 610 r~ \$0-4;
#X obj 479 610 r~ \$0-4;
#X obj 302 49 inlet~;
#X obj 362 49 inlet~;
#X obj 422 49 inlet~;
#X obj 482 49 inlet~;
#X obj 302 71 s~ \$0-5;
#X obj 362 71 s~ \$0-6;
#X obj 422 71 s~ \$0-7;
#X obj 482 71 s~ \$0-8;
#X text 38 15 fx_matrix_8~;
#X obj 594 362 fx_gain~;
#X obj 609 442 fx_gain~;
#X obj 594 474 +~;
#X obj 724 362 fx_gain~;
#X obj 739 442 fx_gain~;
#X obj 724 474 +~;
#X obj 594 310 r~ \$0-1;
#X obj 609 390 r~ \$0-2;
#X obj 724 310 r~ \$0-1;
#X obj 739 390 r~ \$0-2;
#X obj 609 552 fx_gain~;
#X obj 594 584 +~;
#X obj 739 552 fx_gain~;
#X obj 724 584 +~;
#X obj 609 500 r~ \$0-3;
#X obj 739 500 r~ \$0-3;
#X obj 854 362 fx_gain~;
#X obj 869 442 fx_gain~;
#X obj 854 474 +~;
#X obj 854 310 r~ \$0-1;
#X obj 869 390 r~ \$0-2;
#X obj 869 552 fx_gain~;
#X obj 854 584 +~;
#X obj 869 500 r~ \$0-3;
#X obj 984 362 fx_gain~;
#X obj 999 442 fx_gain~;
#X obj 984 474 +~;
#X obj 984 310 r~ \$0-1;
#X obj 999 390 r~ \$0-2;
#X obj 999 552 fx_gain~;
#X obj 984 584 +~;
#X obj 999 500 r~ \$0-3;
#X obj 609 662 fx_gain~;
#X obj 594 694 +~;
#X obj 739 662 fx_gain~;
#X obj 724 694 +~;
#X obj 869 662 fx_gain~;
#X obj 854 694 +~;
#X obj 999 662 fx_gain~;
#X obj 984 694 +~;
#X obj 609 610 r~ \$0-4;
#X obj 739 610 r~ \$0-4;
#X obj 869 610 r~ \$0-4;
#X obj 999 610 r~ \$0-4;
#X obj 249 339 r \$0-21;
#X obj 379 339 r \$0-31;
#X obj 510 339 r \$0-41;
#X obj 639 339 r \$0-51;
#X obj 769 339 r \$0-61;
#X obj 899 339 r \$0-71;
#X obj 1029 339 r \$0-81;
#X obj 134 419 r \$0-12;
#X obj 264 419 r \$0-22;
#X obj 394 419 r \$0-32;
#X obj 524 419 r \$0-42;
#X obj 655 419 r \$0-52;
#X obj 784 419 r \$0-62;
#X obj 914 419 r \$0-72;
#X obj 1044 419 r \$0-82;
#X obj 134 529 r \$0-13;
#X obj 264 529 r \$0-23;
#X obj 394 529 r \$0-33;
#X obj 524 529 r \$0-43;
#X obj 654 529 r \$0-53;
#X obj 784 529 r \$0-63;
#X obj 914 529 r \$0-73;
#X obj 1044 529 r \$0-83;
#X obj 132 638 r \$0-14;
#X obj 264 639 r \$0-24;
#X obj 394 638 r \$0-34;
#X obj 524 639 r \$0-44;
#X obj 654 639 r \$0-54;
#X obj 784 639 r \$0-64;
#X obj 914 639 r \$0-74;
#X obj 1044 639 r \$0-84;
#X obj 89 772 fx_gain~;
#X obj 74 804 +~;
#X obj 219 772 fx_gain~;
#X obj 204 804 +~;
#X obj 89 882 fx_gain~;
#X obj 74 914 +~;
#X obj 219 882 fx_gain~;
#X obj 204 914 +~;
#X obj 349 772 fx_gain~;
#X obj 334 804 +~;
#X obj 349 882 fx_gain~;
#X obj 334 914 +~;
#X obj 479 772 fx_gain~;
#X obj 464 804 +~;
#X obj 479 882 fx_gain~;
#X obj 464 914 +~;
#X obj 89 992 fx_gain~;
#X obj 74 1024 +~;
#X obj 219 992 fx_gain~;
#X obj 204 1024 +~;
#X obj 349 992 fx_gain~;
#X obj 334 1024 +~;
#X obj 479 992 fx_gain~;
#X obj 464 1024 +~;
#X obj 609 772 fx_gain~;
#X obj 594 804 +~;
#X obj 739 772 fx_gain~;
#X obj 724 804 +~;
#X obj 609 882 fx_gain~;
#X obj 594 914 +~;
#X obj 739 882 fx_gain~;
#X obj 724 914 +~;
#X obj 869 772 fx_gain~;
#X obj 854 804 +~;
#X obj 869 882 fx_gain~;
#X obj 854 914 +~;
#X obj 999 772 fx_gain~;
#X obj 984 804 +~;
#X obj 999 882 fx_gain~;
#X obj 984 914 +~;
#X obj 609 992 fx_gain~;
#X obj 594 1024 +~;
#X obj 739 992 fx_gain~;
#X obj 724 1024 +~;
#X obj 869 992 fx_gain~;
#X obj 854 1024 +~;
#X obj 999 992 fx_gain~;
#X obj 984 1024 +~;
#X obj 89 1102 fx_gain~;
#X obj 74 1134 +~;
#X obj 219 1102 fx_gain~;
#X obj 204 1134 +~;
#X obj 349 1102 fx_gain~;
#X obj 334 1134 +~;
#X obj 479 1102 fx_gain~;
#X obj 464 1134 +~;
#X obj 609 1102 fx_gain~;
#X obj 594 1134 +~;
#X obj 739 1102 fx_gain~;
#X obj 724 1134 +~;
#X obj 869 1102 fx_gain~;
#X obj 854 1134 +~;
#X obj 999 1102 fx_gain~;
#X obj 984 1134 +~;
#X obj 74 1156 outlet~;
#X obj 204 1156 outlet~;
#X obj 334 1156 outlet~;
#X obj 464 1156 outlet~;
#X obj 594 1156 outlet~;
#X obj 724 1156 outlet~;
#X obj 854 1156 outlet~;
#X obj 984 1156 outlet~;
#X obj 89 720 r~ \$0-5;
#X obj 219 720 r~ \$0-5;
#X obj 349 720 r~ \$0-5;
#X obj 479 721 r~ \$0-5;
#X obj 609 720 r~ \$0-5;
#X obj 739 720 r~ \$0-5;
#X obj 869 720 r~ \$0-5;
#X obj 999 720 r~ \$0-5;
#X obj 89 830 r~ \$0-6;
#X obj 219 830 r~ \$0-6;
#X obj 349 830 r~ \$0-6;
#X obj 479 830 r~ \$0-6;
#X obj 609 830 r~ \$0-6;
#X obj 739 830 r~ \$0-6;
#X obj 869 830 r~ \$0-6;
#X obj 999 830 r~ \$0-6;
#X obj 89 940 r~ \$0-7;
#X obj 219 940 r~ \$0-7;
#X obj 349 940 r~ \$0-7;
#X obj 479 940 r~ \$0-7;
#X obj 609 940 r~ \$0-7;
#X obj 739 940 r~ \$0-7;
#X obj 869 940 r~ \$0-7;
#X obj 999 940 r~ \$0-7;
#X obj 89 1050 r~ \$0-8;
#X obj 219 1050 r~ \$0-8;
#X obj 349 1050 r~ \$0-8;
#X obj 479 1050 r~ \$0-8;
#X obj 607 1049 r~ \$0-8;
#X obj 737 1050 r~ \$0-8;
#X obj 869 1050 r~ \$0-8;
#X obj 999 1050 r~ \$0-8;
#X obj 134 749 r \$0-15;
#X obj 134 859 r \$0-16;
#X obj 132 968 r \$0-17;
#X obj 132 1078 r \$0-18;
#X obj 264 749 r \$0-25;
#X obj 264 859 r \$0-26;
#X obj 264 969 r \$0-27;
#X obj 264 1079 r \$0-28;
#X obj 394 749 r \$0-35;
#X obj 394 859 r \$0-36;
#X obj 394 968 r \$0-37;
#X obj 394 1078 r \$0-38;
#X obj 525 749 r \$0-45;
#X obj 524 859 r \$0-46;
#X obj 524 969 r \$0-47;
#X obj 524 1079 r \$0-48;
#X obj 655 749 r \$0-55;
#X obj 654 859 r \$0-56;
#X obj 654 969 r \$0-57;
#X obj 654 1079 r \$0-58;
#X obj 784 749 r \$0-65;
#X obj 784 859 r \$0-66;
#X obj 784 969 r \$0-67;
#X obj 784 1079 r \$0-68;
#X obj 914 749 r \$0-75;
#X obj 914 859 r \$0-76;
#X obj 914 969 r \$0-77;
#X obj 914 1079 r \$0-78;
#X obj 1044 749 r \$0-85;
#X obj 1044 859 r \$0-86;
#X obj 1044 969 r \$0-87;
#X obj 1044 1079 r \$0-88;
#X text 1295 1136 (c)2015 Marian Weger;
#X obj 1236 322 s;
#X obj 1271 279 f;
#X obj 1222 132 unpack f f;
#X obj 1222 233 t b a;
#X obj 1222 159 pack f \$0;
#X msg 1222 181 \$2-\$1;
#X obj 1222 203 symbol;
#X connect 0 0 9 0;
#X connect 1 0 4 0;
#X connect 2 0 10 0;
#X connect 3 0 4 1;
#X connect 4 0 20 0;
#X connect 5 0 1 1;
#X connect 6 0 8 0;
#X connect 7 0 8 1;
#X connect 8 0 22 0;
#X connect 11 0 1 0;
#X connect 12 0 3 0;
#X connect 13 0 6 0;
#X connect 14 0 7 0;
#X connect 15 0 278 0;
#X connect 17 0 18 0;
#X connect 19 0 20 1;
#X connect 20 0 44 0;
#X connect 21 0 22 1;
#X connect 22 0 46 0;
#X connect 23 0 19 0;
#X connect 24 0 21 0;
#X connect 25 0 27 0;
#X connect 26 0 27 1;
#X connect 27 0 31 0;
#X connect 28 0 25 0;
#X connect 29 0 26 0;
#X connect 30 0 31 1;
#X connect 31 0 48 0;
#X connect 32 0 30 0;
#X connect 33 0 34 0;
#X connect 35 0 37 0;
#X connect 36 0 37 1;
#X connect 37 0 41 0;
#X connect 38 0 35 0;
#X connect 39 0 36 0;
#X connect 40 0 41 1;
#X connect 41 0 50 0;
#X connect 42 0 40 0;
#X connect 43 0 44 1;
#X connect 44 0 140 0;
#X connect 45 0 46 1;
#X connect 46 0 142 0;
#X connect 47 0 48 1;
#X connect 48 0 148 0;
#X connect 49 0 50 1;
#X connect 50 0 152 0;
#X connect 51 0 43 0;
#X connect 52 0 45 0;
#X connect 53 0 47 0;
#X connect 54 0 49 0;
#X connect 55 0 59 0;
#X connect 56 0 60 0;
#X connect 57 0 61 0;
#X connect 58 0 62 0;
#X connect 64 0 66 0;
#X connect 65 0 66 1;
#X connect 66 0 75 0;
#X connect 67 0 69 0;
#X connect 68 0 69 1;
#X connect 69 0 77 0;
#X connect 70 0 64 0;
#X connect 71 0 65 0;
#X connect 72 0 67 0;
#X connect 73 0 68 0;
#X connect 74 0 75 1;
#X connect 75 0 97 0;
#X connect 76 0 77 1;
#X connect 77 0 99 0;
#X connect 78 0 74 0;
#X connect 79 0 76 0;
#X connect 80 0 82 0;
#X connect 81 0 82 1;
#X connect 82 0 86 0;
#X connect 83 0 80 0;
#X connect 84 0 81 0;
#X connect 85 0 86 1;
#X connect 86 0 101 0;
#X connect 87 0 85 0;
#X connect 88 0 90 0;
#X connect 89 0 90 1;
#X connect 90 0 94 0;
#X connect 91 0 88 0;
#X connect 92 0 89 0;
#X connect 93 0 94 1;
#X connect 94 0 103 0;
#X connect 95 0 93 0;
#X connect 96 0 97 1;
#X connect 97 0 164 0;
#X connect 98 0 99 1;
#X connect 99 0 166 0;
#X connect 100 0 101 1;
#X connect 101 0 172 0;
#X connect 102 0 103 1;
#X connect 103 0 176 0;
#X connect 104 0 96 0;
#X connect 105 0 98 0;
#X connect 106 0 100 0;
#X connect 107 0 102 0;
#X connect 108 0 6 1;
#X connect 109 0 25 1;
#X connect 110 0 35 1;
#X connect 111 0 64 1;
#X connect 112 0 67 1;
#X connect 113 0 80 1;
#X connect 114 0 88 1;
#X connect 115 0 3 1;
#X connect 116 0 7 1;
#X connect 117 0 26 1;
#X connect 118 0 36 1;
#X connect 119 0 65 1;
#X connect 120 0 68 1;
#X connect 121 0 81 1;
#X connect 122 0 89 1;
#X connect 123 0 19 1;
#X connect 124 0 21 1;
#X connect 125 0 30 1;
#X connect 126 0 40 1;
#X connect 127 0 74 1;
#X connect 128 0 76 1;
#X connect 129 0 85 1;
#X connect 130 0 93 1;
#X connect 131 0 43 1;
#X connect 132 0 45 1;
#X connect 133 0 47 1;
#X connect 134 0 49 1;
#X connect 135 0 96 1;
#X connect 136 0 98 1;
#X connect 137 0 100 1;
#X connect 138 0 102 1;
#X connect 139 0 140 1;
#X connect 140 0 144 0;
#X connect 141 0 142 1;
#X connect 142 0 146 0;
#X connect 143 0 144 1;
#X connect 144 0 156 0;
#X connect 145 0 146 1;
#X connect 146 0 158 0;
#X connect 147 0 148 1;
#X connect 148 0 150 0;
#X connect 149 0 150 1;
#X connect 150 0 160 0;
#X connect 151 0 152 1;
#X connect 152 0 154 0;
#X connect 153 0 154 1;
#X connect 154 0 162 0;
#X connect 155 0 156 1;
#X connect 156 0 188 0;
#X connect 157 0 158 1;
#X connect 158 0 190 0;
#X connect 159 0 160 1;
#X connect 160 0 192 0;
#X connect 161 0 162 1;
#X connect 162 0 194 0;
#X connect 163 0 164 1;
#X connect 164 0 168 0;
#X connect 165 0 166 1;
#X connect 166 0 170 0;
#X connect 167 0 168 1;
#X connect 168 0 180 0;
#X connect 169 0 170 1;
#X connect 170 0 182 0;
#X connect 171 0 172 1;
#X connect 172 0 174 0;
#X connect 173 0 174 1;
#X connect 174 0 184 0;
#X connect 175 0 176 1;
#X connect 176 0 178 0;
#X connect 177 0 178 1;
#X connect 178 0 186 0;
#X connect 179 0 180 1;
#X connect 180 0 196 0;
#X connect 181 0 182 1;
#X connect 182 0 198 0;
#X connect 183 0 184 1;
#X connect 184 0 200 0;
#X connect 185 0 186 1;
#X connect 186 0 202 0;
#X connect 187 0 188 1;
#X connect 188 0 203 0;
#X connect 189 0 190 1;
#X connect 190 0 204 0;
#X connect 191 0 192 1;
#X connect 192 0 205 0;
#X connect 193 0 194 1;
#X connect 194 0 206 0;
#X connect 195 0 196 1;
#X connect 196 0 207 0;
#X connect 197 0 198 1;
#X connect 198 0 208 0;
#X connect 199 0 200 1;
#X connect 200 0 209 0;
#X connect 201 0 202 1;
#X connect 202 0 210 0;
#X connect 211 0 139 0;
#X connect 212 0 141 0;
#X connect 213 0 147 0;
#X connect 214 0 151 0;
#X connect 215 0 163 0;
#X connect 216 0 165 0;
#X connect 217 0 171 0;
#X connect 218 0 175 0;
#X connect 219 0 143 0;
#X connect 220 0 145 0;
#X connect 221 0 149 0;
#X connect 222 0 153 0;
#X connect 223 0 167 0;
#X connect 224 0 169 0;
#X connect 225 0 173 0;
#X connect 226 0 177 0;
#X connect 227 0 155 0;
#X connect 228 0 157 0;
#X connect 229 0 159 0;
#X connect 230 0 161 0;
#X connect 231 0 179 0;
#X connect 232 0 181 0;
#X connect 233 0 183 0;
#X connect 234 0 185 0;
#X connect 235 0 187 0;
#X connect 236 0 189 0;
#X connect 237 0 191 0;
#X connect 238 0 193 0;
#X connect 239 0 195 0;
#X connect 240 0 197 0;
#X connect 241 0 199 0;
#X connect 242 0 201 0;
#X connect 243 0 139 1;
#X connect 244 0 143 1;
#X connect 245 0 155 1;
#X connect 246 0 187 1;
#X connect 247 0 141 1;
#X connect 248 0 145 1;
#X connect 249 0 157 1;
#X connect 250 0 189 1;
#X connect 251 0 147 1;
#X connect 252 0 149 1;
#X connect 253 0 159 1;
#X connect 254 0 191 1;
#X connect 255 0 151 1;
#X connect 256 0 153 1;
#X connect 257 0 161 1;
#X connect 258 0 193 1;
#X connect 259 0 163 1;
#X connect 260 0 167 1;
#X connect 261 0 179 1;
#X connect 262 0 195 1;
#X connect 263 0 165 1;
#X connect 264 0 169 1;
#X connect 265 0 181 1;
#X connect 266 0 197 1;
#X connect 267 0 171 1;
#X connect 268 0 173 1;
#X connect 269 0 183 1;
#X connect 270 0 199 1;
#X connect 271 0 175 1;
#X connect 272 0 177 1;
#X connect 273 0 185 1;
#X connect 274 0 201 1;
#X connect 277 0 276 0;
#X connect 278 0 280 0;
#X connect 278 1 277 1;
#X connect 279 0 277 0;
#X connect 279 1 276 1;
#X connect 280 0 281 0;
#X connect 281 0 282 0;
#X connect 282 0 279 0;
