#N canvas 515 163 520 452 10;
#X obj 57 126 == 0;
#X obj 179 59 inlet statelist;
#X obj 179 396 outlet statelist;
#X msg 283 165 1;
#N canvas 706 233 269 172 init 0;
#X obj 32 29 loadbang;
#X obj 32 51 t b b;
#X obj 150 111 outlet;
#X obj 32 73 f \$3;
#X obj 32 111 s /fx/mute/\$1;
#X connect 0 0 1 0;
#X connect 1 0 3 0;
#X connect 1 1 2 0;
#X connect 3 0 4 0;
#X restore 283 139 pd init;
#N canvas 709 325 305 197 ds 0;
#X obj 79 87 ds_reg \$2 /fx/mute/\$1 nomorph;
#X restore 357 267 pd ds;
#N canvas 568 453 305 197 osc 0;
#X obj 79 87 osc_bi \$2 /fx/mute/\$1;
#X restore 357 287 pd osc;
#X obj 57 398 outlet ctl;
#X obj 57 102 r /fx/mute/\$1;
#X text 23 23 fx_mute_ctl <name> <domain> (<init value>);
#X connect 0 0 7 0;
#X connect 1 0 2 0;
#X connect 3 0 2 0;
#X connect 4 0 3 0;
#X connect 8 0 0 0;
