#N canvas 0 22 536 425 10;
#X text 288 331 (c)2012 Marian Weger;
#X obj 298 128 inlet statelist;
#X obj 298 275 outlet statelist;
#N canvas 140 158 714 479 ctl 0;
#X obj 64 435 outlet;
#X obj 64 312 list trim;
#X obj 74 108 r /fx/pitchshift/\$1/transpose;
#X obj 74 130 list prepend transpose;
#X obj 84 158 r /fx/pitchshift/\$1/state;
#X obj 84 180 list prepend state;
#X obj 94 208 r /fx/pitchshift/\$1/window;
#X obj 94 230 list prepend window;
#X connect 1 0 0 0;
#X connect 2 0 3 0;
#X connect 3 0 1 0;
#X connect 4 0 5 0;
#X connect 5 0 1 0;
#X connect 6 0 7 0;
#X connect 7 0 1 0;
#X restore 60 162 pd ctl;
#X obj 60 314 outlet;
#X text 40 12 fx_pitchshift_ctl <name> <domain>;
#N canvas 764 352 450 300 ds 0;
#X obj 102 117 ds_reg \$2 /fx/pitchshift/\$1/transpose;
#X obj 102 147 ds_reg \$2 /fx/pitchshift/\$1/state;
#X obj 102 207 # ds_reg \$2 /fx/pitchshift/\$1/window;
#X restore 199 239 pd ds;
#N canvas 764 352 450 300 osc 0;
#X obj 102 127 osc_bi \$2 /fx/pitchshift/\$1/transpose;
#X obj 102 157 osc_bi \$2 /fx/pitchshift/\$1/state;
#X obj 102 187 osc_bi \$2 /fx/pitchshift/\$1/window;
#X restore 199 259 pd osc;
#N canvas 111 402 450 300 init 1;
#X obj 136 41 loadbang;
#X obj 136 79 t b b;
#X msg 368 145 1;
#X obj 368 167 outlet;
#X obj 136 101 f \$3;
#X obj 136 123 sel 0;
#X msg 136 145 1024;
#X obj 136 169 list prepend \$1 \$2;
#X msg 136 201 \; /fx/pitchshift/\$1/state 0 \; /fx/pitchshift/\$1/transpose
0 \; /fx/pitchshift/\$1/window \$3 \;;
#X connect 0 0 1 0;
#X connect 1 0 4 0;
#X connect 1 1 2 0;
#X connect 2 0 3 0;
#X connect 4 0 5 0;
#X connect 5 0 6 0;
#X connect 5 1 7 0;
#X connect 6 0 7 0;
#X connect 7 0 8 0;
#X restore 421 130 pd init;
#X connect 1 0 2 0;
#X connect 3 0 4 0;
#X connect 8 0 2 0;
