#N canvas 377 216 542 424 10;
#X obj 64 49 inlet~;
#X obj 64 334 outlet~;
#X text 96 392 (c)2012 Marian Weger;
#X obj 400 64 inlet;
#X obj 301 64 loadbang;
#X obj 301 86 f \$2;
#X obj 301 166 <= 0;
#X obj 399 271 outlet;
#X obj 114 49 inlet~;
#X obj 114 334 outlet~;
#X obj 156 224 fx_gain_2~;
#N canvas 572 77 674 623 delay_2 1;
#X obj 71 530 outlet~;
#X obj 71 312 *~;
#X obj 71 72 inlet~;
#X obj 464 81 inlet;
#X obj 201 530 outlet~;
#X obj 201 312 *~;
#X obj 201 72 inlet~;
#X obj 71 341 delwrite~ \$0-dl1 \$1;
#X obj 201 341 delwrite~ \$0-dl2 \$1;
#X obj 502 493 outlet;
#X obj 483 326 clip 0 999;
#X obj 540 277 loadbang;
#X obj 250 213 pack 0 5;
#X obj 250 235 line~;
#X obj 318 232 switch~;
#X obj 318 182 change;
#X obj 318 206 1del0 15;
#X obj 318 160 > 0;
#X obj 540 299 f \$1;
#X obj 483 348 pack 0 5;
#X obj 483 370 line~;
#X obj 201 496 vd~ \$0-dl2 0;
#X obj 71 496 vd~ \$0-dl1 0;
#X obj 464 114 t f f;
#X connect 1 0 7 0;
#X connect 2 0 1 0;
#X connect 3 0 23 0;
#X connect 5 0 8 0;
#X connect 6 0 5 0;
#X connect 10 0 19 0;
#X connect 11 0 18 0;
#X connect 12 0 13 0;
#X connect 13 0 5 1;
#X connect 13 0 1 1;
#X connect 15 0 16 0;
#X connect 16 0 14 0;
#X connect 17 0 15 0;
#X connect 17 0 12 0;
#X connect 18 0 10 2;
#X connect 19 0 20 0;
#X connect 20 0 21 0;
#X connect 20 0 22 0;
#X connect 21 0 4 0;
#X connect 22 0 0 0;
#X connect 23 0 17 0;
#X connect 23 1 10 0;
#X restore 64 224 pd delay_2;
#X text 40 12 fx_vdelay_2~ <max delay time> (<delay time>);
#X connect 0 0 11 0;
#X connect 0 0 10 0;
#X connect 3 0 11 2;
#X connect 3 0 6 0;
#X connect 4 0 5 0;
#X connect 5 0 11 2;
#X connect 5 0 6 0;
#X connect 6 0 10 2;
#X connect 8 0 11 1;
#X connect 8 0 10 1;
#X connect 10 0 1 0;
#X connect 10 1 9 0;
#X connect 11 0 1 0;
#X connect 11 1 9 0;
