#N canvas 377 216 542 424 10;
#X obj 64 49 inlet~;
#X obj 64 334 outlet~;
#X text 96 392 (c)2012 Marian Weger;
#X obj 480 64 inlet;
#X obj 381 64 loadbang;
#X obj 381 86 f \$2;
#X obj 381 166 <= 0;
#X obj 479 271 outlet;
#X obj 114 49 inlet~;
#X obj 114 334 outlet~;
#X obj 164 49 inlet~;
#X obj 164 334 outlet~;
#X obj 214 49 inlet~;
#X obj 214 334 outlet~;
#X obj 264 49 inlet~;
#X obj 264 334 outlet~;
#X obj 314 49 inlet~;
#X obj 314 334 outlet~;
#N canvas 91 83 1085 618 delay_6 1;
#X obj 71 540 outlet~;
#X obj 71 312 *~;
#X obj 814 184 pack 0 5;
#X obj 814 206 line~;
#X obj 71 72 inlet~;
#X obj 875 222 switch~;
#X obj 875 172 change;
#X obj 875 196 1del0 15;
#X obj 875 150 > 0;
#X obj 904 71 inlet;
#X obj 201 540 outlet~;
#X obj 201 312 *~;
#X obj 201 72 inlet~;
#X obj 71 341 delwrite~ \$0-dl1 \$1;
#X obj 201 341 delwrite~ \$0-dl2 \$1;
#X obj 942 543 outlet;
#X obj 331 540 outlet~;
#X obj 331 312 *~;
#X obj 331 72 inlet~;
#X obj 331 341 delwrite~ \$0-dl3 \$1;
#X obj 461 540 outlet~;
#X obj 461 312 *~;
#X obj 461 72 inlet~;
#X obj 461 341 delwrite~ \$0-dl4 \$1;
#X obj 591 540 outlet~;
#X obj 591 312 *~;
#X obj 591 72 inlet~;
#X obj 591 341 delwrite~ \$0-dl5 \$1;
#X obj 943 306 clip 0 999;
#X obj 1000 257 loadbang;
#X obj 1000 279 f \$1;
#X obj 943 328 pack 0 5;
#X obj 943 426 line~;
#X obj 71 506 vd~ \$0-dl1 0;
#X obj 201 506 vd~ \$0-dl2 0;
#X obj 331 506 vd~ \$0-dl3 0;
#X obj 461 506 vd~ \$0-dl4 0;
#X obj 591 506 vd~ \$0-dl5 0;
#X obj 721 540 outlet~;
#X obj 721 312 *~;
#X obj 721 72 inlet~;
#X obj 721 506 vd~ \$0-dl6 0;
#X obj 721 341 delwrite~ \$0-dl6 \$1;
#X obj 904 104 t f f;
#X connect 1 0 13 0;
#X connect 2 0 3 0;
#X connect 3 0 1 1;
#X connect 3 0 11 1;
#X connect 3 0 17 1;
#X connect 3 0 21 1;
#X connect 3 0 25 1;
#X connect 3 0 39 1;
#X connect 4 0 1 0;
#X connect 6 0 7 0;
#X connect 7 0 5 0;
#X connect 8 0 6 0;
#X connect 8 0 2 0;
#X connect 9 0 43 0;
#X connect 11 0 14 0;
#X connect 12 0 11 0;
#X connect 17 0 19 0;
#X connect 18 0 17 0;
#X connect 21 0 23 0;
#X connect 22 0 21 0;
#X connect 25 0 27 0;
#X connect 26 0 25 0;
#X connect 28 0 31 0;
#X connect 29 0 30 0;
#X connect 30 0 28 2;
#X connect 31 0 32 0;
#X connect 32 0 33 0;
#X connect 32 0 34 0;
#X connect 32 0 35 0;
#X connect 32 0 36 0;
#X connect 32 0 37 0;
#X connect 32 0 41 0;
#X connect 33 0 0 0;
#X connect 34 0 10 0;
#X connect 35 0 16 0;
#X connect 36 0 20 0;
#X connect 37 0 24 0;
#X connect 39 0 42 0;
#X connect 40 0 39 0;
#X connect 41 0 38 0;
#X connect 43 0 8 0;
#X connect 43 1 28 0;
#X restore 64 224 pd delay_6;
#X obj 156 224 fx_gain_6~;
#X text 40 12 fx_vdelay_6~ <max delay time> (<delay time>);
#X connect 0 0 18 0;
#X connect 0 0 19 0;
#X connect 3 0 18 6;
#X connect 3 0 6 0;
#X connect 4 0 5 0;
#X connect 5 0 18 6;
#X connect 5 0 6 0;
#X connect 6 0 19 6;
#X connect 8 0 18 1;
#X connect 8 0 19 1;
#X connect 10 0 18 2;
#X connect 10 0 19 2;
#X connect 12 0 18 3;
#X connect 12 0 19 3;
#X connect 14 0 18 4;
#X connect 14 0 19 4;
#X connect 16 0 19 5;
#X connect 16 0 18 5;
#X connect 18 0 1 0;
#X connect 18 1 9 0;
#X connect 18 2 11 0;
#X connect 18 3 13 0;
#X connect 18 4 15 0;
#X connect 18 5 17 0;
#X connect 19 0 1 0;
#X connect 19 1 9 0;
#X connect 19 2 11 0;
#X connect 19 3 13 0;
#X connect 19 4 15 0;
#X connect 19 5 17 0;
