#N canvas 377 216 542 424 10;
#X obj 64 49 inlet~;
#X obj 64 334 outlet~;
#X text 96 392 (c)2012 Marian Weger;
#X obj 420 64 inlet;
#X obj 321 64 loadbang;
#X obj 321 86 f \$2;
#X obj 321 166 <= 0;
#X obj 419 271 outlet;
#X obj 114 49 inlet~;
#X obj 114 334 outlet~;
#X obj 164 49 inlet~;
#X obj 164 334 outlet~;
#X obj 214 49 inlet~;
#X obj 214 334 outlet~;
#X obj 264 49 inlet~;
#X obj 264 334 outlet~;
#N canvas 91 83 1085 618 delay_5 0;
#X obj 71 530 outlet~;
#X obj 71 312 *~;
#X obj 664 134 pack 0 5;
#X obj 664 156 line~;
#X obj 71 72 inlet~;
#X obj 803 168 switch~;
#X obj 803 118 change;
#X obj 803 142 1del0 15;
#X obj 803 96 > 0;
#X obj 754 21 inlet;
#X obj 754 54 t f f f;
#X obj 201 530 outlet~;
#X obj 201 312 *~;
#X obj 201 72 inlet~;
#X obj 71 341 delwrite~ \$0-dl1 \$1;
#X obj 201 341 delwrite~ \$0-dl2 \$1;
#X obj 792 493 outlet;
#X obj 331 530 outlet~;
#X obj 331 312 *~;
#X obj 331 72 inlet~;
#X obj 331 341 delwrite~ \$0-dl3 \$1;
#X obj 461 530 outlet~;
#X obj 461 312 *~;
#X obj 461 72 inlet~;
#X obj 461 341 delwrite~ \$0-dl4 \$1;
#X obj 591 530 outlet~;
#X obj 591 312 *~;
#X obj 591 72 inlet~;
#X obj 591 341 delwrite~ \$0-dl5 \$1;
#X obj 793 256 clip 0 999;
#X obj 850 207 loadbang;
#X obj 850 229 f \$1;
#X obj 793 278 pack 0 5;
#X obj 793 406 line~;
#X obj 71 496 vd~ \$0-dl1 0;
#X obj 201 496 vd~ \$0-dl2 0;
#X obj 331 496 vd~ \$0-dl3 0;
#X obj 461 496 vd~ \$0-dl4 0;
#X obj 591 496 vd~ \$0-dl5 0;
#X connect 1 0 14 0;
#X connect 2 0 3 0;
#X connect 3 0 1 1;
#X connect 3 0 12 1;
#X connect 3 0 18 1;
#X connect 3 0 22 1;
#X connect 3 0 26 1;
#X connect 4 0 1 0;
#X connect 6 0 7 0;
#X connect 7 0 5 0;
#X connect 8 0 6 0;
#X connect 9 0 10 0;
#X connect 10 0 2 0;
#X connect 10 1 29 0;
#X connect 10 2 8 0;
#X connect 12 0 15 0;
#X connect 13 0 12 0;
#X connect 18 0 20 0;
#X connect 19 0 18 0;
#X connect 22 0 24 0;
#X connect 23 0 22 0;
#X connect 26 0 28 0;
#X connect 27 0 26 0;
#X connect 29 0 32 0;
#X connect 30 0 31 0;
#X connect 31 0 29 2;
#X connect 32 0 33 0;
#X connect 33 0 34 0;
#X connect 33 0 35 0;
#X connect 33 0 36 0;
#X connect 33 0 37 0;
#X connect 33 0 38 0;
#X connect 34 0 0 0;
#X connect 35 0 11 0;
#X connect 36 0 17 0;
#X connect 37 0 21 0;
#X connect 38 0 25 0;
#X restore 64 224 pd delay_5;
#X obj 156 224 fx_gain_5~;
#X text 40 12 fx_vdelay_5~ <max delay time> (<delay time>);
#X connect 0 0 16 0;
#X connect 0 0 17 0;
#X connect 3 0 16 5;
#X connect 3 0 6 0;
#X connect 4 0 5 0;
#X connect 5 0 16 5;
#X connect 5 0 6 0;
#X connect 6 0 17 5;
#X connect 8 0 16 1;
#X connect 8 0 17 1;
#X connect 10 0 16 2;
#X connect 10 0 17 2;
#X connect 12 0 16 3;
#X connect 12 0 17 3;
#X connect 14 0 16 4;
#X connect 14 0 17 4;
#X connect 16 0 1 0;
#X connect 16 1 9 0;
#X connect 16 2 11 0;
#X connect 16 3 13 0;
#X connect 16 4 15 0;
#X connect 17 0 1 0;
#X connect 17 1 9 0;
#X connect 17 2 11 0;
#X connect 17 3 13 0;
#X connect 17 4 15 0;
