#N canvas 377 216 542 424 10;
#X obj 64 49 inlet~;
#X obj 64 334 outlet~;
#X text 96 392 (c)2012 Marian Weger;
#X obj 400 64 inlet;
#X obj 301 64 loadbang;
#X obj 301 86 f \$2;
#X obj 301 166 <= 0;
#X obj 399 271 outlet;
#X obj 114 49 inlet~;
#X obj 114 334 outlet~;
#X obj 164 49 inlet~;
#X obj 164 334 outlet~;
#N canvas 91 83 862 605 delay_4 0;
#X obj 71 530 outlet~;
#X obj 71 312 *~;
#X obj 71 72 inlet~;
#X obj 645 106 inlet;
#X obj 201 530 outlet~;
#X obj 201 312 *~;
#X obj 201 72 inlet~;
#X obj 71 341 delwrite~ \$0-dl1 \$1;
#X obj 201 341 delwrite~ \$0-dl2 \$1;
#X obj 702 493 outlet;
#X obj 331 530 outlet~;
#X obj 331 312 *~;
#X obj 331 72 inlet~;
#X obj 331 341 delwrite~ \$0-dl3 \$1;
#X obj 461 530 outlet~;
#X obj 461 312 *~;
#X obj 461 72 inlet~;
#X obj 461 341 delwrite~ \$0-dl4 \$1;
#X obj 664 378 clip 0 999;
#X obj 721 329 loadbang;
#X obj 520 231 pack 0 5;
#X obj 520 253 line~;
#X obj 604 275 switch~;
#X obj 604 225 change;
#X obj 604 249 1del0 15;
#X obj 604 203 > 0;
#X obj 721 351 f \$1;
#X obj 664 400 pack 0 5;
#X obj 664 422 line~;
#X obj 71 496 vd~ \$0-dl1 0;
#X obj 201 496 vd~ \$0-dl2 0;
#X obj 331 496 vd~ \$0-dl3 0;
#X obj 461 496 vd~ \$0-dl4 0;
#X obj 645 166 t f f;
#X connect 1 0 7 0;
#X connect 2 0 1 0;
#X connect 3 0 33 0;
#X connect 5 0 8 0;
#X connect 6 0 5 0;
#X connect 11 0 13 0;
#X connect 12 0 11 0;
#X connect 15 0 17 0;
#X connect 16 0 15 0;
#X connect 18 0 27 0;
#X connect 19 0 26 0;
#X connect 20 0 21 0;
#X connect 21 0 15 1;
#X connect 21 0 11 1;
#X connect 21 0 5 1;
#X connect 21 0 1 1;
#X connect 23 0 24 0;
#X connect 24 0 22 0;
#X connect 25 0 23 0;
#X connect 25 0 20 0;
#X connect 26 0 18 2;
#X connect 27 0 28 0;
#X connect 28 0 32 0;
#X connect 28 0 31 0;
#X connect 28 0 30 0;
#X connect 28 0 29 0;
#X connect 29 0 0 0;
#X connect 30 0 4 0;
#X connect 31 0 10 0;
#X connect 32 0 14 0;
#X connect 33 0 25 0;
#X connect 33 1 18 0;
#X restore 64 224 pd delay_4;
#X obj 156 224 fx_gain_4~;
#X obj 214 49 inlet~;
#X obj 214 334 outlet~;
#X text 40 12 fx_vdelay_4~ <max delay time> (<delay time>);
#X connect 0 0 12 0;
#X connect 0 0 13 0;
#X connect 3 0 12 4;
#X connect 3 0 6 0;
#X connect 4 0 5 0;
#X connect 5 0 12 4;
#X connect 5 0 6 0;
#X connect 6 0 13 4;
#X connect 8 0 12 1;
#X connect 8 0 13 1;
#X connect 10 0 12 2;
#X connect 10 0 13 2;
#X connect 12 0 1 0;
#X connect 12 1 9 0;
#X connect 12 2 11 0;
#X connect 12 3 15 0;
#X connect 13 0 1 0;
#X connect 13 1 9 0;
#X connect 13 2 11 0;
#X connect 13 3 15 0;
#X connect 14 0 13 3;
#X connect 14 0 12 3;
