#N canvas 238 349 950 261 10;
#X obj 73 81 inlet~;
#X text 63 183 2013 Marian Weger;
#X obj 123 81 inlet~;
#X obj 73 103 s~ \$1/1;
#X obj 123 103 s~ \$1/2;
#X obj 173 81 inlet~;
#X obj 223 81 inlet~;
#X obj 273 81 inlet~;
#X obj 323 81 inlet~;
#X obj 373 81 inlet~;
#X obj 423 81 inlet~;
#X obj 173 103 s~ \$1/3;
#X obj 223 103 s~ \$1/4;
#X obj 273 103 s~ \$1/5;
#X obj 323 103 s~ \$1/6;
#X obj 373 103 s~ \$1/7;
#X obj 423 103 s~ \$1/8;
#X text 42 25 i2s_16~ <name>;
#X obj 473 81 inlet~;
#X obj 523 81 inlet~;
#X obj 583 81 inlet~;
#X obj 643 81 inlet~;
#X obj 703 81 inlet~;
#X obj 763 81 inlet~;
#X obj 823 81 inlet~;
#X obj 883 81 inlet~;
#X obj 473 103 s~ \$1/9;
#X obj 523 103 s~ \$1/10;
#X obj 583 103 s~ \$1/11;
#X obj 643 103 s~ \$1/12;
#X obj 703 103 s~ \$1/13;
#X obj 763 103 s~ \$1/14;
#X obj 823 103 s~ \$1/15;
#X obj 883 103 s~ \$1/16;
#X connect 0 0 3 0;
#X connect 2 0 4 0;
#X connect 5 0 11 0;
#X connect 6 0 12 0;
#X connect 7 0 13 0;
#X connect 8 0 14 0;
#X connect 9 0 15 0;
#X connect 10 0 16 0;
#X connect 18 0 26 0;
#X connect 19 0 27 0;
#X connect 20 0 28 0;
#X connect 21 0 29 0;
#X connect 22 0 30 0;
#X connect 23 0 31 0;
#X connect 24 0 32 0;
#X connect 25 0 33 0;
