#N canvas 0 51 1280 947 10;
#X obj 73 81 inlet~;
#X obj 123 81 inlet~;
#X obj 73 103 s~ \$1/1;
#X obj 123 103 s~ \$1/2;
#X obj 173 81 inlet~;
#X obj 223 81 inlet~;
#X obj 273 81 inlet~;
#X obj 323 81 inlet~;
#X obj 373 81 inlet~;
#X obj 423 81 inlet~;
#X obj 173 103 s~ \$1/3;
#X obj 223 103 s~ \$1/4;
#X obj 273 103 s~ \$1/5;
#X obj 323 103 s~ \$1/6;
#X obj 373 103 s~ \$1/7;
#X obj 423 103 s~ \$1/8;
#X obj 483 81 inlet~;
#X obj 543 81 inlet~;
#X obj 603 81 inlet~;
#X obj 663 81 inlet~;
#X obj 723 81 inlet~;
#X obj 783 81 inlet~;
#X obj 843 81 inlet~;
#X obj 903 81 inlet~;
#X obj 483 103 s~ \$1/9;
#X obj 543 103 s~ \$1/10;
#X obj 603 103 s~ \$1/11;
#X obj 663 103 s~ \$1/12;
#X obj 723 103 s~ \$1/13;
#X obj 783 103 s~ \$1/14;
#X obj 843 103 s~ \$1/15;
#X obj 903 103 s~ \$1/16;
#X obj 963 81 inlet~;
#X obj 1023 81 inlet~;
#X obj 1083 81 inlet~;
#X obj 1143 81 inlet~;
#X obj 1203 81 inlet~;
#X obj 1263 81 inlet~;
#X obj 1323 81 inlet~;
#X obj 1383 81 inlet~;
#X obj 963 103 s~ \$1/17;
#X obj 1023 103 s~ \$1/18;
#X obj 1083 103 s~ \$1/19;
#X obj 1143 103 s~ \$1/20;
#X obj 1203 103 s~ \$1/21;
#X obj 1263 103 s~ \$1/22;
#X obj 1323 103 s~ \$1/23;
#X obj 1383 103 s~ \$1/24;
#X text 45 24 i2s_48~ <name>;
#X text 63 183 2015 Marian Weger;
#X obj 1449 81 inlet~;
#X obj 1499 81 inlet~;
#X obj 1549 81 inlet~;
#X obj 1599 81 inlet~;
#X obj 1649 81 inlet~;
#X obj 1699 81 inlet~;
#X obj 1749 81 inlet~;
#X obj 1799 81 inlet~;
#X obj 1859 81 inlet~;
#X obj 1919 81 inlet~;
#X obj 1979 81 inlet~;
#X obj 2039 81 inlet~;
#X obj 2099 81 inlet~;
#X obj 2159 81 inlet~;
#X obj 2219 81 inlet~;
#X obj 2279 81 inlet~;
#X obj 2339 81 inlet~;
#X obj 2399 81 inlet~;
#X obj 2459 81 inlet~;
#X obj 2519 81 inlet~;
#X obj 2579 81 inlet~;
#X obj 2639 81 inlet~;
#X obj 2699 81 inlet~;
#X obj 2759 81 inlet~;
#X obj 1449 103 s~ \$1/25;
#X obj 1499 103 s~ \$1/26;
#X obj 1549 103 s~ \$1/27;
#X obj 1599 103 s~ \$1/28;
#X obj 1649 103 s~ \$1/29;
#X obj 1699 103 s~ \$1/30;
#X obj 1749 103 s~ \$1/31;
#X obj 1799 103 s~ \$1/32;
#X obj 1859 103 s~ \$1/33;
#X obj 1919 103 s~ \$1/34;
#X obj 1979 103 s~ \$1/35;
#X obj 2039 103 s~ \$1/36;
#X obj 2099 103 s~ \$1/37;
#X obj 2159 103 s~ \$1/38;
#X obj 2219 103 s~ \$1/39;
#X obj 2279 103 s~ \$1/40;
#X obj 2339 103 s~ \$1/41;
#X obj 2399 103 s~ \$1/42;
#X obj 2459 103 s~ \$1/43;
#X obj 2519 103 s~ \$1/44;
#X obj 2579 103 s~ \$1/45;
#X obj 2639 103 s~ \$1/46;
#X obj 2699 103 s~ \$1/47;
#X obj 2759 103 s~ \$1/48;
#X connect 0 0 2 0;
#X connect 1 0 3 0;
#X connect 4 0 10 0;
#X connect 5 0 11 0;
#X connect 6 0 12 0;
#X connect 7 0 13 0;
#X connect 8 0 14 0;
#X connect 9 0 15 0;
#X connect 16 0 24 0;
#X connect 17 0 25 0;
#X connect 18 0 26 0;
#X connect 19 0 27 0;
#X connect 20 0 28 0;
#X connect 21 0 29 0;
#X connect 22 0 30 0;
#X connect 23 0 31 0;
#X connect 32 0 40 0;
#X connect 33 0 41 0;
#X connect 34 0 42 0;
#X connect 35 0 43 0;
#X connect 36 0 44 0;
#X connect 37 0 45 0;
#X connect 38 0 46 0;
#X connect 39 0 47 0;
#X connect 50 0 74 0;
#X connect 51 0 75 0;
#X connect 52 0 76 0;
#X connect 53 0 77 0;
#X connect 54 0 78 0;
#X connect 55 0 79 0;
#X connect 56 0 80 0;
#X connect 57 0 81 0;
#X connect 58 0 82 0;
#X connect 59 0 83 0;
#X connect 60 0 84 0;
#X connect 61 0 85 0;
#X connect 62 0 86 0;
#X connect 63 0 87 0;
#X connect 64 0 88 0;
#X connect 65 0 89 0;
#X connect 66 0 90 0;
#X connect 67 0 91 0;
#X connect 68 0 92 0;
#X connect 69 0 93 0;
#X connect 70 0 94 0;
#X connect 71 0 95 0;
#X connect 72 0 96 0;
#X connect 73 0 97 0;
