#N canvas 238 349 333 227 10;
#X obj 73 81 inlet~;
#X text 63 183 2013 Marian Weger;
#X obj 123 81 inlet~;
#X obj 73 103 s~ \$1/1;
#X obj 123 103 s~ \$1/2;
#X text 42 25 i2s_4~ <name>;
#X obj 173 81 inlet~;
#X obj 223 81 inlet~;
#X obj 173 103 s~ \$1/3;
#X obj 223 103 s~ \$1/4;
#X connect 0 0 3 0;
#X connect 2 0 4 0;
#X connect 6 0 8 0;
#X connect 7 0 9 0;
