#N canvas 238 349 641 245 10;
#X obj 73 81 inlet~;
#X text 63 183 2013 Marian Weger;
#X obj 123 81 inlet~;
#X obj 73 103 s~ \$1/1;
#X obj 123 103 s~ \$1/2;
#X text 42 25 i2s_8~ <name>;
#X obj 173 81 inlet~;
#X obj 223 81 inlet~;
#X obj 273 81 inlet~;
#X obj 323 81 inlet~;
#X obj 373 81 inlet~;
#X obj 423 81 inlet~;
#X obj 173 103 s~ \$1/3;
#X obj 223 103 s~ \$1/4;
#X obj 273 103 s~ \$1/5;
#X obj 323 103 s~ \$1/6;
#X obj 373 103 s~ \$1/7;
#X obj 423 103 s~ \$1/8;
#X connect 0 0 3 0;
#X connect 2 0 4 0;
#X connect 6 0 12 0;
#X connect 7 0 13 0;
#X connect 8 0 14 0;
#X connect 9 0 15 0;
#X connect 10 0 16 0;
#X connect 11 0 17 0;
