#N canvas 1280 51 1280 947 10;
#X obj 1672 37 inlet~;
#X obj 73 133 throw~ \$1/1;
#X obj 123 133 throw~ \$1/2;
#X obj 173 133 throw~ \$1/3;
#X obj 223 133 throw~ \$1/4;
#X obj 273 133 throw~ \$1/5;
#X obj 323 133 throw~ \$1/6;
#X obj 373 133 throw~ \$1/7;
#X obj 423 133 throw~ \$1/8;
#X obj 483 133 throw~ \$1/9;
#X obj 543 133 throw~ \$1/10;
#X obj 603 133 throw~ \$1/11;
#X obj 663 133 throw~ \$1/12;
#X obj 723 133 throw~ \$1/13;
#X obj 783 133 throw~ \$1/14;
#X obj 843 133 throw~ \$1/15;
#X obj 903 133 throw~ \$1/16;
#X obj 963 133 throw~ \$1/17;
#X obj 1023 133 throw~ \$1/18;
#X obj 1083 133 throw~ \$1/19;
#X obj 1143 133 throw~ \$1/20;
#X obj 1203 133 throw~ \$1/21;
#X obj 1263 133 throw~ \$1/22;
#X obj 1323 133 throw~ \$1/23;
#X obj 1383 133 throw~ \$1/24;
#X text 63 213 2015 Marian Weger;
#X obj 1449 133 throw~ \$1/25;
#X obj 1499 133 throw~ \$1/26;
#X obj 1549 133 throw~ \$1/27;
#X obj 1599 133 throw~ \$1/28;
#X obj 1649 133 throw~ \$1/29;
#X obj 1699 133 throw~ \$1/30;
#X obj 1749 133 throw~ \$1/31;
#X obj 1799 133 throw~ \$1/32;
#X obj 1859 133 throw~ \$1/33;
#X obj 1919 133 throw~ \$1/34;
#X obj 1979 133 throw~ \$1/35;
#X obj 2039 133 throw~ \$1/36;
#X obj 2099 133 throw~ \$1/37;
#X obj 2159 133 throw~ \$1/38;
#X obj 2219 133 throw~ \$1/39;
#X obj 2279 133 throw~ \$1/40;
#X obj 2339 133 throw~ \$1/41;
#X obj 2399 133 throw~ \$1/42;
#X obj 2459 133 throw~ \$1/43;
#X obj 2519 133 throw~ \$1/44;
#X obj 2579 133 throw~ \$1/45;
#X obj 2639 133 throw~ \$1/46;
#X obj 2699 133 throw~ \$1/47;
#X obj 2759 133 throw~ \$1/48;
#X text 32 14 i2t_48_mono~ <name>;
#X connect 0 0 1 0;
#X connect 0 0 2 0;
#X connect 0 0 3 0;
#X connect 0 0 4 0;
#X connect 0 0 5 0;
#X connect 0 0 6 0;
#X connect 0 0 7 0;
#X connect 0 0 8 0;
#X connect 0 0 9 0;
#X connect 0 0 10 0;
#X connect 0 0 11 0;
#X connect 0 0 12 0;
#X connect 0 0 13 0;
#X connect 0 0 14 0;
#X connect 0 0 15 0;
#X connect 0 0 16 0;
#X connect 0 0 17 0;
#X connect 0 0 18 0;
#X connect 0 0 19 0;
#X connect 0 0 20 0;
#X connect 0 0 21 0;
#X connect 0 0 22 0;
#X connect 0 0 23 0;
#X connect 0 0 24 0;
#X connect 0 0 26 0;
#X connect 0 0 27 0;
#X connect 0 0 28 0;
#X connect 0 0 29 0;
#X connect 0 0 30 0;
#X connect 0 0 31 0;
#X connect 0 0 32 0;
#X connect 0 0 33 0;
#X connect 0 0 34 0;
#X connect 0 0 35 0;
#X connect 0 0 36 0;
#X connect 0 0 37 0;
#X connect 0 0 38 0;
#X connect 0 0 39 0;
#X connect 0 0 40 0;
#X connect 0 0 41 0;
#X connect 0 0 42 0;
#X connect 0 0 43 0;
#X connect 0 0 44 0;
#X connect 0 0 45 0;
#X connect 0 0 46 0;
#X connect 0 0 47 0;
#X connect 0 0 48 0;
#X connect 0 0 49 0;
