#N canvas 66 235 1101 240 10;
#X obj 73 81 inlet~;
#X text 63 183 2013 Marian Weger;
#X obj 123 81 inlet~;
#X obj 173 81 inlet~;
#X obj 223 81 inlet~;
#X obj 273 81 inlet~;
#X obj 323 81 inlet~;
#X obj 373 81 inlet~;
#X obj 423 81 inlet~;
#X obj 483 81 inlet~;
#X obj 543 81 inlet~;
#X obj 603 81 inlet~;
#X obj 663 81 inlet~;
#X obj 723 81 inlet~;
#X obj 783 81 inlet~;
#X obj 843 81 inlet~;
#X obj 903 81 inlet~;
#X obj 73 123 throw~ \$1/1;
#X obj 123 103 throw~ \$1/2;
#X obj 173 123 throw~ \$1/3;
#X obj 223 103 throw~ \$1/4;
#X obj 273 123 throw~ \$1/5;
#X obj 323 103 throw~ \$1/6;
#X obj 373 123 throw~ \$1/7;
#X obj 423 103 throw~ \$1/8;
#X obj 483 123 throw~ \$1/9;
#X obj 543 103 throw~ \$1/10;
#X obj 603 123 throw~ \$1/11;
#X obj 663 103 throw~ \$1/12;
#X obj 723 123 throw~ \$1/13;
#X obj 783 103 throw~ \$1/14;
#X obj 843 123 throw~ \$1/15;
#X obj 903 103 throw~ \$1/16;
#X text 42 25 i2t_16~ <name>;
#X connect 0 0 17 0;
#X connect 2 0 18 0;
#X connect 3 0 19 0;
#X connect 4 0 20 0;
#X connect 5 0 21 0;
#X connect 6 0 22 0;
#X connect 7 0 23 0;
#X connect 8 0 24 0;
#X connect 9 0 25 0;
#X connect 10 0 26 0;
#X connect 11 0 27 0;
#X connect 12 0 28 0;
#X connect 13 0 29 0;
#X connect 14 0 30 0;
#X connect 15 0 31 0;
#X connect 16 0 32 0;
