#N canvas 66 235 1101 240 10;
#X obj 73 81 inlet~;
#X text 63 183 2013 Marian Weger;
#X obj 123 81 inlet~;
#X obj 173 81 inlet~;
#X obj 223 81 inlet~;
#X obj 273 81 inlet~;
#X obj 323 81 inlet~;
#X obj 373 81 inlet~;
#X obj 423 81 inlet~;
#X obj 483 81 inlet~;
#X obj 543 81 inlet~;
#X obj 603 81 inlet~;
#X obj 663 81 inlet~;
#X obj 723 81 inlet~;
#X obj 783 81 inlet~;
#X obj 843 81 inlet~;
#X obj 903 81 inlet~;
#X obj 963 81 inlet~;
#X obj 1023 81 inlet~;
#X obj 1083 81 inlet~;
#X obj 1143 81 inlet~;
#X obj 1203 81 inlet~;
#X obj 1263 81 inlet~;
#X obj 1323 81 inlet~;
#X obj 1383 81 inlet~;
#X obj 73 123 throw~ \$1/1;
#X obj 123 103 throw~ \$1/2;
#X obj 173 123 throw~ \$1/3;
#X obj 223 103 throw~ \$1/4;
#X obj 273 123 throw~ \$1/5;
#X obj 323 103 throw~ \$1/6;
#X obj 373 123 throw~ \$1/7;
#X obj 423 103 throw~ \$1/8;
#X obj 483 123 throw~ \$1/9;
#X obj 543 103 throw~ \$1/10;
#X obj 603 123 throw~ \$1/11;
#X obj 663 103 throw~ \$1/12;
#X obj 723 123 throw~ \$1/13;
#X obj 783 103 throw~ \$1/14;
#X obj 843 123 throw~ \$1/15;
#X obj 903 103 throw~ \$1/16;
#X obj 963 123 throw~ \$1/17;
#X obj 1023 103 throw~ \$1/18;
#X obj 1083 123 throw~ \$1/19;
#X obj 1143 103 throw~ \$1/20;
#X obj 1203 123 throw~ \$1/21;
#X obj 1263 103 throw~ \$1/22;
#X obj 1323 123 throw~ \$1/23;
#X obj 1383 103 throw~ \$1/24;
#X text 42 25 i2t_24~ <name>;
#X connect 0 0 25 0;
#X connect 2 0 26 0;
#X connect 3 0 27 0;
#X connect 4 0 28 0;
#X connect 5 0 29 0;
#X connect 6 0 30 0;
#X connect 7 0 31 0;
#X connect 8 0 32 0;
#X connect 9 0 33 0;
#X connect 10 0 34 0;
#X connect 11 0 35 0;
#X connect 12 0 36 0;
#X connect 13 0 37 0;
#X connect 14 0 38 0;
#X connect 15 0 39 0;
#X connect 16 0 40 0;
#X connect 17 0 41 0;
#X connect 18 0 42 0;
#X connect 19 0 43 0;
#X connect 20 0 44 0;
#X connect 21 0 45 0;
#X connect 22 0 46 0;
#X connect 23 0 47 0;
#X connect 24 0 48 0;
