#N canvas 66 235 354 241 10;
#X obj 73 81 inlet~;
#X text 63 183 2013 Marian Weger;
#X obj 123 81 inlet~;
#X obj 173 81 inlet~;
#X obj 223 81 inlet~;
#X obj 73 123 throw~ \$1/1;
#X obj 123 103 throw~ \$1/2;
#X obj 173 123 throw~ \$1/3;
#X obj 223 103 throw~ \$1/4;
#X text 42 25 i2t_4~ <name>;
#X connect 0 0 5 0;
#X connect 2 0 6 0;
#X connect 3 0 7 0;
#X connect 4 0 8 0;
