#N canvas 66 235 561 236 10;
#X obj 73 81 inlet~;
#X text 63 183 2013 Marian Weger;
#X obj 123 81 inlet~;
#X obj 173 81 inlet~;
#X obj 223 81 inlet~;
#X obj 273 81 inlet~;
#X obj 323 81 inlet~;
#X obj 373 81 inlet~;
#X obj 423 81 inlet~;
#X obj 73 123 throw~ \$1/1;
#X obj 123 103 throw~ \$1/2;
#X obj 173 123 throw~ \$1/3;
#X obj 223 103 throw~ \$1/4;
#X obj 273 123 throw~ \$1/5;
#X obj 323 103 throw~ \$1/6;
#X obj 373 123 throw~ \$1/7;
#X obj 423 103 throw~ \$1/8;
#X text 42 25 i2t_8~ <name>;
#X connect 0 0 9 0;
#X connect 2 0 10 0;
#X connect 3 0 11 0;
#X connect 4 0 12 0;
#X connect 5 0 13 0;
#X connect 6 0 14 0;
#X connect 7 0 15 0;
#X connect 8 0 16 0;
