#N canvas 187 38 905 660 10;
#X msg 478 134 play;
#X obj 12 47 openpanel;
#X msg 594 296 loop \$1;
#X obj 217 427 route ready samplerate length cache float bang;
#X obj 429 23 inlet;
#X obj 499 840 outlet;
#X msg 441 517 elapsed;
#X msg 527 508 end;
#X msg 357 521 cache \$1;
#X msg 314 565 length \$1;
#X msg 283 605 samplerate \$1;
#X msg 213 635 ready \$1;
#X obj 429 107 b;
#X obj 12 69 t b a;
#X obj 15 109 list;
#X obj 15 131 list prepend open;
#X obj 15 153 list trim;
#X obj 479 107 b;
#X obj 519 107 b;
#X obj 559 107 b;
#X msg 518 134 stop;
#X msg 558 134 pause;
#X msg 598 134 speed \$1;
#X msg 658 134 pcm_seek \$1;
#X msg 738 134 time_seek \$1;
#X obj 429 45 route open loadfile play stop pause speed pcm_seek time_seek
filename reload loop;
#X obj 589 200 b;
#X text 571 401 (c)2013 Marian Weger;
#X text 23 10 in_anyplay~;
#X obj 28 386 outlet~;
#X obj 29 258 readanysf~ 4;
#X obj 78 386 outlet~;
#X obj 128 386 outlet~;
#X obj 178 386 outlet~;
#X obj 599 107 f;
#X obj 659 107 f;
#X obj 739 107 f;
#X obj 663 211 f;
#X connect 0 0 30 0;
#X connect 1 0 13 0;
#X connect 2 0 30 0;
#X connect 3 0 11 0;
#X connect 3 1 10 0;
#X connect 3 2 9 0;
#X connect 3 3 8 0;
#X connect 3 4 6 0;
#X connect 3 5 7 0;
#X connect 4 0 25 0;
#X connect 6 0 5 0;
#X connect 7 0 5 0;
#X connect 8 0 5 0;
#X connect 9 0 5 0;
#X connect 11 0 5 0;
#X connect 12 0 1 0;
#X connect 13 0 14 0;
#X connect 13 1 14 1;
#X connect 14 0 15 0;
#X connect 15 0 16 0;
#X connect 16 0 30 0;
#X connect 17 0 0 0;
#X connect 18 0 20 0;
#X connect 19 0 21 0;
#X connect 20 0 30 0;
#X connect 21 0 30 0;
#X connect 22 0 30 0;
#X connect 23 0 30 0;
#X connect 24 0 30 0;
#X connect 25 0 12 0;
#X connect 25 1 13 0;
#X connect 25 2 17 0;
#X connect 25 3 18 0;
#X connect 25 4 19 0;
#X connect 25 5 34 0;
#X connect 25 6 35 0;
#X connect 25 7 36 0;
#X connect 25 8 14 1;
#X connect 25 9 26 0;
#X connect 25 10 37 0;
#X connect 26 0 14 0;
#X connect 30 0 29 0;
#X connect 30 1 31 0;
#X connect 30 2 32 0;
#X connect 30 3 33 0;
#X connect 30 4 3 0;
#X connect 34 0 22 0;
#X connect 35 0 23 0;
#X connect 36 0 24 0;
#X connect 37 0 2 0;
