#N canvas 780 64 450 300 10;
#X text 36 34 in_anyplay_ctl;
#X obj 35 94 inlet;
#X obj 26 433 outlet;
#X obj 458 94 inlet;
#X obj 446 431 outlet;
#N canvas 110 80 658 416 ctl 0;
#X obj 49 13 r /in/anyplay/\$1/open;
#X obj 49 35 b;
#X msg 49 57 open;
#X obj 89 33 r /in/anyplay/\$1/loadfile;
#X obj 89 55 list prepend loadfile;
#X obj 121 306 list trim;
#X obj 49 338 outlet;
#X obj 109 105 b;
#X obj 109 83 r /in/anyplay/\$1/play;
#X msg 109 127 play;
#X obj 149 125 b;
#X obj 149 103 r /in/anyplay/\$1/stop;
#X msg 149 147 stop;
#X obj 189 145 b;
#X obj 189 123 r /in/anyplay/\$1/pause;
#X msg 189 167 pause;
#X obj 239 153 r /in/anyplay/\$1/speed;
#X obj 239 175 f;
#X msg 239 197 speed \$1;
#X obj 299 205 f;
#X obj 299 183 r /in/anyplay/\$1/pcm_seek;
#X msg 299 227 pcm_seek \$1;
#X obj 379 235 f;
#X obj 379 213 r /in/anyplay/\$1/time_seek;
#X msg 379 257 time_seek \$1;
#X obj 466 248 r /in/anyplay/\$1/filename;
#X obj 466 270 list prepend filename;
#X obj 405 104 b;
#X obj 405 82 r /in/anyplay/\$1/reload;
#X msg 405 126 reload;
#X obj 488 142 f;
#X obj 488 120 r /in/anyplay/\$1/loop;
#X msg 488 164 loop \$1;
#X connect 0 0 1 0;
#X connect 1 0 2 0;
#X connect 2 0 6 0;
#X connect 3 0 4 0;
#X connect 4 0 5 0;
#X connect 5 0 6 0;
#X connect 7 0 9 0;
#X connect 8 0 7 0;
#X connect 9 0 6 0;
#X connect 10 0 12 0;
#X connect 11 0 10 0;
#X connect 12 0 6 0;
#X connect 13 0 15 0;
#X connect 14 0 13 0;
#X connect 15 0 6 0;
#X connect 16 0 17 0;
#X connect 17 0 18 0;
#X connect 18 0 6 0;
#X connect 19 0 21 0;
#X connect 20 0 19 0;
#X connect 21 0 6 0;
#X connect 22 0 24 0;
#X connect 23 0 22 0;
#X connect 24 0 6 0;
#X connect 25 0 26 0;
#X connect 26 0 5 0;
#X connect 27 0 29 0;
#X connect 28 0 27 0;
#X connect 29 0 6 0;
#X connect 30 0 32 0;
#X connect 31 0 30 0;
#X connect 32 0 6 0;
#X restore 26 353 pd ctl;
#N canvas 762 301 450 300 ds 0;
#X obj 75 59 ds_reg \$2 /in/anyplay/\$1/loop;
#X restore 161 305 pd ds;
#N canvas 762 301 450 300 osc 0;
#X obj 75 59 osc_bi \$2 /in/anyplay/\$1/loop;
#X obj 75 79 osc_bi \$2 /in/anyplay/\$1/open;
#X obj 75 99 osc_bi \$2 /in/anyplay/\$1/loadfile;
#X obj 75 119 osc_bi \$2 /in/anyplay/\$1/play;
#X obj 75 139 osc_bi \$2 /in/anyplay/\$1/stop;
#X obj 75 159 osc_bi \$2 /in/anyplay/\$1/pause;
#X obj 75 179 osc_bi \$2 /in/anyplay/\$1/speed;
#X obj 75 199 osc_bi \$2 /in/anyplay/\$1/pcm_seek;
#X obj 75 219 osc_bi \$2 /in/anyplay/\$1/time_seek;
#X obj 75 239 osc_bi \$2 /in/anyplay/\$1/filename;
#X obj 75 259 osc_bi \$2 /in/anyplay/\$1/reload;
#X restore 161 325 pd osc;
#N canvas 791 282 450 300 init 0;
#X obj 115 46 loadbang;
#X msg 142 200 \; /in/anyplay/\$1/filename \$3 \; /in/anyplay/\$1/speed
1 \; /in/anyplay/\$1/loop 1 \; /in/anyplay/\$1/reload bang \;;
#X obj 142 128 list prepend \$1 \$2;
#X obj 115 68 list prepend \$3;
#X obj 115 90 sel 0;
#X msg 60 277 \; /in/anyplay/\$1/speed 1 \; /in/anyplay/\$1/loop 1
\;;
#X obj 270 100 bng 15 250 50 0 empty empty empty 17 7 0 10 -262144
-1 -1;
#X obj 7 179 list prepend \$1 \$2;
#X connect 0 0 3 0;
#X connect 2 0 1 0;
#X connect 3 0 4 0;
#X connect 4 0 7 0;
#X connect 4 1 2 0;
#X connect 6 0 3 0;
#X connect 7 0 5 0;
#X restore 257 298 pd init;
#X obj 42 268 s /in/anyplay/\$1/ready;
#X obj 62 248 s /in/anyplay/\$1/samplerate;
#X obj 102 228 s /in/anyplay/\$1/length;
#X obj 160 210 s /in/anyplay/\$1/cache;
#X obj 180 190 s /in/anyplay/\$1/elapsed;
#X obj 35 121 route ready samplerate length cache elapsed bang;
#X obj 250 170 s /in/anyplay/\$1/end;
#X obj 357 295 loadbang;
#X msg 357 317 1;
#X connect 1 0 14 0;
#X connect 5 0 2 0;
#X connect 14 0 9 0;
#X connect 14 1 10 0;
#X connect 14 2 11 0;
#X connect 14 3 12 0;
#X connect 14 4 13 0;
#X connect 14 5 15 0;
#X connect 16 0 17 0;
#X connect 17 0 4 0;
