#N canvas 170 22 905 660 10;
#X obj 12 47 openpanel;
#X obj 429 53 inlet;
#X obj 499 930 outlet;
#X obj 429 149 b;
#X obj 12 109 t b a;
#X obj 12 169 list;
#X obj 15 201 list prepend open;
#X obj 22 257 list trim;
#X obj 556 149 b;
#X obj 641 149 b;
#X text 594 743 (c)2013 Marian Weger;
#X obj 15 876 outlet~;
#X obj 683 149 f;
#X obj 595 684 spigot;
#X text 23 10 in_player~;
#X obj 15 758 readsf~ 1 1e+06;
#X msg 496 884 end;
#X obj 429 75 route open loadfile play stop filename reload loop;
#X obj 15 840 fx_gain~;
#X obj 242 270 == 0;
#X obj 164 304 kdemux2;
#X obj 235 758 readsf~ 1 1e+06;
#X obj 241 637 1del0 15;
#X obj 39 619 1del0 15;
#X obj 201 270 f 0;
#X msg 121 404 1;
#X msg 207 420 0;
#X obj 39 594 t f f;
#X obj 233 838 fx_gain~;
#X obj 209 464 t f f;
#X msg 249 414 1;
#X msg 158 403 0;
#X obj 513 149 b;
#X obj 281 220 list trim;
#X obj 121 340 route bang;
#X obj 220 353 route bang;
#X obj 173 527 list trim;
#X obj 292 535 list trim;
#X obj 282 196 list;
#X obj 164 239 t b a b;
#X connect 0 0 4 0;
#X connect 1 0 17 0;
#X connect 3 0 0 0;
#X connect 4 0 5 0;
#X connect 4 1 5 1;
#X connect 5 0 6 0;
#X connect 6 0 7 0;
#X connect 6 0 38 1;
#X connect 7 0 21 0;
#X connect 7 0 15 0;
#X connect 8 0 31 0;
#X connect 8 0 26 0;
#X connect 9 0 5 0;
#X connect 12 0 13 1;
#X connect 13 0 32 0;
#X connect 15 0 18 0;
#X connect 15 1 16 0;
#X connect 15 1 13 0;
#X connect 16 0 2 0;
#X connect 17 0 3 0;
#X connect 17 1 4 0;
#X connect 17 2 32 0;
#X connect 17 3 8 0;
#X connect 17 4 5 1;
#X connect 17 5 9 0;
#X connect 17 6 12 0;
#X connect 18 0 11 0;
#X connect 19 0 24 1;
#X connect 20 0 34 0;
#X connect 20 1 35 0;
#X connect 21 0 28 0;
#X connect 21 1 16 0;
#X connect 21 1 13 0;
#X connect 22 0 21 0;
#X connect 23 0 15 0;
#X connect 24 0 19 0;
#X connect 24 0 20 1;
#X connect 25 0 27 0;
#X connect 26 0 29 0;
#X connect 27 0 23 0;
#X connect 27 1 18 1;
#X connect 28 0 11 0;
#X connect 29 0 22 0;
#X connect 29 1 28 1;
#X connect 30 0 29 0;
#X connect 31 0 27 0;
#X connect 32 0 38 0;
#X connect 33 0 39 0;
#X connect 34 0 25 0;
#X connect 34 0 26 0;
#X connect 34 1 36 0;
#X connect 35 0 30 0;
#X connect 35 0 31 0;
#X connect 35 1 37 0;
#X connect 36 0 21 0;
#X connect 37 0 15 0;
#X connect 38 0 33 0;
#X connect 39 0 20 0;
#X connect 39 1 20 0;
#X connect 39 2 24 0;
