#N canvas 240 103 905 660 10;
#X obj 12 47 openpanel;
#X obj 429 23 inlet;
#X obj 499 840 outlet;
#X obj 429 107 b;
#X obj 12 109 t b a;
#X obj 15 149 list;
#X obj 15 171 list prepend open;
#X obj 15 193 list trim;
#X obj 479 107 b;
#X obj 519 107 b;
#X obj 568 165 b;
#X text 594 553 (c)2013 Marian Weger;
#X obj 29 390 outlet~;
#X obj 654 207 f;
#X obj 595 494 spigot;
#X msg 527 508 end;
#X msg 478 134 1;
#X msg 518 134 0;
#X obj 429 45 route open loadfile play stop filename reload loop;
#X obj 29 258 readsf~ 4 1e+06;
#X obj 79 390 outlet~;
#X obj 139 390 outlet~;
#X obj 189 390 outlet~;
#X text 23 10 in_player_4~;
#X connect 0 0 4 0;
#X connect 1 0 18 0;
#X connect 3 0 0 0;
#X connect 4 0 5 0;
#X connect 4 1 5 1;
#X connect 5 0 6 0;
#X connect 6 0 7 0;
#X connect 7 0 19 0;
#X connect 8 0 16 0;
#X connect 9 0 17 0;
#X connect 10 0 5 0;
#X connect 13 0 14 1;
#X connect 14 0 8 0;
#X connect 15 0 2 0;
#X connect 16 0 19 0;
#X connect 17 0 19 0;
#X connect 18 0 3 0;
#X connect 18 1 4 0;
#X connect 18 2 8 0;
#X connect 18 3 9 0;
#X connect 18 4 5 1;
#X connect 18 5 10 0;
#X connect 18 6 13 0;
#X connect 19 0 12 0;
#X connect 19 1 20 0;
#X connect 19 2 21 0;
#X connect 19 3 22 0;
#X connect 19 4 15 0;
#X connect 19 4 14 0;
