#N canvas 426 67 692 558 10;
#X obj 35 94 inlet;
#X obj 26 433 outlet;
#X obj 458 94 inlet;
#X obj 446 431 outlet;
#N canvas 110 80 658 416 ctl 0;
#X obj 49 13 r /in/anyplay/\$1/open;
#X obj 49 35 b;
#X msg 49 57 open;
#X obj 89 33 r /in/anyplay/\$1/loadfile;
#X obj 89 55 list prepend loadfile;
#X obj 121 306 list trim;
#X obj 49 338 outlet;
#X obj 109 105 b;
#X obj 109 83 r /in/anyplay/\$1/play;
#X msg 109 127 play;
#X obj 149 125 b;
#X obj 149 103 r /in/anyplay/\$1/stop;
#X msg 149 147 stop;
#X obj 466 248 r /in/anyplay/\$1/filename;
#X obj 466 270 list prepend filename;
#X obj 405 104 b;
#X obj 405 82 r /in/anyplay/\$1/reload;
#X msg 405 126 reload;
#X obj 488 142 f;
#X obj 488 120 r /in/anyplay/\$1/loop;
#X msg 488 164 loop \$1;
#X connect 0 0 1 0;
#X connect 1 0 2 0;
#X connect 2 0 6 0;
#X connect 3 0 4 0;
#X connect 4 0 5 0;
#X connect 5 0 6 0;
#X connect 7 0 9 0;
#X connect 8 0 7 0;
#X connect 9 0 6 0;
#X connect 10 0 12 0;
#X connect 11 0 10 0;
#X connect 12 0 6 0;
#X connect 13 0 14 0;
#X connect 14 0 5 0;
#X connect 15 0 17 0;
#X connect 16 0 15 0;
#X connect 17 0 6 0;
#X connect 18 0 20 0;
#X connect 19 0 18 0;
#X connect 20 0 6 0;
#X restore 26 353 pd ctl;
#N canvas 762 301 450 300 ds 0;
#X obj 75 59 ds_reg \$2 /in/anyplay/\$1/loop;
#X restore 161 305 pd ds;
#N canvas 762 301 450 300 osc 0;
#X obj 75 59 osc_bi \$2 /in/anyplay/\$1/loop;
#X obj 75 79 osc_bi \$2 /in/anyplay/\$1/open;
#X obj 75 99 osc_bi \$2 /in/anyplay/\$1/loadfile;
#X obj 75 119 osc_bi \$2 /in/anyplay/\$1/play;
#X obj 75 139 osc_bi \$2 /in/anyplay/\$1/stop;
#X obj 75 159 osc_bi \$2 /in/anyplay/\$1/filename;
#X obj 75 179 osc_bi \$2 /in/anyplay/\$1/reload;
#X obj 75 199 osc_s \$2 /in/anyplay/\$1/end;
#X restore 161 325 pd osc;
#N canvas 791 282 450 300 init 0;
#X obj 115 46 loadbang;
#X obj 142 128 list prepend \$1 \$2;
#X obj 115 68 list prepend \$3;
#X obj 115 90 sel 0;
#X obj 270 100 bng 15 250 50 0 empty empty empty 17 7 0 10 -262144
-1 -1;
#X obj 7 179 list prepend \$1 \$2;
#X msg 142 200 \; /in/anyplay/\$1/filename \$3 \; /in/anyplay/\$1/loop
1 \; /in/anyplay/\$1/reload bang \;;
#X msg 60 277 \; /in/anyplay/\$1/loop 1 \;;
#X connect 0 0 2 0;
#X connect 1 0 6 0;
#X connect 2 0 3 0;
#X connect 3 0 5 0;
#X connect 3 1 1 0;
#X connect 4 0 2 0;
#X connect 5 0 7 0;
#X restore 257 298 pd init;
#X obj 357 295 loadbang;
#X msg 357 317 1;
#X text 36 34 in_player_ctl;
#X obj 35 121 route end;
#X obj 35 143 b;
#X obj 35 188 s /in/anyplay/\$1/end;
#X connect 0 0 11 0;
#X connect 4 0 1 0;
#X connect 8 0 9 0;
#X connect 9 0 3 0;
#X connect 11 0 12 0;
#X connect 12 0 13 0;
