#N canvas 1336 271 536 425 10;
#X obj 298 128 inlet statelist;
#X obj 298 275 outlet statelist;
#N canvas 1280 58 1280 940 ctl 0;
#X obj 69 877 outlet;
#X obj 69 814 list trim;
#X obj 74 50 list prepend transpose;
#X obj 84 100 list prepend state;
#X obj 74 28 r /in/samplegrain/\$1/transpose;
#X obj 84 78 r /in/samplegrain/\$1/state;
#X obj 104 178 r /in/samplegrain/\$1/predelay;
#X obj 104 200 list prepend predelay;
#X obj 124 228 r /in/samplegrain/\$1/position/random;
#X obj 124 250 list prepend position-random;
#X obj 134 278 r /in/samplegrain/\$1/density;
#X obj 134 300 list prepend density;
#X obj 144 327 r /in/samplegrain/\$1/transpose/random;
#X obj 144 349 list prepend transpose-random;
#X obj 94 128 r /in/samplegrain/\$1/attack;
#X obj 94 150 list prepend attack;
#X obj 177 381 r /in/samplegrain/\$1/sustain;
#X obj 177 403 list prepend sustain;
#X obj 200 436 r /in/samplegrain/\$1/release;
#X obj 200 458 list prepend release;
#X obj 218 501 r /in/samplegrain/\$1/sustain/random;
#X obj 218 523 list prepend sustain-random;
#X obj 218 551 r /in/samplegrain/\$1/reverse;
#X obj 218 573 list prepend reverse;
#X obj 229 600 r /in/samplegrain/\$1/density/random;
#X obj 229 622 list prepend density-random;
#X obj 237 652 r /in/samplegrain/\$1/attack/random;
#X obj 237 674 list prepend attack-random;
#X obj 257 702 r /in/samplegrain/\$1/release/random;
#X obj 257 724 list prepend release-random;
#X obj 263 756 r /in/samplegrain/\$1/delay/random;
#X obj 263 778 list prepend delay-random;
#X obj 262 807 r /in/samplegrain/\$1/sample;
#X obj 262 829 list prepend sample;
#X connect 1 0 0 0;
#X connect 2 0 1 0;
#X connect 3 0 1 0;
#X connect 4 0 2 0;
#X connect 5 0 3 0;
#X connect 6 0 7 0;
#X connect 7 0 1 0;
#X connect 8 0 9 0;
#X connect 9 0 1 0;
#X connect 10 0 11 0;
#X connect 11 0 1 0;
#X connect 12 0 13 0;
#X connect 13 0 1 0;
#X connect 14 0 15 0;
#X connect 15 0 1 0;
#X connect 16 0 17 0;
#X connect 17 0 1 0;
#X connect 18 0 19 0;
#X connect 19 0 1 0;
#X connect 20 0 21 0;
#X connect 21 0 1 0;
#X connect 22 0 23 0;
#X connect 23 0 1 0;
#X connect 24 0 25 0;
#X connect 25 0 1 0;
#X connect 26 0 27 0;
#X connect 27 0 1 0;
#X connect 28 0 29 0;
#X connect 29 0 1 0;
#X connect 30 0 31 0;
#X connect 31 0 1 0;
#X connect 32 0 33 0;
#X connect 33 0 1 0;
#X restore 60 162 pd ctl;
#X obj 60 314 outlet;
#N canvas 163 335 450 445 ds 0;
#X obj 102 127 ds_reg \$2 /in/samplegrain/\$1/transpose;
#X obj 102 147 ds_reg \$2 /in/samplegrain/\$1/state nomorph;
#X obj 102 187 ds_reg \$2 /in/samplegrain/\$1/predelay;
#X obj 102 207 ds_reg \$2 /in/samplegrain/\$1/position/random;
#X obj 102 227 ds_reg \$2 /in/samplegrain/\$1/density;
#X obj 102 107 ds_reg \$2 /in/samplegrain/\$1/transpose/random;
#X obj 102 167 ds_reg \$2 /in/samplegrain/\$1/attack;
#X obj 102 247 ds_reg \$2 /in/samplegrain/\$1/sustain;
#X obj 102 267 ds_reg \$2 /in/samplegrain/\$1/release;
#X obj 102 287 ds_reg \$2 /in/samplegrain/\$1/sustain/random;
#X obj 102 307 ds_reg \$2 /in/samplegrain/\$1/reverse;
#X obj 102 327 ds_reg \$2 /in/samplegrain/\$1/density/random;
#X obj 102 347 ds_reg \$2 /in/samplegrain/\$1/attack/random;
#X obj 102 367 ds_reg \$2 /in/samplegrain/\$1/release/random;
#X obj 102 387 ds_reg \$2 /in/samplegrain/\$1/delay/random;
#X restore 199 239 pd ds;
#N canvas 340 185 450 505 osc 0;
#X obj 102 147 osc_bi \$2 /in/samplegrain/\$1/state;
#X obj 102 127 osc_bi \$2 /in/samplegrain/\$1/transpose;
#X obj 102 187 osc_bi \$2 /in/samplegrain/\$1/predelay;
#X obj 102 207 osc_bi \$2 /in/samplegrain/\$1/position/random;
#X obj 102 227 osc_bi \$2 /in/samplegrain/\$1/density;
#X obj 102 107 osc_bi \$2 /in/samplegrain/\$1/transpose/random;
#X obj 102 167 osc_bi \$2 /in/samplegrain/\$1/attack;
#X obj 102 247 osc_bi \$2 /in/samplegrain/\$1/sustain;
#X obj 102 267 osc_bi \$2 /in/samplegrain/\$1/release;
#X obj 102 287 osc_bi \$2 /in/samplegrain/\$1/sustain/random;
#X obj 102 307 osc_bi \$2 /in/samplegrain/\$1/reverse;
#X obj 102 327 osc_bi \$2 /in/samplegrain/\$1/density/random;
#X obj 102 347 osc_bi \$2 /in/samplegrain/\$1/attack/random;
#X obj 102 367 osc_bi \$2 /in/samplegrain/\$1/release/random;
#X obj 102 387 osc_bi \$2 /in/samplegrain/\$1/delay/random;
#X obj 102 407 osc_bi \$2 /in/samplegrain/\$1/sample;
#X restore 199 259 pd osc;
#N canvas 631 334 463 456 init 0;
#X obj 136 41 loadbang;
#X obj 136 79 t b b;
#X msg 368 145 1;
#X obj 368 167 outlet;
#X obj 228 49 bng 15 250 50 0 empty empty empty 17 7 0 10 -262144 -1
-1;
#X obj 136 169 list prepend \$1 \$2 \$3;
#X msg 139 202 \; /in/samplegrain/\$1/state 0 \; /in/samplegrain/\$1/transpose
0 \; /in/samplegrain/\$1/attack 50 \; /in/samplegrain/\$1/predelay
5 \; /in/samplegrain/\$1/position/random 0 \; /in/samplegrain/\$1/transpose/random
0 \; /in/samplegrain/\$1/sustain 50 \; /in/samplegrain/\$1/release
50 \; /in/samplegrain/\$1/sustain/random 0 \; /in/samplegrain/\$1/reverse
0 \; /in/samplegrain/\$1/density 1 \; /in/samplegrain/\$1/density/random
0 \; /in/samplegrain/\$1/attack/random 0 \; /in/samplegrain/\$1/release/random
0 \; /in/samplegrain/\$1/delay/random 0 \; /in/samplegrain/\$1/sample
\$3 \;;
#X connect 0 0 1 0;
#X connect 1 0 5 0;
#X connect 1 1 2 0;
#X connect 2 0 3 0;
#X connect 4 0 1 0;
#X connect 5 0 6 0;
#X restore 421 130 pd init;
#X text 290 331 (c)2013 Marian Weger;
#X text 41 12 in_samplegrain_ctl <name> <domain> (<sample>);
#X connect 0 0 1 0;
#X connect 2 0 3 0;
#X connect 6 0 1 0;
