#N canvas 155 90 989 852 10;
#X obj 62 82 inlet;
#X obj 214 800 outlet~;
#X obj 214 775 *~;
#X obj 61 743 outlet;
#X obj 62 131 list split 1;
#X obj 169 539 cnv 15 120 150 empty empty play_sample 20 12 0 14 -233017
-66577 0;
#X obj 515 420 cnv 15 180 150 empty empty play_envelope 20 12 0 14
-233017 -66577 0;
#X obj 528 511 vline~;
#X obj 528 543 tabread4~ \$1;
#X obj 773 106 inlet;
#X text 700 710 grrrr.org 2012;
#N canvas 761 644 291 306 ramp 0;
#X obj 38 74 inlet;
#X obj 137 74 inlet;
#X obj 38 224 outlet~;
#X text 34 52 starting pos;
#X text 116 50 increase per sample;
#X text 34 16 endless ramp;
#X msg 38 154 set \$1;
#X obj 38 191 biquad~ 1 0 1 0 0;
#X connect 0 0 6 0;
#X connect 1 0 7 0;
#X connect 6 0 7 0;
#X connect 7 0 2 0;
#X restore 213 620 pd ramp;
#X text 770 132 dummy;
#X text 76 21 sample_buffer playpos(ms) attack(ms) sustain(ms) release(ms)
speed, f 83;
#X obj 222 185 unpack 0 0 0 0 0;
#X obj 213 587 f;
#X text 49 769 total duration;
#X obj 56 394 +;
#X obj 56 497 +;
#X msg 443 383 \$1 \$2 \, 0 \$3 \$4;
#X obj 443 361 pack \$2 0 0 0;
#X obj 209 686 tabread4~ \$3;
#X obj 213 452 upp.ms2s;
#X obj 62 153 t b b a;
#X obj 379 527 list prepend set;
#X obj 379 549 list trim;
#X connect 0 0 4 0;
#X connect 2 0 1 0;
#X connect 4 0 23 0;
#X connect 4 1 14 0;
#X connect 7 0 8 0;
#X connect 8 0 2 1;
#X connect 11 0 21 0;
#X connect 14 0 22 0;
#X connect 14 1 17 0;
#X connect 14 1 20 1;
#X connect 14 2 17 1;
#X connect 14 3 18 1;
#X connect 14 3 20 2;
#X connect 14 4 11 1;
#X connect 15 0 11 0;
#X connect 17 0 18 0;
#X connect 17 0 20 3;
#X connect 18 0 3 0;
#X connect 19 0 7 0;
#X connect 20 0 19 0;
#X connect 21 0 2 0;
#X connect 22 0 15 1;
#X connect 23 0 15 0;
#X connect 23 1 20 0;
#X connect 23 2 24 0;
#X connect 24 0 25 0;
#X connect 25 0 21 0;
