#N canvas 127 126 781 491 10;
#X obj 280 406 outlet statelist;
#X obj 57 418 outlet ctl;
#X obj 180 117 inlet statelist;
#X msg 397 275 1;
#N canvas 296 417 372 226 init 0;
#X obj 32 29 loadbang;
#X obj 32 51 t b b;
#X obj 150 131 outlet;
#X obj 32 93 f \$3;
#X obj 32 131 s /mix/mux/\$1;
#X connect 0 0 1 0;
#X connect 1 0 3 0;
#X connect 1 1 2 0;
#X connect 3 0 4 0;
#X restore 397 249 pd init;
#N canvas 707 323 305 197 ds 0;
#X obj 72 88 ds_reg \$2 /mix/mux/\$1;
#X restore 560 305 pd ds;
#N canvas 709 325 305 197 osc 0;
#X obj 79 87 osc_bi \$2 /mix/mux/\$1;
#X restore 560 325 pd osc;
#X text 515 383 (c)2012 Marian Weger;
#X obj 57 171 t f f;
#X obj 180 270 && 1;
#X obj 180 139 t b f;
#X obj 280 117 inlet statelist;
#X obj 280 270 && 1;
#X obj 280 139 t b f;
#X obj 280 332 ||;
#X obj 280 292 t b f;
#X text 23 23 mix_mux_ctl <name> <domain> (<init value>);
#X obj 57 139 r /mix/mux/\$1;
#X obj 149 216 == 0;
#X obj 249 216 != 0;
#X connect 2 0 10 0;
#X connect 3 0 0 0;
#X connect 4 0 3 0;
#X connect 8 0 1 0;
#X connect 8 1 18 0;
#X connect 8 1 19 0;
#X connect 9 0 14 0;
#X connect 10 0 9 0;
#X connect 10 1 9 1;
#X connect 11 0 13 0;
#X connect 12 0 15 0;
#X connect 13 0 12 0;
#X connect 13 1 12 1;
#X connect 14 0 0 0;
#X connect 15 0 14 0;
#X connect 15 1 14 1;
#X connect 17 0 8 0;
#X connect 18 0 9 0;
#X connect 19 0 12 0;
