#N canvas 135 57 893 485 10;
#X obj 619 91 inlet;
#X obj 619 167 == 0;
#X obj 659 167 != 0;
#X text 664 233 (c)2012 Marian Weger;
#X obj 64 89 inlet~;
#X obj 334 89 inlet~;
#X obj 64 359 outlet~;
#X obj 686 90 loadbang;
#X obj 686 112 float \$1;
#X obj 114 89 inlet~;
#X obj 384 89 inlet~;
#X obj 114 359 outlet~;
#X obj 164 89 inlet~;
#X obj 164 359 outlet~;
#X obj 434 89 inlet~;
#X obj 214 89 inlet~;
#X obj 214 359 outlet~;
#X obj 484 89 inlet~;
#X text 43 27 mix_mux_5~ (<init value>);
#X obj 64 247 fx_gain_5~ 0 0 0 0 0 0 0 0 0 0 0;
#X obj 334 249 fx_gain_5~ 0 0 0 0 0 0 0 0 0 0 0 0 0;
#X obj 534 89 inlet~;
#X obj 264 89 inlet~;
#X obj 264 359 outlet~;
#X connect 0 0 1 0;
#X connect 0 0 2 0;
#X connect 1 0 19 5;
#X connect 2 0 20 5;
#X connect 4 0 19 0;
#X connect 5 0 20 0;
#X connect 7 0 8 0;
#X connect 8 0 1 0;
#X connect 8 0 2 0;
#X connect 9 0 19 1;
#X connect 10 0 20 1;
#X connect 12 0 19 2;
#X connect 14 0 20 2;
#X connect 15 0 19 3;
#X connect 17 0 20 3;
#X connect 19 0 6 0;
#X connect 19 1 11 0;
#X connect 19 2 13 0;
#X connect 19 3 16 0;
#X connect 19 4 23 0;
#X connect 20 0 6 0;
#X connect 20 1 11 0;
#X connect 20 2 13 0;
#X connect 20 3 16 0;
#X connect 20 4 23 0;
#X connect 21 0 20 4;
#X connect 22 0 19 4;
