#N canvas 405 22 536 425 10;
#X obj 298 128 inlet statelist;
#X obj 298 275 outlet statelist;
#N canvas 221 168 347 445 init 0;
#X obj 32 29 loadbang;
#X obj 32 51 t b b;
#X obj 181 140 outlet;
#X obj 32 181 list prepend \$1 \$2;
#X msg 32 203 \; /mix/conv/\$1/state 1 \;;
#X connect 0 0 1 0;
#X connect 1 0 3 0;
#X connect 1 1 2 0;
#X connect 3 0 4 0;
#X restore 401 128 pd init;
#X msg 401 150 1;
#N canvas 147 151 714 479 ctl 0;
#X obj 64 435 outlet;
#X obj 64 342 list trim;
#X obj 74 108 r /mix/conv/\$1/state;
#X obj 74 130 list prepend state;
#X obj 84 180 list prepend blocksize;
#X obj 84 158 r /mix/conv/\$1/blocksize;
#X connect 1 0 0 0;
#X connect 2 0 3 0;
#X connect 3 0 1 0;
#X connect 4 0 1 0;
#X connect 5 0 4 0;
#X restore 60 162 pd ctl;
#X obj 60 314 outlet;
#N canvas 78 318 468 321 ds 0;
#X obj 61 49 ds_reg \$2 /mix/conv/\$1/state nomorph;
#X restore 205 218 pd ds;
#N canvas 200 240 468 321 osc 0;
#X obj 61 49 osc_bi \$2 /mix/conv/\$1/state nomorph;
#X obj 61 79 osc_bi \$2 /mix/conv/\$1/blocksize nomorph;
#X restore 205 238 pd osc;
#X text 288 331 (c)2013 Marian Weger;
#X text 40 12 mix_conv_ctl <name> <domain>;
#X obj 398 61 inlet;
#X connect 0 0 1 0;
#X connect 2 0 3 0;
#X connect 3 0 1 0;
#X connect 4 0 5 0;
