#N canvas 33 33 1162 569 10;
#X text 860 438 (c)2012 Marian Weger;
#X obj 64 89 inlet~;
#X obj 484 89 inlet~;
#X obj 64 449 outlet~;
#X obj 114 89 inlet~;
#X obj 534 89 inlet~;
#X obj 114 449 outlet~;
#X obj 164 89 inlet~;
#X obj 164 449 outlet~;
#X obj 584 89 inlet~;
#X obj 214 89 inlet~;
#X obj 214 449 outlet~;
#X obj 634 89 inlet~;
#X obj 684 89 inlet~;
#X obj 264 89 inlet~;
#X obj 264 449 outlet~;
#X obj 314 89 inlet~;
#X obj 314 449 outlet~;
#X obj 734 89 inlet~;
#X obj 64 377 fx_gain_8~ 0 0 0 0 0 0 0 0 0 0 0;
#X obj 484 379 fx_gain_8~ 0 0 0 0 0 0 0 0 0 0 0 0 0;
#X obj 364 89 inlet~;
#X obj 364 449 outlet~;
#X obj 414 89 inlet~;
#X obj 414 449 outlet~;
#X obj 784 89 inlet~;
#X obj 834 89 inlet~;
#X text 43 27 mix_xfade_8~ (<init value>);
#X obj 1049 92 loadbang;
#X obj 998 257 sin;
#X obj 1049 137 atan;
#X msg 1049 115 1;
#X obj 917 167 moses 0.5;
#X obj 898 235 - 0.5;
#X msg 865 235 1;
#X msg 968 235 1;
#X obj 898 280 cos;
#X obj 917 92 inlet;
#X msg 1019 115 0;
#X obj 1049 159 * 4;
#X obj 998 235 * 3.14159;
#X obj 898 258 * 3.14159;
#X obj 865 307 t f;
#X obj 968 303 t f;
#X connect 1 0 19 0;
#X connect 2 0 20 0;
#X connect 4 0 19 1;
#X connect 5 0 20 1;
#X connect 7 0 19 2;
#X connect 9 0 20 2;
#X connect 10 0 19 3;
#X connect 12 0 20 3;
#X connect 13 0 20 4;
#X connect 14 0 19 4;
#X connect 16 0 19 5;
#X connect 18 0 20 5;
#X connect 19 0 3 0;
#X connect 19 1 6 0;
#X connect 19 2 8 0;
#X connect 19 3 11 0;
#X connect 19 4 15 0;
#X connect 19 5 17 0;
#X connect 19 6 22 0;
#X connect 19 7 24 0;
#X connect 20 0 3 0;
#X connect 20 1 6 0;
#X connect 20 2 8 0;
#X connect 20 3 11 0;
#X connect 20 4 15 0;
#X connect 20 5 17 0;
#X connect 20 6 22 0;
#X connect 20 7 24 0;
#X connect 21 0 19 6;
#X connect 23 0 19 7;
#X connect 25 0 20 6;
#X connect 26 0 20 7;
#X connect 28 0 31 0;
#X connect 28 0 38 0;
#X connect 29 0 43 0;
#X connect 30 0 39 0;
#X connect 31 0 30 0;
#X connect 32 0 34 0;
#X connect 32 0 40 0;
#X connect 32 1 33 0;
#X connect 32 1 35 0;
#X connect 33 0 41 0;
#X connect 34 0 42 0;
#X connect 35 0 43 0;
#X connect 36 0 42 0;
#X connect 37 0 32 0;
#X connect 38 0 32 0;
#X connect 39 0 40 1;
#X connect 39 0 41 1;
#X connect 40 0 29 0;
#X connect 41 0 36 0;
#X connect 42 0 19 8;
#X connect 43 0 20 8;
