#N canvas 135 57 674 444 10;
#X obj 419 79 inlet;
#X obj 419 155 == 0;
#X obj 459 155 != 0;
#X text 464 221 (c)2012 Marian Weger;
#X obj 64 89 inlet~;
#X obj 234 87 inlet~;
#X obj 64 359 outlet~;
#X obj 486 78 loadbang;
#X obj 486 100 float \$1;
#X obj 114 89 inlet~;
#X obj 284 87 inlet~;
#X obj 114 359 outlet~;
#X text 43 27 mix_mux_3~ (<init value>);
#X obj 164 89 inlet~;
#X obj 164 359 outlet~;
#X obj 334 87 inlet~;
#X obj 64 247 fx_gain_3~;
#X obj 234 247 fx_gain_3~;
#X connect 0 0 1 0;
#X connect 0 0 2 0;
#X connect 1 0 16 3;
#X connect 2 0 17 3;
#X connect 4 0 16 0;
#X connect 5 0 17 0;
#X connect 7 0 8 0;
#X connect 8 0 1 0;
#X connect 8 0 2 0;
#X connect 9 0 16 1;
#X connect 10 0 17 1;
#X connect 13 0 16 2;
#X connect 15 0 17 2;
#X connect 16 0 6 0;
#X connect 16 1 11 0;
#X connect 16 2 14 0;
#X connect 17 0 6 0;
#X connect 17 1 11 0;
#X connect 17 2 14 0;
