#N canvas 135 57 569 603 10;
#X text 258 519 (c)2012 Marian Weger;
#X obj 447 126 loadbang;
#X obj 396 291 sin;
#X obj 447 171 atan;
#X msg 447 149 1;
#X obj 315 201 moses 0.5;
#X obj 296 269 - 0.5;
#X msg 263 269 1;
#X msg 366 269 1;
#X obj 296 314 cos;
#X text 40 12 mix_xfade~;
#X obj 315 126 inlet;
#X msg 417 149 0;
#X obj 447 193 * 4;
#X obj 396 269 * 3.14159;
#X obj 296 292 * 3.14159;
#X obj 38 470 fx_gain~;
#X obj 263 341 t f;
#X obj 109 470 fx_gain~;
#X obj 366 337 t f;
#X obj 38 42 inlet~;
#X obj 109 42 inlet~;
#X obj 38 531 outlet~;
#X connect 1 0 4 0;
#X connect 1 0 12 0;
#X connect 2 0 19 0;
#X connect 3 0 13 0;
#X connect 4 0 3 0;
#X connect 5 0 7 0;
#X connect 5 0 14 0;
#X connect 5 1 6 0;
#X connect 5 1 8 0;
#X connect 6 0 15 0;
#X connect 7 0 17 0;
#X connect 8 0 19 0;
#X connect 9 0 17 0;
#X connect 11 0 5 0;
#X connect 12 0 5 0;
#X connect 13 0 14 1;
#X connect 13 0 15 1;
#X connect 14 0 2 0;
#X connect 15 0 9 0;
#X connect 16 0 22 0;
#X connect 17 0 16 1;
#X connect 18 0 22 0;
#X connect 19 0 18 1;
#X connect 20 0 16 0;
#X connect 21 0 18 0;
