#N canvas 1 51 1276 687 10;
#X obj 4024 92 inlet;
#X obj 4024 168 == 0;
#X obj 4064 178 != 0;
#X obj 64 89 inlet~;
#X obj 1039 89 inlet~;
#X obj 64 639 outlet~;
#X obj 4091 101 loadbang;
#X obj 4091 123 float \$1;
#X obj 104 89 inlet~;
#X obj 1079 89 inlet~;
#X obj 114 639 outlet~;
#X obj 144 89 inlet~;
#X obj 164 639 outlet~;
#X obj 1119 89 inlet~;
#X obj 184 89 inlet~;
#X obj 214 639 outlet~;
#X obj 1159 89 inlet~;
#X obj 1199 89 inlet~;
#X obj 224 89 inlet~;
#X obj 264 639 outlet~;
#X obj 264 89 inlet~;
#X obj 314 639 outlet~;
#X obj 1239 89 inlet~;
#X obj 304 89 inlet~;
#X obj 364 639 outlet~;
#X obj 344 89 inlet~;
#X obj 414 639 outlet~;
#X obj 1279 89 inlet~;
#X obj 1319 89 inlet~;
#X obj 464 639 outlet~;
#X obj 514 639 outlet~;
#X obj 564 639 outlet~;
#X obj 614 639 outlet~;
#X obj 664 639 outlet~;
#X obj 714 639 outlet~;
#X obj 764 639 outlet~;
#X obj 814 639 outlet~;
#X obj 864 639 outlet~;
#X obj 914 639 outlet~;
#X obj 964 639 outlet~;
#X obj 1014 639 outlet~;
#X obj 1064 639 outlet~;
#X obj 1114 639 outlet~;
#X obj 1164 639 outlet~;
#X obj 1214 639 outlet~;
#X text 80 688 (c)2013 Marian Weger;
#X obj 384 89 inlet~;
#X obj 424 89 inlet~;
#X obj 464 89 inlet~;
#X obj 504 89 inlet~;
#X obj 544 89 inlet~;
#X obj 584 89 inlet~;
#X obj 624 89 inlet~;
#X obj 664 89 inlet~;
#X obj 704 89 inlet~;
#X obj 744 89 inlet~;
#X obj 784 89 inlet~;
#X obj 824 89 inlet~;
#X obj 864 89 inlet~;
#X obj 904 89 inlet~;
#X obj 944 89 inlet~;
#X obj 984 89 inlet~;
#X obj 1359 89 inlet~;
#X obj 1399 89 inlet~;
#X obj 1439 89 inlet~;
#X obj 1479 89 inlet~;
#X obj 1519 89 inlet~;
#X obj 1559 89 inlet~;
#X obj 1599 89 inlet~;
#X obj 1639 89 inlet~;
#X obj 1679 89 inlet~;
#X obj 1719 89 inlet~;
#X obj 1759 89 inlet~;
#X obj 1799 89 inlet~;
#X obj 1839 89 inlet~;
#X obj 1879 89 inlet~;
#X obj 1919 89 inlet~;
#X obj 1959 89 inlet~;
#X text 43 27 mix_mux_48~ (<init value>);
#X obj 64 419 fx_gain_24~ 0 0 0 0 0 0 0 0 0 0 0 0 0 0 0 0 0 0 0 0 0
0 0 0;
#X obj 883 419 fx_gain_24~ 0 0 0 0 0 0 0 0 0 0 0 0 0 0 0 0 0 0 0 0
0 0 0 0;
#X obj 2014 89 inlet~;
#X obj 2989 89 inlet~;
#X obj 2014 639 outlet~;
#X obj 2054 89 inlet~;
#X obj 3029 89 inlet~;
#X obj 2064 639 outlet~;
#X obj 2094 89 inlet~;
#X obj 2114 639 outlet~;
#X obj 3069 89 inlet~;
#X obj 2134 89 inlet~;
#X obj 2164 639 outlet~;
#X obj 3109 89 inlet~;
#X obj 3149 89 inlet~;
#X obj 2174 89 inlet~;
#X obj 2214 639 outlet~;
#X obj 2214 89 inlet~;
#X obj 2264 639 outlet~;
#X obj 3189 89 inlet~;
#X obj 2254 89 inlet~;
#X obj 2314 639 outlet~;
#X obj 2294 89 inlet~;
#X obj 2364 639 outlet~;
#X obj 3229 89 inlet~;
#X obj 3269 89 inlet~;
#X obj 2414 639 outlet~;
#X obj 2464 639 outlet~;
#X obj 2514 639 outlet~;
#X obj 2564 639 outlet~;
#X obj 2614 639 outlet~;
#X obj 2664 639 outlet~;
#X obj 2714 639 outlet~;
#X obj 2764 639 outlet~;
#X obj 2814 639 outlet~;
#X obj 2864 639 outlet~;
#X obj 2914 639 outlet~;
#X obj 2964 639 outlet~;
#X obj 3014 639 outlet~;
#X obj 3064 639 outlet~;
#X obj 3114 639 outlet~;
#X obj 3164 639 outlet~;
#X obj 2334 89 inlet~;
#X obj 2374 89 inlet~;
#X obj 2414 89 inlet~;
#X obj 2454 89 inlet~;
#X obj 2494 89 inlet~;
#X obj 2534 89 inlet~;
#X obj 2574 89 inlet~;
#X obj 2614 89 inlet~;
#X obj 2654 89 inlet~;
#X obj 2694 89 inlet~;
#X obj 2734 89 inlet~;
#X obj 2774 89 inlet~;
#X obj 2814 89 inlet~;
#X obj 2854 89 inlet~;
#X obj 2894 89 inlet~;
#X obj 2934 89 inlet~;
#X obj 3309 89 inlet~;
#X obj 3349 89 inlet~;
#X obj 3389 89 inlet~;
#X obj 3429 89 inlet~;
#X obj 3469 89 inlet~;
#X obj 3509 89 inlet~;
#X obj 3549 89 inlet~;
#X obj 3589 89 inlet~;
#X obj 3629 89 inlet~;
#X obj 3669 89 inlet~;
#X obj 3709 89 inlet~;
#X obj 3749 89 inlet~;
#X obj 3789 89 inlet~;
#X obj 3829 89 inlet~;
#X obj 3869 89 inlet~;
#X obj 3909 89 inlet~;
#X obj 2014 419 fx_gain_24~ 0 0 0 0 0 0 0 0 0 0 0 0 0 0 0 0 0 0 0 0
0 0 0 0;
#X obj 2833 419 fx_gain_24~ 0 0 0 0 0 0 0 0 0 0 0 0 0 0 0 0 0 0 0 0
0 0 0 0;
#X connect 0 0 1 0;
#X connect 0 0 2 0;
#X connect 1 0 79 24;
#X connect 1 0 153 24;
#X connect 2 0 80 24;
#X connect 2 0 154 24;
#X connect 3 0 79 0;
#X connect 4 0 80 0;
#X connect 6 0 7 0;
#X connect 7 0 1 0;
#X connect 7 0 2 0;
#X connect 8 0 79 1;
#X connect 9 0 80 1;
#X connect 11 0 79 2;
#X connect 13 0 80 2;
#X connect 14 0 79 3;
#X connect 16 0 80 3;
#X connect 17 0 80 4;
#X connect 18 0 79 4;
#X connect 20 0 79 5;
#X connect 22 0 80 5;
#X connect 23 0 79 6;
#X connect 25 0 79 7;
#X connect 27 0 80 6;
#X connect 28 0 80 7;
#X connect 46 0 79 8;
#X connect 47 0 79 9;
#X connect 48 0 79 10;
#X connect 49 0 79 11;
#X connect 50 0 79 12;
#X connect 51 0 79 13;
#X connect 52 0 79 14;
#X connect 53 0 79 15;
#X connect 54 0 79 16;
#X connect 55 0 79 17;
#X connect 56 0 79 18;
#X connect 57 0 79 19;
#X connect 58 0 79 20;
#X connect 59 0 79 21;
#X connect 60 0 79 22;
#X connect 61 0 79 23;
#X connect 62 0 80 8;
#X connect 63 0 80 9;
#X connect 64 0 80 10;
#X connect 65 0 80 11;
#X connect 66 0 80 12;
#X connect 67 0 80 13;
#X connect 68 0 80 14;
#X connect 69 0 80 15;
#X connect 70 0 80 16;
#X connect 71 0 80 17;
#X connect 72 0 80 18;
#X connect 73 0 80 19;
#X connect 74 0 80 20;
#X connect 75 0 80 21;
#X connect 76 0 80 22;
#X connect 77 0 80 23;
#X connect 79 0 5 0;
#X connect 79 1 10 0;
#X connect 79 2 12 0;
#X connect 79 3 15 0;
#X connect 79 4 19 0;
#X connect 79 5 21 0;
#X connect 79 6 24 0;
#X connect 79 7 26 0;
#X connect 79 8 29 0;
#X connect 79 9 30 0;
#X connect 79 10 31 0;
#X connect 79 11 32 0;
#X connect 79 12 33 0;
#X connect 79 13 34 0;
#X connect 79 14 35 0;
#X connect 79 15 36 0;
#X connect 79 16 37 0;
#X connect 79 17 38 0;
#X connect 79 18 39 0;
#X connect 79 19 40 0;
#X connect 79 20 41 0;
#X connect 79 21 42 0;
#X connect 79 22 43 0;
#X connect 79 23 44 0;
#X connect 80 0 5 0;
#X connect 80 1 10 0;
#X connect 80 2 12 0;
#X connect 80 3 15 0;
#X connect 80 4 19 0;
#X connect 80 5 21 0;
#X connect 80 6 24 0;
#X connect 80 7 26 0;
#X connect 80 8 29 0;
#X connect 80 9 30 0;
#X connect 80 10 31 0;
#X connect 80 11 32 0;
#X connect 80 12 33 0;
#X connect 80 13 34 0;
#X connect 80 14 35 0;
#X connect 80 15 36 0;
#X connect 80 16 37 0;
#X connect 80 17 38 0;
#X connect 80 18 39 0;
#X connect 80 19 40 0;
#X connect 80 20 41 0;
#X connect 80 21 42 0;
#X connect 80 22 43 0;
#X connect 80 23 44 0;
#X connect 81 0 153 0;
#X connect 82 0 154 0;
#X connect 84 0 153 1;
#X connect 85 0 154 1;
#X connect 87 0 153 2;
#X connect 89 0 154 2;
#X connect 90 0 153 3;
#X connect 92 0 154 3;
#X connect 93 0 154 4;
#X connect 94 0 153 4;
#X connect 96 0 153 5;
#X connect 98 0 154 5;
#X connect 99 0 153 6;
#X connect 101 0 153 7;
#X connect 103 0 154 6;
#X connect 104 0 154 7;
#X connect 121 0 153 8;
#X connect 122 0 153 9;
#X connect 123 0 153 10;
#X connect 124 0 153 11;
#X connect 125 0 153 12;
#X connect 126 0 153 13;
#X connect 127 0 153 14;
#X connect 128 0 153 15;
#X connect 129 0 153 16;
#X connect 130 0 153 17;
#X connect 131 0 153 18;
#X connect 132 0 153 19;
#X connect 133 0 153 20;
#X connect 134 0 153 21;
#X connect 135 0 153 22;
#X connect 136 0 153 23;
#X connect 137 0 154 8;
#X connect 138 0 154 9;
#X connect 139 0 154 10;
#X connect 140 0 154 11;
#X connect 141 0 154 12;
#X connect 142 0 154 13;
#X connect 143 0 154 14;
#X connect 144 0 154 15;
#X connect 145 0 154 16;
#X connect 146 0 154 17;
#X connect 147 0 154 18;
#X connect 148 0 154 19;
#X connect 149 0 154 20;
#X connect 150 0 154 21;
#X connect 151 0 154 22;
#X connect 152 0 154 23;
#X connect 153 0 83 0;
#X connect 153 1 86 0;
#X connect 153 2 88 0;
#X connect 153 3 91 0;
#X connect 153 4 95 0;
#X connect 153 5 97 0;
#X connect 153 6 100 0;
#X connect 153 7 102 0;
#X connect 153 8 105 0;
#X connect 153 9 106 0;
#X connect 153 10 107 0;
#X connect 153 11 108 0;
#X connect 153 12 109 0;
#X connect 153 13 110 0;
#X connect 153 14 111 0;
#X connect 153 15 112 0;
#X connect 153 16 113 0;
#X connect 153 17 114 0;
#X connect 153 18 115 0;
#X connect 153 19 116 0;
#X connect 153 20 117 0;
#X connect 153 21 118 0;
#X connect 153 22 119 0;
#X connect 153 23 120 0;
#X connect 154 0 83 0;
#X connect 154 1 86 0;
#X connect 154 2 88 0;
#X connect 154 3 91 0;
#X connect 154 4 95 0;
#X connect 154 5 97 0;
#X connect 154 6 100 0;
#X connect 154 7 102 0;
#X connect 154 8 105 0;
#X connect 154 9 106 0;
#X connect 154 10 107 0;
#X connect 154 11 108 0;
#X connect 154 12 109 0;
#X connect 154 13 110 0;
#X connect 154 14 111 0;
#X connect 154 15 112 0;
#X connect 154 16 113 0;
#X connect 154 17 114 0;
#X connect 154 18 115 0;
#X connect 154 19 116 0;
#X connect 154 20 117 0;
#X connect 154 21 118 0;
#X connect 154 22 119 0;
#X connect 154 23 120 0;
