#N canvas 135 57 438 479 10;
#X obj 239 149 inlet;
#X obj 109 275 == 0;
#X obj 189 275 != 0;
#X text 119 99 non zero: 2nd inlet to outlet;
#X text 119 79 0: 1st inlet to outlet;
#X text 223 361 (c)2012 Marian Weger;
#X obj 64 149 inlet~;
#X obj 144 147 inlet~;
#X obj 64 359 outlet~;
#X obj 144 307 fx_gain~;
#X obj 64 307 fx_gain~;
#X obj 256 198 loadbang;
#X obj 256 220 float \$1;
#X text 43 27 mix_mux~ (<init value>);
#X connect 0 0 1 0;
#X connect 0 0 2 0;
#X connect 1 0 10 1;
#X connect 2 0 9 1;
#X connect 6 0 10 0;
#X connect 7 0 9 0;
#X connect 9 0 8 0;
#X connect 10 0 8 0;
#X connect 11 0 12 0;
#X connect 12 0 1 0;
#X connect 12 0 2 0;
