#N canvas 135 57 893 485 10;
#X obj 699 91 inlet;
#X obj 699 167 == 0;
#X obj 739 167 != 0;
#X text 744 233 (c)2012 Marian Weger;
#X obj 64 89 inlet~;
#X obj 374 89 inlet~;
#X obj 64 359 outlet~;
#X obj 766 90 loadbang;
#X obj 766 112 float \$1;
#X obj 114 89 inlet~;
#X obj 424 89 inlet~;
#X obj 114 359 outlet~;
#X obj 164 89 inlet~;
#X obj 164 359 outlet~;
#X obj 474 89 inlet~;
#X obj 214 89 inlet~;
#X obj 214 359 outlet~;
#X obj 524 89 inlet~;
#X obj 574 89 inlet~;
#X obj 264 89 inlet~;
#X obj 264 359 outlet~;
#X text 43 27 mix_mux_6~ (<init value>);
#X obj 314 89 inlet~;
#X obj 314 359 outlet~;
#X obj 624 89 inlet~;
#X obj 64 247 fx_gain_6~ 0 0 0 0 0 0 0 0 0 0 0;
#X obj 374 249 fx_gain_6~ 0 0 0 0 0 0 0 0 0 0 0 0 0;
#X connect 0 0 1 0;
#X connect 0 0 2 0;
#X connect 1 0 25 6;
#X connect 2 0 26 6;
#X connect 4 0 25 0;
#X connect 5 0 26 0;
#X connect 7 0 8 0;
#X connect 8 0 1 0;
#X connect 8 0 2 0;
#X connect 9 0 25 1;
#X connect 10 0 26 1;
#X connect 12 0 25 2;
#X connect 14 0 26 2;
#X connect 15 0 25 3;
#X connect 17 0 26 3;
#X connect 18 0 26 4;
#X connect 19 0 25 4;
#X connect 22 0 25 5;
#X connect 24 0 26 5;
#X connect 25 0 6 0;
#X connect 25 1 11 0;
#X connect 25 2 13 0;
#X connect 25 3 16 0;
#X connect 25 4 20 0;
#X connect 25 5 23 0;
#X connect 26 0 6 0;
#X connect 26 1 11 0;
#X connect 26 2 13 0;
#X connect 26 3 16 0;
#X connect 26 4 20 0;
#X connect 26 5 23 0;
