#N canvas 135 57 674 444 10;
#X obj 499 89 inlet;
#X obj 499 165 == 0;
#X obj 539 165 != 0;
#X text 544 231 (c)2012 Marian Weger;
#X obj 64 89 inlet~;
#X obj 274 87 inlet~;
#X obj 64 359 outlet~;
#X obj 566 88 loadbang;
#X obj 566 110 float \$1;
#X obj 114 89 inlet~;
#X obj 324 87 inlet~;
#X obj 114 359 outlet~;
#X obj 164 89 inlet~;
#X obj 164 359 outlet~;
#X obj 374 87 inlet~;
#X text 43 27 mix_mux_4~ (<init value>);
#X obj 214 89 inlet~;
#X obj 214 359 outlet~;
#X obj 424 87 inlet~;
#X obj 64 247 fx_gain_4~;
#X obj 274 247 fx_gain_4~;
#X connect 0 0 1 0;
#X connect 0 0 2 0;
#X connect 1 0 19 4;
#X connect 2 0 20 4;
#X connect 4 0 19 0;
#X connect 5 0 20 0;
#X connect 7 0 8 0;
#X connect 8 0 1 0;
#X connect 8 0 2 0;
#X connect 9 0 19 1;
#X connect 10 0 20 1;
#X connect 12 0 19 2;
#X connect 14 0 20 2;
#X connect 16 0 19 3;
#X connect 18 0 20 3;
#X connect 19 0 6 0;
#X connect 19 1 11 0;
#X connect 19 2 13 0;
#X connect 19 3 17 0;
#X connect 20 0 6 0;
#X connect 20 1 11 0;
#X connect 20 2 13 0;
#X connect 20 3 17 0;
