#N canvas 135 57 438 479 10;
#X obj 289 139 inlet;
#X obj 289 215 == 0;
#X obj 329 215 != 0;
#X text 223 361 (c)2012 Marian Weger;
#X obj 64 149 inlet~;
#X obj 164 147 inlet~;
#X obj 64 359 outlet~;
#X obj 356 138 loadbang;
#X obj 356 160 float \$1;
#X obj 64 307 fx_gain_2~;
#X obj 164 307 fx_gain_2~;
#X obj 114 149 inlet~;
#X obj 214 147 inlet~;
#X obj 114 359 outlet~;
#X text 43 27 mix_mux_2~ (<init value>);
#X connect 0 0 1 0;
#X connect 0 0 2 0;
#X connect 1 0 9 2;
#X connect 2 0 10 2;
#X connect 4 0 9 0;
#X connect 5 0 10 0;
#X connect 7 0 8 0;
#X connect 8 0 1 0;
#X connect 8 0 2 0;
#X connect 9 0 6 0;
#X connect 9 1 13 0;
#X connect 10 0 6 0;
#X connect 10 1 13 0;
#X connect 11 0 9 1;
#X connect 12 0 10 1;
