#N canvas 70 22 1052 708 10;
#X obj 39 89 inlet~;
#X obj 151 502 outlet~;
#X obj 796 207 s \$0-blocksize;
#X obj 796 89 inlet;
#X text 370 561 (c)2012 Marian Weger;
#X text 40 33 mix_conv~;
#X obj 796 114 route blocksize state;
#X obj 856 158 s \$0-state;
#X obj 234 85 inlet~;
#N canvas 172 29 770 673 conv 0;
#X obj 167 592 *~;
#X obj 182 567 tabreceive~ \$0-hann;
#X obj 167 208 *~;
#X obj 182 184 tabreceive~ \$0-hann;
#X text 203 207 multiply by window;
#X text 200 592 multiply by window;
#X obj 167 127 inlet~;
#X obj 167 746 outlet~;
#X obj 167 715 *~;
#X obj 182 668 pack 0 5;
#X obj 182 690 line~;
#X obj 182 640 t f f;
#X obj 251 668 1del0 15;
#X obj 182 616 r \$0-state;
#X obj 457 208 *~;
#X obj 472 184 tabreceive~ \$0-hann;
#X text 493 207 multiply by window;
#X obj 457 127 inlet~;
#X obj 167 255 rfft~;
#X obj 457 255 rfft~;
#X obj 167 533 rifft~;
#X obj 167 483 /~ 768;
#X obj 230 483 /~ 768;
#X obj 535 398 r \$0-blocksize;
#X obj 535 430 * 3;
#X obj 535 452 / 2;
#X text 567 441 3/2: normalization for Hann window and overlap-4;
#X text 630 398 N;
#X text 443 501 divide by 3N/2 for normalisation;
#X obj 167 317 *~;
#X obj 227 317 *~;
#X obj 167 349 -~;
#X obj 277 317 *~;
#X obj 337 317 *~;
#X obj 277 349 +~;
#X text 405 313 complex multiplication;
#X obj 342 723 block~ 512 4 1;
#X msg 342 699 set \$1 4 1;
#X obj 342 675 r \$0-blocksize;
#X text 682 81 create Hann-window at startup;
#N canvas 559 123 637 509 hann-window 0;
#N canvas 0 22 450 300 (subpatch) 0;
#X array \$0-hann 512 float 0;
#X coords 0 1 511 0 200 120 1;
#X restore 403 213 graph;
#X msg 181 333 0;
#X obj 75 382 osc~;
#X obj 75 334 samplerate~;
#X obj 75 415 *~ -0.5;
#X obj 75 438 +~ 0.5;
#X obj 57 473 tabwrite~ \$0-hann;
#X text 389 205 1;
#X text 382 323 0;
#X text 398 336 0;
#X obj 57 263 bng 15 250 50 0 empty empty empty 0 -6 0 8 -262144 -1
-1;
#X text 446 185 Hann window;
#X msg 79 199 \; pd dsp 1;
#X obj 192 87 r \$0-blocksize;
#X text 223 190 overlap-4;
#X obj 192 211 t b f;
#X obj 192 189 / 4;
#X obj 192 109 t f f;
#X obj 219 154 s \$0-hann;
#X msg 219 131 resize \$1;
#X text 290 131 resize window to new block size;
#X text 116 384 oscillator with period = 1 block;
#X text 286 87 N;
#X text 594 339 N-1;
#X text 132 416 invert & scale;
#X text 123 439 offset;
#X text 211 333 reset phase;
#X text 171 474 write 1 block to table;
#X text 245 285 RECALCULATE;
#X obj 57 146 loadbang;
#X obj 75 358 / 128;
#X obj 57 168 t b b;
#X obj 57 289 t b b b;
#X connect 1 0 2 1;
#X connect 2 0 4 0;
#X connect 3 0 30 0;
#X connect 4 0 5 0;
#X connect 5 0 6 0;
#X connect 10 0 32 0;
#X connect 13 0 17 0;
#X connect 15 0 10 0;
#X connect 15 1 30 1;
#X connect 16 0 15 0;
#X connect 17 0 16 0;
#X connect 17 1 19 0;
#X connect 19 0 18 0;
#X connect 29 0 31 0;
#X connect 30 0 2 0;
#X connect 31 0 10 0;
#X connect 31 1 12 0;
#X connect 32 0 6 0;
#X connect 32 1 3 0;
#X connect 32 2 1 0;
#X restore 684 105 pd hann-window;
#X text 348 632 --- set block size ---;
#X connect 0 0 8 0;
#X connect 1 0 0 1;
#X connect 2 0 18 0;
#X connect 3 0 2 1;
#X connect 6 0 2 0;
#X connect 8 0 7 0;
#X connect 9 0 10 0;
#X connect 10 0 8 1;
#X connect 11 0 9 0;
#X connect 11 1 12 0;
#X connect 12 0 36 0;
#X connect 13 0 11 0;
#X connect 14 0 19 0;
#X connect 15 0 14 1;
#X connect 17 0 14 0;
#X connect 18 0 29 0;
#X connect 18 0 32 0;
#X connect 18 1 30 0;
#X connect 18 1 33 0;
#X connect 19 0 29 1;
#X connect 19 0 33 1;
#X connect 19 1 30 1;
#X connect 19 1 32 1;
#X connect 20 0 0 0;
#X connect 21 0 20 0;
#X connect 22 0 20 1;
#X connect 23 0 24 0;
#X connect 24 0 25 0;
#X connect 25 0 22 1;
#X connect 25 0 21 1;
#X connect 29 0 31 0;
#X connect 30 0 31 1;
#X connect 31 0 21 0;
#X connect 32 0 34 0;
#X connect 33 0 34 1;
#X connect 34 0 22 0;
#X connect 37 0 36 0;
#X connect 38 0 37 0;
#X restore 225 293 pd conv;
#X obj 77 309 fx_gain~;
#X obj 122 254 r \$0-state;
#X obj 122 276 == 0;
#X connect 0 0 9 0;
#X connect 0 0 10 0;
#X connect 3 0 6 0;
#X connect 6 0 2 0;
#X connect 6 1 7 0;
#X connect 8 0 9 1;
#X connect 9 0 1 0;
#X connect 10 0 1 0;
#X connect 11 0 12 0;
#X connect 12 0 10 1;
