#N canvas 33 33 1084 569 10;
#X obj 916 89 inlet;
#X obj 916 165 == 0;
#X obj 956 165 != 0;
#X text 940 255 (c)2012 Marian Weger;
#X obj 64 89 inlet~;
#X obj 484 89 inlet~;
#X obj 64 359 outlet~;
#X obj 983 88 loadbang;
#X obj 983 110 float \$1;
#X obj 114 89 inlet~;
#X obj 534 89 inlet~;
#X obj 114 359 outlet~;
#X obj 164 89 inlet~;
#X obj 164 359 outlet~;
#X obj 584 89 inlet~;
#X obj 214 89 inlet~;
#X obj 214 359 outlet~;
#X obj 634 89 inlet~;
#X obj 684 89 inlet~;
#X obj 264 89 inlet~;
#X obj 264 359 outlet~;
#X obj 314 89 inlet~;
#X obj 314 359 outlet~;
#X obj 734 89 inlet~;
#X text 43 27 mix_mux_8~ (<init value>);
#X obj 64 247 fx_gain_8~ 0 0 0 0 0 0 0 0 0 0 0;
#X obj 484 249 fx_gain_8~ 0 0 0 0 0 0 0 0 0 0 0 0 0;
#X obj 364 89 inlet~;
#X obj 364 359 outlet~;
#X obj 414 89 inlet~;
#X obj 414 359 outlet~;
#X obj 784 89 inlet~;
#X obj 834 89 inlet~;
#X connect 0 0 1 0;
#X connect 0 0 2 0;
#X connect 1 0 25 8;
#X connect 2 0 26 8;
#X connect 4 0 25 0;
#X connect 5 0 26 0;
#X connect 7 0 8 0;
#X connect 8 0 1 0;
#X connect 8 0 2 0;
#X connect 9 0 25 1;
#X connect 10 0 26 1;
#X connect 12 0 25 2;
#X connect 14 0 26 2;
#X connect 15 0 25 3;
#X connect 17 0 26 3;
#X connect 18 0 26 4;
#X connect 19 0 25 4;
#X connect 21 0 25 5;
#X connect 23 0 26 5;
#X connect 25 0 6 0;
#X connect 25 1 11 0;
#X connect 25 2 13 0;
#X connect 25 3 16 0;
#X connect 25 4 20 0;
#X connect 25 5 22 0;
#X connect 25 6 28 0;
#X connect 25 7 30 0;
#X connect 26 0 6 0;
#X connect 26 1 11 0;
#X connect 26 2 13 0;
#X connect 26 3 16 0;
#X connect 26 4 20 0;
#X connect 26 5 22 0;
#X connect 26 6 28 0;
#X connect 26 7 30 0;
#X connect 27 0 25 6;
#X connect 29 0 25 7;
#X connect 31 0 26 6;
#X connect 32 0 26 7;
