#N canvas 135 57 689 489 10;
#X text 503 345 (c)2012 Marian Weger;
#X obj 64 89 inlet~;
#X obj 274 87 inlet~;
#X obj 64 399 outlet~;
#X obj 114 89 inlet~;
#X obj 324 87 inlet~;
#X obj 114 399 outlet~;
#X obj 164 89 inlet~;
#X obj 164 399 outlet~;
#X obj 374 87 inlet~;
#X obj 214 89 inlet~;
#X obj 214 399 outlet~;
#X obj 424 87 inlet~;
#X obj 64 337 fx_gain_4~;
#X obj 274 337 fx_gain_4~;
#X text 43 27 mix_xfade_4~ (<init value>);
#X obj 625 76 loadbang;
#X obj 574 241 sin;
#X obj 625 121 atan;
#X msg 625 99 1;
#X obj 493 151 moses 0.5;
#X obj 474 219 - 0.5;
#X msg 441 219 1;
#X msg 544 219 1;
#X obj 474 264 cos;
#X obj 493 76 inlet;
#X msg 595 99 0;
#X obj 625 143 * 4;
#X obj 574 219 * 3.14159;
#X obj 474 242 * 3.14159;
#X obj 441 291 t f;
#X obj 544 287 t f;
#X connect 1 0 13 0;
#X connect 2 0 14 0;
#X connect 4 0 13 1;
#X connect 5 0 14 1;
#X connect 7 0 13 2;
#X connect 9 0 14 2;
#X connect 10 0 13 3;
#X connect 12 0 14 3;
#X connect 13 0 3 0;
#X connect 13 1 6 0;
#X connect 13 2 8 0;
#X connect 13 3 11 0;
#X connect 14 0 3 0;
#X connect 14 1 6 0;
#X connect 14 2 8 0;
#X connect 14 3 11 0;
#X connect 16 0 19 0;
#X connect 16 0 26 0;
#X connect 17 0 31 0;
#X connect 18 0 27 0;
#X connect 19 0 18 0;
#X connect 20 0 22 0;
#X connect 20 0 28 0;
#X connect 20 1 21 0;
#X connect 20 1 23 0;
#X connect 21 0 29 0;
#X connect 22 0 30 0;
#X connect 23 0 31 0;
#X connect 24 0 30 0;
#X connect 25 0 20 0;
#X connect 26 0 20 0;
#X connect 27 0 28 1;
#X connect 27 0 29 1;
#X connect 28 0 17 0;
#X connect 29 0 24 0;
#X connect 30 0 13 4;
#X connect 31 0 14 4;
