#N canvas 328 195 419 410 10;
#X obj 72 65 inlet;
#X obj 72 192 moses 0;
#X obj 181 294 line 0 100;
#X obj 181 336 outlet;
#X text 50 372 (c)2013 Marian Weger;
#X obj 181 142 t f f;
#X obj 181 203 pack 0 0;
#X obj 226 172 * 2000;
#X obj 232 98 loadbang;
#X obj 232 120 float \$1;
#X obj 232 142 sel 0;
#X obj 302 98 loadbang;
#X obj 302 142 sel 0;
#X obj 302 120 float \$2;
#X text 32 31 msg_decay (<time> <grain_rate>);
#X msg 181 224 \$1 \, 0 \$2;
#X connect 0 0 1 0;
#X connect 1 1 5 0;
#X connect 2 0 1 1;
#X connect 2 0 3 0;
#X connect 5 0 6 0;
#X connect 5 1 7 0;
#X connect 6 0 15 0;
#X connect 7 0 6 1;
#X connect 8 0 9 0;
#X connect 9 0 10 0;
#X connect 10 1 7 1;
#X connect 11 0 13 0;
#X connect 13 0 12 0;
#X connect 15 0 2 0;
