#N canvas 0 58 1280 940 10;
#X obj 73 81 \$1~;
#X obj 123 81 \$1~;
#X obj 69 196 throw~ \$2/1;
#X obj 123 173 throw~ \$2/2;
#X obj 173 81 \$1~;
#X obj 223 81 \$1~;
#X obj 273 81 \$1~;
#X obj 323 81 \$1~;
#X obj 373 81 \$1~;
#X obj 423 81 \$1~;
#X obj 173 173 throw~ \$2/3;
#X obj 223 173 throw~ \$2/4;
#X obj 273 173 throw~ \$2/5;
#X obj 323 173 throw~ \$2/6;
#X obj 373 173 throw~ \$2/7;
#X obj 423 173 throw~ \$2/8;
#X obj 543 81 \$1~;
#X obj 603 81 \$1~;
#X obj 663 81 \$1~;
#X obj 723 81 \$1~;
#X obj 783 81 \$1~;
#X obj 843 81 \$1~;
#X obj 903 81 \$1~;
#X obj 483 173 throw~ \$2/9;
#X obj 543 173 throw~ \$2/10;
#X obj 603 173 throw~ \$2/11;
#X obj 663 173 throw~ \$2/12;
#X obj 723 173 throw~ \$2/13;
#X obj 783 173 throw~ \$2/14;
#X obj 843 173 throw~ \$2/15;
#X obj 903 173 throw~ \$2/16;
#X obj 963 81 \$1~;
#X obj 1023 81 \$1~;
#X obj 1083 81 \$1~;
#X obj 1143 81 \$1~;
#X obj 1203 81 \$1~;
#X obj 1263 81 \$1~;
#X obj 1323 81 \$1~;
#X obj 1383 81 \$1~;
#X obj 963 173 throw~ \$2/17;
#X obj 1023 173 throw~ \$2/18;
#X obj 1083 173 throw~ \$2/19;
#X obj 1143 173 throw~ \$2/20;
#X obj 1203 173 throw~ \$2/21;
#X obj 1263 173 throw~ \$2/22;
#X obj 1323 103 throw~ \$2/23;
#X obj 1383 103 throw~ \$2/24;
#X text 63 253 2015 Marian Weger;
#X obj 1449 81 \$1~;
#X obj 1499 81 \$1~;
#X obj 1549 81 \$1~;
#X obj 1599 81 \$1~;
#X obj 1649 81 \$1~;
#X obj 1699 81 \$1~;
#X obj 1749 81 \$1~;
#X obj 1799 81 \$1~;
#X obj 1859 81 \$1~;
#X obj 1919 81 \$1~;
#X obj 1979 81 \$1~;
#X obj 2039 81 \$1~;
#X obj 2099 81 \$1~;
#X obj 2159 81 \$1~;
#X obj 2219 81 \$1~;
#X obj 2279 81 \$1~;
#X obj 2339 81 \$1~;
#X obj 2399 81 \$1~;
#X obj 2459 81 \$1~;
#X obj 2519 81 \$1~;
#X obj 2579 81 \$1~;
#X obj 2639 81 \$1~;
#X obj 2699 81 \$1~;
#X obj 2759 81 \$1~;
#X obj 1449 103 throw~ \$2/25;
#X obj 1499 103 throw~ \$2/26;
#X obj 1549 103 throw~ \$2/27;
#X obj 1599 103 throw~ \$2/28;
#X obj 1649 103 throw~ \$2/29;
#X obj 1699 103 throw~ \$2/30;
#X obj 1749 103 throw~ \$2/31;
#X obj 1799 103 throw~ \$2/32;
#X obj 1859 103 throw~ \$2/33;
#X obj 1919 103 throw~ \$2/34;
#X obj 1979 103 throw~ \$2/35;
#X obj 2039 103 throw~ \$2/36;
#X obj 2099 103 throw~ \$2/37;
#X obj 2159 103 throw~ \$2/38;
#X obj 2219 103 throw~ \$2/39;
#X obj 2279 103 throw~ \$2/40;
#X obj 2339 103 throw~ \$2/41;
#X obj 2399 103 throw~ \$2/42;
#X obj 2459 103 throw~ \$2/43;
#X obj 2519 103 throw~ \$2/44;
#X obj 2579 103 throw~ \$2/45;
#X obj 2639 103 throw~ \$2/46;
#X obj 2699 103 throw~ \$2/47;
#X obj 2759 103 throw~ \$2/48;
#X text 45 24 noise_t_48~ <object> <bus name>;
#X obj 478 78 \$1~;
#X obj 2819 230 inlet;
#X obj 2775 351 switch~;
#X obj 2775 329 1del0 15;
#X obj 2819 252 f;
#X connect 0 0 2 0;
#X connect 1 0 3 0;
#X connect 4 0 10 0;
#X connect 5 0 11 0;
#X connect 6 0 12 0;
#X connect 7 0 13 0;
#X connect 8 0 14 0;
#X connect 9 0 15 0;
#X connect 16 0 24 0;
#X connect 17 0 25 0;
#X connect 18 0 26 0;
#X connect 19 0 27 0;
#X connect 20 0 28 0;
#X connect 21 0 29 0;
#X connect 22 0 30 0;
#X connect 31 0 39 0;
#X connect 32 0 40 0;
#X connect 33 0 41 0;
#X connect 34 0 42 0;
#X connect 35 0 43 0;
#X connect 36 0 44 0;
#X connect 37 0 45 0;
#X connect 38 0 46 0;
#X connect 48 0 72 0;
#X connect 49 0 73 0;
#X connect 50 0 74 0;
#X connect 51 0 75 0;
#X connect 52 0 76 0;
#X connect 53 0 77 0;
#X connect 54 0 78 0;
#X connect 55 0 79 0;
#X connect 56 0 80 0;
#X connect 57 0 81 0;
#X connect 58 0 82 0;
#X connect 59 0 83 0;
#X connect 60 0 84 0;
#X connect 61 0 85 0;
#X connect 62 0 86 0;
#X connect 63 0 87 0;
#X connect 64 0 88 0;
#X connect 65 0 89 0;
#X connect 66 0 90 0;
#X connect 67 0 91 0;
#X connect 68 0 92 0;
#X connect 69 0 93 0;
#X connect 70 0 94 0;
#X connect 71 0 95 0;
#X connect 97 0 23 0;
#X connect 98 0 101 0;
#X connect 100 0 99 0;
#X connect 101 0 100 0;
