#N canvas 1280 58 1280 940 10;
#X obj 34 649 outlet~;
#X obj 84 649 outlet~;
#X obj 134 649 outlet~;
#X obj 184 649 outlet~;
#X obj 234 649 outlet~;
#X obj 284 649 outlet~;
#X obj 334 649 outlet~;
#X obj 384 649 outlet~;
#X obj 434 649 outlet~;
#X obj 484 649 outlet~;
#X obj 534 649 outlet~;
#X obj 584 649 outlet~;
#X obj 634 649 outlet~;
#X obj 684 649 outlet~;
#X obj 734 649 outlet~;
#X obj 784 649 outlet~;
#X obj 834 649 outlet~;
#X obj 884 649 outlet~;
#X obj 934 649 outlet~;
#X obj 984 649 outlet~;
#X obj 1034 649 outlet~;
#X obj 1084 649 outlet~;
#X obj 1134 649 outlet~;
#X obj 1184 649 outlet~;
#X obj 2560 106 change 1;
#X text 69 687 (c)2015 Marian Weger;
#X obj 1244 649 outlet~;
#X obj 1294 649 outlet~;
#X obj 1344 649 outlet~;
#X obj 1394 649 outlet~;
#X obj 1444 649 outlet~;
#X obj 1494 649 outlet~;
#X obj 1544 649 outlet~;
#X obj 1594 649 outlet~;
#X obj 1644 649 outlet~;
#X obj 1694 649 outlet~;
#X obj 1744 649 outlet~;
#X obj 1794 649 outlet~;
#X obj 1844 649 outlet~;
#X obj 1894 649 outlet~;
#X obj 1944 649 outlet~;
#X obj 1994 649 outlet~;
#X obj 2044 649 outlet~;
#X obj 2094 649 outlet~;
#X obj 2144 649 outlet~;
#X obj 2194 649 outlet~;
#X obj 2244 649 outlet~;
#X obj 2294 649 outlet~;
#X obj 2344 649 outlet~;
#X obj 2394 649 outlet~;
#X obj 2638 183 switch~;
#X obj 2629 266 outlet statelist;
#X obj 2483 37 inlet statelist;
#X text 42 14 pipe_in_m_48~ <name> <domain> <type> (<arg1> <arg2> ...)
;
#X obj 2483 75 in_\$3_ctl \$1 \$2 \$4 \$5 \$6 \$7 \$8 \$9;
#X obj 34 167 in_\$3~ 1 \$4 \$5 \$6 \$7 \$8 \$9 \$10 \$11 \$12;
#X obj 84 187 in_\$3~ 2 \$4 \$5 \$6 \$7 \$8 \$9 \$10 \$11 \$12;
#X obj 134 207 in_\$3~ 3 \$4 \$5 \$6 \$7 \$8 \$9 \$10 \$11 \$12;
#X obj 184 227 in_\$3~ 4 \$4 \$5 \$6 \$7 \$8 \$9 \$10 \$11 \$12;
#X obj 234 247 in_\$3~ 5 \$4 \$5 \$6 \$7 \$8 \$9 \$10 \$11 \$12;
#X obj 285 267 in_\$3~ 6 \$4 \$5 \$6 \$7 \$8 \$9 \$10 \$11 \$12;
#X obj 334 287 in_\$3~ 7 \$4 \$5 \$6 \$7 \$8 \$9 \$10 \$11 \$12;
#X obj 384 307 in_\$3~ 8 \$4 \$5 \$6 \$7 \$8 \$9 \$10 \$11 \$12;
#X obj 434 327 in_\$3~ 9 \$4 \$5 \$6 \$7 \$8 \$9 \$10 \$11 \$12;
#X obj 482 347 in_\$3~ 10 \$4 \$5 \$6 \$7 \$8 \$9 \$10 \$11 \$12;
#X obj 533 367 in_\$3~ 11 \$4 \$5 \$6 \$7 \$8 \$9 \$10 \$11 \$12;
#X obj 584 387 in_\$3~ 12 \$4 \$5 \$6 \$7 \$8 \$9 \$10 \$11 \$12;
#X obj 634 407 in_\$3~ 13 \$4 \$5 \$6 \$7 \$8 \$9 \$10 \$11 \$12;
#X obj 683 426 in_\$3~ 14 \$4 \$5 \$6 \$7 \$8 \$9 \$10 \$11 \$12;
#X obj 734 447 in_\$3~ 15 \$4 \$5 \$6 \$7 \$8 \$9 \$10 \$11 \$12;
#X obj 784 467 in_\$3~ 16 \$4 \$5 \$6 \$7 \$8 \$9 \$10 \$11 \$12;
#X obj 834 487 in_\$3~ 17 \$4 \$5 \$6 \$7 \$8 \$9 \$10 \$11 \$12;
#X obj 884 507 in_\$3~ 18 \$4 \$5 \$6 \$7 \$8 \$9 \$10 \$11 \$12;
#X obj 934 527 in_\$3~ 19 \$4 \$5 \$6 \$7 \$8 \$9 \$10 \$11 \$12;
#X obj 984 547 in_\$3~ 20 \$4 \$5 \$6 \$7 \$8 \$9 \$10 \$11 \$12;
#X obj 1034 567 in_\$3~ 21 \$4 \$5 \$6 \$7 \$8 \$9 \$10 \$11 \$12;
#X obj 1084 587 in_\$3~ 22 \$4 \$5 \$6 \$7 \$8 \$9 \$10 \$11 \$12;
#X obj 1134 607 in_\$3~ 23 \$4 \$5 \$6 \$7 \$8 \$9 \$10 \$11 \$12;
#X obj 1184 627 in_\$3~ 24 \$4 \$5 \$6 \$7 \$8 \$9 \$10 \$11 \$12;
#X obj 1242 167 in_\$3~ 25 \$4 \$5 \$6 \$7 \$8 \$9 \$10 \$11 \$12;
#X obj 1294 187 in_\$3~ 26 \$4 \$5 \$6 \$7 \$8 \$9 \$10 \$11 \$12;
#X obj 1344 208 in_\$3~ 27 \$4 \$5 \$6 \$7 \$8 \$9 \$10 \$11 \$12;
#X obj 1394 227 in_\$3~ 28 \$4 \$5 \$6 \$7 \$8 \$9 \$10 \$11 \$12;
#X obj 1444 247 in_\$3~ 29 \$4 \$5 \$6 \$7 \$8 \$9 \$10 \$11 \$12;
#X obj 1494 267 in_\$3~ 30 \$4 \$5 \$6 \$7 \$8 \$9 \$10 \$11 \$12;
#X obj 1544 287 in_\$3~ 31 \$4 \$5 \$6 \$7 \$8 \$9 \$10 \$11 \$12;
#X obj 1594 307 in_\$3~ 32 \$4 \$5 \$6 \$7 \$8 \$9 \$10 \$11 \$12;
#X obj 1644 327 in_\$3~ 33 \$4 \$5 \$6 \$7 \$8 \$9 \$10 \$11 \$12;
#X obj 1694 348 in_\$3~ 34 \$4 \$5 \$6 \$7 \$8 \$9 \$10 \$11 \$12;
#X obj 1744 367 in_\$3~ 35 \$4 \$5 \$6 \$7 \$8 \$9 \$10 \$11 \$12;
#X obj 1794 387 in_\$3~ 36 \$4 \$5 \$6 \$7 \$8 \$9 \$10 \$11 \$12;
#X obj 1844 407 in_\$3~ 37 \$4 \$5 \$6 \$7 \$8 \$9 \$10 \$11 \$12;
#X obj 1894 427 in_\$3~ 38 \$4 \$5 \$6 \$7 \$8 \$9 \$10 \$11 \$12;
#X obj 1944 447 in_\$3~ 39 \$4 \$5 \$6 \$7 \$8 \$9 \$10 \$11 \$12;
#X obj 1994 467 in_\$3~ 40 \$4 \$5 \$6 \$7 \$8 \$9 \$10 \$11 \$12;
#X obj 2045 486 in_\$3~ 41 \$4 \$5 \$6 \$7 \$8 \$9 \$10 \$11 \$12;
#X obj 2094 507 in_\$3~ 42 \$4 \$5 \$6 \$7 \$8 \$9 \$10 \$11 \$12;
#X obj 2146 527 in_\$3~ 43 \$4 \$5 \$6 \$7 \$8 \$9 \$10 \$11 \$12;
#X obj 2194 547 in_\$3~ 44 \$4 \$5 \$6 \$7 \$8 \$9 \$10 \$11 \$12;
#X obj 2244 567 in_\$3~ 45 \$4 \$5 \$6 \$7 \$8 \$9 \$10 \$11 \$12;
#X obj 2294 587 in_\$3~ 46 \$4 \$5 \$6 \$7 \$8 \$9 \$10 \$11 \$12;
#X obj 2344 607 in_\$3~ 47 \$4 \$5 \$6 \$7 \$8 \$9 \$10 \$11 \$12;
#X obj 2392 627 in_\$3~ 48 \$4 \$5 \$6 \$7 \$8 \$9 \$10 \$11 \$12;
#X connect 24 0 51 0;
#X connect 52 0 54 0;
#X connect 54 0 55 1;
#X connect 54 0 56 1;
#X connect 54 0 57 1;
#X connect 54 0 58 1;
#X connect 54 0 59 1;
#X connect 54 0 60 1;
#X connect 54 0 61 1;
#X connect 54 0 62 1;
#X connect 54 0 63 1;
#X connect 54 0 64 1;
#X connect 54 0 65 1;
#X connect 54 0 66 1;
#X connect 54 0 67 1;
#X connect 54 0 68 1;
#X connect 54 0 69 1;
#X connect 54 0 70 1;
#X connect 54 0 71 1;
#X connect 54 0 72 1;
#X connect 54 0 73 1;
#X connect 54 0 74 1;
#X connect 54 0 75 1;
#X connect 54 0 76 1;
#X connect 54 0 77 1;
#X connect 54 0 78 1;
#X connect 54 0 79 1;
#X connect 54 0 80 1;
#X connect 54 0 81 1;
#X connect 54 0 82 1;
#X connect 54 0 83 1;
#X connect 54 0 84 1;
#X connect 54 0 85 1;
#X connect 54 0 86 1;
#X connect 54 0 87 1;
#X connect 54 0 88 1;
#X connect 54 0 89 1;
#X connect 54 0 90 1;
#X connect 54 0 91 1;
#X connect 54 0 92 1;
#X connect 54 0 93 1;
#X connect 54 0 94 1;
#X connect 54 0 95 1;
#X connect 54 0 96 1;
#X connect 54 0 97 1;
#X connect 54 0 98 1;
#X connect 54 0 99 1;
#X connect 54 0 100 1;
#X connect 54 0 101 1;
#X connect 54 0 102 1;
#X connect 54 1 24 0;
#X connect 54 1 50 0;
#X connect 55 0 0 0;
#X connect 56 0 1 0;
#X connect 57 0 2 0;
#X connect 58 0 3 0;
#X connect 59 0 4 0;
#X connect 60 0 5 0;
#X connect 61 0 6 0;
#X connect 62 0 7 0;
#X connect 63 0 8 0;
#X connect 64 0 9 0;
#X connect 65 0 10 0;
#X connect 66 0 11 0;
#X connect 67 0 12 0;
#X connect 68 0 13 0;
#X connect 69 0 14 0;
#X connect 70 0 15 0;
#X connect 71 0 16 0;
#X connect 72 0 17 0;
#X connect 73 0 18 0;
#X connect 74 0 19 0;
#X connect 75 0 20 0;
#X connect 76 0 21 0;
#X connect 77 0 22 0;
#X connect 78 0 23 0;
#X connect 79 0 26 0;
#X connect 80 0 27 0;
#X connect 81 0 28 0;
#X connect 82 0 29 0;
#X connect 83 0 30 0;
#X connect 84 0 31 0;
#X connect 85 0 32 0;
#X connect 86 0 33 0;
#X connect 87 0 34 0;
#X connect 88 0 35 0;
#X connect 89 0 36 0;
#X connect 90 0 37 0;
#X connect 91 0 38 0;
#X connect 92 0 39 0;
#X connect 93 0 40 0;
#X connect 94 0 41 0;
#X connect 95 0 42 0;
#X connect 96 0 43 0;
#X connect 97 0 44 0;
#X connect 98 0 45 0;
#X connect 99 0 46 0;
#X connect 100 0 47 0;
#X connect 101 0 48 0;
#X connect 102 0 49 0;
