#N canvas 1 51 1278 687 10;
#X obj 2485 176 inlet statelist;
#X obj 2625 455 outlet statelist;
#X obj 2639 408 switch~;
#X obj 2625 432 change 1;
#X obj 2640 341 t b f;
#X obj 2625 372 && 1;
#X obj 70 149 inlet~ \$3/2;
#X obj 120 179 inlet~ \$3/3;
#X obj 170 149 inlet~ \$3/4;
#X obj 220 179 inlet~ \$3/5;
#X obj 270 149 inlet~ \$3/6;
#X obj 320 179 inlet~ \$3/7;
#X obj 370 149 inlet~ \$3/8;
#X obj 420 179 inlet~ \$3/9;
#X obj 470 149 inlet~ \$3/10;
#X obj 520 179 inlet~ \$3/11;
#X obj 570 149 inlet~ \$3/12;
#X obj 620 179 inlet~ \$3/13;
#X obj 670 149 inlet~ \$3/14;
#X obj 720 179 inlet~ \$3/15;
#X obj 770 149 inlet~ \$3/16;
#X obj 820 179 inlet~ \$3/17;
#X obj 870 149 inlet~ \$3/18;
#X obj 920 179 inlet~ \$3/19;
#X obj 970 149 inlet~ \$3/20;
#X obj 1020 179 inlet~ \$3/21;
#X obj 1070 149 inlet~ \$3/22;
#X obj 1120 179 inlet~ \$3/23;
#X obj 1170 149 inlet~ \$3/24;
#X obj 20 588 s~ \$3/1;
#X obj 70 608 s~ \$3/2;
#X obj 120 588 s~ \$3/3;
#X obj 170 608 s~ \$3/4;
#X obj 220 588 s~ \$3/5;
#X obj 270 608 s~ \$3/6;
#X obj 320 588 s~ \$3/7;
#X obj 370 608 s~ \$3/8;
#X obj 420 588 s~ \$3/9;
#X obj 470 608 s~ \$3/10;
#X obj 520 588 s~ \$3/11;
#X obj 570 608 s~ \$3/12;
#X obj 620 588 s~ \$3/13;
#X obj 670 608 s~ \$3/14;
#X obj 720 588 s~ \$3/15;
#X obj 770 608 s~ \$3/16;
#X obj 820 588 s~ \$3/17;
#X obj 870 608 s~ \$3/18;
#X obj 920 588 s~ \$3/19;
#X obj 970 608 s~ \$3/20;
#X obj 1020 588 s~ \$3/21;
#X obj 1070 608 s~ \$3/22;
#X obj 1120 588 s~ \$3/23;
#X obj 1170 608 s~ \$3/24;
#X obj 374 648 outlet;
#X obj 20 179 inlet~ \$3/1;
#X obj 1238 179 inlet~ \$3/25;
#X obj 1288 149 inlet~ \$3/26;
#X obj 1338 179 inlet~ \$3/27;
#X obj 1388 149 inlet~ \$3/28;
#X obj 1438 179 inlet~ \$3/29;
#X obj 1488 149 inlet~ \$3/30;
#X obj 1538 179 inlet~ \$3/31;
#X obj 1588 149 inlet~ \$3/32;
#X obj 1638 179 inlet~ \$3/33;
#X obj 1688 149 inlet~ \$3/34;
#X obj 1738 179 inlet~ \$3/35;
#X obj 1788 149 inlet~ \$3/36;
#X obj 1838 179 inlet~ \$3/37;
#X obj 1888 149 inlet~ \$3/38;
#X obj 1938 179 inlet~ \$3/39;
#X obj 1988 149 inlet~ \$3/40;
#X obj 2038 179 inlet~ \$3/41;
#X obj 2088 149 inlet~ \$3/42;
#X obj 2138 179 inlet~ \$3/43;
#X obj 2188 149 inlet~ \$3/44;
#X obj 2238 179 inlet~ \$3/45;
#X obj 2288 149 inlet~ \$3/46;
#X obj 2338 179 inlet~ \$3/47;
#X obj 2388 149 inlet~ \$3/48;
#X obj 1274 588 s~ \$3/25;
#X obj 1324 608 s~ \$3/26;
#X obj 1374 588 s~ \$3/27;
#X obj 1424 608 s~ \$3/28;
#X obj 1474 588 s~ \$3/29;
#X obj 1524 608 s~ \$3/30;
#X obj 1574 588 s~ \$3/31;
#X obj 1624 608 s~ \$3/32;
#X obj 1674 588 s~ \$3/33;
#X obj 1724 608 s~ \$3/34;
#X obj 1774 588 s~ \$3/35;
#X obj 1824 608 s~ \$3/36;
#X obj 1924 608 s~ \$3/38;
#X obj 1974 588 s~ \$3/39;
#X obj 2024 608 s~ \$3/40;
#X obj 2074 588 s~ \$3/41;
#X obj 2124 608 s~ \$3/42;
#X obj 2174 588 s~ \$3/43;
#X obj 2224 608 s~ \$3/44;
#X obj 2274 588 s~ \$3/45;
#X obj 2324 608 s~ \$3/46;
#X obj 2374 588 s~ \$3/47;
#X obj 2424 608 s~ \$3/48;
#X text 102 644 (c)2015 Marian Weger;
#X text 20 100 pipe_fx_s_48~ <name> <domain> <target> <fx> (<arg1>
<arg2> ...);
#X obj 1311 466 fx_\$4_48~ \$5 \$6 \$7 \$8 \$9 \$10 \$11 \$12 \$13
\$14 \$15 \$16, f 113;
#X obj 2485 213 fx_\$4_ctl \$1 \$2 \$5 \$6 \$7 \$8 \$9 \$10 \$11 \$12
;
#X obj 1874 588 s~ \$3/37;
#X connect 0 0 105 0;
#X connect 3 0 1 0;
#X connect 4 0 5 0;
#X connect 4 1 5 1;
#X connect 5 0 3 0;
#X connect 5 0 2 0;
#X connect 6 0 104 1;
#X connect 7 0 104 2;
#X connect 8 0 104 3;
#X connect 9 0 104 4;
#X connect 10 0 104 5;
#X connect 11 0 104 6;
#X connect 12 0 104 7;
#X connect 13 0 104 8;
#X connect 14 0 104 9;
#X connect 15 0 104 10;
#X connect 16 0 104 11;
#X connect 17 0 104 12;
#X connect 18 0 104 13;
#X connect 19 0 104 14;
#X connect 20 0 104 15;
#X connect 21 0 104 16;
#X connect 22 0 104 17;
#X connect 23 0 104 18;
#X connect 24 0 104 19;
#X connect 25 0 104 20;
#X connect 26 0 104 21;
#X connect 27 0 104 22;
#X connect 28 0 104 23;
#X connect 54 0 104 0;
#X connect 55 0 104 24;
#X connect 56 0 104 25;
#X connect 57 0 104 26;
#X connect 58 0 104 27;
#X connect 59 0 104 28;
#X connect 60 0 104 29;
#X connect 61 0 104 30;
#X connect 62 0 104 31;
#X connect 63 0 104 32;
#X connect 64 0 104 33;
#X connect 65 0 104 34;
#X connect 66 0 104 35;
#X connect 67 0 104 36;
#X connect 68 0 104 37;
#X connect 69 0 104 38;
#X connect 70 0 104 39;
#X connect 71 0 104 40;
#X connect 72 0 104 41;
#X connect 73 0 104 42;
#X connect 74 0 104 43;
#X connect 75 0 104 44;
#X connect 76 0 104 45;
#X connect 77 0 104 46;
#X connect 78 0 104 47;
#X connect 104 0 29 0;
#X connect 104 1 30 0;
#X connect 104 2 31 0;
#X connect 104 3 32 0;
#X connect 104 4 33 0;
#X connect 104 5 34 0;
#X connect 104 6 35 0;
#X connect 104 7 36 0;
#X connect 104 8 37 0;
#X connect 104 9 38 0;
#X connect 104 10 39 0;
#X connect 104 11 40 0;
#X connect 104 12 41 0;
#X connect 104 13 42 0;
#X connect 104 14 43 0;
#X connect 104 15 44 0;
#X connect 104 16 45 0;
#X connect 104 17 46 0;
#X connect 104 18 47 0;
#X connect 104 19 48 0;
#X connect 104 20 49 0;
#X connect 104 21 50 0;
#X connect 104 22 51 0;
#X connect 104 23 52 0;
#X connect 104 24 79 0;
#X connect 104 25 80 0;
#X connect 104 26 81 0;
#X connect 104 27 82 0;
#X connect 104 28 83 0;
#X connect 104 29 84 0;
#X connect 104 30 85 0;
#X connect 104 31 86 0;
#X connect 104 32 87 0;
#X connect 104 33 88 0;
#X connect 104 34 89 0;
#X connect 104 35 90 0;
#X connect 104 36 106 0;
#X connect 104 37 91 0;
#X connect 104 38 92 0;
#X connect 104 39 93 0;
#X connect 104 40 94 0;
#X connect 104 41 95 0;
#X connect 104 42 96 0;
#X connect 104 43 97 0;
#X connect 104 44 98 0;
#X connect 104 45 99 0;
#X connect 104 46 100 0;
#X connect 104 47 101 0;
#X connect 104 48 4 0;
#X connect 105 0 104 48;
#X connect 105 1 5 0;
#X coords 0 687 1 686 85 60 0;
