#N canvas 391 281 545 374 10;
#X text 102 311 (c)2012 Marian Weger;
#X obj 356 330 outlet statelist;
#X obj 371 278 switch~;
#X obj 161 146 inlet statelist;
#X obj 356 307 change 1;
#X obj 366 215 t b f;
#X obj 356 245 && 1;
#X obj 20 205 fx_\$5~ \$6 \$7 \$8 \$9 \$10 \$11 \$12 \$13 \$14 \$15
\$16;
#X obj 161 173 fx_\$5_ctl \$1 \$2 \$6 \$7 \$8 \$9 \$10 \$11 \$12 \$13
\$14 \$15 \$16;
#X obj 59 120 inlet;
#X obj 40 289 outlet;
#X obj 20 146 r~ \$3;
#X obj 20 255 throw~ \$4;
#X text 20 77 pipe_fx_tr~ <name> <domain> <source> <target> <fx> (<arg1>
<arg2> ...);
#X connect 3 0 8 0;
#X connect 4 0 1 0;
#X connect 5 0 6 0;
#X connect 5 1 6 1;
#X connect 6 0 4 0;
#X connect 6 0 2 0;
#X connect 7 0 12 0;
#X connect 7 1 5 0;
#X connect 8 0 7 1;
#X connect 8 1 6 0;
#X connect 11 0 7 0;
#X coords 0 374 1 373 85 60 0;
