#N canvas 0 58 1280 940 10;
#X obj 34 37 inlet~;
#X obj 34 649 outlet~;
#X obj 84 37 inlet~;
#X obj 84 649 outlet~;
#X obj 134 37 inlet~;
#X obj 134 649 outlet~;
#X obj 184 37 inlet~;
#X obj 184 649 outlet~;
#X obj 234 37 inlet~;
#X obj 234 649 outlet~;
#X obj 284 37 inlet~;
#X obj 284 649 outlet~;
#X obj 334 37 inlet~;
#X obj 334 649 outlet~;
#X obj 384 37 inlet~;
#X obj 384 649 outlet~;
#X obj 434 37 inlet~;
#X obj 434 649 outlet~;
#X obj 484 37 inlet~;
#X obj 484 649 outlet~;
#X obj 534 37 inlet~;
#X obj 534 649 outlet~;
#X obj 584 37 inlet~;
#X obj 584 649 outlet~;
#X obj 634 37 inlet~;
#X obj 634 649 outlet~;
#X obj 684 37 inlet~;
#X obj 684 649 outlet~;
#X obj 734 37 inlet~;
#X obj 734 649 outlet~;
#X obj 784 37 inlet~;
#X obj 784 649 outlet~;
#X obj 834 37 inlet~;
#X obj 834 649 outlet~;
#X obj 884 37 inlet~;
#X obj 884 649 outlet~;
#X obj 934 37 inlet~;
#X obj 934 649 outlet~;
#X obj 984 37 inlet~;
#X obj 984 649 outlet~;
#X obj 1034 37 inlet~;
#X obj 1034 649 outlet~;
#X obj 1084 37 inlet~;
#X obj 1084 649 outlet~;
#X obj 1134 37 inlet~;
#X obj 1134 649 outlet~;
#X obj 1184 37 inlet~;
#X obj 1184 649 outlet~;
#X obj 2560 106 change 1;
#X text 69 687 (c)2015 Marian Weger;
#X obj 1244 37 inlet~;
#X obj 1244 649 outlet~;
#X obj 1294 37 inlet~;
#X obj 1294 649 outlet~;
#X obj 1344 37 inlet~;
#X obj 1344 649 outlet~;
#X obj 1394 37 inlet~;
#X obj 1394 649 outlet~;
#X obj 1444 37 inlet~;
#X obj 1444 649 outlet~;
#X obj 1494 37 inlet~;
#X obj 1494 649 outlet~;
#X obj 1544 37 inlet~;
#X obj 1544 649 outlet~;
#X obj 1594 37 inlet~;
#X obj 1594 649 outlet~;
#X obj 1644 37 inlet~;
#X obj 1644 649 outlet~;
#X obj 1694 37 inlet~;
#X obj 1694 649 outlet~;
#X obj 1744 37 inlet~;
#X obj 1744 649 outlet~;
#X obj 1794 37 inlet~;
#X obj 1794 649 outlet~;
#X obj 1844 37 inlet~;
#X obj 1844 649 outlet~;
#X obj 1894 37 inlet~;
#X obj 1894 649 outlet~;
#X obj 1944 37 inlet~;
#X obj 1944 649 outlet~;
#X obj 1994 37 inlet~;
#X obj 1994 649 outlet~;
#X obj 2044 37 inlet~;
#X obj 2044 649 outlet~;
#X obj 2094 37 inlet~;
#X obj 2094 649 outlet~;
#X obj 2144 37 inlet~;
#X obj 2144 649 outlet~;
#X obj 2194 37 inlet~;
#X obj 2194 649 outlet~;
#X obj 2244 37 inlet~;
#X obj 2244 649 outlet~;
#X obj 2294 37 inlet~;
#X obj 2294 649 outlet~;
#X obj 2344 37 inlet~;
#X obj 2344 649 outlet~;
#X obj 2394 37 inlet~;
#X obj 2394 649 outlet~;
#X obj 2638 183 switch~;
#X obj 2629 266 outlet statelist;
#X obj 2483 37 inlet statelist;
#X text 42 14 pipe_fx_m_48~ <name> <domain> <fx> (<arg1> <arg2> ...)
;
#X obj 2483 75 fx_\$3_ctl \$1 \$2 \$4 \$5 \$6 \$7 \$8 \$9;
#X obj 34 167 fx_\$3~ 1 \$4 \$5 \$6 \$7 \$8 \$9 \$10 \$11 \$12;
#X obj 84 187 fx_\$3~ 2 \$4 \$5 \$6 \$7 \$8 \$9 \$10 \$11 \$12;
#X obj 133 206 fx_\$3~ 3 \$4 \$5 \$6 \$7 \$8 \$9 \$10 \$11 \$12;
#X obj 184 227 fx_\$3~ 4 \$4 \$5 \$6 \$7 \$8 \$9 \$10 \$11 \$12;
#X obj 234 247 fx_\$3~ 5 \$4 \$5 \$6 \$7 \$8 \$9 \$10 \$11 \$12;
#X obj 285 267 fx_\$3~ 6 \$4 \$5 \$6 \$7 \$8 \$9 \$10 \$11 \$12;
#X obj 334 287 fx_\$3~ 7 \$4 \$5 \$6 \$7 \$8 \$9 \$10 \$11 \$12;
#X obj 384 307 fx_\$3~ 8 \$4 \$5 \$6 \$7 \$8 \$9 \$10 \$11 \$12;
#X obj 434 327 fx_\$3~ 9 \$4 \$5 \$6 \$7 \$8 \$9 \$10 \$11 \$12;
#X obj 484 347 fx_\$3~ 10 \$4 \$5 \$6 \$7 \$8 \$9 \$10 \$11 \$12;
#X obj 534 367 fx_\$3~ 11 \$4 \$5 \$6 \$7 \$8 \$9 \$10 \$11 \$12;
#X obj 584 387 fx_\$3~ 12 \$4 \$5 \$6 \$7 \$8 \$9 \$10 \$11 \$12;
#X obj 634 407 fx_\$3~ 13 \$4 \$5 \$6 \$7 \$8 \$9 \$10 \$11 \$12;
#X obj 683 426 fx_\$3~ 14 \$4 \$5 \$6 \$7 \$8 \$9 \$10 \$11 \$12;
#X obj 734 447 fx_\$3~ 15 \$4 \$5 \$6 \$7 \$8 \$9 \$10 \$11 \$12;
#X obj 784 467 fx_\$3~ 16 \$4 \$5 \$6 \$7 \$8 \$9 \$10 \$11 \$12;
#X obj 834 487 fx_\$3~ 17 \$4 \$5 \$6 \$7 \$8 \$9 \$10 \$11 \$12;
#X obj 884 506 fx_\$3~ 18 \$4 \$5 \$6 \$7 \$8 \$9 \$10 \$11 \$12;
#X obj 934 527 fx_\$3~ 19 \$4 \$5 \$6 \$7 \$8 \$9 \$10 \$11 \$12;
#X obj 984 547 fx_\$3~ 20 \$4 \$5 \$6 \$7 \$8 \$9 \$10 \$11 \$12;
#X obj 1034 567 fx_\$3~ 21 \$4 \$5 \$6 \$7 \$8 \$9 \$10 \$11 \$12;
#X obj 1082 587 fx_\$3~ 22 \$4 \$5 \$6 \$7 \$8 \$9 \$10 \$11 \$12;
#X obj 1134 607 fx_\$3~ 23 \$4 \$5 \$6 \$7 \$8 \$9 \$10 \$11 \$12;
#X obj 1184 627 fx_\$3~ 24 \$4 \$5 \$6 \$7 \$8 \$9 \$10 \$11 \$12;
#X obj 1242 167 fx_\$3~ 25 \$4 \$5 \$6 \$7 \$8 \$9 \$10 \$11 \$12;
#X obj 1294 187 fx_\$3~ 26 \$4 \$5 \$6 \$7 \$8 \$9 \$10 \$11 \$12;
#X obj 1344 208 fx_\$3~ 27 \$4 \$5 \$6 \$7 \$8 \$9 \$10 \$11 \$12;
#X obj 1394 227 fx_\$3~ 28 \$4 \$5 \$6 \$7 \$8 \$9 \$10 \$11 \$12;
#X obj 1444 247 fx_\$3~ 29 \$4 \$5 \$6 \$7 \$8 \$9 \$10 \$11 \$12;
#X obj 1494 267 fx_\$3~ 30 \$4 \$5 \$6 \$7 \$8 \$9 \$10 \$11 \$12;
#X obj 1543 287 fx_\$3~ 31 \$4 \$5 \$6 \$7 \$8 \$9 \$10 \$11 \$12;
#X obj 1594 307 fx_\$3~ 32 \$4 \$5 \$6 \$7 \$8 \$9 \$10 \$11 \$12;
#X obj 1644 327 fx_\$3~ 33 \$4 \$5 \$6 \$7 \$8 \$9 \$10 \$11 \$12;
#X obj 1694 348 fx_\$3~ 34 \$4 \$5 \$6 \$7 \$8 \$9 \$10 \$11 \$12;
#X obj 1744 367 fx_\$3~ 35 \$4 \$5 \$6 \$7 \$8 \$9 \$10 \$11 \$12;
#X obj 1794 387 fx_\$3~ 36 \$4 \$5 \$6 \$7 \$8 \$9 \$10 \$11 \$12;
#X obj 1844 407 fx_\$3~ 37 \$4 \$5 \$6 \$7 \$8 \$9 \$10 \$11 \$12;
#X obj 1894 427 fx_\$3~ 38 \$4 \$5 \$6 \$7 \$8 \$9 \$10 \$11 \$12;
#X obj 1944 447 fx_\$3~ 39 \$4 \$5 \$6 \$7 \$8 \$9 \$10 \$11 \$12;
#X obj 1994 467 fx_\$3~ 40 \$4 \$5 \$6 \$7 \$8 \$9 \$10 \$11 \$12;
#X obj 2044 487 fx_\$3~ 41 \$4 \$5 \$6 \$7 \$8 \$9 \$10 \$11 \$12;
#X obj 2094 507 fx_\$3~ 42 \$4 \$5 \$6 \$7 \$8 \$9 \$10 \$11 \$12;
#X obj 2146 527 fx_\$3~ 43 \$4 \$5 \$6 \$7 \$8 \$9 \$10 \$11 \$12;
#X obj 2194 547 fx_\$3~ 44 \$4 \$5 \$6 \$7 \$8 \$9 \$10 \$11 \$12;
#X obj 2244 567 fx_\$3~ 45 \$4 \$5 \$6 \$7 \$8 \$9 \$10 \$11 \$12;
#X obj 2294 587 fx_\$3~ 46 \$4 \$5 \$6 \$7 \$8 \$9 \$10 \$11 \$12;
#X obj 2344 607 fx_\$3~ 47 \$4 \$5 \$6 \$7 \$8 \$9 \$10 \$11 \$12;
#X obj 2392 627 fx_\$3~ 48 \$4 \$5 \$6 \$7 \$8 \$9 \$10 \$11 \$12;
#X connect 0 0 103 0;
#X connect 2 0 104 0;
#X connect 4 0 105 0;
#X connect 6 0 106 0;
#X connect 8 0 107 0;
#X connect 10 0 108 0;
#X connect 12 0 109 0;
#X connect 14 0 110 0;
#X connect 16 0 111 0;
#X connect 18 0 112 0;
#X connect 20 0 113 0;
#X connect 22 0 114 0;
#X connect 24 0 115 0;
#X connect 26 0 116 0;
#X connect 28 0 117 0;
#X connect 30 0 118 0;
#X connect 32 0 119 0;
#X connect 34 0 120 0;
#X connect 36 0 121 0;
#X connect 38 0 122 0;
#X connect 40 0 123 0;
#X connect 42 0 124 0;
#X connect 44 0 125 0;
#X connect 46 0 126 0;
#X connect 48 0 99 0;
#X connect 50 0 127 0;
#X connect 52 0 128 0;
#X connect 54 0 129 0;
#X connect 56 0 130 0;
#X connect 58 0 131 0;
#X connect 60 0 132 0;
#X connect 62 0 133 0;
#X connect 64 0 134 0;
#X connect 66 0 135 0;
#X connect 68 0 136 0;
#X connect 70 0 137 0;
#X connect 72 0 138 0;
#X connect 74 0 139 0;
#X connect 76 0 140 0;
#X connect 78 0 141 0;
#X connect 80 0 142 0;
#X connect 82 0 143 0;
#X connect 84 0 144 0;
#X connect 86 0 145 0;
#X connect 88 0 146 0;
#X connect 90 0 147 0;
#X connect 92 0 148 0;
#X connect 94 0 149 0;
#X connect 96 0 150 0;
#X connect 100 0 102 0;
#X connect 102 0 103 1;
#X connect 102 0 104 1;
#X connect 102 0 105 1;
#X connect 102 0 106 1;
#X connect 102 0 107 1;
#X connect 102 0 108 1;
#X connect 102 0 109 1;
#X connect 102 0 110 1;
#X connect 102 0 111 1;
#X connect 102 0 112 1;
#X connect 102 0 113 1;
#X connect 102 0 114 1;
#X connect 102 0 115 1;
#X connect 102 0 116 1;
#X connect 102 0 117 1;
#X connect 102 0 118 1;
#X connect 102 0 119 1;
#X connect 102 0 120 1;
#X connect 102 0 121 1;
#X connect 102 0 122 1;
#X connect 102 0 123 1;
#X connect 102 0 124 1;
#X connect 102 0 125 1;
#X connect 102 0 126 1;
#X connect 102 0 127 1;
#X connect 102 0 128 1;
#X connect 102 0 129 1;
#X connect 102 0 130 1;
#X connect 102 0 131 1;
#X connect 102 0 132 1;
#X connect 102 0 133 1;
#X connect 102 0 134 1;
#X connect 102 0 135 1;
#X connect 102 0 136 1;
#X connect 102 0 137 1;
#X connect 102 0 138 1;
#X connect 102 0 139 1;
#X connect 102 0 140 1;
#X connect 102 0 141 1;
#X connect 102 0 142 1;
#X connect 102 0 143 1;
#X connect 102 0 144 1;
#X connect 102 0 145 1;
#X connect 102 0 146 1;
#X connect 102 0 147 1;
#X connect 102 0 148 1;
#X connect 102 0 149 1;
#X connect 102 0 150 1;
#X connect 102 1 48 0;
#X connect 102 1 98 0;
#X connect 103 0 1 0;
#X connect 104 0 3 0;
#X connect 105 0 5 0;
#X connect 106 0 7 0;
#X connect 107 0 9 0;
#X connect 108 0 11 0;
#X connect 109 0 13 0;
#X connect 110 0 15 0;
#X connect 111 0 17 0;
#X connect 112 0 19 0;
#X connect 113 0 21 0;
#X connect 114 0 23 0;
#X connect 115 0 25 0;
#X connect 116 0 27 0;
#X connect 117 0 29 0;
#X connect 118 0 31 0;
#X connect 119 0 33 0;
#X connect 120 0 35 0;
#X connect 121 0 37 0;
#X connect 122 0 39 0;
#X connect 123 0 41 0;
#X connect 124 0 43 0;
#X connect 125 0 45 0;
#X connect 126 0 47 0;
#X connect 127 0 51 0;
#X connect 128 0 53 0;
#X connect 129 0 55 0;
#X connect 130 0 57 0;
#X connect 131 0 59 0;
#X connect 132 0 61 0;
#X connect 133 0 63 0;
#X connect 134 0 65 0;
#X connect 135 0 67 0;
#X connect 136 0 69 0;
#X connect 137 0 71 0;
#X connect 138 0 73 0;
#X connect 139 0 75 0;
#X connect 140 0 77 0;
#X connect 141 0 79 0;
#X connect 142 0 81 0;
#X connect 143 0 83 0;
#X connect 144 0 85 0;
#X connect 145 0 87 0;
#X connect 146 0 89 0;
#X connect 147 0 91 0;
#X connect 148 0 93 0;
#X connect 149 0 95 0;
#X connect 150 0 97 0;
