#N canvas 251 124 765 362 10;
#X obj 20 144 inlet~;
#X obj 1239 144 inlet statelist;
#X obj 70 144 inlet~;
#X obj 120 144 inlet~;
#X obj 170 144 inlet~;
#X obj 220 144 inlet~;
#X obj 270 144 inlet~;
#X obj 320 144 inlet~;
#X obj 370 144 inlet~;
#X obj 1434 357 outlet statelist;
#X obj 1448 310 switch~;
#X obj 1434 334 change 1;
#X obj 1449 243 t b f;
#X obj 1434 274 && 1;
#X obj 420 144 inlet~;
#X obj 470 144 inlet~;
#X obj 520 144 inlet~;
#X obj 570 144 inlet~;
#X obj 620 144 inlet~;
#X obj 670 144 inlet~;
#X obj 720 144 inlet~;
#X obj 770 144 inlet~;
#X text 102 319 (c)2013 Marian Weger;
#X obj 820 144 inlet~;
#X obj 870 144 inlet~;
#X obj 920 144 inlet~;
#X obj 970 144 inlet~;
#X obj 1020 144 inlet~;
#X obj 1070 144 inlet~;
#X obj 1120 144 inlet~;
#X obj 1170 144 inlet~;
#X obj 440 203 fx_\$4_24~ \$5 \$6 \$7 \$8 \$9 \$10 \$11 \$12 \$13 \$14
\$15 \$16;
#X obj 1239 181 fx_\$4_ctl \$1 \$2 \$5 \$6 \$7 \$8 \$9;
#X obj 20 263 send~ \$3/1;
#X obj 70 283 send~ \$3/2;
#X obj 120 263 send~ \$3/3;
#X obj 170 283 send~ \$3/4;
#X obj 220 263 send~ \$3/5;
#X obj 270 283 send~ \$3/6;
#X obj 320 263 send~ \$3/7;
#X obj 370 283 send~ \$3/8;
#X obj 420 263 send~ \$3/9;
#X obj 470 283 send~ \$3/10;
#X obj 520 263 send~ \$3/11;
#X obj 570 283 send~ \$3/12;
#X obj 620 263 send~ \$3/13;
#X obj 670 283 send~ \$3/14;
#X obj 720 263 send~ \$3/15;
#X obj 770 283 send~ \$3/16;
#X obj 820 263 send~ \$3/17;
#X obj 870 283 send~ \$3/18;
#X obj 920 263 send~ \$3/19;
#X obj 970 283 send~ \$3/20;
#X obj 1020 263 send~ \$3/21;
#X obj 1070 283 send~ \$3/22;
#X obj 1120 263 send~ \$3/23;
#X obj 1170 283 send~ \$3/24;
#X text 20 85 pipe_fx_send_24~ <name> <domain> <target> <fx> (<arg1>
<arg2> ...);
#X obj 322 341 outlet;
#X connect 0 0 31 0;
#X connect 1 0 32 0;
#X connect 2 0 31 1;
#X connect 3 0 31 2;
#X connect 4 0 31 3;
#X connect 5 0 31 4;
#X connect 6 0 31 5;
#X connect 7 0 31 6;
#X connect 8 0 31 7;
#X connect 11 0 9 0;
#X connect 12 0 13 0;
#X connect 12 1 13 1;
#X connect 13 0 11 0;
#X connect 13 0 10 0;
#X connect 14 0 31 8;
#X connect 15 0 31 9;
#X connect 16 0 31 10;
#X connect 17 0 31 11;
#X connect 18 0 31 12;
#X connect 19 0 31 13;
#X connect 20 0 31 14;
#X connect 21 0 31 15;
#X connect 23 0 31 16;
#X connect 24 0 31 17;
#X connect 25 0 31 18;
#X connect 26 0 31 19;
#X connect 27 0 31 20;
#X connect 28 0 31 21;
#X connect 29 0 31 22;
#X connect 30 0 31 23;
#X connect 31 0 33 0;
#X connect 31 1 34 0;
#X connect 31 2 35 0;
#X connect 31 3 36 0;
#X connect 31 4 37 0;
#X connect 31 5 38 0;
#X connect 31 6 39 0;
#X connect 31 7 40 0;
#X connect 31 8 41 0;
#X connect 31 9 42 0;
#X connect 31 10 43 0;
#X connect 31 11 44 0;
#X connect 31 12 45 0;
#X connect 31 13 46 0;
#X connect 31 14 47 0;
#X connect 31 15 48 0;
#X connect 31 16 49 0;
#X connect 31 17 50 0;
#X connect 31 18 51 0;
#X connect 31 19 52 0;
#X connect 31 20 53 0;
#X connect 31 21 54 0;
#X connect 31 22 55 0;
#X connect 31 23 56 0;
#X connect 31 24 12 0;
#X connect 32 0 31 24;
#X connect 32 1 13 0;
#X coords 0 362 1 361 85 60 0;
