#N canvas 251 124 765 362 10;
#X obj 20 144 inlet~;
#X obj 20 263 outlet~;
#X text 102 319 (c)2012 Marian Weger;
#X obj 439 144 inlet statelist;
#X obj 70 144 inlet~;
#X obj 70 263 outlet~;
#X obj 120 144 inlet~;
#X obj 120 263 outlet~;
#X obj 170 144 inlet~;
#X obj 170 263 outlet~;
#X obj 220 144 inlet~;
#X obj 220 263 outlet~;
#X obj 270 144 inlet~;
#X obj 270 263 outlet~;
#X obj 320 144 inlet~;
#X obj 320 263 outlet~;
#X obj 370 144 inlet~;
#X obj 370 263 outlet~;
#X obj 634 357 outlet statelist;
#X obj 648 310 switch~;
#X obj 634 334 change 1;
#X obj 649 243 t b f;
#X obj 634 274 && 1;
#X obj 20 213 fx_\$3_8~ \$4 \$5 \$6 \$7 \$8 \$9;
#X obj 439 181 fx_\$3_ctl \$1 \$2 \$4 \$5 \$6 \$7 \$8 \$9;
#X text 20 85 pipe_fx_8~ <name> <domain> <fx> (<arg1> <arg2> ...);
#X connect 0 0 23 0;
#X connect 3 0 24 0;
#X connect 4 0 23 1;
#X connect 6 0 23 2;
#X connect 8 0 23 3;
#X connect 10 0 23 4;
#X connect 12 0 23 5;
#X connect 14 0 23 6;
#X connect 16 0 23 7;
#X connect 20 0 18 0;
#X connect 21 0 22 0;
#X connect 21 1 22 1;
#X connect 22 0 20 0;
#X connect 22 0 19 0;
#X connect 23 0 1 0;
#X connect 23 1 5 0;
#X connect 23 2 7 0;
#X connect 23 3 9 0;
#X connect 23 4 11 0;
#X connect 23 5 13 0;
#X connect 23 6 15 0;
#X connect 23 7 17 0;
#X connect 23 8 21 0;
#X connect 24 0 23 8;
#X connect 24 1 22 0;
#X coords 0 362 1 361 85 60 0;
