#N canvas 748 22 607 391 10;
#X obj 10 76 inlet~;
#X text 104 251 (c)2012 Marian Weger;
#X obj 340 270 outlet statelist;
#X obj 355 218 switch~;
#X obj 163 76 inlet statelist;
#X obj 340 247 change 1;
#X obj 350 155 t b f;
#X obj 340 185 && 1;
#X obj 163 113 fx_\$4_ctl \$1 \$2 \$5 \$6 \$7 \$8 \$9;
#X obj 32 316 outlet;
#X obj 96 76 inlet~;
#X obj 10 145 fx_\$4_2~ \$5 \$6 \$7 \$8 \$9;
#X obj 10 195 throw~ \$3/1;
#X obj 96 195 throw~ \$3/2;
#X text 10 17 pipe_fx_throw_2~ <name> <domain> <target> <fx> (<arg1>
<arg2> ...);
#X connect 0 0 11 0;
#X connect 4 0 8 0;
#X connect 5 0 2 0;
#X connect 6 0 7 0;
#X connect 6 1 7 1;
#X connect 7 0 5 0;
#X connect 7 0 3 0;
#X connect 8 0 11 2;
#X connect 8 1 7 0;
#X connect 10 0 11 1;
#X connect 11 0 12 0;
#X connect 11 1 13 0;
#X connect 11 2 6 0;
#X coords 0 391 1 390 85 60 0;
