#N canvas 1322 260 1280 947 10;
#X obj 155 90 inlet~;
#X obj 1391 207 outlet statelist;
#X obj 1411 175 switch~;
#X obj 1391 86 inlet statelist;
#X obj 1427 116 loadbang;
#X msg 1427 138 1;
#X obj 934 119 inlet ctl;
#X obj 136 468 throw~ \$3/1;
#X obj 934 156 spat_\$4_ctl \$1 \$2 \$5 \$6 \$7 \$8 \$9;
#X obj 186 488 throw~ \$3/2;
#X obj 236 468 throw~ \$3/3;
#X obj 286 488 throw~ \$3/4;
#X obj 336 468 throw~ \$3/5;
#X obj 386 488 throw~ \$3/6;
#X obj 436 468 throw~ \$3/7;
#X obj 486 488 throw~ \$3/8;
#X obj 536 468 throw~ \$3/9;
#X obj 586 488 throw~ \$3/10;
#X obj 636 468 throw~ \$3/11;
#X obj 686 488 throw~ \$3/12;
#X obj 736 468 throw~ \$3/13;
#X obj 786 488 throw~ \$3/14;
#X obj 836 468 throw~ \$3/15;
#X obj 886 488 throw~ \$3/16;
#X obj 936 468 throw~ \$3/17;
#X obj 986 488 throw~ \$3/18;
#X obj 1036 468 throw~ \$3/19;
#X obj 1086 488 throw~ \$3/20;
#X obj 1136 468 throw~ \$3/21;
#X obj 1186 488 throw~ \$3/22;
#X obj 1236 468 throw~ \$3/23;
#X obj 1286 488 throw~ \$3/24;
#X obj 144 531 outlet;
#X text 156 31 pipe_spat_t_48~ <name> <domain> <target> <type> (<arg1>
<arg2> ...);
#X text 301 524 (c)2015 Marian Weger;
#X obj 159 279 spat_\$4_48~ \$5 \$6 \$7 \$8 \$9 \$10 \$11 \$12 \$13
\$14 \$15 \$16, f 118;
#X obj 1356 466 throw~ \$3/25;
#X obj 1406 486 throw~ \$3/26;
#X obj 1456 466 throw~ \$3/27;
#X obj 1506 486 throw~ \$3/28;
#X obj 1556 466 throw~ \$3/29;
#X obj 1606 486 throw~ \$3/30;
#X obj 1656 466 throw~ \$3/31;
#X obj 1706 486 throw~ \$3/32;
#X obj 1756 466 throw~ \$3/33;
#X obj 1805 486 throw~ \$3/34;
#X obj 1856 466 throw~ \$3/35;
#X obj 1906 487 throw~ \$3/36;
#X obj 1956 466 throw~ \$3/37;
#X obj 2006 486 throw~ \$3/38;
#X obj 2056 466 throw~ \$3/39;
#X obj 2106 486 throw~ \$3/40;
#X obj 2156 466 throw~ \$3/41;
#X obj 2206 486 throw~ \$3/42;
#X obj 2256 466 throw~ \$3/43;
#X obj 2306 486 throw~ \$3/44;
#X obj 2356 466 throw~ \$3/45;
#X obj 2406 486 throw~ \$3/46;
#X obj 2456 466 throw~ \$3/47;
#X obj 2506 486 throw~ \$3/48;
#X connect 0 0 35 0;
#X connect 3 0 2 0;
#X connect 3 0 1 0;
#X connect 4 0 5 0;
#X connect 5 0 2 0;
#X connect 6 0 8 0;
#X connect 8 0 35 1;
#X connect 35 0 7 0;
#X connect 35 1 9 0;
#X connect 35 2 10 0;
#X connect 35 3 11 0;
#X connect 35 4 12 0;
#X connect 35 5 13 0;
#X connect 35 6 14 0;
#X connect 35 7 15 0;
#X connect 35 8 16 0;
#X connect 35 9 17 0;
#X connect 35 10 18 0;
#X connect 35 11 19 0;
#X connect 35 12 20 0;
#X connect 35 13 21 0;
#X connect 35 14 22 0;
#X connect 35 15 23 0;
#X connect 35 16 24 0;
#X connect 35 17 25 0;
#X connect 35 18 26 0;
#X connect 35 19 27 0;
#X connect 35 20 28 0;
#X connect 35 21 29 0;
#X connect 35 22 30 0;
#X connect 35 23 31 0;
#X connect 35 24 36 0;
#X connect 35 25 37 0;
#X connect 35 26 38 0;
#X connect 35 27 39 0;
#X connect 35 28 40 0;
#X connect 35 29 41 0;
#X connect 35 30 42 0;
#X connect 35 31 43 0;
#X connect 35 32 44 0;
#X connect 35 33 45 0;
#X connect 35 34 46 0;
#X connect 35 35 47 0;
#X connect 35 36 48 0;
#X connect 35 37 49 0;
#X connect 35 38 50 0;
#X connect 35 39 51 0;
#X connect 35 40 52 0;
#X connect 35 41 53 0;
#X connect 35 42 54 0;
#X connect 35 43 55 0;
#X connect 35 44 56 0;
#X connect 35 45 57 0;
#X connect 35 46 58 0;
#X connect 35 47 59 0;
#X coords 0 947 1 946 85 60 0;
