#N canvas 251 124 765 362 10;
#X obj 20 263 outlet~;
#X obj 1239 144 inlet statelist;
#X obj 70 263 outlet~;
#X obj 120 263 outlet~;
#X obj 170 263 outlet~;
#X obj 220 263 outlet~;
#X obj 270 263 outlet~;
#X obj 320 263 outlet~;
#X obj 370 263 outlet~;
#X obj 1434 357 outlet statelist;
#X obj 1448 310 switch~;
#X obj 1434 334 change 1;
#X obj 1449 243 t b f;
#X obj 1434 274 && 1;
#X obj 420 263 outlet~;
#X obj 470 263 outlet~;
#X obj 520 263 outlet~;
#X obj 570 263 outlet~;
#X obj 620 263 outlet~;
#X obj 670 263 outlet~;
#X obj 720 263 outlet~;
#X obj 770 263 outlet~;
#X text 102 319 (c)2013 Marian Weger;
#X obj 820 263 outlet~;
#X obj 870 263 outlet~;
#X obj 920 263 outlet~;
#X obj 970 263 outlet~;
#X obj 1020 263 outlet~;
#X obj 1070 263 outlet~;
#X obj 1120 263 outlet~;
#X obj 1170 263 outlet~;
#X obj 20 144 r~ \$3/1;
#X obj 70 114 r~ \$3/2;
#X obj 120 144 r~ \$3/3;
#X obj 170 114 r~ \$3/4;
#X obj 220 144 r~ \$3/5;
#X obj 270 114 r~ \$3/6;
#X obj 320 144 r~ \$3/7;
#X obj 370 114 r~ \$3/8;
#X obj 420 144 r~ \$3/9;
#X obj 470 114 r~ \$3/10;
#X obj 520 144 r~ \$3/11;
#X obj 570 114 r~ \$3/12;
#X text 20 85 pipe_fx__receive_24~ <name> <domain> <source> <fx> (<arg1>
<arg2> ...);
#X obj 620 144 r~ \$3/13;
#X obj 670 114 r~ \$3/14;
#X obj 720 144 r~ \$3/15;
#X obj 770 114 r~ \$3/16;
#X obj 820 144 r~ \$3/17;
#X obj 870 114 r~ \$3/18;
#X obj 920 144 r~ \$3/19;
#X obj 970 114 r~ \$3/20;
#X obj 1020 144 r~ \$3/21;
#X obj 1070 114 r~ \$3/22;
#X obj 1120 144 r~ \$3/23;
#X obj 1170 114 r~ \$3/24;
#X obj 440 203 fx_\$4_24~ \$5 \$6 \$7 \$8 \$9 \$10 \$11 \$12 \$13 \$14
\$15 \$16;
#X obj 1239 181 fx_\$4_ctl \$1 \$2 \$5 \$6 \$7 \$8 \$9;
#X obj 435 75 inlet;
#X connect 1 0 57 0;
#X connect 11 0 9 0;
#X connect 12 0 13 0;
#X connect 12 1 13 1;
#X connect 13 0 11 0;
#X connect 13 0 10 0;
#X connect 31 0 56 0;
#X connect 32 0 56 1;
#X connect 33 0 56 2;
#X connect 34 0 56 3;
#X connect 35 0 56 4;
#X connect 36 0 56 5;
#X connect 37 0 56 6;
#X connect 38 0 56 7;
#X connect 39 0 56 8;
#X connect 40 0 56 9;
#X connect 41 0 56 10;
#X connect 42 0 56 11;
#X connect 44 0 56 12;
#X connect 45 0 56 13;
#X connect 46 0 56 14;
#X connect 47 0 56 15;
#X connect 48 0 56 16;
#X connect 49 0 56 17;
#X connect 50 0 56 18;
#X connect 51 0 56 19;
#X connect 52 0 56 20;
#X connect 53 0 56 21;
#X connect 54 0 56 22;
#X connect 55 0 56 23;
#X connect 56 0 0 0;
#X connect 56 1 2 0;
#X connect 56 2 3 0;
#X connect 56 3 4 0;
#X connect 56 4 5 0;
#X connect 56 5 6 0;
#X connect 56 6 7 0;
#X connect 56 7 8 0;
#X connect 56 8 14 0;
#X connect 56 9 15 0;
#X connect 56 10 16 0;
#X connect 56 11 17 0;
#X connect 56 12 18 0;
#X connect 56 13 19 0;
#X connect 56 14 20 0;
#X connect 56 15 21 0;
#X connect 56 16 23 0;
#X connect 56 17 24 0;
#X connect 56 18 25 0;
#X connect 56 19 26 0;
#X connect 56 20 27 0;
#X connect 56 21 28 0;
#X connect 56 22 29 0;
#X connect 56 23 30 0;
#X connect 56 24 12 0;
#X connect 57 0 56 24;
#X connect 57 1 13 0;
#X coords 0 362 1 361 85 60 0;
