#N canvas 251 124 661 327 10;
#X obj 20 109 inlet~;
#X obj 20 228 outlet~;
#X text 102 284 (c)2012 Marian Weger;
#X obj 484 300 outlet statelist;
#X obj 498 253 switch~;
#X obj 289 109 inlet statelist;
#X obj 70 109 inlet~;
#X obj 70 228 outlet~;
#X obj 120 109 inlet~;
#X obj 120 228 outlet~;
#X obj 170 109 inlet~;
#X obj 170 228 outlet~;
#X obj 220 109 inlet~;
#X obj 220 228 outlet~;
#X obj 484 277 change 1;
#X obj 494 185 t b f;
#X obj 484 217 && 1;
#X obj 20 178 fx_\$3_5~ \$4 \$5 \$6 \$7 \$8 \$9;
#X obj 289 146 fx_\$3_ctl \$1 \$2 \$4 \$5 \$6 \$7 \$8 \$9;
#X text 20 50 pipe_fx_5~ <name> <domain> <fx> (<arg1> <arg2> ...);
#X connect 0 0 17 0;
#X connect 5 0 18 0;
#X connect 6 0 17 1;
#X connect 8 0 17 2;
#X connect 10 0 17 3;
#X connect 12 0 17 4;
#X connect 14 0 3 0;
#X connect 15 0 16 0;
#X connect 15 1 16 1;
#X connect 16 0 14 0;
#X connect 16 0 4 0;
#X connect 17 0 1 0;
#X connect 17 1 7 0;
#X connect 17 2 9 0;
#X connect 17 3 11 0;
#X connect 17 4 13 0;
#X connect 17 5 15 0;
#X connect 18 0 17 5;
#X connect 18 1 16 0;
#X coords 0 327 1 326 85 60 0;
