#N canvas 1 51 1351 687 10;
#X obj 2485 176 inlet statelist;
#X obj 2625 455 outlet statelist;
#X obj 2639 408 switch~;
#X obj 2625 432 change 1;
#X obj 2640 341 t b f;
#X obj 2625 372 && 1;
#X obj 70 149 inlet~ \$3/2;
#X obj 120 179 inlet~ \$3/3;
#X obj 170 149 inlet~ \$3/4;
#X obj 220 179 inlet~ \$3/5;
#X obj 270 149 inlet~ \$3/6;
#X obj 320 179 inlet~ \$3/7;
#X obj 370 149 inlet~ \$3/8;
#X obj 420 179 inlet~ \$3/9;
#X obj 470 149 inlet~ \$3/10;
#X obj 520 179 inlet~ \$3/11;
#X obj 570 149 inlet~ \$3/12;
#X obj 620 179 inlet~ \$3/13;
#X obj 670 149 inlet~ \$3/14;
#X obj 720 179 inlet~ \$3/15;
#X obj 770 149 inlet~ \$3/16;
#X obj 820 179 inlet~ \$3/17;
#X obj 870 149 inlet~ \$3/18;
#X obj 920 179 inlet~ \$3/19;
#X obj 970 149 inlet~ \$3/20;
#X obj 1020 179 inlet~ \$3/21;
#X obj 1070 149 inlet~ \$3/22;
#X obj 1120 179 inlet~ \$3/23;
#X obj 1170 149 inlet~ \$3/24;
#X obj 20 588 throw~ \$3/1;
#X obj 70 608 throw~ \$3/2;
#X obj 120 588 throw~ \$3/3;
#X obj 170 608 throw~ \$3/4;
#X obj 220 588 throw~ \$3/5;
#X obj 270 608 throw~ \$3/6;
#X obj 320 588 throw~ \$3/7;
#X obj 370 608 throw~ \$3/8;
#X obj 420 588 throw~ \$3/9;
#X obj 470 608 throw~ \$3/10;
#X obj 520 588 throw~ \$3/11;
#X obj 570 608 throw~ \$3/12;
#X obj 620 588 throw~ \$3/13;
#X obj 670 608 throw~ \$3/14;
#X obj 720 588 throw~ \$3/15;
#X obj 770 608 throw~ \$3/16;
#X obj 820 588 throw~ \$3/17;
#X obj 870 608 throw~ \$3/18;
#X obj 920 588 throw~ \$3/19;
#X obj 970 608 throw~ \$3/20;
#X obj 1020 588 throw~ \$3/21;
#X obj 1070 608 throw~ \$3/22;
#X obj 1120 588 throw~ \$3/23;
#X obj 1170 608 throw~ \$3/24;
#X obj 374 648 outlet;
#X obj 20 179 inlet~ \$3/1;
#X obj 1238 179 inlet~ \$3/25;
#X obj 1288 149 inlet~ \$3/26;
#X obj 1338 179 inlet~ \$3/27;
#X obj 1388 149 inlet~ \$3/28;
#X obj 1438 179 inlet~ \$3/29;
#X obj 1488 149 inlet~ \$3/30;
#X obj 1538 179 inlet~ \$3/31;
#X obj 1588 149 inlet~ \$3/32;
#X obj 1638 179 inlet~ \$3/33;
#X obj 1688 149 inlet~ \$3/34;
#X obj 1738 179 inlet~ \$3/35;
#X obj 1788 149 inlet~ \$3/36;
#X obj 1838 179 inlet~ \$3/37;
#X obj 1888 149 inlet~ \$3/38;
#X obj 1938 179 inlet~ \$3/39;
#X obj 1988 149 inlet~ \$3/40;
#X obj 2038 179 inlet~ \$3/41;
#X obj 2088 149 inlet~ \$3/42;
#X obj 2138 179 inlet~ \$3/43;
#X obj 2188 149 inlet~ \$3/44;
#X obj 2238 179 inlet~ \$3/45;
#X obj 2288 149 inlet~ \$3/46;
#X obj 2338 179 inlet~ \$3/47;
#X obj 2388 149 inlet~ \$3/48;
#X obj 1274 588 throw~ \$3/25;
#X obj 1324 608 throw~ \$3/26;
#X obj 1374 588 throw~ \$3/27;
#X obj 1424 608 throw~ \$3/28;
#X obj 1474 588 throw~ \$3/29;
#X obj 1524 608 throw~ \$3/30;
#X obj 1574 588 throw~ \$3/31;
#X obj 1624 608 throw~ \$3/32;
#X obj 1674 588 throw~ \$3/33;
#X obj 1724 608 throw~ \$3/34;
#X obj 1774 588 throw~ \$3/35;
#X obj 1824 608 throw~ \$3/36;
#X obj 1874 588 throw~ \$3/36;
#X obj 1924 608 throw~ \$3/38;
#X obj 1974 588 throw~ \$3/39;
#X obj 2024 608 throw~ \$3/40;
#X obj 2074 588 throw~ \$3/41;
#X obj 2124 608 throw~ \$3/42;
#X obj 2174 588 throw~ \$3/43;
#X obj 2224 608 throw~ \$3/44;
#X obj 2274 588 throw~ \$3/45;
#X obj 2324 608 throw~ \$3/46;
#X obj 2374 588 throw~ \$3/47;
#X obj 2424 608 throw~ \$3/48;
#X text 102 644 (c)2015 Marian Weger;
#X text 20 100 pipe_fx_t_48~ <name> <domain> <target> <fx> (<arg1>
<arg2> ...);
#X obj 1311 466 fx_\$4_48~ \$5 \$6 \$7 \$8 \$9 \$10 \$11 \$12 \$13
\$14 \$15 \$16, f 113;
#X obj 2485 213 fx_\$4_ctl \$1 \$2 \$5 \$6 \$7 \$8 \$9 \$10 \$11 \$12
;
#X connect 0 0 106 0;
#X connect 3 0 1 0;
#X connect 4 0 5 0;
#X connect 4 1 5 1;
#X connect 5 0 3 0;
#X connect 5 0 2 0;
#X connect 6 0 105 1;
#X connect 7 0 105 2;
#X connect 8 0 105 3;
#X connect 9 0 105 4;
#X connect 10 0 105 5;
#X connect 11 0 105 6;
#X connect 12 0 105 7;
#X connect 13 0 105 8;
#X connect 14 0 105 9;
#X connect 15 0 105 10;
#X connect 16 0 105 11;
#X connect 17 0 105 12;
#X connect 18 0 105 13;
#X connect 19 0 105 14;
#X connect 20 0 105 15;
#X connect 21 0 105 16;
#X connect 22 0 105 17;
#X connect 23 0 105 18;
#X connect 24 0 105 19;
#X connect 25 0 105 20;
#X connect 26 0 105 21;
#X connect 27 0 105 22;
#X connect 28 0 105 23;
#X connect 54 0 105 0;
#X connect 55 0 105 24;
#X connect 56 0 105 25;
#X connect 57 0 105 26;
#X connect 58 0 105 27;
#X connect 59 0 105 28;
#X connect 60 0 105 29;
#X connect 61 0 105 30;
#X connect 62 0 105 31;
#X connect 63 0 105 32;
#X connect 64 0 105 33;
#X connect 65 0 105 34;
#X connect 66 0 105 35;
#X connect 67 0 105 36;
#X connect 68 0 105 37;
#X connect 69 0 105 38;
#X connect 70 0 105 39;
#X connect 71 0 105 40;
#X connect 72 0 105 41;
#X connect 73 0 105 42;
#X connect 74 0 105 43;
#X connect 75 0 105 44;
#X connect 76 0 105 45;
#X connect 77 0 105 46;
#X connect 78 0 105 47;
#X connect 105 0 29 0;
#X connect 105 1 30 0;
#X connect 105 2 31 0;
#X connect 105 3 32 0;
#X connect 105 4 33 0;
#X connect 105 5 34 0;
#X connect 105 6 35 0;
#X connect 105 7 36 0;
#X connect 105 8 37 0;
#X connect 105 9 38 0;
#X connect 105 10 39 0;
#X connect 105 11 40 0;
#X connect 105 12 41 0;
#X connect 105 13 42 0;
#X connect 105 14 43 0;
#X connect 105 15 44 0;
#X connect 105 16 45 0;
#X connect 105 17 46 0;
#X connect 105 18 47 0;
#X connect 105 19 48 0;
#X connect 105 20 49 0;
#X connect 105 21 50 0;
#X connect 105 22 51 0;
#X connect 105 23 52 0;
#X connect 105 24 79 0;
#X connect 105 25 80 0;
#X connect 105 26 81 0;
#X connect 105 27 82 0;
#X connect 105 28 83 0;
#X connect 105 29 84 0;
#X connect 105 30 85 0;
#X connect 105 31 86 0;
#X connect 105 32 87 0;
#X connect 105 33 88 0;
#X connect 105 34 89 0;
#X connect 105 35 90 0;
#X connect 105 36 91 0;
#X connect 105 37 92 0;
#X connect 105 38 93 0;
#X connect 105 39 94 0;
#X connect 105 40 95 0;
#X connect 105 41 96 0;
#X connect 105 42 97 0;
#X connect 105 43 98 0;
#X connect 105 44 99 0;
#X connect 105 45 100 0;
#X connect 105 46 101 0;
#X connect 105 47 102 0;
#X connect 105 48 4 0;
#X connect 106 0 105 48;
#X connect 106 1 5 0;
#X coords 0 687 1 686 85 60 0;
