#N canvas 545 43 545 374 10;
#X obj 20 275 outlet~;
#X obj 419 330 outlet statelist;
#X obj 434 278 switch~;
#X obj 419 124 inlet statelist;
#X obj 419 307 change 1;
#X obj 429 215 t b f;
#X obj 419 245 && 1;
#X obj 224 162 in_\$3_ctl \$1 \$2 \$4 \$5 \$6 \$7 \$8 \$9;
#X text 102 311 (c)2013 Marian Weger;
#X text 19 79 pipe_in_4~ <name> <domain> <type> (<arg1> <arg2> ...)
;
#X obj 20 205 in_\$3_4~ \$4 \$5 \$6 \$7 \$8 \$9;
#X obj 70 275 outlet~;
#X obj 120 275 outlet~;
#X obj 170 275 outlet~;
#X connect 3 0 7 1;
#X connect 4 0 1 0;
#X connect 5 0 6 0;
#X connect 5 1 6 1;
#X connect 6 0 4 0;
#X connect 6 0 2 0;
#X connect 7 0 10 0;
#X connect 7 1 6 0;
#X connect 10 0 0 0;
#X connect 10 1 11 0;
#X connect 10 2 12 0;
#X connect 10 3 13 0;
#X connect 10 4 7 0;
#X coords 0 374 1 373 85 60 0;
