#N canvas 114 56 946 434 10;
#X obj 20 144 inlet~;
#X obj 20 363 outlet~;
#X text 578 281 (c)2012 Marian Weger;
#X obj 807 338 outlet statelist;
#X obj 822 286 switch~;
#X obj 357 144 inlet statelist;
#X obj 807 315 change 1;
#X obj 463 144 inlet~;
#X obj 606 231 mix_\$3_ctl \$1 \$2 \$4 \$5 \$6 \$7 \$8 \$9;
#X obj 807 144 inlet statelist;
#X obj 60 144 inlet~;
#X obj 503 144 inlet~;
#X obj 70 363 outlet~;
#X obj 543 144 inlet~;
#X obj 100 144 inlet~;
#X obj 120 363 outlet~;
#X obj 140 144 inlet~;
#X obj 583 144 inlet~;
#X obj 170 363 outlet~;
#X obj 220 363 outlet~;
#X obj 180 144 inlet~;
#X obj 623 144 inlet~;
#X obj 220 144 inlet~;
#X obj 663 144 inlet~;
#X obj 270 363 outlet~;
#X text 19 114 pipe_mix_8~ <name> <domain> <type> (<arg1> <arg2> ...)
;
#X obj 260 144 inlet~;
#X obj 300 144 inlet~;
#X obj 20 313 mix_\$3_8~ \$4 \$5 \$6 \$7 \$8 \$9 0 0 0 0 0 0 0 0 0
0;
#X obj 703 144 inlet~;
#X obj 743 144 inlet~;
#X obj 320 363 outlet~;
#X obj 370 363 outlet~;
#X connect 0 0 28 0;
#X connect 5 0 8 0;
#X connect 6 0 3 0;
#X connect 7 0 28 8;
#X connect 8 0 28 16;
#X connect 8 1 4 0;
#X connect 8 1 6 0;
#X connect 9 0 8 1;
#X connect 10 0 28 1;
#X connect 11 0 28 9;
#X connect 13 0 28 10;
#X connect 14 0 28 2;
#X connect 16 0 28 3;
#X connect 17 0 28 11;
#X connect 20 0 28 4;
#X connect 21 0 28 12;
#X connect 22 0 28 5;
#X connect 23 0 28 13;
#X connect 26 0 28 6;
#X connect 27 0 28 7;
#X connect 28 0 1 0;
#X connect 28 1 12 0;
#X connect 28 2 15 0;
#X connect 28 3 18 0;
#X connect 28 4 19 0;
#X connect 28 5 24 0;
#X connect 28 6 31 0;
#X connect 28 7 32 0;
#X connect 29 0 28 14;
#X connect 30 0 28 15;
#X coords 0 434 1 433 85 60 0;
