#N canvas 507 189 603 391 10;
#X obj 20 144 inlet~;
#X text 102 328 (c)2012 Marian Weger;
#X obj 452 318 outlet statelist;
#X obj 467 266 switch~;
#X obj 452 144 inlet statelist;
#X obj 452 295 change 1;
#X obj 257 231 an_\$3_ctl \$1 \$2 \$4 \$5 \$6 \$7 \$8 \$9;
#X obj 20 268 outlet;
#X obj 65 144 inlet~;
#X obj 115 144 inlet~;
#X obj 165 144 inlet~;
#X obj 215 144 inlet~;
#X obj 265 144 inlet~;
#X text 20 94 pipe_an_8~ <name> <domain> <type> (<arg1> <arg2> ...)
;
#X obj 315 144 inlet~;
#X obj 365 144 inlet~;
#X obj 20 231 an_\$3_8~ \$1 \$2 \$4 \$5 \$6 \$7 \$8 \$9;
#X connect 0 0 16 0;
#X connect 4 0 6 1;
#X connect 5 0 2 0;
#X connect 6 0 16 8;
#X connect 6 1 5 0;
#X connect 6 1 3 0;
#X connect 8 0 16 1;
#X connect 9 0 16 2;
#X connect 10 0 16 3;
#X connect 11 0 16 4;
#X connect 12 0 16 5;
#X connect 14 0 16 6;
#X connect 15 0 16 7;
#X connect 16 0 7 0;
#X connect 16 1 6 0;
#X coords 0 391 1 390 85 60 0;
