#N canvas 114 56 946 434 10;
#X obj 20 363 outlet~;
#X obj 2082 338 outlet statelist;
#X obj 2097 286 switch~;
#X obj 992 144 inlet statelist;
#X obj 2082 315 change 1;
#X obj 2082 144 inlet statelist;
#X obj 70 363 outlet~;
#X obj 120 363 outlet~;
#X obj 170 363 outlet~;
#X obj 220 363 outlet~;
#X obj 270 363 outlet~;
#X obj 320 363 outlet~;
#X obj 370 363 outlet~;
#X text 30 393 (c)2013 Marian Weger;
#X obj 420 363 outlet~;
#X obj 470 363 outlet~;
#X obj 520 363 outlet~;
#X obj 570 363 outlet~;
#X obj 620 363 outlet~;
#X obj 670 363 outlet~;
#X obj 720 363 outlet~;
#X obj 770 363 outlet~;
#X obj 820 363 outlet~;
#X obj 870 363 outlet~;
#X obj 920 363 outlet~;
#X obj 970 363 outlet~;
#X obj 1020 363 outlet~;
#X obj 1070 363 outlet~;
#X obj 1120 363 outlet~;
#X obj 1170 363 outlet~;
#X obj 20 144 r~ \$3/1;
#X obj 1881 231 mix_\$5_ctl \$1 \$2 \$6 \$7 \$8 \$9 \$10 \$11 \$12
\$13 \$14 \$15;
#X obj 60 164 r~ \$3/2;
#X obj 100 144 r~ \$3/3;
#X obj 140 164 r~ \$3/4;
#X obj 180 144 r~ \$3/5;
#X obj 220 164 r~ \$3/6;
#X obj 260 144 r~ \$3/7;
#X obj 300 164 r~ \$3/8;
#X obj 340 144 r~ \$3/9;
#X obj 380 164 r~ \$3/10;
#X obj 420 144 r~ \$3/11;
#X obj 460 164 r~ \$3/12;
#X obj 500 144 r~ \$3/13;
#X obj 540 164 r~ \$3/14;
#X obj 580 144 r~ \$3/15;
#X obj 620 164 r~ \$3/16;
#X obj 660 144 r~ \$3/17;
#X obj 700 164 r~ \$3/18;
#X obj 740 144 r~ \$3/19;
#X obj 780 164 r~ \$3/20;
#X obj 820 144 r~ \$3/21;
#X obj 860 164 r~ \$3/22;
#X obj 900 144 r~ \$3/23;
#X obj 940 164 r~ \$3/24;
#X obj 1098 144 r~ \$4/1;
#X obj 1138 164 r~ \$4/2;
#X obj 1178 144 r~ \$4/3;
#X obj 1218 164 r~ \$4/4;
#X obj 1258 144 r~ \$4/5;
#X obj 1298 164 r~ \$4/6;
#X obj 1338 144 r~ \$4/7;
#X obj 1378 164 r~ \$4/8;
#X obj 1418 144 r~ \$4/9;
#X obj 1458 164 r~ \$4/10;
#X obj 1498 144 r~ \$4/11;
#X obj 1538 164 r~ \$4/12;
#X obj 1578 144 r~ \$4/13;
#X obj 1618 164 r~ \$4/14;
#X obj 1658 144 r~ \$4/15;
#X obj 1698 164 r~ \$4/16;
#X obj 1738 144 r~ \$4/17;
#X obj 1778 164 r~ \$4/18;
#X obj 1818 144 r~ \$4/19;
#X obj 1858 164 r~ \$4/20;
#X obj 1898 144 r~ \$4/21;
#X obj 1938 164 r~ \$4/22;
#X obj 1978 144 r~ \$4/23;
#X obj 2018 164 r~ \$4/24;
#X obj 819 292 mix_\$5_24~ \$6 \$7 \$8 \$9 \$10 \$11 \$12 \$13 \$14
\$15 \$16 \$17 \$18;
#X text 19 104 pipe_mix_24~ <name> <domain> <source1> <source2> <type>
(<arg1> <arg2> ...);
#X connect 3 0 31 0;
#X connect 4 0 1 0;
#X connect 5 0 31 1;
#X connect 30 0 79 0;
#X connect 31 0 79 48;
#X connect 31 1 2 0;
#X connect 31 1 4 0;
#X connect 32 0 79 1;
#X connect 33 0 79 2;
#X connect 34 0 79 3;
#X connect 35 0 79 4;
#X connect 36 0 79 5;
#X connect 37 0 79 6;
#X connect 38 0 79 7;
#X connect 39 0 79 8;
#X connect 40 0 79 9;
#X connect 41 0 79 10;
#X connect 42 0 79 11;
#X connect 43 0 79 12;
#X connect 44 0 79 13;
#X connect 45 0 79 14;
#X connect 46 0 79 15;
#X connect 47 0 79 16;
#X connect 48 0 79 17;
#X connect 49 0 79 18;
#X connect 50 0 79 19;
#X connect 51 0 79 20;
#X connect 52 0 79 21;
#X connect 53 0 79 22;
#X connect 54 0 79 23;
#X connect 55 0 79 24;
#X connect 56 0 79 25;
#X connect 57 0 79 26;
#X connect 58 0 79 27;
#X connect 59 0 79 28;
#X connect 60 0 79 29;
#X connect 61 0 79 30;
#X connect 62 0 79 31;
#X connect 63 0 79 32;
#X connect 64 0 79 33;
#X connect 65 0 79 34;
#X connect 66 0 79 35;
#X connect 67 0 79 36;
#X connect 68 0 79 37;
#X connect 69 0 79 38;
#X connect 70 0 79 39;
#X connect 71 0 79 40;
#X connect 72 0 79 41;
#X connect 73 0 79 42;
#X connect 74 0 79 43;
#X connect 75 0 79 44;
#X connect 76 0 79 45;
#X connect 77 0 79 46;
#X connect 78 0 79 47;
#X connect 79 0 0 0;
#X connect 79 1 6 0;
#X connect 79 2 7 0;
#X connect 79 3 8 0;
#X connect 79 4 9 0;
#X connect 79 5 10 0;
#X connect 79 6 11 0;
#X connect 79 7 12 0;
#X connect 79 8 14 0;
#X connect 79 9 15 0;
#X connect 79 10 16 0;
#X connect 79 11 17 0;
#X connect 79 12 18 0;
#X connect 79 13 19 0;
#X connect 79 14 20 0;
#X connect 79 15 21 0;
#X connect 79 16 22 0;
#X connect 79 17 23 0;
#X connect 79 18 24 0;
#X connect 79 19 25 0;
#X connect 79 20 26 0;
#X connect 79 21 27 0;
#X connect 79 22 28 0;
#X connect 79 23 29 0;
#X coords 0 434 1 433 85 60 0;
