#N canvas 251 124 765 362 10;
#X obj 1239 144 inlet statelist;
#X obj 1434 357 outlet statelist;
#X obj 1448 310 switch~;
#X obj 1434 334 change 1;
#X obj 1449 243 t b f;
#X obj 1434 274 && 1;
#X text 102 319 (c)2013 Marian Weger;
#X obj 20 144 r~ \$3/1;
#X obj 70 114 r~ \$3/2;
#X obj 120 144 r~ \$3/3;
#X obj 170 114 r~ \$3/4;
#X obj 220 144 r~ \$3/5;
#X obj 270 114 r~ \$3/6;
#X obj 320 144 r~ \$3/7;
#X obj 370 114 r~ \$3/8;
#X obj 420 144 r~ \$3/9;
#X obj 470 114 r~ \$3/10;
#X obj 520 144 r~ \$3/11;
#X obj 570 114 r~ \$3/12;
#X obj 620 144 r~ \$3/13;
#X obj 670 114 r~ \$3/14;
#X obj 720 144 r~ \$3/15;
#X obj 770 114 r~ \$3/16;
#X obj 820 144 r~ \$3/17;
#X obj 870 114 r~ \$3/18;
#X obj 920 144 r~ \$3/19;
#X obj 970 114 r~ \$3/20;
#X obj 1020 144 r~ \$3/21;
#X obj 1070 114 r~ \$3/22;
#X obj 1120 144 r~ \$3/23;
#X obj 1170 114 r~ \$3/24;
#X text 20 65 pipe_fx_wireless_24~ <name> <domain> <source> <target>
<fx> (<arg1> <arg2> ...);
#X obj 440 203 fx_\$5_24~ \$6 \$7 \$8 \$9 \$10 \$11 \$12 \$13 \$14
\$15 \$16;
#X obj 1239 181 fx_\$5_ctl \$1 \$2 \$6 \$7 \$8 \$9 \$10 \$11 \$12;
#X obj 20 263 send~ \$4/1;
#X obj 70 283 send~ \$4/2;
#X obj 120 263 send~ \$4/3;
#X obj 170 283 send~ \$4/4;
#X obj 220 263 send~ \$4/5;
#X obj 270 283 send~ \$4/6;
#X obj 320 263 send~ \$4/7;
#X obj 370 283 send~ \$4/8;
#X obj 420 263 send~ \$4/9;
#X obj 470 283 send~ \$4/10;
#X obj 520 263 send~ \$4/11;
#X obj 570 283 send~ \$4/12;
#X obj 620 263 send~ \$4/13;
#X obj 670 283 send~ \$4/14;
#X obj 720 263 send~ \$4/15;
#X obj 770 283 send~ \$4/16;
#X obj 820 263 send~ \$4/17;
#X obj 870 283 send~ \$4/18;
#X obj 920 263 send~ \$4/19;
#X obj 970 283 send~ \$4/20;
#X obj 1020 263 send~ \$4/21;
#X obj 1070 283 send~ \$4/22;
#X obj 1120 263 send~ \$4/23;
#X obj 1170 283 send~ \$4/24;
#X obj 479 68 inlet;
#X obj 374 323 outlet;
#X connect 0 0 33 0;
#X connect 3 0 1 0;
#X connect 4 0 5 0;
#X connect 4 1 5 1;
#X connect 5 0 3 0;
#X connect 5 0 2 0;
#X connect 7 0 32 0;
#X connect 8 0 32 1;
#X connect 9 0 32 2;
#X connect 10 0 32 3;
#X connect 11 0 32 4;
#X connect 12 0 32 5;
#X connect 13 0 32 6;
#X connect 14 0 32 7;
#X connect 15 0 32 8;
#X connect 16 0 32 9;
#X connect 17 0 32 10;
#X connect 18 0 32 11;
#X connect 19 0 32 12;
#X connect 20 0 32 13;
#X connect 21 0 32 14;
#X connect 22 0 32 15;
#X connect 23 0 32 16;
#X connect 24 0 32 17;
#X connect 25 0 32 18;
#X connect 26 0 32 19;
#X connect 27 0 32 20;
#X connect 28 0 32 21;
#X connect 29 0 32 22;
#X connect 30 0 32 23;
#X connect 32 0 34 0;
#X connect 32 1 35 0;
#X connect 32 2 36 0;
#X connect 32 3 37 0;
#X connect 32 4 38 0;
#X connect 32 5 39 0;
#X connect 32 6 40 0;
#X connect 32 7 41 0;
#X connect 32 8 42 0;
#X connect 32 9 43 0;
#X connect 32 10 44 0;
#X connect 32 11 45 0;
#X connect 32 12 46 0;
#X connect 32 13 47 0;
#X connect 32 14 48 0;
#X connect 32 15 49 0;
#X connect 32 16 50 0;
#X connect 32 17 51 0;
#X connect 32 18 52 0;
#X connect 32 19 53 0;
#X connect 32 20 54 0;
#X connect 32 21 55 0;
#X connect 32 22 56 0;
#X connect 32 23 57 0;
#X connect 32 24 4 0;
#X connect 33 0 32 24;
#X connect 33 1 5 0;
#X coords 0 362 1 361 85 60 0;
