#N canvas 251 124 765 362 10;
#X obj 20 144 inlet~;
#X obj 20 263 outlet~;
#X obj 1239 144 inlet statelist;
#X obj 70 144 inlet~;
#X obj 70 263 outlet~;
#X obj 120 144 inlet~;
#X obj 120 263 outlet~;
#X obj 170 144 inlet~;
#X obj 170 263 outlet~;
#X obj 220 144 inlet~;
#X obj 220 263 outlet~;
#X obj 270 144 inlet~;
#X obj 270 263 outlet~;
#X obj 320 144 inlet~;
#X obj 320 263 outlet~;
#X obj 370 144 inlet~;
#X obj 370 263 outlet~;
#X obj 1434 357 outlet statelist;
#X obj 1448 310 switch~;
#X obj 1434 334 change 1;
#X obj 1449 243 t b f;
#X obj 1434 274 && 1;
#X obj 1239 181 fx_\$3_ctl \$1 \$2 \$4 \$5 \$6 \$7 \$8 \$9;
#X obj 420 144 inlet~;
#X obj 420 263 outlet~;
#X obj 470 144 inlet~;
#X obj 470 263 outlet~;
#X obj 520 144 inlet~;
#X obj 520 263 outlet~;
#X obj 570 144 inlet~;
#X obj 570 263 outlet~;
#X obj 620 144 inlet~;
#X obj 620 263 outlet~;
#X obj 670 144 inlet~;
#X obj 670 263 outlet~;
#X obj 720 144 inlet~;
#X obj 720 263 outlet~;
#X obj 770 144 inlet~;
#X obj 770 263 outlet~;
#X text 102 319 (c)2013 Marian Weger;
#X text 20 85 pipe_fx_24~ <name> <domain> <fx> (<arg1> <arg2> ...)
;
#X obj 820 144 inlet~;
#X obj 820 263 outlet~;
#X obj 870 144 inlet~;
#X obj 870 263 outlet~;
#X obj 920 144 inlet~;
#X obj 920 263 outlet~;
#X obj 970 144 inlet~;
#X obj 970 263 outlet~;
#X obj 1020 144 inlet~;
#X obj 1020 263 outlet~;
#X obj 1070 144 inlet~;
#X obj 1070 263 outlet~;
#X obj 1120 144 inlet~;
#X obj 1120 263 outlet~;
#X obj 1170 144 inlet~;
#X obj 1170 263 outlet~;
#X obj 440 203 fx_\$3_24~ \$4 \$5 \$6 \$7 \$8 \$9 \$10 \$11 \$12 \$13
\$14 \$15 \$16;
#X connect 0 0 57 0;
#X connect 2 0 22 0;
#X connect 3 0 57 1;
#X connect 5 0 57 2;
#X connect 7 0 57 3;
#X connect 9 0 57 4;
#X connect 11 0 57 5;
#X connect 13 0 57 6;
#X connect 15 0 57 7;
#X connect 19 0 17 0;
#X connect 20 0 21 0;
#X connect 20 1 21 1;
#X connect 21 0 19 0;
#X connect 21 0 18 0;
#X connect 22 0 57 24;
#X connect 22 1 21 0;
#X connect 23 0 57 8;
#X connect 25 0 57 9;
#X connect 27 0 57 10;
#X connect 29 0 57 11;
#X connect 31 0 57 12;
#X connect 33 0 57 13;
#X connect 35 0 57 14;
#X connect 37 0 57 15;
#X connect 41 0 57 16;
#X connect 43 0 57 17;
#X connect 45 0 57 18;
#X connect 47 0 57 19;
#X connect 49 0 57 20;
#X connect 51 0 57 21;
#X connect 53 0 57 22;
#X connect 55 0 57 23;
#X connect 57 0 1 0;
#X connect 57 1 4 0;
#X connect 57 2 6 0;
#X connect 57 3 8 0;
#X connect 57 4 10 0;
#X connect 57 5 12 0;
#X connect 57 6 14 0;
#X connect 57 7 16 0;
#X connect 57 8 24 0;
#X connect 57 9 26 0;
#X connect 57 10 28 0;
#X connect 57 11 30 0;
#X connect 57 12 32 0;
#X connect 57 13 34 0;
#X connect 57 14 36 0;
#X connect 57 15 38 0;
#X connect 57 16 42 0;
#X connect 57 17 44 0;
#X connect 57 18 46 0;
#X connect 57 19 48 0;
#X connect 57 20 50 0;
#X connect 57 21 52 0;
#X connect 57 22 54 0;
#X connect 57 23 56 0;
#X connect 57 24 20 0;
#X coords 0 362 1 361 85 60 0;
