#N canvas 433 28 708 423 10;
#X obj 10 108 inlet~;
#X text 104 353 (c)2012 Marian Weger;
#X obj 570 302 outlet statelist;
#X obj 585 250 switch~;
#X obj 393 108 inlet statelist;
#X obj 570 279 change 1;
#X obj 580 187 t b f;
#X obj 570 217 && 1;
#X obj 393 145 fx_\$4_ctl \$1 \$2 \$5 \$6 \$7 \$8 \$9;
#X obj 20 366 outlet;
#X obj 90 108 inlet~;
#X obj 10 297 throw~ \$3/1;
#X obj 90 297 throw~ \$3/2;
#X obj 170 108 inlet~;
#X obj 250 108 inlet~;
#X obj 170 297 throw~ \$3/3;
#X obj 250 297 throw~ \$3/4;
#X obj 330 108 inlet~;
#X obj 100 207 fx_\$4_5~ \$5 \$6 \$7 \$8 \$9;
#X obj 330 297 throw~ \$3/5;
#X text 10 49 pipe_fx_throw_5~ <name> <domain> <target> <fx> (<arg1>
<arg2> ...);
#X connect 0 0 18 0;
#X connect 4 0 8 0;
#X connect 5 0 2 0;
#X connect 6 0 7 0;
#X connect 6 1 7 1;
#X connect 7 0 5 0;
#X connect 7 0 3 0;
#X connect 8 0 18 5;
#X connect 8 1 7 0;
#X connect 10 0 18 1;
#X connect 13 0 18 2;
#X connect 14 0 18 3;
#X connect 17 0 18 4;
#X connect 18 0 11 0;
#X connect 18 1 12 0;
#X connect 18 2 15 0;
#X connect 18 3 16 0;
#X connect 18 4 19 0;
#X connect 18 5 6 0;
#X coords 0 423 1 422 85 60 0;
