#N canvas 122 116 946 434 10;
#X obj 20 363 outlet~;
#X obj 4262 314 outlet statelist;
#X obj 4277 262 switch~;
#X obj 2092 142 inlet statelist;
#X obj 4262 291 change 1;
#X obj 4372 171 inlet statelist;
#X obj 70 363 outlet~;
#X obj 120 363 outlet~;
#X obj 170 363 outlet~;
#X obj 220 363 outlet~;
#X obj 270 363 outlet~;
#X obj 320 363 outlet~;
#X obj 370 363 outlet~;
#X obj 420 363 outlet~;
#X obj 470 363 outlet~;
#X obj 520 363 outlet~;
#X obj 570 363 outlet~;
#X obj 620 363 outlet~;
#X obj 670 363 outlet~;
#X obj 720 363 outlet~;
#X obj 770 363 outlet~;
#X obj 820 363 outlet~;
#X obj 870 363 outlet~;
#X obj 920 363 outlet~;
#X obj 970 363 outlet~;
#X obj 1020 363 outlet~;
#X obj 1070 363 outlet~;
#X obj 1120 363 outlet~;
#X obj 1170 363 outlet~;
#X obj 20 144 r~ \$3/1;
#X obj 4061 207 mix_\$5_ctl \$1 \$2 \$6 \$7 \$8 \$9 \$10 \$11 \$12
\$13 \$14 \$15;
#X obj 60 164 r~ \$3/2;
#X obj 100 144 r~ \$3/3;
#X obj 140 164 r~ \$3/4;
#X obj 180 144 r~ \$3/5;
#X obj 220 164 r~ \$3/6;
#X obj 260 144 r~ \$3/7;
#X obj 300 164 r~ \$3/8;
#X obj 340 144 r~ \$3/9;
#X obj 380 164 r~ \$3/10;
#X obj 420 144 r~ \$3/11;
#X obj 460 164 r~ \$3/12;
#X obj 500 144 r~ \$3/13;
#X obj 540 164 r~ \$3/14;
#X obj 580 144 r~ \$3/15;
#X obj 620 164 r~ \$3/16;
#X obj 660 144 r~ \$3/17;
#X obj 700 164 r~ \$3/18;
#X obj 740 144 r~ \$3/19;
#X obj 780 164 r~ \$3/20;
#X obj 820 144 r~ \$3/21;
#X obj 860 164 r~ \$3/22;
#X obj 900 144 r~ \$3/23;
#X obj 940 164 r~ \$3/24;
#X text 19 104 pipe_mix_48~ <name> <domain> <source1> <source2> <type>
(<arg1> <arg2> ...);
#X text 30 393 (c)2015 Marian Weger;
#X obj 1301 261 mix_\$5_48~ \$6 \$7 \$8 \$9 \$10 \$11 \$12 \$13 \$14
\$15 \$16 \$17 \$18, f 236;
#X obj 1230 363 outlet~;
#X obj 1280 363 outlet~;
#X obj 1330 363 outlet~;
#X obj 1380 363 outlet~;
#X obj 1430 363 outlet~;
#X obj 1480 363 outlet~;
#X obj 1530 363 outlet~;
#X obj 1580 363 outlet~;
#X obj 1630 363 outlet~;
#X obj 1680 363 outlet~;
#X obj 1730 363 outlet~;
#X obj 1780 363 outlet~;
#X obj 1830 363 outlet~;
#X obj 1880 363 outlet~;
#X obj 1930 363 outlet~;
#X obj 1980 363 outlet~;
#X obj 2030 363 outlet~;
#X obj 2080 363 outlet~;
#X obj 2130 363 outlet~;
#X obj 2180 363 outlet~;
#X obj 2230 363 outlet~;
#X obj 2280 363 outlet~;
#X obj 2330 363 outlet~;
#X obj 2380 363 outlet~;
#X obj 2214 140 r~ \$4/1;
#X obj 2254 160 r~ \$4/2;
#X obj 2294 140 r~ \$4/3;
#X obj 2334 160 r~ \$4/4;
#X obj 2374 140 r~ \$4/5;
#X obj 2414 160 r~ \$4/6;
#X obj 2454 140 r~ \$4/7;
#X obj 2494 160 r~ \$4/8;
#X obj 2534 140 r~ \$4/9;
#X obj 2574 160 r~ \$4/10;
#X obj 2614 140 r~ \$4/11;
#X obj 2654 160 r~ \$4/12;
#X obj 2694 140 r~ \$4/13;
#X obj 2734 160 r~ \$4/14;
#X obj 2774 140 r~ \$4/15;
#X obj 2814 160 r~ \$4/16;
#X obj 2854 140 r~ \$4/17;
#X obj 2894 160 r~ \$4/18;
#X obj 2934 140 r~ \$4/19;
#X obj 2974 160 r~ \$4/20;
#X obj 3014 140 r~ \$4/21;
#X obj 3054 160 r~ \$4/22;
#X obj 3094 140 r~ \$4/23;
#X obj 3134 160 r~ \$4/24;
#X obj 1098 144 r~ \$3/25;
#X obj 1138 164 r~ \$3/26;
#X obj 1178 144 r~ \$3/27;
#X obj 1218 164 r~ \$3/28;
#X obj 1258 144 r~ \$3/29;
#X obj 1298 164 r~ \$3/30;
#X obj 1338 144 r~ \$3/31;
#X obj 1378 164 r~ \$3/32;
#X obj 1418 144 r~ \$3/33;
#X obj 1458 164 r~ \$3/34;
#X obj 1498 144 r~ \$3/35;
#X obj 1538 164 r~ \$3/36;
#X obj 1578 144 r~ \$3/37;
#X obj 1618 164 r~ \$3/38;
#X obj 1658 144 r~ \$3/39;
#X obj 1698 164 r~ \$3/40;
#X obj 1738 144 r~ \$3/41;
#X obj 1778 164 r~ \$3/42;
#X obj 1818 144 r~ \$3/43;
#X obj 1858 164 r~ \$3/44;
#X obj 1898 144 r~ \$3/45;
#X obj 1938 164 r~ \$3/46;
#X obj 1978 144 r~ \$3/47;
#X obj 2018 164 r~ \$3/48;
#X obj 3210 140 r~ \$4/25;
#X obj 3250 160 r~ \$4/26;
#X obj 3290 140 r~ \$4/27;
#X obj 3330 160 r~ \$4/28;
#X obj 3370 140 r~ \$4/29;
#X obj 3410 160 r~ \$4/30;
#X obj 3450 140 r~ \$4/31;
#X obj 3490 160 r~ \$4/32;
#X obj 3530 140 r~ \$4/33;
#X obj 3570 160 r~ \$4/34;
#X obj 3610 140 r~ \$4/35;
#X obj 3650 160 r~ \$4/36;
#X obj 3690 140 r~ \$4/37;
#X obj 3730 160 r~ \$4/38;
#X obj 3770 140 r~ \$4/39;
#X obj 3810 160 r~ \$4/40;
#X obj 3850 140 r~ \$4/41;
#X obj 3890 160 r~ \$4/42;
#X obj 3930 140 r~ \$4/43;
#X obj 3970 160 r~ \$4/44;
#X obj 4010 140 r~ \$4/45;
#X obj 4050 160 r~ \$4/46;
#X obj 4090 140 r~ \$4/47;
#X obj 4130 160 r~ \$4/48;
#X connect 3 0 30 0;
#X connect 4 0 1 0;
#X connect 5 0 30 1;
#X connect 29 0 56 0;
#X connect 30 0 56 96;
#X connect 30 1 2 0;
#X connect 30 1 4 0;
#X connect 31 0 56 1;
#X connect 32 0 56 2;
#X connect 33 0 56 3;
#X connect 34 0 56 4;
#X connect 35 0 56 5;
#X connect 36 0 56 6;
#X connect 37 0 56 7;
#X connect 38 0 56 8;
#X connect 39 0 56 9;
#X connect 40 0 56 10;
#X connect 41 0 56 11;
#X connect 42 0 56 12;
#X connect 43 0 56 13;
#X connect 44 0 56 14;
#X connect 45 0 56 15;
#X connect 46 0 56 16;
#X connect 47 0 56 17;
#X connect 48 0 56 18;
#X connect 49 0 56 19;
#X connect 50 0 56 20;
#X connect 51 0 56 21;
#X connect 52 0 56 22;
#X connect 53 0 56 23;
#X connect 56 0 0 0;
#X connect 56 1 6 0;
#X connect 56 2 7 0;
#X connect 56 3 8 0;
#X connect 56 4 9 0;
#X connect 56 5 10 0;
#X connect 56 6 11 0;
#X connect 56 7 12 0;
#X connect 56 8 13 0;
#X connect 56 9 14 0;
#X connect 56 10 15 0;
#X connect 56 11 16 0;
#X connect 56 12 17 0;
#X connect 56 13 18 0;
#X connect 56 14 19 0;
#X connect 56 15 20 0;
#X connect 56 16 21 0;
#X connect 56 17 22 0;
#X connect 56 18 23 0;
#X connect 56 19 24 0;
#X connect 56 20 25 0;
#X connect 56 21 26 0;
#X connect 56 22 27 0;
#X connect 56 23 28 0;
#X connect 56 24 57 0;
#X connect 56 25 58 0;
#X connect 56 26 59 0;
#X connect 56 27 60 0;
#X connect 56 28 61 0;
#X connect 56 29 62 0;
#X connect 56 30 63 0;
#X connect 56 31 64 0;
#X connect 56 32 65 0;
#X connect 56 33 66 0;
#X connect 56 34 67 0;
#X connect 56 35 68 0;
#X connect 56 36 69 0;
#X connect 56 37 70 0;
#X connect 56 38 71 0;
#X connect 56 39 72 0;
#X connect 56 40 73 0;
#X connect 56 41 74 0;
#X connect 56 42 75 0;
#X connect 56 43 76 0;
#X connect 56 44 77 0;
#X connect 56 45 78 0;
#X connect 56 46 79 0;
#X connect 56 47 80 0;
#X connect 81 0 56 48;
#X connect 82 0 56 49;
#X connect 83 0 56 50;
#X connect 84 0 56 51;
#X connect 85 0 56 52;
#X connect 86 0 56 53;
#X connect 87 0 56 54;
#X connect 88 0 56 55;
#X connect 89 0 56 56;
#X connect 90 0 56 57;
#X connect 91 0 56 58;
#X connect 92 0 56 59;
#X connect 93 0 56 60;
#X connect 94 0 56 61;
#X connect 95 0 56 62;
#X connect 96 0 56 63;
#X connect 97 0 56 64;
#X connect 98 0 56 65;
#X connect 99 0 56 66;
#X connect 100 0 56 67;
#X connect 101 0 56 68;
#X connect 102 0 56 69;
#X connect 103 0 56 70;
#X connect 104 0 56 71;
#X connect 105 0 56 24;
#X connect 106 0 56 25;
#X connect 107 0 56 26;
#X connect 108 0 56 27;
#X connect 109 0 56 28;
#X connect 110 0 56 29;
#X connect 111 0 56 30;
#X connect 112 0 56 31;
#X connect 113 0 56 32;
#X connect 114 0 56 33;
#X connect 115 0 56 34;
#X connect 116 0 56 35;
#X connect 117 0 56 36;
#X connect 118 0 56 37;
#X connect 119 0 56 38;
#X connect 120 0 56 39;
#X connect 121 0 56 40;
#X connect 122 0 56 41;
#X connect 123 0 56 42;
#X connect 124 0 56 43;
#X connect 125 0 56 44;
#X connect 126 0 56 45;
#X connect 127 0 56 46;
#X connect 128 0 56 47;
#X connect 129 0 56 72;
#X connect 130 0 56 73;
#X connect 131 0 56 74;
#X connect 132 0 56 75;
#X connect 133 0 56 76;
#X connect 134 0 56 77;
#X connect 135 0 56 78;
#X connect 136 0 56 79;
#X connect 137 0 56 80;
#X connect 138 0 56 81;
#X connect 139 0 56 82;
#X connect 140 0 56 83;
#X connect 141 0 56 84;
#X connect 142 0 56 85;
#X connect 143 0 56 86;
#X connect 144 0 56 87;
#X connect 145 0 56 88;
#X connect 146 0 56 89;
#X connect 147 0 56 90;
#X connect 148 0 56 91;
#X connect 149 0 56 92;
#X connect 150 0 56 93;
#X connect 151 0 56 94;
#X connect 152 0 56 95;
#X coords 0 434 1 433 85 60 0;
