#N canvas 93 226 664 342 10;
#X obj 20 124 inlet~;
#X obj 20 243 outlet~;
#X text 185 299 (c)2012 Marian Weger;
#X obj 97 243 outlet~;
#X text 474 275 (c)2012 Marian Weger;
#X obj 486 241 outlet statelist;
#X obj 506 209 switch~;
#X obj 486 120 inlet statelist;
#X obj 522 150 loadbang;
#X msg 522 172 1;
#X obj 185 124 inlet ctl;
#X obj 185 161 spat_\$3_ctl \$1 \$2 \$4 \$5 \$6 \$7 \$8 \$9;
#X obj 20 193 spat_\$3_3~ \$4 \$5 \$6 \$7 \$8 \$9;
#X obj 187 243 outlet~;
#X text 21 65 pipe_spat_3~ <name> <domain> <type> (<arg1> <arg2> ...)
;
#X connect 0 0 12 0;
#X connect 7 0 6 0;
#X connect 7 0 5 0;
#X connect 8 0 9 0;
#X connect 9 0 6 0;
#X connect 10 0 11 0;
#X connect 11 0 12 1;
#X connect 12 0 1 0;
#X connect 12 1 3 0;
#X connect 12 2 13 0;
#X coords 0 342 1 341 85 60 0;
