#N canvas 223 138 726 379 10;
#X obj 20 61 inlet~;
#X text 1241 211 (c)2012 Marian Weger;
#X obj 1256 178 outlet statelist;
#X obj 1276 146 switch~;
#X obj 1256 57 inlet statelist;
#X obj 1292 87 loadbang;
#X msg 1292 109 1;
#X obj 799 90 inlet ctl;
#X text 185 326 (c)2013 Marian Weger;
#X obj 20 270 throw~ \$3/1;
#X obj 460 159 spat_\$4_24~ \$5 \$6 \$7 \$8 \$9 \$10 \$11 \$12 \$13
\$14 \$15 \$16;
#X obj 799 127 spat_\$4_ctl \$1 \$2 \$5 \$6 \$7 \$8 \$9;
#X obj 70 290 throw~ \$3/2;
#X obj 120 270 throw~ \$3/3;
#X obj 170 290 throw~ \$3/4;
#X obj 220 270 throw~ \$3/5;
#X obj 270 290 throw~ \$3/6;
#X obj 320 270 throw~ \$3/7;
#X obj 370 290 throw~ \$3/8;
#X obj 420 270 throw~ \$3/9;
#X obj 470 290 throw~ \$3/10;
#X obj 520 270 throw~ \$3/11;
#X obj 570 290 throw~ \$3/12;
#X obj 620 270 throw~ \$3/13;
#X obj 670 290 throw~ \$3/14;
#X obj 720 270 throw~ \$3/15;
#X obj 770 290 throw~ \$3/16;
#X obj 820 270 throw~ \$3/17;
#X obj 870 290 throw~ \$3/18;
#X obj 920 270 throw~ \$3/19;
#X obj 970 290 throw~ \$3/20;
#X obj 1020 270 throw~ \$3/21;
#X obj 1070 290 throw~ \$3/22;
#X obj 1120 270 throw~ \$3/23;
#X obj 1170 290 throw~ \$3/24;
#X obj 28 333 outlet;
#X text 21 2 pipe_spat_t_24~ <name> <domain> <target> <type> (<arg1>
<arg2> ...);
#X connect 0 0 10 0;
#X connect 4 0 3 0;
#X connect 4 0 2 0;
#X connect 5 0 6 0;
#X connect 6 0 3 0;
#X connect 7 0 11 0;
#X connect 10 0 9 0;
#X connect 10 1 12 0;
#X connect 10 2 13 0;
#X connect 10 3 14 0;
#X connect 10 4 15 0;
#X connect 10 5 16 0;
#X connect 10 6 17 0;
#X connect 10 7 18 0;
#X connect 10 8 19 0;
#X connect 10 9 20 0;
#X connect 10 10 21 0;
#X connect 10 11 22 0;
#X connect 10 12 23 0;
#X connect 10 13 24 0;
#X connect 10 14 25 0;
#X connect 10 15 26 0;
#X connect 10 16 27 0;
#X connect 10 17 28 0;
#X connect 10 18 29 0;
#X connect 10 19 30 0;
#X connect 10 20 31 0;
#X connect 10 21 32 0;
#X connect 10 22 33 0;
#X connect 10 23 34 0;
#X connect 11 0 10 1;
#X coords 0 379 1 378 85 60 0;
