#N canvas 0 51 1366 691 10;
#X obj 20 394 inlet~;
#X obj 2460 628 outlet statelist;
#X obj 2475 576 switch~;
#X obj 2460 404 inlet statelist;
#X obj 2460 605 change 1;
#X obj 2265 541 an_\$3_ctl \$1 \$2 \$4 \$5 \$6 \$7 \$8 \$9;
#X obj 410 578 outlet;
#X obj 65 394 inlet~;
#X obj 115 394 inlet~;
#X obj 165 394 inlet~;
#X obj 215 394 inlet~;
#X obj 265 394 inlet~;
#X obj 315 394 inlet~;
#X obj 365 394 inlet~;
#X obj 410 394 inlet~;
#X obj 505 394 inlet~;
#X obj 555 394 inlet~;
#X obj 605 394 inlet~;
#X obj 655 394 inlet~;
#X obj 705 394 inlet~;
#X obj 755 394 inlet~;
#X obj 805 394 inlet~;
#X obj 850 394 inlet~;
#X obj 895 394 inlet~;
#X obj 945 394 inlet~;
#X obj 995 394 inlet~;
#X obj 1045 394 inlet~;
#X obj 1095 394 inlet~;
#X obj 1145 394 inlet~;
#X obj 460 394 inlet~;
#X text 20 344 pipe_an_48~ <name> <domain> <type> (<arg1> <arg2> ...)
;
#X text 102 628 (c)2015 Marian Weger;
#X obj 1205 394 inlet~;
#X obj 1250 394 inlet~;
#X obj 1300 394 inlet~;
#X obj 1350 394 inlet~;
#X obj 1400 394 inlet~;
#X obj 1450 394 inlet~;
#X obj 1500 394 inlet~;
#X obj 1550 394 inlet~;
#X obj 1595 394 inlet~;
#X obj 1690 394 inlet~;
#X obj 1740 394 inlet~;
#X obj 1790 394 inlet~;
#X obj 1840 394 inlet~;
#X obj 1890 394 inlet~;
#X obj 1940 394 inlet~;
#X obj 1990 394 inlet~;
#X obj 2035 394 inlet~;
#X obj 2080 394 inlet~;
#X obj 2130 394 inlet~;
#X obj 2180 394 inlet~;
#X obj 2230 394 inlet~;
#X obj 2280 394 inlet~;
#X obj 2330 394 inlet~;
#X obj 1645 394 inlet~;
#X obj 491 528 an_\$3_48~ \$1 \$2 \$4 \$5 \$6 \$7 \$8 \$9 \$10 \$11
\$12 \$13 \$14 \$15, f 136;
#X connect 0 0 56 0;
#X connect 3 0 5 1;
#X connect 4 0 1 0;
#X connect 5 0 56 48;
#X connect 5 1 4 0;
#X connect 5 1 2 0;
#X connect 7 0 56 1;
#X connect 8 0 56 2;
#X connect 9 0 56 3;
#X connect 10 0 56 4;
#X connect 11 0 56 5;
#X connect 12 0 56 6;
#X connect 13 0 56 7;
#X connect 14 0 56 8;
#X connect 15 0 56 10;
#X connect 16 0 56 11;
#X connect 17 0 56 12;
#X connect 18 0 56 13;
#X connect 19 0 56 14;
#X connect 20 0 56 15;
#X connect 21 0 56 16;
#X connect 22 0 56 17;
#X connect 23 0 56 18;
#X connect 24 0 56 19;
#X connect 25 0 56 20;
#X connect 26 0 56 21;
#X connect 27 0 56 22;
#X connect 28 0 56 23;
#X connect 29 0 56 9;
#X connect 32 0 56 24;
#X connect 33 0 56 25;
#X connect 34 0 56 26;
#X connect 35 0 56 27;
#X connect 36 0 56 28;
#X connect 37 0 56 29;
#X connect 38 0 56 30;
#X connect 39 0 56 31;
#X connect 40 0 56 32;
#X connect 41 0 56 34;
#X connect 42 0 56 35;
#X connect 43 0 56 36;
#X connect 44 0 56 37;
#X connect 45 0 56 38;
#X connect 46 0 56 39;
#X connect 47 0 56 40;
#X connect 48 0 56 41;
#X connect 49 0 56 42;
#X connect 50 0 56 43;
#X connect 51 0 56 44;
#X connect 52 0 56 45;
#X connect 53 0 56 46;
#X connect 54 0 56 47;
#X connect 55 0 56 33;
#X connect 56 0 6 0;
#X connect 56 1 5 0;
#X coords 0 691 1 690 85 60 0;
