#N canvas 0 51 1366 691 10;
#X obj 2485 180 inlet statelist;
#X obj 2625 459 outlet statelist;
#X obj 2639 412 switch~;
#X obj 2625 436 change 1;
#X obj 2640 345 t b f;
#X obj 2625 376 && 1;
#X obj 70 153 catch~ \$3/2;
#X obj 120 183 catch~ \$3/3;
#X obj 170 153 catch~ \$3/4;
#X obj 220 183 catch~ \$3/5;
#X obj 270 153 catch~ \$3/6;
#X obj 320 183 catch~ \$3/7;
#X obj 370 153 catch~ \$3/8;
#X obj 420 183 catch~ \$3/9;
#X obj 470 153 catch~ \$3/10;
#X obj 520 183 catch~ \$3/11;
#X obj 570 153 catch~ \$3/12;
#X obj 620 183 catch~ \$3/13;
#X obj 670 153 catch~ \$3/14;
#X obj 720 183 catch~ \$3/15;
#X obj 770 153 catch~ \$3/16;
#X obj 820 183 catch~ \$3/17;
#X obj 870 153 catch~ \$3/18;
#X obj 920 183 catch~ \$3/19;
#X obj 970 153 catch~ \$3/20;
#X obj 1020 183 catch~ \$3/21;
#X obj 1070 153 catch~ \$3/22;
#X obj 1120 183 catch~ \$3/23;
#X obj 1170 153 catch~ \$3/24;
#X obj 2485 217 fx_\$5_ctl \$1 \$2 \$6 \$7 \$8 \$9 \$10 \$11 \$12;
#X obj 20 592 throw~ \$4/1;
#X obj 70 612 throw~ \$4/2;
#X obj 120 592 throw~ \$4/3;
#X obj 170 612 throw~ \$4/4;
#X obj 220 592 throw~ \$4/5;
#X obj 270 612 throw~ \$4/6;
#X obj 320 592 throw~ \$4/7;
#X obj 370 612 throw~ \$4/8;
#X obj 420 592 throw~ \$4/9;
#X obj 470 612 throw~ \$4/10;
#X obj 520 592 throw~ \$4/11;
#X obj 570 612 throw~ \$4/12;
#X obj 620 592 throw~ \$4/13;
#X obj 670 612 throw~ \$4/14;
#X obj 720 592 throw~ \$4/15;
#X obj 770 612 throw~ \$4/16;
#X obj 820 592 throw~ \$4/17;
#X obj 870 612 throw~ \$4/18;
#X obj 920 592 throw~ \$4/19;
#X obj 970 612 throw~ \$4/20;
#X obj 1020 592 throw~ \$4/21;
#X obj 1070 612 throw~ \$4/22;
#X obj 1120 592 throw~ \$4/23;
#X obj 1170 612 throw~ \$4/24;
#X obj 479 107 inlet;
#X obj 374 652 outlet;
#X obj 20 183 catch~ \$3/1;
#X obj 1238 183 catch~ \$3/25;
#X obj 1288 153 catch~ \$3/26;
#X obj 1338 183 catch~ \$3/27;
#X obj 1388 153 catch~ \$3/28;
#X obj 1438 183 catch~ \$3/29;
#X obj 1488 153 catch~ \$3/30;
#X obj 1538 183 catch~ \$3/31;
#X obj 1588 153 catch~ \$3/32;
#X obj 1638 183 catch~ \$3/33;
#X obj 1688 153 catch~ \$3/34;
#X obj 1738 183 catch~ \$3/35;
#X obj 1788 153 catch~ \$3/36;
#X obj 1838 183 catch~ \$3/37;
#X obj 1888 153 catch~ \$3/38;
#X obj 1938 183 catch~ \$3/39;
#X obj 1988 153 catch~ \$3/40;
#X obj 2038 183 catch~ \$3/41;
#X obj 2088 153 catch~ \$3/42;
#X obj 2138 183 catch~ \$3/43;
#X obj 2188 153 catch~ \$3/44;
#X obj 2238 183 catch~ \$3/45;
#X obj 2288 153 catch~ \$3/46;
#X obj 2338 183 catch~ \$3/47;
#X obj 2388 153 catch~ \$3/48;
#X obj 1274 592 throw~ \$4/25;
#X obj 1324 612 throw~ \$4/26;
#X obj 1374 592 throw~ \$4/27;
#X obj 1424 612 throw~ \$4/28;
#X obj 1474 592 throw~ \$4/29;
#X obj 1524 612 throw~ \$4/30;
#X obj 1574 592 throw~ \$4/31;
#X obj 1624 612 throw~ \$4/32;
#X obj 1674 592 throw~ \$4/33;
#X obj 1724 612 throw~ \$4/34;
#X obj 1774 592 throw~ \$4/35;
#X obj 1824 612 throw~ \$4/36;
#X obj 1874 592 throw~ \$4/36;
#X obj 1924 612 throw~ \$4/38;
#X obj 1974 592 throw~ \$4/39;
#X obj 2024 612 throw~ \$4/40;
#X obj 2074 592 throw~ \$4/41;
#X obj 2124 612 throw~ \$4/42;
#X obj 2174 592 throw~ \$4/43;
#X obj 2224 612 throw~ \$4/44;
#X obj 2274 592 throw~ \$4/45;
#X obj 2324 612 throw~ \$4/46;
#X obj 2374 592 throw~ \$4/47;
#X obj 2424 612 throw~ \$4/48;
#X obj 1311 470 fx_\$5_48~ \$6 \$7 \$8 \$9 \$10 \$11 \$12 \$13 \$14
\$15 \$16, f 113;
#X text 102 648 (c)2015 Marian Weger;
#X text 20 104 pipe_fx_tc_48~ <name> <domain> <source> <target> <fx>
(<arg1> <arg2> ...);
#X connect 0 0 29 0;
#X connect 3 0 1 0;
#X connect 4 0 5 0;
#X connect 4 1 5 1;
#X connect 5 0 3 0;
#X connect 5 0 2 0;
#X connect 6 0 105 1;
#X connect 7 0 105 2;
#X connect 8 0 105 3;
#X connect 9 0 105 4;
#X connect 10 0 105 5;
#X connect 11 0 105 6;
#X connect 12 0 105 7;
#X connect 13 0 105 8;
#X connect 14 0 105 9;
#X connect 15 0 105 10;
#X connect 16 0 105 11;
#X connect 17 0 105 12;
#X connect 18 0 105 13;
#X connect 19 0 105 14;
#X connect 20 0 105 15;
#X connect 21 0 105 16;
#X connect 22 0 105 17;
#X connect 23 0 105 18;
#X connect 24 0 105 19;
#X connect 25 0 105 20;
#X connect 26 0 105 21;
#X connect 27 0 105 22;
#X connect 28 0 105 23;
#X connect 29 0 105 48;
#X connect 29 1 5 0;
#X connect 56 0 105 0;
#X connect 57 0 105 24;
#X connect 58 0 105 25;
#X connect 59 0 105 26;
#X connect 60 0 105 27;
#X connect 61 0 105 28;
#X connect 62 0 105 29;
#X connect 63 0 105 30;
#X connect 64 0 105 31;
#X connect 65 0 105 32;
#X connect 66 0 105 33;
#X connect 67 0 105 34;
#X connect 68 0 105 35;
#X connect 69 0 105 36;
#X connect 70 0 105 37;
#X connect 71 0 105 38;
#X connect 72 0 105 39;
#X connect 73 0 105 40;
#X connect 74 0 105 41;
#X connect 75 0 105 42;
#X connect 76 0 105 43;
#X connect 77 0 105 44;
#X connect 78 0 105 45;
#X connect 79 0 105 46;
#X connect 80 0 105 47;
#X connect 105 0 30 0;
#X connect 105 1 31 0;
#X connect 105 2 32 0;
#X connect 105 3 33 0;
#X connect 105 4 34 0;
#X connect 105 5 35 0;
#X connect 105 6 36 0;
#X connect 105 7 37 0;
#X connect 105 8 38 0;
#X connect 105 9 39 0;
#X connect 105 10 40 0;
#X connect 105 11 41 0;
#X connect 105 12 42 0;
#X connect 105 13 43 0;
#X connect 105 14 44 0;
#X connect 105 15 45 0;
#X connect 105 16 46 0;
#X connect 105 17 47 0;
#X connect 105 18 48 0;
#X connect 105 19 49 0;
#X connect 105 20 50 0;
#X connect 105 21 51 0;
#X connect 105 22 52 0;
#X connect 105 23 53 0;
#X connect 105 24 81 0;
#X connect 105 25 82 0;
#X connect 105 26 83 0;
#X connect 105 27 84 0;
#X connect 105 28 85 0;
#X connect 105 29 86 0;
#X connect 105 30 87 0;
#X connect 105 31 88 0;
#X connect 105 32 89 0;
#X connect 105 33 90 0;
#X connect 105 34 91 0;
#X connect 105 35 92 0;
#X connect 105 36 93 0;
#X connect 105 37 94 0;
#X connect 105 38 95 0;
#X connect 105 39 96 0;
#X connect 105 40 97 0;
#X connect 105 41 98 0;
#X connect 105 42 99 0;
#X connect 105 43 100 0;
#X connect 105 44 101 0;
#X connect 105 45 102 0;
#X connect 105 46 103 0;
#X connect 105 47 104 0;
#X connect 105 48 4 0;
#X coords 0 691 1 690 85 60 0;
