#N canvas 507 189 603 391 10;
#X obj 20 94 inlet~;
#X obj 1212 318 outlet statelist;
#X obj 1227 266 switch~;
#X obj 1212 94 inlet statelist;
#X obj 1212 295 change 1;
#X obj 1017 231 an_\$3_ctl \$1 \$2 \$4 \$5 \$6 \$7 \$8 \$9;
#X obj 410 278 outlet;
#X obj 65 94 inlet~;
#X obj 115 94 inlet~;
#X obj 165 94 inlet~;
#X obj 215 94 inlet~;
#X obj 265 94 inlet~;
#X obj 315 94 inlet~;
#X obj 365 94 inlet~;
#X text 20 44 pipe_an_24~ <name> <domain> <type> (<arg1> <arg2> ...)
;
#X obj 410 94 inlet~;
#X obj 505 94 inlet~;
#X obj 555 94 inlet~;
#X obj 605 94 inlet~;
#X obj 655 94 inlet~;
#X obj 705 94 inlet~;
#X obj 755 94 inlet~;
#X obj 805 94 inlet~;
#X obj 850 94 inlet~;
#X obj 895 94 inlet~;
#X obj 945 94 inlet~;
#X obj 995 94 inlet~;
#X obj 1045 94 inlet~;
#X obj 1095 94 inlet~;
#X obj 1145 94 inlet~;
#X text 102 328 (c)2013 Marian Weger;
#X obj 460 94 inlet~;
#X obj 410 231 an_\$3_24~ \$1 \$2 \$4 \$5 \$6 \$7 \$8 \$9 \$10 \$11
\$12 \$13 \$14 \$15;
#X connect 0 0 32 0;
#X connect 3 0 5 1;
#X connect 4 0 1 0;
#X connect 5 0 32 24;
#X connect 5 1 4 0;
#X connect 5 1 2 0;
#X connect 7 0 32 1;
#X connect 8 0 32 2;
#X connect 9 0 32 3;
#X connect 10 0 32 4;
#X connect 11 0 32 5;
#X connect 12 0 32 6;
#X connect 13 0 32 7;
#X connect 15 0 32 8;
#X connect 16 0 32 10;
#X connect 17 0 32 11;
#X connect 18 0 32 12;
#X connect 19 0 32 13;
#X connect 20 0 32 14;
#X connect 21 0 32 15;
#X connect 22 0 32 16;
#X connect 23 0 32 17;
#X connect 24 0 32 18;
#X connect 25 0 32 19;
#X connect 26 0 32 20;
#X connect 27 0 32 21;
#X connect 28 0 32 22;
#X connect 29 0 32 23;
#X connect 31 0 32 9;
#X connect 32 0 6 0;
#X connect 32 1 5 0;
#X coords 0 391 1 390 85 60 0;
