#N canvas 1 51 1351 687 10;
#X obj 2615 176 inlet statelist;
#X obj 2755 455 outlet statelist;
#X obj 2769 408 switch~;
#X obj 2755 432 change 1;
#X obj 2770 341 t b f;
#X obj 2755 372 && 1;
#X obj 200 149 inlet~ \$3/2;
#X obj 250 179 inlet~ \$3/3;
#X obj 300 149 inlet~ \$3/4;
#X obj 350 179 inlet~ \$3/5;
#X obj 400 149 inlet~ \$3/6;
#X obj 450 179 inlet~ \$3/7;
#X obj 500 149 inlet~ \$3/8;
#X obj 550 179 inlet~ \$3/9;
#X obj 600 149 inlet~ \$3/10;
#X obj 650 179 inlet~ \$3/11;
#X obj 700 149 inlet~ \$3/12;
#X obj 750 179 inlet~ \$3/13;
#X obj 800 149 inlet~ \$3/14;
#X obj 850 179 inlet~ \$3/15;
#X obj 900 149 inlet~ \$3/16;
#X obj 950 179 inlet~ \$3/17;
#X obj 1000 149 inlet~ \$3/18;
#X obj 1050 179 inlet~ \$3/19;
#X obj 1100 149 inlet~ \$3/20;
#X obj 1150 179 inlet~ \$3/21;
#X obj 1200 149 inlet~ \$3/22;
#X obj 1250 179 inlet~ \$3/23;
#X obj 1300 149 inlet~ \$3/24;
#X obj 150 588 outlet~ \$4/1;
#X obj 200 608 outlet~ \$4/2;
#X obj 250 588 outlet~ \$4/3;
#X obj 300 608 outlet~ \$4/4;
#X obj 350 588 outlet~ \$4/5;
#X obj 400 608 outlet~ \$4/6;
#X obj 450 588 outlet~ \$4/7;
#X obj 500 608 outlet~ \$4/8;
#X obj 550 588 outlet~ \$4/9;
#X obj 600 608 outlet~ \$4/10;
#X obj 650 588 outlet~ \$4/11;
#X obj 700 608 outlet~ \$4/12;
#X obj 750 588 outlet~ \$4/13;
#X obj 800 608 outlet~ \$4/14;
#X obj 850 588 outlet~ \$4/15;
#X obj 900 608 outlet~ \$4/16;
#X obj 950 588 outlet~ \$4/17;
#X obj 1000 608 outlet~ \$4/18;
#X obj 1050 588 outlet~ \$4/19;
#X obj 1100 608 outlet~ \$4/20;
#X obj 1150 588 outlet~ \$4/21;
#X obj 1200 608 outlet~ \$4/22;
#X obj 1250 588 outlet~ \$4/23;
#X obj 1300 608 outlet~ \$4/24;
#X obj 150 179 inlet~ \$3/1;
#X obj 1368 179 inlet~ \$3/25;
#X obj 1418 149 inlet~ \$3/26;
#X obj 1468 179 inlet~ \$3/27;
#X obj 1518 149 inlet~ \$3/28;
#X obj 1568 179 inlet~ \$3/29;
#X obj 1618 149 inlet~ \$3/30;
#X obj 1668 179 inlet~ \$3/31;
#X obj 1718 149 inlet~ \$3/32;
#X obj 1768 179 inlet~ \$3/33;
#X obj 1818 149 inlet~ \$3/34;
#X obj 1868 179 inlet~ \$3/35;
#X obj 1918 149 inlet~ \$3/36;
#X obj 1968 179 inlet~ \$3/37;
#X obj 2018 149 inlet~ \$3/38;
#X obj 2068 179 inlet~ \$3/39;
#X obj 2118 149 inlet~ \$3/40;
#X obj 2168 179 inlet~ \$3/41;
#X obj 2218 149 inlet~ \$3/42;
#X obj 2268 179 inlet~ \$3/43;
#X obj 2318 149 inlet~ \$3/44;
#X obj 2368 179 inlet~ \$3/45;
#X obj 2418 149 inlet~ \$3/46;
#X obj 2468 179 inlet~ \$3/47;
#X obj 2518 149 inlet~ \$3/48;
#X obj 1404 588 outlet~ \$4/25;
#X obj 1454 608 outlet~ \$4/26;
#X obj 1504 588 outlet~ \$4/27;
#X obj 1554 608 outlet~ \$4/28;
#X obj 1604 588 outlet~ \$4/29;
#X obj 1654 608 outlet~ \$4/30;
#X obj 1704 588 outlet~ \$4/31;
#X obj 1754 608 outlet~ \$4/32;
#X obj 1804 588 outlet~ \$4/33;
#X obj 1854 608 outlet~ \$4/34;
#X obj 1904 588 outlet~ \$4/35;
#X obj 1954 608 outlet~ \$4/36;
#X obj 2004 588 outlet~ \$4/36;
#X obj 2054 608 outlet~ \$4/38;
#X obj 2104 588 outlet~ \$4/39;
#X obj 2154 608 outlet~ \$4/40;
#X obj 2204 588 outlet~ \$4/41;
#X obj 2254 608 outlet~ \$4/42;
#X obj 2304 588 outlet~ \$4/43;
#X obj 2354 608 outlet~ \$4/44;
#X obj 2404 588 outlet~ \$4/45;
#X obj 2454 608 outlet~ \$4/46;
#X obj 2504 588 outlet~ \$4/47;
#X obj 2554 608 outlet~ \$4/48;
#X text 232 644 (c)2015 Marian Weger;
#X obj 1441 466 fx_\$3_48~ \$4 \$5 \$6 \$7 \$8 \$9 \$10 \$11 \$12 \$13
\$14 \$15 \$16, f 113;
#X obj 2615 213 fx_\$3_ctl \$1 \$2 \$4 \$5 \$6 \$7 \$8 \$9 \$10 \$11
\$12;
#X text 150 100 pipe_fx_48~ <name> <domain> <fx> (<arg1> <arg2> ...)
;
#X connect 0 0 104 0;
#X connect 3 0 1 0;
#X connect 4 0 5 0;
#X connect 4 1 5 1;
#X connect 5 0 3 0;
#X connect 5 0 2 0;
#X connect 6 0 103 1;
#X connect 7 0 103 2;
#X connect 8 0 103 3;
#X connect 9 0 103 4;
#X connect 10 0 103 5;
#X connect 11 0 103 6;
#X connect 12 0 103 7;
#X connect 13 0 103 8;
#X connect 14 0 103 9;
#X connect 15 0 103 10;
#X connect 16 0 103 11;
#X connect 17 0 103 12;
#X connect 18 0 103 13;
#X connect 19 0 103 14;
#X connect 20 0 103 15;
#X connect 21 0 103 16;
#X connect 22 0 103 17;
#X connect 23 0 103 18;
#X connect 24 0 103 19;
#X connect 25 0 103 20;
#X connect 26 0 103 21;
#X connect 27 0 103 22;
#X connect 28 0 103 23;
#X connect 53 0 103 0;
#X connect 54 0 103 24;
#X connect 55 0 103 25;
#X connect 56 0 103 26;
#X connect 57 0 103 27;
#X connect 58 0 103 28;
#X connect 59 0 103 29;
#X connect 60 0 103 30;
#X connect 61 0 103 31;
#X connect 62 0 103 32;
#X connect 63 0 103 33;
#X connect 64 0 103 34;
#X connect 65 0 103 35;
#X connect 66 0 103 36;
#X connect 67 0 103 37;
#X connect 68 0 103 38;
#X connect 69 0 103 39;
#X connect 70 0 103 40;
#X connect 71 0 103 41;
#X connect 72 0 103 42;
#X connect 73 0 103 43;
#X connect 74 0 103 44;
#X connect 75 0 103 45;
#X connect 76 0 103 46;
#X connect 77 0 103 47;
#X connect 103 0 29 0;
#X connect 103 1 30 0;
#X connect 103 2 31 0;
#X connect 103 3 32 0;
#X connect 103 4 33 0;
#X connect 103 5 34 0;
#X connect 103 6 35 0;
#X connect 103 7 36 0;
#X connect 103 8 37 0;
#X connect 103 9 38 0;
#X connect 103 10 39 0;
#X connect 103 11 40 0;
#X connect 103 12 41 0;
#X connect 103 13 42 0;
#X connect 103 14 43 0;
#X connect 103 15 44 0;
#X connect 103 16 45 0;
#X connect 103 17 46 0;
#X connect 103 18 47 0;
#X connect 103 19 48 0;
#X connect 103 20 49 0;
#X connect 103 21 50 0;
#X connect 103 22 51 0;
#X connect 103 23 52 0;
#X connect 103 24 78 0;
#X connect 103 25 79 0;
#X connect 103 26 80 0;
#X connect 103 27 81 0;
#X connect 103 28 82 0;
#X connect 103 29 83 0;
#X connect 103 30 84 0;
#X connect 103 31 85 0;
#X connect 103 32 86 0;
#X connect 103 33 87 0;
#X connect 103 34 88 0;
#X connect 103 35 89 0;
#X connect 103 36 90 0;
#X connect 103 37 91 0;
#X connect 103 38 92 0;
#X connect 103 39 93 0;
#X connect 103 40 94 0;
#X connect 103 41 95 0;
#X connect 103 42 96 0;
#X connect 103 43 97 0;
#X connect 103 44 98 0;
#X connect 103 45 99 0;
#X connect 103 46 100 0;
#X connect 103 47 101 0;
#X connect 103 48 4 0;
#X connect 104 0 103 48;
#X connect 104 1 5 0;
#X coords 0 687 1 686 85 60 0;
