#N canvas 252 71 545 374 10;
#X obj 20 136 inlet~;
#X obj 20 255 outlet~;
#X text 102 311 (c)2012 Marian Weger;
#X obj 356 330 outlet statelist;
#X obj 371 278 switch~;
#X obj 161 136 inlet statelist;
#X obj 356 307 change 1;
#X obj 366 215 t b f;
#X obj 356 245 && 1;
#X obj 20 205 fx_\$3~ \$4 \$5 \$6 \$7 \$8 \$9;
#X obj 161 173 fx_\$3_ctl \$1 \$2 \$4 \$5 \$6 \$7 \$8 \$9;
#X text 20 77 pipe_fx~ <name> <domain> <fx> (<arg1> <arg2> ...);
#X connect 0 0 9 0;
#X connect 5 0 10 0;
#X connect 6 0 3 0;
#X connect 7 0 8 0;
#X connect 7 1 8 1;
#X connect 8 0 6 0;
#X connect 8 0 4 0;
#X connect 9 0 1 0;
#X connect 10 0 9 1;
#X connect 10 1 8 0;
#X coords 0 374 1 373 85 60 0;
