#N canvas 114 56 946 434 10;
#X obj 20 144 inlet~;
#X obj 20 363 outlet~;
#X obj 2082 338 outlet statelist;
#X obj 2097 286 switch~;
#X obj 992 144 inlet statelist;
#X obj 2082 315 change 1;
#X obj 340 144 inlet~;
#X obj 1881 231 mix_\$3_ctl \$1 \$2 \$4 \$5 \$6 \$7 \$8 \$9;
#X obj 2082 144 inlet statelist;
#X obj 60 144 inlet~;
#X obj 380 144 inlet~;
#X obj 70 363 outlet~;
#X obj 420 144 inlet~;
#X obj 100 144 inlet~;
#X obj 120 363 outlet~;
#X obj 140 144 inlet~;
#X obj 460 144 inlet~;
#X obj 170 363 outlet~;
#X obj 220 363 outlet~;
#X obj 180 144 inlet~;
#X obj 500 144 inlet~;
#X obj 220 144 inlet~;
#X obj 540 144 inlet~;
#X obj 270 363 outlet~;
#X obj 260 144 inlet~;
#X obj 300 144 inlet~;
#X obj 580 144 inlet~;
#X obj 620 144 inlet~;
#X obj 320 363 outlet~;
#X obj 370 363 outlet~;
#X text 19 114 pipe_mix_24~ <name> <domain> <type> (<arg1> <arg2> ...)
;
#X obj 660 144 inlet~;
#X obj 700 144 inlet~;
#X obj 740 144 inlet~;
#X obj 780 144 inlet~;
#X obj 820 144 inlet~;
#X obj 860 144 inlet~;
#X obj 900 144 inlet~;
#X obj 940 144 inlet~;
#X obj 1098 144 inlet~;
#X obj 1138 144 inlet~;
#X obj 1178 144 inlet~;
#X obj 1218 144 inlet~;
#X obj 1258 144 inlet~;
#X obj 1298 144 inlet~;
#X obj 1338 144 inlet~;
#X obj 1378 144 inlet~;
#X obj 1418 144 inlet~;
#X obj 1458 144 inlet~;
#X obj 1498 144 inlet~;
#X obj 1538 144 inlet~;
#X obj 1578 144 inlet~;
#X obj 1618 144 inlet~;
#X obj 1658 144 inlet~;
#X obj 1698 144 inlet~;
#X obj 1738 144 inlet~;
#X obj 1778 144 inlet~;
#X obj 1818 144 inlet~;
#X obj 1858 144 inlet~;
#X obj 1898 144 inlet~;
#X obj 1938 144 inlet~;
#X obj 1978 144 inlet~;
#X obj 2018 144 inlet~;
#X text 30 393 (c)2013 Marian Weger;
#X obj 420 363 outlet~;
#X obj 470 363 outlet~;
#X obj 520 363 outlet~;
#X obj 570 363 outlet~;
#X obj 620 363 outlet~;
#X obj 670 363 outlet~;
#X obj 720 363 outlet~;
#X obj 770 363 outlet~;
#X obj 820 363 outlet~;
#X obj 870 363 outlet~;
#X obj 920 363 outlet~;
#X obj 970 363 outlet~;
#X obj 1020 363 outlet~;
#X obj 1070 363 outlet~;
#X obj 1120 363 outlet~;
#X obj 1170 363 outlet~;
#X obj 819 292 mix_mux_24~ \$4 \$5 \$6 \$7 \$8 \$9 0 0 0 0 0 0 0 0
0 0 0 0 0 0 0;
#X connect 0 0 80 0;
#X connect 4 0 7 0;
#X connect 5 0 2 0;
#X connect 6 0 80 8;
#X connect 7 0 80 48;
#X connect 7 1 3 0;
#X connect 7 1 5 0;
#X connect 8 0 7 1;
#X connect 9 0 80 1;
#X connect 10 0 80 9;
#X connect 12 0 80 10;
#X connect 13 0 80 2;
#X connect 15 0 80 3;
#X connect 16 0 80 11;
#X connect 19 0 80 4;
#X connect 20 0 80 12;
#X connect 21 0 80 5;
#X connect 22 0 80 13;
#X connect 24 0 80 6;
#X connect 25 0 80 7;
#X connect 26 0 80 14;
#X connect 27 0 80 15;
#X connect 31 0 80 16;
#X connect 32 0 80 17;
#X connect 33 0 80 18;
#X connect 34 0 80 19;
#X connect 35 0 80 20;
#X connect 36 0 80 21;
#X connect 37 0 80 22;
#X connect 38 0 80 23;
#X connect 39 0 80 24;
#X connect 40 0 80 25;
#X connect 41 0 80 26;
#X connect 42 0 80 27;
#X connect 43 0 80 28;
#X connect 44 0 80 29;
#X connect 45 0 80 30;
#X connect 46 0 80 31;
#X connect 47 0 80 32;
#X connect 48 0 80 33;
#X connect 49 0 80 34;
#X connect 50 0 80 35;
#X connect 51 0 80 36;
#X connect 52 0 80 37;
#X connect 53 0 80 38;
#X connect 54 0 80 39;
#X connect 55 0 80 40;
#X connect 56 0 80 41;
#X connect 57 0 80 42;
#X connect 58 0 80 43;
#X connect 59 0 80 44;
#X connect 60 0 80 45;
#X connect 61 0 80 46;
#X connect 62 0 80 47;
#X connect 80 0 1 0;
#X connect 80 1 11 0;
#X connect 80 2 14 0;
#X connect 80 3 17 0;
#X connect 80 4 18 0;
#X connect 80 5 23 0;
#X connect 80 6 28 0;
#X connect 80 7 29 0;
#X connect 80 8 64 0;
#X connect 80 9 65 0;
#X connect 80 10 66 0;
#X connect 80 11 67 0;
#X connect 80 12 68 0;
#X connect 80 13 69 0;
#X connect 80 14 70 0;
#X connect 80 15 71 0;
#X connect 80 16 72 0;
#X connect 80 17 73 0;
#X connect 80 18 74 0;
#X connect 80 19 75 0;
#X connect 80 20 76 0;
#X connect 80 21 77 0;
#X connect 80 22 78 0;
#X connect 80 23 79 0;
#X coords 0 434 1 433 85 60 0;
