#N canvas 223 138 726 379 10;
#X obj 20 61 inlet~;
#X obj 20 270 outlet~;
#X obj 70 270 outlet~;
#X text 1241 211 (c)2012 Marian Weger;
#X obj 1256 178 outlet statelist;
#X obj 1276 146 switch~;
#X obj 1256 57 inlet statelist;
#X obj 1292 87 loadbang;
#X msg 1292 109 1;
#X obj 799 90 inlet ctl;
#X obj 799 127 spat_\$3_ctl \$1 \$2 \$4 \$5 \$6 \$7 \$8 \$9;
#X obj 120 270 outlet~;
#X obj 170 270 outlet~;
#X obj 220 270 outlet~;
#X obj 270 270 outlet~;
#X obj 320 270 outlet~;
#X obj 370 270 outlet~;
#X text 21 2 pipe_spat_24~ <name> <domain> <type> (<arg1> <arg2> ...)
;
#X obj 460 159 spat_\$3_24~ \$4 \$5 \$6 \$7 \$8 \$9 \$10 \$11 \$12
\$13 \$14 \$15 \$16;
#X obj 420 270 outlet~;
#X obj 470 270 outlet~;
#X obj 520 270 outlet~;
#X obj 570 270 outlet~;
#X obj 620 270 outlet~;
#X obj 670 270 outlet~;
#X obj 720 270 outlet~;
#X obj 770 270 outlet~;
#X obj 820 270 outlet~;
#X obj 870 270 outlet~;
#X obj 920 270 outlet~;
#X obj 970 270 outlet~;
#X obj 1020 270 outlet~;
#X obj 1070 270 outlet~;
#X obj 1120 270 outlet~;
#X obj 1170 270 outlet~;
#X text 185 326 (c)2013 Marian Weger;
#X connect 0 0 18 0;
#X connect 6 0 5 0;
#X connect 6 0 4 0;
#X connect 7 0 8 0;
#X connect 8 0 5 0;
#X connect 9 0 10 0;
#X connect 10 0 18 1;
#X connect 18 0 1 0;
#X connect 18 1 2 0;
#X connect 18 2 11 0;
#X connect 18 3 12 0;
#X connect 18 4 13 0;
#X connect 18 5 14 0;
#X connect 18 6 15 0;
#X connect 18 7 16 0;
#X connect 18 8 19 0;
#X connect 18 9 20 0;
#X connect 18 10 21 0;
#X connect 18 11 22 0;
#X connect 18 12 23 0;
#X connect 18 13 24 0;
#X connect 18 14 25 0;
#X connect 18 15 26 0;
#X connect 18 16 27 0;
#X connect 18 17 28 0;
#X connect 18 18 29 0;
#X connect 18 19 30 0;
#X connect 18 20 31 0;
#X connect 18 21 32 0;
#X connect 18 22 33 0;
#X connect 18 23 34 0;
#X coords 0 379 1 378 85 60 0;
