#N canvas 339 116 664 342 10;
#X obj 20 124 inlet~;
#X text 185 299 (c)2012 Marian Weger;
#X text 474 275 (c)2012 Marian Weger;
#X obj 486 241 outlet statelist;
#X obj 506 209 switch~;
#X obj 486 120 inlet statelist;
#X obj 522 150 loadbang;
#X msg 522 172 1;
#X obj 185 124 inlet ctl;
#X text 21 65 pipe_spat_t_4~ <name> <domain> <target> <type> (<arg1>
<arg2> ...);
#X obj 20 193 spat_\$4_4~ \$5 \$6 \$7 \$8 \$9 \$10 \$11;
#X obj 185 161 spat_\$4_ctl \$1 \$2 \$5 \$6 \$7 \$8 \$9 \$10 \$11;
#X obj 20 303 throw~ \$3/1;
#X obj 70 283 throw~ \$3/2;
#X obj 120 263 throw~ \$3/3;
#X obj 170 243 throw~ \$3/4;
#X connect 0 0 10 0;
#X connect 5 0 4 0;
#X connect 5 0 3 0;
#X connect 6 0 7 0;
#X connect 7 0 4 0;
#X connect 8 0 11 0;
#X connect 10 0 12 0;
#X connect 10 1 13 0;
#X connect 10 2 14 0;
#X connect 10 3 15 0;
#X connect 11 0 10 1;
#X coords 0 342 1 341 85 60 0;
