#N canvas 491 219 545 374 10;
#X obj 20 127 inlet~;
#X text 102 311 (c)2012 Marian Weger;
#X obj 422 251 outlet statelist;
#X obj 437 199 switch~;
#X obj 422 127 inlet statelist;
#X obj 422 228 change 1;
#X obj 227 164 an_\$3_ctl \$1 \$2 \$4 \$5 \$6 \$7 \$8 \$9;
#X obj 20 251 outlet;
#X text 20 77 pipe_an_2~ <name> <domain> <type> (<arg1> <arg2> ...)
;
#X obj 95 127 inlet~;
#X obj 20 164 an_\$3_2~ \$1 \$2 \$4 \$5 \$6 \$7 \$8 \$9;
#X connect 0 0 10 0;
#X connect 4 0 6 1;
#X connect 5 0 2 0;
#X connect 6 0 10 2;
#X connect 6 1 5 0;
#X connect 6 1 3 0;
#X connect 9 0 10 1;
#X connect 10 0 7 0;
#X connect 10 1 6 0;
#X coords 0 374 1 373 85 60 0;
