#N canvas 357 51 741 369 10;
#X obj 20 79 inlet~;
#X obj 20 298 outlet~;
#X text 408 216 (c)2012 Marian Weger;
#X obj 587 273 outlet statelist;
#X obj 616 226 switch~;
#X obj 257 79 inlet statelist;
#X obj 587 250 change 1;
#X obj 363 79 inlet~;
#X obj 386 166 mix_\$3_ctl \$1 \$2 \$4 \$5 \$6 \$7 \$8 \$9;
#X obj 587 79 inlet statelist;
#X obj 60 79 inlet~;
#X obj 403 79 inlet~;
#X obj 70 298 outlet~;
#X obj 443 79 inlet~;
#X obj 100 79 inlet~;
#X obj 120 298 outlet~;
#X obj 140 79 inlet~;
#X obj 483 79 inlet~;
#X obj 170 298 outlet~;
#X text 19 49 pipe_mix_5~ <name> <domain> <type> (<arg1> <arg2> ...)
;
#X obj 20 248 mix_\$3_5~ \$4 \$5 \$6 \$7 \$8 \$9;
#X obj 220 298 outlet~;
#X obj 180 79 inlet~;
#X obj 523 79 inlet~;
#X connect 0 0 20 0;
#X connect 5 0 8 0;
#X connect 6 0 3 0;
#X connect 7 0 20 5;
#X connect 8 0 20 10;
#X connect 8 1 4 0;
#X connect 8 1 6 0;
#X connect 9 0 8 1;
#X connect 10 0 20 1;
#X connect 11 0 20 6;
#X connect 13 0 20 7;
#X connect 14 0 20 2;
#X connect 16 0 20 3;
#X connect 17 0 20 8;
#X connect 20 0 1 0;
#X connect 20 1 12 0;
#X connect 20 2 15 0;
#X connect 20 3 18 0;
#X connect 20 4 21 0;
#X connect 22 0 20 4;
#X connect 23 0 20 9;
#X coords 0 369 1 368 85 60 0;
