#N canvas 0 51 1280 947 10;
#X obj 29 738 outlet~;
#X obj 4287 276 outlet statelist;
#X obj 4302 224 switch~;
#X obj 2117 104 inlet statelist;
#X obj 4287 253 change 1;
#X obj 4397 133 inlet statelist;
#X obj 79 738 outlet~;
#X obj 129 738 outlet~;
#X obj 179 738 outlet~;
#X obj 229 738 outlet~;
#X obj 279 738 outlet~;
#X obj 329 738 outlet~;
#X obj 379 738 outlet~;
#X obj 429 738 outlet~;
#X obj 479 738 outlet~;
#X obj 529 738 outlet~;
#X obj 579 738 outlet~;
#X obj 629 738 outlet~;
#X obj 679 738 outlet~;
#X obj 729 738 outlet~;
#X obj 779 738 outlet~;
#X obj 829 738 outlet~;
#X obj 879 738 outlet~;
#X obj 929 738 outlet~;
#X obj 979 738 outlet~;
#X obj 1029 738 outlet~;
#X obj 1079 738 outlet~;
#X obj 1129 738 outlet~;
#X obj 1179 738 outlet~;
#X obj 45 106 catch~ \$3/1;
#X obj 4086 169 mix_\$5_ctl \$1 \$2 \$6 \$7 \$8 \$9 \$10 \$11 \$12
\$13 \$14 \$15;
#X obj 85 126 catch~ \$3/2;
#X obj 125 106 catch~ \$3/3;
#X obj 165 126 catch~ \$3/4;
#X obj 205 106 catch~ \$3/5;
#X obj 245 126 catch~ \$3/6;
#X obj 285 106 catch~ \$3/7;
#X obj 325 126 catch~ \$3/8;
#X obj 365 106 catch~ \$3/9;
#X obj 405 126 catch~ \$3/10;
#X obj 445 106 catch~ \$3/11;
#X obj 485 126 catch~ \$3/12;
#X obj 525 106 catch~ \$3/13;
#X obj 565 126 catch~ \$3/14;
#X obj 605 106 catch~ \$3/15;
#X obj 645 126 catch~ \$3/16;
#X obj 685 106 catch~ \$3/17;
#X obj 725 126 catch~ \$3/18;
#X obj 765 106 catch~ \$3/19;
#X obj 805 126 catch~ \$3/20;
#X obj 845 106 catch~ \$3/21;
#X obj 885 126 catch~ \$3/22;
#X obj 925 106 catch~ \$3/23;
#X obj 965 126 catch~ \$3/24;
#X text 39 768 (c)2015 Marian Weger;
#X obj 1275 408 mix_\$5_48~ \$6 \$7 \$8 \$9 \$10 \$11 \$12 \$13 \$14
\$15 \$16 \$17 \$18, f 236;
#X obj 1239 738 outlet~;
#X obj 1289 738 outlet~;
#X obj 1339 738 outlet~;
#X obj 1389 738 outlet~;
#X obj 1439 738 outlet~;
#X obj 1489 738 outlet~;
#X obj 1539 738 outlet~;
#X obj 1589 738 outlet~;
#X obj 1639 738 outlet~;
#X obj 1689 738 outlet~;
#X obj 1739 738 outlet~;
#X obj 1789 738 outlet~;
#X obj 1839 738 outlet~;
#X obj 1889 738 outlet~;
#X obj 1939 738 outlet~;
#X obj 1989 738 outlet~;
#X obj 2039 738 outlet~;
#X obj 2089 738 outlet~;
#X obj 2139 738 outlet~;
#X obj 2189 738 outlet~;
#X obj 2239 738 outlet~;
#X obj 2289 738 outlet~;
#X obj 2339 738 outlet~;
#X obj 2389 738 outlet~;
#X obj 2239 102 catch~ \$4/1;
#X obj 2279 122 catch~ \$4/2;
#X obj 2319 102 catch~ \$4/3;
#X obj 2359 122 catch~ \$4/4;
#X obj 2399 102 catch~ \$4/5;
#X obj 2439 122 catch~ \$4/6;
#X obj 2479 102 catch~ \$4/7;
#X obj 2519 122 catch~ \$4/8;
#X obj 2559 102 catch~ \$4/9;
#X obj 2599 122 catch~ \$4/10;
#X obj 2639 102 catch~ \$4/11;
#X obj 2679 122 catch~ \$4/12;
#X obj 2719 102 catch~ \$4/13;
#X obj 2759 122 catch~ \$4/14;
#X obj 2799 102 catch~ \$4/15;
#X obj 2839 122 catch~ \$4/16;
#X obj 2879 102 catch~ \$4/17;
#X obj 2919 122 catch~ \$4/18;
#X obj 2959 102 catch~ \$4/19;
#X obj 2999 122 catch~ \$4/20;
#X obj 3039 102 catch~ \$4/21;
#X obj 3079 122 catch~ \$4/22;
#X obj 3119 102 catch~ \$4/23;
#X obj 3159 122 catch~ \$4/24;
#X obj 1123 106 catch~ \$3/25;
#X obj 1163 126 catch~ \$3/26;
#X obj 1203 106 catch~ \$3/27;
#X obj 1243 126 catch~ \$3/28;
#X obj 1283 106 catch~ \$3/29;
#X obj 1323 126 catch~ \$3/30;
#X obj 1363 106 catch~ \$3/31;
#X obj 1403 126 catch~ \$3/32;
#X obj 1443 106 catch~ \$3/33;
#X obj 1483 126 catch~ \$3/34;
#X obj 1523 106 catch~ \$3/35;
#X obj 1563 126 catch~ \$3/36;
#X obj 1603 106 catch~ \$3/37;
#X obj 1643 126 catch~ \$3/38;
#X obj 1683 106 catch~ \$3/39;
#X obj 1723 126 catch~ \$3/40;
#X obj 1763 106 catch~ \$3/41;
#X obj 1803 126 catch~ \$3/42;
#X obj 1843 106 catch~ \$3/43;
#X obj 1883 126 catch~ \$3/44;
#X obj 1923 106 catch~ \$3/45;
#X obj 1963 126 catch~ \$3/46;
#X obj 2003 106 catch~ \$3/47;
#X obj 2043 126 catch~ \$3/48;
#X obj 3235 102 catch~ \$4/25;
#X obj 3275 122 catch~ \$4/26;
#X obj 3315 102 catch~ \$4/27;
#X obj 3355 122 catch~ \$4/28;
#X obj 3395 102 catch~ \$4/29;
#X obj 3435 122 catch~ \$4/30;
#X obj 3475 102 catch~ \$4/31;
#X obj 3515 122 catch~ \$4/32;
#X obj 3555 102 catch~ \$4/33;
#X obj 3595 122 catch~ \$4/34;
#X obj 3635 102 catch~ \$4/35;
#X obj 3675 122 catch~ \$4/36;
#X obj 3715 102 catch~ \$4/37;
#X obj 3755 122 catch~ \$4/38;
#X obj 3795 102 catch~ \$4/39;
#X obj 3835 122 catch~ \$4/40;
#X obj 3875 102 catch~ \$4/41;
#X obj 3915 122 catch~ \$4/42;
#X obj 3955 102 catch~ \$4/43;
#X obj 3995 122 catch~ \$4/44;
#X obj 4035 102 catch~ \$4/45;
#X obj 4075 122 catch~ \$4/46;
#X obj 4115 102 catch~ \$4/47;
#X obj 4155 122 catch~ \$4/48;
#X text 44 66 pipe_mix_c_48~ <name> <domain> <source1> <source2> <type>
(<arg1> <arg2> ...);
#X connect 3 0 30 0;
#X connect 4 0 1 0;
#X connect 5 0 30 1;
#X connect 29 0 55 0;
#X connect 30 0 55 96;
#X connect 30 1 2 0;
#X connect 30 1 4 0;
#X connect 31 0 55 1;
#X connect 32 0 55 2;
#X connect 33 0 55 3;
#X connect 34 0 55 4;
#X connect 35 0 55 5;
#X connect 36 0 55 6;
#X connect 37 0 55 7;
#X connect 38 0 55 8;
#X connect 39 0 55 9;
#X connect 40 0 55 10;
#X connect 41 0 55 11;
#X connect 42 0 55 12;
#X connect 43 0 55 13;
#X connect 44 0 55 14;
#X connect 45 0 55 15;
#X connect 46 0 55 16;
#X connect 47 0 55 17;
#X connect 48 0 55 18;
#X connect 49 0 55 19;
#X connect 50 0 55 20;
#X connect 51 0 55 21;
#X connect 52 0 55 22;
#X connect 53 0 55 23;
#X connect 55 0 0 0;
#X connect 55 1 6 0;
#X connect 55 2 7 0;
#X connect 55 3 8 0;
#X connect 55 4 9 0;
#X connect 55 5 10 0;
#X connect 55 6 11 0;
#X connect 55 7 12 0;
#X connect 55 8 13 0;
#X connect 55 9 14 0;
#X connect 55 10 15 0;
#X connect 55 11 16 0;
#X connect 55 12 17 0;
#X connect 55 13 18 0;
#X connect 55 14 19 0;
#X connect 55 15 20 0;
#X connect 55 16 21 0;
#X connect 55 17 22 0;
#X connect 55 18 23 0;
#X connect 55 19 24 0;
#X connect 55 20 25 0;
#X connect 55 21 26 0;
#X connect 55 22 27 0;
#X connect 55 23 28 0;
#X connect 55 24 56 0;
#X connect 55 25 57 0;
#X connect 55 26 58 0;
#X connect 55 27 59 0;
#X connect 55 28 60 0;
#X connect 55 29 61 0;
#X connect 55 30 62 0;
#X connect 55 31 63 0;
#X connect 55 32 64 0;
#X connect 55 33 65 0;
#X connect 55 34 66 0;
#X connect 55 35 67 0;
#X connect 55 36 68 0;
#X connect 55 37 69 0;
#X connect 55 38 70 0;
#X connect 55 39 71 0;
#X connect 55 40 72 0;
#X connect 55 41 73 0;
#X connect 55 42 74 0;
#X connect 55 43 75 0;
#X connect 55 44 76 0;
#X connect 55 45 77 0;
#X connect 55 46 78 0;
#X connect 55 47 79 0;
#X connect 80 0 55 48;
#X connect 81 0 55 49;
#X connect 82 0 55 50;
#X connect 83 0 55 51;
#X connect 84 0 55 52;
#X connect 85 0 55 53;
#X connect 86 0 55 54;
#X connect 87 0 55 55;
#X connect 88 0 55 56;
#X connect 89 0 55 57;
#X connect 90 0 55 58;
#X connect 91 0 55 59;
#X connect 92 0 55 60;
#X connect 93 0 55 61;
#X connect 94 0 55 62;
#X connect 95 0 55 63;
#X connect 96 0 55 64;
#X connect 97 0 55 65;
#X connect 98 0 55 66;
#X connect 99 0 55 67;
#X connect 100 0 55 68;
#X connect 101 0 55 69;
#X connect 102 0 55 70;
#X connect 103 0 55 71;
#X connect 104 0 55 24;
#X connect 105 0 55 25;
#X connect 106 0 55 26;
#X connect 107 0 55 27;
#X connect 108 0 55 28;
#X connect 109 0 55 29;
#X connect 110 0 55 30;
#X connect 111 0 55 31;
#X connect 112 0 55 32;
#X connect 113 0 55 33;
#X connect 114 0 55 34;
#X connect 115 0 55 35;
#X connect 116 0 55 36;
#X connect 117 0 55 37;
#X connect 118 0 55 38;
#X connect 119 0 55 39;
#X connect 120 0 55 40;
#X connect 121 0 55 41;
#X connect 122 0 55 42;
#X connect 123 0 55 43;
#X connect 124 0 55 44;
#X connect 125 0 55 45;
#X connect 126 0 55 46;
#X connect 127 0 55 47;
#X connect 128 0 55 72;
#X connect 129 0 55 73;
#X connect 130 0 55 74;
#X connect 131 0 55 75;
#X connect 132 0 55 76;
#X connect 133 0 55 77;
#X connect 134 0 55 78;
#X connect 135 0 55 79;
#X connect 136 0 55 80;
#X connect 137 0 55 81;
#X connect 138 0 55 82;
#X connect 139 0 55 83;
#X connect 140 0 55 84;
#X connect 141 0 55 85;
#X connect 142 0 55 86;
#X connect 143 0 55 87;
#X connect 144 0 55 88;
#X connect 145 0 55 89;
#X connect 146 0 55 90;
#X connect 147 0 55 91;
#X connect 148 0 55 92;
#X connect 149 0 55 93;
#X connect 150 0 55 94;
#X connect 151 0 55 95;
#X coords 0 947 1 946 85 60 0;
