#N canvas 359 43 654 358 10;
#X obj 20 68 inlet~;
#X obj 20 287 outlet~;
#X text 348 205 (c)2012 Marian Weger;
#X obj 498 262 outlet statelist;
#X obj 513 210 switch~;
#X obj 127 68 inlet statelist;
#X obj 498 239 change 1;
#X obj 233 68 inlet~;
#X obj 297 155 mix_\$3_ctl \$1 \$2 \$4 \$5 \$6 \$7 \$8 \$9;
#X obj 497 68 inlet statelist;
#X obj 20 237 mix_\$3_2~ \$4 \$5 \$6 \$7 \$8 \$9;
#X obj 70 68 inlet~;
#X obj 283 68 inlet~;
#X obj 70 287 outlet~;
#X text 19 38 pipe_mix_2~ <name> <domain> <type> (<arg1> <arg2> ...)
;
#X connect 0 0 10 0;
#X connect 5 0 8 0;
#X connect 6 0 3 0;
#X connect 7 0 10 2;
#X connect 8 0 10 4;
#X connect 8 1 4 0;
#X connect 8 1 6 0;
#X connect 9 0 8 1;
#X connect 10 0 1 0;
#X connect 10 1 13 0;
#X connect 11 0 10 1;
#X connect 12 0 10 3;
#X coords 0 358 1 357 85 60 0;
