#N canvas 27 107 1112 504 10;
#X obj 1382 266 outlet;
#X obj 1236 37 inlet;
#X obj 1313 216 switch~;
#X obj 1313 130 1del0 15;
#X text 211 426 (c)2013 Marian Weger;
#X obj 1236 75 t f f;
#X obj 1313 106 change 1;
#X obj 1379 153 loadbang;
#X msg 1379 175 1;
#X obj 91 64 inlet;
#X obj 150 583 outlet;
#X obj 34 147 pipe_fx_sr~ \$1/1 \$2 \$3/1 \$4/1 \$5 \$6 \$7 \$8
\$9 \$10 \$11 \$12;
#X obj 84 177 pipe_fx_sr~ \$1/2 \$2 \$3/2 \$4/2 \$5 \$6 \$7 \$8
\$9 \$10 \$11 \$12;
#X obj 134 207 pipe_fx_sr~ \$1/3 \$2 \$3/3 \$4/3 \$5 \$6 \$7
\$8 \$9 \$10 \$11 \$12;
#X obj 184 237 pipe_fx_sr~ \$1/4 \$2 \$3/4 \$4/4 \$5 \$6 \$7
\$8 \$9 \$10 \$11 \$12;
#X obj 234 267 pipe_fx_sr~ \$1/5 \$2 \$3/5 \$4/5 \$5 \$6 \$7
\$8 \$9 \$10 \$11 \$12;
#X obj 284 297 pipe_fx_sr~ \$1/6 \$2 \$3/6 \$4/6 \$5 \$6 \$7
\$8 \$9 \$10 \$11 \$12;
#X obj 334 327 pipe_fx_sr~ \$1/7 \$2 \$3/7 \$4/7 \$5 \$6 \$7
\$8 \$9 \$10 \$11 \$12;
#X obj 384 357 pipe_fx_sr~ \$1/8 \$2 \$3/8 \$4/8 \$5 \$6 \$7
\$8 \$9 \$10 \$11 \$12;
#X obj 434 387 pipe_fx_sr~ \$1/9 \$2 \$3/9 \$4/9 \$5 \$6 \$7
\$8 \$9 \$10 \$11 \$12;
#X obj 484 417 pipe_fx_sr~ \$1/10 \$2 \$3/10 \$4/10 \$5 \$6 \$7
\$8 \$9 \$10 \$11 \$12;
#X obj 534 447 pipe_fx_sr~ \$1/11 \$2 \$3/11 \$4/11 \$5 \$6 \$7
\$8 \$9 \$10 \$11 \$12;
#X obj 584 477 pipe_fx_sr~ \$1/12 \$2 \$3/12 \$4/12 \$5 \$6 \$7
\$8 \$9 \$10 \$11 \$12;
#X obj 634 507 pipe_fx_sr~ \$1/13 \$2 \$3/13 \$4/13 \$5 \$6 \$7
\$8 \$9 \$10 \$11 \$12;
#X obj 684 537 pipe_fx_sr~ \$1/14 \$2 \$3/14 \$4/14 \$5 \$6 \$7
\$8 \$9 \$10 \$11 \$12;
#X obj 734 567 pipe_fx_sr~ \$1/15 \$2 \$3/15 \$4/15 \$5 \$6 \$7
\$8 \$9 \$10 \$11 \$12;
#X obj 784 597 pipe_fx_sr~ \$1/16 \$2 \$3/16 \$4/16 \$5 \$6 \$7
\$8 \$9 \$10 \$11 \$12;
#X obj 834 627 pipe_fx_sr~ \$1/17 \$2 \$3/17 \$4/17 \$5 \$6 \$7
\$8 \$9 \$10 \$11 \$12;
#X obj 884 657 pipe_fx_sr~ \$1/18 \$2 \$3/18 \$4/18 \$5 \$6 \$7
\$8 \$9 \$10 \$11 \$12;
#X obj 934 687 pipe_fx_sr~ \$1/19 \$2 \$3/19 \$4/19 \$5 \$6 \$7
\$8 \$9 \$10 \$11 \$12;
#X obj 984 717 pipe_fx_sr~ \$1/20 \$2 \$3/20 \$4/20 \$5 \$6 \$7
\$8 \$9 \$10 \$11 \$12;
#X obj 1034 747 pipe_fx_sr~ \$1/21 \$2 \$3/21 \$4/21 \$5 \$6
\$7 \$8 \$9 \$10 \$11 \$12;
#X obj 1084 777 pipe_fx_sr~ \$1/22 \$2 \$3/22 \$4/22 \$5 \$6
\$7 \$8 \$9 \$10 \$11 \$12;
#X obj 1134 807 pipe_fx_sr~ \$1/23 \$2 \$3/23 \$4/23 \$5 \$6
\$7 \$8 \$9 \$10 \$11 \$12;
#X obj 1184 837 pipe_fx_sr~ \$1/24 \$2 \$3/24 \$4/24 \$5 \$6
\$7 \$8 \$9 \$10 \$11 \$12;
#X text 42 14 pipe_fx_multi_tr_24~ <name> <domain> <source> <target>
<fx> (<arg1> <arg2> ...);
#X connect 1 0 5 0;
#X connect 3 0 2 0;
#X connect 3 0 0 0;
#X connect 5 0 11 1;
#X connect 5 0 12 1;
#X connect 5 0 13 1;
#X connect 5 0 14 1;
#X connect 5 0 15 1;
#X connect 5 0 16 1;
#X connect 5 0 17 1;
#X connect 5 0 18 1;
#X connect 5 0 19 1;
#X connect 5 0 20 1;
#X connect 5 0 21 1;
#X connect 5 0 22 1;
#X connect 5 0 23 1;
#X connect 5 0 24 1;
#X connect 5 0 25 1;
#X connect 5 0 26 1;
#X connect 5 0 27 1;
#X connect 5 0 28 1;
#X connect 5 0 29 1;
#X connect 5 0 30 1;
#X connect 5 0 31 1;
#X connect 5 0 32 1;
#X connect 5 0 33 1;
#X connect 5 0 34 1;
#X connect 5 1 6 0;
#X connect 6 0 3 0;
#X connect 7 0 8 0;
#X connect 8 0 2 0;
