#N canvas 256 27 924 440 10;
#X obj 10 125 inlet~;
#X text 104 370 (c)2012 Marian Weger;
#X obj 810 319 outlet statelist;
#X obj 825 267 switch~;
#X obj 633 125 inlet statelist;
#X obj 810 296 change 1;
#X obj 820 204 t b f;
#X obj 810 234 && 1;
#X obj 633 162 fx_\$4_ctl \$1 \$2 \$5 \$6 \$7 \$8 \$9;
#X obj 20 383 outlet;
#X obj 90 125 inlet~;
#X obj 10 314 throw~ \$3/1;
#X obj 90 314 throw~ \$3/2;
#X obj 170 125 inlet~;
#X obj 250 125 inlet~;
#X obj 170 314 throw~ \$3/3;
#X obj 250 314 throw~ \$3/4;
#X obj 330 125 inlet~;
#X obj 330 314 throw~ \$3/5;
#X obj 410 125 inlet~;
#X obj 410 314 throw~ \$3/6;
#X obj 210 224 fx_\$4_8~ \$5 \$6 \$7 \$8 \$9;
#X obj 490 125 inlet~;
#X obj 570 125 inlet~;
#X obj 490 314 throw~ \$3/7;
#X obj 570 314 throw~ \$3/8;
#X text 10 66 pipe_fx_throw_8~ <name> <domain> <target> <fx> (<arg1>
<arg2> ...);
#X connect 0 0 21 0;
#X connect 4 0 8 0;
#X connect 5 0 2 0;
#X connect 6 0 7 0;
#X connect 6 1 7 1;
#X connect 7 0 5 0;
#X connect 7 0 3 0;
#X connect 8 0 21 8;
#X connect 8 1 7 0;
#X connect 10 0 21 1;
#X connect 13 0 21 2;
#X connect 14 0 21 3;
#X connect 17 0 21 4;
#X connect 19 0 21 5;
#X connect 21 0 11 0;
#X connect 21 1 12 0;
#X connect 21 2 15 0;
#X connect 21 3 16 0;
#X connect 21 4 18 0;
#X connect 21 5 20 0;
#X connect 21 6 24 0;
#X connect 21 7 25 0;
#X connect 21 8 6 0;
#X connect 22 0 21 6;
#X connect 23 0 21 7;
#X coords 0 440 1 439 85 60 0;
