#N canvas 0 51 1366 691 10;
#X obj 1163 414 outlet~;
#X obj 73 81 r~ \$1/1;
#X obj 123 81 r~ \$1/2;
#X obj 173 81 r~ \$1/3;
#X obj 223 81 r~ \$1/4;
#X obj 273 81 r~ \$1/5;
#X obj 323 81 r~ \$1/6;
#X obj 373 81 r~ \$1/7;
#X obj 423 81 r~ \$1/8;
#X obj 473 81 r~ \$1/9;
#X obj 523 101 r~ \$1/10;
#X obj 573 81 r~ \$1/11;
#X obj 623 101 r~ \$1/12;
#X obj 673 81 r~ \$1/13;
#X obj 723 101 r~ \$1/14;
#X obj 773 81 r~ \$1/15;
#X obj 823 101 r~ \$1/16;
#X obj 873 81 r~ \$1/17;
#X obj 923 101 r~ \$1/18;
#X obj 973 81 r~ \$1/19;
#X obj 1023 101 r~ \$1/20;
#X obj 1073 81 r~ \$1/21;
#X obj 1123 101 r~ \$1/22;
#X obj 1173 81 r~ \$1/23;
#X obj 1223 101 r~ \$1/24;
#X text 42 25 r2o_mono_48~ <name>;
#X text 71 478 2015 Marian Weger;
#X obj 1297 89 r~ \$1/25;
#X obj 1347 109 r~ \$1/26;
#X obj 1397 89 r~ \$1/27;
#X obj 1447 109 r~ \$1/28;
#X obj 1497 89 r~ \$1/29;
#X obj 1547 109 r~ \$1/30;
#X obj 1597 89 r~ \$1/31;
#X obj 1647 109 r~ \$1/32;
#X obj 1697 89 r~ \$1/33;
#X obj 1747 109 r~ \$1/34;
#X obj 1797 89 r~ \$1/35;
#X obj 1847 109 r~ \$1/36;
#X obj 1897 89 r~ \$1/37;
#X obj 1947 109 r~ \$1/38;
#X obj 1997 89 r~ \$1/39;
#X obj 2047 109 r~ \$1/40;
#X obj 2097 89 r~ \$1/41;
#X obj 2147 109 r~ \$1/42;
#X obj 2197 89 r~ \$1/43;
#X obj 2247 109 r~ \$1/44;
#X obj 2297 89 r~ \$1/45;
#X obj 2347 109 r~ \$1/46;
#X obj 2397 89 r~ \$1/47;
#X obj 2447 109 r~ \$1/48;
#X connect 1 0 0 0;
#X connect 2 0 0 0;
#X connect 3 0 0 0;
#X connect 4 0 0 0;
#X connect 5 0 0 0;
#X connect 6 0 0 0;
#X connect 7 0 0 0;
#X connect 8 0 0 0;
#X connect 9 0 0 0;
#X connect 10 0 0 0;
#X connect 11 0 0 0;
#X connect 12 0 0 0;
#X connect 13 0 0 0;
#X connect 14 0 0 0;
#X connect 15 0 0 0;
#X connect 16 0 0 0;
#X connect 17 0 0 0;
#X connect 18 0 0 0;
#X connect 19 0 0 0;
#X connect 20 0 0 0;
#X connect 21 0 0 0;
#X connect 22 0 0 0;
#X connect 23 0 0 0;
#X connect 24 0 0 0;
#X connect 27 0 0 0;
#X connect 28 0 0 0;
#X connect 29 0 0 0;
#X connect 30 0 0 0;
#X connect 31 0 0 0;
#X connect 32 0 0 0;
#X connect 33 0 0 0;
#X connect 34 0 0 0;
#X connect 35 0 0 0;
#X connect 36 0 0 0;
#X connect 37 0 0 0;
#X connect 38 0 0 0;
#X connect 39 0 0 0;
#X connect 40 0 0 0;
#X connect 41 0 0 0;
#X connect 42 0 0 0;
#X connect 43 0 0 0;
#X connect 44 0 0 0;
#X connect 45 0 0 0;
#X connect 46 0 0 0;
#X connect 47 0 0 0;
#X connect 48 0 0 0;
#X connect 49 0 0 0;
#X connect 50 0 0 0;
