#N canvas 428 320 602 241 10;
#X text 63 183 2013 Marian Weger;
#X obj 73 113 outlet~;
#X obj 123 113 outlet~;
#X obj 73 81 r~ \$1/1;
#X obj 123 81 r~ \$1/2;
#X obj 173 113 outlet~;
#X obj 223 113 outlet~;
#X obj 173 81 r~ \$1/3;
#X obj 223 81 r~ \$1/4;
#X text 42 25 r2o_8~ <name>;
#X obj 273 113 outlet~;
#X obj 323 113 outlet~;
#X obj 373 113 outlet~;
#X obj 423 113 outlet~;
#X obj 273 81 r~ \$1/5;
#X obj 323 81 r~ \$1/6;
#X obj 373 81 r~ \$1/7;
#X obj 423 81 r~ \$1/8;
#X connect 3 0 1 0;
#X connect 4 0 2 0;
#X connect 7 0 5 0;
#X connect 8 0 6 0;
#X connect 14 0 10 0;
#X connect 15 0 11 0;
#X connect 16 0 12 0;
#X connect 17 0 13 0;
