#N canvas 16 204 1102 212 10;
#X text 43 143 2012 Marian Weger;
#X obj 53 61 r~ \$1/1;
#X obj 113 61 r~ \$1/2;
#X obj 53 113 throw~ \$2/1;
#X obj 113 93 throw~ \$2/2;
#X obj 173 61 r~ \$1/3;
#X obj 233 61 r~ \$1/4;
#X obj 173 113 throw~ \$2/3;
#X obj 233 93 throw~ \$2/4;
#X obj 293 61 r~ \$1/5;
#X obj 293 113 throw~ \$2/5;
#X obj 353 61 r~ \$1/6;
#X obj 353 93 throw~ \$2/6;
#X obj 413 61 r~ \$1/7;
#X obj 413 113 throw~ \$2/7;
#X obj 473 61 r~ \$1/8;
#X obj 473 93 throw~ \$2/8;
#X text 42 25 r2t_16~ <source> <target>;
#X obj 533 61 r~ \$1/9;
#X obj 533 113 throw~ \$2/9;
#X obj 593 61 r~ \$1/10;
#X obj 593 93 throw~ \$2/10;
#X obj 653 61 r~ \$1/11;
#X obj 653 113 throw~ \$2/11;
#X obj 713 61 r~ \$1/12;
#X obj 713 93 throw~ \$2/12;
#X obj 773 61 r~ \$1/13;
#X obj 773 113 throw~ \$2/13;
#X obj 833 61 r~ \$1/14;
#X obj 833 93 throw~ \$2/14;
#X obj 893 61 r~ \$1/15;
#X obj 893 113 throw~ \$2/15;
#X obj 953 61 r~ \$1/16;
#X obj 953 93 throw~ \$2/16;
#X connect 1 0 3 0;
#X connect 2 0 4 0;
#X connect 5 0 7 0;
#X connect 6 0 8 0;
#X connect 9 0 10 0;
#X connect 11 0 12 0;
#X connect 13 0 14 0;
#X connect 15 0 16 0;
#X connect 18 0 19 0;
#X connect 20 0 21 0;
#X connect 22 0 23 0;
#X connect 24 0 25 0;
#X connect 26 0 27 0;
#X connect 28 0 29 0;
#X connect 30 0 31 0;
#X connect 32 0 33 0;
