#N canvas 550 259 593 212 10;
#X text 43 143 2012 Marian Weger;
#X obj 53 61 r~ \$1/1;
#X obj 113 61 r~ \$1/2;
#X obj 53 113 throw~ \$2/1;
#X obj 113 93 throw~ \$2/2;
#X obj 173 61 r~ \$1/3;
#X obj 233 61 r~ \$1/4;
#X obj 173 113 throw~ \$2/3;
#X obj 233 93 throw~ \$2/4;
#X text 42 25 r2t_8~ <source> <target>;
#X obj 293 61 r~ \$1/5;
#X obj 293 113 throw~ \$2/5;
#X obj 353 61 r~ \$1/6;
#X obj 353 93 throw~ \$2/6;
#X obj 413 61 r~ \$1/7;
#X obj 413 113 throw~ \$2/7;
#X obj 473 61 r~ \$1/8;
#X obj 473 93 throw~ \$2/8;
#X connect 1 0 3 0;
#X connect 2 0 4 0;
#X connect 5 0 7 0;
#X connect 6 0 8 0;
#X connect 10 0 11 0;
#X connect 12 0 13 0;
#X connect 14 0 15 0;
#X connect 16 0 17 0;
