#N canvas 710 283 408 219 10;
#X text 43 143 2012 Marian Weger;
#X obj 53 61 r~ \$1/1;
#X obj 113 61 r~ \$1/2;
#X obj 53 113 throw~ \$2/1;
#X obj 113 93 throw~ \$2/2;
#X text 42 25 r2t_4~ <source> <target>;
#X obj 173 61 r~ \$1/3;
#X obj 233 61 r~ \$1/4;
#X obj 173 113 throw~ \$2/3;
#X obj 233 93 throw~ \$2/4;
#X connect 1 0 3 0;
#X connect 2 0 4 0;
#X connect 6 0 8 0;
#X connect 7 0 9 0;
