#N canvas 79 22 1082 725 10;
#X msg 179 934 print;
#X msg 105 774 start;
#X msg 72 870 stop;
#X obj 114 145 sel 0 1;
#X text 530 686 (c)2012 Marian Weger;
#X obj 570 386 list;
#X obj 570 337 r \$0-start;
#X obj 591 358 r \$0-arguments;
#X obj 570 546 list;
#X obj 591 518 r \$0-arguments;
#X obj 570 497 r \$0-stop;
#X obj 213 625 s \$0-arguments;
#X obj 195 680 r \$0-arguments;
#X obj 133 255 s \$0-start;
#X obj 114 288 s \$0-stop;
#X obj 72 839 r \$0-stop;
#X obj 105 744 r \$0-start;
#X obj 114 85 t f f;
#X obj 229 154 switch~;
#X obj 229 130 1del0 5000;
#X text 342 34 recording starts 1s delayed!!!;
#X obj 133 233 del 1000;
#X obj 114 63 r /recording/\$1/state;
#X obj 483 133 r /recording/state;
#X obj 483 155 s /recording/\$1/state;
#X obj 213 231 list append \$1;
#X obj 570 443 print recording~;
#X obj 570 603 print recording~;
#X obj 393 398 samplerate~;
#X obj 393 320 loadbang;
#X msg 404 339 bang;
#X obj 461 343 route dsp;
#X obj 461 369 select 1;
#X obj 461 320 r pd;
#X msg 195 714 open -wave -bytes \$1 -rate \$2 ../../\$3_\$4.wav;
#X msg 570 408 started recording to ../../recording/\$3_\$4.wav;
#X msg 570 568 stopped recording to ../../recording/\$3_\$4.wav;
#X obj 213 373 list append 0;
#X obj 328 294 + 1;
#X obj 213 425 list prepend 44100;
#X obj 213 587 list prepend 3;
#X obj 294 469 loadbang;
#X obj 294 491 f \$2;
#X obj 294 513 sel 0 3 24 4 32;
#X msg 294 545 3;
#X msg 344 545 4;
#X obj 288 294 f 0;
#X obj 133 181 t b b;
#X obj 213 263 t a b;
#X obj 288 316 t b f;
#X obj 288 346 pack \$0 0;
#X obj 473 763 inlet~;
#X obj 243 934 writesf~ 2;
#X obj 523 763 inlet~;
#X obj 243 763 r~ /recording/\$1/1;
#X obj 263 793 r~ /recording/\$1/2;
#X text 74 26 recording_2~ <name> <resolution>;
#X connect 0 0 52 0;
#X connect 1 0 52 0;
#X connect 2 0 52 0;
#X connect 3 0 14 0;
#X connect 3 1 47 0;
#X connect 5 0 35 0;
#X connect 6 0 5 0;
#X connect 7 0 5 1;
#X connect 8 0 36 0;
#X connect 9 0 8 1;
#X connect 10 0 8 0;
#X connect 12 0 34 0;
#X connect 15 0 2 0;
#X connect 16 0 1 0;
#X connect 17 0 3 0;
#X connect 17 1 19 0;
#X connect 19 0 18 0;
#X connect 21 0 13 0;
#X connect 22 0 17 0;
#X connect 23 0 24 0;
#X connect 25 0 48 0;
#X connect 28 0 39 1;
#X connect 29 0 28 0;
#X connect 30 0 28 0;
#X connect 31 0 32 0;
#X connect 32 0 28 0;
#X connect 33 0 31 0;
#X connect 34 0 52 0;
#X connect 35 0 26 0;
#X connect 36 0 27 0;
#X connect 37 0 39 0;
#X connect 38 0 46 1;
#X connect 39 0 40 0;
#X connect 40 0 11 0;
#X connect 41 0 42 0;
#X connect 42 0 43 0;
#X connect 43 0 44 0;
#X connect 43 1 44 0;
#X connect 43 2 44 0;
#X connect 43 3 45 0;
#X connect 43 4 45 0;
#X connect 44 0 40 1;
#X connect 45 0 40 1;
#X connect 46 0 38 0;
#X connect 46 0 49 0;
#X connect 47 0 21 0;
#X connect 47 1 25 0;
#X connect 48 0 37 0;
#X connect 48 1 46 0;
#X connect 49 0 50 0;
#X connect 49 1 50 1;
#X connect 50 0 37 1;
#X connect 51 0 52 0;
#X connect 53 0 52 1;
#X connect 54 0 52 0;
#X connect 55 0 52 1;
