#N canvas 470 50 573 460 10;
#X obj 50 100 inlet~;
#X obj 50 314 outlet~;
#X text 321 368 (c)2012 Marian Weger;
#X obj 310 100 inlet;
#X obj 110 314 outlet~;
#X obj 170 314 outlet~;
#X text 35 29 spat_gain_4~;
#X obj 310 122 route 0 1 2 3;
#X obj 230 314 outlet~;
#X obj 50 222 fx_gain~;
#X obj 110 222 fx_gain~;
#X obj 170 222 fx_gain~;
#X obj 230 222 fx_gain~;
#X connect 0 0 9 0;
#X connect 0 0 10 0;
#X connect 0 0 11 0;
#X connect 0 0 12 0;
#X connect 3 0 7 0;
#X connect 7 0 9 1;
#X connect 7 1 10 1;
#X connect 7 2 11 1;
#X connect 7 3 12 1;
#X connect 9 0 1 0;
#X connect 10 0 4 0;
#X connect 11 0 5 0;
#X connect 12 0 8 0;
