#N canvas 1280 51 1280 947 10;
#X text 112 52 spat_erbfilter_48~ <name> <domain>;
#X text 210 1335 (c)2015 Marian Weger;
#X obj 1035 520 list prepend \$0;
#X obj 1139 304 s \$0-blocksize;
#X msg 712 503 set \$1 4 1;
#X obj 712 429 r \$0-blocksize;
#X text 452 225 create Hann-window at startup;
#N canvas 620 76 637 509 hann-window 0;
#N canvas 1 51 450 300 (subpatch) 0;
#X array \$0-hann 4096 float 0;
#X coords 0 1 4095 0 200 120 1;
#X restore 403 213 graph;
#X msg 181 333 0;
#X obj 75 382 osc~;
#X obj 75 334 samplerate~;
#X obj 75 415 *~ -0.5;
#X obj 75 438 +~ 0.5;
#X obj 57 473 tabwrite~ \$0-hann;
#X text 389 205 1;
#X text 382 323 0;
#X text 398 336 0;
#X obj 57 263 bng 15 250 50 0 empty empty empty 0 -6 0 8 -262144 -1
-1;
#X text 446 185 Hann window;
#X msg 79 199 \; pd dsp 1;
#X obj 192 87 r \$0-blocksize;
#X text 223 190 overlap-4;
#X obj 192 211 t b f;
#X obj 192 189 / 4;
#X obj 192 109 t f f;
#X obj 219 154 s \$0-hann;
#X msg 219 131 resize \$1;
#X text 290 131 resize window to new block size;
#X text 116 384 oscillator with period = 1 block;
#X text 286 87 N;
#X text 594 339 N-1;
#X text 132 416 invert & scale;
#X text 123 439 offset;
#X text 211 333 reset phase;
#X text 171 474 write 1 block to table;
#X text 245 285 RECALCULATE;
#X obj 57 146 loadbang;
#X obj 75 358 / 128;
#X obj 57 168 t b b;
#X obj 57 289 t b b b;
#X connect 1 0 2 1;
#X connect 2 0 4 0;
#X connect 3 0 30 0;
#X connect 4 0 5 0;
#X connect 5 0 6 0;
#X connect 10 0 32 0;
#X connect 13 0 17 0;
#X connect 15 0 10 0;
#X connect 15 1 30 1;
#X connect 16 0 15 0;
#X connect 17 0 16 0;
#X connect 17 1 19 0;
#X connect 19 0 18 0;
#X connect 29 0 31 0;
#X connect 30 0 2 0;
#X connect 31 0 10 0;
#X connect 31 1 12 0;
#X connect 32 0 6 0;
#X connect 32 1 3 0;
#X connect 32 2 1 0;
#X restore 454 249 pd hann-window;
#X text 709 407 --- set block size ---;
#X obj 1405 395 s \$0-state;
#N canvas 1 51 642 364 fft 0;
#X obj 137 45 inlet~;
#X obj 137 283 outlet~;
#X obj 137 147 rfft~;
#X obj 137 199 tabsend~ \$0-real;
#X obj 164 177 tabsend~ \$0-imag;
#X text 136 261 outlet for dsp execution order forcing;
#X text 276 190 write one block continuously;
#X connect 0 0 2 0;
#X connect 2 0 3 0;
#X connect 2 1 4 0;
#X restore 177 334 pd fft;
#X obj 177 287 *~;
#X obj 194 263 tabreceive~ \$0-hann;
#X text 213 286 multiply by window;
#X text 227 335 write block to input-buffer;
#X text 268 385 - read input buffer;
#X text 268 400 - process;
#X obj 177 206 inlet~;
#X obj 451 325 table \$0-real 512;
#X obj 451 345 table \$0-imag 512;
#X text 448 302 input buffer (size = 1 block);
#X obj 110 1579 outlet~;
#X obj 170 1579 outlet~;
#X obj 230 1579 outlet~;
#X obj 290 1579 outlet~;
#X obj 350 1579 outlet~;
#X obj 410 1579 outlet~;
#X obj 470 1579 outlet~;
#X obj 530 1579 outlet~;
#X obj 590 1579 outlet~;
#X obj 650 1579 outlet~;
#X obj 710 1579 outlet~;
#X obj 770 1579 outlet~;
#X obj 830 1579 outlet~;
#X obj 890 1579 outlet~;
#X obj 950 1579 outlet~;
#X obj 1010 1579 outlet~;
#X obj 1070 1579 outlet~;
#X obj 1130 1579 outlet~;
#X obj 1190 1579 outlet~;
#X obj 1250 1579 outlet~;
#X obj 1310 1579 outlet~;
#X obj 1370 1579 outlet~;
#X obj 1430 1579 outlet~;
#X obj 1490 1579 outlet~;
#X obj 1550 1579 outlet~;
#X obj 1610 1579 outlet~;
#X obj 1670 1579 outlet~;
#X obj 1730 1579 outlet~;
#X obj 1790 1579 outlet~;
#X obj 1850 1579 outlet~;
#X obj 1910 1579 outlet~;
#X obj 1970 1579 outlet~;
#X obj 2030 1579 outlet~;
#X obj 2090 1579 outlet~;
#X obj 2150 1579 outlet~;
#X obj 2210 1579 outlet~;
#X obj 2270 1579 outlet~;
#X obj 2330 1579 outlet~;
#X obj 2390 1579 outlet~;
#X obj 2450 1579 outlet~;
#X obj 2510 1579 outlet~;
#X obj 2573 1579 outlet~;
#X obj 2633 1579 outlet~;
#X obj 2693 1579 outlet~;
#X obj 2753 1579 outlet~;
#X obj 2813 1579 outlet~;
#X obj 2873 1579 outlet~;
#X obj 1116 101 inlet ctl;
#N canvas 265 124 950 786 process 0;
#X obj 69 30 inlet~;
#X obj 69 725 outlet~;
#X obj 285 33 bang~;
#X obj 285 217 until;
#X obj 285 249 f;
#X obj 335 249 + 1;
#X text 326 33 bang each block;
#X obj 471 59 / 2;
#X obj 285 573 t f f;
#X msg 758 669 set \$2-processed-real-\$1;
#X msg 738 702 set \$2-processed-imag-\$1;
#X obj 663 657 t f f;
#X text 169 189 block size N/2;
#X obj 285 657 tabread \$0-real;
#X obj 502 657 tabread \$0-imag;
#X obj 285 739 tabwrite \$0-processed-real-0;
#X obj 502 739 tabwrite \$0-processed-imag-0;
#X obj 285 65 t b b;
#X obj 471 37 r \$0-blocksize;
#N canvas 766 121 450 300 channelmapping 0;
#X obj 69 37 inlet;
#X obj 69 229 outlet;
#X obj 69 91 t f b;
#X obj 69 163 array get \$0-channelmapping;
#X msg 101 122 1;
#X connect 0 0 2 0;
#X connect 2 0 3 0;
#X connect 2 1 4 0;
#X connect 3 0 1 0;
#X connect 4 0 3 1;
#X restore 738 556 pd channelmapping;
#X obj 738 626 pack f \$0;
#X text 375 238 count from '0' to 'N/2-1' in each block (leave out
dc);
#X msg 335 217 1;
#X obj 471 81 - 1;
#X obj 285 190 f 511;
#N canvas 1 51 482 380 erb 0;
#X obj 81 37 inlet;
#X obj 81 272 outlet;
#X obj 282 265 outlet;
#X obj 81 63 t f f;
#X obj 81 229 spigot;
#X obj 299 184 spigot;
#N canvas 293 114 450 300 band2output 0;
#X obj 101 33 inlet;
#X obj 101 262 outlet;
#X obj 119 60 r \$0-bandsoffset;
#X obj 101 157 mod 8;
#X obj 133 125 r \$0-outputs;
#X obj 101 85 - 0;
#X connect 0 0 5 0;
#X connect 2 0 5 1;
#X connect 3 0 1 0;
#X connect 4 0 3 1;
#X connect 5 0 3 0;
#X restore 299 225 pd band2output;
#N canvas 1422 230 565 505 freq2band 0;
#X obj 137 74 expr 21.4*log10(4.37*$f1/1000.0 + 1);
#X obj 137 96 int;
#X obj 137 118 clip 0 42;
#X obj 370 119 r \$0-bands;
#X obj 381 153 r \$0-bandsoffset;
#X obj 381 173 t b f;
#X obj 370 201 + 0;
#X obj 345 301 &&;
#X obj 345 227 < 41;
#X obj 381 253 r \$0-bandsoffset;
#X obj 363 275 >=;
#X obj 137 140 t f f f;
#X obj 137 45 inlet bin;
#X obj 137 299 outlet band;
#X obj 345 323 outlet spigot;
#X connect 0 0 1 0;
#X connect 1 0 2 0;
#X connect 2 0 11 0;
#X connect 3 0 6 0;
#X connect 4 0 5 0;
#X connect 5 0 6 0;
#X connect 5 1 6 1;
#X connect 6 0 8 1;
#X connect 7 0 14 0;
#X connect 8 0 7 0;
#X connect 9 0 10 1;
#X connect 10 0 7 1;
#X connect 11 0 13 0;
#X connect 11 1 8 0;
#X connect 11 2 10 0;
#X connect 12 0 0 0;
#X restore 302 120 pd freq2band;
#N canvas 712 89 450 300 bin2freq 0;
#X obj 87 121 samplerate~;
#X obj 48 145 * 44100;
#X obj 48 197 / 512;
#X obj 75 174 r \$0-blocksize;
#X obj 48 95 t f b;
#X obj 46 61 inlet;
#X obj 48 219 outlet;
#X connect 0 0 1 1;
#X connect 1 0 2 0;
#X connect 2 0 6 0;
#X connect 3 0 2 1;
#X connect 4 0 1 0;
#X connect 4 1 0 0;
#X connect 5 0 4 0;
#X restore 302 92 pd bin2freq;
#X obj 113 88 - 1;
#X connect 0 0 3 0;
#X connect 3 0 4 0;
#X connect 3 1 9 0;
#X connect 4 0 1 0;
#X connect 5 0 6 0;
#X connect 6 0 2 0;
#X connect 7 0 5 0;
#X connect 7 1 4 1;
#X connect 7 1 5 1;
#X connect 8 0 7 0;
#X connect 9 0 8 0;
#X restore 286 429 pd erb;
#X obj 285 357 kdemux2;
#X obj 367 327 r \$0-algorithm;
#N canvas 1 51 482 380 erb 0;
#X obj 81 37 inlet;
#X obj 81 272 outlet;
#X obj 173 273 outlet;
#X obj 81 63 t f f;
#X obj 113 88 - 1;
#N canvas 287 108 450 300 bin2output 0;
#X obj 101 33 inlet;
#X obj 101 262 outlet;
#X obj 101 157 mod 8;
#X obj 133 125 r \$0-outputs;
#X connect 0 0 2 0;
#X connect 2 0 1 0;
#X connect 3 0 2 1;
#X restore 166 181 pd bin2output;
#X connect 0 0 3 0;
#X connect 3 0 1 0;
#X connect 3 1 4 0;
#X connect 4 0 5 0;
#X connect 5 0 2 0;
#X restore 415 432 pd erb;
#X connect 2 0 17 0;
#X connect 3 0 4 0;
#X connect 4 0 5 0;
#X connect 4 0 26 0;
#X connect 5 0 4 1;
#X connect 7 0 23 0;
#X connect 8 0 13 0;
#X connect 8 0 14 0;
#X connect 8 1 11 0;
#X connect 9 0 15 0;
#X connect 10 0 16 0;
#X connect 11 0 15 1;
#X connect 11 1 16 1;
#X connect 13 0 15 0;
#X connect 14 0 16 0;
#X connect 17 0 24 0;
#X connect 17 1 22 0;
#X connect 18 0 7 0;
#X connect 19 0 20 0;
#X connect 20 0 9 0;
#X connect 20 0 10 0;
#X connect 22 0 4 1;
#X connect 23 0 24 1;
#X connect 24 0 3 0;
#X connect 25 0 8 0;
#X connect 25 1 19 0;
#X connect 26 0 25 0;
#X connect 26 1 28 0;
#X connect 27 0 26 1;
#X connect 28 0 8 0;
#X connect 28 1 19 0;
#X restore 177 396 pd process;
#X obj 1457 225 s \$0-bandsoffset;
#X obj 1352 225 s \$0-bands;
#X obj 1243 339 s \$0-outputs;
#X obj 844 505 t b b f;
#X obj 844 549 until;
#X obj 844 581 f;
#X obj 931 581 + 1;
#X msg 931 549 0;
#X obj 712 451 t f f f;
#X msg 1035 542 \; \$1-real resize \$2 \; \$1-imag resize \$2 \;;
#X obj 844 633 pack f f \$0;
#X text 874 461 --- resize arrays to block size & set zero ---;
#X obj 1453 308 s \$0-change;
#X obj 176 973 +~;
#X obj 50 1579 outlet~;
#X msg 844 661 \; \$3-processed-real-\$1 resize \$2 \; \$3-processed-imag-\$1
resize \$2 \; \$3-processed-real-\$1 const 0 \; \$3-processed-imag-\$1
const 0;
#X text 268 416 - write to output-buffers;
#X obj 1116 168 t b f b;
#X obj 1411 338 f;
#X msg 1370 338 0;
#X obj 1345 185 t b f b b;
#X obj 1418 184 t b f b b;
#X obj 712 617 switch~ 512 4 1;
#X obj 601 429 r \$0-state;
#X obj 1680 289 s \$0-outputslist;
#X obj 617 455 r \$0-outputs;
#X obj 601 531 &&;
#X obj 617 499 t b f;
#X obj 2570 529 spat_erbfilter_slot \$0 1;
#X obj 617 477 > 0;
#N canvas 1417 472 450 300 channelmapping 0;
#X obj 75 94 r \$0-outputslist;
#X obj 75 192 s \$0-channelmapping;
#X obj 75 156 list prepend 0;
#X obj 69 241 array define \$0-channelmapping 48;
#X obj 75 116 t a b;
#X msg 204 156 const 0;
#X obj 250 78 r \$0-outputs;
#X obj 250 100 sel 0;
#X connect 0 0 4 0;
#X connect 2 0 1 0;
#X connect 4 0 2 0;
#X connect 4 1 5 0;
#X connect 5 0 1 0;
#X connect 6 0 7 0;
#X connect 7 0 5 0;
#X restore 1680 328 pd channelmapping;
#X obj 1222 189 t b f b b;
#N canvas 445 308 450 300 change 0;
#X obj 66 157 until;
#X obj 66 189 f;
#X obj 153 189 + 1;
#X msg 153 157 0;
#X obj 66 214 pack f \$0;
#X obj 66 73 t b b;
#X obj 67 38 r \$0-change;
#X msg 66 242 \; \$2-processed-real-\$1 const 0 \; \$2-processed-imag-\$1
const 0;
#X msg 66 95 48;
#X connect 0 0 1 0;
#X connect 1 0 2 0;
#X connect 1 0 4 0;
#X connect 2 0 1 1;
#X connect 3 0 1 1;
#X connect 4 0 7 0;
#X connect 5 0 8 0;
#X connect 5 1 3 0;
#X connect 6 0 5 0;
#X connect 8 0 0 0;
#X restore 1671 408 pd change;
#X obj 1116 126 route blocksize state outputs bands bandsoffset outputslist
algorithm;
#X obj 1624 211 s \$0-algorithm;
#X obj 2570 509 spat_erbfilter_slot \$0 0;
#X obj 2570 549 spat_erbfilter_slot \$0 2;
#X obj 2570 569 spat_erbfilter_slot \$0 3;
#X obj 2570 589 spat_erbfilter_slot \$0 4;
#X obj 2570 609 spat_erbfilter_slot \$0 5;
#X obj 2570 629 spat_erbfilter_slot \$0 6;
#X obj 2570 649 spat_erbfilter_slot \$0 7;
#X obj 2570 669 spat_erbfilter_slot \$0 8;
#X obj 2570 689 spat_erbfilter_slot \$0 9;
#X obj 2570 709 spat_erbfilter_slot \$0 10;
#X obj 2570 729 spat_erbfilter_slot \$0 11;
#X obj 2570 749 spat_erbfilter_slot \$0 12;
#X obj 2570 769 spat_erbfilter_slot \$0 13;
#X obj 2570 789 spat_erbfilter_slot \$0 14;
#X obj 2570 809 spat_erbfilter_slot \$0 15;
#X obj 2570 829 spat_erbfilter_slot \$0 16;
#X obj 2570 849 spat_erbfilter_slot \$0 17;
#X obj 2570 869 spat_erbfilter_slot \$0 18;
#X obj 2570 889 spat_erbfilter_slot \$0 19;
#X obj 2570 909 spat_erbfilter_slot \$0 20;
#X obj 2570 929 spat_erbfilter_slot \$0 21;
#X obj 2570 949 spat_erbfilter_slot \$0 22;
#X obj 2570 969 spat_erbfilter_slot \$0 23;
#X obj 2570 989 spat_erbfilter_slot \$0 24;
#X obj 2570 1009 spat_erbfilter_slot \$0 25;
#X obj 2570 1029 spat_erbfilter_slot \$0 26;
#X obj 2570 1049 spat_erbfilter_slot \$0 27;
#X obj 2570 1069 spat_erbfilter_slot \$0 28;
#X obj 2570 1089 spat_erbfilter_slot \$0 29;
#X obj 2570 1109 spat_erbfilter_slot \$0 30;
#X obj 2570 1129 spat_erbfilter_slot \$0 31;
#X obj 2570 1149 spat_erbfilter_slot \$0 32;
#X obj 2570 1169 spat_erbfilter_slot \$0 33;
#X obj 2570 1189 spat_erbfilter_slot \$0 34;
#X obj 2570 1209 spat_erbfilter_slot \$0 35;
#X obj 2570 1229 spat_erbfilter_slot \$0 36;
#X obj 2570 1249 spat_erbfilter_slot \$0 37;
#X obj 2570 1269 spat_erbfilter_slot \$0 38;
#X obj 2570 1289 spat_erbfilter_slot \$0 39;
#X obj 2570 1309 spat_erbfilter_slot \$0 40;
#X obj 2570 1329 spat_erbfilter_slot \$0 41;
#X obj 2570 1349 spat_erbfilter_slot \$0 42;
#X obj 2570 1369 spat_erbfilter_slot \$0 43;
#X obj 2570 1389 spat_erbfilter_slot \$0 44;
#X obj 2570 1409 spat_erbfilter_slot \$0 45;
#X obj 2570 1429 spat_erbfilter_slot \$0 46;
#X obj 2570 1449 spat_erbfilter_slot \$0 47;
#X msg 844 527 48;
#X obj 1551 173 t b f;
#X connect 2 0 79 0;
#X connect 4 0 92 0;
#X connect 5 0 78 0;
#X connect 10 0 69 0;
#X connect 11 0 10 0;
#X connect 12 0 11 1;
#X connect 17 0 11 0;
#X connect 68 0 103 0;
#X connect 69 0 83 0;
#X connect 73 0 152 0;
#X connect 73 1 77 0;
#X connect 73 2 80 1;
#X connect 74 0 75 0;
#X connect 75 0 76 0;
#X connect 75 0 80 0;
#X connect 76 0 75 1;
#X connect 77 0 75 1;
#X connect 78 0 4 0;
#X connect 78 1 73 0;
#X connect 78 2 2 0;
#X connect 80 0 85 0;
#X connect 83 0 98 0;
#X connect 83 0 105 0;
#X connect 83 0 106 0;
#X connect 83 0 107 0;
#X connect 83 0 108 0;
#X connect 83 0 109 0;
#X connect 83 0 110 0;
#X connect 83 0 111 0;
#X connect 83 0 112 0;
#X connect 83 0 113 0;
#X connect 83 0 114 0;
#X connect 83 0 115 0;
#X connect 83 0 116 0;
#X connect 83 0 117 0;
#X connect 83 0 118 0;
#X connect 83 0 119 0;
#X connect 83 0 120 0;
#X connect 83 0 121 0;
#X connect 83 0 122 0;
#X connect 83 0 123 0;
#X connect 83 0 124 0;
#X connect 83 0 125 0;
#X connect 83 0 126 0;
#X connect 83 0 127 0;
#X connect 83 0 128 0;
#X connect 83 0 129 0;
#X connect 83 0 130 0;
#X connect 83 0 131 0;
#X connect 83 0 132 0;
#X connect 83 0 133 0;
#X connect 83 0 134 0;
#X connect 83 0 135 0;
#X connect 83 0 136 0;
#X connect 83 0 137 0;
#X connect 83 0 138 0;
#X connect 83 0 139 0;
#X connect 83 0 140 0;
#X connect 83 0 141 0;
#X connect 83 0 142 0;
#X connect 83 0 143 0;
#X connect 83 0 144 0;
#X connect 83 0 145 0;
#X connect 83 0 146 0;
#X connect 83 0 147 0;
#X connect 83 0 148 0;
#X connect 83 0 149 0;
#X connect 83 0 150 0;
#X connect 83 0 151 0;
#X connect 87 0 88 0;
#X connect 87 1 3 0;
#X connect 87 2 89 0;
#X connect 88 0 9 0;
#X connect 89 0 9 0;
#X connect 90 0 88 0;
#X connect 90 1 71 0;
#X connect 90 2 82 0;
#X connect 90 3 89 0;
#X connect 91 0 88 0;
#X connect 91 1 70 0;
#X connect 91 2 82 0;
#X connect 91 3 89 0;
#X connect 93 0 96 0;
#X connect 95 0 99 0;
#X connect 96 0 92 0;
#X connect 97 0 96 0;
#X connect 97 1 96 1;
#X connect 98 0 21 0;
#X connect 99 0 97 0;
#X connect 101 0 88 0;
#X connect 101 1 72 0;
#X connect 101 2 82 0;
#X connect 101 3 89 0;
#X connect 103 0 87 0;
#X connect 103 1 88 0;
#X connect 103 2 101 0;
#X connect 103 3 90 0;
#X connect 103 4 91 0;
#X connect 103 5 94 0;
#X connect 103 6 153 0;
#X connect 105 0 84 0;
#X connect 106 0 22 0;
#X connect 107 0 23 0;
#X connect 108 0 24 0;
#X connect 109 0 25 0;
#X connect 110 0 26 0;
#X connect 111 0 27 0;
#X connect 112 0 28 0;
#X connect 113 0 29 0;
#X connect 114 0 30 0;
#X connect 115 0 31 0;
#X connect 116 0 32 0;
#X connect 117 0 33 0;
#X connect 118 0 34 0;
#X connect 119 0 35 0;
#X connect 120 0 36 0;
#X connect 121 0 37 0;
#X connect 122 0 38 0;
#X connect 123 0 39 0;
#X connect 124 0 40 0;
#X connect 125 0 41 0;
#X connect 126 0 42 0;
#X connect 127 0 43 0;
#X connect 128 0 44 0;
#X connect 129 0 45 0;
#X connect 130 0 46 0;
#X connect 131 0 47 0;
#X connect 132 0 48 0;
#X connect 133 0 49 0;
#X connect 134 0 50 0;
#X connect 135 0 51 0;
#X connect 136 0 52 0;
#X connect 137 0 53 0;
#X connect 138 0 54 0;
#X connect 139 0 55 0;
#X connect 140 0 56 0;
#X connect 141 0 57 0;
#X connect 142 0 58 0;
#X connect 143 0 59 0;
#X connect 144 0 60 0;
#X connect 145 0 61 0;
#X connect 146 0 62 0;
#X connect 147 0 63 0;
#X connect 148 0 64 0;
#X connect 149 0 65 0;
#X connect 150 0 66 0;
#X connect 151 0 67 0;
#X connect 152 0 74 0;
#X connect 153 0 82 0;
#X connect 153 1 104 0;
#X coords 0 947 1 946 85 60 0;
