#N canvas 470 50 573 460 10;
#X obj 50 100 inlet~;
#X obj 50 314 outlet~;
#X text 321 368 (c)2012 Marian Weger;
#X obj 310 100 inlet;
#X obj 110 314 outlet~;
#X obj 375 158 list prepend no method for;
#X obj 375 180 list trim;
#X text 35 29 spat_gain_3~;
#X obj 170 314 outlet~;
#X obj 310 122 route 0 1 2;
#X obj 375 202 print spat_gain_3~;
#X obj 50 222 fx_gain~;
#X obj 110 222 fx_gain~;
#X obj 170 222 fx_gain~;
#X connect 0 0 11 0;
#X connect 0 0 12 0;
#X connect 0 0 13 0;
#X connect 3 0 9 0;
#X connect 5 0 6 0;
#X connect 6 0 10 0;
#X connect 9 0 11 1;
#X connect 9 1 12 1;
#X connect 9 2 13 1;
#X connect 9 3 5 0;
#X connect 11 0 1 0;
#X connect 12 0 4 0;
#X connect 13 0 8 0;
