#N canvas 579 141 520 452 10;
#X obj 57 378 outlet ctl;
#N canvas 298 419 372 226 init 0;
#X obj 32 29 loadbang;
#X obj 32 93 f \$3;
#X obj 32 131 s /spat/demux/\$1;
#X connect 0 0 1 0;
#X connect 1 0 2 0;
#X restore 326 206 pd init;
#N canvas 709 325 305 197 ds 0;
#X obj 72 88 ds_reg \$2 /spat/demux/\$1;
#X restore 329 266 pd ds;
#N canvas 709 325 305 197 osc 0;
#X obj 79 87 osc_bi \$2 /spat/demux/\$1;
#X restore 329 286 pd osc;
#X text 227 349 (c)2012 Marian Weger;
#X text 23 23 spat_demux_ctl <name> <domain> (<init value>);
#X obj 57 139 r /spat/demux/\$1;
#X obj 200 93 inlet;
#X connect 6 0 0 0;
