#N canvas 145 23 572 382 10;
#X text 291 294 (c)2012 Marian Weger;
#N canvas 333 231 338 221 ds 0;
#X obj 61 79 ds_reg \$2 /spat/reverb/\$1/level;
#X obj 61 99 ds_reg \$2 /spat/reverb/\$1/liveness;
#X obj 61 119 ds_reg \$2 /spat/reverb/\$1/crossover;
#X obj 61 139 ds_reg \$2 /spat/reverb/\$1/damping;
#X restore 362 187 pd ds;
#N canvas 333 231 338 221 osc 0;
#X obj 61 79 osc_bi \$2 /spat/reverb/\$1/level;
#X obj 61 99 osc_bi \$2 /spat/reverb/\$1/liveness;
#X obj 61 119 osc_bi \$2 /spat/reverb/\$1/crossover;
#X obj 61 139 osc_bi \$2 /spat/reverb/\$1/damping;
#X restore 362 207 pd osc;
#X obj 82 299 list trim;
#X obj 82 323 outlet ctl;
#N canvas 298 419 372 226 init 1;
#X obj 32 29 loadbang;
#X obj 32 51 list prepend \$1 \$2;
#X msg 32 87 \; /spat/reverb/\$1/level 100 \; /spat/reverb/\$1/liveness
90 \; /spat/reverb/\$1/crossover 3000 \; /spat/reverb/\$1/damping 20
\;;
#X connect 0 0 1 0;
#X connect 1 0 2 0;
#X restore 362 167 pd init;
#X text 38 19 spat_reverb_ctl <name> <domain>;
#X obj 355 45 inlet;
#X obj 41 50 r /spat/reverb/\$1/level;
#X obj 41 73 list prepend level;
#X obj 82 105 r /spat/reverb/\$1/liveness;
#X obj 82 127 list prepend liveness;
#X obj 111 155 r /spat/reverb/\$1/crossover;
#X obj 111 177 list prepend crossover;
#X obj 140 205 r /spat/reverb/\$1/damping;
#X obj 140 227 list prepend damping;
#X connect 3 0 4 0;
#X connect 8 0 9 0;
#X connect 9 0 3 0;
#X connect 10 0 11 0;
#X connect 11 0 3 0;
#X connect 12 0 13 0;
#X connect 13 0 3 0;
#X connect 14 0 15 0;
#X connect 15 0 3 0;
