#N canvas 265 22 743 697 10;
#X text 426 508 (c)2012 Marian Weger;
#X obj 71 637 outlet~;
#X obj 71 46 inlet~;
#X obj 71 452 rev2~ 100 90 300 20;
#X obj 121 637 outlet~;
#X obj 171 637 outlet~;
#X obj 221 637 outlet~;
#X obj 148 46 inlet;
#X obj 98 380 + 100;
#X obj 532 184 list prepend no method for;
#X obj 532 206 list trim;
#X text 346 558 container for rev2~ by Miller Puckette;
#X obj 309 176 loadbang;
#X obj 349 240 sel 0;
#X obj 389 240 sel 0;
#X obj 429 240 sel 0;
#X msg 349 262 90;
#X msg 389 262 300;
#X msg 429 262 20;
#X obj 349 284 t f;
#X obj 389 284 t f;
#X obj 429 284 t f;
#X obj 532 228 print spat_reverb_4~;
#X obj 148 78 route level liveness crossover damping;
#X text 23 7 spat_reverb_4~ (<level> <liveness> <crossover> <damping>)
;
#X obj 309 218 f \$1;
#X obj 349 218 f \$2;
#X obj 389 218 f \$3;
#X obj 429 218 f \$4;
#X connect 2 0 3 0;
#X connect 3 0 1 0;
#X connect 3 1 4 0;
#X connect 3 2 5 0;
#X connect 3 3 6 0;
#X connect 7 0 23 0;
#X connect 8 0 3 1;
#X connect 9 0 10 0;
#X connect 10 0 22 0;
#X connect 12 0 25 0;
#X connect 12 0 26 0;
#X connect 12 0 27 0;
#X connect 12 0 28 0;
#X connect 13 0 16 0;
#X connect 13 1 19 0;
#X connect 14 0 17 0;
#X connect 14 1 20 0;
#X connect 15 0 18 0;
#X connect 15 1 21 0;
#X connect 16 0 19 0;
#X connect 17 0 20 0;
#X connect 18 0 21 0;
#X connect 19 0 3 2;
#X connect 20 0 3 3;
#X connect 21 0 3 4;
#X connect 23 0 8 0;
#X connect 23 1 3 2;
#X connect 23 2 3 3;
#X connect 23 3 3 4;
#X connect 23 4 9 0;
#X connect 25 0 8 0;
#X connect 26 0 13 0;
#X connect 27 0 14 0;
#X connect 28 0 15 0;
