#N canvas 307 40 819 465 10;
#X obj 50 61 inlet~;
#X obj 50 314 outlet~;
#X obj 1160 60 inlet;
#X obj 50 292 fx_gain~;
#X obj 110 314 outlet~;
#X obj 1505 128 list prepend no method for;
#X obj 1505 150 list trim;
#X obj 170 314 outlet~;
#X obj 230 314 outlet~;
#X obj 290 314 outlet~;
#X obj 110 292 fx_gain~;
#X obj 170 292 fx_gain~;
#X obj 230 292 fx_gain~;
#X obj 290 292 fx_gain~;
#X obj 350 314 outlet~;
#X obj 350 292 fx_gain~;
#X obj 410 314 outlet~;
#X obj 410 292 fx_gain~;
#X obj 470 314 outlet~;
#X obj 470 292 fx_gain~;
#X text 35 29 spat_gain_24~;
#X text 68 373 (c)2013 Marian Weger;
#X obj 1505 172 print spat_gain_24~;
#X obj 540 314 outlet~;
#X obj 540 292 fx_gain~;
#X obj 600 314 outlet~;
#X obj 660 314 outlet~;
#X obj 720 314 outlet~;
#X obj 780 314 outlet~;
#X obj 600 292 fx_gain~;
#X obj 660 292 fx_gain~;
#X obj 720 292 fx_gain~;
#X obj 780 292 fx_gain~;
#X obj 840 314 outlet~;
#X obj 840 292 fx_gain~;
#X obj 900 314 outlet~;
#X obj 900 292 fx_gain~;
#X obj 960 314 outlet~;
#X obj 960 292 fx_gain~;
#X obj 1020 314 outlet~;
#X obj 1020 292 fx_gain~;
#X obj 1080 314 outlet~;
#X obj 1140 314 outlet~;
#X obj 1200 314 outlet~;
#X obj 1260 314 outlet~;
#X obj 1080 292 fx_gain~;
#X obj 1140 292 fx_gain~;
#X obj 1200 292 fx_gain~;
#X obj 1260 292 fx_gain~;
#X obj 1320 314 outlet~;
#X obj 1320 292 fx_gain~;
#X obj 1380 314 outlet~;
#X obj 1380 292 fx_gain~;
#X obj 1440 314 outlet~;
#X obj 1440 292 fx_gain~;
#X obj 1160 82 route 0 1 2 3 4 5 6 7 8 9 10 11 12 13 14 15 16 17 18
19 20 21 22 23;
#X connect 0 0 3 0;
#X connect 0 0 10 0;
#X connect 0 0 11 0;
#X connect 0 0 12 0;
#X connect 0 0 13 0;
#X connect 0 0 15 0;
#X connect 0 0 17 0;
#X connect 0 0 19 0;
#X connect 0 0 24 0;
#X connect 0 0 29 0;
#X connect 0 0 30 0;
#X connect 0 0 31 0;
#X connect 0 0 32 0;
#X connect 0 0 34 0;
#X connect 0 0 36 0;
#X connect 0 0 38 0;
#X connect 0 0 40 0;
#X connect 0 0 45 0;
#X connect 0 0 46 0;
#X connect 0 0 47 0;
#X connect 0 0 48 0;
#X connect 0 0 50 0;
#X connect 0 0 52 0;
#X connect 0 0 54 0;
#X connect 2 0 55 0;
#X connect 3 0 1 0;
#X connect 5 0 6 0;
#X connect 6 0 22 0;
#X connect 10 0 4 0;
#X connect 11 0 7 0;
#X connect 12 0 8 0;
#X connect 13 0 9 0;
#X connect 15 0 14 0;
#X connect 17 0 16 0;
#X connect 19 0 18 0;
#X connect 24 0 23 0;
#X connect 29 0 25 0;
#X connect 30 0 26 0;
#X connect 31 0 27 0;
#X connect 32 0 28 0;
#X connect 34 0 33 0;
#X connect 36 0 35 0;
#X connect 38 0 37 0;
#X connect 40 0 39 0;
#X connect 45 0 41 0;
#X connect 46 0 42 0;
#X connect 47 0 43 0;
#X connect 48 0 44 0;
#X connect 50 0 49 0;
#X connect 52 0 51 0;
#X connect 54 0 53 0;
#X connect 55 0 3 1;
#X connect 55 1 10 1;
#X connect 55 2 11 1;
#X connect 55 3 12 1;
#X connect 55 4 13 1;
#X connect 55 5 15 1;
#X connect 55 6 17 1;
#X connect 55 7 19 1;
#X connect 55 8 24 1;
#X connect 55 9 29 1;
#X connect 55 10 30 1;
#X connect 55 11 31 1;
#X connect 55 12 32 1;
#X connect 55 13 34 1;
#X connect 55 14 36 1;
#X connect 55 15 38 1;
#X connect 55 16 40 1;
#X connect 55 17 45 1;
#X connect 55 18 46 1;
#X connect 55 19 47 1;
#X connect 55 20 48 1;
#X connect 55 21 50 1;
#X connect 55 22 52 1;
#X connect 55 23 54 1;
#X connect 55 24 5 0;
