#N canvas 326 102 572 382 10;
#X text 291 294 (c)2012 Marian Weger;
#N canvas 333 231 338 221 ds 0;
#X obj 61 79 ds_reg \$2 /spat/vbap/\$1/az;
#X obj 61 99 ds_reg \$2 /spat/vbap/\$1/el;
#X obj 61 119 ds_reg \$2 /spat/vbap/\$1/spread;
#X restore 362 187 pd ds;
#N canvas 333 231 338 221 osc 0;
#X obj 61 79 osc_bi \$2 /spat/vbap/\$1/az;
#X obj 61 99 osc_bi \$2 /spat/vbap/\$1/el;
#X obj 61 119 osc_bi \$2 /spat/vbap/\$1/spread;
#X restore 362 207 pd osc;
#X obj 82 105 r /spat/vbap/\$1/az;
#X obj 111 155 r /spat/vbap/\$1/el;
#X obj 140 205 r /spat/vbap/\$1/spread;
#X obj 292 51 inlet define_loudspeakers;
#X obj 82 127 list prepend az;
#X obj 111 177 list prepend el;
#X obj 140 227 list prepend spread;
#X obj 82 299 list trim;
#X obj 82 323 outlet ctl;
#X obj 41 73 list prepend define_loudspeakers;
#N canvas 296 420 372 226 init 0;
#X obj 32 29 loadbang;
#X obj 32 51 list prepend \$1 \$2;
#X msg 32 87 \; /spat/vbap/\$1/define_loudspeakers 2 -45 45 \; /spat/vbap/\$1/az
0 \; /spat/vbap/\$1/el 0 \; /spat/vbap/\$1/spread 30 \;;
#X connect 0 0 1 0;
#X connect 1 0 2 0;
#X restore 362 167 pd init;
#X text 38 19 spat_vbap_ctl <name> <domain>;
#X obj 292 103 s /spat/vbap/\$1/define_loudspeakers;
#X obj 41 50 r /spat/vbap/\$1/define_loudspeakers;
#X obj 292 73 route define_loudspeakers;
#X connect 3 0 7 0;
#X connect 4 0 8 0;
#X connect 5 0 9 0;
#X connect 6 0 17 0;
#X connect 7 0 10 0;
#X connect 8 0 10 0;
#X connect 9 0 10 0;
#X connect 10 0 11 0;
#X connect 12 0 10 0;
#X connect 16 0 12 0;
#X connect 17 0 15 0;
