#N canvas 546 175 581 365 10;
#X obj 30 66 inlet~;
#X obj 30 305 outlet~;
#X obj 80 305 outlet~;
#X obj 99 66 inlet ctl;
#X obj 99 188 spat_vbap_gains \$1 \$2;
#X obj 99 88 route az el spread define_loudspeakers;
#X obj 324 121 list prepend no method for;
#X obj 324 143 list trim;
#X text 286 289 (c)2012 Marian Weger;
#X obj 130 305 outlet~;
#X text 30 17 spat_vbap_4~ <name> <domain>;
#X obj 324 165 print spat_vbap_4~;
#X obj 30 225 spat_gain_4~;
#X obj 180 305 outlet~;
#X connect 0 0 12 0;
#X connect 3 0 5 0;
#X connect 4 0 12 1;
#X connect 5 0 4 0;
#X connect 5 1 4 1;
#X connect 5 2 4 2;
#X connect 5 3 4 3;
#X connect 5 4 6 0;
#X connect 6 0 7 0;
#X connect 7 0 11 0;
#X connect 12 0 1 0;
#X connect 12 1 2 0;
#X connect 12 2 9 0;
#X connect 12 3 13 0;
#X coords 0 365 1 364 85 60 0;
