#N canvas 1762 284 663 621 10;
#X text 427 172 output buffer (size = 1 block);
#X obj 430 194 table \$1-processed-real-\$2 512;
#X obj 430 214 table \$1-processed-imag-\$2 512;
#X obj 305 556 switch~;
#X obj 217 547 *~;
#X obj 236 499 pack 0 5;
#X obj 236 521 line~;
#X obj 236 471 t f f;
#X obj 305 499 1del0 15;
#X obj 217 599 outlet~;
#X obj 216 50 inlet~;
#X obj 217 138 spat_erbfilter_slot_ifft \$1 \$2;
#X obj 236 222 r \$1-outputs;
#X obj 303 297 until;
#X obj 303 319 f;
#X obj 303 270 t f b;
#X msg 358 295 0;
#X obj 357 318 + 1;
#X obj 303 341 t f b;
#X obj 303 405 == \$2;
#X obj 240 340 sel 1;
#X msg 357 358 1;
#X obj 303 383 array get \$1-channelmapping;
#X obj 161 337 t b;
#X msg 161 359 0;
#X obj 236 243 route 0;
#X obj 450 514 s \$1-processed-real-\$2;
#X obj 450 534 s \$1-processed-imag-\$2;
#X msg 427 485 const 0;
#X obj 305 521 t f b;
#X connect 4 0 9 0;
#X connect 5 0 6 0;
#X connect 6 0 4 1;
#X connect 7 0 5 0;
#X connect 7 1 8 0;
#X connect 8 0 29 0;
#X connect 10 0 11 0;
#X connect 11 0 4 0;
#X connect 12 0 25 0;
#X connect 13 0 14 0;
#X connect 14 0 17 0;
#X connect 14 0 18 0;
#X connect 15 0 13 0;
#X connect 15 1 16 0;
#X connect 16 0 14 1;
#X connect 17 0 14 1;
#X connect 18 0 22 0;
#X connect 18 1 21 0;
#X connect 19 0 20 0;
#X connect 19 0 7 0;
#X connect 20 0 13 1;
#X connect 21 0 22 1;
#X connect 22 0 19 0;
#X connect 23 0 24 0;
#X connect 24 0 7 0;
#X connect 25 0 23 0;
#X connect 25 1 15 0;
#X connect 28 0 26 0;
#X connect 28 0 27 0;
#X connect 29 0 3 0;
#X connect 29 1 28 0;
