#N canvas 371 269 596 410 10;
#X text 298 310 (c)2012 Marian Weger;
#X obj 120 304 vbap 0 0 30;
#X obj 120 104 inlet az;
#X obj 180 104 inlet el;
#X obj 240 104 inlet spread;
#X obj 120 136 t b f;
#X obj 180 136 t b f;
#X obj 240 136 t b f;
#X obj 330 187 list prepend define_loudspeakers;
#X obj 330 209 list trim;
#X obj 330 104 inlet define_loudspeakers;
#X obj 350 134 loadbang;
#X obj 120 336 outlet gains;
#X text 35 29 spat_vbap_gains;
#X msg 350 156 2 -45 45;
#X connect 1 0 12 0;
#X connect 2 0 5 0;
#X connect 3 0 6 0;
#X connect 4 0 7 0;
#X connect 5 0 1 0;
#X connect 5 1 1 1;
#X connect 6 0 1 0;
#X connect 6 1 1 2;
#X connect 7 0 1 0;
#X connect 7 1 1 3;
#X connect 8 0 9 0;
#X connect 9 0 1 0;
#X connect 10 0 8 0;
#X connect 11 0 14 0;
#X connect 14 0 8 0;
