#N canvas 470 50 573 460 10;
#X obj 50 100 inlet~;
#X obj 50 314 outlet~;
#X text 321 368 (c)2012 Marian Weger;
#X obj 310 100 inlet;
#X obj 110 314 outlet~;
#X obj 310 122 route 0 1;
#X obj 361 148 list prepend no method for;
#X obj 361 170 list trim;
#X obj 50 222 fx_gain~;
#X obj 110 222 fx_gain~;
#X text 35 29 spat_gain~;
#X obj 361 192 print spat_gain~;
#X connect 0 0 8 0;
#X connect 0 0 9 0;
#X connect 3 0 5 0;
#X connect 5 0 8 1;
#X connect 5 1 9 1;
#X connect 5 2 6 0;
#X connect 6 0 7 0;
#X connect 7 0 11 0;
#X connect 8 0 1 0;
#X connect 9 0 4 0;
