#N canvas 470 50 639 454 10;
#X obj 50 100 inlet~;
#X obj 50 314 outlet~;
#X text 431 368 (c)2012 Marian Weger;
#X obj 370 100 inlet;
#X obj 50 222 fx_gain~;
#X obj 110 314 outlet~;
#X obj 455 168 list prepend no method for;
#X obj 455 190 list trim;
#X obj 170 314 outlet~;
#X obj 230 314 outlet~;
#X text 35 29 spat_gain_5~;
#X obj 290 314 outlet~;
#X obj 370 122 route 0 1 2 3 4;
#X obj 455 212 print spat_gain_5~;
#X obj 110 222 fx_gain~;
#X obj 170 222 fx_gain~;
#X obj 230 222 fx_gain~;
#X obj 290 222 fx_gain~;
#X connect 0 0 4 0;
#X connect 0 0 14 0;
#X connect 0 0 15 0;
#X connect 0 0 16 0;
#X connect 0 0 17 0;
#X connect 3 0 12 0;
#X connect 4 0 1 0;
#X connect 6 0 7 0;
#X connect 7 0 13 0;
#X connect 12 0 4 1;
#X connect 12 1 14 1;
#X connect 12 2 15 1;
#X connect 12 3 16 1;
#X connect 12 4 17 1;
#X connect 12 5 6 0;
#X connect 14 0 5 0;
#X connect 15 0 8 0;
#X connect 16 0 9 0;
#X connect 17 0 11 0;
