#N canvas 605 124 572 528 10;
#N canvas 670 238 420 207 ds 0;
#X obj 61 99 ds_reg \$2 /spat/stftfilter/\$1/state nomorph;
#X obj 61 139 ds_reg \$2 /spat/stftfilter/\$1/bands nomorph;
#X obj 61 159 ds_reg \$2 /spat/stftfilter/\$1/bands/offset nomorph
;
#X obj 61 179 ds_reg \$2 /spat/stftfilter/\$1/algorithm nomorph;
#X obj 61 79 # ds_reg \$2 /spat/stftfilter/\$1/blocksize nomorph;
#X restore 362 187 pd ds;
#N canvas 323 221 405 272 osc 0;
#X obj 61 79 osc_bi \$2 /spat/stftfilter/\$1/blocksize;
#X obj 61 99 osc_bi \$2 /spat/stftfilter/\$1/state;
#X obj 61 119 osc_bi \$2 /spat/stftfilter/\$1/outputs;
#X obj 61 139 osc_bi \$2 /spat/stftfilter/\$1/bands;
#X obj 61 159 osc_bi \$2 /spat/stftfilter/\$1/bands/offset;
#X obj 61 179 osc_bi \$2 /spat/stftfilter/\$1/outputs/list;
#X obj 61 199 osc_bi \$2 /spat/stftfilter/\$1/algorithm;
#X restore 362 207 pd osc;
#X obj 41 395 list trim;
#X obj 41 419 outlet ctl;
#N canvas 269 294 372 226 init 1;
#X obj 32 29 loadbang;
#X obj 32 51 list prepend \$1 \$2;
#X msg 32 86 \; /spat/stftfilter/\$1/blocksize 1024 \; /spat/stftfilter/\$1/state
0 \; /spat/stftfilter/\$1/outputs 6 \; /spat/stftfilter/\$1/bands 39
\; /spat/stftfilter/\$1/bands/offset 3 \; /spat/stftfilter/\$1/outputs/list
0 3 5 7 8 12 \; /spat/stftfilter/\$1/algorithm 0 \;;
#X obj 174 24 bng 15 250 50 0 empty empty empty 17 7 0 10 -262144 -1
-1;
#X connect 0 0 1 0;
#X connect 1 0 2 0;
#X connect 3 0 1 0;
#X restore 362 167 pd init;
#X obj 318 54 inlet;
#X obj 41 50 r /spat/stftfilter/\$1/blocksize;
#X obj 41 73 list prepend blocksize;
#X obj 82 105 r /spat/stftfilter/\$1/state;
#X obj 82 127 list prepend state;
#X text 321 395 (c)2015 Marian Weger;
#X obj 112 155 r /spat/stftfilter/\$1/outputs;
#X obj 112 177 list prepend outputs;
#X obj 132 207 r /spat/stftfilter/\$1/bands;
#X obj 132 229 list prepend bands;
#X obj 141 256 r /spat/stftfilter/\$1/bands/offset;
#X obj 141 278 list prepend bandsoffset;
#X obj 151 306 r /spat/stftfilter/\$1/outputs/list;
#X obj 151 328 list prepend outputslist;
#X obj 161 356 r /spat/stftfilter/\$1/algorithm;
#X obj 161 378 list prepend algorithm;
#X text 38 19 spat_stftfilter_ctl <name> <domain>;
#X connect 2 0 3 0;
#X connect 6 0 7 0;
#X connect 7 0 2 0;
#X connect 8 0 9 0;
#X connect 9 0 2 0;
#X connect 11 0 12 0;
#X connect 12 0 2 0;
#X connect 13 0 14 0;
#X connect 14 0 2 0;
#X connect 15 0 16 0;
#X connect 16 0 2 0;
#X connect 17 0 18 0;
#X connect 18 0 2 0;
#X connect 19 0 20 0;
#X connect 20 0 2 0;
