#N canvas 21 138 1250 400 10;
#X obj 30 101 inlet~;
#X obj 30 340 outlet~;
#X obj 80 340 outlet~;
#X obj 692 101 inlet ctl;
#X obj 692 223 spat_vbap_gains \$1 \$2;
#X obj 692 123 route az el spread define_loudspeakers;
#X obj 917 156 list prepend no method for;
#X obj 917 178 list trim;
#X obj 130 340 outlet~;
#X obj 180 340 outlet~;
#X obj 230 340 outlet~;
#X obj 280 340 outlet~;
#X obj 330 340 outlet~;
#X obj 380 340 outlet~;
#X text 30 52 spat_vbap_24~ <name> <domain>;
#X obj 917 200 print spat_vbap_24~;
#X obj 341 260 spat_gain_24~ 0 0 0 0 0 0 0 0 0 0 0 0 0 0 0 0 0 0 0
0 0 0 0;
#X text 104 377 (c)2013 Marian Weger;
#X obj 430 340 outlet~;
#X obj 480 340 outlet~;
#X obj 530 340 outlet~;
#X obj 580 340 outlet~;
#X obj 630 340 outlet~;
#X obj 680 340 outlet~;
#X obj 730 340 outlet~;
#X obj 780 340 outlet~;
#X obj 830 340 outlet~;
#X obj 880 340 outlet~;
#X obj 930 340 outlet~;
#X obj 980 340 outlet~;
#X obj 1030 340 outlet~;
#X obj 1080 340 outlet~;
#X obj 1130 340 outlet~;
#X obj 1180 340 outlet~;
#X connect 0 0 16 0;
#X connect 3 0 5 0;
#X connect 4 0 16 1;
#X connect 5 0 4 0;
#X connect 5 1 4 1;
#X connect 5 2 4 2;
#X connect 5 3 4 3;
#X connect 5 4 6 0;
#X connect 6 0 7 0;
#X connect 7 0 15 0;
#X connect 16 0 1 0;
#X connect 16 1 2 0;
#X connect 16 2 8 0;
#X connect 16 3 9 0;
#X connect 16 4 10 0;
#X connect 16 5 11 0;
#X connect 16 6 12 0;
#X connect 16 7 13 0;
#X connect 16 8 18 0;
#X connect 16 9 19 0;
#X connect 16 10 20 0;
#X connect 16 11 21 0;
#X connect 16 12 22 0;
#X connect 16 13 23 0;
#X connect 16 14 24 0;
#X connect 16 15 25 0;
#X connect 16 16 26 0;
#X connect 16 17 27 0;
#X connect 16 18 28 0;
#X connect 16 19 29 0;
#X connect 16 20 30 0;
#X connect 16 21 31 0;
#X connect 16 22 32 0;
#X connect 16 23 33 0;
#X coords 0 400 1 399 85 60 0;
