#N canvas 307 40 819 465 10;
#X obj 50 100 inlet~;
#X obj 50 314 outlet~;
#X text 551 368 (c)2012 Marian Weger;
#X obj 450 100 inlet;
#X obj 50 222 fx_gain~;
#X obj 110 314 outlet~;
#X obj 575 198 list prepend no method for;
#X obj 575 220 list trim;
#X obj 170 314 outlet~;
#X obj 230 314 outlet~;
#X obj 290 314 outlet~;
#X obj 110 222 fx_gain~;
#X obj 170 222 fx_gain~;
#X obj 230 222 fx_gain~;
#X obj 290 222 fx_gain~;
#X obj 350 314 outlet~;
#X obj 350 222 fx_gain~;
#X obj 450 122 route 0 1 2 3 4 5 6 7;
#X text 35 29 spat_gain_8~;
#X obj 410 314 outlet~;
#X obj 410 222 fx_gain~;
#X obj 470 314 outlet~;
#X obj 470 222 fx_gain~;
#X obj 575 242 print spat_gain_8~;
#X connect 0 0 4 0;
#X connect 0 0 11 0;
#X connect 0 0 12 0;
#X connect 0 0 13 0;
#X connect 0 0 14 0;
#X connect 0 0 16 0;
#X connect 0 0 20 0;
#X connect 0 0 22 0;
#X connect 3 0 17 0;
#X connect 4 0 1 0;
#X connect 6 0 7 0;
#X connect 7 0 23 0;
#X connect 11 0 5 0;
#X connect 12 0 8 0;
#X connect 13 0 9 0;
#X connect 14 0 10 0;
#X connect 16 0 15 0;
#X connect 17 0 4 1;
#X connect 17 1 11 1;
#X connect 17 2 12 1;
#X connect 17 3 13 1;
#X connect 17 4 14 1;
#X connect 17 5 16 1;
#X connect 17 6 20 1;
#X connect 17 7 22 1;
#X connect 17 8 6 0;
#X connect 20 0 19 0;
#X connect 22 0 21 0;
