#N canvas 48 22 467 418 10;
#X text 278 352 (c)2012 Marian Weger;
#X obj 38 351 outlet~ left;
#X obj 159 351 outlet~ right;
#X obj 38 42 inlet~ mono;
#X obj 159 310 fx_gain~;
#X obj 38 310 fx_gain~;
#X obj 83 287 == 0;
#X obj 204 287 != 0;
#X obj 223 102 inlet;
#X obj 323 145 loadbang;
#X obj 323 167 float \$1;
#X text 235 26 0: inlet to 1st outlet;
#X text 235 46 non zero: inlet to 2nd outlet;
#X text 40 12 spat_demux~ (<init value>);
#X connect 3 0 4 0;
#X connect 3 0 5 0;
#X connect 4 0 2 0;
#X connect 5 0 1 0;
#X connect 6 0 5 1;
#X connect 7 0 4 1;
#X connect 8 0 6 0;
#X connect 8 0 7 0;
#X connect 9 0 10 0;
#X connect 10 0 7 0;
#X connect 10 0 6 0;
