#N canvas 0 58 1280 940 10;
#X text 112 45 spat_stftfilter_48~ <name> <domain>;
#X text 210 1328 (c)2015 Marian Weger;
#X obj 1035 513 list prepend \$0;
#X obj 1139 297 s \$0-blocksize;
#X msg 712 496 set \$1 4 1;
#X obj 712 392 r \$0-blocksize;
#X text 452 218 create Hann-window at startup;
#N canvas 69 232 668 463 hann-window 0;
#N canvas 3 73 450 300 (subpatch) 0;
#X array \$0-hann 512 float 0;
#X coords 0 1 511 0 200 120 1;
#X restore 403 213 graph;
#X text 389 205 1;
#X text 382 323 0;
#X text 398 336 0;
#X text 446 185 Hann window;
#X text 594 339 N-1;
#X obj 109 206 until;
#X obj 109 234 f;
#X obj 141 234 + 1;
#X msg 151 206 0;
#X obj 109 256 t a a;
#X text 100 348 value;
#X text 161 348 index;
#X obj 108 366 tabwrite \$0-hann;
#X obj 109 57 r \$0-blocksize;
#X obj 109 102 t f f;
#X obj 136 147 s \$0-hann;
#X msg 136 124 resize \$1;
#X obj 109 79 change;
#X obj 109 280 / 128;
#X obj 109 323 expr (1.0-cos($f1*1.5708))/2.0;
#X obj 109 182 t a b f;
#X obj 196 221 / 4;
#X connect 6 0 7 0;
#X connect 7 0 8 0;
#X connect 7 0 10 0;
#X connect 8 0 7 1;
#X connect 9 0 7 1;
#X connect 10 0 19 0;
#X connect 10 1 13 1;
#X connect 14 0 18 0;
#X connect 15 0 21 0;
#X connect 15 1 17 0;
#X connect 17 0 16 0;
#X connect 18 0 15 0;
#X connect 19 0 20 0;
#X connect 20 0 13 0;
#X connect 21 0 6 0;
#X connect 21 1 9 0;
#X connect 21 2 22 0;
#X connect 22 0 19 1;
#X restore 454 242 pd hann-window;
#X text 709 370 --- set block size ---;
#X obj 1174 385 s \$0-state;
#N canvas 3 73 642 364 fft 0;
#X obj 137 45 inlet~;
#X obj 137 283 outlet~;
#X obj 137 147 rfft~;
#X obj 137 199 tabsend~ \$0-real;
#X obj 164 177 tabsend~ \$0-imag;
#X text 136 261 outlet for dsp execution order forcing;
#X text 276 190 write one block continuously;
#X connect 0 0 2 0;
#X connect 2 0 3 0;
#X connect 2 1 4 0;
#X restore 177 327 pd fft;
#X obj 177 280 *~;
#X obj 194 256 tabreceive~ \$0-hann;
#X text 213 279 multiply by window;
#X text 227 328 write block to input-buffer;
#X text 268 378 - read input buffer;
#X text 268 393 - process;
#X obj 177 199 inlet~;
#X obj 451 318 table \$0-real 512;
#X obj 451 338 table \$0-imag 512;
#X text 448 295 input buffer (size = 1 block);
#X obj 110 1572 outlet~;
#X obj 170 1572 outlet~;
#X obj 230 1572 outlet~;
#X obj 290 1572 outlet~;
#X obj 350 1572 outlet~;
#X obj 410 1572 outlet~;
#X obj 470 1572 outlet~;
#X obj 530 1572 outlet~;
#X obj 590 1572 outlet~;
#X obj 650 1572 outlet~;
#X obj 710 1572 outlet~;
#X obj 770 1572 outlet~;
#X obj 830 1572 outlet~;
#X obj 890 1572 outlet~;
#X obj 950 1572 outlet~;
#X obj 1010 1572 outlet~;
#X obj 1070 1572 outlet~;
#X obj 1130 1572 outlet~;
#X obj 1190 1572 outlet~;
#X obj 1250 1572 outlet~;
#X obj 1310 1572 outlet~;
#X obj 1370 1572 outlet~;
#X obj 1430 1572 outlet~;
#X obj 1490 1572 outlet~;
#X obj 1550 1572 outlet~;
#X obj 1610 1572 outlet~;
#X obj 1670 1572 outlet~;
#X obj 1730 1572 outlet~;
#X obj 1790 1572 outlet~;
#X obj 1850 1572 outlet~;
#X obj 1910 1572 outlet~;
#X obj 1970 1572 outlet~;
#X obj 2030 1572 outlet~;
#X obj 2090 1572 outlet~;
#X obj 2150 1572 outlet~;
#X obj 2210 1572 outlet~;
#X obj 2270 1572 outlet~;
#X obj 2330 1572 outlet~;
#X obj 2390 1572 outlet~;
#X obj 2450 1572 outlet~;
#X obj 2510 1572 outlet~;
#X obj 2573 1572 outlet~;
#X obj 2633 1572 outlet~;
#X obj 2693 1572 outlet~;
#X obj 2753 1572 outlet~;
#X obj 2813 1572 outlet~;
#X obj 2873 1572 outlet~;
#X obj 1116 94 inlet ctl;
#N canvas 224 160 950 786 process 0;
#X obj 69 30 inlet~;
#X obj 69 725 outlet~;
#X obj 285 33 bang~;
#X obj 285 217 until;
#X obj 285 249 f;
#X obj 335 249 + 1;
#X text 326 33 bang each block;
#X obj 471 59 / 2;
#X obj 285 573 t f f;
#X msg 758 669 set \$2-processed-real-\$1;
#X msg 738 702 set \$2-processed-imag-\$1;
#X obj 663 657 t f f;
#X text 169 189 block size N/2;
#X obj 285 657 tabread \$0-real;
#X obj 502 657 tabread \$0-imag;
#X obj 285 65 t b b;
#X obj 471 37 r \$0-blocksize;
#N canvas 766 141 450 394 channelmapping 0;
#X obj 69 37 inlet;
#X obj 69 309 outlet;
#X obj 69 91 t f b;
#X obj 69 163 array get \$0-channelmapping;
#X msg 101 122 1;
#X obj 108 217 unpack f;
#X obj 108 239 != 0;
#X obj 69 185 t a a;
#X obj 69 287 spigot;
#X obj 162 254 sel 0;
#X msg 162 276 1;
#X connect 0 0 2 0;
#X connect 2 0 3 0;
#X connect 2 1 4 0;
#X connect 3 0 7 0;
#X connect 4 0 3 1;
#X connect 5 0 6 0;
#X connect 5 0 9 0;
#X connect 6 0 8 1;
#X connect 7 0 8 0;
#X connect 7 1 5 0;
#X connect 8 0 1 0;
#X connect 9 0 10 0;
#X connect 10 0 1 0;
#X restore 738 556 pd channelmapping;
#X obj 738 626 pack f \$0;
#X text 375 238 count from '0' to 'N/2-1' in each block (leave out
dc);
#X msg 335 217 1;
#X obj 471 81 - 1;
#X obj 285 190 f 511;
#N canvas 3 58 482 380 erb 0;
#X obj 81 37 inlet;
#X obj 81 272 outlet;
#X obj 282 265 outlet;
#X obj 81 63 t f f;
#X obj 81 229 spigot;
#X obj 299 184 spigot;
#N canvas 200 116 450 300 band2output 0;
#X obj 101 33 inlet;
#X obj 101 262 outlet;
#X obj 119 60 r \$0-bandsoffset;
#X obj 101 157 mod 8;
#X obj 133 125 r \$0-outputs;
#X obj 101 85 - 0;
#X connect 0 0 5 0;
#X connect 2 0 5 1;
#X connect 3 0 1 0;
#X connect 4 0 3 1;
#X connect 5 0 3 0;
#X restore 299 225 pd band2output;
#N canvas 1114 228 565 505 freq2band 0;
#X obj 137 74 expr 21.4*log10(4.37*$f1/1000.0 + 1);
#X obj 137 96 int;
#X obj 137 118 clip 0 42;
#X obj 370 119 r \$0-bands;
#X obj 381 153 r \$0-bandsoffset;
#X obj 381 173 t b f;
#X obj 370 201 + 0;
#X obj 345 301 &&;
#X obj 345 227 < 41;
#X obj 381 253 r \$0-bandsoffset;
#X obj 363 275 >=;
#X obj 137 140 t f f f;
#X obj 137 45 inlet bin;
#X obj 137 299 outlet band;
#X obj 345 323 outlet spigot;
#X connect 0 0 1 0;
#X connect 1 0 2 0;
#X connect 2 0 11 0;
#X connect 3 0 6 0;
#X connect 4 0 5 0;
#X connect 5 0 6 0;
#X connect 5 1 6 1;
#X connect 6 0 8 1;
#X connect 7 0 14 0;
#X connect 8 0 7 0;
#X connect 9 0 10 1;
#X connect 10 0 7 1;
#X connect 11 0 13 0;
#X connect 11 1 8 0;
#X connect 11 2 10 0;
#X connect 12 0 0 0;
#X restore 302 120 pd freq2band;
#N canvas 712 89 450 300 bin2freq 0;
#X obj 87 121 samplerate~;
#X obj 48 145 * 44100;
#X obj 48 197 / 512;
#X obj 75 174 r \$0-blocksize;
#X obj 48 95 t f b;
#X obj 46 61 inlet;
#X obj 48 219 outlet;
#X connect 0 0 1 1;
#X connect 1 0 2 0;
#X connect 2 0 6 0;
#X connect 3 0 2 1;
#X connect 4 0 1 0;
#X connect 4 1 0 0;
#X connect 5 0 4 0;
#X restore 302 92 pd bin2freq;
#X obj 113 88 - 1;
#X connect 0 0 3 0;
#X connect 3 0 4 0;
#X connect 3 1 9 0;
#X connect 4 0 1 0;
#X connect 5 0 6 0;
#X connect 6 0 2 0;
#X connect 7 0 5 0;
#X connect 7 1 4 1;
#X connect 7 1 5 1;
#X connect 8 0 7 0;
#X connect 9 0 8 0;
#X restore 286 429 pd erb;
#X obj 285 357 kdemux2;
#X obj 367 327 r \$0-algorithm;
#N canvas 1 51 482 380 bin 0;
#X obj 81 37 inlet;
#X obj 81 272 outlet;
#X obj 173 273 outlet;
#X obj 81 63 t f f;
#X obj 113 88 - 1;
#N canvas 287 108 450 300 bin2output 0;
#X obj 101 33 inlet;
#X obj 101 262 outlet;
#X obj 101 157 mod 8;
#X obj 133 125 r \$0-outputs;
#X connect 0 0 2 0;
#X connect 2 0 1 0;
#X connect 3 0 2 1;
#X restore 166 181 pd bin2output;
#X connect 0 0 3 0;
#X connect 3 0 1 0;
#X connect 3 1 4 0;
#X connect 4 0 5 0;
#X connect 5 0 2 0;
#X restore 415 432 pd bin;
#X obj 502 739 tabwrite \$0-processed-imag-1;
#X obj 285 739 tabwrite \$0-processed-real-1;
#X obj 846 632 print;
#X connect 2 0 15 0;
#X connect 3 0 4 0;
#X connect 4 0 5 0;
#X connect 4 0 24 0;
#X connect 5 0 4 1;
#X connect 7 0 21 0;
#X connect 8 0 13 0;
#X connect 8 0 14 0;
#X connect 8 1 11 0;
#X connect 9 0 28 0;
#X connect 10 0 27 0;
#X connect 11 0 28 1;
#X connect 11 1 27 1;
#X connect 13 0 28 0;
#X connect 14 0 27 0;
#X connect 15 0 22 0;
#X connect 15 1 20 0;
#X connect 16 0 7 0;
#X connect 17 0 18 0;
#X connect 18 0 9 0;
#X connect 18 0 10 0;
#X connect 20 0 4 1;
#X connect 21 0 22 1;
#X connect 22 0 3 0;
#X connect 23 0 8 0;
#X connect 23 1 17 0;
#X connect 24 0 23 0;
#X connect 24 1 26 0;
#X connect 25 0 24 1;
#X connect 26 0 8 0;
#X connect 26 1 17 0;
#X restore 177 389 pd process;
#X obj 1457 218 s \$0-bandsoffset;
#X obj 1352 218 s \$0-bands;
#X obj 1243 332 s \$0-outputs;
#X obj 844 498 t b b f;
#X obj 844 542 until;
#X obj 844 574 f;
#X obj 931 574 + 1;
#X msg 1035 535 \; \$1-real resize \$2 \; \$1-imag resize \$2 \;;
#X obj 844 626 pack f f \$0;
#X text 874 454 --- resize arrays to block size & set zero ---;
#X obj 1441 335 s \$0-change;
#X obj 176 966 +~;
#X obj 50 1572 outlet~;
#X msg 844 654 \; \$3-processed-real-\$1 resize \$2 \; \$3-processed-imag-\$1
resize \$2 \; \$3-processed-real-\$1 const 0 \; \$3-processed-imag-\$1
const 0;
#X text 268 409 - write to output-buffers;
#X obj 1116 161 t b f b;
#X obj 1345 178 t b f b b;
#X obj 1418 177 t b f b b;
#X obj 601 422 r \$0-state;
#X obj 1680 282 s \$0-outputslist;
#X obj 617 448 r \$0-outputs;
#X obj 601 524 &&;
#X obj 617 492 t b f;
#X obj 617 470 > 0;
#N canvas 743 185 450 300 channelmapping 0;
#X obj 75 94 r \$0-outputslist;
#X obj 75 192 s \$0-channelmapping;
#X obj 75 156 list prepend 0;
#X obj 69 241 array define \$0-channelmapping 48;
#X obj 75 116 t a b;
#X msg 204 156 const 0;
#X obj 250 78 r \$0-outputs;
#X obj 250 100 sel 0;
#X connect 0 0 4 0;
#X connect 2 0 1 0;
#X connect 4 0 2 0;
#X connect 4 1 5 0;
#X connect 5 0 1 0;
#X connect 6 0 7 0;
#X connect 7 0 5 0;
#X restore 1680 321 pd channelmapping;
#X obj 1222 182 t b f b b;
#N canvas 691 252 450 300 change 0;
#X obj 66 157 until;
#X obj 66 189 f;
#X obj 153 189 + 1;
#X obj 66 214 pack f \$0;
#X obj 66 73 t b b;
#X obj 67 38 r \$0-change;
#X msg 66 242 \; \$2-processed-real-\$1 const 0 \; \$2-processed-imag-\$1
const 0;
#X msg 66 95 48;
#X msg 153 157 1;
#X connect 0 0 1 0;
#X connect 1 0 2 0;
#X connect 1 0 3 0;
#X connect 2 0 1 1;
#X connect 3 0 6 0;
#X connect 4 0 7 0;
#X connect 4 1 8 0;
#X connect 5 0 4 0;
#X connect 7 0 0 0;
#X connect 8 0 1 1;
#X restore 1671 401 pd change;
#X obj 1116 119 route blocksize state outputs bands bandsoffset outputslist
algorithm;
#X obj 1624 204 s \$0-algorithm;
#X msg 844 520 48;
#X obj 1551 166 t b f;
#X text 594 564 disconnected;
#X obj 463 550 r \$0-state;
#X obj 712 608 switch~ 512 4 1;
#X obj 712 414 change 512;
#X obj 2570 502 spat_stftfilter_slot \$0 1;
#X msg 931 542 1;
#X obj 676 682 s \$0-subblocksize;
#X obj 712 444 t b f f f f f b, f 18;
#X msg 788 539 0;
#X obj 551 590 f;
#X obj 2570 522 spat_stftfilter_slot \$0 2;
#X obj 2570 542 spat_stftfilter_slot \$0 3;
#X obj 2570 562 spat_stftfilter_slot \$0 4;
#X obj 2570 582 spat_stftfilter_slot \$0 5;
#X obj 2570 602 spat_stftfilter_slot \$0 6;
#X obj 2570 622 spat_stftfilter_slot \$0 7;
#X obj 2570 642 spat_stftfilter_slot \$0 8;
#X obj 2570 662 spat_stftfilter_slot \$0 9;
#X obj 2570 682 spat_stftfilter_slot \$0 10;
#X obj 2570 702 spat_stftfilter_slot \$0 11;
#X obj 2570 722 spat_stftfilter_slot \$0 12;
#X obj 2570 742 spat_stftfilter_slot \$0 13;
#X obj 2570 762 spat_stftfilter_slot \$0 14;
#X obj 2570 782 spat_stftfilter_slot \$0 15;
#X obj 2570 802 spat_stftfilter_slot \$0 16;
#X obj 2570 822 spat_stftfilter_slot \$0 17;
#X obj 2570 842 spat_stftfilter_slot \$0 18;
#X obj 2570 862 spat_stftfilter_slot \$0 19;
#X obj 2570 882 spat_stftfilter_slot \$0 20;
#X obj 2570 902 spat_stftfilter_slot \$0 21;
#X obj 2570 922 spat_stftfilter_slot \$0 22;
#X obj 2570 942 spat_stftfilter_slot \$0 23;
#X obj 2570 962 spat_stftfilter_slot \$0 24;
#X obj 2570 982 spat_stftfilter_slot \$0 25;
#X obj 2570 1002 spat_stftfilter_slot \$0 26;
#X obj 2570 1022 spat_stftfilter_slot \$0 27;
#X obj 2570 1042 spat_stftfilter_slot \$0 28;
#X obj 2570 1061 spat_stftfilter_slot \$0 29;
#X obj 2570 1082 spat_stftfilter_slot \$0 30;
#X obj 2570 1102 spat_stftfilter_slot \$0 31;
#X obj 2570 1122 spat_stftfilter_slot \$0 32;
#X obj 2570 1142 spat_stftfilter_slot \$0 33;
#X obj 2570 1162 spat_stftfilter_slot \$0 34;
#X obj 2570 1182 spat_stftfilter_slot \$0 35;
#X obj 2570 1202 spat_stftfilter_slot \$0 36;
#X obj 2570 1222 spat_stftfilter_slot \$0 37;
#X obj 2570 1242 spat_stftfilter_slot \$0 38;
#X obj 2570 1262 spat_stftfilter_slot \$0 39;
#X obj 2570 1282 spat_stftfilter_slot \$0 40;
#X obj 2570 1302 spat_stftfilter_slot \$0 41;
#X obj 2570 1322 spat_stftfilter_slot \$0 42;
#X obj 2570 1342 spat_stftfilter_slot \$0 43;
#X obj 2570 1362 spat_stftfilter_slot \$0 44;
#X obj 2570 1382 spat_stftfilter_slot \$0 45;
#X obj 2570 1402 spat_stftfilter_slot \$0 46;
#X obj 2570 1422 spat_stftfilter_slot \$0 47;
#X obj 2570 1442 spat_stftfilter_slot \$0 48;
#X connect 2 0 77 0;
#X connect 4 0 103 0;
#X connect 5 0 104 0;
#X connect 10 0 69 0;
#X connect 11 0 10 0;
#X connect 12 0 11 1;
#X connect 17 0 11 0;
#X connect 68 0 97 0;
#X connect 69 0 81 0;
#X connect 73 0 99 0;
#X connect 73 1 106 0;
#X connect 73 2 78 1;
#X connect 74 0 75 0;
#X connect 75 0 76 0;
#X connect 75 0 78 0;
#X connect 76 0 75 1;
#X connect 78 0 83 0;
#X connect 81 0 105 0;
#X connect 81 0 111 0;
#X connect 81 0 112 0;
#X connect 81 0 113 0;
#X connect 81 0 114 0;
#X connect 81 0 115 0;
#X connect 81 0 116 0;
#X connect 81 0 117 0;
#X connect 81 0 118 0;
#X connect 81 0 119 0;
#X connect 81 0 120 0;
#X connect 81 0 121 0;
#X connect 81 0 122 0;
#X connect 81 0 123 0;
#X connect 81 0 124 0;
#X connect 81 0 125 0;
#X connect 81 0 126 0;
#X connect 81 0 127 0;
#X connect 81 0 128 0;
#X connect 81 0 129 0;
#X connect 81 0 130 0;
#X connect 81 0 131 0;
#X connect 81 0 132 0;
#X connect 81 0 133 0;
#X connect 81 0 134 0;
#X connect 81 0 135 0;
#X connect 81 0 136 0;
#X connect 81 0 137 0;
#X connect 81 0 138 0;
#X connect 81 0 139 0;
#X connect 81 0 140 0;
#X connect 81 0 141 0;
#X connect 81 0 142 0;
#X connect 81 0 143 0;
#X connect 81 0 144 0;
#X connect 81 0 145 0;
#X connect 81 0 146 0;
#X connect 81 0 147 0;
#X connect 81 0 148 0;
#X connect 81 0 149 0;
#X connect 81 0 150 0;
#X connect 81 0 151 0;
#X connect 81 0 152 0;
#X connect 81 0 153 0;
#X connect 81 0 154 0;
#X connect 81 0 155 0;
#X connect 81 0 156 0;
#X connect 81 0 157 0;
#X connect 85 1 3 0;
#X connect 86 1 71 0;
#X connect 86 2 80 0;
#X connect 87 1 70 0;
#X connect 87 2 80 0;
#X connect 88 0 91 0;
#X connect 90 0 93 0;
#X connect 92 0 91 0;
#X connect 92 1 91 1;
#X connect 93 0 92 0;
#X connect 95 1 72 0;
#X connect 95 2 80 0;
#X connect 97 0 85 0;
#X connect 97 1 9 0;
#X connect 97 2 95 0;
#X connect 97 3 86 0;
#X connect 97 4 87 0;
#X connect 97 5 89 0;
#X connect 97 6 100 0;
#X connect 99 0 74 0;
#X connect 100 0 80 0;
#X connect 100 1 98 0;
#X connect 102 0 110 0;
#X connect 104 0 108 0;
#X connect 105 0 82 0;
#X connect 106 0 75 1;
#X connect 108 0 110 0;
#X connect 108 1 4 0;
#X connect 108 2 73 0;
#X connect 108 3 2 0;
#X connect 108 4 107 0;
#X connect 108 6 109 0;
#X connect 109 0 103 0;
#X connect 110 0 103 0;
#X connect 111 0 21 0;
#X connect 112 0 22 0;
#X connect 113 0 23 0;
#X connect 114 0 24 0;
#X connect 115 0 25 0;
#X connect 116 0 26 0;
#X connect 117 0 27 0;
#X connect 118 0 28 0;
#X connect 119 0 29 0;
#X connect 120 0 30 0;
#X connect 121 0 31 0;
#X connect 122 0 32 0;
#X connect 123 0 33 0;
#X connect 124 0 34 0;
#X connect 125 0 35 0;
#X connect 126 0 36 0;
#X connect 127 0 37 0;
#X connect 128 0 38 0;
#X connect 129 0 39 0;
#X connect 130 0 40 0;
#X connect 131 0 41 0;
#X connect 132 0 42 0;
#X connect 133 0 43 0;
#X connect 134 0 44 0;
#X connect 135 0 45 0;
#X connect 136 0 46 0;
#X connect 137 0 47 0;
#X connect 138 0 48 0;
#X connect 139 0 49 0;
#X connect 140 0 50 0;
#X connect 141 0 51 0;
#X connect 142 0 52 0;
#X connect 143 0 53 0;
#X connect 144 0 54 0;
#X connect 145 0 55 0;
#X connect 146 0 56 0;
#X connect 147 0 57 0;
#X connect 148 0 58 0;
#X connect 149 0 59 0;
#X connect 150 0 60 0;
#X connect 151 0 61 0;
#X connect 152 0 62 0;
#X connect 153 0 63 0;
#X connect 154 0 64 0;
#X connect 155 0 65 0;
#X connect 156 0 66 0;
#X connect 157 0 67 0;
#X coords 0 940 1 939 85 60 0;
