#N canvas 1410 384 898 496 10;
#X obj 137 45 inlet~;
#X obj 137 450 outlet~;
#X obj 137 341 rifft~;
#X obj 137 291 /~ 768;
#X obj 200 291 /~ 768;
#X text 138 66 inlet for dsp execution order forcing;
#X text 198 147 read one block continuously;
#X obj 449 201 * 3;
#X obj 449 223 / 2;
#X text 481 212 3/2: normalization for Hann window and overlap-4;
#X text 558 171 N;
#X text 357 272 divide by 3N/2 for normalisation;
#X obj 449 169 r \$1-blocksize;
#X obj 137 169 tabreceive~ \$1-processed-real-\$2;
#X obj 136 415 *~;
#X text 169 415 multiply by window;
#X obj 200 197 tabreceive~ \$1-processed-imag-\$2;
#X obj 151 390 tabreceive~ \$1-hann;
#X connect 2 0 14 0;
#X connect 3 0 2 0;
#X connect 4 0 2 1;
#X connect 7 0 8 0;
#X connect 8 0 4 1;
#X connect 8 0 3 1;
#X connect 12 0 7 0;
#X connect 13 0 3 0;
#X connect 14 0 1 0;
#X connect 16 0 4 0;
#X connect 17 0 14 1;
