#N canvas 204 22 467 418 10;
#X text 278 352 (c)2012 Marian Weger;
#X obj 222 86 loadbang;
#X obj 204 205 * 1.5708;
#X obj 83 287 cos;
#X obj 204 287 sin;
#X obj 269 152 atan;
#X msg 269 130 1;
#X obj 269 174 * 2;
#X obj 38 351 outlet~ left;
#X obj 159 351 outlet~ right;
#X obj 38 42 inlet~ mono;
#X obj 204 47 inlet;
#X obj 159 310 fx_gain~;
#X obj 38 310 fx_gain~;
#X obj 222 108 t b b;
#X obj 222 130 f \$1;
#X text 40 12 spat_pan~ (<init value>);
#X connect 1 0 14 0;
#X connect 2 0 3 0;
#X connect 2 0 4 0;
#X connect 3 0 13 1;
#X connect 4 0 12 1;
#X connect 5 0 7 0;
#X connect 6 0 5 0;
#X connect 7 0 2 1;
#X connect 10 0 12 0;
#X connect 10 0 13 0;
#X connect 11 0 2 0;
#X connect 12 0 9 0;
#X connect 13 0 8 0;
#X connect 14 0 15 0;
#X connect 14 1 6 0;
#X connect 15 0 2 0;
