#N canvas 171 335 430 301 10;
#X text 283 260 (c)2012 Marian Weger;
#X text 42 14 tff01;
#X obj 114 27 inlet;
#X obj 114 259 outlet;
#X obj 180 259 outlet;
#X obj 153 147 t f f;
#X obj 114 147 t f f;
#X obj 153 95 > 0;
#X obj 114 119 kdemux2;
#X obj 114 49 t f f;
#X connect 2 0 9 0;
#X connect 5 0 3 0;
#X connect 5 1 4 0;
#X connect 6 0 4 0;
#X connect 6 1 3 0;
#X connect 7 0 8 1;
#X connect 8 0 6 0;
#X connect 8 1 5 0;
#X connect 9 0 8 0;
#X connect 9 1 7 0;
