#N canvas 751 22 450 300 10;
#X text 283 250 (c)2012 Marian Weger;
#X text 42 14 tff10;
#X obj 114 27 inlet;
#X obj 114 259 outlet;
#X obj 180 259 outlet;
#X obj 153 147 t f f;
#X obj 114 147 t f f;
#X obj 114 119 kdemux2;
#X obj 114 49 t f f;
#X obj 153 95 <= 0;
#X connect 2 0 8 0;
#X connect 5 0 3 0;
#X connect 5 1 4 0;
#X connect 6 0 4 0;
#X connect 6 1 3 0;
#X connect 7 0 6 0;
#X connect 7 1 5 0;
#X connect 8 0 7 0;
#X connect 8 1 9 0;
#X connect 9 0 7 1;
